M48
; DRILL file {KiCad (5.1.4)-1} date 2/29/2020 9:07:04 PM
; FORMAT={-:-/ absolute / inch / decimal}
; #@! TF.CreationDate,2020-02-29T21:07:04-06:00
; #@! TF.GenerationSoftware,Kicad,Pcbnew,(5.1.4)-1
; #@! TF.FileFunction,Plated,1,4,PTH
FMAT,2
INCH
T1C0.0079
T2C0.0300
T3C0.0394
T4C0.0600
%
G90
G05
T1
X1.9678Y-3.013
X2.0143Y-3.0565
X2.0558Y-3.1
X2.1423Y-3.1435
X2.2128Y-3.187
X2.2878Y-3.2305
X2.3648Y-3.274
X2.3849Y-3.9173
X2.4308Y-3.3175
X2.5279Y-4.1398
X2.5451Y-3.7098
X2.555Y-4.38
X2.555Y-4.425
X2.587Y-4.1398
X2.625Y-4.425
X2.8427Y-3.013
X2.8892Y-3.0565
X2.9307Y-3.1
X3.0172Y-3.1435
X3.0877Y-3.187
X3.1627Y-3.2305
X3.17Y-4.129
X3.2279Y-4.1398
X3.2397Y-3.274
X3.2575Y-4.3725
X3.2575Y-4.425
X3.26Y-3.915
X3.287Y-4.1398
X3.3057Y-3.3175
X3.335Y-4.425
X3.3449Y-4.2136
X3.4198Y-3.7101
X3.955Y-2.9695
X4.0272Y-2.8937
X4.13Y-3.365
X4.2625Y-3.365
X4.3Y-2.9695
X4.3025Y-3.647
X4.4415Y-2.9168
X4.593Y-3.013
X4.6389Y-3.0565
X4.6804Y-3.1
X4.7669Y-3.1435
X4.8374Y-3.187
X4.9124Y-3.2305
X4.9894Y-3.274
X5.01Y-3.915
X5.0554Y-3.3175
X5.1514Y-4.1398
X5.1701Y-3.7094
X5.18Y-4.3675
X5.18Y-4.425
X5.2105Y-4.1398
X5.2625Y-4.425
X5.289Y-4.2114
X5.375Y-3.82
X5.4678Y-3.013
X5.4995Y-4.0378
X5.5138Y-3.0565
X5.5553Y-3.1
X5.6418Y-3.1435
X5.7123Y-3.187
X5.7873Y-3.2305
X5.8514Y-4.1398
X5.8643Y-3.274
X5.88Y-4.3675
X5.88Y-4.425
X5.885Y-3.915
X5.9105Y-4.1398
X5.9303Y-3.3175
X5.9575Y-4.425
X6.0445Y-3.7098
X6.0518Y-4.2344
X6.2157Y-3.361
X6.2213Y-3.4037
X6.3075Y-3.8175
X6.6525Y-4.23
X6.655Y-2.9575
X6.7094Y-4.2113
X6.7175Y-2.813
X6.7298Y-4.0536
X6.7325Y-2.6955
X6.735Y-4.375
X6.7525Y-4.5025
X6.7785Y-3.274
X6.796Y-4.2393
X6.8087Y-4.4025
X6.8191Y-4.2252
X6.8431Y-2.7031
X6.8825Y-4.35
X6.8969Y-3.3782
X6.9125Y-4.448
X6.9555Y-3.6375
X6.97Y-2.9575
X7.0225Y-2.6955
X7.0665Y-3.1435
X7.0994Y-3.5497
X7.1175Y-3.915
X7.1331Y-2.7031
X7.1369Y-4.3435
X7.1422Y-4.4275
X7.1536Y-3.3878
X7.1575Y-4.5075
X7.159Y-4.1283
X7.1695Y-4.3675
X7.2171Y-3.013
X7.2383Y-3.7085
X7.26Y-2.9575
X7.2636Y-3.0565
X7.3051Y-3.1
X7.3125Y-2.6955
X7.3575Y-3.1
X7.3916Y-3.1435
X7.4203Y-3.7397
X7.4231Y-2.7031
X7.4621Y-3.187
X7.5371Y-3.2305
X7.555Y-2.9575
X7.5739Y-3.8064
X7.6025Y-2.6955
X7.6141Y-3.274
X7.6325Y-3.915
X7.6465Y-3.0565
X7.6801Y-3.3175
X7.7131Y-2.7031
X7.7468Y-3.3878
X7.7779Y-4.1398
X7.795Y-3.7116
X7.8075Y-4.3675
X7.8075Y-4.425
X7.837Y-4.1398
X7.8425Y-2.9575
X7.8875Y-4.425
X7.895Y-2.6955
X7.9011Y-4.1344
X7.9013Y-4.2171
X7.905Y-3.7
X7.9094Y-3.9631
X7.91Y-4.0025
X7.91Y-4.045
X7.9395Y-3.013
X7.968Y-3.935
X7.968Y-3.995
X7.968Y-4.055
X7.968Y-4.115
X7.968Y-4.175
X7.968Y-4.235
X7.968Y-4.295
X7.968Y-4.355
X7.968Y-4.415
X7.968Y-4.475
X7.968Y-4.535
X8.0056Y-2.7031
X8.092Y-3.013
X8.135Y-2.9575
X8.1385Y-3.0565
X8.1775Y-4.551
X8.18Y-3.1
X8.1825Y-4.145
X8.185Y-2.6955
X8.1875Y-3.965
X8.1876Y-4.0081
X8.2375Y-3.98
X8.2665Y-3.1435
X8.2956Y-2.7031
X8.337Y-3.187
X8.3733Y-4.2842
X8.412Y-3.2305
X8.4275Y-2.9575
X8.4328Y-3.7917
X8.4425Y-4.37
X8.475Y-2.6955
X8.485Y-3.055
X8.489Y-3.274
X8.4947Y-4.2638
X8.5075Y-3.924
X8.5214Y-4.2871
X8.555Y-3.109
X8.555Y-3.3175
X8.585Y-2.6875
X8.5875Y-4.3605
X8.5875Y-4.4195
X8.5925Y-3.89
X8.6135Y-4.3177
X8.615Y-3.9175
X8.6182Y-3.6157
X8.637Y-3.921
X8.645Y-2.985
X8.6589Y-3.9187
X8.6825Y-3.915
X8.698Y-3.2225
X8.705Y-3.9075
X8.72Y-3.2225
X8.7275Y-3.685
X8.742Y-3.2225
X8.764Y-3.2225
X8.765Y-2.6955
X8.786Y-3.2225
X8.808Y-3.2225
X8.83Y-3.2225
X8.8525Y-3.2225
X8.8756Y-2.7031
X8.9463Y-3.2025
X8.9825Y-3.1475
X8.9825Y-3.3365
X8.9825Y-3.6514
X8.9825Y-3.6829
X8.9825Y-3.7144
X8.9825Y-3.7459
X8.9825Y-3.8089
X8.9825Y-3.8404
X8.9825Y-3.8719
X8.9825Y-3.9034
X8.9825Y-3.9664
X8.9825Y-3.9979
X8.9825Y-4.0294
X8.9825Y-4.0609
X9.005Y-2.9575
X9.0205Y-3.2001
X9.0392Y-4.3306
X9.044Y-3.2247
X9.06Y-3.368
X9.06Y-3.3995
X9.06Y-3.431
X9.06Y-3.4625
X9.06Y-3.494
X9.06Y-3.5255
X9.06Y-3.557
X9.06Y-3.5885
X9.06Y-3.62
X9.06Y-3.6515
X9.0777Y-3.1574
X9.0858Y-3.134
X9.0973Y-3.2396
X9.0973Y-3.305
X9.1046Y-4.2954
X9.1325Y-3.2105
X9.1325Y-3.242
X9.1325Y-3.2735
X9.1325Y-3.305
X9.1325Y-3.3365
X9.1325Y-3.6829
X9.1325Y-3.7144
X9.1325Y-3.7459
X9.1325Y-3.7774
X9.1325Y-3.8089
X9.1325Y-3.8404
X9.1325Y-3.8719
X9.1325Y-3.9034
X9.1325Y-3.9349
X9.1325Y-3.9664
X9.1325Y-3.9979
X9.1325Y-4.0294
X9.1325Y-4.0609
X9.2044Y-3.1353
T2
X4.6899Y-3.5745
X4.71Y-3.4997
X4.71Y-3.6494
X4.7647Y-3.445
X4.7647Y-3.7041
X4.8395Y-3.4249
X4.8395Y-3.7242
X4.9143Y-3.445
X4.9143Y-3.7041
X4.9691Y-3.6494
X4.9891Y-3.5745
X8.1895Y-3.5745
X8.2096Y-3.4997
X8.2096Y-3.6494
X8.2643Y-3.445
X8.2643Y-3.7041
X8.3391Y-3.4249
X8.3391Y-3.7242
X8.4139Y-3.445
X8.4139Y-3.7041
X8.4687Y-3.6494
X8.4887Y-3.5745
X2.9402Y-3.5745
X2.9603Y-3.4997
X2.9603Y-3.6494
X3.015Y-3.445
X3.015Y-3.7041
X3.0898Y-3.4249
X3.0898Y-3.7242
X3.1646Y-3.445
X3.1646Y-3.7041
X3.2193Y-3.6494
X3.2394Y-3.5745
X5.5649Y-3.5745
X5.585Y-3.4997
X5.585Y-3.6494
X5.6397Y-3.445
X5.6397Y-3.7041
X5.7145Y-3.4249
X5.7145Y-3.7242
X5.7893Y-3.445
X5.7893Y-3.7041
X5.844Y-3.6494
X5.8641Y-3.5745
X2.0653Y-3.5745
X2.0854Y-3.4997
X2.0854Y-3.6494
X2.1401Y-3.445
X2.1401Y-3.7041
X2.2149Y-3.4249
X2.2149Y-3.7242
X2.2897Y-3.445
X2.2897Y-3.7041
X2.3444Y-3.6494
X2.3645Y-3.5745
X6.4435Y-3.6078
X6.4724Y-3.4813
X6.4724Y-3.6678
X6.5245Y-3.4398
X6.5245Y-3.7093
X6.5894Y-3.4249
X6.5894Y-3.7242
X6.6543Y-3.4398
X6.6543Y-3.7093
X6.7063Y-3.4813
X6.7063Y-3.6678
X6.7352Y-3.5413
X6.7352Y-3.6078
X7.3146Y-3.5745
X7.3347Y-3.4997
X7.3347Y-3.6494
X7.3894Y-3.445
X7.3894Y-3.7041
X7.4643Y-3.4249
X7.4643Y-3.7242
X7.5391Y-3.445
X7.5391Y-3.7041
X7.5938Y-3.6494
X7.6139Y-3.5745
X3.8188Y-3.6078
X3.8477Y-3.4813
X3.8477Y-3.6678
X3.8998Y-3.4398
X3.8998Y-3.7093
X3.9647Y-3.4249
X3.9647Y-3.7242
X4.0296Y-3.4398
X4.0296Y-3.7093
X4.0817Y-3.4813
X4.0817Y-3.6678
X4.1105Y-3.5413
X4.1105Y-3.6078
T3
X1.4725Y-4.1825
T4
X8.9985Y-3.0767
X8.9985Y-4.1317
T0
M30
