G04 #@! TF.GenerationSoftware,KiCad,Pcbnew,(5.1.4)-1*
G04 #@! TF.CreationDate,2020-02-29T21:01:33-06:00*
G04 #@! TF.ProjectId,VFD_Clock,5646445f-436c-46f6-936b-2e6b69636164,rev?*
G04 #@! TF.SameCoordinates,Original*
G04 #@! TF.FileFunction,Copper,L4,Bot*
G04 #@! TF.FilePolarity,Positive*
%FSLAX46Y46*%
G04 Gerber Fmt 4.6, Leading zero omitted, Abs format (unit mm)*
G04 Created by KiCad (PCBNEW (5.1.4)-1) date 2020-02-29 21:01:33*
%MOMM*%
%LPD*%
G04 APERTURE LIST*
%ADD10C,0.200000*%
%ADD11C,0.010000*%
%ADD12R,1.000000X1.600000*%
%ADD13R,1.000000X1.250000*%
%ADD14C,0.889000*%
%ADD15R,1.250000X1.000000*%
%ADD16R,0.800000X0.750000*%
%ADD17R,0.500000X0.900000*%
%ADD18R,1.600000X1.600000*%
%ADD19C,1.600000*%
%ADD20R,0.750000X0.800000*%
%ADD21R,1.600000X1.000000*%
%ADD22R,1.000000X5.000000*%
%ADD23R,1.800000X2.500000*%
%ADD24R,1.200000X0.900000*%
%ADD25R,3.500000X3.500000*%
%ADD26O,1.700000X1.700000*%
%ADD27R,1.700000X1.700000*%
%ADD28R,0.450000X0.700000*%
%ADD29R,0.900000X0.500000*%
%ADD30R,0.800000X0.300000*%
%ADD31C,2.000000*%
%ADD32R,0.400000X1.060000*%
%ADD33R,0.750000X0.300000*%
%ADD34R,1.300000X1.500000*%
%ADD35R,1.240000X0.775000*%
%ADD36R,0.300000X0.650000*%
%ADD37R,0.400000X0.650000*%
%ADD38R,1.450000X0.450000*%
%ADD39R,0.250000X0.700000*%
%ADD40R,1.190000X0.830000*%
%ADD41C,1.800000*%
%ADD42R,0.650000X1.060000*%
%ADD43C,0.431800*%
%ADD44C,0.635000*%
%ADD45C,0.254000*%
G04 APERTURE END LIST*
D10*
X186562976Y-67413214D02*
X186562976Y-68079880D01*
X186324880Y-67032261D02*
X186086785Y-67746547D01*
X186705833Y-67746547D01*
D11*
G36*
X48041312Y-88809516D02*
G01*
X47697760Y-88810744D01*
X47412910Y-88813768D01*
X47179828Y-88819391D01*
X46991580Y-88828411D01*
X46841231Y-88841631D01*
X46721846Y-88859851D01*
X46626491Y-88883871D01*
X46548233Y-88914493D01*
X46480135Y-88952517D01*
X46415265Y-88998744D01*
X46349164Y-89051932D01*
X46277507Y-89113326D01*
X46219578Y-89172733D01*
X46173911Y-89238363D01*
X46139042Y-89318429D01*
X46113508Y-89421141D01*
X46095844Y-89554711D01*
X46084586Y-89727351D01*
X46078270Y-89947273D01*
X46075431Y-90222687D01*
X46074606Y-90561805D01*
X46074583Y-90591821D01*
X46075089Y-90876292D01*
X46076904Y-91141724D01*
X46079856Y-91378223D01*
X46083773Y-91575896D01*
X46088483Y-91724847D01*
X46093814Y-91815184D01*
X46096143Y-91832998D01*
X46143453Y-91946595D01*
X46233348Y-92075565D01*
X46346742Y-92197028D01*
X46464550Y-92288102D01*
X46485642Y-92299970D01*
X46571725Y-92341224D01*
X46662445Y-92375031D01*
X46766048Y-92402220D01*
X46890780Y-92423621D01*
X47044884Y-92440062D01*
X47236608Y-92452374D01*
X47474196Y-92461384D01*
X47765892Y-92467922D01*
X48119943Y-92472817D01*
X48214643Y-92473834D01*
X48520948Y-92476024D01*
X48818199Y-92476340D01*
X49094917Y-92474904D01*
X49339625Y-92471838D01*
X49540846Y-92467266D01*
X49687100Y-92461308D01*
X49738643Y-92457609D01*
X49947923Y-92435206D01*
X50104616Y-92410154D01*
X50228681Y-92377908D01*
X50340077Y-92333922D01*
X50391786Y-92308887D01*
X50530181Y-92216938D01*
X50660071Y-92093504D01*
X50758262Y-91962463D01*
X50788703Y-91900280D01*
X50800367Y-91831235D01*
X50810038Y-91693838D01*
X50817591Y-91492285D01*
X50822901Y-91230772D01*
X50825845Y-90913495D01*
X50826418Y-90630280D01*
X50825746Y-90280474D01*
X50823322Y-89995186D01*
X50817745Y-89766364D01*
X50817099Y-89754857D01*
X49793072Y-89754857D01*
X49793072Y-91492285D01*
X49702357Y-91538933D01*
X49658796Y-91552349D01*
X49582068Y-91562790D01*
X49465804Y-91570439D01*
X49303634Y-91575481D01*
X49089186Y-91578100D01*
X48816092Y-91578479D01*
X48477979Y-91576803D01*
X48408904Y-91576290D01*
X48080321Y-91573528D01*
X47816577Y-91570541D01*
X47609939Y-91566856D01*
X47452674Y-91561999D01*
X47337051Y-91555495D01*
X47255336Y-91546871D01*
X47199798Y-91535653D01*
X47162704Y-91521367D01*
X47136321Y-91503537D01*
X47129833Y-91497876D01*
X47104981Y-91472260D01*
X47086199Y-91439967D01*
X47072640Y-91391301D01*
X47063455Y-91316569D01*
X47057797Y-91206075D01*
X47054817Y-91050124D01*
X47053670Y-90839022D01*
X47053500Y-90624882D01*
X47054437Y-90348314D01*
X47057585Y-90135744D01*
X47063446Y-89978621D01*
X47072524Y-89868393D01*
X47085323Y-89796507D01*
X47102346Y-89754412D01*
X47104971Y-89750578D01*
X47122033Y-89731545D01*
X47147489Y-89716189D01*
X47188838Y-89704042D01*
X47253578Y-89694636D01*
X47349209Y-89687504D01*
X47483230Y-89682179D01*
X47663140Y-89678193D01*
X47896438Y-89675079D01*
X48190623Y-89672370D01*
X48384042Y-89670861D01*
X48738289Y-89668841D01*
X49026295Y-89668790D01*
X49254372Y-89670888D01*
X49428830Y-89675312D01*
X49555979Y-89682241D01*
X49642127Y-89691855D01*
X49693587Y-89704332D01*
X49702357Y-89708218D01*
X49793072Y-89754857D01*
X50817099Y-89754857D01*
X50807615Y-89585957D01*
X50791530Y-89445910D01*
X50768089Y-89338173D01*
X50735892Y-89254694D01*
X50693539Y-89187419D01*
X50639627Y-89128297D01*
X50572756Y-89069276D01*
X50551836Y-89051932D01*
X50483499Y-88997022D01*
X50418633Y-88951088D01*
X50350303Y-88913330D01*
X50271575Y-88882947D01*
X50175514Y-88859138D01*
X50055187Y-88841102D01*
X49903658Y-88828039D01*
X49713993Y-88819147D01*
X49479258Y-88813627D01*
X49192519Y-88810677D01*
X48846840Y-88809497D01*
X48450500Y-88809285D01*
X48041312Y-88809516D01*
X48041312Y-88809516D01*
G37*
X48041312Y-88809516D02*
X47697760Y-88810744D01*
X47412910Y-88813768D01*
X47179828Y-88819391D01*
X46991580Y-88828411D01*
X46841231Y-88841631D01*
X46721846Y-88859851D01*
X46626491Y-88883871D01*
X46548233Y-88914493D01*
X46480135Y-88952517D01*
X46415265Y-88998744D01*
X46349164Y-89051932D01*
X46277507Y-89113326D01*
X46219578Y-89172733D01*
X46173911Y-89238363D01*
X46139042Y-89318429D01*
X46113508Y-89421141D01*
X46095844Y-89554711D01*
X46084586Y-89727351D01*
X46078270Y-89947273D01*
X46075431Y-90222687D01*
X46074606Y-90561805D01*
X46074583Y-90591821D01*
X46075089Y-90876292D01*
X46076904Y-91141724D01*
X46079856Y-91378223D01*
X46083773Y-91575896D01*
X46088483Y-91724847D01*
X46093814Y-91815184D01*
X46096143Y-91832998D01*
X46143453Y-91946595D01*
X46233348Y-92075565D01*
X46346742Y-92197028D01*
X46464550Y-92288102D01*
X46485642Y-92299970D01*
X46571725Y-92341224D01*
X46662445Y-92375031D01*
X46766048Y-92402220D01*
X46890780Y-92423621D01*
X47044884Y-92440062D01*
X47236608Y-92452374D01*
X47474196Y-92461384D01*
X47765892Y-92467922D01*
X48119943Y-92472817D01*
X48214643Y-92473834D01*
X48520948Y-92476024D01*
X48818199Y-92476340D01*
X49094917Y-92474904D01*
X49339625Y-92471838D01*
X49540846Y-92467266D01*
X49687100Y-92461308D01*
X49738643Y-92457609D01*
X49947923Y-92435206D01*
X50104616Y-92410154D01*
X50228681Y-92377908D01*
X50340077Y-92333922D01*
X50391786Y-92308887D01*
X50530181Y-92216938D01*
X50660071Y-92093504D01*
X50758262Y-91962463D01*
X50788703Y-91900280D01*
X50800367Y-91831235D01*
X50810038Y-91693838D01*
X50817591Y-91492285D01*
X50822901Y-91230772D01*
X50825845Y-90913495D01*
X50826418Y-90630280D01*
X50825746Y-90280474D01*
X50823322Y-89995186D01*
X50817745Y-89766364D01*
X50817099Y-89754857D01*
X49793072Y-89754857D01*
X49793072Y-91492285D01*
X49702357Y-91538933D01*
X49658796Y-91552349D01*
X49582068Y-91562790D01*
X49465804Y-91570439D01*
X49303634Y-91575481D01*
X49089186Y-91578100D01*
X48816092Y-91578479D01*
X48477979Y-91576803D01*
X48408904Y-91576290D01*
X48080321Y-91573528D01*
X47816577Y-91570541D01*
X47609939Y-91566856D01*
X47452674Y-91561999D01*
X47337051Y-91555495D01*
X47255336Y-91546871D01*
X47199798Y-91535653D01*
X47162704Y-91521367D01*
X47136321Y-91503537D01*
X47129833Y-91497876D01*
X47104981Y-91472260D01*
X47086199Y-91439967D01*
X47072640Y-91391301D01*
X47063455Y-91316569D01*
X47057797Y-91206075D01*
X47054817Y-91050124D01*
X47053670Y-90839022D01*
X47053500Y-90624882D01*
X47054437Y-90348314D01*
X47057585Y-90135744D01*
X47063446Y-89978621D01*
X47072524Y-89868393D01*
X47085323Y-89796507D01*
X47102346Y-89754412D01*
X47104971Y-89750578D01*
X47122033Y-89731545D01*
X47147489Y-89716189D01*
X47188838Y-89704042D01*
X47253578Y-89694636D01*
X47349209Y-89687504D01*
X47483230Y-89682179D01*
X47663140Y-89678193D01*
X47896438Y-89675079D01*
X48190623Y-89672370D01*
X48384042Y-89670861D01*
X48738289Y-89668841D01*
X49026295Y-89668790D01*
X49254372Y-89670888D01*
X49428830Y-89675312D01*
X49555979Y-89682241D01*
X49642127Y-89691855D01*
X49693587Y-89704332D01*
X49702357Y-89708218D01*
X49793072Y-89754857D01*
X50817099Y-89754857D01*
X50807615Y-89585957D01*
X50791530Y-89445910D01*
X50768089Y-89338173D01*
X50735892Y-89254694D01*
X50693539Y-89187419D01*
X50639627Y-89128297D01*
X50572756Y-89069276D01*
X50551836Y-89051932D01*
X50483499Y-88997022D01*
X50418633Y-88951088D01*
X50350303Y-88913330D01*
X50271575Y-88882947D01*
X50175514Y-88859138D01*
X50055187Y-88841102D01*
X49903658Y-88828039D01*
X49713993Y-88819147D01*
X49479258Y-88813627D01*
X49192519Y-88810677D01*
X48846840Y-88809497D01*
X48450500Y-88809285D01*
X48041312Y-88809516D01*
G36*
X75912433Y-88790622D02*
G01*
X75745880Y-88797037D01*
X75607546Y-88807288D01*
X75511814Y-88821349D01*
X75474500Y-88836499D01*
X75450147Y-88877483D01*
X75395588Y-88975569D01*
X75314616Y-89123747D01*
X75211023Y-89315005D01*
X75088603Y-89542331D01*
X74951148Y-89798713D01*
X74802451Y-90077139D01*
X74738491Y-90197214D01*
X74587118Y-90480640D01*
X74445970Y-90743067D01*
X74318725Y-90977794D01*
X74209060Y-91178119D01*
X74120653Y-91337341D01*
X74057184Y-91448759D01*
X74022330Y-91505670D01*
X74017005Y-91511717D01*
X73996012Y-91480539D01*
X73944763Y-91391783D01*
X73866865Y-91252055D01*
X73765929Y-91067960D01*
X73645565Y-90846104D01*
X73509383Y-90593094D01*
X73360992Y-90315535D01*
X73273460Y-90151003D01*
X72551277Y-88791142D01*
X71939960Y-88791142D01*
X71736469Y-88792981D01*
X71562279Y-88798086D01*
X71428941Y-88805839D01*
X71348006Y-88815621D01*
X71328643Y-88823864D01*
X71345594Y-88860357D01*
X71393889Y-88953324D01*
X71469686Y-89095766D01*
X71569148Y-89280684D01*
X71688433Y-89501079D01*
X71823702Y-89749953D01*
X71971115Y-90020306D01*
X72126833Y-90305139D01*
X72287016Y-90597455D01*
X72447824Y-90890253D01*
X72605418Y-91176535D01*
X72755958Y-91449302D01*
X72895603Y-91701555D01*
X73020515Y-91926296D01*
X73126853Y-92116525D01*
X73210779Y-92265243D01*
X73268452Y-92365453D01*
X73296032Y-92410153D01*
X73296417Y-92410642D01*
X73332007Y-92427710D01*
X73411781Y-92440357D01*
X73542537Y-92449002D01*
X73731076Y-92454064D01*
X73984198Y-92455962D01*
X74033412Y-92455999D01*
X74733581Y-92455999D01*
X74804169Y-92338071D01*
X74854909Y-92250305D01*
X74932419Y-92112280D01*
X75032863Y-91931090D01*
X75152404Y-91713828D01*
X75287207Y-91467590D01*
X75433434Y-91199468D01*
X75587251Y-90916557D01*
X75744821Y-90625951D01*
X75902308Y-90334743D01*
X76055875Y-90050028D01*
X76201687Y-89778899D01*
X76335907Y-89528450D01*
X76454699Y-89305776D01*
X76554228Y-89117971D01*
X76630656Y-88972127D01*
X76680148Y-88875340D01*
X76698868Y-88834703D01*
X76698929Y-88834211D01*
X76665096Y-88817041D01*
X76573186Y-88803868D01*
X76437582Y-88794667D01*
X76272667Y-88789411D01*
X76092823Y-88788071D01*
X75912433Y-88790622D01*
X75912433Y-88790622D01*
G37*
X75912433Y-88790622D02*
X75745880Y-88797037D01*
X75607546Y-88807288D01*
X75511814Y-88821349D01*
X75474500Y-88836499D01*
X75450147Y-88877483D01*
X75395588Y-88975569D01*
X75314616Y-89123747D01*
X75211023Y-89315005D01*
X75088603Y-89542331D01*
X74951148Y-89798713D01*
X74802451Y-90077139D01*
X74738491Y-90197214D01*
X74587118Y-90480640D01*
X74445970Y-90743067D01*
X74318725Y-90977794D01*
X74209060Y-91178119D01*
X74120653Y-91337341D01*
X74057184Y-91448759D01*
X74022330Y-91505670D01*
X74017005Y-91511717D01*
X73996012Y-91480539D01*
X73944763Y-91391783D01*
X73866865Y-91252055D01*
X73765929Y-91067960D01*
X73645565Y-90846104D01*
X73509383Y-90593094D01*
X73360992Y-90315535D01*
X73273460Y-90151003D01*
X72551277Y-88791142D01*
X71939960Y-88791142D01*
X71736469Y-88792981D01*
X71562279Y-88798086D01*
X71428941Y-88805839D01*
X71348006Y-88815621D01*
X71328643Y-88823864D01*
X71345594Y-88860357D01*
X71393889Y-88953324D01*
X71469686Y-89095766D01*
X71569148Y-89280684D01*
X71688433Y-89501079D01*
X71823702Y-89749953D01*
X71971115Y-90020306D01*
X72126833Y-90305139D01*
X72287016Y-90597455D01*
X72447824Y-90890253D01*
X72605418Y-91176535D01*
X72755958Y-91449302D01*
X72895603Y-91701555D01*
X73020515Y-91926296D01*
X73126853Y-92116525D01*
X73210779Y-92265243D01*
X73268452Y-92365453D01*
X73296032Y-92410153D01*
X73296417Y-92410642D01*
X73332007Y-92427710D01*
X73411781Y-92440357D01*
X73542537Y-92449002D01*
X73731076Y-92454064D01*
X73984198Y-92455962D01*
X74033412Y-92455999D01*
X74733581Y-92455999D01*
X74804169Y-92338071D01*
X74854909Y-92250305D01*
X74932419Y-92112280D01*
X75032863Y-91931090D01*
X75152404Y-91713828D01*
X75287207Y-91467590D01*
X75433434Y-91199468D01*
X75587251Y-90916557D01*
X75744821Y-90625951D01*
X75902308Y-90334743D01*
X76055875Y-90050028D01*
X76201687Y-89778899D01*
X76335907Y-89528450D01*
X76454699Y-89305776D01*
X76554228Y-89117971D01*
X76630656Y-88972127D01*
X76680148Y-88875340D01*
X76698868Y-88834703D01*
X76698929Y-88834211D01*
X76665096Y-88817041D01*
X76573186Y-88803868D01*
X76437582Y-88794667D01*
X76272667Y-88789411D01*
X76092823Y-88788071D01*
X75912433Y-88790622D01*
G36*
X67228357Y-89698285D02*
G01*
X69913500Y-89698285D01*
X69913500Y-90387714D01*
X67373500Y-90387714D01*
X67373500Y-91222285D01*
X69913500Y-91222285D01*
X69913500Y-92455999D01*
X71038357Y-92455999D01*
X71038357Y-88791142D01*
X67228357Y-88791142D01*
X67228357Y-89698285D01*
X67228357Y-89698285D01*
G37*
X67228357Y-89698285D02*
X69913500Y-89698285D01*
X69913500Y-90387714D01*
X67373500Y-90387714D01*
X67373500Y-91222285D01*
X69913500Y-91222285D01*
X69913500Y-92455999D01*
X71038357Y-92455999D01*
X71038357Y-88791142D01*
X67228357Y-88791142D01*
X67228357Y-89698285D01*
G36*
X64915143Y-88799876D02*
G01*
X64479863Y-88803393D01*
X64111038Y-88806984D01*
X63802552Y-88810865D01*
X63548288Y-88815249D01*
X63342130Y-88820349D01*
X63177961Y-88826380D01*
X63049665Y-88833555D01*
X62951126Y-88842088D01*
X62876228Y-88852193D01*
X62818853Y-88864083D01*
X62783357Y-88874396D01*
X62561918Y-88980580D01*
X62374652Y-89135921D01*
X62247090Y-89311724D01*
X62223901Y-89358004D01*
X62205512Y-89406219D01*
X62191257Y-89465230D01*
X62180470Y-89543896D01*
X62172486Y-89651077D01*
X62166638Y-89795632D01*
X62162262Y-89986422D01*
X62158692Y-90232305D01*
X62155361Y-90532679D01*
X62153052Y-90913604D01*
X62154711Y-91228234D01*
X62160303Y-91475066D01*
X62169791Y-91652594D01*
X62183139Y-91759315D01*
X62184773Y-91766394D01*
X62262343Y-91974893D01*
X62385866Y-92140036D01*
X62566017Y-92274486D01*
X62651546Y-92320164D01*
X62890538Y-92437857D01*
X64878019Y-92448655D01*
X66865500Y-92459452D01*
X66865500Y-91585142D01*
X65813215Y-91585142D01*
X64543215Y-91585142D01*
X64205702Y-91584989D01*
X63933267Y-91584259D01*
X63718413Y-91582548D01*
X63553646Y-91579450D01*
X63431471Y-91574560D01*
X63344393Y-91567472D01*
X63284917Y-91557783D01*
X63245550Y-91545087D01*
X63218795Y-91528978D01*
X63200643Y-91512571D01*
X63177052Y-91485026D01*
X63159201Y-91449387D01*
X63146295Y-91395975D01*
X63137537Y-91315108D01*
X63132134Y-91197104D01*
X63129288Y-91032284D01*
X63128206Y-90810966D01*
X63128072Y-90629195D01*
X63128362Y-90365961D01*
X63129791Y-90165652D01*
X63133195Y-90018622D01*
X63139411Y-89915223D01*
X63149276Y-89845809D01*
X63163627Y-89800735D01*
X63183300Y-89770354D01*
X63204402Y-89749266D01*
X63228616Y-89730796D01*
X63261303Y-89715805D01*
X63309973Y-89703840D01*
X63382140Y-89694451D01*
X63485313Y-89687186D01*
X63627007Y-89681593D01*
X63814731Y-89677220D01*
X64056000Y-89673617D01*
X64358323Y-89670331D01*
X64546973Y-89668554D01*
X65813215Y-89656966D01*
X65813215Y-91585142D01*
X66865500Y-91585142D01*
X66865500Y-88785162D01*
X64915143Y-88799876D01*
X64915143Y-88799876D01*
G37*
X64915143Y-88799876D02*
X64479863Y-88803393D01*
X64111038Y-88806984D01*
X63802552Y-88810865D01*
X63548288Y-88815249D01*
X63342130Y-88820349D01*
X63177961Y-88826380D01*
X63049665Y-88833555D01*
X62951126Y-88842088D01*
X62876228Y-88852193D01*
X62818853Y-88864083D01*
X62783357Y-88874396D01*
X62561918Y-88980580D01*
X62374652Y-89135921D01*
X62247090Y-89311724D01*
X62223901Y-89358004D01*
X62205512Y-89406219D01*
X62191257Y-89465230D01*
X62180470Y-89543896D01*
X62172486Y-89651077D01*
X62166638Y-89795632D01*
X62162262Y-89986422D01*
X62158692Y-90232305D01*
X62155361Y-90532679D01*
X62153052Y-90913604D01*
X62154711Y-91228234D01*
X62160303Y-91475066D01*
X62169791Y-91652594D01*
X62183139Y-91759315D01*
X62184773Y-91766394D01*
X62262343Y-91974893D01*
X62385866Y-92140036D01*
X62566017Y-92274486D01*
X62651546Y-92320164D01*
X62890538Y-92437857D01*
X64878019Y-92448655D01*
X66865500Y-92459452D01*
X66865500Y-91585142D01*
X65813215Y-91585142D01*
X64543215Y-91585142D01*
X64205702Y-91584989D01*
X63933267Y-91584259D01*
X63718413Y-91582548D01*
X63553646Y-91579450D01*
X63431471Y-91574560D01*
X63344393Y-91567472D01*
X63284917Y-91557783D01*
X63245550Y-91545087D01*
X63218795Y-91528978D01*
X63200643Y-91512571D01*
X63177052Y-91485026D01*
X63159201Y-91449387D01*
X63146295Y-91395975D01*
X63137537Y-91315108D01*
X63132134Y-91197104D01*
X63129288Y-91032284D01*
X63128206Y-90810966D01*
X63128072Y-90629195D01*
X63128362Y-90365961D01*
X63129791Y-90165652D01*
X63133195Y-90018622D01*
X63139411Y-89915223D01*
X63149276Y-89845809D01*
X63163627Y-89800735D01*
X63183300Y-89770354D01*
X63204402Y-89749266D01*
X63228616Y-89730796D01*
X63261303Y-89715805D01*
X63309973Y-89703840D01*
X63382140Y-89694451D01*
X63485313Y-89687186D01*
X63627007Y-89681593D01*
X63814731Y-89677220D01*
X64056000Y-89673617D01*
X64358323Y-89670331D01*
X64546973Y-89668554D01*
X65813215Y-89656966D01*
X65813215Y-91585142D01*
X66865500Y-91585142D01*
X66865500Y-88785162D01*
X64915143Y-88799876D01*
G36*
X55080598Y-89253785D02*
G01*
X55070409Y-89698285D01*
X56664078Y-89698285D01*
X57046916Y-89698431D01*
X57363830Y-89699048D01*
X57621468Y-89700403D01*
X57826476Y-89702766D01*
X57985501Y-89706405D01*
X58105192Y-89711588D01*
X58192195Y-89718584D01*
X58253158Y-89727660D01*
X58294727Y-89739086D01*
X58323550Y-89753129D01*
X58341371Y-89766000D01*
X58373664Y-89796035D01*
X58396878Y-89833556D01*
X58412978Y-89890754D01*
X58423932Y-89979824D01*
X58431704Y-90112956D01*
X58438261Y-90302344D01*
X58440542Y-90380996D01*
X58444440Y-90600886D01*
X58444263Y-90821199D01*
X58440287Y-91019535D01*
X58432792Y-91173490D01*
X58430347Y-91202985D01*
X58423193Y-91290489D01*
X58415498Y-91363552D01*
X58401165Y-91423469D01*
X58374098Y-91471539D01*
X58328199Y-91509059D01*
X58257370Y-91537328D01*
X58155514Y-91557642D01*
X58016534Y-91571300D01*
X57834332Y-91579599D01*
X57602812Y-91583836D01*
X57315875Y-91585311D01*
X56967425Y-91585319D01*
X56634731Y-91585142D01*
X55072643Y-91585142D01*
X55072643Y-92455999D01*
X56769000Y-92452024D01*
X57118345Y-92450595D01*
X57449642Y-92448070D01*
X57754952Y-92444593D01*
X58026338Y-92440308D01*
X58255862Y-92435358D01*
X58435584Y-92429885D01*
X58557567Y-92424034D01*
X58610500Y-92418758D01*
X58869677Y-92343059D01*
X59071250Y-92229776D01*
X59222508Y-92073810D01*
X59303479Y-91934103D01*
X59328074Y-91879379D01*
X59347500Y-91826832D01*
X59362367Y-91767474D01*
X59373287Y-91692313D01*
X59380871Y-91592361D01*
X59385729Y-91458626D01*
X59388474Y-91282120D01*
X59389715Y-91053851D01*
X59390063Y-90764831D01*
X59390086Y-90659857D01*
X59388685Y-90309794D01*
X59384487Y-90009811D01*
X59377652Y-89764897D01*
X59368343Y-89580040D01*
X59356721Y-89460229D01*
X59350058Y-89426142D01*
X59272171Y-89263128D01*
X59139498Y-89107844D01*
X58969352Y-88976282D01*
X58779046Y-88884437D01*
X58755309Y-88876731D01*
X58699499Y-88861162D01*
X58638047Y-88848199D01*
X58564080Y-88837606D01*
X58470727Y-88829144D01*
X58351112Y-88822577D01*
X58198365Y-88817667D01*
X58005611Y-88814176D01*
X57765979Y-88811868D01*
X57472595Y-88810504D01*
X57118586Y-88809848D01*
X56814357Y-88809678D01*
X55090786Y-88809285D01*
X55080598Y-89253785D01*
X55080598Y-89253785D01*
G37*
X55080598Y-89253785D02*
X55070409Y-89698285D01*
X56664078Y-89698285D01*
X57046916Y-89698431D01*
X57363830Y-89699048D01*
X57621468Y-89700403D01*
X57826476Y-89702766D01*
X57985501Y-89706405D01*
X58105192Y-89711588D01*
X58192195Y-89718584D01*
X58253158Y-89727660D01*
X58294727Y-89739086D01*
X58323550Y-89753129D01*
X58341371Y-89766000D01*
X58373664Y-89796035D01*
X58396878Y-89833556D01*
X58412978Y-89890754D01*
X58423932Y-89979824D01*
X58431704Y-90112956D01*
X58438261Y-90302344D01*
X58440542Y-90380996D01*
X58444440Y-90600886D01*
X58444263Y-90821199D01*
X58440287Y-91019535D01*
X58432792Y-91173490D01*
X58430347Y-91202985D01*
X58423193Y-91290489D01*
X58415498Y-91363552D01*
X58401165Y-91423469D01*
X58374098Y-91471539D01*
X58328199Y-91509059D01*
X58257370Y-91537328D01*
X58155514Y-91557642D01*
X58016534Y-91571300D01*
X57834332Y-91579599D01*
X57602812Y-91583836D01*
X57315875Y-91585311D01*
X56967425Y-91585319D01*
X56634731Y-91585142D01*
X55072643Y-91585142D01*
X55072643Y-92455999D01*
X56769000Y-92452024D01*
X57118345Y-92450595D01*
X57449642Y-92448070D01*
X57754952Y-92444593D01*
X58026338Y-92440308D01*
X58255862Y-92435358D01*
X58435584Y-92429885D01*
X58557567Y-92424034D01*
X58610500Y-92418758D01*
X58869677Y-92343059D01*
X59071250Y-92229776D01*
X59222508Y-92073810D01*
X59303479Y-91934103D01*
X59328074Y-91879379D01*
X59347500Y-91826832D01*
X59362367Y-91767474D01*
X59373287Y-91692313D01*
X59380871Y-91592361D01*
X59385729Y-91458626D01*
X59388474Y-91282120D01*
X59389715Y-91053851D01*
X59390063Y-90764831D01*
X59390086Y-90659857D01*
X59388685Y-90309794D01*
X59384487Y-90009811D01*
X59377652Y-89764897D01*
X59368343Y-89580040D01*
X59356721Y-89460229D01*
X59350058Y-89426142D01*
X59272171Y-89263128D01*
X59139498Y-89107844D01*
X58969352Y-88976282D01*
X58779046Y-88884437D01*
X58755309Y-88876731D01*
X58699499Y-88861162D01*
X58638047Y-88848199D01*
X58564080Y-88837606D01*
X58470727Y-88829144D01*
X58351112Y-88822577D01*
X58198365Y-88817667D01*
X58005611Y-88814176D01*
X57765979Y-88811868D01*
X57472595Y-88810504D01*
X57118586Y-88809848D01*
X56814357Y-88809678D01*
X55090786Y-88809285D01*
X55080598Y-89253785D01*
G36*
X53593569Y-90197214D02*
G01*
X53584066Y-91585142D01*
X51117500Y-91585142D01*
X51117500Y-92455999D01*
X54746743Y-92455999D01*
X54727929Y-88809285D01*
X53603072Y-88809285D01*
X53593569Y-90197214D01*
X53593569Y-90197214D01*
G37*
X53593569Y-90197214D02*
X53584066Y-91585142D01*
X51117500Y-91585142D01*
X51117500Y-92455999D01*
X54746743Y-92455999D01*
X54727929Y-88809285D01*
X53603072Y-88809285D01*
X53593569Y-90197214D01*
G36*
X41281838Y-89698285D02*
G01*
X42875506Y-89698285D01*
X43258344Y-89698431D01*
X43575259Y-89699048D01*
X43832896Y-89700403D01*
X44037904Y-89702766D01*
X44196930Y-89706405D01*
X44316621Y-89711588D01*
X44403624Y-89718584D01*
X44464586Y-89727660D01*
X44506155Y-89739086D01*
X44534978Y-89753129D01*
X44552799Y-89766000D01*
X44585092Y-89796035D01*
X44608306Y-89833556D01*
X44624407Y-89890754D01*
X44635360Y-89979824D01*
X44643132Y-90112956D01*
X44649689Y-90302344D01*
X44651971Y-90380996D01*
X44655869Y-90600886D01*
X44655691Y-90821199D01*
X44651716Y-91019535D01*
X44644220Y-91173490D01*
X44641776Y-91202985D01*
X44634621Y-91290489D01*
X44626926Y-91363552D01*
X44612594Y-91423469D01*
X44585527Y-91471539D01*
X44539627Y-91509059D01*
X44468798Y-91537328D01*
X44366942Y-91557642D01*
X44227962Y-91571300D01*
X44045761Y-91579599D01*
X43814240Y-91583836D01*
X43527303Y-91585311D01*
X43178853Y-91585319D01*
X42846159Y-91585142D01*
X41284072Y-91585142D01*
X41284072Y-92455999D01*
X42980429Y-92452024D01*
X43329774Y-92450595D01*
X43661071Y-92448070D01*
X43966381Y-92444593D01*
X44237767Y-92440308D01*
X44467290Y-92435358D01*
X44647013Y-92429885D01*
X44768996Y-92424034D01*
X44821929Y-92418758D01*
X45081106Y-92343059D01*
X45282678Y-92229776D01*
X45433937Y-92073810D01*
X45514908Y-91934103D01*
X45539503Y-91879379D01*
X45558928Y-91826832D01*
X45573796Y-91767474D01*
X45584716Y-91692313D01*
X45592299Y-91592361D01*
X45597158Y-91458626D01*
X45599902Y-91282120D01*
X45601143Y-91053851D01*
X45601492Y-90764831D01*
X45601515Y-90659857D01*
X45600114Y-90309794D01*
X45595915Y-90009811D01*
X45589081Y-89764897D01*
X45579771Y-89580040D01*
X45568150Y-89460229D01*
X45561486Y-89426142D01*
X45483600Y-89263128D01*
X45350927Y-89107844D01*
X45180781Y-88976282D01*
X44990474Y-88884437D01*
X44966738Y-88876731D01*
X44910927Y-88861162D01*
X44849475Y-88848199D01*
X44775509Y-88837606D01*
X44682155Y-88829144D01*
X44562541Y-88822577D01*
X44409793Y-88817667D01*
X44217040Y-88814176D01*
X43977407Y-88811868D01*
X43684023Y-88810504D01*
X43330014Y-88809848D01*
X43025786Y-88809678D01*
X41302214Y-88809285D01*
X41281838Y-89698285D01*
X41281838Y-89698285D01*
G37*
X41281838Y-89698285D02*
X42875506Y-89698285D01*
X43258344Y-89698431D01*
X43575259Y-89699048D01*
X43832896Y-89700403D01*
X44037904Y-89702766D01*
X44196930Y-89706405D01*
X44316621Y-89711588D01*
X44403624Y-89718584D01*
X44464586Y-89727660D01*
X44506155Y-89739086D01*
X44534978Y-89753129D01*
X44552799Y-89766000D01*
X44585092Y-89796035D01*
X44608306Y-89833556D01*
X44624407Y-89890754D01*
X44635360Y-89979824D01*
X44643132Y-90112956D01*
X44649689Y-90302344D01*
X44651971Y-90380996D01*
X44655869Y-90600886D01*
X44655691Y-90821199D01*
X44651716Y-91019535D01*
X44644220Y-91173490D01*
X44641776Y-91202985D01*
X44634621Y-91290489D01*
X44626926Y-91363552D01*
X44612594Y-91423469D01*
X44585527Y-91471539D01*
X44539627Y-91509059D01*
X44468798Y-91537328D01*
X44366942Y-91557642D01*
X44227962Y-91571300D01*
X44045761Y-91579599D01*
X43814240Y-91583836D01*
X43527303Y-91585311D01*
X43178853Y-91585319D01*
X42846159Y-91585142D01*
X41284072Y-91585142D01*
X41284072Y-92455999D01*
X42980429Y-92452024D01*
X43329774Y-92450595D01*
X43661071Y-92448070D01*
X43966381Y-92444593D01*
X44237767Y-92440308D01*
X44467290Y-92435358D01*
X44647013Y-92429885D01*
X44768996Y-92424034D01*
X44821929Y-92418758D01*
X45081106Y-92343059D01*
X45282678Y-92229776D01*
X45433937Y-92073810D01*
X45514908Y-91934103D01*
X45539503Y-91879379D01*
X45558928Y-91826832D01*
X45573796Y-91767474D01*
X45584716Y-91692313D01*
X45592299Y-91592361D01*
X45597158Y-91458626D01*
X45599902Y-91282120D01*
X45601143Y-91053851D01*
X45601492Y-90764831D01*
X45601515Y-90659857D01*
X45600114Y-90309794D01*
X45595915Y-90009811D01*
X45589081Y-89764897D01*
X45579771Y-89580040D01*
X45568150Y-89460229D01*
X45561486Y-89426142D01*
X45483600Y-89263128D01*
X45350927Y-89107844D01*
X45180781Y-88976282D01*
X44990474Y-88884437D01*
X44966738Y-88876731D01*
X44910927Y-88861162D01*
X44849475Y-88848199D01*
X44775509Y-88837606D01*
X44682155Y-88829144D01*
X44562541Y-88822577D01*
X44409793Y-88817667D01*
X44217040Y-88814176D01*
X43977407Y-88811868D01*
X43684023Y-88810504D01*
X43330014Y-88809848D01*
X43025786Y-88809678D01*
X41302214Y-88809285D01*
X41281838Y-89698285D01*
G36*
X40331572Y-88799269D02*
G01*
X39778214Y-88809285D01*
X39768486Y-89671071D01*
X39765034Y-89912465D01*
X39760562Y-90127765D01*
X39755391Y-90307002D01*
X39749844Y-90440209D01*
X39744242Y-90517417D01*
X39740658Y-90532857D01*
X39710525Y-90509368D01*
X39632834Y-90442548D01*
X39513745Y-90337865D01*
X39359413Y-90200786D01*
X39175998Y-90036779D01*
X38969656Y-89851313D01*
X38759968Y-89662000D01*
X37797378Y-88791142D01*
X37070272Y-88791142D01*
X36838140Y-88792699D01*
X36641453Y-88797089D01*
X36489320Y-88803896D01*
X36390851Y-88812701D01*
X36355157Y-88823088D01*
X36355262Y-88823913D01*
X36384903Y-88854077D01*
X36463867Y-88925363D01*
X36585834Y-89032306D01*
X36744483Y-89169441D01*
X36933494Y-89331303D01*
X37146546Y-89512427D01*
X37365214Y-89697154D01*
X37594916Y-89891142D01*
X37806341Y-90070686D01*
X37993217Y-90230385D01*
X38149272Y-90364835D01*
X38268235Y-90468636D01*
X38343833Y-90536383D01*
X38369779Y-90562455D01*
X38343749Y-90588474D01*
X38267940Y-90654184D01*
X38149261Y-90753965D01*
X37994622Y-90882195D01*
X37810931Y-91033255D01*
X37605097Y-91201523D01*
X37384029Y-91381379D01*
X37154636Y-91567202D01*
X36923827Y-91753371D01*
X36698510Y-91934267D01*
X36485595Y-92104267D01*
X36291991Y-92257752D01*
X36124606Y-92389101D01*
X36121280Y-92391693D01*
X36098593Y-92411857D01*
X36094348Y-92427178D01*
X36116412Y-92438332D01*
X36172648Y-92445994D01*
X36270922Y-92450840D01*
X36419099Y-92453543D01*
X36625044Y-92454780D01*
X36860958Y-92455193D01*
X37681131Y-92455999D01*
X39741929Y-90581347D01*
X39761277Y-92455999D01*
X40884929Y-92455999D01*
X40884929Y-88789252D01*
X40331572Y-88799269D01*
X40331572Y-88799269D01*
G37*
X40331572Y-88799269D02*
X39778214Y-88809285D01*
X39768486Y-89671071D01*
X39765034Y-89912465D01*
X39760562Y-90127765D01*
X39755391Y-90307002D01*
X39749844Y-90440209D01*
X39744242Y-90517417D01*
X39740658Y-90532857D01*
X39710525Y-90509368D01*
X39632834Y-90442548D01*
X39513745Y-90337865D01*
X39359413Y-90200786D01*
X39175998Y-90036779D01*
X38969656Y-89851313D01*
X38759968Y-89662000D01*
X37797378Y-88791142D01*
X37070272Y-88791142D01*
X36838140Y-88792699D01*
X36641453Y-88797089D01*
X36489320Y-88803896D01*
X36390851Y-88812701D01*
X36355157Y-88823088D01*
X36355262Y-88823913D01*
X36384903Y-88854077D01*
X36463867Y-88925363D01*
X36585834Y-89032306D01*
X36744483Y-89169441D01*
X36933494Y-89331303D01*
X37146546Y-89512427D01*
X37365214Y-89697154D01*
X37594916Y-89891142D01*
X37806341Y-90070686D01*
X37993217Y-90230385D01*
X38149272Y-90364835D01*
X38268235Y-90468636D01*
X38343833Y-90536383D01*
X38369779Y-90562455D01*
X38343749Y-90588474D01*
X38267940Y-90654184D01*
X38149261Y-90753965D01*
X37994622Y-90882195D01*
X37810931Y-91033255D01*
X37605097Y-91201523D01*
X37384029Y-91381379D01*
X37154636Y-91567202D01*
X36923827Y-91753371D01*
X36698510Y-91934267D01*
X36485595Y-92104267D01*
X36291991Y-92257752D01*
X36124606Y-92389101D01*
X36121280Y-92391693D01*
X36098593Y-92411857D01*
X36094348Y-92427178D01*
X36116412Y-92438332D01*
X36172648Y-92445994D01*
X36270922Y-92450840D01*
X36419099Y-92453543D01*
X36625044Y-92454780D01*
X36860958Y-92455193D01*
X37681131Y-92455999D01*
X39741929Y-90581347D01*
X39761277Y-92455999D01*
X40884929Y-92455999D01*
X40884929Y-88789252D01*
X40331572Y-88799269D01*
D12*
X228624000Y-94424500D03*
X231624000Y-94424500D03*
X231624000Y-97917000D03*
X228624000Y-97917000D03*
D13*
X229124000Y-101917500D03*
X231124000Y-101917500D03*
D14*
X230085900Y-76650850D03*
X230085900Y-106445050D03*
D15*
X220535500Y-75231500D03*
X220535500Y-73231500D03*
D16*
X218110500Y-100520500D03*
X216610500Y-100520500D03*
X218110500Y-97599500D03*
X216610500Y-97599500D03*
X222174500Y-111950500D03*
X220674500Y-111950500D03*
D12*
X181697500Y-103759000D03*
X184697500Y-103759000D03*
D17*
X117296500Y-81978500D03*
X118796500Y-81978500D03*
X99961000Y-87376000D03*
X101461000Y-87376000D03*
D18*
X212534500Y-110236000D03*
D19*
X212534500Y-106236000D03*
D16*
X71005000Y-77787500D03*
X72505000Y-77787500D03*
D20*
X68516500Y-74751500D03*
X68516500Y-76251500D03*
X63055500Y-71894000D03*
X63055500Y-73394000D03*
X85344000Y-77101000D03*
X85344000Y-78601000D03*
X91122500Y-77799500D03*
X91122500Y-79299500D03*
D16*
X96341500Y-85852000D03*
X97841500Y-85852000D03*
D20*
X93853000Y-82435000D03*
X93853000Y-83935000D03*
D16*
X101524500Y-75755500D03*
X100024500Y-75755500D03*
D20*
X103949500Y-77672500D03*
X103949500Y-79172500D03*
X109728000Y-77799500D03*
X109728000Y-79299500D03*
D16*
X114693000Y-85788500D03*
X116193000Y-85788500D03*
D20*
X112268000Y-83871500D03*
X112268000Y-82371500D03*
D16*
X117360000Y-69659500D03*
X118860000Y-69659500D03*
D20*
X121285000Y-73076500D03*
X121285000Y-71576500D03*
X127063500Y-73902000D03*
X127063500Y-72402000D03*
D16*
X133973000Y-80264000D03*
X132473000Y-80264000D03*
D20*
X129984500Y-76847000D03*
X129984500Y-78347000D03*
X118872000Y-97484500D03*
X118872000Y-98984500D03*
X120269000Y-97484500D03*
X120269000Y-98984500D03*
X121666000Y-98984500D03*
X121666000Y-97484500D03*
D16*
X99770500Y-102171500D03*
X101270500Y-102171500D03*
D20*
X116586000Y-108406500D03*
X116586000Y-109906500D03*
X103695500Y-105588500D03*
X103695500Y-104088500D03*
X127254000Y-91007500D03*
X127254000Y-92507500D03*
D21*
X178498500Y-112815500D03*
X178498500Y-109815500D03*
X184912000Y-109815500D03*
X184912000Y-112815500D03*
D16*
X209816000Y-76327000D03*
X211316000Y-76327000D03*
D20*
X223837500Y-109906500D03*
X223837500Y-108406500D03*
X216281000Y-68528500D03*
X216281000Y-70028500D03*
D16*
X168096500Y-100711000D03*
X169596500Y-100711000D03*
D20*
X170688000Y-95833500D03*
X170688000Y-97333500D03*
D16*
X78347000Y-98996500D03*
X76847000Y-98996500D03*
D13*
X78597000Y-100647500D03*
X76597000Y-100647500D03*
D16*
X86943500Y-104838500D03*
X88443500Y-104838500D03*
X88443500Y-107759500D03*
X86943500Y-107759500D03*
X86943500Y-110680500D03*
X88443500Y-110680500D03*
X86943500Y-113601500D03*
X88443500Y-113601500D03*
X88443500Y-101917500D03*
X86943500Y-101917500D03*
D20*
X177355500Y-69100000D03*
X177355500Y-70600000D03*
X175958500Y-70600000D03*
X175958500Y-69100000D03*
X174561500Y-69100000D03*
X174561500Y-70600000D03*
X178752500Y-69100000D03*
X178752500Y-70600000D03*
X50482500Y-97167000D03*
X50482500Y-98667000D03*
X52006500Y-107009500D03*
X52006500Y-108509500D03*
X53276500Y-98667000D03*
X53276500Y-97167000D03*
D15*
X53657500Y-106759500D03*
X53657500Y-108759500D03*
D20*
X51879500Y-97167000D03*
X51879500Y-98667000D03*
D16*
X48756000Y-105156000D03*
X47256000Y-105156000D03*
X47256000Y-100711000D03*
X48756000Y-100711000D03*
D20*
X45720000Y-94881000D03*
X45720000Y-96381000D03*
X65722500Y-106755500D03*
X65722500Y-108255500D03*
X65722500Y-98119500D03*
X65722500Y-99619500D03*
D22*
X66046000Y-103187500D03*
X60446000Y-103187500D03*
D20*
X60769500Y-108255500D03*
X60769500Y-106755500D03*
X60769500Y-99619500D03*
X60769500Y-98119500D03*
D16*
X222301500Y-84709000D03*
X220801500Y-84709000D03*
D20*
X218884500Y-74981500D03*
X218884500Y-73481500D03*
X224091500Y-74981500D03*
X224091500Y-73481500D03*
D15*
X222440500Y-75231500D03*
X222440500Y-73231500D03*
D23*
X53657500Y-75025000D03*
X53657500Y-71025000D03*
D24*
X214947500Y-109854000D03*
X214947500Y-106554000D03*
X172656500Y-72452500D03*
X172656500Y-69152500D03*
D25*
X49403000Y-75882500D03*
X49403000Y-69882500D03*
X44703000Y-72882500D03*
D26*
X190788001Y-69444499D03*
X193328001Y-69444499D03*
X195868001Y-69444499D03*
X198408001Y-69444499D03*
X200948001Y-69444499D03*
D27*
X203488001Y-69444499D03*
D26*
X75374500Y-103378000D03*
X72834500Y-103378000D03*
D27*
X70294500Y-103378000D03*
X70294500Y-113601500D03*
D26*
X72834500Y-113601500D03*
X75374500Y-113601500D03*
D28*
X81978500Y-84026500D03*
X81328500Y-86026500D03*
X82628500Y-86026500D03*
X100711000Y-83836000D03*
X100061000Y-85836000D03*
X101361000Y-85836000D03*
X118696500Y-80438500D03*
X117396500Y-80438500D03*
X118046500Y-78438500D03*
X209916000Y-69675500D03*
X211216000Y-69675500D03*
X210566000Y-71675500D03*
X195770500Y-112442500D03*
X196420500Y-110442500D03*
X195120500Y-110442500D03*
D29*
X126873000Y-94690500D03*
X126873000Y-96190500D03*
X126873000Y-98984500D03*
X126873000Y-97484500D03*
X126873000Y-101778500D03*
X126873000Y-100278500D03*
D17*
X123011500Y-100965000D03*
X124511500Y-100965000D03*
D29*
X171259500Y-108597000D03*
X171259500Y-110097000D03*
X171259500Y-111200500D03*
X171259500Y-112700500D03*
D17*
X174803500Y-105664000D03*
X173303500Y-105664000D03*
X170700000Y-105664000D03*
X172200000Y-105664000D03*
D29*
X177863500Y-106922000D03*
X177863500Y-105422000D03*
D17*
X182042500Y-114363500D03*
X180542500Y-114363500D03*
X82728500Y-87566500D03*
X81228500Y-87566500D03*
X165227000Y-106680000D03*
X166727000Y-106680000D03*
X168033000Y-106680000D03*
X169533000Y-106680000D03*
X169533000Y-103187500D03*
X168033000Y-103187500D03*
X169533000Y-104711500D03*
X168033000Y-104711500D03*
X189369000Y-108521500D03*
X190869000Y-108521500D03*
X190869000Y-110426500D03*
X189369000Y-110426500D03*
X190869000Y-113665000D03*
X189369000Y-113665000D03*
X189369000Y-112141000D03*
X190869000Y-112141000D03*
X209816000Y-68135500D03*
X211316000Y-68135500D03*
X208204500Y-70294500D03*
X206704500Y-70294500D03*
X209816000Y-73279000D03*
X211316000Y-73279000D03*
D29*
X212915500Y-74561000D03*
X212915500Y-76061000D03*
D17*
X209816000Y-74866500D03*
X211316000Y-74866500D03*
D29*
X189738000Y-77926500D03*
X189738000Y-79426500D03*
D17*
X185725500Y-98044000D03*
X184225500Y-98044000D03*
D29*
X225298000Y-109906500D03*
X225298000Y-108406500D03*
D17*
X138989500Y-69278500D03*
X137489500Y-69278500D03*
X138989500Y-77978000D03*
X137489500Y-77978000D03*
X137489500Y-73596500D03*
X138989500Y-73596500D03*
X165683500Y-75501500D03*
X167183500Y-75501500D03*
X153213500Y-74168000D03*
X151713500Y-74168000D03*
X165683500Y-79819500D03*
X167183500Y-79819500D03*
X151713500Y-78486000D03*
X153213500Y-78486000D03*
X182130000Y-91821000D03*
X183630000Y-91821000D03*
X182130000Y-93281500D03*
X183630000Y-93281500D03*
D29*
X49022000Y-97167000D03*
X49022000Y-98667000D03*
D17*
X48756000Y-103695500D03*
X47256000Y-103695500D03*
X47256000Y-102171500D03*
X48756000Y-102171500D03*
X69076000Y-107442000D03*
X67576000Y-107442000D03*
X67576000Y-105981500D03*
X69076000Y-105981500D03*
D29*
X66548000Y-113653000D03*
X66548000Y-112153000D03*
X59944000Y-113653000D03*
X59944000Y-112153000D03*
D17*
X57416000Y-98996500D03*
X58916000Y-98996500D03*
X57416000Y-105981500D03*
X58916000Y-105981500D03*
X58916000Y-100457000D03*
X57416000Y-100457000D03*
X58916000Y-107442000D03*
X57416000Y-107442000D03*
X196520500Y-107505500D03*
X195020500Y-107505500D03*
X196520500Y-108966000D03*
X195020500Y-108966000D03*
X192290000Y-108648500D03*
X193790000Y-108648500D03*
X193790000Y-110172500D03*
X192290000Y-110172500D03*
X222301500Y-86169500D03*
X220801500Y-86169500D03*
X217602500Y-73469500D03*
X216102500Y-73469500D03*
X216102500Y-74993500D03*
X217602500Y-74993500D03*
X222238000Y-76771500D03*
X220738000Y-76771500D03*
X219380500Y-84645500D03*
X217880500Y-84645500D03*
X225373500Y-74993500D03*
X226873500Y-74993500D03*
X226873500Y-73469500D03*
X225373500Y-73469500D03*
D30*
X221753000Y-88166000D03*
X219953000Y-88166000D03*
X221753000Y-91666000D03*
X219953000Y-91666000D03*
X221753000Y-88666000D03*
X221753000Y-89166000D03*
X221753000Y-89666000D03*
X221753000Y-90166000D03*
X221753000Y-90666000D03*
X221753000Y-91166000D03*
X219953000Y-88666000D03*
X219953000Y-89166000D03*
X219953000Y-89666000D03*
X219953000Y-90666000D03*
X219953000Y-90166000D03*
X219953000Y-91166000D03*
X214641000Y-89499500D03*
X212841000Y-89499500D03*
X214641000Y-92999500D03*
X212841000Y-92999500D03*
X214641000Y-89999500D03*
X214641000Y-90499500D03*
X214641000Y-90999500D03*
X214641000Y-91499500D03*
X214641000Y-91999500D03*
X214641000Y-92499500D03*
X212841000Y-89999500D03*
X212841000Y-90499500D03*
X212841000Y-90999500D03*
X212841000Y-91999500D03*
X212841000Y-91499500D03*
X212841000Y-92499500D03*
X216206500Y-81704500D03*
X216206500Y-80704500D03*
X216206500Y-81204500D03*
X216206500Y-80204500D03*
X216206500Y-79704500D03*
X216206500Y-79204500D03*
X218006500Y-81704500D03*
X218006500Y-81204500D03*
X218006500Y-80704500D03*
X218006500Y-80204500D03*
X218006500Y-79704500D03*
X218006500Y-79204500D03*
X216206500Y-82204500D03*
X218006500Y-82204500D03*
X216206500Y-78704500D03*
X218006500Y-78704500D03*
X221181500Y-79712500D03*
X221181500Y-80712500D03*
X221181500Y-80212500D03*
X221181500Y-81212500D03*
X221181500Y-81712500D03*
X221181500Y-82212500D03*
X219381500Y-79712500D03*
X219381500Y-80212500D03*
X219381500Y-80712500D03*
X219381500Y-81212500D03*
X219381500Y-81712500D03*
X219381500Y-82212500D03*
X221181500Y-79212500D03*
X219381500Y-79212500D03*
X221181500Y-82712500D03*
X219381500Y-82712500D03*
D31*
X213677500Y-68144000D03*
X213677500Y-72644000D03*
X207177500Y-68144000D03*
X207177500Y-72644000D03*
D27*
X152019000Y-68643500D03*
X43561000Y-113855500D03*
D32*
X72100000Y-74020500D03*
X71450000Y-74020500D03*
X70790000Y-74020500D03*
X70140000Y-74020500D03*
X70140000Y-76220500D03*
X70790000Y-76220500D03*
X71450000Y-76220500D03*
X72100000Y-76220500D03*
D33*
X67476499Y-71894000D03*
X67476499Y-72394000D03*
X67476499Y-72894000D03*
X67476499Y-73394000D03*
X64576499Y-73394000D03*
X64576499Y-72894000D03*
X64576499Y-72394000D03*
X64576499Y-71894000D03*
D34*
X66026499Y-72644000D03*
D32*
X81824000Y-76751000D03*
X82474000Y-76751000D03*
X83134000Y-76751000D03*
X83784000Y-76751000D03*
X83784000Y-78951000D03*
X83134000Y-78951000D03*
X82474000Y-78951000D03*
X81824000Y-78951000D03*
D33*
X86751500Y-79299500D03*
X86751500Y-78799500D03*
X86751500Y-78299500D03*
X86751500Y-77799500D03*
X89651500Y-77799500D03*
X89651500Y-78299500D03*
X89651500Y-78799500D03*
X89651500Y-79299500D03*
D34*
X88201500Y-78549500D03*
D32*
X97407499Y-84285000D03*
X96757499Y-84285000D03*
X96097499Y-84285000D03*
X95447499Y-84285000D03*
X95447499Y-82085000D03*
X96097499Y-82085000D03*
X96757499Y-82085000D03*
X97407499Y-82085000D03*
X100429500Y-77322500D03*
X101079500Y-77322500D03*
X101739500Y-77322500D03*
X102389500Y-77322500D03*
X102389500Y-79522500D03*
X101739500Y-79522500D03*
X101079500Y-79522500D03*
X100429500Y-79522500D03*
D34*
X106870500Y-78549500D03*
D33*
X108320500Y-79299500D03*
X108320500Y-78799500D03*
X108320500Y-78299500D03*
X108320500Y-77799500D03*
X105420500Y-77799500D03*
X105420500Y-78299500D03*
X105420500Y-78799500D03*
X105420500Y-79299500D03*
D32*
X115788000Y-84221500D03*
X115138000Y-84221500D03*
X114478000Y-84221500D03*
X113828000Y-84221500D03*
X113828000Y-82021500D03*
X114478000Y-82021500D03*
X115138000Y-82021500D03*
X115788000Y-82021500D03*
X117765000Y-71226500D03*
X118415000Y-71226500D03*
X119075000Y-71226500D03*
X119725000Y-71226500D03*
X119725000Y-73426500D03*
X119075000Y-73426500D03*
X118415000Y-73426500D03*
X117765000Y-73426500D03*
D33*
X122756000Y-73902000D03*
X122756000Y-73402000D03*
X122756000Y-72902000D03*
X122756000Y-72402000D03*
X125656000Y-72402000D03*
X125656000Y-72902000D03*
X125656000Y-73402000D03*
X125656000Y-73902000D03*
D34*
X124206000Y-73152000D03*
D32*
X133548499Y-76497000D03*
X132898499Y-76497000D03*
X132238499Y-76497000D03*
X131588499Y-76497000D03*
X131588499Y-78697000D03*
X132238499Y-78697000D03*
X132898499Y-78697000D03*
X133548499Y-78697000D03*
D34*
X113694501Y-109149499D03*
D33*
X115144501Y-109899499D03*
X115144501Y-109399499D03*
X115144501Y-108899499D03*
X115144501Y-108399499D03*
X112244501Y-108399499D03*
X112244501Y-108899499D03*
X112244501Y-109399499D03*
X112244501Y-109899499D03*
D32*
X100175500Y-105938500D03*
X100825500Y-105938500D03*
X101485500Y-105938500D03*
X102135500Y-105938500D03*
X102135500Y-103738500D03*
X101485500Y-103738500D03*
X100825500Y-103738500D03*
X100175500Y-103738500D03*
D35*
X125207000Y-92145000D03*
X123967000Y-92145000D03*
X125207000Y-91370000D03*
X123967000Y-91370000D03*
D36*
X125587000Y-90207500D03*
X125087000Y-90207500D03*
X124587000Y-90207500D03*
X124087000Y-90207500D03*
X123587000Y-90207500D03*
X123587000Y-93307500D03*
X124087000Y-93307500D03*
X124587000Y-93307500D03*
X125087000Y-93307500D03*
X125587000Y-93307500D03*
D34*
X219212999Y-69270001D03*
D33*
X217762999Y-68520001D03*
X217762999Y-69020001D03*
X217762999Y-69520001D03*
X217762999Y-70020001D03*
X220662999Y-70020001D03*
X220662999Y-69520001D03*
X220662999Y-69020001D03*
X220662999Y-68520001D03*
D37*
X36718000Y-96517500D03*
X35418000Y-96517500D03*
X36068000Y-94617500D03*
X36068000Y-96517500D03*
X35418000Y-94617500D03*
X36718000Y-94617500D03*
D38*
X175790500Y-91544500D03*
X175790500Y-92194500D03*
X175790500Y-92844500D03*
X175790500Y-93494500D03*
X180190500Y-93494500D03*
X180190500Y-92844500D03*
X180190500Y-92194500D03*
X180190500Y-91544500D03*
D39*
X51516500Y-101597000D03*
X51966500Y-101597000D03*
X52416500Y-101597000D03*
X52866500Y-101597000D03*
X53316500Y-101597000D03*
X53766500Y-101597000D03*
X53766500Y-104397000D03*
X53316500Y-104397000D03*
X52866500Y-104397000D03*
X52416500Y-104397000D03*
X51966500Y-104397000D03*
X51516500Y-104397000D03*
D40*
X53236500Y-103412000D03*
X52046500Y-103412000D03*
X53236500Y-102582000D03*
X52046500Y-102582000D03*
D37*
X55895000Y-114424500D03*
X54595000Y-114424500D03*
X55245000Y-112524500D03*
X55245000Y-114424500D03*
X54595000Y-112524500D03*
X55895000Y-112524500D03*
D41*
X147637500Y-98107500D03*
X140017500Y-90487500D03*
X140017500Y-105727500D03*
D27*
X207010000Y-100774500D03*
D26*
X209550000Y-100774500D03*
X212090000Y-100774500D03*
D20*
X53086000Y-114224500D03*
X53086000Y-112724500D03*
D42*
X123319500Y-97134500D03*
X124269500Y-97134500D03*
X125219500Y-97134500D03*
X125219500Y-99334500D03*
X123319500Y-99334500D03*
X124269500Y-99334500D03*
D13*
X125142500Y-95059500D03*
X123142500Y-95059500D03*
D16*
X200203500Y-114935000D03*
X198703500Y-114935000D03*
X82855500Y-74993500D03*
X81355500Y-74993500D03*
D43*
X118808500Y-101028500D03*
X86931500Y-82613500D03*
X221551500Y-89916000D03*
X214439500Y-91249500D03*
X220801500Y-84709000D03*
X218630500Y-80962500D03*
X210502500Y-90031000D03*
X189738000Y-77279500D03*
X192964500Y-76454000D03*
X197219000Y-75057000D03*
X198818500Y-74295000D03*
X183388000Y-98107500D03*
X181419500Y-96571500D03*
X182816500Y-90094500D03*
X179641500Y-100088000D03*
X194425000Y-102743000D03*
X197370000Y-104140000D03*
X187630500Y-73342500D03*
X219212999Y-69270001D03*
X216281000Y-70028500D03*
X86743500Y-98996500D03*
X60537000Y-80391000D03*
X61637000Y-80391000D03*
X63690500Y-77978000D03*
X87751500Y-78099500D03*
X88651500Y-78099500D03*
X88651500Y-78999500D03*
X87751500Y-78999500D03*
X88201500Y-78549500D03*
X106418000Y-78099500D03*
X107318000Y-78099500D03*
X107318000Y-78999500D03*
X106418000Y-78999500D03*
X106870500Y-78549500D03*
X123751000Y-72702000D03*
X124651000Y-72702000D03*
X124651000Y-73602000D03*
X123751000Y-73602000D03*
X124206000Y-73152000D03*
X60706000Y-84074000D03*
X57785000Y-84010500D03*
X137489500Y-75755500D03*
X137489500Y-80137000D03*
X151713500Y-80645000D03*
X151713500Y-76327000D03*
X165683500Y-81978500D03*
X165683500Y-77660500D03*
X181673500Y-111315500D03*
X180721000Y-110744000D03*
X182626000Y-110744000D03*
X182626000Y-111887000D03*
X180721000Y-111887000D03*
X85471000Y-73977500D03*
X86931500Y-83185000D03*
X86931500Y-83756500D03*
X86931500Y-85407500D03*
X86931500Y-84836000D03*
X86931500Y-85979000D03*
X84899500Y-82359500D03*
X85471000Y-82359500D03*
X84328000Y-82359500D03*
X87705500Y-87312500D03*
X80978500Y-85976500D03*
X91122500Y-77799500D03*
X105600500Y-83185000D03*
X105600500Y-85407500D03*
X105600500Y-82613500D03*
X105600500Y-85979000D03*
X105600500Y-83756500D03*
X105600500Y-84836000D03*
X103568500Y-82359500D03*
X102997000Y-82359500D03*
X104140000Y-82359500D03*
X120332500Y-76962000D03*
X121475500Y-76962000D03*
X122936000Y-77216000D03*
X122936000Y-79438500D03*
X122936000Y-80581500D03*
X122936000Y-80010000D03*
X122936000Y-77787500D03*
X122936000Y-78359000D03*
X120904000Y-76962000D03*
X120777000Y-68008500D03*
X117014500Y-80438500D03*
X123705000Y-81915000D03*
X79248000Y-100012500D03*
X64897000Y-104711500D03*
X64198500Y-97790000D03*
X65214500Y-114173000D03*
X55689500Y-80950500D03*
X66040000Y-70612000D03*
X99711000Y-85786000D03*
X126873000Y-101155500D03*
X207454500Y-70294500D03*
X211201000Y-70612000D03*
X208915000Y-76327000D03*
X103695500Y-105588500D03*
X75501500Y-67564000D03*
X74930000Y-67564000D03*
X76073000Y-67564000D03*
X76644500Y-67564000D03*
X77216000Y-67564000D03*
X76644500Y-68135500D03*
X77216000Y-68135500D03*
X74930000Y-68135500D03*
X76073000Y-68135500D03*
X75501500Y-68135500D03*
X74930000Y-68707000D03*
X75501500Y-68707000D03*
X76644500Y-68707000D03*
X77216000Y-68707000D03*
X76073000Y-68707000D03*
X76073000Y-69278500D03*
X77216000Y-69278500D03*
X74930000Y-69278500D03*
X75501500Y-69278500D03*
X76644500Y-69278500D03*
X104648000Y-76136500D03*
X109728000Y-77406500D03*
X127063500Y-71691500D03*
X119697500Y-70231000D03*
X103314500Y-93218000D03*
X102743000Y-93218000D03*
X103886000Y-93218000D03*
X103314500Y-102425500D03*
X102743000Y-102425500D03*
X103886000Y-102425500D03*
X113728500Y-110109000D03*
X118062500Y-90678000D03*
X178943000Y-93519500D03*
X168096500Y-100711000D03*
X220027500Y-109156500D03*
X223837500Y-107442000D03*
X220599000Y-105727500D03*
X201195500Y-106203500D03*
X197231000Y-109855000D03*
X193675000Y-115113500D03*
X198795500Y-114903500D03*
X190627000Y-111379000D03*
X189469000Y-108474000D03*
X174491500Y-109552500D03*
X175266500Y-109552500D03*
X175266500Y-110792500D03*
X174491500Y-110792500D03*
X132334000Y-97790000D03*
X132334000Y-98361500D03*
X132334000Y-97218500D03*
X132334000Y-98933000D03*
X132905500Y-97790000D03*
X133477000Y-98933000D03*
X132905500Y-98933000D03*
X132905500Y-98361500D03*
X133477000Y-98361500D03*
X133477000Y-97790000D03*
X133477000Y-97218500D03*
X132905500Y-97218500D03*
X176974500Y-104902000D03*
X175260000Y-71755000D03*
X119443500Y-101028500D03*
X120078500Y-101028500D03*
X120713500Y-101028500D03*
X118808500Y-101663500D03*
X119443500Y-101663500D03*
X120078500Y-101663500D03*
X120713500Y-101663500D03*
X118808500Y-102298500D03*
X119443500Y-102298500D03*
X120078500Y-102298500D03*
X120713500Y-102298500D03*
X118808500Y-102933500D03*
X119443500Y-102933500D03*
X120078500Y-102933500D03*
X120713500Y-102933500D03*
X129984500Y-75692000D03*
X171259500Y-112180500D03*
X169418000Y-107696000D03*
X168402000Y-104711500D03*
X171156500Y-105664000D03*
X165925500Y-106680000D03*
X123183500Y-105298000D03*
X123958500Y-105298000D03*
X123958500Y-106538000D03*
X123183500Y-106538000D03*
X185483500Y-112839500D03*
X184340500Y-112839500D03*
X184912000Y-112839500D03*
X86943500Y-101917500D03*
X86943500Y-110680500D03*
X86943500Y-113601500D03*
X86943500Y-107759500D03*
X86943500Y-104838500D03*
X115125500Y-81089500D03*
X177927000Y-112839500D03*
X178498500Y-112839500D03*
X179070000Y-112839500D03*
X183503000Y-114363500D03*
X216471500Y-83883500D03*
X213550500Y-83820000D03*
X181673500Y-103187500D03*
X181673500Y-103759000D03*
X181673500Y-104330500D03*
X220916500Y-111061500D03*
X166306500Y-80137000D03*
X166267331Y-75720871D03*
X187198000Y-84582000D03*
X188976000Y-78803500D03*
X183451500Y-76835000D03*
X216979500Y-97599500D03*
X217043000Y-100520500D03*
X170688000Y-97256590D03*
X137489500Y-71437500D03*
X218884500Y-77914500D03*
X220535500Y-75231500D03*
X231762300Y-84747100D03*
X231762300Y-83947000D03*
X231762300Y-83146900D03*
X231762300Y-82346800D03*
X231762300Y-81546700D03*
X228409500Y-84747100D03*
X231762300Y-93548200D03*
X231762300Y-94348300D03*
X231762300Y-95148400D03*
X231762300Y-95948500D03*
X231762300Y-96748600D03*
X231762300Y-97548700D03*
X231762300Y-98348800D03*
X231762300Y-99148900D03*
X231762300Y-99949000D03*
X231762300Y-100749100D03*
X231762300Y-101549200D03*
X231762300Y-102349300D03*
X231762300Y-103149400D03*
X93853000Y-81597500D03*
X180721000Y-104203500D03*
X180721000Y-103632000D03*
X180721000Y-104775000D03*
X219583000Y-78549500D03*
X217741500Y-70485000D03*
X216281000Y-68528500D03*
X88443500Y-113601500D03*
X88443500Y-110680500D03*
X88443500Y-107759500D03*
X88443500Y-104838500D03*
X88443500Y-101917500D03*
X138989500Y-71437500D03*
X138049000Y-73787000D03*
X138989500Y-75755500D03*
X138989500Y-80137000D03*
X153213500Y-80645000D03*
X153213500Y-76327000D03*
X167183500Y-81978500D03*
X167183500Y-77660500D03*
X89090500Y-72771000D03*
X92138500Y-72771000D03*
X82105500Y-80073500D03*
X86042500Y-76771500D03*
X91059000Y-80010000D03*
X110807500Y-72834500D03*
X128143000Y-68707000D03*
X67246500Y-108585000D03*
X64135000Y-99822000D03*
X66548000Y-112966500D03*
X63754000Y-70802500D03*
X95567500Y-90614500D03*
X94932500Y-90614500D03*
X94297500Y-90614500D03*
X93662500Y-90614500D03*
X93027500Y-90614500D03*
X92392500Y-90614500D03*
X91757500Y-90614500D03*
X91122500Y-90614500D03*
X90487500Y-90614500D03*
X89852500Y-90614500D03*
X95567500Y-89979500D03*
X94932500Y-89979500D03*
X94297500Y-89979500D03*
X93662500Y-89979500D03*
X93027500Y-89979500D03*
X92392500Y-89979500D03*
X91757500Y-89979500D03*
X91122500Y-89979500D03*
X90487500Y-89979500D03*
X89852500Y-89979500D03*
X95567500Y-89344500D03*
X94932500Y-89344500D03*
X94297500Y-89344500D03*
X93662500Y-89344500D03*
X93027500Y-89344500D03*
X92392500Y-89344500D03*
X91757500Y-89344500D03*
X91122500Y-89344500D03*
X90487500Y-89344500D03*
X89852500Y-89344500D03*
X95567500Y-88709500D03*
X94932500Y-88709500D03*
X94297500Y-88709500D03*
X93662500Y-88709500D03*
X93027500Y-88709500D03*
X92392500Y-88709500D03*
X91757500Y-88709500D03*
X91122500Y-88709500D03*
X90487500Y-88709500D03*
X89852500Y-88709500D03*
X95567500Y-88074500D03*
X94932500Y-88074500D03*
X94297500Y-88074500D03*
X93662500Y-88074500D03*
X93027500Y-88074500D03*
X92392500Y-88074500D03*
X91757500Y-88074500D03*
X91122500Y-88074500D03*
X90487500Y-88074500D03*
X89852500Y-88074500D03*
X118047902Y-74485500D03*
X100203000Y-106870500D03*
X103695500Y-104088500D03*
X116586000Y-110744000D03*
X115824000Y-83185000D03*
X133540500Y-77533500D03*
X104648000Y-76898500D03*
X109728000Y-80137000D03*
X127063500Y-74676000D03*
X122047000Y-71437500D03*
X69088000Y-108521500D03*
X220535500Y-73231500D03*
X177038000Y-91519500D03*
X223837500Y-109220000D03*
X221558598Y-85979000D03*
X197294500Y-108966000D03*
X193675000Y-113613500D03*
X199995500Y-114903500D03*
X192278000Y-111125000D03*
X172148500Y-70739000D03*
X128841500Y-76263500D03*
X171259500Y-109180500D03*
X125539500Y-101219000D03*
X112522000Y-86677500D03*
X174117000Y-112903000D03*
X217880500Y-84645500D03*
X221869000Y-111061500D03*
X170720999Y-95780501D03*
X172351000Y-91821000D03*
X68516500Y-77089000D03*
X64960500Y-82931000D03*
X58166000Y-82105500D03*
X75882500Y-98996500D03*
X116078000Y-75057000D03*
X115443000Y-75057000D03*
X114808000Y-75057000D03*
X114173000Y-75057000D03*
X116078000Y-74422000D03*
X115443000Y-74422000D03*
X114808000Y-74422000D03*
X114173000Y-74422000D03*
X116078000Y-73787000D03*
X115443000Y-73787000D03*
X114808000Y-73787000D03*
X114173000Y-73787000D03*
X116078000Y-73152000D03*
X115443000Y-73152000D03*
X114808000Y-73152000D03*
X114173000Y-73152000D03*
X97472500Y-78486000D03*
X97472500Y-79121000D03*
X98107500Y-79756000D03*
X96837500Y-79121000D03*
X96837500Y-79756000D03*
X98742500Y-78486000D03*
X96837500Y-80391000D03*
X98107500Y-78486000D03*
X96837500Y-78486000D03*
X97472500Y-79756000D03*
X98742500Y-79756000D03*
X98742500Y-79121000D03*
X98107500Y-79121000D03*
X97472500Y-80391000D03*
X98107500Y-80391000D03*
X98742500Y-80391000D03*
X78105000Y-80327500D03*
X80010000Y-79692500D03*
X78105000Y-78422500D03*
X80010000Y-79057500D03*
X79375000Y-79057500D03*
X78740000Y-79692500D03*
X78740000Y-80327500D03*
X79375000Y-78422500D03*
X80010000Y-80327500D03*
X78105000Y-79692500D03*
X80010000Y-78422500D03*
X79375000Y-80327500D03*
X78105000Y-79057500D03*
X78740000Y-78422500D03*
X79375000Y-79692500D03*
X78740000Y-79057500D03*
X75755500Y-74485500D03*
X76390500Y-74485500D03*
X76390500Y-73850500D03*
X77025500Y-75755500D03*
X75755500Y-75755500D03*
X75120500Y-74485500D03*
X75120500Y-75755500D03*
X77025500Y-74485500D03*
X75120500Y-75120500D03*
X77025500Y-73850500D03*
X76390500Y-75755500D03*
X77025500Y-75120500D03*
X75120500Y-73850500D03*
X75755500Y-75120500D03*
X75755500Y-73850500D03*
X76390500Y-75120500D03*
X72453500Y-78613000D03*
X72580500Y-77089000D03*
X82867500Y-75005500D03*
X81343500Y-75005500D03*
X97282000Y-87376000D03*
X98032000Y-85852000D03*
X222301500Y-84709000D03*
X109283500Y-74231500D03*
X107569000Y-81724500D03*
X222440500Y-73231500D03*
X215074500Y-83375500D03*
X152463500Y-84709000D03*
X217614500Y-97599500D03*
X217678000Y-100520500D03*
X229552500Y-93916500D03*
X213360000Y-94043500D03*
X101524500Y-75755500D03*
X100024500Y-75755500D03*
X116205000Y-87376000D03*
X116955000Y-85852000D03*
X126619000Y-68770500D03*
X124904500Y-76454000D03*
X176022000Y-83248500D03*
X229679500Y-97917000D03*
X117360000Y-69659500D03*
X118860000Y-69659500D03*
X134100000Y-80454500D03*
X133413500Y-82042000D03*
X173672500Y-84899500D03*
X128143000Y-94742000D03*
X226695000Y-101917500D03*
X99695000Y-102096000D03*
X101270500Y-102171500D03*
X127254000Y-91007500D03*
X126936500Y-93154500D03*
X169596500Y-100711000D03*
X174156500Y-105664000D03*
X169545000Y-105664000D03*
X177927000Y-109791500D03*
X179070000Y-109791500D03*
X178498500Y-109791500D03*
X182003000Y-114363500D03*
X184912000Y-109855000D03*
X185483500Y-109855000D03*
X184340500Y-109855000D03*
X191464500Y-76454000D03*
X195719000Y-75057000D03*
X200533000Y-74295000D03*
X182816500Y-88594500D03*
X181419500Y-95071500D03*
X192925000Y-102743000D03*
X198870000Y-104140000D03*
X184531000Y-75565000D03*
X178943000Y-91519500D03*
X190119000Y-111950500D03*
X212915500Y-75374500D03*
X191135000Y-100965000D03*
X190500000Y-100965000D03*
X189865000Y-100965000D03*
X189230000Y-100965000D03*
X188595000Y-100965000D03*
X187960000Y-100965000D03*
X187325000Y-100965000D03*
X191135000Y-101600000D03*
X190500000Y-101600000D03*
X189865000Y-101600000D03*
X189230000Y-101600000D03*
X188595000Y-101600000D03*
X187960000Y-101600000D03*
X187325000Y-101600000D03*
X191135000Y-102235000D03*
X190500000Y-102235000D03*
X189865000Y-102235000D03*
X189230000Y-102235000D03*
X188595000Y-102235000D03*
X187960000Y-102235000D03*
X187325000Y-102235000D03*
X191135000Y-102870000D03*
X190500000Y-102870000D03*
X189865000Y-102870000D03*
X189230000Y-102870000D03*
X188595000Y-102870000D03*
X187960000Y-102870000D03*
X187325000Y-102870000D03*
X191135000Y-103505000D03*
X190500000Y-103505000D03*
X189865000Y-103505000D03*
X189230000Y-103505000D03*
X188595000Y-103505000D03*
X187960000Y-103505000D03*
X187325000Y-103505000D03*
X191135000Y-104140000D03*
X190500000Y-104140000D03*
X189865000Y-104140000D03*
X189230000Y-104140000D03*
X188595000Y-104140000D03*
X187960000Y-104140000D03*
X187325000Y-104140000D03*
X191135000Y-104775000D03*
X190500000Y-104775000D03*
X189865000Y-104775000D03*
X189230000Y-104775000D03*
X188595000Y-104775000D03*
X187960000Y-104775000D03*
X187325000Y-104775000D03*
X184721500Y-103759000D03*
X184721500Y-103187500D03*
X184721500Y-104330500D03*
X178054000Y-100774500D03*
X209105500Y-88531000D03*
X177355500Y-69100000D03*
X41850501Y-102997001D03*
X47256000Y-105156000D03*
X41850501Y-102197001D03*
X48026500Y-95567500D03*
X45826500Y-94617500D03*
X35433000Y-93789500D03*
X55562500Y-99314000D03*
X201930000Y-72263000D03*
X201422000Y-71628000D03*
X204152500Y-75184000D03*
X216852500Y-74993500D03*
X173164500Y-93345000D03*
X107823000Y-108458000D03*
X107696000Y-106235500D03*
X64135000Y-86487000D03*
X69596000Y-82169000D03*
X96757499Y-82085000D03*
X101092000Y-93218000D03*
X155702000Y-86550500D03*
X197104000Y-72961500D03*
X173545500Y-87376000D03*
X221996000Y-68516500D03*
X216852500Y-73469500D03*
X173101000Y-91821000D03*
X111442500Y-92646500D03*
X110807500Y-89471500D03*
X113284000Y-81216500D03*
X114744500Y-80454500D03*
X118046500Y-76835000D03*
X118046500Y-75438000D03*
X69723000Y-68453000D03*
X68072000Y-68326000D03*
X109664500Y-90487500D03*
X84518500Y-80899000D03*
X83502500Y-81915000D03*
X69024500Y-83502500D03*
X67881500Y-85445600D03*
X85979000Y-81280000D03*
X157670500Y-87376000D03*
X196723000Y-73596500D03*
X172021500Y-99314000D03*
X134937500Y-88988910D03*
X68135500Y-99314000D03*
X217424000Y-76073000D03*
X221615000Y-69024500D03*
X68326000Y-105918000D03*
X77851000Y-109855000D03*
X172021500Y-90106500D03*
X174244000Y-90043000D03*
X142303500Y-113919000D03*
X68389500Y-107442000D03*
X174244000Y-89217500D03*
X172021500Y-89281000D03*
X141986000Y-113157000D03*
X222567500Y-93002108D03*
X229933500Y-85534500D03*
X223202500Y-93091000D03*
X229933490Y-86360000D03*
X223774000Y-92837000D03*
X229933500Y-87122000D03*
X224409000Y-93027500D03*
X229933500Y-87947500D03*
X224980500Y-92685900D03*
X229933500Y-88773000D03*
X225552000Y-92646500D03*
X229933500Y-89535000D03*
X226123500Y-92265500D03*
X229933500Y-90360500D03*
X226695000Y-91884500D03*
X229933500Y-91122500D03*
X226123500Y-73469500D03*
X226123500Y-74993500D03*
X60706000Y-82232500D03*
X64579500Y-82169000D03*
X80978500Y-84076500D03*
X87439500Y-81597500D03*
X168783000Y-106315000D03*
X193929000Y-94678500D03*
X166727000Y-106680000D03*
X99711000Y-83886000D03*
X106108500Y-81026000D03*
X191074731Y-83835413D03*
X145034000Y-80962500D03*
X135255000Y-80962500D03*
X111506000Y-88646000D03*
X101473000Y-88709500D03*
X168338500Y-102759000D03*
X123444000Y-75628500D03*
X189674500Y-84074000D03*
X143954500Y-75374500D03*
X142748000Y-75374500D03*
X117046500Y-78488500D03*
X193103500Y-95948500D03*
X190869000Y-108521500D03*
X190119000Y-109601000D03*
X190563500Y-114093500D03*
X195895500Y-112353500D03*
X59690000Y-82232500D03*
X59245500Y-76390500D03*
X63754000Y-69913500D03*
X62166500Y-84074000D03*
X88011000Y-98298000D03*
X70294500Y-97980500D03*
X70802500Y-83502500D03*
X178181000Y-87185500D03*
X130175000Y-90678000D03*
X130175000Y-88011000D03*
X114236500Y-88430100D03*
X108394500Y-93472000D03*
X89471500Y-96393000D03*
X88709500Y-100520500D03*
X101727000Y-93980000D03*
X185039000Y-93408500D03*
X122110500Y-114871500D03*
X99314000Y-114909600D03*
X98361500Y-100520500D03*
X158305500Y-110998000D03*
X191579500Y-83502500D03*
X145732500Y-81470500D03*
X135191500Y-82042000D03*
X121983500Y-85217000D03*
X88900000Y-103568500D03*
X122428000Y-112458500D03*
X132207000Y-87884000D03*
X190500000Y-84074000D03*
X132207000Y-69532500D03*
X89344500Y-109982000D03*
X107823000Y-113538000D03*
X144335500Y-89789000D03*
X145923000Y-80581500D03*
X186372500Y-94043500D03*
X122174000Y-110109000D03*
X123319500Y-97134500D03*
X123319500Y-99334500D03*
X89408000Y-106680000D03*
X186880500Y-94424500D03*
X127825500Y-103060500D03*
X126174500Y-106553000D03*
X172212000Y-110553500D03*
X177165000Y-108648500D03*
X177896001Y-106065500D03*
X190881000Y-99441000D03*
X185928000Y-115570000D03*
X175577500Y-112331500D03*
X173101000Y-115379500D03*
X191579500Y-110680500D03*
X177165000Y-114554000D03*
X194310000Y-95440500D03*
X192532000Y-95821500D03*
X189738000Y-78676500D03*
X184975500Y-98044000D03*
X138430000Y-68707000D03*
X191135000Y-72961500D03*
X138366500Y-77089000D03*
X190246000Y-85725000D03*
X144145000Y-76200000D03*
X138430000Y-72834500D03*
X189420500Y-85598000D03*
X166651270Y-74775730D03*
X197802500Y-74104500D03*
X152590500Y-73279000D03*
X180594000Y-73279000D03*
X166687500Y-79121000D03*
X197468099Y-80772000D03*
X176455822Y-75935632D03*
X152654000Y-77660500D03*
X192341500Y-72923410D03*
X182880000Y-91821000D03*
X182943500Y-92456000D03*
X175641000Y-94678500D03*
X181419500Y-93472000D03*
X52483517Y-109419900D03*
X48514000Y-109537500D03*
X54630500Y-109217500D03*
X56769000Y-109220000D03*
X66480501Y-111620501D03*
X121539000Y-114388900D03*
X178943000Y-97345500D03*
X155687230Y-111681730D03*
X59944000Y-112153000D03*
X58166000Y-98996500D03*
X58991500Y-101663500D03*
X58166000Y-105981500D03*
X56451500Y-106743500D03*
X58229500Y-100330000D03*
X58166000Y-107442000D03*
X55689500Y-106680000D03*
X196532500Y-106235500D03*
X193040000Y-108648500D03*
X194451770Y-98600730D03*
X200025000Y-103441500D03*
X194627500Y-103695500D03*
X192913000Y-103886000D03*
X193040000Y-110172500D03*
X194834948Y-99008828D03*
X193992500Y-107442000D03*
X200215500Y-104140000D03*
X219456000Y-83375500D03*
X217360500Y-83312000D03*
X220599000Y-87376000D03*
X222885000Y-87503000D03*
X213550500Y-88582500D03*
X215709500Y-88773000D03*
X201485500Y-89471500D03*
X224028000Y-76327000D03*
X201803000Y-86169500D03*
X214249000Y-78867000D03*
X222059500Y-82867500D03*
X224345500Y-83185000D03*
X221981858Y-82199937D03*
X222313500Y-81724500D03*
X221996000Y-81216500D03*
X222313500Y-80708500D03*
X221996000Y-80200500D03*
X219224128Y-91145575D03*
X211264500Y-87439496D03*
X219202000Y-90170000D03*
X211074000Y-86487000D03*
X218821000Y-90678000D03*
X210629500Y-86969596D03*
X218821000Y-89662000D03*
X210693000Y-85915500D03*
X219202000Y-89154000D03*
X210970243Y-85430324D03*
X218821000Y-88646000D03*
X212280500Y-84960424D03*
X218973454Y-91645008D03*
X211333812Y-87993997D03*
X219202000Y-88138000D03*
X212407500Y-84391500D03*
X212026500Y-92519500D03*
X212026500Y-91503500D03*
X211582000Y-92011500D03*
X211582000Y-90995500D03*
X212026500Y-90487500D03*
X211582000Y-89979500D03*
X205227613Y-90431125D03*
X211582000Y-93027500D03*
X212026500Y-89471500D03*
X204787500Y-90043000D03*
X215138000Y-82232500D03*
X215455500Y-81724500D03*
X215138000Y-81216500D03*
X201930000Y-83121500D03*
X203263500Y-82994500D03*
X215455500Y-80708500D03*
X200533000Y-83312000D03*
X203786270Y-82374270D03*
X215455500Y-79692500D03*
X198691500Y-83439000D03*
X204406500Y-81280000D03*
X215138000Y-80200500D03*
X199644000Y-83185000D03*
X204089000Y-81788000D03*
X221996000Y-79248000D03*
X222320797Y-79702716D03*
X54610000Y-112141000D03*
X76647000Y-100599000D03*
X59944000Y-112966500D03*
X61849000Y-108204000D03*
X62293500Y-99631500D03*
X47549500Y-98679000D03*
X56134000Y-105664000D03*
X55626000Y-102310500D03*
X52780500Y-110871000D03*
X50800000Y-107061000D03*
X35496500Y-95504000D03*
X53276500Y-98667000D03*
X53975000Y-94424500D03*
X53340000Y-95059500D03*
X53975000Y-95059500D03*
X52070000Y-95059500D03*
X52705000Y-95059500D03*
X53340000Y-94424500D03*
X52705000Y-94424500D03*
X52070000Y-94424500D03*
X53340000Y-95694500D03*
X53975000Y-95694500D03*
X52070000Y-95694500D03*
X52705000Y-95694500D03*
X54610000Y-104076500D03*
X53086000Y-112724500D03*
X61785500Y-104775000D03*
X62103000Y-97790000D03*
X45826500Y-95623902D03*
X45826500Y-101549000D03*
X48759301Y-100715501D03*
X46049500Y-98679000D03*
X48756000Y-105156000D03*
X52705000Y-103078001D03*
X52046500Y-102582000D03*
X53236500Y-102582000D03*
X53236500Y-103412000D03*
X52046500Y-103412000D03*
X55626000Y-103810500D03*
X54630500Y-108267500D03*
X54280500Y-110871000D03*
X35496500Y-96317500D03*
X40830500Y-105854500D03*
X41465500Y-105854500D03*
X42100500Y-105854500D03*
X42735500Y-105854500D03*
X40830500Y-105219500D03*
X41465500Y-105219500D03*
X42100500Y-105219500D03*
X42735500Y-105219500D03*
X50482500Y-97167000D03*
X53086000Y-114224500D03*
X215455500Y-78676500D03*
X215138000Y-79184500D03*
X225044000Y-111061500D03*
X227330000Y-91884500D03*
X229933500Y-91948000D03*
X227233184Y-93883184D03*
X229933500Y-92710000D03*
D44*
X221753000Y-88166000D02*
X221753000Y-91492500D01*
X214641000Y-92999500D02*
X214641000Y-89499500D01*
X218006500Y-78704500D02*
X218006500Y-79109999D01*
X219381500Y-79212500D02*
X219381500Y-79617999D01*
X219381500Y-82712500D02*
X219381500Y-80807001D01*
X218006500Y-82204500D02*
X218006500Y-80299001D01*
D45*
X219226001Y-80962500D02*
X219381500Y-80807001D01*
X218630500Y-80962500D02*
X219226001Y-80962500D01*
X218248500Y-80962500D02*
X218006500Y-81204500D01*
X218630500Y-80962500D02*
X218248500Y-80962500D01*
X217593799Y-80299001D02*
X218006500Y-80299001D01*
X217352499Y-80057701D02*
X217593799Y-80299001D01*
X218006500Y-79204500D02*
X217352499Y-79204501D01*
X217352499Y-79204501D02*
X217352499Y-80057701D01*
X189738000Y-77926500D02*
X189738000Y-77279500D01*
X184225500Y-98044000D02*
X183451500Y-98044000D01*
X183451500Y-98044000D02*
X183388000Y-98107500D01*
X218962999Y-69520001D02*
X219212999Y-69270001D01*
X217762999Y-69520001D02*
X218962999Y-69520001D01*
X219962999Y-70020001D02*
X219212999Y-69270001D01*
X220662999Y-70020001D02*
X219962999Y-70020001D01*
X216789499Y-69520001D02*
X217762999Y-69520001D01*
X216281000Y-70028500D02*
X216789499Y-69520001D01*
X137489500Y-77978000D02*
X137489500Y-80137000D01*
X151713500Y-78486000D02*
X151713500Y-80645000D01*
X151713500Y-74168000D02*
X151713500Y-76327000D01*
X84715000Y-78601000D02*
X84028500Y-77914500D01*
X85344000Y-78601000D02*
X84715000Y-78601000D01*
X84028500Y-77914500D02*
X83248500Y-77914500D01*
X83134000Y-77800000D02*
X83134000Y-76751000D01*
X83248500Y-77914500D02*
X83134000Y-77800000D01*
X86145500Y-77799500D02*
X86751500Y-77799500D01*
X85344000Y-78601000D02*
X86145500Y-77799500D01*
X87451500Y-77799500D02*
X88201500Y-78549500D01*
X86751500Y-77799500D02*
X87451500Y-77799500D01*
X81328500Y-86026500D02*
X81028500Y-86026500D01*
X81028500Y-86026500D02*
X80978500Y-85976500D01*
X93853000Y-82460000D02*
X94514500Y-83121500D01*
X93853000Y-82435000D02*
X93853000Y-82460000D01*
X94514500Y-83121500D02*
X95758000Y-83121500D01*
X96097499Y-83460999D02*
X96097499Y-84285000D01*
X95758000Y-83121500D02*
X96097499Y-83460999D01*
X97407499Y-82869000D02*
X97407499Y-82085000D01*
X97154999Y-83121500D02*
X97407499Y-82869000D01*
X95758000Y-83121500D02*
X97154999Y-83121500D01*
X89651500Y-78299500D02*
X89651500Y-77799500D01*
X91122500Y-77799500D02*
X89651500Y-77799500D01*
X117396500Y-80438500D02*
X117014500Y-80438500D01*
X117296500Y-80538500D02*
X117396500Y-80438500D01*
X117296500Y-81978500D02*
X117296500Y-80538500D01*
X132238499Y-77913000D02*
X132238499Y-78697000D01*
X131922499Y-77597000D02*
X132238499Y-77913000D01*
X131363500Y-77597000D02*
X131922499Y-77597000D01*
X130613500Y-76847000D02*
X131363500Y-77597000D01*
X129984500Y-76847000D02*
X130613500Y-76847000D01*
D44*
X78597000Y-99246500D02*
X78347000Y-98996500D01*
X78597000Y-100647500D02*
X78597000Y-99246500D01*
X79232000Y-100012500D02*
X78597000Y-100647500D01*
X79248000Y-100012500D02*
X79232000Y-100012500D01*
X65722500Y-103511000D02*
X66046000Y-103187500D01*
X65722500Y-105537000D02*
X64897000Y-104711500D01*
X65722500Y-105791000D02*
X65722500Y-105537000D01*
X65722500Y-105791000D02*
X65722500Y-103511000D01*
X65722500Y-106755500D02*
X65722500Y-105791000D01*
X65722500Y-98119500D02*
X64528000Y-98119500D01*
X64528000Y-98119500D02*
X64198500Y-97790000D01*
X50545500Y-71025000D02*
X49403000Y-69882500D01*
X53657500Y-71025000D02*
X50545500Y-71025000D01*
X64576499Y-73394000D02*
X64576499Y-72488501D01*
X64731998Y-72644000D02*
X64576499Y-72488501D01*
X66026499Y-72644000D02*
X64731998Y-72644000D01*
X64576499Y-73394000D02*
X63055500Y-73394000D01*
D45*
X66776499Y-73394000D02*
X66026499Y-72644000D01*
X67476499Y-73394000D02*
X66776499Y-73394000D01*
X70790000Y-75044500D02*
X70790000Y-76220500D01*
X70739000Y-74993500D02*
X70790000Y-75044500D01*
X71450000Y-74020500D02*
X72100000Y-74020500D01*
X71450000Y-74804500D02*
X71450000Y-74020500D01*
X70739000Y-74993500D02*
X71261000Y-74993500D01*
X71261000Y-74993500D02*
X71450000Y-74804500D01*
D44*
X66026499Y-72644000D02*
X66026499Y-70625501D01*
X66026499Y-70625501D02*
X66040000Y-70612000D01*
D45*
X99961000Y-85936000D02*
X100061000Y-85836000D01*
X99961000Y-87376000D02*
X99961000Y-85936000D01*
X100061000Y-85836000D02*
X99761000Y-85836000D01*
X99761000Y-85836000D02*
X99711000Y-85786000D01*
X112268000Y-82396500D02*
X112929500Y-83058000D01*
X112268000Y-82371500D02*
X112268000Y-82396500D01*
X112929500Y-83058000D02*
X114109500Y-83058000D01*
X114478000Y-83426500D02*
X114478000Y-84221500D01*
X114109500Y-83058000D02*
X114478000Y-83426500D01*
X115138000Y-82021500D02*
X115138000Y-82805500D01*
X114517000Y-83426500D02*
X114478000Y-83426500D01*
X115138000Y-82805500D02*
X114517000Y-83426500D01*
X101739500Y-78283000D02*
X101739500Y-77322500D01*
X101665010Y-78357490D02*
X101739500Y-78283000D01*
X100810510Y-78357490D02*
X101665010Y-78357490D01*
X100429500Y-79522500D02*
X100429500Y-78738500D01*
X100429500Y-78738500D02*
X100810510Y-78357490D01*
X103949500Y-79147500D02*
X103949500Y-79172500D01*
X101665010Y-78357490D02*
X103159490Y-78357490D01*
X103159490Y-78357490D02*
X103949500Y-79147500D01*
X106120500Y-77799500D02*
X106870500Y-78549500D01*
X105420500Y-77799500D02*
X106120500Y-77799500D01*
X108320500Y-77799500D02*
X109728000Y-77799500D01*
X107120500Y-78799500D02*
X106870500Y-78549500D01*
X108320500Y-78799500D02*
X107120500Y-78799500D01*
X121959500Y-72402000D02*
X121285000Y-73076500D01*
X122756000Y-72402000D02*
X121959500Y-72402000D01*
X123456000Y-72402000D02*
X124206000Y-73152000D01*
X122756000Y-72402000D02*
X123456000Y-72402000D01*
X127063500Y-72402000D02*
X125656000Y-72402000D01*
X124951000Y-72402000D02*
X124651000Y-72702000D01*
X125656000Y-72402000D02*
X124951000Y-72402000D01*
X119075000Y-71767500D02*
X119075000Y-71226500D01*
X120656000Y-73076500D02*
X119590001Y-72010501D01*
X121285000Y-73076500D02*
X120656000Y-73076500D01*
X119321799Y-72010501D02*
X119320298Y-72009000D01*
X119320298Y-72009000D02*
X119316500Y-72009000D01*
X119590001Y-72010501D02*
X119321799Y-72010501D01*
X119316500Y-72009000D02*
X119075000Y-71767500D01*
X126873000Y-101778500D02*
X126873000Y-101155500D01*
X118872000Y-97484500D02*
X121666000Y-97484500D01*
X124269500Y-97918500D02*
X124269500Y-97134500D01*
X122729001Y-97918501D02*
X124269500Y-97918500D01*
X121666000Y-97484500D02*
X122295000Y-97484500D01*
X122295000Y-97484500D02*
X122729001Y-97918501D01*
X206704500Y-70294500D02*
X207454500Y-70294500D01*
X211216000Y-69675500D02*
X211216000Y-70597000D01*
X211216000Y-70597000D02*
X211201000Y-70612000D01*
X209816000Y-76327000D02*
X208915000Y-76327000D01*
X101485500Y-104279500D02*
X101485500Y-103738500D01*
X101727000Y-104521000D02*
X101485500Y-104279500D01*
X101730798Y-104521000D02*
X101727000Y-104521000D01*
X103695500Y-105563500D02*
X102653000Y-104521000D01*
X103695500Y-105588500D02*
X103695500Y-105563500D01*
X102540202Y-104521000D02*
X102538701Y-104522501D01*
X102538701Y-104522501D02*
X101732299Y-104522501D01*
X102653000Y-104521000D02*
X102540202Y-104521000D01*
X101732299Y-104522501D02*
X101730798Y-104521000D01*
X115144501Y-108899499D02*
X115144501Y-109399499D01*
X113944501Y-108899499D02*
X113694501Y-109149499D01*
X115144501Y-108899499D02*
X113944501Y-108899499D01*
X112944501Y-108399499D02*
X113694501Y-109149499D01*
X112244501Y-108399499D02*
X112944501Y-108399499D01*
X116093001Y-108899499D02*
X115144501Y-108899499D01*
X116586000Y-108406500D02*
X116093001Y-108899499D01*
X103949500Y-79102671D02*
X103949500Y-79172500D01*
X104578501Y-78473670D02*
X103949500Y-79102671D01*
X104578501Y-78047499D02*
X104578501Y-78473670D01*
X105420500Y-77799500D02*
X104826500Y-77799500D01*
X104826500Y-77799500D02*
X104578501Y-78047499D01*
X107618000Y-77799500D02*
X107318000Y-78099500D01*
X108320500Y-77799500D02*
X107618000Y-77799500D01*
X109728000Y-77799500D02*
X109728000Y-77406500D01*
X127063500Y-72402000D02*
X127063500Y-71691500D01*
X119533298Y-70231000D02*
X119697500Y-70231000D01*
X119075000Y-71226500D02*
X119075000Y-70689298D01*
X119075000Y-70689298D02*
X119533298Y-70231000D01*
X113694501Y-109149499D02*
X113694501Y-110075001D01*
X113694501Y-110075001D02*
X113728500Y-110109000D01*
D44*
X122364500Y-92492500D02*
X122712000Y-92145000D01*
X122364500Y-94043500D02*
X122364500Y-92492500D01*
X123142500Y-94821500D02*
X122364500Y-94043500D01*
X123142500Y-95059500D02*
X123142500Y-94821500D01*
X125207000Y-92145000D02*
X123967000Y-92145000D01*
X123967000Y-92145000D02*
X123967000Y-91370000D01*
X123967000Y-91370000D02*
X125207000Y-91370000D01*
X123183500Y-92145000D02*
X118497500Y-92145000D01*
X123183500Y-92145000D02*
X123967000Y-92145000D01*
X122712000Y-92145000D02*
X123183500Y-92145000D01*
X118497500Y-92145000D02*
X118062500Y-91710000D01*
X118062500Y-91710000D02*
X118062500Y-90678000D01*
X222690500Y-74981500D02*
X222440500Y-75231500D01*
X224091500Y-74981500D02*
X222690500Y-74981500D01*
X220285500Y-74981500D02*
X220535500Y-75231500D01*
X218884500Y-74981500D02*
X220285500Y-74981500D01*
X220535500Y-75231500D02*
X222440500Y-75231500D01*
X220738000Y-75434000D02*
X220535500Y-75231500D01*
X220738000Y-76771500D02*
X220738000Y-75434000D01*
D45*
X178968000Y-93494500D02*
X178943000Y-93519500D01*
X180190500Y-93494500D02*
X178968000Y-93494500D01*
X225298000Y-108406500D02*
X223837500Y-108406500D01*
X223837500Y-108406500D02*
X223837500Y-107442000D01*
X196420500Y-110442500D02*
X196643500Y-110442500D01*
X196643500Y-110442500D02*
X197231000Y-109855000D01*
X190869000Y-112141000D02*
X190869000Y-111621000D01*
X190869000Y-111621000D02*
X190627000Y-111379000D01*
X177343500Y-104902000D02*
X177863500Y-105422000D01*
X176974500Y-104902000D02*
X177343500Y-104902000D01*
D44*
X175260000Y-71298500D02*
X175958500Y-70600000D01*
X175260000Y-71755000D02*
X175260000Y-71298500D01*
X174561500Y-70600000D02*
X178752500Y-70600000D01*
D45*
X125087000Y-91250000D02*
X125207000Y-91370000D01*
X125087000Y-90207500D02*
X125087000Y-91250000D01*
D44*
X129984500Y-76847000D02*
X129984500Y-75692000D01*
D45*
X171259500Y-112700500D02*
X171259500Y-112180500D01*
X168033000Y-104711500D02*
X168402000Y-104711500D01*
D44*
X170700000Y-105664000D02*
X171156500Y-105664000D01*
D45*
X165227000Y-106680000D02*
X165925500Y-106680000D01*
X115138000Y-82021500D02*
X115138000Y-81102000D01*
X115138000Y-81102000D02*
X115125500Y-81089500D01*
X81978500Y-77914500D02*
X81824000Y-78069000D01*
X83248500Y-77914500D02*
X81978500Y-77914500D01*
X81824000Y-78069000D02*
X81824000Y-78951000D01*
X122388500Y-95059500D02*
X123142500Y-95059500D01*
X120015000Y-95059500D02*
X122388500Y-95059500D01*
X118872000Y-97484500D02*
X118872000Y-96202500D01*
X118872000Y-96202500D02*
X120015000Y-95059500D01*
X220674500Y-111950500D02*
X220674500Y-111303500D01*
X220674500Y-111303500D02*
X220916500Y-111061500D01*
X165683500Y-79819500D02*
X165989000Y-79819500D01*
X165989000Y-79819500D02*
X166306500Y-80137000D01*
X165683500Y-75501500D02*
X166047960Y-75501500D01*
X166047960Y-75501500D02*
X166267331Y-75720871D01*
X216979500Y-97599500D02*
X216610500Y-97599500D01*
X217043000Y-100520500D02*
X216610500Y-100520500D01*
X137489500Y-69278500D02*
X137489500Y-71437500D01*
X219381500Y-79212500D02*
X218884500Y-78715500D01*
X218884500Y-78715500D02*
X218884500Y-77914500D01*
X123587000Y-92525000D02*
X123967000Y-92145000D01*
X123587000Y-93307500D02*
X123587000Y-92525000D01*
D44*
X231394000Y-101917500D02*
X231762300Y-101549200D01*
X231124000Y-101917500D02*
X231394000Y-101917500D01*
X93853000Y-82435000D02*
X93853000Y-81597500D01*
D45*
X69596000Y-74993500D02*
X70739000Y-74993500D01*
X68516500Y-74751500D02*
X69354000Y-74751500D01*
X69354000Y-74751500D02*
X69596000Y-74993500D01*
X66026499Y-73900499D02*
X66026499Y-72644000D01*
X68516500Y-74751500D02*
X66877500Y-74751500D01*
X66877500Y-74751500D02*
X66026499Y-73900499D01*
X218660500Y-79704500D02*
X218006500Y-79704500D01*
X218660503Y-80145503D02*
X218660500Y-79704500D01*
X219381500Y-80212500D02*
X218727500Y-80212500D01*
X218727500Y-80212500D02*
X218660503Y-80145503D01*
X219725702Y-78549500D02*
X219583000Y-78549500D01*
X220035501Y-78859299D02*
X219725702Y-78549500D01*
X219381500Y-80212500D02*
X220035501Y-80212499D01*
X220035501Y-80212499D02*
X220035501Y-78859299D01*
X217754500Y-68528500D02*
X217762999Y-68520001D01*
X216281000Y-68528500D02*
X217754500Y-68528500D01*
X217762999Y-69020001D02*
X217762999Y-68520001D01*
X217762999Y-70020001D02*
X217762999Y-70463501D01*
X217762999Y-70463501D02*
X217741500Y-70485000D01*
X137489500Y-73596500D02*
X137858500Y-73596500D01*
X137858500Y-73596500D02*
X138049000Y-73787000D01*
X84134000Y-77101000D02*
X83784000Y-76751000D01*
X85344000Y-77101000D02*
X84134000Y-77101000D01*
X82474000Y-78951000D02*
X82474000Y-79705000D01*
X82474000Y-79705000D02*
X82105500Y-80073500D01*
X85344000Y-77101000D02*
X85713000Y-77101000D01*
X85713000Y-77101000D02*
X86042500Y-76771500D01*
X95097499Y-83935000D02*
X95447499Y-84285000D01*
X93853000Y-83935000D02*
X95097499Y-83935000D01*
X89651500Y-79299500D02*
X89651500Y-78799500D01*
X91122500Y-79299500D02*
X89651500Y-79299500D01*
X91122500Y-79299500D02*
X91122500Y-79946500D01*
X91122500Y-79946500D02*
X91059000Y-80010000D01*
X120075000Y-71576500D02*
X119725000Y-71226500D01*
X121285000Y-71576500D02*
X120075000Y-71576500D01*
X118415000Y-73426500D02*
X117765000Y-73426500D01*
X131238499Y-78347000D02*
X131588499Y-78697000D01*
X129984500Y-78347000D02*
X131238499Y-78347000D01*
D44*
X65722500Y-108255500D02*
X66917000Y-108255500D01*
X66917000Y-108255500D02*
X67246500Y-108585000D01*
X65520000Y-99822000D02*
X65722500Y-99619500D01*
X64135000Y-99822000D02*
X65520000Y-99822000D01*
D45*
X66548000Y-113653000D02*
X66548000Y-112966500D01*
X69076000Y-107442000D02*
X69076000Y-105981500D01*
X63055500Y-71894000D02*
X64576499Y-71894000D01*
X63055500Y-71894000D02*
X63055500Y-71501000D01*
X63055500Y-71501000D02*
X63754000Y-70802500D01*
X113478000Y-83871500D02*
X113828000Y-84221500D01*
X112268000Y-83871500D02*
X113478000Y-83871500D01*
X102739500Y-77672500D02*
X102389500Y-77322500D01*
X103949500Y-77672500D02*
X102739500Y-77672500D01*
X108320500Y-79299500D02*
X109728000Y-79299500D01*
X109728000Y-78994000D02*
X109728000Y-79299500D01*
X108320500Y-78299500D02*
X109033500Y-78299500D01*
X109033500Y-78299500D02*
X109728000Y-78994000D01*
X125656000Y-72902000D02*
X125656000Y-73902000D01*
X125656000Y-73902000D02*
X127063500Y-73902000D01*
X118415000Y-73426500D02*
X118415000Y-74118402D01*
X118415000Y-74118402D02*
X118047902Y-74485500D01*
X118872000Y-98984500D02*
X121666000Y-98984500D01*
X124269500Y-98550500D02*
X124269500Y-99334500D01*
X122729001Y-98550499D02*
X124269500Y-98550500D01*
X121666000Y-98984500D02*
X122295000Y-98984500D01*
X122295000Y-98984500D02*
X122729001Y-98550499D01*
X102485500Y-104088500D02*
X102135500Y-103738500D01*
X103695500Y-104088500D02*
X102485500Y-104088500D01*
X100175500Y-105938500D02*
X100175500Y-106843000D01*
X100175500Y-106843000D02*
X100203000Y-106870500D01*
X115151502Y-109906500D02*
X115144501Y-109899499D01*
X116586000Y-109906500D02*
X115151502Y-109906500D01*
X116586000Y-109906500D02*
X116586000Y-110744000D01*
X115788000Y-82021500D02*
X115788000Y-83149000D01*
X115788000Y-83149000D02*
X115824000Y-83185000D01*
X133548499Y-76497000D02*
X133548499Y-77525501D01*
X133548499Y-77525501D02*
X133540500Y-77533500D01*
X103949500Y-77672500D02*
X103949500Y-77597000D01*
X103949500Y-77597000D02*
X104648000Y-76898500D01*
X109728000Y-79299500D02*
X109728000Y-80137000D01*
X127063500Y-73902000D02*
X127063500Y-74676000D01*
X121285000Y-71576500D02*
X121908000Y-71576500D01*
X121908000Y-71576500D02*
X122047000Y-71437500D01*
X69076000Y-107442000D02*
X69076000Y-108509500D01*
X69076000Y-108509500D02*
X69088000Y-108521500D01*
X116586000Y-109881500D02*
X116586000Y-109906500D01*
X115369501Y-108399499D02*
X116016501Y-107752499D01*
X116016501Y-107752499D02*
X117164201Y-107752499D01*
X117164201Y-107752499D02*
X117215001Y-107803299D01*
X115144501Y-108399499D02*
X115369501Y-108399499D01*
X117215001Y-107803299D02*
X117215000Y-109252500D01*
X117215000Y-109252500D02*
X116586000Y-109881500D01*
X220285500Y-73481500D02*
X220535500Y-73231500D01*
X218884500Y-73481500D02*
X220285500Y-73481500D01*
X177013000Y-91544500D02*
X177038000Y-91519500D01*
X175790500Y-91544500D02*
X177013000Y-91544500D01*
X223837500Y-109220000D02*
X223837500Y-109906500D01*
D44*
X212916500Y-109854000D02*
X212534500Y-110236000D01*
X214947500Y-109854000D02*
X212916500Y-109854000D01*
D45*
X222301500Y-86169500D02*
X221749098Y-86169500D01*
X221749098Y-86169500D02*
X221558598Y-85979000D01*
X216102500Y-74993500D02*
X216102500Y-73469500D01*
X196520500Y-108966000D02*
X197294500Y-108966000D01*
X192290000Y-110172500D02*
X192290000Y-108648500D01*
X192290000Y-110172500D02*
X192290000Y-111113000D01*
X192290000Y-111113000D02*
X192278000Y-111125000D01*
D44*
X172656500Y-72452500D02*
X172656500Y-71247000D01*
X172656500Y-71247000D02*
X172148500Y-70739000D01*
D45*
X124269500Y-100723000D02*
X124511500Y-100965000D01*
X124269500Y-99334500D02*
X124269500Y-100723000D01*
D44*
X129984500Y-78347000D02*
X128841500Y-77204000D01*
X128841500Y-77204000D02*
X128841500Y-76263500D01*
D45*
X171259500Y-108597000D02*
X171259500Y-109180500D01*
D44*
X124511500Y-100965000D02*
X125285500Y-100965000D01*
X125285500Y-100965000D02*
X125539500Y-101219000D01*
D45*
X112268000Y-83871500D02*
X112268000Y-86423500D01*
X112268000Y-86423500D02*
X112522000Y-86677500D01*
X218884500Y-73456500D02*
X218884500Y-73481500D01*
X218193499Y-72765499D02*
X218884500Y-73456500D01*
X216606501Y-72765499D02*
X218193499Y-72765499D01*
X216102500Y-73469500D02*
X216102500Y-73269500D01*
X216102500Y-73269500D02*
X216606501Y-72765499D01*
X222174500Y-111367000D02*
X221869000Y-111061500D01*
X222174500Y-111950500D02*
X222174500Y-111367000D01*
X95447499Y-87954499D02*
X95567500Y-88074500D01*
X95447499Y-84285000D02*
X95447499Y-87954499D01*
X70109000Y-76251500D02*
X70140000Y-76220500D01*
X68516500Y-76251500D02*
X70109000Y-76251500D01*
D44*
X68516500Y-76251500D02*
X68516500Y-77089000D01*
X212852500Y-106554000D02*
X212534500Y-106236000D01*
X214947500Y-106554000D02*
X212852500Y-106554000D01*
X50260500Y-75025000D02*
X49403000Y-75882500D01*
X53657500Y-75025000D02*
X50260500Y-75025000D01*
D45*
X64960500Y-82931000D02*
X58991500Y-82931000D01*
X58991500Y-82931000D02*
X58166000Y-82105500D01*
D44*
X76847000Y-98996500D02*
X75882500Y-98996500D01*
D45*
X71450000Y-77342500D02*
X71005000Y-77787500D01*
X71450000Y-76220500D02*
X71450000Y-77342500D01*
X71005000Y-77787500D02*
X71830500Y-78613000D01*
X71830500Y-78613000D02*
X72453500Y-78613000D01*
X72100000Y-77382500D02*
X72505000Y-77787500D01*
X72100000Y-76220500D02*
X72100000Y-77382500D01*
X72505000Y-77787500D02*
X72505000Y-77164500D01*
X72505000Y-77164500D02*
X72580500Y-77089000D01*
X82474000Y-75565500D02*
X82855500Y-75184000D01*
X82474000Y-76751000D02*
X82474000Y-75565500D01*
X81824000Y-75652500D02*
X81355500Y-75184000D01*
X81824000Y-76751000D02*
X81824000Y-75652500D01*
X96757499Y-85436001D02*
X96341500Y-85852000D01*
X96757499Y-84285000D02*
X96757499Y-85436001D01*
X97282000Y-87376000D02*
X96774000Y-87376000D01*
X96341500Y-86943500D02*
X96341500Y-85852000D01*
X96774000Y-87376000D02*
X96341500Y-86943500D01*
X97407499Y-85417999D02*
X97841500Y-85852000D01*
X97407499Y-84285000D02*
X97407499Y-85417999D01*
X97841500Y-85852000D02*
X98032000Y-85852000D01*
X109283500Y-74536828D02*
X110871000Y-76124328D01*
X109283500Y-74231500D02*
X109283500Y-74536828D01*
X110871000Y-76124328D02*
X110871000Y-80264000D01*
X110871000Y-80264000D02*
X109664500Y-81470500D01*
X109664500Y-81470500D02*
X107823000Y-81470500D01*
X107823000Y-81470500D02*
X107569000Y-81724500D01*
X226873500Y-74993500D02*
X226873500Y-73469500D01*
D44*
X222690500Y-73481500D02*
X222440500Y-73231500D01*
X224091500Y-73481500D02*
X222690500Y-73481500D01*
D45*
X226873500Y-75193500D02*
X226369500Y-75697500D01*
X226873500Y-74993500D02*
X226873500Y-75193500D01*
X226369500Y-75697500D02*
X224920299Y-75697501D01*
X224920299Y-75697501D02*
X224720501Y-75497703D01*
X224091500Y-73506500D02*
X224091500Y-73481500D01*
X224720501Y-75497703D02*
X224720500Y-74135500D01*
X224720500Y-74135500D02*
X224091500Y-73506500D01*
D44*
X170053000Y-84709000D02*
X172593000Y-82169000D01*
X191262000Y-90043000D02*
X195897500Y-90043000D01*
X183388000Y-82169000D02*
X191262000Y-90043000D01*
X172593000Y-82169000D02*
X183388000Y-82169000D01*
X152463500Y-84709000D02*
X170053000Y-84709000D01*
X195897500Y-90043000D02*
X200660000Y-94805500D01*
D45*
X217614500Y-97599500D02*
X218110500Y-97599500D01*
X217678000Y-100520500D02*
X218110500Y-100520500D01*
D44*
X218110500Y-100520500D02*
X218110500Y-97599500D01*
X214376000Y-82677000D02*
X215074500Y-83375500D01*
X206946500Y-82677000D02*
X214376000Y-82677000D01*
X195897500Y-90043000D02*
X199580500Y-90043000D01*
X199580500Y-90043000D02*
X206946500Y-82677000D01*
X228663500Y-94805500D02*
X229552500Y-93916500D01*
X222301500Y-84709000D02*
X224599500Y-84709000D01*
X224599500Y-84709000D02*
X225488500Y-83820000D01*
X225488500Y-83820000D02*
X225488500Y-78168500D01*
X226873500Y-76783500D02*
X226873500Y-74993500D01*
X225488500Y-78168500D02*
X226873500Y-76783500D01*
D45*
X213995000Y-94678500D02*
X213995000Y-94805500D01*
X213360000Y-94043500D02*
X213995000Y-94678500D01*
D44*
X200660000Y-94805500D02*
X213995000Y-94805500D01*
X213995000Y-94805500D02*
X228663500Y-94805500D01*
X229044500Y-94424500D02*
X229552500Y-93916500D01*
X228624000Y-94424500D02*
X229044500Y-94424500D01*
D45*
X101079500Y-76200500D02*
X101524500Y-75755500D01*
X101079500Y-77322500D02*
X101079500Y-76200500D01*
X100429500Y-76160500D02*
X100024500Y-75755500D01*
X100429500Y-77322500D02*
X100429500Y-76160500D01*
X115138000Y-85343500D02*
X114693000Y-85788500D01*
X115138000Y-84221500D02*
X115138000Y-85343500D01*
X114693000Y-85788500D02*
X114693000Y-86880000D01*
X114693000Y-86880000D02*
X115189000Y-87376000D01*
X115189000Y-87376000D02*
X116205000Y-87376000D01*
X115788000Y-85383500D02*
X116193000Y-85788500D01*
X115788000Y-84221500D02*
X115788000Y-85383500D01*
X116193000Y-85788500D02*
X116891500Y-85788500D01*
X116891500Y-85788500D02*
X116955000Y-85852000D01*
D44*
X195254985Y-91376491D02*
X199572994Y-95694500D01*
X190753990Y-91376490D02*
X195254985Y-91376491D01*
X176022000Y-83248500D02*
X182626000Y-83248500D01*
X182626000Y-83248500D02*
X190753990Y-91376490D01*
D45*
X125222000Y-76136500D02*
X124904500Y-76454000D01*
X126746000Y-76136500D02*
X125222000Y-76136500D01*
X128143000Y-74739500D02*
X126746000Y-76136500D01*
X126619000Y-68770500D02*
X128143000Y-70294500D01*
X128143000Y-70294500D02*
X128143000Y-74739500D01*
D44*
X199572994Y-95694500D02*
X199890494Y-96012000D01*
X199890494Y-96012000D02*
X227774500Y-96012000D01*
X227774500Y-96012000D02*
X229679500Y-97917000D01*
X228624000Y-97917000D02*
X229679500Y-97917000D01*
D45*
X117765000Y-70064500D02*
X117360000Y-69659500D01*
X117765000Y-71226500D02*
X117765000Y-70064500D01*
X118415000Y-70104500D02*
X118860000Y-69659500D01*
X118415000Y-71226500D02*
X118415000Y-70104500D01*
X133548499Y-79839499D02*
X133973000Y-80264000D01*
X133548499Y-78697000D02*
X133548499Y-79839499D01*
X133973000Y-80264000D02*
X133973000Y-80327500D01*
X133973000Y-80327500D02*
X134100000Y-80454500D01*
X132898499Y-79814501D02*
X132461000Y-80252000D01*
X132898499Y-78697000D02*
X132898499Y-79814501D01*
X132473000Y-80264000D02*
X132473000Y-81546000D01*
X132473000Y-81546000D02*
X132969000Y-82042000D01*
X132969000Y-82042000D02*
X133413500Y-82042000D01*
X125087000Y-95004000D02*
X125142500Y-95059500D01*
X125087000Y-93307500D02*
X125087000Y-95004000D01*
X126504000Y-95059500D02*
X126873000Y-94690500D01*
X125142500Y-95059500D02*
X126504000Y-95059500D01*
D44*
X181815973Y-84899500D02*
X189943973Y-93027500D01*
X173672500Y-84899500D02*
X181815973Y-84899500D01*
X189943973Y-93027500D02*
X194571114Y-93027500D01*
X194571114Y-93027500D02*
X198698614Y-97155000D01*
D45*
X126873000Y-94690500D02*
X128091500Y-94690500D01*
X128091500Y-94690500D02*
X128143000Y-94742000D01*
D44*
X198698614Y-97155000D02*
X205429614Y-103886000D01*
X205429614Y-103886000D02*
X224726500Y-103886000D01*
X224726500Y-103886000D02*
X226695000Y-101917500D01*
X229124000Y-101917500D02*
X226695000Y-101917500D01*
D45*
X100175500Y-102576500D02*
X99770500Y-102171500D01*
X100175500Y-103738500D02*
X100175500Y-102576500D01*
X100825500Y-102616500D02*
X101270500Y-102171500D01*
X100825500Y-103738500D02*
X100825500Y-102616500D01*
X126454000Y-90207500D02*
X127254000Y-91007500D01*
X125587000Y-90207500D02*
X126454000Y-90207500D01*
X126936500Y-92825000D02*
X127254000Y-92507500D01*
X126936500Y-93154500D02*
X126936500Y-92825000D01*
X126783500Y-93307500D02*
X126936500Y-93154500D01*
X125587000Y-93307500D02*
X126783500Y-93307500D01*
X174803500Y-105664000D02*
X174156500Y-105664000D01*
X169533000Y-106680000D02*
X169533000Y-105676000D01*
X169533000Y-105676000D02*
X169545000Y-105664000D01*
X180038500Y-114363500D02*
X179832000Y-114157000D01*
X180542500Y-114363500D02*
X180038500Y-114363500D01*
X179832000Y-114157000D02*
X179832000Y-109918500D01*
X179729000Y-109815500D02*
X178498500Y-109815500D01*
X179832000Y-109918500D02*
X179729000Y-109815500D01*
X183630000Y-93281500D02*
X183630000Y-91821000D01*
X183445500Y-88594500D02*
X182816500Y-88594500D01*
X183630000Y-91821000D02*
X183630000Y-88779000D01*
X183630000Y-88779000D02*
X183445500Y-88594500D01*
X178968000Y-91544500D02*
X178943000Y-91519500D01*
X180190500Y-91544500D02*
X178968000Y-91544500D01*
X189369000Y-110426500D02*
X190119000Y-111176500D01*
X190119000Y-111176500D02*
X190119000Y-111950500D01*
X212915500Y-76061000D02*
X212915500Y-75374500D01*
X204147502Y-72644000D02*
X207177500Y-72644000D01*
X200948001Y-69444499D02*
X204147502Y-72644000D01*
X211316000Y-76327000D02*
X211316000Y-73279000D01*
X211621500Y-74561000D02*
X211316000Y-74866500D01*
X212915500Y-74561000D02*
X211621500Y-74561000D01*
D44*
X172709000Y-69100000D02*
X172656500Y-69152500D01*
X178752500Y-69100000D02*
X172709000Y-69100000D01*
D45*
X49022000Y-98667000D02*
X50482500Y-98667000D01*
X51966500Y-100993000D02*
X51557500Y-100584000D01*
X51966500Y-101597000D02*
X51966500Y-100993000D01*
X51557500Y-100584000D02*
X50800000Y-100584000D01*
X50482500Y-100266500D02*
X50482500Y-98667000D01*
X50800000Y-100584000D02*
X50482500Y-100266500D01*
X52416500Y-100993000D02*
X52416500Y-101597000D01*
X52416500Y-99858000D02*
X52416500Y-100993000D01*
X51879500Y-98667000D02*
X51879500Y-99321000D01*
X51879500Y-99321000D02*
X52416500Y-99858000D01*
X47256000Y-103695500D02*
X47256000Y-105156000D01*
X47256000Y-103695500D02*
X46580999Y-103695500D01*
X46580999Y-103695500D02*
X46009499Y-103124000D01*
X46009499Y-103124000D02*
X44053592Y-103124000D01*
X44053592Y-103124000D02*
X43717093Y-102787501D01*
X42960001Y-102787501D02*
X42750501Y-102997001D01*
X43717093Y-102787501D02*
X42960001Y-102787501D01*
X42750501Y-102997001D02*
X41850501Y-102997001D01*
X47256000Y-102171500D02*
X47256000Y-100711000D01*
X46580999Y-102171500D02*
X46009499Y-102743000D01*
X47256000Y-102171500D02*
X46580999Y-102171500D01*
X46009499Y-102743000D02*
X44211408Y-102743000D01*
X42750501Y-102197001D02*
X41850501Y-102197001D01*
X42960001Y-102406501D02*
X42750501Y-102197001D01*
X44211408Y-102743000D02*
X43874909Y-102406501D01*
X43874909Y-102406501D02*
X42960001Y-102406501D01*
X48026500Y-96146500D02*
X47053500Y-97119500D01*
X48026500Y-95567500D02*
X48026500Y-96146500D01*
X47053500Y-97119500D02*
X47053500Y-99377500D01*
X47256000Y-99580000D02*
X47256000Y-100711000D01*
X47053500Y-99377500D02*
X47256000Y-99580000D01*
D44*
X45720000Y-94881000D02*
X45720000Y-94724000D01*
X45720000Y-94724000D02*
X45826500Y-94617500D01*
D45*
X35433000Y-94602500D02*
X35418000Y-94617500D01*
X35433000Y-93789500D02*
X35433000Y-94602500D01*
X53766500Y-101597000D02*
X53766500Y-100221000D01*
X53766500Y-100221000D02*
X54673500Y-99314000D01*
X54673500Y-99314000D02*
X55562500Y-99314000D01*
X201930000Y-72263000D02*
X194119500Y-72263000D01*
X193328001Y-71471501D02*
X193328001Y-69444499D01*
X194119500Y-72263000D02*
X193328001Y-71471501D01*
X201422000Y-71628000D02*
X196278500Y-71628000D01*
X195868001Y-71217501D02*
X195868001Y-69444499D01*
X196278500Y-71628000D02*
X195868001Y-71217501D01*
X209816000Y-74866500D02*
X204470000Y-74866500D01*
X204470000Y-74866500D02*
X204152500Y-75184000D01*
X132238499Y-76497000D02*
X132898499Y-76497000D01*
X122531000Y-73902000D02*
X122756000Y-73902000D01*
X122127000Y-74306000D02*
X122531000Y-73902000D01*
X119170500Y-74306000D02*
X122127000Y-74306000D01*
X119075000Y-73426500D02*
X119075001Y-74210501D01*
X119075001Y-74210501D02*
X119170500Y-74306000D01*
X105420500Y-79703500D02*
X105420500Y-79299500D01*
X104817499Y-80306501D02*
X105420500Y-79703500D01*
X101739500Y-79522500D02*
X101739501Y-80306501D01*
X101739501Y-80306501D02*
X104817499Y-80306501D01*
X216852500Y-74993500D02*
X217602500Y-74993500D01*
X173164500Y-93218000D02*
X173164500Y-93345000D01*
X175790500Y-92844500D02*
X173538000Y-92844500D01*
X173538000Y-92844500D02*
X173164500Y-93218000D01*
X96757499Y-81301000D02*
X96778499Y-81280000D01*
X96757499Y-82085000D02*
X96757499Y-81301000D01*
X100765994Y-81280008D02*
X101739501Y-80306501D01*
X100329180Y-81280008D02*
X100765994Y-81280008D01*
X96778499Y-81280000D02*
X100329172Y-81280000D01*
X100329172Y-81280000D02*
X100329180Y-81280008D01*
X112244501Y-109899499D02*
X110216999Y-109899499D01*
X107569000Y-107251500D02*
X101663500Y-107251500D01*
X101485500Y-107073500D02*
X101485500Y-105938500D01*
X101663500Y-107251500D02*
X101485500Y-107073500D01*
X108775500Y-108458000D02*
X107823000Y-108458000D01*
X109029500Y-108712000D02*
X108775500Y-108458000D01*
X109029500Y-108712000D02*
X107569000Y-107251500D01*
X110216999Y-109899499D02*
X109029500Y-108712000D01*
X107696000Y-106235500D02*
X110236000Y-103695500D01*
X110236000Y-103695500D02*
X110236000Y-90932000D01*
X110236000Y-90932000D02*
X110236000Y-81915000D01*
X110236000Y-81915000D02*
X111506000Y-80645000D01*
X111506000Y-80645000D02*
X114046000Y-80645000D01*
X114478000Y-81077000D02*
X114478000Y-82021500D01*
X114046000Y-80645000D02*
X114478000Y-81077000D01*
X111506000Y-80645000D02*
X111506000Y-77025500D01*
X111506000Y-77025500D02*
X112585500Y-75946000D01*
X112585500Y-75946000D02*
X118300500Y-75946000D01*
X119075001Y-75171499D02*
X119075001Y-74210501D01*
X118300500Y-75946000D02*
X119075001Y-75171499D01*
X70790000Y-74020500D02*
X70790000Y-68694500D01*
X70790000Y-68694500D02*
X69215000Y-67119500D01*
X67476499Y-71894000D02*
X68377500Y-71894000D01*
X68377500Y-71894000D02*
X68770500Y-71501000D01*
X68770500Y-68008500D02*
X67881500Y-67119500D01*
X68770500Y-71501000D02*
X68770500Y-68008500D01*
X69215000Y-67119500D02*
X67881500Y-67119500D01*
X83134000Y-80975000D02*
X83134000Y-78951000D01*
X83566000Y-81407000D02*
X83134000Y-80975000D01*
X86751500Y-79299500D02*
X86751500Y-79703500D01*
X86751500Y-79703500D02*
X85048000Y-81407000D01*
X108648500Y-92519500D02*
X110236000Y-90932000D01*
X75819000Y-86169500D02*
X82169000Y-92519500D01*
X63182500Y-86169500D02*
X75819000Y-86169500D01*
X63817500Y-86169500D02*
X63182500Y-86169500D01*
X64135000Y-86487000D02*
X63817500Y-86169500D01*
X62738000Y-86169500D02*
X63182500Y-86169500D01*
X56959500Y-86169500D02*
X62738000Y-86169500D01*
X56261000Y-85471000D02*
X56959500Y-86169500D01*
X56261000Y-68961000D02*
X56261000Y-85471000D01*
X67881500Y-67119500D02*
X58102500Y-67119500D01*
X58102500Y-67119500D02*
X56261000Y-68961000D01*
X69811899Y-81953101D02*
X69596000Y-82169000D01*
X83566000Y-81407000D02*
X70358000Y-81407000D01*
X70358000Y-81407000D02*
X69811899Y-81953101D01*
X137795000Y-86550500D02*
X154178000Y-86550500D01*
X96757499Y-82085000D02*
X96097499Y-82085000D01*
X85048000Y-81407000D02*
X83566000Y-81407000D01*
X101485172Y-92519500D02*
X101663500Y-92519500D01*
X101092000Y-92912672D02*
X101485172Y-92519500D01*
X101092000Y-93218000D02*
X101092000Y-92912672D01*
X82169000Y-92519500D02*
X101663500Y-92519500D01*
X101663500Y-92519500D02*
X108648500Y-92519500D01*
X136652000Y-87693500D02*
X137795000Y-86550500D01*
X155702000Y-86550500D02*
X154178000Y-86550500D01*
X135890000Y-84645500D02*
X137795000Y-86550500D01*
X135890000Y-77279500D02*
X135890000Y-84645500D01*
X134175500Y-75565000D02*
X135890000Y-77279500D01*
X133046499Y-75565000D02*
X134175500Y-75565000D01*
X132898499Y-76497000D02*
X132898499Y-75713000D01*
X132898499Y-75713000D02*
X133046499Y-75565000D01*
X135826500Y-88519000D02*
X136652000Y-87693500D01*
X119570500Y-88519000D02*
X135826500Y-88519000D01*
X124087000Y-89628500D02*
X124180500Y-89535000D01*
X124087000Y-90207500D02*
X124087000Y-89628500D01*
X124180500Y-89535000D02*
X135086864Y-89535000D01*
X112268000Y-88900000D02*
X119189500Y-88900000D01*
X119189500Y-88900000D02*
X119570500Y-88519000D01*
X110236000Y-90932000D02*
X112268000Y-88900000D01*
X135826500Y-88795364D02*
X135826500Y-88519000D01*
X135086864Y-89535000D02*
X135826500Y-88795364D01*
X175790500Y-92844500D02*
X177030500Y-92844500D01*
X177030500Y-92844500D02*
X177990500Y-91884500D01*
X177990500Y-91884500D02*
X177990500Y-89027000D01*
X177990500Y-89027000D02*
X176339500Y-87376000D01*
X176339500Y-87376000D02*
X173545500Y-87376000D01*
X202311000Y-72961500D02*
X203136500Y-73787000D01*
X197104000Y-72961500D02*
X202311000Y-72961500D01*
X216852500Y-76454000D02*
X216852500Y-74993500D01*
X203136500Y-73787000D02*
X203136500Y-75565000D01*
X203136500Y-75565000D02*
X205041500Y-77470000D01*
X205041500Y-77470000D02*
X215836500Y-77470000D01*
X215836500Y-77470000D02*
X216852500Y-76454000D01*
X220666500Y-68516500D02*
X220662999Y-68520001D01*
X221996000Y-68516500D02*
X220666500Y-68516500D01*
X86122500Y-78799500D02*
X86751500Y-78799500D01*
X86122499Y-79255001D02*
X86122500Y-78799500D01*
X84542001Y-79255001D02*
X86122499Y-79255001D01*
X83784000Y-78951000D02*
X84238000Y-78951000D01*
X84238000Y-78951000D02*
X84542001Y-79255001D01*
X122127000Y-73402000D02*
X122756000Y-73402000D01*
X121798499Y-73730501D02*
X122127000Y-73402000D01*
X120483001Y-73730501D02*
X121798499Y-73730501D01*
X119725000Y-73426500D02*
X120179000Y-73426500D01*
X120179000Y-73426500D02*
X120483001Y-73730501D01*
X102389500Y-78738500D02*
X102389500Y-79522500D01*
X101079500Y-79522500D02*
X101079501Y-78738499D01*
X101079501Y-78738499D02*
X102389500Y-78738500D01*
X119725000Y-72889298D02*
X119416202Y-72580500D01*
X119725000Y-73426500D02*
X119725000Y-72889298D01*
X104791500Y-78799500D02*
X105420500Y-78799500D01*
X104791499Y-79562703D02*
X104791500Y-78799500D01*
X104527701Y-79826501D02*
X104791499Y-79562703D01*
X103147501Y-79826501D02*
X104527701Y-79826501D01*
X102389500Y-79522500D02*
X102843500Y-79522500D01*
X102843500Y-79522500D02*
X103147501Y-79826501D01*
X102135500Y-105154500D02*
X102135500Y-105938500D01*
X102073500Y-105092500D02*
X102135500Y-105154500D01*
X100887500Y-105092500D02*
X102073500Y-105092500D01*
X100825500Y-105154500D02*
X100887500Y-105092500D01*
X100825500Y-105938500D02*
X100825500Y-105154500D01*
X216852500Y-73469500D02*
X217602500Y-73469500D01*
X175790500Y-92194500D02*
X173474500Y-92194500D01*
X173474500Y-92194500D02*
X173101000Y-91821000D01*
X95447499Y-81273001D02*
X95447499Y-82085000D01*
X95821500Y-80899000D02*
X95447499Y-81273001D01*
X100487000Y-80899000D02*
X95821500Y-80899000D01*
X101079500Y-79522500D02*
X101079500Y-80306500D01*
X101079500Y-80306500D02*
X100487000Y-80899000D01*
X110288499Y-109399499D02*
X107696000Y-106807000D01*
X102589500Y-105938500D02*
X102135500Y-105938500D01*
X107696000Y-106807000D02*
X103458000Y-106807000D01*
X103458000Y-106807000D02*
X102589500Y-105938500D01*
X111240999Y-109399499D02*
X111240999Y-109272499D01*
X111240999Y-109399499D02*
X110288499Y-109399499D01*
X112244501Y-109399499D02*
X111240999Y-109399499D01*
X111240999Y-109272499D02*
X110934500Y-108966000D01*
X110934500Y-91440000D02*
X112712500Y-89662000D01*
X123183000Y-90207500D02*
X123587000Y-90207500D01*
X112712500Y-89662000D02*
X122637500Y-89662000D01*
X122637500Y-89662000D02*
X123183000Y-90207500D01*
X110934500Y-93154500D02*
X111442500Y-92646500D01*
X110934500Y-93916500D02*
X110934500Y-93154500D01*
X110934500Y-93916500D02*
X110934500Y-91440000D01*
X110934500Y-108966000D02*
X110934500Y-93916500D01*
X110807500Y-89471500D02*
X110807500Y-82169000D01*
X110807500Y-82169000D02*
X111569500Y-81407000D01*
X113374000Y-82021500D02*
X113828000Y-82021500D01*
X111569500Y-81407000D02*
X112759500Y-81407000D01*
X112759500Y-81407000D02*
X113374000Y-82021500D01*
X112759500Y-81407000D02*
X113093500Y-81407000D01*
X113093500Y-81407000D02*
X113284000Y-81216500D01*
X114744500Y-80454500D02*
X114744500Y-77597000D01*
X114744500Y-77597000D02*
X115824000Y-76517500D01*
X115824000Y-76517500D02*
X117729000Y-76517500D01*
X117729000Y-76517500D02*
X118046500Y-76835000D01*
X117741172Y-75438000D02*
X117030500Y-74727328D01*
X118046500Y-75438000D02*
X117741172Y-75438000D01*
X117030500Y-72961500D02*
X117411500Y-72580500D01*
X117030500Y-74727328D02*
X117030500Y-72961500D01*
X119416202Y-72580500D02*
X117411500Y-72580500D01*
X70140000Y-74020500D02*
X70140000Y-72934000D01*
X69600000Y-72394000D02*
X67476499Y-72394000D01*
X70140000Y-72934000D02*
X69600000Y-72394000D01*
X70140000Y-68870000D02*
X69723000Y-68453000D01*
X70140000Y-72934000D02*
X70140000Y-68870000D01*
X82677000Y-91821000D02*
X108331000Y-91821000D01*
X75946000Y-85090000D02*
X82677000Y-91821000D01*
X56896000Y-69469000D02*
X56896000Y-84836000D01*
X58039000Y-68326000D02*
X56896000Y-69469000D01*
X56896000Y-84836000D02*
X57150000Y-85090000D01*
X68072000Y-68326000D02*
X58039000Y-68326000D01*
X108331000Y-91821000D02*
X109664500Y-90487500D01*
X86122499Y-79255001D02*
X86122499Y-79295001D01*
X86122499Y-79295001D02*
X84518500Y-80899000D01*
X83502500Y-81915000D02*
X70548500Y-81915000D01*
X70548500Y-81915000D02*
X69024500Y-83439000D01*
X69024500Y-83439000D02*
X69024500Y-83502500D01*
X57150000Y-85090000D02*
X67310000Y-85090000D01*
X67310000Y-85090000D02*
X75946000Y-85090000D01*
X67373500Y-85090000D02*
X67310000Y-85090000D01*
X67881500Y-85445600D02*
X67729100Y-85445600D01*
X67729100Y-85445600D02*
X67373500Y-85090000D01*
X95821500Y-80899000D02*
X86360000Y-80899000D01*
X86360000Y-80899000D02*
X85979000Y-81280000D01*
X204660500Y-78041500D02*
X214249000Y-78041500D01*
X202501500Y-75882500D02*
X204660500Y-78041500D01*
X202501500Y-74295000D02*
X202501500Y-75882500D01*
X201803000Y-73596500D02*
X202501500Y-74295000D01*
X196723000Y-73596500D02*
X201803000Y-73596500D01*
X156083000Y-85788500D02*
X157670500Y-87376000D01*
X136398000Y-84137500D02*
X138049000Y-85788500D01*
X131588499Y-75713000D02*
X132307999Y-74993500D01*
X132307999Y-74993500D02*
X134810500Y-74993500D01*
X131588499Y-76497000D02*
X131588499Y-75713000D01*
X134810500Y-74993500D02*
X136398000Y-76581000D01*
X138049000Y-85788500D02*
X156083000Y-85788500D01*
X136398000Y-76581000D02*
X136398000Y-84137500D01*
X172021500Y-92900500D02*
X172021500Y-99008672D01*
X172021500Y-99008672D02*
X172021500Y-99314000D01*
X173101000Y-91821000D02*
X172021500Y-92900500D01*
X122999500Y-89662000D02*
X123672590Y-88988910D01*
X134632172Y-88988910D02*
X134937500Y-88988910D01*
X123672590Y-88988910D02*
X134632172Y-88988910D01*
X122637500Y-89662000D02*
X122999500Y-89662000D01*
X70294500Y-103378000D02*
X70294500Y-101473000D01*
X70294500Y-101473000D02*
X68135500Y-99314000D01*
X214249000Y-78041500D02*
X215011000Y-78041500D01*
X215011000Y-78041500D02*
X216281000Y-78041500D01*
X216281000Y-78041500D02*
X217424000Y-76898500D01*
X217424000Y-76898500D02*
X217424000Y-76073000D01*
X220667498Y-69024500D02*
X220662999Y-69020001D01*
X221615000Y-69024500D02*
X220667498Y-69024500D01*
X67639500Y-105918000D02*
X67576000Y-105981500D01*
X68326000Y-105918000D02*
X67639500Y-105918000D01*
X172085000Y-90043000D02*
X172021500Y-90106500D01*
X174244000Y-90043000D02*
X172085000Y-90043000D01*
X78295500Y-109410500D02*
X77851000Y-109855000D01*
X104711500Y-109410500D02*
X78295500Y-109410500D01*
X142303500Y-113919000D02*
X109220000Y-113919000D01*
X109220000Y-113919000D02*
X104711500Y-109410500D01*
X68389500Y-107442000D02*
X67576000Y-107442000D01*
X68389500Y-107442000D02*
X68389500Y-109601000D01*
X68389500Y-109601000D02*
X69024500Y-110236000D01*
X174244000Y-89217500D02*
X172085000Y-89217500D01*
X172085000Y-89217500D02*
X172021500Y-89281000D01*
X69024500Y-110236000D02*
X71437500Y-110236000D01*
X71596250Y-110236000D02*
X71437500Y-110236000D01*
X72993250Y-108839000D02*
X71596250Y-110236000D01*
X105410000Y-108839000D02*
X72993250Y-108839000D01*
X109943899Y-113372899D02*
X105410000Y-108839000D01*
X141986000Y-113157000D02*
X141770101Y-113372899D01*
X141770101Y-113372899D02*
X109943899Y-113372899D01*
X71437500Y-110236000D02*
X71628000Y-110236000D01*
X71628000Y-110236000D02*
X72834500Y-111442500D01*
X72834500Y-111442500D02*
X72834500Y-113601500D01*
X222567500Y-88963500D02*
X222567500Y-93002108D01*
X225983800Y-85547200D02*
X222567500Y-88963500D01*
X229933500Y-85534500D02*
X229920800Y-85547200D01*
X229920800Y-85547200D02*
X225983800Y-85547200D01*
X225996500Y-86360000D02*
X229628162Y-86360000D01*
X223202500Y-89154000D02*
X225996500Y-86360000D01*
X229628162Y-86360000D02*
X229933490Y-86360000D01*
X223202500Y-93091000D02*
X223202500Y-89154000D01*
X223774000Y-92837000D02*
X223774000Y-89852500D01*
X223774000Y-89852500D02*
X223774000Y-89471500D01*
X223774000Y-89471500D02*
X226123500Y-87122000D01*
X226123500Y-87122000D02*
X229933500Y-87122000D01*
X224409000Y-93027500D02*
X224409000Y-89598500D01*
X224409000Y-89598500D02*
X226060000Y-87947500D01*
X226060000Y-87947500D02*
X229933500Y-87947500D01*
X224980500Y-92685900D02*
X224980500Y-90043000D01*
X224980500Y-90043000D02*
X226250500Y-88773000D01*
X226250500Y-88773000D02*
X229933500Y-88773000D01*
X225552000Y-92646500D02*
X225552000Y-90424000D01*
X225552000Y-90424000D02*
X226441000Y-89535000D01*
X226441000Y-89535000D02*
X229933500Y-89535000D01*
X226123500Y-92265500D02*
X226123500Y-91059000D01*
X226123500Y-91059000D02*
X226822000Y-90360500D01*
X226822000Y-90360500D02*
X229933500Y-90360500D01*
X226695000Y-91579172D02*
X227024672Y-91249500D01*
X226695000Y-91884500D02*
X226695000Y-91579172D01*
X227024672Y-91249500D02*
X227151672Y-91122500D01*
X227151672Y-91122500D02*
X229933500Y-91122500D01*
X226123500Y-73469500D02*
X225373500Y-73469500D01*
X225373500Y-74993500D02*
X226123500Y-74993500D01*
X60706000Y-82232500D02*
X64516000Y-82232500D01*
X64516000Y-82232500D02*
X64579500Y-82169000D01*
X81978500Y-84026500D02*
X81028500Y-84026500D01*
X81028500Y-84026500D02*
X80978500Y-84076500D01*
X82728500Y-86126500D02*
X82628500Y-86026500D01*
X82728500Y-87566500D02*
X82728500Y-86126500D01*
X82628500Y-86026500D02*
X82628500Y-84503500D01*
X82628500Y-84503500D02*
X83693000Y-83439000D01*
X83693000Y-83439000D02*
X85598000Y-83439000D01*
X85598000Y-83439000D02*
X86106000Y-82931000D01*
X86106000Y-82931000D02*
X86106000Y-82296000D01*
X86106000Y-82296000D02*
X86804500Y-81597500D01*
X86804500Y-81597500D02*
X87439500Y-81597500D01*
X168033000Y-106680000D02*
X168418000Y-106680000D01*
X168418000Y-106680000D02*
X168783000Y-106315000D01*
X166727000Y-102703500D02*
X166727000Y-106680000D01*
X167322500Y-102108000D02*
X166727000Y-102703500D01*
X174403671Y-102108000D02*
X167322500Y-102108000D01*
X192341500Y-94678500D02*
X190881000Y-96139000D01*
X193929000Y-94678500D02*
X192341500Y-94678500D01*
X190881000Y-96139000D02*
X190881000Y-97599500D01*
X190881000Y-97599500D02*
X189357000Y-99123500D01*
X189357000Y-99123500D02*
X177388171Y-99123500D01*
X177388171Y-99123500D02*
X174403671Y-102108000D01*
X100711000Y-83836000D02*
X99761000Y-83836000D01*
X99761000Y-83836000D02*
X99711000Y-83886000D01*
X101461000Y-85936000D02*
X101361000Y-85836000D01*
X101461000Y-87376000D02*
X101461000Y-85936000D01*
X101361000Y-85232000D02*
X101790500Y-84802500D01*
X101361000Y-85836000D02*
X101361000Y-85232000D01*
X101790500Y-84802500D02*
X101790500Y-81851500D01*
X101790500Y-81851500D02*
X102616000Y-81026000D01*
X102616000Y-81026000D02*
X106108500Y-81026000D01*
X191074731Y-83835413D02*
X189875215Y-82635897D01*
X189875215Y-82635897D02*
X189314055Y-82635897D01*
X189314055Y-82635897D02*
X188646381Y-82635897D01*
X188646381Y-82635897D02*
X185893446Y-79882961D01*
X171453726Y-79882961D02*
X170624500Y-80712188D01*
X185893446Y-79882961D02*
X171453726Y-79882961D01*
X169828089Y-81508599D02*
X167409053Y-81508599D01*
X170624500Y-80712188D02*
X169828089Y-81508599D01*
X165457947Y-81508599D02*
X164670576Y-82295970D01*
X167409053Y-81508599D02*
X165457947Y-81508599D01*
X164670576Y-82295970D02*
X145855782Y-82295970D01*
X145855782Y-82295970D02*
X144907040Y-81347228D01*
X144907040Y-81347228D02*
X144907040Y-81089460D01*
X144907040Y-81089460D02*
X145034000Y-80962500D01*
X101473000Y-87388000D02*
X101461000Y-87376000D01*
X101473000Y-88709500D02*
X101473000Y-87388000D01*
X117919500Y-87947500D02*
X112204500Y-87947500D01*
X112204500Y-87947500D02*
X111506000Y-88646000D01*
X121412000Y-84455000D02*
X117919500Y-87947500D01*
X135039101Y-81178399D02*
X135039101Y-81368899D01*
X135255000Y-80962500D02*
X135039101Y-81178399D01*
X135039101Y-81368899D02*
X133794500Y-82613500D01*
X133794500Y-82613500D02*
X127508000Y-82613500D01*
X127508000Y-82613500D02*
X125666500Y-84455000D01*
X125666500Y-84455000D02*
X121412000Y-84455000D01*
X168033000Y-103187500D02*
X168033000Y-103064500D01*
X168033000Y-103064500D02*
X168338500Y-102759000D01*
X118796500Y-80538500D02*
X118696500Y-80438500D01*
X118796500Y-81978500D02*
X118796500Y-80538500D01*
X118696500Y-80313500D02*
X119570500Y-79439500D01*
X118696500Y-80438500D02*
X118696500Y-80313500D01*
X119570500Y-79439500D02*
X119570500Y-76263500D01*
X119570500Y-76263500D02*
X120078500Y-75755500D01*
X120078500Y-75755500D02*
X123317000Y-75755500D01*
X123317000Y-75755500D02*
X123444000Y-75628500D01*
X189674500Y-84074000D02*
X188998417Y-83397917D01*
X188998417Y-83397917D02*
X188330745Y-83397917D01*
X188330745Y-83397917D02*
X185577809Y-80644980D01*
X171132500Y-81281841D02*
X171132500Y-81281844D01*
X185577809Y-80644980D02*
X171769360Y-80644981D01*
X171769360Y-80644981D02*
X171132500Y-81281841D01*
X171132500Y-81281844D02*
X169356354Y-83057990D01*
X169356354Y-83057990D02*
X145540146Y-83057990D01*
X145540146Y-83057990D02*
X144145020Y-81662864D01*
X144145020Y-81662864D02*
X144145020Y-77977980D01*
X144145020Y-77977980D02*
X144970500Y-77152500D01*
X144970500Y-77152500D02*
X144970500Y-75438000D01*
X144970500Y-75438000D02*
X144907000Y-75374500D01*
X144907000Y-75374500D02*
X143954500Y-75374500D01*
X125793500Y-83185000D02*
X127889000Y-81089500D01*
X129857500Y-74041000D02*
X135064500Y-74041000D01*
X118796500Y-81978500D02*
X119300500Y-81978500D01*
X135064500Y-74041000D02*
X137477500Y-76454000D01*
X142532101Y-75590399D02*
X142748000Y-75374500D01*
X141668500Y-76454000D02*
X142532101Y-75590399D01*
X120507000Y-83185000D02*
X125793500Y-83185000D01*
X119300500Y-81978500D02*
X120507000Y-83185000D01*
X127889000Y-76009500D02*
X129857500Y-74041000D01*
X137477500Y-76454000D02*
X141668500Y-76454000D01*
X127889000Y-81089500D02*
X127889000Y-76009500D01*
X118046500Y-78438500D02*
X117096500Y-78438500D01*
X117096500Y-78438500D02*
X117046500Y-78488500D01*
X193103500Y-96253828D02*
X192214500Y-97142828D01*
X193103500Y-95948500D02*
X193103500Y-96253828D01*
X192214500Y-97142828D02*
X192214500Y-106426000D01*
X190869000Y-107771500D02*
X190869000Y-108521500D01*
X192214500Y-106426000D02*
X190869000Y-107771500D01*
X190869000Y-110426500D02*
X190869000Y-110351000D01*
X190869000Y-110351000D02*
X190119000Y-109601000D01*
X190869000Y-113665000D02*
X190869000Y-113788000D01*
X190869000Y-113788000D02*
X190563500Y-114093500D01*
X209297000Y-70294500D02*
X209916000Y-69675500D01*
X208204500Y-70294500D02*
X209297000Y-70294500D01*
X209816000Y-69575500D02*
X209916000Y-69675500D01*
X209816000Y-68135500D02*
X209816000Y-69575500D01*
X209816000Y-72425500D02*
X210566000Y-71675500D01*
X209816000Y-73279000D02*
X209816000Y-72425500D01*
X195770500Y-112442500D02*
X195806500Y-112442500D01*
X195806500Y-112442500D02*
X195895500Y-112353500D01*
X195020500Y-108966000D02*
X195020500Y-107505500D01*
X195020500Y-110342500D02*
X195120500Y-110442500D01*
X195020500Y-108966000D02*
X195020500Y-110342500D01*
X59690000Y-82232500D02*
X59245500Y-81788000D01*
X59245500Y-78041500D02*
X59372500Y-78041500D01*
X59245500Y-78041500D02*
X59245500Y-76390500D01*
X59245500Y-81788000D02*
X59245500Y-78041500D01*
X59372500Y-78041500D02*
X61658500Y-75755500D01*
X61658500Y-75755500D02*
X61658500Y-70548500D01*
X61658500Y-70548500D02*
X62293500Y-69913500D01*
X62293500Y-69913500D02*
X63754000Y-69913500D01*
X81228500Y-87566500D02*
X79883000Y-87566500D01*
X79883000Y-87566500D02*
X76581000Y-84264500D01*
X62357000Y-84264500D02*
X62166500Y-84074000D01*
X88011000Y-98298000D02*
X87693500Y-97980500D01*
X87693500Y-97980500D02*
X70294500Y-97980500D01*
X70040500Y-84264500D02*
X69977000Y-84264500D01*
X70802500Y-83502500D02*
X70040500Y-84264500D01*
X76581000Y-84264500D02*
X69977000Y-84264500D01*
X69977000Y-84264500D02*
X62357000Y-84264500D01*
X178181000Y-87185500D02*
X177419000Y-86423500D01*
X177419000Y-86423500D02*
X162687000Y-86423500D01*
X162687000Y-86423500D02*
X156210000Y-92900500D01*
X156210000Y-92900500D02*
X135572500Y-92900500D01*
X135572500Y-92900500D02*
X132397500Y-92900500D01*
X132397500Y-92900500D02*
X130175000Y-90678000D01*
X119539671Y-88011000D02*
X119031671Y-88519000D01*
X130175000Y-88011000D02*
X119539671Y-88011000D01*
X119031671Y-88519000D02*
X114236500Y-88519000D01*
X114236500Y-88519000D02*
X114236500Y-88430100D01*
X108394500Y-93472000D02*
X106934000Y-94932500D01*
X106934000Y-94932500D02*
X90932000Y-94932500D01*
X90932000Y-94932500D02*
X89471500Y-96393000D01*
X122110500Y-114871500D02*
X99352100Y-114871500D01*
X99352100Y-114871500D02*
X99314000Y-114909600D01*
X98361500Y-100520500D02*
X88709500Y-100520500D01*
X178498500Y-95821500D02*
X182626000Y-95821500D01*
X182626000Y-95821500D02*
X185039000Y-93408500D01*
X159702500Y-110998000D02*
X160908980Y-109791520D01*
X158305500Y-110998000D02*
X159702500Y-110998000D01*
X160908980Y-109791520D02*
X160908980Y-102714033D01*
X160908980Y-102714033D02*
X163922024Y-99700989D01*
X163922024Y-99700989D02*
X171138489Y-99700989D01*
X173799500Y-100520500D02*
X178498500Y-95821500D01*
X171958000Y-100520500D02*
X173799500Y-100520500D01*
X171138489Y-99700989D02*
X171958000Y-100520500D01*
X100647500Y-93980000D02*
X101727000Y-93980000D01*
X90614500Y-93980000D02*
X100647500Y-93980000D01*
X88709500Y-100520500D02*
X88709500Y-95885000D01*
X88709500Y-95885000D02*
X90614500Y-93980000D01*
X190331887Y-82254887D02*
X190033034Y-82254887D01*
X191579500Y-83502500D02*
X190331887Y-82254887D01*
X190033034Y-82254887D02*
X188804199Y-82254887D01*
X188804199Y-82254887D02*
X186051265Y-79501951D01*
X171295907Y-79501951D02*
X170243500Y-80554360D01*
X186051265Y-79501951D02*
X171295907Y-79501951D01*
X170243500Y-80554360D02*
X169670271Y-81127589D01*
X165300128Y-81127589D02*
X165076937Y-81350780D01*
X169670271Y-81127589D02*
X165300128Y-81127589D01*
X165076937Y-81350780D02*
X164512757Y-81914960D01*
X164512757Y-81914960D02*
X146176960Y-81914960D01*
X146176960Y-81914960D02*
X145732500Y-81470500D01*
X135191500Y-82042000D02*
X134175500Y-83058000D01*
X127602328Y-83058000D02*
X125824319Y-84836010D01*
X127825500Y-83058000D02*
X127602328Y-83058000D01*
X125824319Y-84836010D02*
X122364490Y-84836010D01*
X122364490Y-84836010D02*
X121983500Y-85217000D01*
X88900000Y-103568500D02*
X97028000Y-103568500D01*
X97028000Y-103568500D02*
X98488500Y-105029000D01*
X98488500Y-105029000D02*
X98488500Y-106934000D01*
X98488500Y-106934000D02*
X99377500Y-107823000D01*
X99377500Y-107823000D02*
X105981500Y-107823000D01*
X105981500Y-107823000D02*
X106362500Y-107823000D01*
X110236000Y-111696500D02*
X110998000Y-112458500D01*
X110236000Y-111696500D02*
X110299500Y-111760000D01*
X106362500Y-107823000D02*
X110236000Y-111696500D01*
X110998000Y-112458500D02*
X122428000Y-112458500D01*
X132207000Y-83756500D02*
X131508500Y-83058000D01*
X132207000Y-87884000D02*
X132207000Y-83756500D01*
X134175500Y-83058000D02*
X131508500Y-83058000D01*
X131508500Y-83058000D02*
X127825500Y-83058000D01*
X189442907Y-83016907D02*
X189156236Y-83016907D01*
X190500000Y-84074000D02*
X189442907Y-83016907D01*
X189156236Y-83016907D02*
X188488563Y-83016907D01*
X188488563Y-83016907D02*
X185735627Y-80263971D01*
X171611545Y-80263971D02*
X170974680Y-80900836D01*
X185735627Y-80263971D02*
X171611545Y-80263971D01*
X170974680Y-80900836D02*
X169198536Y-82676980D01*
X169198536Y-82676980D02*
X146812000Y-82676980D01*
X146812000Y-82676980D02*
X145697964Y-82676980D01*
X145697964Y-82676980D02*
X144526030Y-81505046D01*
X144526030Y-78135798D02*
X145351510Y-77310319D01*
X145351510Y-77310319D02*
X145351510Y-74422010D01*
X145351510Y-74422010D02*
X143129000Y-72199500D01*
X143129000Y-72199500D02*
X135826500Y-72199500D01*
X135826500Y-72199500D02*
X133159500Y-69532500D01*
X133159500Y-69532500D02*
X132207000Y-69532500D01*
X89344500Y-109982000D02*
X104330500Y-109982000D01*
X104330500Y-109982000D02*
X107823000Y-113474500D01*
X107823000Y-113474500D02*
X107823000Y-113538000D01*
X144526030Y-79184530D02*
X144526030Y-79120970D01*
X145923000Y-80581500D02*
X144526030Y-79184530D01*
X144526030Y-81505046D02*
X144526030Y-79120970D01*
X144526030Y-79120970D02*
X144526030Y-78135798D01*
X126873000Y-96190500D02*
X126873000Y-97484500D01*
X126523000Y-97134500D02*
X126873000Y-97484500D01*
X125219500Y-97134500D02*
X126523000Y-97134500D01*
X126873000Y-98984500D02*
X126873000Y-100278500D01*
X126523000Y-99334500D02*
X126873000Y-98984500D01*
X125219500Y-99334500D02*
X126523000Y-99334500D01*
X177517025Y-97916992D02*
X174088036Y-101345981D01*
X174088036Y-101345981D02*
X163354692Y-101345980D01*
X186372500Y-94043500D02*
X185706656Y-94043500D01*
X122389899Y-110324899D02*
X122174000Y-110109000D01*
X185706656Y-94043500D02*
X181833164Y-97916992D01*
X181833164Y-97916992D02*
X177517025Y-97916992D01*
X124231402Y-112166402D02*
X122389899Y-110324899D01*
X161671001Y-103029671D02*
X161671001Y-110205173D01*
X159709772Y-112166402D02*
X124231402Y-112166402D01*
X163354692Y-101345980D02*
X161671001Y-103029671D01*
X161671001Y-110205173D02*
X159709772Y-112166402D01*
X123011500Y-99642500D02*
X123319500Y-99334500D01*
X123011500Y-100965000D02*
X123011500Y-99642500D01*
X91059000Y-108331000D02*
X89408000Y-106680000D01*
X110490000Y-112966500D02*
X105854500Y-108331000D01*
X105854500Y-108331000D02*
X91059000Y-108331000D01*
X121158000Y-110045500D02*
X121158000Y-104775000D01*
X123659913Y-112547413D02*
X121158000Y-110045500D01*
X121158000Y-104775000D02*
X123011500Y-102921500D01*
X159867591Y-112547413D02*
X123659913Y-112547413D01*
X162052012Y-110362992D02*
X159867591Y-112547413D01*
X162052012Y-103187490D02*
X162052012Y-110362992D01*
X163512511Y-101726991D02*
X162052012Y-103187490D01*
X184276997Y-97028003D02*
X183260999Y-97028003D01*
X186880500Y-94424500D02*
X184276997Y-97028003D01*
X183260999Y-97028003D02*
X181990999Y-98298003D01*
X123011500Y-102921500D02*
X123011500Y-100965000D01*
X181990999Y-98298003D02*
X177674844Y-98298003D01*
X177674844Y-98298003D02*
X174245854Y-101726991D01*
X174245854Y-101726991D02*
X163512511Y-101726991D01*
X123240826Y-112966500D02*
X122618500Y-112966500D01*
X123659913Y-112547413D02*
X123240826Y-112966500D01*
X122618500Y-112966500D02*
X110490000Y-112966500D01*
X127825500Y-103060500D02*
X127825500Y-104902000D01*
X127825500Y-104902000D02*
X126174500Y-106553000D01*
X171716000Y-110553500D02*
X171259500Y-110097000D01*
X172212000Y-110553500D02*
X171716000Y-110553500D01*
X171259500Y-111200500D02*
X171259500Y-110097000D01*
X172200000Y-105664000D02*
X173303500Y-105664000D01*
X177165000Y-108648500D02*
X173863000Y-108648500D01*
X173303500Y-108089000D02*
X173303500Y-105664000D01*
X173863000Y-108648500D02*
X173303500Y-108089000D01*
X177863500Y-106922000D02*
X177863500Y-106098001D01*
X177863500Y-106098001D02*
X177896001Y-106065500D01*
X190575672Y-99441000D02*
X189813672Y-100203000D01*
X190881000Y-99441000D02*
X190575672Y-99441000D01*
X189813672Y-100203000D02*
X186753500Y-100203000D01*
X186753500Y-100203000D02*
X186309000Y-100647500D01*
X186309000Y-100647500D02*
X186309000Y-105283000D01*
X185526500Y-106065500D02*
X177896001Y-106065500D01*
X186309000Y-105283000D02*
X185526500Y-106065500D01*
X185928000Y-115570000D02*
X175831500Y-115570000D01*
X175831500Y-115570000D02*
X175450500Y-115189000D01*
X175450500Y-115189000D02*
X175450500Y-112458500D01*
X175450500Y-112458500D02*
X175577500Y-112331500D01*
X175260000Y-115379500D02*
X175450500Y-115189000D01*
X173101000Y-115379500D02*
X175260000Y-115379500D01*
X191808099Y-111214427D02*
X191808099Y-112052099D01*
X191579500Y-110680500D02*
X191579500Y-110985828D01*
X191579500Y-110985828D02*
X191808099Y-111214427D01*
X191808099Y-112052099D02*
X192151000Y-112395000D01*
X192151000Y-112395000D02*
X192151000Y-114490500D01*
X192151000Y-114490500D02*
X191770000Y-114871500D01*
X191573999Y-115067501D02*
X180397999Y-115067501D01*
X191770000Y-114871500D02*
X191573999Y-115067501D01*
X180397999Y-115067501D02*
X177678501Y-115067501D01*
X177678501Y-115067501D02*
X177165000Y-114554000D01*
X169533000Y-104711500D02*
X169533000Y-103187500D01*
X173863000Y-103187500D02*
X169533000Y-103187500D01*
X177482500Y-99568000D02*
X173863000Y-103187500D01*
X194094101Y-95224601D02*
X192430399Y-95224601D01*
X192430399Y-95224601D02*
X191325500Y-96329500D01*
X191325500Y-96329500D02*
X191325500Y-97790000D01*
X191325500Y-97790000D02*
X189547500Y-99568000D01*
X194310000Y-95440500D02*
X194094101Y-95224601D01*
X189547500Y-99568000D02*
X177482500Y-99568000D01*
X189369000Y-113665000D02*
X189369000Y-112141000D01*
X188658500Y-112141000D02*
X189369000Y-112141000D01*
X188214000Y-111696500D02*
X188658500Y-112141000D01*
X188214000Y-107442000D02*
X188214000Y-111696500D01*
X192532000Y-96126828D02*
X191833500Y-96825328D01*
X192532000Y-95821500D02*
X192532000Y-96126828D01*
X191833500Y-96825328D02*
X191833500Y-105981500D01*
X191833500Y-105981500D02*
X191389000Y-106426000D01*
X191389000Y-106426000D02*
X189230000Y-106426000D01*
X189230000Y-106426000D02*
X188214000Y-107442000D01*
X213669000Y-68135500D02*
X213677500Y-68144000D01*
X211316000Y-68135500D02*
X213669000Y-68135500D01*
X189738000Y-79426500D02*
X189738000Y-78676500D01*
X185725500Y-98044000D02*
X184975500Y-98044000D01*
X138430000Y-68719000D02*
X138989500Y-69278500D01*
X138430000Y-68707000D02*
X138430000Y-68719000D01*
X190500000Y-72326500D02*
X191135000Y-72961500D01*
X178054000Y-77533500D02*
X183261000Y-72326500D01*
X183261000Y-72326500D02*
X190500000Y-72326500D01*
X168211500Y-78359000D02*
X169037000Y-77533500D01*
X163766500Y-78359000D02*
X168211500Y-78359000D01*
X148717000Y-69278500D02*
X149733000Y-70294500D01*
X138989500Y-69278500D02*
X148717000Y-69278500D01*
X169037000Y-77533500D02*
X178054000Y-77533500D01*
X149733000Y-70294500D02*
X149733000Y-80391000D01*
X149733000Y-80391000D02*
X150685500Y-81343500D01*
X150685500Y-81343500D02*
X160782000Y-81343500D01*
X160782000Y-81343500D02*
X163766500Y-78359000D01*
X138366500Y-77355000D02*
X138989500Y-77978000D01*
X138366500Y-77089000D02*
X138366500Y-77355000D01*
X143764010Y-76580990D02*
X144145000Y-76200000D01*
X143764010Y-81820682D02*
X143764010Y-76580990D01*
X145382328Y-83439000D02*
X143764010Y-81820682D01*
X169514172Y-83439000D02*
X145382328Y-83439000D01*
X171513500Y-81439672D02*
X169514172Y-83439000D01*
X190246000Y-85725000D02*
X190246000Y-85419672D01*
X188658500Y-83832172D02*
X188226172Y-83832172D01*
X190246000Y-85419672D02*
X188658500Y-83832172D01*
X188226172Y-83832172D02*
X185419990Y-81025990D01*
X185419990Y-81025990D02*
X171927181Y-81025990D01*
X171927181Y-81025990D02*
X171513500Y-81439672D01*
X138430000Y-73037000D02*
X138989500Y-73596500D01*
X138430000Y-72834500D02*
X138430000Y-73037000D01*
X189420500Y-85598000D02*
X185229500Y-81407000D01*
X185229500Y-81407000D02*
X172085000Y-81407000D01*
X143383000Y-81978500D02*
X143383000Y-74231500D01*
X172085000Y-81407000D02*
X169672000Y-83820000D01*
X142748000Y-73596500D02*
X138989500Y-73596500D01*
X145224500Y-83820000D02*
X143383000Y-81978500D01*
X143383000Y-74231500D02*
X142748000Y-73596500D01*
X169672000Y-83820000D02*
X145224500Y-83820000D01*
X166651270Y-74969270D02*
X167183500Y-75501500D01*
X166651270Y-74775730D02*
X166651270Y-74969270D01*
X176276000Y-75501500D02*
X167183500Y-75501500D01*
X180911500Y-70866000D02*
X176276000Y-75501500D01*
X191770000Y-70866000D02*
X180911500Y-70866000D01*
X197802500Y-74104500D02*
X195008500Y-74104500D01*
X195008500Y-74104500D02*
X191770000Y-70866000D01*
X152590500Y-73545000D02*
X153213500Y-74168000D01*
X152590500Y-73279000D02*
X152590500Y-73545000D01*
X179959000Y-73279000D02*
X180594000Y-73279000D01*
X176720500Y-76517500D02*
X179959000Y-73279000D01*
X164846000Y-76517500D02*
X176720500Y-76517500D01*
X152590500Y-73279000D02*
X161607500Y-73279000D01*
X161607500Y-73279000D02*
X164846000Y-76517500D01*
X166687500Y-79323500D02*
X167183500Y-79819500D01*
X166687500Y-79121000D02*
X166687500Y-79323500D01*
X181069328Y-71247000D02*
X176433819Y-75882510D01*
X191389000Y-71247000D02*
X181069328Y-71247000D01*
X197485000Y-80772000D02*
X197866000Y-80391000D01*
X197468099Y-80772000D02*
X197485000Y-80772000D01*
X197866000Y-80391000D02*
X197866000Y-74803000D01*
X197866000Y-74803000D02*
X197650099Y-74587099D01*
X197650099Y-74587099D02*
X194729099Y-74587099D01*
X194729099Y-74587099D02*
X191389000Y-71247000D01*
X176433819Y-75882510D02*
X176433819Y-75913629D01*
X176433819Y-75913629D02*
X176455822Y-75935632D01*
X153213500Y-78486000D02*
X153213500Y-78220000D01*
X153213500Y-78220000D02*
X152654000Y-77660500D01*
X191173090Y-71755000D02*
X192341500Y-72923410D01*
X153035000Y-77279500D02*
X163893500Y-77279500D01*
X152654000Y-77660500D02*
X153035000Y-77279500D01*
X163893500Y-77279500D02*
X164147500Y-77025500D01*
X164147500Y-77025500D02*
X177800000Y-77025500D01*
X177800000Y-77025500D02*
X183070500Y-71755000D01*
X183070500Y-71755000D02*
X191173090Y-71755000D01*
X181756500Y-92194500D02*
X182130000Y-91821000D01*
X180190500Y-92194500D02*
X181756500Y-92194500D01*
X182880000Y-91821000D02*
X182130000Y-91821000D01*
X181693000Y-92844500D02*
X182130000Y-93281500D01*
X180190500Y-92844500D02*
X181693000Y-92844500D01*
X182943500Y-92456000D02*
X182943500Y-93154500D01*
X182816500Y-93281500D02*
X182130000Y-93281500D01*
X182943500Y-93154500D02*
X182816500Y-93281500D01*
X175641000Y-93644000D02*
X175790500Y-93494500D01*
X175641000Y-94678500D02*
X175641000Y-93644000D01*
X181419500Y-93777328D02*
X181089828Y-94107000D01*
X181419500Y-93472000D02*
X181419500Y-93777328D01*
X181089828Y-94107000D02*
X178562000Y-94107000D01*
X177949500Y-93494500D02*
X175790500Y-93494500D01*
X178562000Y-94107000D02*
X177949500Y-93494500D01*
X52483517Y-109419900D02*
X52895500Y-109831883D01*
X54630500Y-109796500D02*
X54630500Y-109217500D01*
X52895500Y-109831883D02*
X54595117Y-109831883D01*
X54595117Y-109831883D02*
X54630500Y-109796500D01*
X41402000Y-109537500D02*
X48514000Y-109537500D01*
X38036500Y-106172000D02*
X41402000Y-109537500D01*
X38036500Y-95186500D02*
X38036500Y-106172000D01*
X36718000Y-94617500D02*
X37467500Y-94617500D01*
X37467500Y-94617500D02*
X38036500Y-95186500D01*
X55895000Y-112524500D02*
X55895000Y-111618000D01*
X55895000Y-111618000D02*
X56769000Y-110744000D01*
X56769000Y-110744000D02*
X56769000Y-109220000D01*
X49431001Y-103695500D02*
X48756000Y-103695500D01*
X51137500Y-104397000D02*
X50927000Y-104186500D01*
X51516500Y-104397000D02*
X51137500Y-104397000D01*
X50927000Y-104186500D02*
X50927000Y-103314500D01*
X50927000Y-103314500D02*
X50736500Y-103124000D01*
X50736500Y-103124000D02*
X50002501Y-103124000D01*
X50002501Y-103124000D02*
X49431001Y-103695500D01*
X49431001Y-102171500D02*
X48756000Y-102171500D01*
X51137500Y-101597000D02*
X50927000Y-101807500D01*
X51516500Y-101597000D02*
X51137500Y-101597000D01*
X50927000Y-101807500D02*
X50927000Y-102552500D01*
X50927000Y-102552500D02*
X50736500Y-102743000D01*
X50736500Y-102743000D02*
X50002501Y-102743000D01*
X50002501Y-102743000D02*
X49431001Y-102171500D01*
X66548000Y-112153000D02*
X66548000Y-111688000D01*
X66548000Y-111688000D02*
X66480501Y-111620501D01*
X161289990Y-102871852D02*
X161289990Y-110047354D01*
X170884499Y-100081999D02*
X164079843Y-100081999D01*
X171767470Y-100964970D02*
X170884499Y-100081999D01*
X177549687Y-97345500D02*
X173930217Y-100964970D01*
X178943000Y-97345500D02*
X177549687Y-97345500D01*
X164079843Y-100081999D02*
X161289990Y-102871852D01*
X161289990Y-110047354D02*
X159640844Y-111696500D01*
X173930217Y-100964970D02*
X171767470Y-100964970D01*
X159626074Y-111681730D02*
X159640844Y-111696500D01*
X155687230Y-111681730D02*
X159626074Y-111681730D01*
X68020500Y-112153000D02*
X66548000Y-112153000D01*
X90081100Y-114388900D02*
X89154000Y-115316000D01*
X121539000Y-114388900D02*
X90081100Y-114388900D01*
X89154000Y-115316000D02*
X69215000Y-115316000D01*
X69215000Y-115316000D02*
X68135500Y-114236500D01*
X68135500Y-114236500D02*
X68135500Y-112268000D01*
X68135500Y-112268000D02*
X68020500Y-112153000D01*
X58166000Y-98996500D02*
X58916000Y-98996500D01*
X59420000Y-98996500D02*
X58916000Y-98996500D01*
X59563000Y-99139500D02*
X59420000Y-98996500D01*
X59563000Y-101092000D02*
X59563000Y-99139500D01*
X58991500Y-101663500D02*
X59563000Y-101092000D01*
X58166000Y-105981500D02*
X58916000Y-105981500D01*
X52416500Y-104397000D02*
X52416500Y-105508000D01*
X52416500Y-105508000D02*
X52133500Y-105791000D01*
X52133500Y-105791000D02*
X50609500Y-105791000D01*
X50609500Y-105791000D02*
X49784000Y-106616500D01*
X49784000Y-106616500D02*
X49784000Y-110807500D01*
X49784000Y-110807500D02*
X50609500Y-111633000D01*
X50609500Y-111633000D02*
X54927500Y-111633000D01*
X54927500Y-111633000D02*
X56070500Y-110490000D01*
X56070500Y-110490000D02*
X56070500Y-107124500D01*
X56070500Y-107124500D02*
X56451500Y-106743500D01*
X58789000Y-100330000D02*
X58916000Y-100457000D01*
X58229500Y-100330000D02*
X58789000Y-100330000D01*
X58166000Y-107442000D02*
X58916000Y-107442000D01*
X55689500Y-106374672D02*
X54788328Y-105473500D01*
X55689500Y-106680000D02*
X55689500Y-106374672D01*
X54788328Y-105473500D02*
X53911500Y-105473500D01*
X53766500Y-105328500D02*
X53766500Y-104397000D01*
X53911500Y-105473500D02*
X53766500Y-105328500D01*
X196532500Y-107493500D02*
X196520500Y-107505500D01*
X196532500Y-106235500D02*
X196532500Y-107493500D01*
X193040000Y-108648500D02*
X193790000Y-108648500D01*
X194451770Y-98600730D02*
X193421000Y-99631500D01*
X193040000Y-107823000D02*
X193040000Y-108648500D01*
X193421000Y-107442000D02*
X193040000Y-107823000D01*
X200025000Y-103441500D02*
X194881500Y-103441500D01*
X194881500Y-103441500D02*
X194627500Y-103695500D01*
X193421000Y-104394000D02*
X193421000Y-104521000D01*
X192913000Y-103886000D02*
X193421000Y-104394000D01*
X193421000Y-99631500D02*
X193421000Y-104521000D01*
X193421000Y-104521000D02*
X193421000Y-107442000D01*
X193790000Y-110172500D02*
X193040000Y-110172500D01*
X194834948Y-99008828D02*
X193865500Y-99978276D01*
X193865500Y-107315000D02*
X193992500Y-107442000D01*
X194348099Y-104609901D02*
X193865500Y-105092500D01*
X199745599Y-104609901D02*
X194348099Y-104609901D01*
X200215500Y-104140000D02*
X199745599Y-104609901D01*
X193865500Y-99978276D02*
X193865500Y-105092500D01*
X193865500Y-105092500D02*
X193865500Y-107315000D01*
X219456000Y-84570000D02*
X219380500Y-84645500D01*
X219456000Y-83375500D02*
X219456000Y-84570000D01*
X219456000Y-83375500D02*
X217424000Y-83375500D01*
X217424000Y-83375500D02*
X217360500Y-83312000D01*
X220599000Y-86372000D02*
X220801500Y-86169500D01*
X220599000Y-87376000D02*
X220599000Y-86372000D01*
X220599000Y-87376000D02*
X222758000Y-87376000D01*
X222758000Y-87376000D02*
X222885000Y-87503000D01*
X213550500Y-88582500D02*
X215519000Y-88582500D01*
X215519000Y-88582500D02*
X215709500Y-88773000D01*
X220801500Y-86066500D02*
X219380500Y-84645500D01*
X220801500Y-86169500D02*
X220801500Y-86066500D01*
X210185000Y-87947500D02*
X203009500Y-87947500D01*
X201701399Y-89255601D02*
X201485500Y-89471500D01*
X203009500Y-87947500D02*
X201701399Y-89255601D01*
X210820000Y-88582500D02*
X210185000Y-87947500D01*
X213550500Y-88582500D02*
X210820000Y-88582500D01*
X223583500Y-76771500D02*
X224028000Y-76327000D01*
X222238000Y-76771500D02*
X223583500Y-76771500D01*
X201803000Y-86169500D02*
X206311500Y-81661000D01*
X206311500Y-81661000D02*
X212661500Y-81661000D01*
X212661500Y-81661000D02*
X214249000Y-80073500D01*
X214249000Y-80073500D02*
X214249000Y-78867000D01*
X221181500Y-82712500D02*
X221904500Y-82712500D01*
X221904500Y-82712500D02*
X222059500Y-82867500D01*
X222059500Y-82867500D02*
X224028000Y-82867500D01*
X224028000Y-82867500D02*
X224345500Y-83185000D01*
X221181500Y-82212500D02*
X221969295Y-82212500D01*
X221969295Y-82212500D02*
X221981858Y-82199937D01*
X221193500Y-81724500D02*
X221181500Y-81712500D01*
X222313500Y-81724500D02*
X221193500Y-81724500D01*
X221185500Y-81216500D02*
X221181500Y-81212500D01*
X221996000Y-81216500D02*
X221185500Y-81216500D01*
X221185500Y-80708500D02*
X221181500Y-80712500D01*
X222313500Y-80708500D02*
X221185500Y-80708500D01*
X221193500Y-80200500D02*
X221181500Y-80212500D01*
X221996000Y-80200500D02*
X221193500Y-80200500D01*
X219244553Y-91166000D02*
X219224128Y-91145575D01*
X219953000Y-91166000D02*
X219244553Y-91166000D01*
X211569828Y-87439496D02*
X211264500Y-87439496D01*
X215867325Y-87439496D02*
X211569828Y-87439496D01*
X216661967Y-88234140D02*
X215867325Y-87439496D01*
X218048107Y-91175107D02*
X216661967Y-89788967D01*
X218889268Y-91175107D02*
X218048107Y-91175107D01*
X218918800Y-91145575D02*
X218889268Y-91175107D01*
X219224128Y-91145575D02*
X218918800Y-91145575D01*
X216661967Y-89788967D02*
X216661967Y-88234140D01*
X219949000Y-90170000D02*
X219953000Y-90166000D01*
X219202000Y-90170000D02*
X219949000Y-90170000D01*
X218120660Y-90170000D02*
X218896672Y-90170000D01*
X211074000Y-86487000D02*
X215994327Y-86487000D01*
X217423989Y-89473329D02*
X218120660Y-90170000D01*
X217423989Y-87916662D02*
X217423989Y-89473329D01*
X218896672Y-90170000D02*
X219202000Y-90170000D01*
X215994327Y-86487000D02*
X217423989Y-87916662D01*
X219953000Y-90666000D02*
X218833000Y-90666000D01*
X218833000Y-90666000D02*
X218821000Y-90678000D01*
X217042978Y-88076321D02*
X217042978Y-89631148D01*
X215936253Y-86969596D02*
X217042978Y-88076321D01*
X217042978Y-89631148D02*
X218089830Y-90678000D01*
X218089830Y-90678000D02*
X218515672Y-90678000D01*
X218515672Y-90678000D02*
X218821000Y-90678000D01*
X210629500Y-86969596D02*
X215936253Y-86969596D01*
X219953000Y-89666000D02*
X218825000Y-89666000D01*
X218825000Y-89666000D02*
X218821000Y-89662000D01*
X218249500Y-89662000D02*
X218515672Y-89662000D01*
X218515672Y-89662000D02*
X218821000Y-89662000D01*
X215961658Y-85915500D02*
X217805000Y-87758843D01*
X210693000Y-85915500D02*
X215961658Y-85915500D01*
X217805000Y-89217500D02*
X218249500Y-89662000D01*
X217805000Y-87758843D02*
X217805000Y-89217500D01*
X219941000Y-89154000D02*
X219953000Y-89166000D01*
X219202000Y-89154000D02*
X219941000Y-89154000D01*
X218186050Y-88836550D02*
X218503500Y-89154000D01*
X210970243Y-85430324D02*
X216015312Y-85430324D01*
X216015312Y-85430324D02*
X218186050Y-87601063D01*
X218186050Y-87601063D02*
X218186050Y-88836550D01*
X218503500Y-89154000D02*
X218896672Y-89154000D01*
X218896672Y-89154000D02*
X219202000Y-89154000D01*
X219953000Y-88666000D02*
X218841000Y-88666000D01*
X218841000Y-88666000D02*
X218821000Y-88646000D01*
X216084241Y-84960424D02*
X216471500Y-85347684D01*
X212280500Y-84960424D02*
X216084241Y-84960424D01*
X216471500Y-85347684D02*
X218567060Y-87443244D01*
X218567060Y-88392060D02*
X218821000Y-88646000D01*
X218567060Y-87443244D02*
X218567060Y-88392060D01*
X218994446Y-91666000D02*
X218973454Y-91645008D01*
X219953000Y-91666000D02*
X218994446Y-91666000D01*
X211639140Y-87993997D02*
X211333812Y-87993997D01*
X215882993Y-87993997D02*
X211639140Y-87993997D01*
X216280956Y-88391960D02*
X215882993Y-87993997D01*
X216280956Y-89979456D02*
X216280956Y-88391960D01*
X218973454Y-91645008D02*
X217946508Y-91645008D01*
X217946508Y-91645008D02*
X216280956Y-89979456D01*
X219925000Y-88138000D02*
X219953000Y-88166000D01*
X219202000Y-88138000D02*
X219925000Y-88138000D01*
X219202000Y-87832672D02*
X219202000Y-88138000D01*
X219202000Y-87539354D02*
X219202000Y-87832672D01*
X212407500Y-84391500D02*
X216054146Y-84391500D01*
X216054146Y-84391500D02*
X219202000Y-87539354D01*
X212821000Y-92519500D02*
X212841000Y-92499500D01*
X212026500Y-92519500D02*
X212821000Y-92519500D01*
X212837000Y-91503500D02*
X212841000Y-91499500D01*
X212026500Y-91503500D02*
X212837000Y-91503500D01*
X212841000Y-91999500D02*
X211594000Y-91999500D01*
X211594000Y-91999500D02*
X211582000Y-92011500D01*
X212837000Y-90995500D02*
X212841000Y-90999500D01*
X211582000Y-90995500D02*
X212837000Y-90995500D01*
X212829000Y-90487500D02*
X212841000Y-90499500D01*
X212026500Y-90487500D02*
X212829000Y-90487500D01*
X212821000Y-89979500D02*
X212841000Y-89999500D01*
X211582000Y-89979500D02*
X212821000Y-89979500D01*
X205227613Y-90431125D02*
X206250738Y-89408000D01*
X211010500Y-89408000D02*
X211582000Y-89979500D01*
X206250738Y-89408000D02*
X211010500Y-89408000D01*
X212813000Y-93027500D02*
X212841000Y-92999500D01*
X211582000Y-93027500D02*
X212813000Y-93027500D01*
X212813000Y-89471500D02*
X212841000Y-89499500D01*
X212026500Y-89471500D02*
X212813000Y-89471500D01*
X204787500Y-90043000D02*
X205486000Y-89344500D01*
X212026500Y-89471500D02*
X211582000Y-89027000D01*
X205803500Y-89027000D02*
X205486000Y-89344500D01*
X211582000Y-89027000D02*
X205803500Y-89027000D01*
X216178500Y-82232500D02*
X216206500Y-82204500D01*
X215138000Y-82232500D02*
X216178500Y-82232500D01*
X216186500Y-81724500D02*
X216206500Y-81704500D01*
X215455500Y-81724500D02*
X216186500Y-81724500D01*
X216194500Y-81216500D02*
X216206500Y-81204500D01*
X215138000Y-81216500D02*
X216194500Y-81216500D01*
X201930000Y-83121500D02*
X203136500Y-83121500D01*
X203136500Y-83121500D02*
X203263500Y-82994500D01*
X216206500Y-80704500D02*
X215459500Y-80704500D01*
X215459500Y-80704500D02*
X215455500Y-80708500D01*
X200533000Y-83312000D02*
X201470730Y-82374270D01*
X201470730Y-82374270D02*
X203786270Y-82374270D01*
X216194500Y-79692500D02*
X216206500Y-79704500D01*
X215455500Y-79692500D02*
X216194500Y-79692500D01*
X198691500Y-83439000D02*
X198907399Y-83223101D01*
X198907399Y-83223101D02*
X200787000Y-81343500D01*
X200787000Y-81343500D02*
X200850500Y-81280000D01*
X200850500Y-81280000D02*
X204406500Y-81280000D01*
X216202500Y-80200500D02*
X216206500Y-80204500D01*
X215138000Y-80200500D02*
X216202500Y-80200500D01*
X199644000Y-83185000D02*
X201041000Y-81788000D01*
X201041000Y-81788000D02*
X204089000Y-81788000D01*
X221217000Y-79248000D02*
X221181500Y-79212500D01*
X221996000Y-79248000D02*
X221217000Y-79248000D01*
X221835500Y-79712500D02*
X221181500Y-79712500D01*
X221840901Y-79717901D02*
X221835500Y-79712500D01*
X222320797Y-79702716D02*
X222305612Y-79717901D01*
X222305612Y-79717901D02*
X221840901Y-79717901D01*
X54595000Y-112524500D02*
X54595000Y-112156000D01*
X54595000Y-112156000D02*
X54610000Y-112141000D01*
D44*
X59944000Y-113653000D02*
X59944000Y-112966500D01*
D45*
X55245000Y-113195500D02*
X55245000Y-112524500D01*
X55895000Y-114424500D02*
X55895000Y-113845500D01*
X55895000Y-113845500D02*
X55245000Y-113195500D01*
D44*
X60821000Y-108204000D02*
X60769500Y-108255500D01*
X61849000Y-108204000D02*
X60821000Y-108204000D01*
D45*
X57416000Y-105981500D02*
X57416000Y-107442000D01*
X57416000Y-107835000D02*
X57416000Y-107442000D01*
X60769500Y-108255500D02*
X57836500Y-108255500D01*
X57836500Y-108255500D02*
X57416000Y-107835000D01*
D44*
X60769500Y-99619500D02*
X62281500Y-99619500D01*
X62281500Y-99619500D02*
X62293500Y-99631500D01*
D45*
X52866500Y-105968500D02*
X53657500Y-106759500D01*
X52866500Y-104397000D02*
X52866500Y-105968500D01*
X52006500Y-106984500D02*
X52006500Y-107009500D01*
X52866500Y-105968500D02*
X52866500Y-106124500D01*
X52866500Y-106124500D02*
X52006500Y-106984500D01*
X52866500Y-99077000D02*
X53276500Y-98667000D01*
X52866500Y-101597000D02*
X52866500Y-99077000D01*
X57416000Y-100457000D02*
X57416000Y-98996500D01*
X55626000Y-102310500D02*
X55626000Y-101092000D01*
X56261000Y-100457000D02*
X57416000Y-100457000D01*
X55626000Y-101092000D02*
X56261000Y-100457000D01*
D44*
X52006500Y-107009500D02*
X50851500Y-107009500D01*
X50851500Y-107009500D02*
X50800000Y-107061000D01*
D45*
X36068000Y-95288500D02*
X36068000Y-94617500D01*
X36718000Y-96517500D02*
X36718000Y-95938500D01*
X36718000Y-95938500D02*
X36068000Y-95288500D01*
X36068000Y-94617500D02*
X36068000Y-94932500D01*
X36068000Y-94932500D02*
X35496500Y-95504000D01*
X49022000Y-97206500D02*
X47549500Y-98679000D01*
X49022000Y-97167000D02*
X49022000Y-97206500D01*
X55245000Y-113103500D02*
X55245000Y-112524500D01*
X54094001Y-113103501D02*
X55245000Y-113103500D01*
X53086000Y-112724500D02*
X53715000Y-112724500D01*
X53715000Y-112724500D02*
X54094001Y-113103501D01*
D44*
X54595000Y-114424500D02*
X55245000Y-114424500D01*
X60769500Y-103511000D02*
X60446000Y-103187500D01*
X60769500Y-106755500D02*
X60769500Y-103511000D01*
X60769500Y-106755500D02*
X60769500Y-105791000D01*
X60769500Y-105791000D02*
X61785500Y-104775000D01*
X61099000Y-97790000D02*
X60769500Y-98119500D01*
X62103000Y-97790000D02*
X61099000Y-97790000D01*
X45724901Y-95725501D02*
X45826500Y-95725501D01*
X45720000Y-96381000D02*
X45720000Y-95730402D01*
X45720000Y-95730402D02*
X45724901Y-95725501D01*
D45*
X53316500Y-102502000D02*
X53236500Y-102582000D01*
X53316500Y-101597000D02*
X53316500Y-102502000D01*
D44*
X52256500Y-108759500D02*
X52006500Y-108509500D01*
X53657500Y-108759500D02*
X52256500Y-108759500D01*
X53657500Y-108759500D02*
X54138500Y-108759500D01*
X54138500Y-108759500D02*
X54630500Y-108267500D01*
D45*
X35496500Y-96439000D02*
X35418000Y-96517500D01*
X35496500Y-96317500D02*
X35496500Y-96439000D01*
X35696500Y-96517500D02*
X35496500Y-96317500D01*
X36068000Y-96517500D02*
X35696500Y-96517500D01*
X50482500Y-97167000D02*
X53276500Y-97167000D01*
D44*
X54395000Y-114224500D02*
X54595000Y-114424500D01*
X53086000Y-114224500D02*
X54395000Y-114224500D01*
D45*
X216178500Y-78676500D02*
X216206500Y-78704500D01*
X215455500Y-78676500D02*
X216178500Y-78676500D01*
X216186500Y-79184500D02*
X216206500Y-79204500D01*
X215138000Y-79184500D02*
X216186500Y-79184500D01*
X225298000Y-109906500D02*
X225298000Y-110807500D01*
X225298000Y-110807500D02*
X225044000Y-111061500D01*
X227330000Y-91884500D02*
X229870000Y-91884500D01*
X229870000Y-91884500D02*
X229933500Y-91948000D01*
X227233184Y-93883184D02*
X228406368Y-92710000D01*
X228406368Y-92710000D02*
X229933500Y-92710000D01*
G36*
X116522500Y-71878448D02*
G01*
X116524940Y-71903225D01*
X116544275Y-72000427D01*
X116551502Y-72024251D01*
X116563238Y-72046207D01*
X116618298Y-72128610D01*
X116634092Y-72147856D01*
X116653338Y-72163650D01*
X116735741Y-72218710D01*
X116757697Y-72230446D01*
X116781521Y-72237673D01*
X116878723Y-72257008D01*
X116903500Y-72259448D01*
X117083528Y-72259448D01*
X117072330Y-72273092D01*
X116723092Y-72622331D01*
X116705648Y-72636647D01*
X116691331Y-72654092D01*
X116691330Y-72654093D01*
X116648514Y-72706264D01*
X116606060Y-72785691D01*
X116590879Y-72835736D01*
X116579916Y-72871874D01*
X116571089Y-72961500D01*
X116573301Y-72983960D01*
X116573300Y-74704878D01*
X116571089Y-74727328D01*
X116573300Y-74749778D01*
X116573300Y-74749787D01*
X116579915Y-74816954D01*
X116606059Y-74903136D01*
X116648513Y-74982563D01*
X116705647Y-75052181D01*
X116723097Y-75066502D01*
X116901762Y-75245167D01*
X110647642Y-75254392D01*
X109801416Y-74408167D01*
X109808613Y-74390791D01*
X109829600Y-74285286D01*
X109829600Y-74177714D01*
X109808613Y-74072209D01*
X109767447Y-73972825D01*
X109707683Y-73883382D01*
X109631618Y-73807317D01*
X109542175Y-73747553D01*
X109442791Y-73706387D01*
X109337286Y-73685400D01*
X109229714Y-73685400D01*
X109124209Y-73706387D01*
X109024825Y-73747553D01*
X108935382Y-73807317D01*
X108859317Y-73883382D01*
X108799553Y-73972825D01*
X108758387Y-74072209D01*
X108737400Y-74177714D01*
X108737400Y-74285286D01*
X108758387Y-74390791D01*
X108799553Y-74490175D01*
X108824942Y-74528172D01*
X108824089Y-74536828D01*
X108826300Y-74559278D01*
X108826300Y-74559288D01*
X108832915Y-74626455D01*
X108858893Y-74712088D01*
X108859060Y-74712637D01*
X108901513Y-74792063D01*
X108916524Y-74810353D01*
X108958648Y-74861681D01*
X108976093Y-74875998D01*
X109356391Y-75256297D01*
X102235067Y-75266800D01*
X102231040Y-75253527D01*
X102200379Y-75196163D01*
X102159116Y-75145884D01*
X102108837Y-75104621D01*
X102051473Y-75073960D01*
X101989230Y-75055078D01*
X101924500Y-75048703D01*
X101124500Y-75048703D01*
X101059770Y-75055078D01*
X100997527Y-75073960D01*
X100940163Y-75104621D01*
X100889884Y-75145884D01*
X100848621Y-75196163D01*
X100817960Y-75253527D01*
X100813297Y-75268897D01*
X100735737Y-75269012D01*
X100731040Y-75253527D01*
X100700379Y-75196163D01*
X100659116Y-75145884D01*
X100608837Y-75104621D01*
X100551473Y-75073960D01*
X100489230Y-75055078D01*
X100424500Y-75048703D01*
X99624500Y-75048703D01*
X99559770Y-75055078D01*
X99497527Y-75073960D01*
X99440163Y-75104621D01*
X99389884Y-75145884D01*
X99348621Y-75196163D01*
X99317960Y-75253527D01*
X99299078Y-75315770D01*
X99292703Y-75380500D01*
X99292703Y-75389466D01*
X99282626Y-75401764D01*
X99227663Y-75484122D01*
X99215939Y-75506085D01*
X99208735Y-75529866D01*
X99189436Y-75626981D01*
X99187000Y-75651735D01*
X99187000Y-77275948D01*
X99189440Y-77300725D01*
X99208775Y-77397927D01*
X99216002Y-77421751D01*
X99227738Y-77443707D01*
X99282798Y-77526110D01*
X99298592Y-77545356D01*
X99317838Y-77561150D01*
X99400241Y-77616210D01*
X99422197Y-77627946D01*
X99446021Y-77635173D01*
X99543223Y-77654508D01*
X99568000Y-77656948D01*
X99897703Y-77656948D01*
X99897703Y-77852500D01*
X99904078Y-77917230D01*
X99922960Y-77979473D01*
X99953621Y-78036837D01*
X99994884Y-78087116D01*
X100045163Y-78128379D01*
X100102527Y-78159040D01*
X100164770Y-78177922D01*
X100229500Y-78184297D01*
X100330000Y-78184297D01*
X100330000Y-78191422D01*
X100122092Y-78399331D01*
X100104648Y-78413647D01*
X100090331Y-78431092D01*
X100090330Y-78431093D01*
X100047513Y-78483265D01*
X100009312Y-78554736D01*
X100005060Y-78562691D01*
X99978916Y-78648873D01*
X99973015Y-78708791D01*
X99970089Y-78738500D01*
X99972301Y-78760959D01*
X99972301Y-78785402D01*
X99953621Y-78808163D01*
X99922960Y-78865527D01*
X99904078Y-78927770D01*
X99897703Y-78992500D01*
X99897703Y-80052500D01*
X99904078Y-80117230D01*
X99922960Y-80179473D01*
X99953621Y-80236837D01*
X99994884Y-80287116D01*
X100045163Y-80328379D01*
X100102527Y-80359040D01*
X100164770Y-80377922D01*
X100229500Y-80384297D01*
X100330000Y-80384297D01*
X100330000Y-80409422D01*
X100297623Y-80441800D01*
X96520000Y-80441800D01*
X96520000Y-75656792D01*
X96517555Y-75631993D01*
X96498185Y-75534705D01*
X96490954Y-75510882D01*
X96479188Y-75488888D01*
X96424031Y-75406438D01*
X96408226Y-75387202D01*
X96388933Y-75371392D01*
X96306402Y-75316357D01*
X96284434Y-75304641D01*
X96260558Y-75297427D01*
X96163241Y-75278200D01*
X96138438Y-75275792D01*
X83587297Y-75294304D01*
X83587297Y-74618500D01*
X83580922Y-74553770D01*
X83562040Y-74491527D01*
X83531379Y-74434163D01*
X83490116Y-74383884D01*
X83439837Y-74342621D01*
X83382473Y-74311960D01*
X83320230Y-74293078D01*
X83255500Y-74286703D01*
X82455500Y-74286703D01*
X82390770Y-74293078D01*
X82328527Y-74311960D01*
X82271163Y-74342621D01*
X82220884Y-74383884D01*
X82179621Y-74434163D01*
X82148960Y-74491527D01*
X82130078Y-74553770D01*
X82123703Y-74618500D01*
X82123703Y-75271651D01*
X82108389Y-75290311D01*
X82087297Y-75269219D01*
X82087297Y-74618500D01*
X82080922Y-74553770D01*
X82062040Y-74491527D01*
X82031379Y-74434163D01*
X81990116Y-74383884D01*
X81939837Y-74342621D01*
X81882473Y-74311960D01*
X81820230Y-74293078D01*
X81755500Y-74286703D01*
X80955500Y-74286703D01*
X80890770Y-74293078D01*
X80828527Y-74311960D01*
X80771163Y-74342621D01*
X80720884Y-74383884D01*
X80679621Y-74434163D01*
X80648960Y-74491527D01*
X80630078Y-74553770D01*
X80623703Y-74618500D01*
X80623703Y-75368500D01*
X80623705Y-75368518D01*
X80585108Y-75394359D01*
X80565877Y-75410171D01*
X80550126Y-75429393D01*
X80495163Y-75511751D01*
X80483439Y-75533714D01*
X80476235Y-75557495D01*
X80456936Y-75654610D01*
X80454500Y-75679364D01*
X80454500Y-77275948D01*
X80456940Y-77300725D01*
X80476275Y-77397927D01*
X80483502Y-77421751D01*
X80495238Y-77443707D01*
X80550298Y-77526110D01*
X80566092Y-77545356D01*
X80585338Y-77561150D01*
X80667741Y-77616210D01*
X80689697Y-77627946D01*
X80713521Y-77635173D01*
X80810723Y-77654508D01*
X80835500Y-77656948D01*
X81521490Y-77656948D01*
X81578195Y-77668228D01*
X81516597Y-77729826D01*
X81499147Y-77744147D01*
X81442013Y-77813765D01*
X81399559Y-77893192D01*
X81373415Y-77979374D01*
X81366800Y-78046541D01*
X81366800Y-78046550D01*
X81364589Y-78069000D01*
X81366800Y-78091450D01*
X81366800Y-78213902D01*
X81348121Y-78236663D01*
X81317460Y-78294027D01*
X81298578Y-78356270D01*
X81292203Y-78421000D01*
X81292203Y-79481000D01*
X81298578Y-79545730D01*
X81317460Y-79607973D01*
X81348121Y-79665337D01*
X81389384Y-79715616D01*
X81439663Y-79756879D01*
X81497027Y-79787540D01*
X81559270Y-79806422D01*
X81622975Y-79812696D01*
X81621553Y-79814825D01*
X81580387Y-79914209D01*
X81559400Y-80019714D01*
X81559400Y-80127286D01*
X81580387Y-80232791D01*
X81621553Y-80332175D01*
X81661000Y-80391212D01*
X81661000Y-80501938D01*
X81649033Y-80562097D01*
X81622043Y-80602491D01*
X81581649Y-80629481D01*
X81521490Y-80641448D01*
X73545510Y-80641448D01*
X73485351Y-80629481D01*
X73444957Y-80602491D01*
X73417967Y-80562097D01*
X73406000Y-80501938D01*
X73406000Y-75688448D01*
X73403560Y-75663671D01*
X73384225Y-75566469D01*
X73376998Y-75542645D01*
X73365262Y-75520689D01*
X73310202Y-75438286D01*
X73294408Y-75419040D01*
X73275162Y-75403246D01*
X73192759Y-75348186D01*
X73170803Y-75336450D01*
X73146979Y-75329223D01*
X73049777Y-75309888D01*
X73025000Y-75307448D01*
X72275510Y-75307448D01*
X72215351Y-75295481D01*
X72174957Y-75268491D01*
X72147967Y-75228097D01*
X72136000Y-75167938D01*
X72136000Y-74882297D01*
X72300000Y-74882297D01*
X72364730Y-74875922D01*
X72426973Y-74857040D01*
X72484337Y-74826379D01*
X72534616Y-74785116D01*
X72575879Y-74734837D01*
X72606540Y-74677473D01*
X72625422Y-74615230D01*
X72631797Y-74550500D01*
X72631797Y-73923714D01*
X84924900Y-73923714D01*
X84924900Y-74031286D01*
X84945887Y-74136791D01*
X84987053Y-74236175D01*
X85046817Y-74325618D01*
X85122882Y-74401683D01*
X85212325Y-74461447D01*
X85311709Y-74502613D01*
X85417214Y-74523600D01*
X85524786Y-74523600D01*
X85630291Y-74502613D01*
X85729675Y-74461447D01*
X85819118Y-74401683D01*
X85895183Y-74325618D01*
X85954947Y-74236175D01*
X85996113Y-74136791D01*
X86017100Y-74031286D01*
X86017100Y-73923714D01*
X85996113Y-73818209D01*
X85954947Y-73718825D01*
X85895183Y-73629382D01*
X85819118Y-73553317D01*
X85729675Y-73493553D01*
X85630291Y-73452387D01*
X85524786Y-73431400D01*
X85417214Y-73431400D01*
X85311709Y-73452387D01*
X85212325Y-73493553D01*
X85122882Y-73553317D01*
X85046817Y-73629382D01*
X84987053Y-73718825D01*
X84945887Y-73818209D01*
X84924900Y-73923714D01*
X72631797Y-73923714D01*
X72631797Y-73490500D01*
X72625422Y-73425770D01*
X72606540Y-73363527D01*
X72575879Y-73306163D01*
X72534616Y-73255884D01*
X72484337Y-73214621D01*
X72426973Y-73183960D01*
X72364730Y-73165078D01*
X72300000Y-73158703D01*
X72136000Y-73158703D01*
X72136000Y-72717214D01*
X88544400Y-72717214D01*
X88544400Y-72824786D01*
X88565387Y-72930291D01*
X88606553Y-73029675D01*
X88666317Y-73119118D01*
X88742382Y-73195183D01*
X88831825Y-73254947D01*
X88931209Y-73296113D01*
X89036714Y-73317100D01*
X89144286Y-73317100D01*
X89249791Y-73296113D01*
X89349175Y-73254947D01*
X89438618Y-73195183D01*
X89514683Y-73119118D01*
X89574447Y-73029675D01*
X89615613Y-72930291D01*
X89636600Y-72824786D01*
X89636600Y-72717214D01*
X91592400Y-72717214D01*
X91592400Y-72824786D01*
X91613387Y-72930291D01*
X91654553Y-73029675D01*
X91714317Y-73119118D01*
X91790382Y-73195183D01*
X91879825Y-73254947D01*
X91979209Y-73296113D01*
X92084714Y-73317100D01*
X92192286Y-73317100D01*
X92297791Y-73296113D01*
X92397175Y-73254947D01*
X92486618Y-73195183D01*
X92562683Y-73119118D01*
X92622447Y-73029675D01*
X92663613Y-72930291D01*
X92684600Y-72824786D01*
X92684600Y-72780714D01*
X110261400Y-72780714D01*
X110261400Y-72888286D01*
X110282387Y-72993791D01*
X110323553Y-73093175D01*
X110383317Y-73182618D01*
X110459382Y-73258683D01*
X110548825Y-73318447D01*
X110648209Y-73359613D01*
X110753714Y-73380600D01*
X110861286Y-73380600D01*
X110966791Y-73359613D01*
X111066175Y-73318447D01*
X111155618Y-73258683D01*
X111231683Y-73182618D01*
X111291447Y-73093175D01*
X111332613Y-72993791D01*
X111353600Y-72888286D01*
X111353600Y-72780714D01*
X111332613Y-72675209D01*
X111291447Y-72575825D01*
X111231683Y-72486382D01*
X111155618Y-72410317D01*
X111066175Y-72350553D01*
X110966791Y-72309387D01*
X110861286Y-72288400D01*
X110753714Y-72288400D01*
X110648209Y-72309387D01*
X110548825Y-72350553D01*
X110459382Y-72410317D01*
X110383317Y-72486382D01*
X110323553Y-72575825D01*
X110282387Y-72675209D01*
X110261400Y-72780714D01*
X92684600Y-72780714D01*
X92684600Y-72717214D01*
X92663613Y-72611709D01*
X92622447Y-72512325D01*
X92562683Y-72422882D01*
X92486618Y-72346817D01*
X92397175Y-72287053D01*
X92297791Y-72245887D01*
X92192286Y-72224900D01*
X92084714Y-72224900D01*
X91979209Y-72245887D01*
X91879825Y-72287053D01*
X91790382Y-72346817D01*
X91714317Y-72422882D01*
X91654553Y-72512325D01*
X91613387Y-72611709D01*
X91592400Y-72717214D01*
X89636600Y-72717214D01*
X89615613Y-72611709D01*
X89574447Y-72512325D01*
X89514683Y-72422882D01*
X89438618Y-72346817D01*
X89349175Y-72287053D01*
X89249791Y-72245887D01*
X89144286Y-72224900D01*
X89036714Y-72224900D01*
X88931209Y-72245887D01*
X88831825Y-72287053D01*
X88742382Y-72346817D01*
X88666317Y-72422882D01*
X88606553Y-72512325D01*
X88565387Y-72611709D01*
X88544400Y-72717214D01*
X72136000Y-72717214D01*
X72136000Y-71763958D01*
X72147967Y-71703799D01*
X72174957Y-71663405D01*
X72215351Y-71636415D01*
X72275510Y-71624448D01*
X74422000Y-71624448D01*
X74446777Y-71622008D01*
X74543979Y-71602673D01*
X74567803Y-71595446D01*
X74589759Y-71583710D01*
X74672162Y-71528650D01*
X74691408Y-71512856D01*
X74707202Y-71493610D01*
X74762262Y-71411207D01*
X74773998Y-71389251D01*
X74781225Y-71365427D01*
X74800560Y-71268225D01*
X74803000Y-71243448D01*
X74803000Y-70100941D01*
X100510600Y-70100941D01*
X100510600Y-70461459D01*
X100580933Y-70815050D01*
X100718897Y-71148125D01*
X100919190Y-71447885D01*
X101174115Y-71702810D01*
X101473875Y-71903103D01*
X101806950Y-72041067D01*
X102160541Y-72111400D01*
X102521059Y-72111400D01*
X102874650Y-72041067D01*
X103207725Y-71903103D01*
X103507485Y-71702810D01*
X103762410Y-71447885D01*
X103962703Y-71148125D01*
X104100667Y-70815050D01*
X104171000Y-70461459D01*
X104171000Y-70100941D01*
X104100667Y-69747350D01*
X103962703Y-69414275D01*
X103762410Y-69114515D01*
X103507485Y-68859590D01*
X103207725Y-68659297D01*
X102874650Y-68521333D01*
X102521059Y-68451000D01*
X102160541Y-68451000D01*
X101806950Y-68521333D01*
X101473875Y-68659297D01*
X101174115Y-68859590D01*
X100919190Y-69114515D01*
X100718897Y-69414275D01*
X100580933Y-69747350D01*
X100510600Y-70100941D01*
X74803000Y-70100941D01*
X74803000Y-69810036D01*
X74876214Y-69824600D01*
X74983786Y-69824600D01*
X75089291Y-69803613D01*
X75188675Y-69762447D01*
X75215750Y-69744356D01*
X75242825Y-69762447D01*
X75342209Y-69803613D01*
X75447714Y-69824600D01*
X75555286Y-69824600D01*
X75660791Y-69803613D01*
X75760175Y-69762447D01*
X75787250Y-69744356D01*
X75814325Y-69762447D01*
X75913709Y-69803613D01*
X76019214Y-69824600D01*
X76126786Y-69824600D01*
X76232291Y-69803613D01*
X76331675Y-69762447D01*
X76358750Y-69744356D01*
X76385825Y-69762447D01*
X76485209Y-69803613D01*
X76590714Y-69824600D01*
X76698286Y-69824600D01*
X76803791Y-69803613D01*
X76903175Y-69762447D01*
X76930250Y-69744356D01*
X76957325Y-69762447D01*
X77056709Y-69803613D01*
X77162214Y-69824600D01*
X77269786Y-69824600D01*
X77375291Y-69803613D01*
X77474675Y-69762447D01*
X77564118Y-69702683D01*
X77640183Y-69626618D01*
X77699947Y-69537175D01*
X77741113Y-69437791D01*
X77762100Y-69332286D01*
X77762100Y-69224714D01*
X77741113Y-69119209D01*
X77699947Y-69019825D01*
X77681856Y-68992750D01*
X77699947Y-68965675D01*
X77741113Y-68866291D01*
X77762100Y-68760786D01*
X77762100Y-68653214D01*
X77741113Y-68547709D01*
X77699947Y-68448325D01*
X77681856Y-68421250D01*
X77699947Y-68394175D01*
X77741113Y-68294791D01*
X77762100Y-68189286D01*
X77762100Y-68081714D01*
X77741113Y-67976209D01*
X77699947Y-67876825D01*
X77681856Y-67849750D01*
X77699947Y-67822675D01*
X77741113Y-67723291D01*
X77762100Y-67617786D01*
X77762100Y-67510214D01*
X77741113Y-67404709D01*
X77699947Y-67305325D01*
X77640183Y-67215882D01*
X77564118Y-67139817D01*
X77474675Y-67080053D01*
X77375291Y-67038887D01*
X77269786Y-67017900D01*
X77162214Y-67017900D01*
X77056709Y-67038887D01*
X76957325Y-67080053D01*
X76930250Y-67098144D01*
X76903175Y-67080053D01*
X76803791Y-67038887D01*
X76698286Y-67017900D01*
X76590714Y-67017900D01*
X76485209Y-67038887D01*
X76385825Y-67080053D01*
X76358750Y-67098144D01*
X76331675Y-67080053D01*
X76232291Y-67038887D01*
X76126786Y-67017900D01*
X76019214Y-67017900D01*
X75913709Y-67038887D01*
X75814325Y-67080053D01*
X75787250Y-67098144D01*
X75760175Y-67080053D01*
X75660791Y-67038887D01*
X75555286Y-67017900D01*
X75447714Y-67017900D01*
X75342209Y-67038887D01*
X75242825Y-67080053D01*
X75215750Y-67098144D01*
X75188675Y-67080053D01*
X75089291Y-67038887D01*
X74983786Y-67017900D01*
X74876214Y-67017900D01*
X74803000Y-67032464D01*
X74803000Y-66686400D01*
X116522500Y-66686400D01*
X116522500Y-71878448D01*
X116522500Y-71878448D01*
G37*
X116522500Y-71878448D02*
X116524940Y-71903225D01*
X116544275Y-72000427D01*
X116551502Y-72024251D01*
X116563238Y-72046207D01*
X116618298Y-72128610D01*
X116634092Y-72147856D01*
X116653338Y-72163650D01*
X116735741Y-72218710D01*
X116757697Y-72230446D01*
X116781521Y-72237673D01*
X116878723Y-72257008D01*
X116903500Y-72259448D01*
X117083528Y-72259448D01*
X117072330Y-72273092D01*
X116723092Y-72622331D01*
X116705648Y-72636647D01*
X116691331Y-72654092D01*
X116691330Y-72654093D01*
X116648514Y-72706264D01*
X116606060Y-72785691D01*
X116590879Y-72835736D01*
X116579916Y-72871874D01*
X116571089Y-72961500D01*
X116573301Y-72983960D01*
X116573300Y-74704878D01*
X116571089Y-74727328D01*
X116573300Y-74749778D01*
X116573300Y-74749787D01*
X116579915Y-74816954D01*
X116606059Y-74903136D01*
X116648513Y-74982563D01*
X116705647Y-75052181D01*
X116723097Y-75066502D01*
X116901762Y-75245167D01*
X110647642Y-75254392D01*
X109801416Y-74408167D01*
X109808613Y-74390791D01*
X109829600Y-74285286D01*
X109829600Y-74177714D01*
X109808613Y-74072209D01*
X109767447Y-73972825D01*
X109707683Y-73883382D01*
X109631618Y-73807317D01*
X109542175Y-73747553D01*
X109442791Y-73706387D01*
X109337286Y-73685400D01*
X109229714Y-73685400D01*
X109124209Y-73706387D01*
X109024825Y-73747553D01*
X108935382Y-73807317D01*
X108859317Y-73883382D01*
X108799553Y-73972825D01*
X108758387Y-74072209D01*
X108737400Y-74177714D01*
X108737400Y-74285286D01*
X108758387Y-74390791D01*
X108799553Y-74490175D01*
X108824942Y-74528172D01*
X108824089Y-74536828D01*
X108826300Y-74559278D01*
X108826300Y-74559288D01*
X108832915Y-74626455D01*
X108858893Y-74712088D01*
X108859060Y-74712637D01*
X108901513Y-74792063D01*
X108916524Y-74810353D01*
X108958648Y-74861681D01*
X108976093Y-74875998D01*
X109356391Y-75256297D01*
X102235067Y-75266800D01*
X102231040Y-75253527D01*
X102200379Y-75196163D01*
X102159116Y-75145884D01*
X102108837Y-75104621D01*
X102051473Y-75073960D01*
X101989230Y-75055078D01*
X101924500Y-75048703D01*
X101124500Y-75048703D01*
X101059770Y-75055078D01*
X100997527Y-75073960D01*
X100940163Y-75104621D01*
X100889884Y-75145884D01*
X100848621Y-75196163D01*
X100817960Y-75253527D01*
X100813297Y-75268897D01*
X100735737Y-75269012D01*
X100731040Y-75253527D01*
X100700379Y-75196163D01*
X100659116Y-75145884D01*
X100608837Y-75104621D01*
X100551473Y-75073960D01*
X100489230Y-75055078D01*
X100424500Y-75048703D01*
X99624500Y-75048703D01*
X99559770Y-75055078D01*
X99497527Y-75073960D01*
X99440163Y-75104621D01*
X99389884Y-75145884D01*
X99348621Y-75196163D01*
X99317960Y-75253527D01*
X99299078Y-75315770D01*
X99292703Y-75380500D01*
X99292703Y-75389466D01*
X99282626Y-75401764D01*
X99227663Y-75484122D01*
X99215939Y-75506085D01*
X99208735Y-75529866D01*
X99189436Y-75626981D01*
X99187000Y-75651735D01*
X99187000Y-77275948D01*
X99189440Y-77300725D01*
X99208775Y-77397927D01*
X99216002Y-77421751D01*
X99227738Y-77443707D01*
X99282798Y-77526110D01*
X99298592Y-77545356D01*
X99317838Y-77561150D01*
X99400241Y-77616210D01*
X99422197Y-77627946D01*
X99446021Y-77635173D01*
X99543223Y-77654508D01*
X99568000Y-77656948D01*
X99897703Y-77656948D01*
X99897703Y-77852500D01*
X99904078Y-77917230D01*
X99922960Y-77979473D01*
X99953621Y-78036837D01*
X99994884Y-78087116D01*
X100045163Y-78128379D01*
X100102527Y-78159040D01*
X100164770Y-78177922D01*
X100229500Y-78184297D01*
X100330000Y-78184297D01*
X100330000Y-78191422D01*
X100122092Y-78399331D01*
X100104648Y-78413647D01*
X100090331Y-78431092D01*
X100090330Y-78431093D01*
X100047513Y-78483265D01*
X100009312Y-78554736D01*
X100005060Y-78562691D01*
X99978916Y-78648873D01*
X99973015Y-78708791D01*
X99970089Y-78738500D01*
X99972301Y-78760959D01*
X99972301Y-78785402D01*
X99953621Y-78808163D01*
X99922960Y-78865527D01*
X99904078Y-78927770D01*
X99897703Y-78992500D01*
X99897703Y-80052500D01*
X99904078Y-80117230D01*
X99922960Y-80179473D01*
X99953621Y-80236837D01*
X99994884Y-80287116D01*
X100045163Y-80328379D01*
X100102527Y-80359040D01*
X100164770Y-80377922D01*
X100229500Y-80384297D01*
X100330000Y-80384297D01*
X100330000Y-80409422D01*
X100297623Y-80441800D01*
X96520000Y-80441800D01*
X96520000Y-75656792D01*
X96517555Y-75631993D01*
X96498185Y-75534705D01*
X96490954Y-75510882D01*
X96479188Y-75488888D01*
X96424031Y-75406438D01*
X96408226Y-75387202D01*
X96388933Y-75371392D01*
X96306402Y-75316357D01*
X96284434Y-75304641D01*
X96260558Y-75297427D01*
X96163241Y-75278200D01*
X96138438Y-75275792D01*
X83587297Y-75294304D01*
X83587297Y-74618500D01*
X83580922Y-74553770D01*
X83562040Y-74491527D01*
X83531379Y-74434163D01*
X83490116Y-74383884D01*
X83439837Y-74342621D01*
X83382473Y-74311960D01*
X83320230Y-74293078D01*
X83255500Y-74286703D01*
X82455500Y-74286703D01*
X82390770Y-74293078D01*
X82328527Y-74311960D01*
X82271163Y-74342621D01*
X82220884Y-74383884D01*
X82179621Y-74434163D01*
X82148960Y-74491527D01*
X82130078Y-74553770D01*
X82123703Y-74618500D01*
X82123703Y-75271651D01*
X82108389Y-75290311D01*
X82087297Y-75269219D01*
X82087297Y-74618500D01*
X82080922Y-74553770D01*
X82062040Y-74491527D01*
X82031379Y-74434163D01*
X81990116Y-74383884D01*
X81939837Y-74342621D01*
X81882473Y-74311960D01*
X81820230Y-74293078D01*
X81755500Y-74286703D01*
X80955500Y-74286703D01*
X80890770Y-74293078D01*
X80828527Y-74311960D01*
X80771163Y-74342621D01*
X80720884Y-74383884D01*
X80679621Y-74434163D01*
X80648960Y-74491527D01*
X80630078Y-74553770D01*
X80623703Y-74618500D01*
X80623703Y-75368500D01*
X80623705Y-75368518D01*
X80585108Y-75394359D01*
X80565877Y-75410171D01*
X80550126Y-75429393D01*
X80495163Y-75511751D01*
X80483439Y-75533714D01*
X80476235Y-75557495D01*
X80456936Y-75654610D01*
X80454500Y-75679364D01*
X80454500Y-77275948D01*
X80456940Y-77300725D01*
X80476275Y-77397927D01*
X80483502Y-77421751D01*
X80495238Y-77443707D01*
X80550298Y-77526110D01*
X80566092Y-77545356D01*
X80585338Y-77561150D01*
X80667741Y-77616210D01*
X80689697Y-77627946D01*
X80713521Y-77635173D01*
X80810723Y-77654508D01*
X80835500Y-77656948D01*
X81521490Y-77656948D01*
X81578195Y-77668228D01*
X81516597Y-77729826D01*
X81499147Y-77744147D01*
X81442013Y-77813765D01*
X81399559Y-77893192D01*
X81373415Y-77979374D01*
X81366800Y-78046541D01*
X81366800Y-78046550D01*
X81364589Y-78069000D01*
X81366800Y-78091450D01*
X81366800Y-78213902D01*
X81348121Y-78236663D01*
X81317460Y-78294027D01*
X81298578Y-78356270D01*
X81292203Y-78421000D01*
X81292203Y-79481000D01*
X81298578Y-79545730D01*
X81317460Y-79607973D01*
X81348121Y-79665337D01*
X81389384Y-79715616D01*
X81439663Y-79756879D01*
X81497027Y-79787540D01*
X81559270Y-79806422D01*
X81622975Y-79812696D01*
X81621553Y-79814825D01*
X81580387Y-79914209D01*
X81559400Y-80019714D01*
X81559400Y-80127286D01*
X81580387Y-80232791D01*
X81621553Y-80332175D01*
X81661000Y-80391212D01*
X81661000Y-80501938D01*
X81649033Y-80562097D01*
X81622043Y-80602491D01*
X81581649Y-80629481D01*
X81521490Y-80641448D01*
X73545510Y-80641448D01*
X73485351Y-80629481D01*
X73444957Y-80602491D01*
X73417967Y-80562097D01*
X73406000Y-80501938D01*
X73406000Y-75688448D01*
X73403560Y-75663671D01*
X73384225Y-75566469D01*
X73376998Y-75542645D01*
X73365262Y-75520689D01*
X73310202Y-75438286D01*
X73294408Y-75419040D01*
X73275162Y-75403246D01*
X73192759Y-75348186D01*
X73170803Y-75336450D01*
X73146979Y-75329223D01*
X73049777Y-75309888D01*
X73025000Y-75307448D01*
X72275510Y-75307448D01*
X72215351Y-75295481D01*
X72174957Y-75268491D01*
X72147967Y-75228097D01*
X72136000Y-75167938D01*
X72136000Y-74882297D01*
X72300000Y-74882297D01*
X72364730Y-74875922D01*
X72426973Y-74857040D01*
X72484337Y-74826379D01*
X72534616Y-74785116D01*
X72575879Y-74734837D01*
X72606540Y-74677473D01*
X72625422Y-74615230D01*
X72631797Y-74550500D01*
X72631797Y-73923714D01*
X84924900Y-73923714D01*
X84924900Y-74031286D01*
X84945887Y-74136791D01*
X84987053Y-74236175D01*
X85046817Y-74325618D01*
X85122882Y-74401683D01*
X85212325Y-74461447D01*
X85311709Y-74502613D01*
X85417214Y-74523600D01*
X85524786Y-74523600D01*
X85630291Y-74502613D01*
X85729675Y-74461447D01*
X85819118Y-74401683D01*
X85895183Y-74325618D01*
X85954947Y-74236175D01*
X85996113Y-74136791D01*
X86017100Y-74031286D01*
X86017100Y-73923714D01*
X85996113Y-73818209D01*
X85954947Y-73718825D01*
X85895183Y-73629382D01*
X85819118Y-73553317D01*
X85729675Y-73493553D01*
X85630291Y-73452387D01*
X85524786Y-73431400D01*
X85417214Y-73431400D01*
X85311709Y-73452387D01*
X85212325Y-73493553D01*
X85122882Y-73553317D01*
X85046817Y-73629382D01*
X84987053Y-73718825D01*
X84945887Y-73818209D01*
X84924900Y-73923714D01*
X72631797Y-73923714D01*
X72631797Y-73490500D01*
X72625422Y-73425770D01*
X72606540Y-73363527D01*
X72575879Y-73306163D01*
X72534616Y-73255884D01*
X72484337Y-73214621D01*
X72426973Y-73183960D01*
X72364730Y-73165078D01*
X72300000Y-73158703D01*
X72136000Y-73158703D01*
X72136000Y-72717214D01*
X88544400Y-72717214D01*
X88544400Y-72824786D01*
X88565387Y-72930291D01*
X88606553Y-73029675D01*
X88666317Y-73119118D01*
X88742382Y-73195183D01*
X88831825Y-73254947D01*
X88931209Y-73296113D01*
X89036714Y-73317100D01*
X89144286Y-73317100D01*
X89249791Y-73296113D01*
X89349175Y-73254947D01*
X89438618Y-73195183D01*
X89514683Y-73119118D01*
X89574447Y-73029675D01*
X89615613Y-72930291D01*
X89636600Y-72824786D01*
X89636600Y-72717214D01*
X91592400Y-72717214D01*
X91592400Y-72824786D01*
X91613387Y-72930291D01*
X91654553Y-73029675D01*
X91714317Y-73119118D01*
X91790382Y-73195183D01*
X91879825Y-73254947D01*
X91979209Y-73296113D01*
X92084714Y-73317100D01*
X92192286Y-73317100D01*
X92297791Y-73296113D01*
X92397175Y-73254947D01*
X92486618Y-73195183D01*
X92562683Y-73119118D01*
X92622447Y-73029675D01*
X92663613Y-72930291D01*
X92684600Y-72824786D01*
X92684600Y-72780714D01*
X110261400Y-72780714D01*
X110261400Y-72888286D01*
X110282387Y-72993791D01*
X110323553Y-73093175D01*
X110383317Y-73182618D01*
X110459382Y-73258683D01*
X110548825Y-73318447D01*
X110648209Y-73359613D01*
X110753714Y-73380600D01*
X110861286Y-73380600D01*
X110966791Y-73359613D01*
X111066175Y-73318447D01*
X111155618Y-73258683D01*
X111231683Y-73182618D01*
X111291447Y-73093175D01*
X111332613Y-72993791D01*
X111353600Y-72888286D01*
X111353600Y-72780714D01*
X111332613Y-72675209D01*
X111291447Y-72575825D01*
X111231683Y-72486382D01*
X111155618Y-72410317D01*
X111066175Y-72350553D01*
X110966791Y-72309387D01*
X110861286Y-72288400D01*
X110753714Y-72288400D01*
X110648209Y-72309387D01*
X110548825Y-72350553D01*
X110459382Y-72410317D01*
X110383317Y-72486382D01*
X110323553Y-72575825D01*
X110282387Y-72675209D01*
X110261400Y-72780714D01*
X92684600Y-72780714D01*
X92684600Y-72717214D01*
X92663613Y-72611709D01*
X92622447Y-72512325D01*
X92562683Y-72422882D01*
X92486618Y-72346817D01*
X92397175Y-72287053D01*
X92297791Y-72245887D01*
X92192286Y-72224900D01*
X92084714Y-72224900D01*
X91979209Y-72245887D01*
X91879825Y-72287053D01*
X91790382Y-72346817D01*
X91714317Y-72422882D01*
X91654553Y-72512325D01*
X91613387Y-72611709D01*
X91592400Y-72717214D01*
X89636600Y-72717214D01*
X89615613Y-72611709D01*
X89574447Y-72512325D01*
X89514683Y-72422882D01*
X89438618Y-72346817D01*
X89349175Y-72287053D01*
X89249791Y-72245887D01*
X89144286Y-72224900D01*
X89036714Y-72224900D01*
X88931209Y-72245887D01*
X88831825Y-72287053D01*
X88742382Y-72346817D01*
X88666317Y-72422882D01*
X88606553Y-72512325D01*
X88565387Y-72611709D01*
X88544400Y-72717214D01*
X72136000Y-72717214D01*
X72136000Y-71763958D01*
X72147967Y-71703799D01*
X72174957Y-71663405D01*
X72215351Y-71636415D01*
X72275510Y-71624448D01*
X74422000Y-71624448D01*
X74446777Y-71622008D01*
X74543979Y-71602673D01*
X74567803Y-71595446D01*
X74589759Y-71583710D01*
X74672162Y-71528650D01*
X74691408Y-71512856D01*
X74707202Y-71493610D01*
X74762262Y-71411207D01*
X74773998Y-71389251D01*
X74781225Y-71365427D01*
X74800560Y-71268225D01*
X74803000Y-71243448D01*
X74803000Y-70100941D01*
X100510600Y-70100941D01*
X100510600Y-70461459D01*
X100580933Y-70815050D01*
X100718897Y-71148125D01*
X100919190Y-71447885D01*
X101174115Y-71702810D01*
X101473875Y-71903103D01*
X101806950Y-72041067D01*
X102160541Y-72111400D01*
X102521059Y-72111400D01*
X102874650Y-72041067D01*
X103207725Y-71903103D01*
X103507485Y-71702810D01*
X103762410Y-71447885D01*
X103962703Y-71148125D01*
X104100667Y-70815050D01*
X104171000Y-70461459D01*
X104171000Y-70100941D01*
X104100667Y-69747350D01*
X103962703Y-69414275D01*
X103762410Y-69114515D01*
X103507485Y-68859590D01*
X103207725Y-68659297D01*
X102874650Y-68521333D01*
X102521059Y-68451000D01*
X102160541Y-68451000D01*
X101806950Y-68521333D01*
X101473875Y-68659297D01*
X101174115Y-68859590D01*
X100919190Y-69114515D01*
X100718897Y-69414275D01*
X100580933Y-69747350D01*
X100510600Y-70100941D01*
X74803000Y-70100941D01*
X74803000Y-69810036D01*
X74876214Y-69824600D01*
X74983786Y-69824600D01*
X75089291Y-69803613D01*
X75188675Y-69762447D01*
X75215750Y-69744356D01*
X75242825Y-69762447D01*
X75342209Y-69803613D01*
X75447714Y-69824600D01*
X75555286Y-69824600D01*
X75660791Y-69803613D01*
X75760175Y-69762447D01*
X75787250Y-69744356D01*
X75814325Y-69762447D01*
X75913709Y-69803613D01*
X76019214Y-69824600D01*
X76126786Y-69824600D01*
X76232291Y-69803613D01*
X76331675Y-69762447D01*
X76358750Y-69744356D01*
X76385825Y-69762447D01*
X76485209Y-69803613D01*
X76590714Y-69824600D01*
X76698286Y-69824600D01*
X76803791Y-69803613D01*
X76903175Y-69762447D01*
X76930250Y-69744356D01*
X76957325Y-69762447D01*
X77056709Y-69803613D01*
X77162214Y-69824600D01*
X77269786Y-69824600D01*
X77375291Y-69803613D01*
X77474675Y-69762447D01*
X77564118Y-69702683D01*
X77640183Y-69626618D01*
X77699947Y-69537175D01*
X77741113Y-69437791D01*
X77762100Y-69332286D01*
X77762100Y-69224714D01*
X77741113Y-69119209D01*
X77699947Y-69019825D01*
X77681856Y-68992750D01*
X77699947Y-68965675D01*
X77741113Y-68866291D01*
X77762100Y-68760786D01*
X77762100Y-68653214D01*
X77741113Y-68547709D01*
X77699947Y-68448325D01*
X77681856Y-68421250D01*
X77699947Y-68394175D01*
X77741113Y-68294791D01*
X77762100Y-68189286D01*
X77762100Y-68081714D01*
X77741113Y-67976209D01*
X77699947Y-67876825D01*
X77681856Y-67849750D01*
X77699947Y-67822675D01*
X77741113Y-67723291D01*
X77762100Y-67617786D01*
X77762100Y-67510214D01*
X77741113Y-67404709D01*
X77699947Y-67305325D01*
X77640183Y-67215882D01*
X77564118Y-67139817D01*
X77474675Y-67080053D01*
X77375291Y-67038887D01*
X77269786Y-67017900D01*
X77162214Y-67017900D01*
X77056709Y-67038887D01*
X76957325Y-67080053D01*
X76930250Y-67098144D01*
X76903175Y-67080053D01*
X76803791Y-67038887D01*
X76698286Y-67017900D01*
X76590714Y-67017900D01*
X76485209Y-67038887D01*
X76385825Y-67080053D01*
X76358750Y-67098144D01*
X76331675Y-67080053D01*
X76232291Y-67038887D01*
X76126786Y-67017900D01*
X76019214Y-67017900D01*
X75913709Y-67038887D01*
X75814325Y-67080053D01*
X75787250Y-67098144D01*
X75760175Y-67080053D01*
X75660791Y-67038887D01*
X75555286Y-67017900D01*
X75447714Y-67017900D01*
X75342209Y-67038887D01*
X75242825Y-67080053D01*
X75215750Y-67098144D01*
X75188675Y-67080053D01*
X75089291Y-67038887D01*
X74983786Y-67017900D01*
X74876214Y-67017900D01*
X74803000Y-67032464D01*
X74803000Y-66686400D01*
X116522500Y-66686400D01*
X116522500Y-71878448D01*
M02*
