M48
; DRILL file {KiCad (5.1.4)-1} date 2/29/2020 9:01:35 PM
; FORMAT={-:-/ absolute / inch / decimal}
; #@! TF.CreationDate,2020-02-29T21:01:35-06:00
; #@! TF.GenerationSoftware,Kicad,Pcbnew,(5.1.4)-1
; #@! TF.FileFunction,Plated,1,4,PTH
FMAT,2
INCH
T1C0.0079
T2C0.0350
T3C0.0354
T4C0.0394
T5C0.0433
%
G90
G05
T1
X1.395Y-3.6925
X1.3975Y-3.76
X1.3975Y-3.792
X1.6075Y-4.1425
X1.6075Y-4.1675
X1.6325Y-4.1425
X1.6325Y-4.1675
X1.6477Y-4.0235
X1.6477Y-4.055
X1.6575Y-4.1425
X1.6575Y-4.1675
X1.6825Y-4.1425
X1.6825Y-4.1675
X1.8042Y-3.7251
X1.8042Y-3.7647
X1.8042Y-3.998
X1.813Y-3.885
X1.8605Y-4.14
X1.872Y-3.885
X1.8908Y-3.7625
X1.91Y-4.3125
X1.9195Y-4.14
X1.9197Y-3.9652
X1.9875Y-3.8255
X2.0Y-4.215
X2.0491Y-4.0387
X2.0491Y-4.0713
X2.05Y-3.7175
X2.05Y-3.7425
X2.05Y-3.7675
X2.0663Y-4.3079
X2.075Y-3.7175
X2.075Y-3.7425
X2.075Y-3.7675
X2.075Y-4.0582
X2.078Y-4.365
X2.09Y-4.438
X2.09Y-4.497
X2.0959Y-4.0387
X2.0959Y-4.0713
X2.0975Y-3.8845
X2.1Y-3.7175
X2.1Y-3.7425
X2.1Y-3.7675
X2.125Y-3.7175
X2.125Y-3.7425
X2.125Y-3.7675
X2.137Y-4.365
X2.15Y-4.0975
X2.15Y-4.415
X2.1508Y-4.2625
X2.1508Y-4.2999
X2.1875Y-3.91
X2.19Y-4.028
X2.19Y-4.087
X2.1925Y-3.187
X2.1925Y-4.2
X2.21Y-4.16
X2.2225Y-4.2025
X2.235Y-4.3
X2.275Y-3.3075
X2.29Y-3.2325
X2.29Y-3.8975
X2.29Y-4.1725
X2.29Y-4.23
X2.2925Y-3.95
X2.3225Y-4.0025
X2.3325Y-3.0075
X2.35Y-3.2375
X2.36Y-4.4155
X2.36Y-4.4475
X2.3833Y-3.165
X2.39Y-3.2375
X2.39Y-3.31
X2.4267Y-3.165
X2.4325Y-4.125
X2.435Y-4.26
X2.445Y-3.85
X2.4475Y-3.31
X2.4525Y-3.9225
X2.5075Y-3.07
X2.51Y-2.7525
X2.51Y-2.7875
X2.525Y-3.405
X2.525Y-3.93
X2.5275Y-3.85
X2.5425Y-3.235
X2.555Y-4.1225
X2.5575Y-3.265
X2.5675Y-4.495
X2.6Y-2.78
X2.6173Y-4.3945
X2.62Y-4.4475
X2.6475Y-4.275
X2.6725Y-3.364
X2.68Y-2.69
X2.6825Y-3.91
X2.69Y-4.17
X2.6925Y-4.23
X2.6975Y-3.035
X2.7175Y-3.2875
X2.72Y-4.2725
X2.74Y-3.235
X2.745Y-2.695
X2.7675Y-3.8575
X2.7875Y-3.2875
X2.8525Y-3.095
X2.8575Y-3.035
X2.95Y-2.66
X2.95Y-2.6825
X2.95Y-2.705
X2.95Y-2.7275
X2.9575Y-2.9075
X2.9575Y-2.9325
X2.9575Y-2.9575
X2.9575Y-2.9825
X2.9725Y-2.66
X2.9725Y-2.6825
X2.9725Y-2.705
X2.9725Y-2.7275
X2.9825Y-2.9075
X2.9825Y-2.9325
X2.9825Y-2.9575
X2.9825Y-2.9825
X2.9875Y-3.8975
X2.995Y-2.66
X2.995Y-2.6825
X2.995Y-2.705
X2.995Y-2.7275
X3.0075Y-2.9075
X3.0075Y-2.9325
X3.0075Y-2.9575
X3.0075Y-2.9825
X3.0175Y-2.66
X3.0175Y-2.6825
X3.0175Y-2.705
X3.0175Y-2.7275
X3.0176Y-3.9606
X3.0325Y-2.9075
X3.0325Y-2.9325
X3.0325Y-2.9575
X3.0325Y-2.9825
X3.04Y-2.66
X3.04Y-2.6825
X3.04Y-2.705
X3.04Y-2.7275
X3.065Y-4.325
X3.075Y-3.0875
X3.075Y-3.1125
X3.075Y-3.1375
X3.075Y-3.1625
X3.1Y-3.0875
X3.1Y-3.1125
X3.1Y-3.1375
X3.1Y-3.1625
X3.12Y-3.9375
X3.125Y-3.0875
X3.125Y-3.1125
X3.125Y-3.1375
X3.125Y-3.1625
X3.15Y-3.0875
X3.15Y-3.1125
X3.15Y-3.1375
X3.15Y-3.1625
X3.1881Y-3.3101
X3.1881Y-3.3849
X3.2025Y-2.953
X3.2325Y-3.1525
X3.2625Y-2.953
X3.2875Y-3.225
X3.32Y-3.2425
X3.3275Y-3.185
X3.3425Y-3.2425
X3.365Y-2.9125
X3.365Y-3.2425
X3.385Y-3.2
X3.3875Y-3.0225
X3.4151Y-3.8975
X3.4225Y-3.2525
X3.4225Y-3.275
X3.4225Y-3.2975
X3.4225Y-3.34
X3.4225Y-3.3625
X3.4225Y-3.385
X3.423Y-4.0125
X3.423Y-4.1275
X3.423Y-4.2425
X3.423Y-4.3575
X3.423Y-4.4725
X3.4425Y-3.2125
X3.453Y-3.4375
X3.4548Y-3.0748
X3.4548Y-3.1102
X3.465Y-3.87
X3.4725Y-3.0925
X3.482Y-4.0125
X3.482Y-4.1275
X3.482Y-4.2425
X3.482Y-4.3575
X3.482Y-4.4725
X3.4902Y-3.0748
X3.4902Y-3.1102
X3.4925Y-3.9575
X3.5Y-4.0775
X3.5075Y-2.865
X3.5175Y-4.33
X3.52Y-4.2
X3.5225Y-3.795
X3.5375Y-3.4675
X3.5375Y-3.4925
X3.5375Y-3.5175
X3.5375Y-3.5425
X3.5375Y-3.5675
X3.5625Y-3.4675
X3.5625Y-3.4925
X3.5625Y-3.5175
X3.5625Y-3.5425
X3.5625Y-3.5675
X3.585Y-3.15
X3.5875Y-3.063
X3.5875Y-3.4675
X3.5875Y-3.4925
X3.5875Y-3.5175
X3.5875Y-3.5425
X3.5875Y-3.5675
X3.6125Y-3.4675
X3.6125Y-3.4925
X3.6125Y-3.5175
X3.6125Y-3.5425
X3.6125Y-3.5675
X3.6275Y-2.865
X3.6375Y-3.4675
X3.6375Y-3.4925
X3.6375Y-3.5175
X3.6375Y-3.5425
X3.6375Y-3.5675
X3.6625Y-3.4675
X3.6625Y-3.4925
X3.6625Y-3.5175
X3.6625Y-3.5425
X3.6625Y-3.5675
X3.6875Y-3.4675
X3.6875Y-3.4925
X3.6875Y-3.5175
X3.6875Y-3.5425
X3.6875Y-3.5675
X3.695Y-3.2125
X3.7125Y-3.4675
X3.7125Y-3.4925
X3.7125Y-3.5175
X3.7125Y-3.5425
X3.7125Y-3.5675
X3.7375Y-3.4675
X3.7375Y-3.4925
X3.7375Y-3.5175
X3.7375Y-3.5425
X3.7375Y-3.5675
X3.7625Y-3.4675
X3.7625Y-3.4925
X3.7625Y-3.5175
X3.7625Y-3.5425
X3.7625Y-3.5675
X3.8094Y-3.2317
X3.8125Y-3.09
X3.8125Y-3.115
X3.8125Y-3.14
X3.8125Y-3.165
X3.83Y-3.44
X3.8375Y-3.09
X3.8375Y-3.115
X3.8375Y-3.14
X3.8375Y-3.165
X3.8595Y-3.38
X3.8625Y-3.09
X3.8625Y-3.115
X3.8625Y-3.14
X3.8625Y-3.165
X3.8725Y-3.9575
X3.8875Y-3.09
X3.8875Y-3.115
X3.8875Y-3.14
X3.8875Y-3.165
X3.91Y-4.524
X3.925Y-4.0195
X3.9256Y-3.3026
X3.9256Y-3.3774
X3.938Y-2.9825
X3.945Y-4.2075
X3.98Y-3.67
X3.987Y-4.0225
X3.995Y-3.4925
X3.997Y-2.9825
X4.005Y-3.7
X4.045Y-3.67
X4.045Y-4.0325
X4.055Y-3.2425
X4.0675Y-3.67
X4.0675Y-4.0325
X4.0775Y-3.2425
X4.0825Y-4.098
X4.0825Y-4.157
X4.09Y-3.67
X4.09Y-4.0325
X4.1Y-3.2425
X4.12Y-2.9975
X4.12Y-3.0275
X4.1575Y-3.2525
X4.1575Y-3.275
X4.1575Y-3.2975
X4.1575Y-3.34
X4.1575Y-3.3625
X4.1575Y-3.385
X4.1775Y-3.19
X4.1897Y-3.0748
X4.1897Y-3.1102
X4.2075Y-3.0925
X4.2251Y-3.0748
X4.2251Y-3.1102
X4.235Y-3.2175
X4.24Y-4.1825
X4.245Y-4.27
X4.245Y-4.47
X4.2675Y-3.68
X4.3025Y-2.9225
X4.3175Y-3.5625
X4.32Y-3.0475
X4.32Y-3.155
X4.3625Y-2.8675
X4.3625Y-3.5225
X4.3875Y-3.6475
X4.39Y-3.49
X4.43Y-3.4125
X4.46Y-3.1975
X4.4775Y-4.335
X4.495Y-2.88
X4.495Y-2.905
X4.495Y-2.93
X4.495Y-2.955
X4.4975Y-3.4815
X4.5175Y-3.1675
X4.52Y-2.88
X4.52Y-2.905
X4.52Y-2.93
X4.52Y-2.955
X4.5325Y-3.1925
X4.545Y-2.88
X4.545Y-2.905
X4.545Y-2.93
X4.545Y-2.955
X4.56Y-3.275
X4.57Y-2.88
X4.57Y-2.905
X4.57Y-2.93
X4.57Y-2.955
X4.575Y-3.44
X4.59Y-4.36
X4.6045Y-3.38
X4.6069Y-3.1669
X4.6081Y-3.0901
X4.6205Y-2.7425
X4.6475Y-2.97
X4.6475Y-3.025
X4.6476Y-2.9325
X4.6481Y-3.57
X4.6775Y-3.9775
X4.6775Y-4.0025
X4.6775Y-4.0275
X4.6775Y-4.0525
X4.6795Y-2.7425
X4.7025Y-3.9775
X4.7025Y-4.0025
X4.7025Y-4.0275
X4.7025Y-4.0525
X4.7125Y-2.765
X4.7275Y-3.9775
X4.7275Y-4.0025
X4.7275Y-4.0275
X4.7275Y-4.0525
X4.7375Y-3.03
X4.7525Y-3.9775
X4.7525Y-4.0025
X4.7525Y-4.0275
X4.7525Y-4.0525
X4.755Y-2.6775
X4.76Y-3.03
X4.7825Y-3.03
X4.785Y-4.5035
X4.8025Y-3.355
X4.805Y-2.8125
X4.8075Y-4.5225
X4.81Y-4.335
X4.82Y-4.4275
X4.84Y-3.04
X4.84Y-3.0625
X4.84Y-3.085
X4.84Y-3.1275
X4.84Y-3.15
X4.84Y-3.1725
X4.8497Y-4.1456
X4.8497Y-4.1944
X4.8551Y-3.8242
X4.8551Y-3.9108
X4.86Y-2.9775
X4.8703Y-3.225
X4.8721Y-2.8623
X4.8721Y-2.8977
X4.8803Y-4.1456
X4.8803Y-4.1944
X4.89Y-2.88
X4.9075Y-2.8623
X4.9075Y-2.8977
X4.9175Y-3.01
X4.9425Y-3.985
X4.9675Y-4.195
X4.985Y-2.7075
X4.995Y-3.9825
X4.9975Y-3.6675
X5.0025Y-2.8225
X5.0025Y-2.94
X5.01Y-3.583
X5.0325Y-4.0575
X5.045Y-2.705
X5.045Y-3.73
X5.0725Y-3.0025
X5.1175Y-2.98
X5.125Y-3.465
X5.125Y-3.57
X5.205Y-2.7375
X5.205Y-3.46
X5.21Y-3.8275
X5.21Y-3.85
X5.21Y-3.8725
X5.21Y-3.895
X5.2325Y-3.8275
X5.2325Y-3.85
X5.2325Y-3.8725
X5.2325Y-3.895
X5.2525Y-3.23
X5.255Y-3.8275
X5.255Y-3.85
X5.255Y-3.8725
X5.255Y-3.895
X5.2575Y-3.0525
X5.2795Y-3.1675
X5.3125Y-3.5035
X5.3225Y-3.23
X5.325Y-3.1875
X5.413Y-2.8125
X5.413Y-2.9825
X5.413Y-3.155
X5.435Y-2.905
X5.4475Y-3.035
X5.45Y-2.705
X5.45Y-2.8675
X5.472Y-2.8125
X5.472Y-2.9825
X5.472Y-3.155
X5.59Y-4.455
X5.6025Y-4.485
X5.62Y-2.9675
X5.6675Y-2.9675
X5.675Y-3.0
X5.6825Y-3.535
X5.71Y-3.1875
X5.7375Y-3.2075
X5.745Y-3.1725
X5.973Y-3.005
X5.973Y-3.175
X6.0025Y-3.335
X6.0075Y-2.885
X6.01Y-3.0575
X6.032Y-3.005
X6.032Y-3.175
X6.1294Y-4.3969
X6.13Y-3.4075
X6.2075Y-3.44
X6.2325Y-4.37
X6.523Y-3.0575
X6.523Y-3.2275
X6.5325Y-4.2
X6.546Y-2.9811
X6.5475Y-3.155
X6.5611Y-2.9439
X6.5625Y-3.115
X6.5641Y-4.2
X6.582Y-3.0575
X6.582Y-3.2275
X6.618Y-3.965
X6.6275Y-4.0456
X6.63Y-4.1225
X6.645Y-4.1856
X6.67Y-4.24
X6.675Y-4.16
X6.677Y-3.965
X6.72Y-3.829
X6.7213Y-3.7709
X6.7384Y-4.16
X6.7425Y-4.2984
X6.7425Y-4.4166
X6.7725Y-3.515
X6.7725Y-3.5475
X6.7725Y-3.91
X6.7775Y-2.785
X6.78Y-4.3525
X6.7855Y-3.615
X6.815Y-3.615
X6.815Y-4.5425
X6.8175Y-3.675
X6.8325Y-3.44
X6.8375Y-3.3425
X6.855Y-4.445
X6.8566Y-4.16
X6.86Y-3.5125
X6.86Y-3.545
X6.8697Y-4.3131
X6.8697Y-4.3619
X6.9Y-2.825
X6.9003Y-4.3131
X6.9003Y-4.3619
X6.9125Y-4.4225
X6.915Y-3.7275
X6.93Y-3.2775
X6.9471Y-2.9896
X6.9675Y-4.13
X6.97Y-3.6031
X6.975Y-4.2775
X6.975Y-4.51
X6.9825Y-2.7205
X7.0038Y-4.1758
X7.005Y-4.3225
X7.005Y-4.4425
X7.01Y-3.9675
X7.015Y-3.4325
X7.0275Y-4.3225
X7.0275Y-4.4425
X7.045Y-3.6031
X7.045Y-3.6819
X7.045Y-3.8325
X7.05Y-4.3225
X7.05Y-4.4425
X7.0725Y-3.9405
X7.11Y-2.885
X7.115Y-4.08
X7.115Y-4.1025
X7.115Y-4.125
X7.115Y-4.36
X7.115Y-4.405
X7.1425Y-3.68
X7.1425Y-3.743
X7.1425Y-3.802
X7.1525Y-4.0625
X7.1525Y-4.085
X7.1525Y-4.1075
X7.1525Y-4.3825
X7.1655Y-4.5025
X7.19Y-4.36
X7.19Y-4.405
X7.1975Y-3.488
X7.1975Y-3.547
X7.2Y-3.615
X7.2025Y-3.64
X7.22Y-3.8625
X7.2225Y-3.025
X7.2245Y-4.5025
X7.2575Y-4.325
X7.2575Y-4.4425
X7.265Y-2.975
X7.2725Y-4.0625
X7.2725Y-4.085
X7.2725Y-4.1075
X7.28Y-4.325
X7.28Y-4.4425
X7.2825Y-3.86
X7.285Y-3.6775
X7.3025Y-4.325
X7.3025Y-4.4425
X7.32Y-4.55
X7.3375Y-3.7025
X7.3575Y-3.7175
X7.37Y-3.33
X7.375Y-3.975
X7.375Y-4.0
X7.375Y-4.025
X7.375Y-4.05
X7.375Y-4.075
X7.375Y-4.1
X7.375Y-4.125
X7.387Y-2.8875
X7.4Y-3.975
X7.4Y-4.0
X7.4Y-4.025
X7.4Y-4.05
X7.4Y-4.075
X7.4Y-4.1
X7.4Y-4.125
X7.425Y-3.975
X7.425Y-4.0
X7.425Y-4.025
X7.425Y-4.05
X7.425Y-4.075
X7.425Y-4.1
X7.425Y-4.125
X7.44Y-3.1025
X7.45Y-3.975
X7.45Y-4.0
X7.45Y-4.025
X7.45Y-4.05
X7.45Y-4.075
X7.45Y-4.1
X7.45Y-4.125
X7.4575Y-3.37
X7.4594Y-4.2706
X7.4675Y-3.31
X7.47Y-3.0425
X7.47Y-3.0975
X7.475Y-3.975
X7.475Y-4.0
X7.475Y-4.025
X7.475Y-4.05
X7.475Y-4.075
X7.475Y-4.1
X7.475Y-4.125
X7.485Y-4.315
X7.485Y-4.4075
X7.49Y-3.375
X7.5Y-3.31
X7.5Y-3.975
X7.5Y-4.0
X7.5Y-4.025
X7.5Y-4.05
X7.5Y-4.075
X7.5Y-4.1
X7.5Y-4.125
X7.5025Y-4.4919
X7.505Y-4.385
X7.5145Y-4.2725
X7.515Y-3.915
X7.5226Y-3.3006
X7.525Y-2.8725
X7.525Y-3.975
X7.525Y-4.0
X7.525Y-4.025
X7.525Y-4.05
X7.525Y-4.075
X7.525Y-4.1
X7.525Y-4.125
X7.538Y-3.01
X7.5425Y-3.2875
X7.5425Y-4.3575
X7.57Y-4.375
X7.5725Y-2.871
X7.58Y-3.7725
X7.595Y-4.09
X7.5955Y-4.045
X7.597Y-3.01
X7.6Y-4.2775
X7.6Y-4.3375
X7.6025Y-3.7775
X7.625Y-4.473
X7.625Y-4.532
X7.635Y-3.7275
X7.6375Y-4.23
X7.65Y-3.7575
X7.6545Y-4.045
X7.6556Y-3.8819
X7.6625Y-4.0825
X7.6707Y-3.898
X7.7055Y-2.955
X7.7124Y-4.4234
X7.7375Y-4.1825
X7.745Y-2.8975
X7.76Y-2.8725
X7.7645Y-2.955
X7.765Y-4.325
X7.7675Y-4.29
X7.7705Y-4.1
X7.7743Y-3.18
X7.7875Y-2.9175
X7.8225Y-3.285
X7.8266Y-4.5238
X7.8275Y-2.925
X7.8295Y-4.1
X7.86Y-3.275
X7.8738Y-4.5238
X7.875Y-4.0725
X7.8825Y-4.1
X7.895Y-2.925
X7.895Y-3.28
X7.9211Y-4.1812
X7.93Y-2.82
X7.9325Y-3.5225
X7.945Y-3.3925
X7.95Y-2.845
X7.95Y-3.2725
X8.0025Y-3.2675
X8.0231Y-3.2431
X8.035Y-3.22
X8.0375Y-2.96
X8.0475Y-3.2
X8.0625Y-3.545
X8.0798Y-3.5603
X8.1675Y-2.7675
X8.225Y-3.005
X8.2325Y-3.4855
X8.2875Y-3.5445
X8.2925Y-3.424
X8.295Y-3.3825
X8.3059Y-3.3634
X8.31Y-3.405
X8.315Y-2.78
X8.3175Y-3.4425
X8.3202Y-3.4643
X8.33Y-3.5425
X8.33Y-3.5825
X8.33Y-3.6225
X8.33Y-3.6625
X8.3475Y-3.5225
X8.3475Y-3.5625
X8.3475Y-3.6025
X8.3475Y-3.6425
X8.3575Y-3.3449
X8.3625Y-3.3225
X8.3825Y-2.9675
X8.4Y-3.7025
X8.4075Y-3.3
X8.4075Y-3.4875
X8.435Y-3.105
X8.4425Y-3.5925
X8.4675Y-3.2825
X8.47Y-3.1175
X8.47Y-3.1575
X8.47Y-3.1975
X8.47Y-3.2375
X8.4825Y-3.0975
X8.4825Y-3.1375
X8.4825Y-3.1775
X8.4825Y-3.2175
X8.4925Y-3.495
X8.515Y-2.698
X8.515Y-2.757
X8.5225Y-3.3025
X8.5375Y-2.8925
X8.5375Y-2.9525
X8.5425Y-3.8425
X8.545Y-3.9575
X8.5575Y-3.28
X8.56Y-2.995
X8.5675Y-3.8425
X8.57Y-3.9575
X8.5725Y-2.775
X8.578Y-3.3325
X8.6075Y-3.1875
X8.615Y-3.49
X8.615Y-3.53
X8.615Y-3.57
X8.6175Y-3.0675
X8.621Y-3.6081
X8.63Y-3.47
X8.63Y-3.51
X8.63Y-3.55
X8.6304Y-2.7272
X8.6309Y-3.5884
X8.64Y-3.2825
X8.645Y-3.0925
X8.6625Y-4.2975
X8.6825Y-2.8831
X8.6825Y-2.9619
X8.685Y-3.44
X8.685Y-4.1625
X8.693Y-3.335
X8.6975Y-4.3725
X8.7225Y-3.54
X8.7228Y-3.385
X8.725Y-2.7175
X8.735Y-4.3725
X8.7394Y-3.2362
X8.74Y-2.6975
X8.74Y-3.12
X8.74Y-3.1575
X8.74Y-3.1975
X8.7425Y-3.2625
X8.752Y-3.335
X8.7525Y-3.1775
X8.7525Y-3.2175
X8.7528Y-3.1379
X8.7575Y-2.8831
X8.7625Y-3.6615
X8.775Y-3.445
X8.7875Y-3.665
X8.81Y-3.655
X8.8125Y-4.23
X8.8125Y-4.3
X8.82Y-3.005
X8.8325Y-3.275
X8.835Y-3.6625
X8.8575Y-3.6491
X8.86Y-4.3725
X8.88Y-3.6475
X8.9025Y-2.8925
X8.9025Y-2.9525
X8.9025Y-3.6325
X8.925Y-3.6175
X8.925Y-4.0125
X8.9462Y-3.6962
X8.95Y-3.6175
X8.9925Y-3.3365
X9.0375Y-3.6975
X9.0425Y-3.855
X9.0525Y-3.4
X9.0525Y-3.3675
X9.0525Y-3.43
X9.0525Y-3.4625
X9.0525Y-3.495
X9.0525Y-3.525
X9.0525Y-3.5575
X9.0525Y-3.5875
X9.0525Y-3.62
X9.0525Y-3.65
X9.1245Y-3.2105
X9.1245Y-3.242
X9.1245Y-3.2735
X9.1245Y-3.305
X9.1245Y-3.3365
X9.1245Y-3.683
X9.1245Y-3.7145
X9.1245Y-3.746
X9.1245Y-3.7775
X9.1245Y-3.809
X9.1245Y-3.8405
X9.1245Y-3.872
X9.1245Y-3.9035
X9.1245Y-3.935
X9.1245Y-3.9665
X9.1245Y-3.998
X9.1245Y-4.0295
X9.1245Y-4.061
T2
X9.0585Y-3.0177
X9.0585Y-4.1907
T3
X8.3675Y-4.1825
X8.3675Y-4.34
T4
X2.7675Y-4.07
X2.8675Y-4.07
X2.9675Y-4.07
X7.5113Y-2.734
X7.6113Y-2.734
X7.7113Y-2.734
X7.8113Y-2.734
X7.9113Y-2.734
X8.0113Y-2.734
X1.715Y-4.4825
X2.7675Y-4.4725
X2.8675Y-4.4725
X2.9675Y-4.4725
X8.15Y-3.9675
X8.25Y-3.9675
X8.35Y-3.9675
X5.985Y-2.7025
X5.5125Y-3.5625
X5.5125Y-4.1625
X5.8125Y-3.8625
T5
X8.1566Y-2.6828
X8.1566Y-2.86
X8.4125Y-2.6828
X8.4125Y-2.86
T4
G00X1.76Y-2.83
M15
G01X1.76Y-2.9088
M16
G05
G00X1.9844Y-2.7513
M15
G01X1.9056Y-2.7513
M16
G05
G00X1.9844Y-2.9875
M15
G01X1.9056Y-2.9875
M16
G05
T0
M30
