G04 #@! TF.GenerationSoftware,KiCad,Pcbnew,(5.1.4)-1*
G04 #@! TF.CreationDate,2020-02-29T21:01:33-06:00*
G04 #@! TF.ProjectId,VFD_Clock,5646445f-436c-46f6-936b-2e6b69636164,rev?*
G04 #@! TF.SameCoordinates,Original*
G04 #@! TF.FileFunction,Legend,Bot*
G04 #@! TF.FilePolarity,Positive*
%FSLAX46Y46*%
G04 Gerber Fmt 4.6, Leading zero omitted, Abs format (unit mm)*
G04 Created by KiCad (PCBNEW (5.1.4)-1) date 2020-02-29 21:01:33*
%MOMM*%
%LPD*%
G04 APERTURE LIST*
%ADD10C,0.150000*%
%ADD11C,0.010000*%
%ADD12C,0.120000*%
%ADD13C,0.152400*%
%ADD14C,0.300000*%
G04 APERTURE END LIST*
D10*
X84373476Y-108372642D02*
X84421095Y-108420261D01*
X84563952Y-108467880D01*
X84659190Y-108467880D01*
X84802047Y-108420261D01*
X84897285Y-108325023D01*
X84944904Y-108229785D01*
X84992523Y-108039309D01*
X84992523Y-107896452D01*
X84944904Y-107705976D01*
X84897285Y-107610738D01*
X84802047Y-107515500D01*
X84659190Y-107467880D01*
X84563952Y-107467880D01*
X84421095Y-107515500D01*
X84373476Y-107563119D01*
X83802047Y-108467880D02*
X83897285Y-108420261D01*
X83944904Y-108372642D01*
X83992523Y-108277404D01*
X83992523Y-107991690D01*
X83944904Y-107896452D01*
X83897285Y-107848833D01*
X83802047Y-107801214D01*
X83659190Y-107801214D01*
X83563952Y-107848833D01*
X83516333Y-107896452D01*
X83468714Y-107991690D01*
X83468714Y-108277404D01*
X83516333Y-108372642D01*
X83563952Y-108420261D01*
X83659190Y-108467880D01*
X83802047Y-108467880D01*
X83040142Y-108467880D02*
X83040142Y-107801214D01*
X83040142Y-107896452D02*
X82992523Y-107848833D01*
X82897285Y-107801214D01*
X82754428Y-107801214D01*
X82659190Y-107848833D01*
X82611571Y-107944071D01*
X82611571Y-108467880D01*
X82611571Y-107944071D02*
X82563952Y-107848833D01*
X82468714Y-107801214D01*
X82325857Y-107801214D01*
X82230619Y-107848833D01*
X82183000Y-107944071D01*
X82183000Y-108467880D01*
X81706809Y-107801214D02*
X81706809Y-108801214D01*
X81706809Y-107848833D02*
X81611571Y-107801214D01*
X81421095Y-107801214D01*
X81325857Y-107848833D01*
X81278238Y-107896452D01*
X81230619Y-107991690D01*
X81230619Y-108277404D01*
X81278238Y-108372642D01*
X81325857Y-108420261D01*
X81421095Y-108467880D01*
X81611571Y-108467880D01*
X81706809Y-108420261D01*
X80659190Y-108467880D02*
X80754428Y-108420261D01*
X80802047Y-108372642D01*
X80849666Y-108277404D01*
X80849666Y-107991690D01*
X80802047Y-107896452D01*
X80754428Y-107848833D01*
X80659190Y-107801214D01*
X80516333Y-107801214D01*
X80421095Y-107848833D01*
X80373476Y-107896452D01*
X80325857Y-107991690D01*
X80325857Y-108277404D01*
X80373476Y-108372642D01*
X80421095Y-108420261D01*
X80516333Y-108467880D01*
X80659190Y-108467880D01*
X79897285Y-107801214D02*
X79897285Y-108467880D01*
X79897285Y-107896452D02*
X79849666Y-107848833D01*
X79754428Y-107801214D01*
X79611571Y-107801214D01*
X79516333Y-107848833D01*
X79468714Y-107944071D01*
X79468714Y-108467880D01*
X78611571Y-108420261D02*
X78706809Y-108467880D01*
X78897285Y-108467880D01*
X78992523Y-108420261D01*
X79040142Y-108325023D01*
X79040142Y-107944071D01*
X78992523Y-107848833D01*
X78897285Y-107801214D01*
X78706809Y-107801214D01*
X78611571Y-107848833D01*
X78563952Y-107944071D01*
X78563952Y-108039309D01*
X79040142Y-108134547D01*
X78135380Y-107801214D02*
X78135380Y-108467880D01*
X78135380Y-107896452D02*
X78087761Y-107848833D01*
X77992523Y-107801214D01*
X77849666Y-107801214D01*
X77754428Y-107848833D01*
X77706809Y-107944071D01*
X77706809Y-108467880D01*
X77373476Y-107801214D02*
X76992523Y-107801214D01*
X77230619Y-107467880D02*
X77230619Y-108325023D01*
X77183000Y-108420261D01*
X77087761Y-108467880D01*
X76992523Y-108467880D01*
X76706809Y-108420261D02*
X76611571Y-108467880D01*
X76421095Y-108467880D01*
X76325857Y-108420261D01*
X76278238Y-108325023D01*
X76278238Y-108277404D01*
X76325857Y-108182166D01*
X76421095Y-108134547D01*
X76563952Y-108134547D01*
X76659190Y-108086928D01*
X76706809Y-107991690D01*
X76706809Y-107944071D01*
X76659190Y-107848833D01*
X76563952Y-107801214D01*
X76421095Y-107801214D01*
X76325857Y-107848833D01*
X75849666Y-108372642D02*
X75802047Y-108420261D01*
X75849666Y-108467880D01*
X75897285Y-108420261D01*
X75849666Y-108372642D01*
X75849666Y-108467880D01*
X75849666Y-107848833D02*
X75802047Y-107896452D01*
X75849666Y-107944071D01*
X75897285Y-107896452D01*
X75849666Y-107848833D01*
X75849666Y-107944071D01*
X74135380Y-107467880D02*
X74611571Y-107467880D01*
X74659190Y-107944071D01*
X74611571Y-107896452D01*
X74516333Y-107848833D01*
X74278238Y-107848833D01*
X74183000Y-107896452D01*
X74135380Y-107944071D01*
X74087761Y-108039309D01*
X74087761Y-108277404D01*
X74135380Y-108372642D01*
X74183000Y-108420261D01*
X74278238Y-108467880D01*
X74516333Y-108467880D01*
X74611571Y-108420261D01*
X74659190Y-108372642D01*
X73135380Y-108467880D02*
X73706809Y-108467880D01*
X73421095Y-108467880D02*
X73421095Y-107467880D01*
X73516333Y-107610738D01*
X73611571Y-107705976D01*
X73706809Y-107753595D01*
X72230619Y-107467880D02*
X72706809Y-107467880D01*
X72754428Y-107944071D01*
X72706809Y-107896452D01*
X72611571Y-107848833D01*
X72373476Y-107848833D01*
X72278238Y-107896452D01*
X72230619Y-107944071D01*
X72183000Y-108039309D01*
X72183000Y-108277404D01*
X72230619Y-108372642D01*
X72278238Y-108420261D01*
X72373476Y-108467880D01*
X72611571Y-108467880D01*
X72706809Y-108420261D01*
X72754428Y-108372642D01*
X85087761Y-109117880D02*
X84516333Y-109117880D01*
X84802047Y-110117880D02*
X84802047Y-109117880D01*
X84183000Y-110117880D02*
X84183000Y-109451214D01*
X84183000Y-109641690D02*
X84135380Y-109546452D01*
X84087761Y-109498833D01*
X83992523Y-109451214D01*
X83897285Y-109451214D01*
X83135380Y-110117880D02*
X83135380Y-109594071D01*
X83183000Y-109498833D01*
X83278238Y-109451214D01*
X83468714Y-109451214D01*
X83563952Y-109498833D01*
X83135380Y-110070261D02*
X83230619Y-110117880D01*
X83468714Y-110117880D01*
X83563952Y-110070261D01*
X83611571Y-109975023D01*
X83611571Y-109879785D01*
X83563952Y-109784547D01*
X83468714Y-109736928D01*
X83230619Y-109736928D01*
X83135380Y-109689309D01*
X82230619Y-110070261D02*
X82325857Y-110117880D01*
X82516333Y-110117880D01*
X82611571Y-110070261D01*
X82659190Y-110022642D01*
X82706809Y-109927404D01*
X82706809Y-109641690D01*
X82659190Y-109546452D01*
X82611571Y-109498833D01*
X82516333Y-109451214D01*
X82325857Y-109451214D01*
X82230619Y-109498833D01*
X81802047Y-110117880D02*
X81802047Y-109117880D01*
X81706809Y-109736928D02*
X81421095Y-110117880D01*
X81421095Y-109451214D02*
X81802047Y-109832166D01*
X80278238Y-110070261D02*
X80135380Y-110117880D01*
X79897285Y-110117880D01*
X79802047Y-110070261D01*
X79754428Y-110022642D01*
X79706809Y-109927404D01*
X79706809Y-109832166D01*
X79754428Y-109736928D01*
X79802047Y-109689309D01*
X79897285Y-109641690D01*
X80087761Y-109594071D01*
X80183000Y-109546452D01*
X80230619Y-109498833D01*
X80278238Y-109403595D01*
X80278238Y-109308357D01*
X80230619Y-109213119D01*
X80183000Y-109165500D01*
X80087761Y-109117880D01*
X79849666Y-109117880D01*
X79706809Y-109165500D01*
X78897285Y-110070261D02*
X78992523Y-110117880D01*
X79183000Y-110117880D01*
X79278238Y-110070261D01*
X79325857Y-109975023D01*
X79325857Y-109594071D01*
X79278238Y-109498833D01*
X79183000Y-109451214D01*
X78992523Y-109451214D01*
X78897285Y-109498833D01*
X78849666Y-109594071D01*
X78849666Y-109689309D01*
X79325857Y-109784547D01*
X77992523Y-109451214D02*
X77992523Y-110260738D01*
X78040142Y-110355976D01*
X78087761Y-110403595D01*
X78183000Y-110451214D01*
X78325857Y-110451214D01*
X78421095Y-110403595D01*
X77992523Y-110070261D02*
X78087761Y-110117880D01*
X78278238Y-110117880D01*
X78373476Y-110070261D01*
X78421095Y-110022642D01*
X78468714Y-109927404D01*
X78468714Y-109641690D01*
X78421095Y-109546452D01*
X78373476Y-109498833D01*
X78278238Y-109451214D01*
X78087761Y-109451214D01*
X77992523Y-109498833D01*
X77516333Y-110117880D02*
X77516333Y-109451214D01*
X77516333Y-109546452D02*
X77468714Y-109498833D01*
X77373476Y-109451214D01*
X77230619Y-109451214D01*
X77135380Y-109498833D01*
X77087761Y-109594071D01*
X77087761Y-110117880D01*
X77087761Y-109594071D02*
X77040142Y-109498833D01*
X76944904Y-109451214D01*
X76802047Y-109451214D01*
X76706809Y-109498833D01*
X76659190Y-109594071D01*
X76659190Y-110117880D01*
X75802047Y-110070261D02*
X75897285Y-110117880D01*
X76087761Y-110117880D01*
X76183000Y-110070261D01*
X76230619Y-109975023D01*
X76230619Y-109594071D01*
X76183000Y-109498833D01*
X76087761Y-109451214D01*
X75897285Y-109451214D01*
X75802047Y-109498833D01*
X75754428Y-109594071D01*
X75754428Y-109689309D01*
X76230619Y-109784547D01*
X75325857Y-109451214D02*
X75325857Y-110117880D01*
X75325857Y-109546452D02*
X75278238Y-109498833D01*
X75183000Y-109451214D01*
X75040142Y-109451214D01*
X74944904Y-109498833D01*
X74897285Y-109594071D01*
X74897285Y-110117880D01*
X74563952Y-109451214D02*
X74183000Y-109451214D01*
X74421095Y-109117880D02*
X74421095Y-109975023D01*
X74373476Y-110070261D01*
X74278238Y-110117880D01*
X74183000Y-110117880D01*
X73897285Y-110070261D02*
X73802047Y-110117880D01*
X73611571Y-110117880D01*
X73516333Y-110070261D01*
X73468714Y-109975023D01*
X73468714Y-109927404D01*
X73516333Y-109832166D01*
X73611571Y-109784547D01*
X73754428Y-109784547D01*
X73849666Y-109736928D01*
X73897285Y-109641690D01*
X73897285Y-109594071D01*
X73849666Y-109498833D01*
X73754428Y-109451214D01*
X73611571Y-109451214D01*
X73516333Y-109498833D01*
X73040142Y-110022642D02*
X72992523Y-110070261D01*
X73040142Y-110117880D01*
X73087761Y-110070261D01*
X73040142Y-110022642D01*
X73040142Y-110117880D01*
X73040142Y-109498833D02*
X72992523Y-109546452D01*
X73040142Y-109594071D01*
X73087761Y-109546452D01*
X73040142Y-109498833D01*
X73040142Y-109594071D01*
X71897285Y-109117880D02*
X71278238Y-109117880D01*
X71611571Y-109498833D01*
X71468714Y-109498833D01*
X71373476Y-109546452D01*
X71325857Y-109594071D01*
X71278238Y-109689309D01*
X71278238Y-109927404D01*
X71325857Y-110022642D01*
X71373476Y-110070261D01*
X71468714Y-110117880D01*
X71754428Y-110117880D01*
X71849666Y-110070261D01*
X71897285Y-110022642D01*
X70373476Y-109117880D02*
X70849666Y-109117880D01*
X70897285Y-109594071D01*
X70849666Y-109546452D01*
X70754428Y-109498833D01*
X70516333Y-109498833D01*
X70421095Y-109546452D01*
X70373476Y-109594071D01*
X70325857Y-109689309D01*
X70325857Y-109927404D01*
X70373476Y-110022642D01*
X70421095Y-110070261D01*
X70516333Y-110117880D01*
X70754428Y-110117880D01*
X70849666Y-110070261D01*
X70897285Y-110022642D01*
X69992523Y-109117880D02*
X69373476Y-109117880D01*
X69706809Y-109498833D01*
X69563952Y-109498833D01*
X69468714Y-109546452D01*
X69421095Y-109594071D01*
X69373476Y-109689309D01*
X69373476Y-109927404D01*
X69421095Y-110022642D01*
X69468714Y-110070261D01*
X69563952Y-110117880D01*
X69849666Y-110117880D01*
X69944904Y-110070261D01*
X69992523Y-110022642D01*
X68468714Y-109117880D02*
X68944904Y-109117880D01*
X68992523Y-109594071D01*
X68944904Y-109546452D01*
X68849666Y-109498833D01*
X68611571Y-109498833D01*
X68516333Y-109546452D01*
X68468714Y-109594071D01*
X68421095Y-109689309D01*
X68421095Y-109927404D01*
X68468714Y-110022642D01*
X68516333Y-110070261D01*
X68611571Y-110117880D01*
X68849666Y-110117880D01*
X68944904Y-110070261D01*
X68992523Y-110022642D01*
X84944904Y-111767880D02*
X84944904Y-110767880D01*
X84563952Y-110767880D01*
X84468714Y-110815500D01*
X84421095Y-110863119D01*
X84373476Y-110958357D01*
X84373476Y-111101214D01*
X84421095Y-111196452D01*
X84468714Y-111244071D01*
X84563952Y-111291690D01*
X84944904Y-111291690D01*
X83516333Y-111767880D02*
X83516333Y-111244071D01*
X83563952Y-111148833D01*
X83659190Y-111101214D01*
X83849666Y-111101214D01*
X83944904Y-111148833D01*
X83516333Y-111720261D02*
X83611571Y-111767880D01*
X83849666Y-111767880D01*
X83944904Y-111720261D01*
X83992523Y-111625023D01*
X83992523Y-111529785D01*
X83944904Y-111434547D01*
X83849666Y-111386928D01*
X83611571Y-111386928D01*
X83516333Y-111339309D01*
X82611571Y-111767880D02*
X82611571Y-110767880D01*
X82611571Y-111720261D02*
X82706809Y-111767880D01*
X82897285Y-111767880D01*
X82992523Y-111720261D01*
X83040142Y-111672642D01*
X83087761Y-111577404D01*
X83087761Y-111291690D01*
X83040142Y-111196452D01*
X82992523Y-111148833D01*
X82897285Y-111101214D01*
X82706809Y-111101214D01*
X82611571Y-111148833D01*
X82183000Y-111720261D02*
X82087761Y-111767880D01*
X81897285Y-111767880D01*
X81802047Y-111720261D01*
X81754428Y-111625023D01*
X81754428Y-111577404D01*
X81802047Y-111482166D01*
X81897285Y-111434547D01*
X82040142Y-111434547D01*
X82135380Y-111386928D01*
X82183000Y-111291690D01*
X82183000Y-111244071D01*
X82135380Y-111148833D01*
X82040142Y-111101214D01*
X81897285Y-111101214D01*
X81802047Y-111148833D01*
X81325857Y-111672642D02*
X81278238Y-111720261D01*
X81325857Y-111767880D01*
X81373476Y-111720261D01*
X81325857Y-111672642D01*
X81325857Y-111767880D01*
X81325857Y-111148833D02*
X81278238Y-111196452D01*
X81325857Y-111244071D01*
X81373476Y-111196452D01*
X81325857Y-111148833D01*
X81325857Y-111244071D01*
X79563952Y-111767880D02*
X80135380Y-111767880D01*
X79849666Y-111767880D02*
X79849666Y-110767880D01*
X79944904Y-110910738D01*
X80040142Y-111005976D01*
X80135380Y-111053595D01*
X78706809Y-110767880D02*
X78897285Y-110767880D01*
X78992523Y-110815500D01*
X79040142Y-110863119D01*
X79135380Y-111005976D01*
X79183000Y-111196452D01*
X79183000Y-111577404D01*
X79135380Y-111672642D01*
X79087761Y-111720261D01*
X78992523Y-111767880D01*
X78802047Y-111767880D01*
X78706809Y-111720261D01*
X78659190Y-111672642D01*
X78611571Y-111577404D01*
X78611571Y-111339309D01*
X78659190Y-111244071D01*
X78706809Y-111196452D01*
X78802047Y-111148833D01*
X78992523Y-111148833D01*
X79087761Y-111196452D01*
X79135380Y-111244071D01*
X79183000Y-111339309D01*
X78278238Y-110767880D02*
X77611571Y-110767880D01*
X78040142Y-111767880D01*
X76802047Y-110767880D02*
X76992523Y-110767880D01*
X77087761Y-110815500D01*
X77135380Y-110863119D01*
X77230619Y-111005976D01*
X77278238Y-111196452D01*
X77278238Y-111577404D01*
X77230619Y-111672642D01*
X77183000Y-111720261D01*
X77087761Y-111767880D01*
X76897285Y-111767880D01*
X76802047Y-111720261D01*
X76754428Y-111672642D01*
X76706809Y-111577404D01*
X76706809Y-111339309D01*
X76754428Y-111244071D01*
X76802047Y-111196452D01*
X76897285Y-111148833D01*
X77087761Y-111148833D01*
X77183000Y-111196452D01*
X77230619Y-111244071D01*
X77278238Y-111339309D01*
X85087761Y-112417880D02*
X84754428Y-113417880D01*
X84421095Y-112417880D01*
X84087761Y-113417880D02*
X84087761Y-112751214D01*
X84087761Y-112417880D02*
X84135380Y-112465500D01*
X84087761Y-112513119D01*
X84040142Y-112465500D01*
X84087761Y-112417880D01*
X84087761Y-112513119D01*
X83183000Y-113417880D02*
X83183000Y-112894071D01*
X83230619Y-112798833D01*
X83325857Y-112751214D01*
X83516333Y-112751214D01*
X83611571Y-112798833D01*
X83183000Y-113370261D02*
X83278238Y-113417880D01*
X83516333Y-113417880D01*
X83611571Y-113370261D01*
X83659190Y-113275023D01*
X83659190Y-113179785D01*
X83611571Y-113084547D01*
X83516333Y-113036928D01*
X83278238Y-113036928D01*
X83183000Y-112989309D01*
X82754428Y-113370261D02*
X82659190Y-113417880D01*
X82468714Y-113417880D01*
X82373476Y-113370261D01*
X82325857Y-113275023D01*
X82325857Y-113227404D01*
X82373476Y-113132166D01*
X82468714Y-113084547D01*
X82611571Y-113084547D01*
X82706809Y-113036928D01*
X82754428Y-112941690D01*
X82754428Y-112894071D01*
X82706809Y-112798833D01*
X82611571Y-112751214D01*
X82468714Y-112751214D01*
X82373476Y-112798833D01*
X81897285Y-113322642D02*
X81849666Y-113370261D01*
X81897285Y-113417880D01*
X81944904Y-113370261D01*
X81897285Y-113322642D01*
X81897285Y-113417880D01*
X81897285Y-112798833D02*
X81849666Y-112846452D01*
X81897285Y-112894071D01*
X81944904Y-112846452D01*
X81897285Y-112798833D01*
X81897285Y-112894071D01*
X80516333Y-112846452D02*
X80611571Y-112798833D01*
X80659190Y-112751214D01*
X80706809Y-112655976D01*
X80706809Y-112608357D01*
X80659190Y-112513119D01*
X80611571Y-112465500D01*
X80516333Y-112417880D01*
X80325857Y-112417880D01*
X80230619Y-112465500D01*
X80183000Y-112513119D01*
X80135380Y-112608357D01*
X80135380Y-112655976D01*
X80183000Y-112751214D01*
X80230619Y-112798833D01*
X80325857Y-112846452D01*
X80516333Y-112846452D01*
X80611571Y-112894071D01*
X80659190Y-112941690D01*
X80706809Y-113036928D01*
X80706809Y-113227404D01*
X80659190Y-113322642D01*
X80611571Y-113370261D01*
X80516333Y-113417880D01*
X80325857Y-113417880D01*
X80230619Y-113370261D01*
X80183000Y-113322642D01*
X80135380Y-113227404D01*
X80135380Y-113036928D01*
X80183000Y-112941690D01*
X80230619Y-112894071D01*
X80325857Y-112846452D01*
X79802047Y-112417880D02*
X79183000Y-112417880D01*
X79516333Y-112798833D01*
X79373476Y-112798833D01*
X79278238Y-112846452D01*
X79230619Y-112894071D01*
X79183000Y-112989309D01*
X79183000Y-113227404D01*
X79230619Y-113322642D01*
X79278238Y-113370261D01*
X79373476Y-113417880D01*
X79659190Y-113417880D01*
X79754428Y-113370261D01*
X79802047Y-113322642D01*
X78325857Y-112417880D02*
X78516333Y-112417880D01*
X78611571Y-112465500D01*
X78659190Y-112513119D01*
X78754428Y-112655976D01*
X78802047Y-112846452D01*
X78802047Y-113227404D01*
X78754428Y-113322642D01*
X78706809Y-113370261D01*
X78611571Y-113417880D01*
X78421095Y-113417880D01*
X78325857Y-113370261D01*
X78278238Y-113322642D01*
X78230619Y-113227404D01*
X78230619Y-112989309D01*
X78278238Y-112894071D01*
X78325857Y-112846452D01*
X78421095Y-112798833D01*
X78611571Y-112798833D01*
X78706809Y-112846452D01*
X78754428Y-112894071D01*
X78802047Y-112989309D01*
X84944904Y-115067880D02*
X84944904Y-114067880D01*
X84373476Y-115067880D01*
X84373476Y-114067880D01*
X83516333Y-115020261D02*
X83611571Y-115067880D01*
X83802047Y-115067880D01*
X83897285Y-115020261D01*
X83944904Y-114925023D01*
X83944904Y-114544071D01*
X83897285Y-114448833D01*
X83802047Y-114401214D01*
X83611571Y-114401214D01*
X83516333Y-114448833D01*
X83468714Y-114544071D01*
X83468714Y-114639309D01*
X83944904Y-114734547D01*
X83183000Y-114401214D02*
X82802047Y-114401214D01*
X83040142Y-114067880D02*
X83040142Y-114925023D01*
X82992523Y-115020261D01*
X82897285Y-115067880D01*
X82802047Y-115067880D01*
X82516333Y-115020261D02*
X82421095Y-115067880D01*
X82230619Y-115067880D01*
X82135380Y-115020261D01*
X82087761Y-114925023D01*
X82087761Y-114877404D01*
X82135380Y-114782166D01*
X82230619Y-114734547D01*
X82373476Y-114734547D01*
X82468714Y-114686928D01*
X82516333Y-114591690D01*
X82516333Y-114544071D01*
X82468714Y-114448833D01*
X82373476Y-114401214D01*
X82230619Y-114401214D01*
X82135380Y-114448833D01*
X81659190Y-114972642D02*
X81611571Y-115020261D01*
X81659190Y-115067880D01*
X81706809Y-115020261D01*
X81659190Y-114972642D01*
X81659190Y-115067880D01*
X81659190Y-114448833D02*
X81611571Y-114496452D01*
X81659190Y-114544071D01*
X81706809Y-114496452D01*
X81659190Y-114448833D01*
X81659190Y-114544071D01*
X80516333Y-114067880D02*
X79897285Y-114067880D01*
X80230619Y-114448833D01*
X80087761Y-114448833D01*
X79992523Y-114496452D01*
X79944904Y-114544071D01*
X79897285Y-114639309D01*
X79897285Y-114877404D01*
X79944904Y-114972642D01*
X79992523Y-115020261D01*
X80087761Y-115067880D01*
X80373476Y-115067880D01*
X80468714Y-115020261D01*
X80516333Y-114972642D01*
X78944904Y-115067880D02*
X79516333Y-115067880D01*
X79230619Y-115067880D02*
X79230619Y-114067880D01*
X79325857Y-114210738D01*
X79421095Y-114305976D01*
X79516333Y-114353595D01*
X78373476Y-114496452D02*
X78468714Y-114448833D01*
X78516333Y-114401214D01*
X78563952Y-114305976D01*
X78563952Y-114258357D01*
X78516333Y-114163119D01*
X78468714Y-114115500D01*
X78373476Y-114067880D01*
X78183000Y-114067880D01*
X78087761Y-114115500D01*
X78040142Y-114163119D01*
X77992523Y-114258357D01*
X77992523Y-114305976D01*
X78040142Y-114401214D01*
X78087761Y-114448833D01*
X78183000Y-114496452D01*
X78373476Y-114496452D01*
X78468714Y-114544071D01*
X78516333Y-114591690D01*
X78563952Y-114686928D01*
X78563952Y-114877404D01*
X78516333Y-114972642D01*
X78468714Y-115020261D01*
X78373476Y-115067880D01*
X78183000Y-115067880D01*
X78087761Y-115020261D01*
X78040142Y-114972642D01*
X77992523Y-114877404D01*
X77992523Y-114686928D01*
X78040142Y-114591690D01*
X78087761Y-114544071D01*
X78183000Y-114496452D01*
D11*
G36*
X199771000Y-96964500D02*
G01*
X203327000Y-96964500D01*
X203327000Y-93916500D01*
X202819000Y-93916500D01*
X202819000Y-96456500D01*
X200279000Y-96456500D01*
X200279000Y-93916500D01*
X202819000Y-93916500D01*
X203327000Y-93916500D01*
X203327000Y-93408500D01*
X199771000Y-93408500D01*
X199771000Y-96964500D01*
X199771000Y-96964500D01*
G37*
X199771000Y-96964500D02*
X203327000Y-96964500D01*
X203327000Y-93916500D01*
X202819000Y-93916500D01*
X202819000Y-96456500D01*
X200279000Y-96456500D01*
X200279000Y-93916500D01*
X202819000Y-93916500D01*
X203327000Y-93916500D01*
X203327000Y-93408500D01*
X199771000Y-93408500D01*
X199771000Y-96964500D01*
G36*
X198755000Y-96964500D02*
G01*
X199263000Y-96964500D01*
X199263000Y-95948500D01*
X198755000Y-95948500D01*
X198755000Y-96964500D01*
X198755000Y-96964500D01*
G37*
X198755000Y-96964500D02*
X199263000Y-96964500D01*
X199263000Y-95948500D01*
X198755000Y-95948500D01*
X198755000Y-96964500D01*
G36*
X198755000Y-94932500D02*
G01*
X198501000Y-94932500D01*
X198321092Y-94911521D01*
X198254781Y-94812560D01*
X198247000Y-94678500D01*
X198226021Y-94498592D01*
X198127060Y-94432282D01*
X197993000Y-94424500D01*
X197739000Y-94424500D01*
X197739000Y-93408500D01*
X196723000Y-93408500D01*
X196723000Y-93662500D01*
X196743979Y-93842408D01*
X196842940Y-93908719D01*
X196977000Y-93916500D01*
X197156908Y-93937479D01*
X197223218Y-94036440D01*
X197231000Y-94170500D01*
X197251979Y-94350408D01*
X197350940Y-94416719D01*
X197485000Y-94424500D01*
X197664908Y-94445479D01*
X197731218Y-94544440D01*
X197739000Y-94678500D01*
X197759979Y-94858408D01*
X197858940Y-94924719D01*
X197993000Y-94932500D01*
X198172908Y-94953479D01*
X198239218Y-95052440D01*
X198247000Y-95186500D01*
X198226021Y-95366408D01*
X198127060Y-95432719D01*
X197993000Y-95440500D01*
X197813092Y-95461479D01*
X197746781Y-95560440D01*
X197739000Y-95694500D01*
X197739000Y-95948500D01*
X198755000Y-95948500D01*
X198755000Y-94932500D01*
X198755000Y-94932500D01*
G37*
X198755000Y-94932500D02*
X198501000Y-94932500D01*
X198321092Y-94911521D01*
X198254781Y-94812560D01*
X198247000Y-94678500D01*
X198226021Y-94498592D01*
X198127060Y-94432282D01*
X197993000Y-94424500D01*
X197739000Y-94424500D01*
X197739000Y-93408500D01*
X196723000Y-93408500D01*
X196723000Y-93662500D01*
X196743979Y-93842408D01*
X196842940Y-93908719D01*
X196977000Y-93916500D01*
X197156908Y-93937479D01*
X197223218Y-94036440D01*
X197231000Y-94170500D01*
X197251979Y-94350408D01*
X197350940Y-94416719D01*
X197485000Y-94424500D01*
X197664908Y-94445479D01*
X197731218Y-94544440D01*
X197739000Y-94678500D01*
X197759979Y-94858408D01*
X197858940Y-94924719D01*
X197993000Y-94932500D01*
X198172908Y-94953479D01*
X198239218Y-95052440D01*
X198247000Y-95186500D01*
X198226021Y-95366408D01*
X198127060Y-95432719D01*
X197993000Y-95440500D01*
X197813092Y-95461479D01*
X197746781Y-95560440D01*
X197739000Y-95694500D01*
X197739000Y-95948500D01*
X198755000Y-95948500D01*
X198755000Y-94932500D01*
G36*
X197813092Y-96477479D02*
G01*
X197746781Y-96576440D01*
X197739000Y-96710500D01*
X197759979Y-96890408D01*
X197858940Y-96956719D01*
X197993000Y-96964500D01*
X198172908Y-96943521D01*
X198239218Y-96844560D01*
X198247000Y-96710500D01*
X198226021Y-96530592D01*
X198127060Y-96464282D01*
X197993000Y-96456500D01*
X197813092Y-96477479D01*
X197813092Y-96477479D01*
G37*
X197813092Y-96477479D02*
X197746781Y-96576440D01*
X197739000Y-96710500D01*
X197759979Y-96890408D01*
X197858940Y-96956719D01*
X197993000Y-96964500D01*
X198172908Y-96943521D01*
X198239218Y-96844560D01*
X198247000Y-96710500D01*
X198226021Y-96530592D01*
X198127060Y-96464282D01*
X197993000Y-96456500D01*
X197813092Y-96477479D01*
G36*
X189611000Y-89090500D02*
G01*
X189590021Y-88910592D01*
X189491060Y-88844282D01*
X189357000Y-88836500D01*
X189177092Y-88815521D01*
X189110781Y-88716560D01*
X189103000Y-88582500D01*
X189082021Y-88402592D01*
X188983060Y-88336282D01*
X188849000Y-88328500D01*
X188595000Y-88328500D01*
X188595000Y-89344500D01*
X189611000Y-89344500D01*
X189611000Y-89090500D01*
X189611000Y-89090500D01*
G37*
X189611000Y-89090500D02*
X189590021Y-88910592D01*
X189491060Y-88844282D01*
X189357000Y-88836500D01*
X189177092Y-88815521D01*
X189110781Y-88716560D01*
X189103000Y-88582500D01*
X189082021Y-88402592D01*
X188983060Y-88336282D01*
X188849000Y-88328500D01*
X188595000Y-88328500D01*
X188595000Y-89344500D01*
X189611000Y-89344500D01*
X189611000Y-89090500D01*
G36*
X193675000Y-84518500D02*
G01*
X193654021Y-84338592D01*
X193555060Y-84272282D01*
X193421000Y-84264500D01*
X193167000Y-84264500D01*
X193167000Y-82740500D01*
X192659000Y-82740500D01*
X192659000Y-84772500D01*
X193675000Y-84772500D01*
X193675000Y-84518500D01*
X193675000Y-84518500D01*
G37*
X193675000Y-84518500D02*
X193654021Y-84338592D01*
X193555060Y-84272282D01*
X193421000Y-84264500D01*
X193167000Y-84264500D01*
X193167000Y-82740500D01*
X192659000Y-82740500D01*
X192659000Y-84772500D01*
X193675000Y-84772500D01*
X193675000Y-84518500D01*
G36*
X189611000Y-90868500D02*
G01*
X188595000Y-90868500D01*
X188595000Y-91884500D01*
X188849000Y-91884500D01*
X189028908Y-91863521D01*
X189095218Y-91764560D01*
X189103000Y-91630500D01*
X189103000Y-91376500D01*
X190119000Y-91376500D01*
X190119000Y-91884500D01*
X191135000Y-91884500D01*
X191135000Y-91376500D01*
X192151000Y-91376500D01*
X192151000Y-91122500D01*
X192171979Y-90942592D01*
X192270940Y-90876282D01*
X192405000Y-90868500D01*
X192584908Y-90847521D01*
X192651218Y-90748560D01*
X192659000Y-90614500D01*
X192638021Y-90434592D01*
X192539060Y-90368282D01*
X192405000Y-90360500D01*
X192225092Y-90381479D01*
X192158781Y-90480440D01*
X192151000Y-90614500D01*
X192130021Y-90794408D01*
X192031060Y-90860719D01*
X191897000Y-90868500D01*
X191643000Y-90868500D01*
X191643000Y-90614500D01*
X191135000Y-90614500D01*
X191114021Y-90794408D01*
X191015060Y-90860719D01*
X190881000Y-90868500D01*
X190701092Y-90889479D01*
X190634781Y-90988440D01*
X190627000Y-91122500D01*
X190606021Y-91302408D01*
X190507060Y-91368719D01*
X190373000Y-91376500D01*
X190193092Y-91355521D01*
X190126781Y-91256560D01*
X190119000Y-91122500D01*
X190139979Y-90942592D01*
X190238940Y-90876282D01*
X190373000Y-90868500D01*
X190552908Y-90847521D01*
X190619218Y-90748560D01*
X190627000Y-90614500D01*
X190606021Y-90434592D01*
X190507060Y-90368282D01*
X190373000Y-90360500D01*
X190193092Y-90339521D01*
X190126781Y-90240560D01*
X190119000Y-90106500D01*
X190139979Y-89926592D01*
X190238940Y-89860282D01*
X190373000Y-89852500D01*
X190552908Y-89873479D01*
X190619218Y-89972440D01*
X190627000Y-90106500D01*
X190647979Y-90286408D01*
X190746940Y-90352719D01*
X190881000Y-90360500D01*
X191060908Y-90381479D01*
X191127218Y-90480440D01*
X191135000Y-90614500D01*
X191643000Y-90614500D01*
X191643000Y-89852500D01*
X191389000Y-89852500D01*
X191209092Y-89831521D01*
X191142781Y-89732560D01*
X191135000Y-89598500D01*
X191135000Y-89344500D01*
X192151000Y-89344500D01*
X192151000Y-88328500D01*
X191135000Y-88328500D01*
X191135000Y-88582500D01*
X191114021Y-88762408D01*
X191015060Y-88828719D01*
X190881000Y-88836500D01*
X190701092Y-88857479D01*
X190634781Y-88956440D01*
X190627000Y-89090500D01*
X190627000Y-89344500D01*
X189611000Y-89344500D01*
X189611000Y-90868500D01*
X189611000Y-90868500D01*
G37*
X189611000Y-90868500D02*
X188595000Y-90868500D01*
X188595000Y-91884500D01*
X188849000Y-91884500D01*
X189028908Y-91863521D01*
X189095218Y-91764560D01*
X189103000Y-91630500D01*
X189103000Y-91376500D01*
X190119000Y-91376500D01*
X190119000Y-91884500D01*
X191135000Y-91884500D01*
X191135000Y-91376500D01*
X192151000Y-91376500D01*
X192151000Y-91122500D01*
X192171979Y-90942592D01*
X192270940Y-90876282D01*
X192405000Y-90868500D01*
X192584908Y-90847521D01*
X192651218Y-90748560D01*
X192659000Y-90614500D01*
X192638021Y-90434592D01*
X192539060Y-90368282D01*
X192405000Y-90360500D01*
X192225092Y-90381479D01*
X192158781Y-90480440D01*
X192151000Y-90614500D01*
X192130021Y-90794408D01*
X192031060Y-90860719D01*
X191897000Y-90868500D01*
X191643000Y-90868500D01*
X191643000Y-90614500D01*
X191135000Y-90614500D01*
X191114021Y-90794408D01*
X191015060Y-90860719D01*
X190881000Y-90868500D01*
X190701092Y-90889479D01*
X190634781Y-90988440D01*
X190627000Y-91122500D01*
X190606021Y-91302408D01*
X190507060Y-91368719D01*
X190373000Y-91376500D01*
X190193092Y-91355521D01*
X190126781Y-91256560D01*
X190119000Y-91122500D01*
X190139979Y-90942592D01*
X190238940Y-90876282D01*
X190373000Y-90868500D01*
X190552908Y-90847521D01*
X190619218Y-90748560D01*
X190627000Y-90614500D01*
X190606021Y-90434592D01*
X190507060Y-90368282D01*
X190373000Y-90360500D01*
X190193092Y-90339521D01*
X190126781Y-90240560D01*
X190119000Y-90106500D01*
X190139979Y-89926592D01*
X190238940Y-89860282D01*
X190373000Y-89852500D01*
X190552908Y-89873479D01*
X190619218Y-89972440D01*
X190627000Y-90106500D01*
X190647979Y-90286408D01*
X190746940Y-90352719D01*
X190881000Y-90360500D01*
X191060908Y-90381479D01*
X191127218Y-90480440D01*
X191135000Y-90614500D01*
X191643000Y-90614500D01*
X191643000Y-89852500D01*
X191389000Y-89852500D01*
X191209092Y-89831521D01*
X191142781Y-89732560D01*
X191135000Y-89598500D01*
X191135000Y-89344500D01*
X192151000Y-89344500D01*
X192151000Y-88328500D01*
X191135000Y-88328500D01*
X191135000Y-88582500D01*
X191114021Y-88762408D01*
X191015060Y-88828719D01*
X190881000Y-88836500D01*
X190701092Y-88857479D01*
X190634781Y-88956440D01*
X190627000Y-89090500D01*
X190627000Y-89344500D01*
X189611000Y-89344500D01*
X189611000Y-90868500D01*
G36*
X198755000Y-92900500D02*
G01*
X198501000Y-92900500D01*
X198321092Y-92921479D01*
X198254781Y-93020440D01*
X198247000Y-93154500D01*
X198267979Y-93334408D01*
X198366940Y-93400719D01*
X198501000Y-93408500D01*
X198755000Y-93408500D01*
X198755000Y-94424500D01*
X199263000Y-94424500D01*
X199263000Y-92900500D01*
X201803000Y-92900500D01*
X201803000Y-92392500D01*
X199771000Y-92392500D01*
X199771000Y-92138500D01*
X199791979Y-91958592D01*
X199890940Y-91892282D01*
X200025000Y-91884500D01*
X200204908Y-91863521D01*
X200271218Y-91764560D01*
X200279000Y-91630500D01*
X200279000Y-91376500D01*
X198755000Y-91376500D01*
X198755000Y-92900500D01*
X198755000Y-92900500D01*
G37*
X198755000Y-92900500D02*
X198501000Y-92900500D01*
X198321092Y-92921479D01*
X198254781Y-93020440D01*
X198247000Y-93154500D01*
X198267979Y-93334408D01*
X198366940Y-93400719D01*
X198501000Y-93408500D01*
X198755000Y-93408500D01*
X198755000Y-94424500D01*
X199263000Y-94424500D01*
X199263000Y-92900500D01*
X201803000Y-92900500D01*
X201803000Y-92392500D01*
X199771000Y-92392500D01*
X199771000Y-92138500D01*
X199791979Y-91958592D01*
X199890940Y-91892282D01*
X200025000Y-91884500D01*
X200204908Y-91863521D01*
X200271218Y-91764560D01*
X200279000Y-91630500D01*
X200279000Y-91376500D01*
X198755000Y-91376500D01*
X198755000Y-92900500D01*
G36*
X193675000Y-85788500D02*
G01*
X193421000Y-85788500D01*
X193241092Y-85767521D01*
X193174781Y-85668560D01*
X193167000Y-85534500D01*
X193146021Y-85354592D01*
X193047060Y-85288282D01*
X192913000Y-85280500D01*
X192733092Y-85301479D01*
X192666781Y-85400440D01*
X192659000Y-85534500D01*
X192679979Y-85714408D01*
X192778940Y-85780719D01*
X192913000Y-85788500D01*
X193092908Y-85809479D01*
X193159218Y-85908440D01*
X193167000Y-86042500D01*
X193146021Y-86222408D01*
X193047060Y-86288719D01*
X192913000Y-86296500D01*
X192733092Y-86317479D01*
X192666781Y-86416440D01*
X192659000Y-86550500D01*
X192638021Y-86730408D01*
X192539060Y-86796719D01*
X192405000Y-86804500D01*
X192225092Y-86825479D01*
X192158781Y-86924440D01*
X192151000Y-87058500D01*
X192171979Y-87238408D01*
X192270940Y-87304719D01*
X192405000Y-87312500D01*
X192584908Y-87291521D01*
X192651218Y-87192560D01*
X192659000Y-87058500D01*
X192679979Y-86878592D01*
X192778940Y-86812282D01*
X192913000Y-86804500D01*
X193092908Y-86825479D01*
X193159218Y-86924440D01*
X193167000Y-87058500D01*
X193187979Y-87238408D01*
X193286940Y-87304719D01*
X193421000Y-87312500D01*
X193600908Y-87291521D01*
X193667218Y-87192560D01*
X193675000Y-87058500D01*
X193654021Y-86878592D01*
X193555060Y-86812282D01*
X193421000Y-86804500D01*
X193241092Y-86783521D01*
X193174781Y-86684560D01*
X193167000Y-86550500D01*
X193187979Y-86370592D01*
X193286940Y-86304282D01*
X193421000Y-86296500D01*
X193600908Y-86275521D01*
X193667218Y-86176560D01*
X193675000Y-86042500D01*
X193695979Y-85862592D01*
X193794940Y-85796282D01*
X193929000Y-85788500D01*
X194108908Y-85767521D01*
X194175218Y-85668560D01*
X194183000Y-85534500D01*
X194203979Y-85354592D01*
X194302940Y-85288282D01*
X194437000Y-85280500D01*
X194616908Y-85301479D01*
X194683218Y-85400440D01*
X194691000Y-85534500D01*
X194711979Y-85714408D01*
X194810940Y-85780719D01*
X194945000Y-85788500D01*
X195199000Y-85788500D01*
X195199000Y-84264500D01*
X195453000Y-84264500D01*
X195632908Y-84243521D01*
X195699218Y-84144560D01*
X195707000Y-84010500D01*
X195707000Y-83756500D01*
X194183000Y-83756500D01*
X194183000Y-84010500D01*
X194203979Y-84190408D01*
X194302940Y-84256719D01*
X194437000Y-84264500D01*
X194616908Y-84285479D01*
X194683218Y-84384440D01*
X194691000Y-84518500D01*
X194691000Y-84772500D01*
X193675000Y-84772500D01*
X193675000Y-85788500D01*
X193675000Y-85788500D01*
G37*
X193675000Y-85788500D02*
X193421000Y-85788500D01*
X193241092Y-85767521D01*
X193174781Y-85668560D01*
X193167000Y-85534500D01*
X193146021Y-85354592D01*
X193047060Y-85288282D01*
X192913000Y-85280500D01*
X192733092Y-85301479D01*
X192666781Y-85400440D01*
X192659000Y-85534500D01*
X192679979Y-85714408D01*
X192778940Y-85780719D01*
X192913000Y-85788500D01*
X193092908Y-85809479D01*
X193159218Y-85908440D01*
X193167000Y-86042500D01*
X193146021Y-86222408D01*
X193047060Y-86288719D01*
X192913000Y-86296500D01*
X192733092Y-86317479D01*
X192666781Y-86416440D01*
X192659000Y-86550500D01*
X192638021Y-86730408D01*
X192539060Y-86796719D01*
X192405000Y-86804500D01*
X192225092Y-86825479D01*
X192158781Y-86924440D01*
X192151000Y-87058500D01*
X192171979Y-87238408D01*
X192270940Y-87304719D01*
X192405000Y-87312500D01*
X192584908Y-87291521D01*
X192651218Y-87192560D01*
X192659000Y-87058500D01*
X192679979Y-86878592D01*
X192778940Y-86812282D01*
X192913000Y-86804500D01*
X193092908Y-86825479D01*
X193159218Y-86924440D01*
X193167000Y-87058500D01*
X193187979Y-87238408D01*
X193286940Y-87304719D01*
X193421000Y-87312500D01*
X193600908Y-87291521D01*
X193667218Y-87192560D01*
X193675000Y-87058500D01*
X193654021Y-86878592D01*
X193555060Y-86812282D01*
X193421000Y-86804500D01*
X193241092Y-86783521D01*
X193174781Y-86684560D01*
X193167000Y-86550500D01*
X193187979Y-86370592D01*
X193286940Y-86304282D01*
X193421000Y-86296500D01*
X193600908Y-86275521D01*
X193667218Y-86176560D01*
X193675000Y-86042500D01*
X193695979Y-85862592D01*
X193794940Y-85796282D01*
X193929000Y-85788500D01*
X194108908Y-85767521D01*
X194175218Y-85668560D01*
X194183000Y-85534500D01*
X194203979Y-85354592D01*
X194302940Y-85288282D01*
X194437000Y-85280500D01*
X194616908Y-85301479D01*
X194683218Y-85400440D01*
X194691000Y-85534500D01*
X194711979Y-85714408D01*
X194810940Y-85780719D01*
X194945000Y-85788500D01*
X195199000Y-85788500D01*
X195199000Y-84264500D01*
X195453000Y-84264500D01*
X195632908Y-84243521D01*
X195699218Y-84144560D01*
X195707000Y-84010500D01*
X195707000Y-83756500D01*
X194183000Y-83756500D01*
X194183000Y-84010500D01*
X194203979Y-84190408D01*
X194302940Y-84256719D01*
X194437000Y-84264500D01*
X194616908Y-84285479D01*
X194683218Y-84384440D01*
X194691000Y-84518500D01*
X194691000Y-84772500D01*
X193675000Y-84772500D01*
X193675000Y-85788500D01*
G36*
X198247000Y-85280500D02*
G01*
X197993000Y-85280500D01*
X197813092Y-85259521D01*
X197746781Y-85160560D01*
X197739000Y-85026500D01*
X197739000Y-84772500D01*
X196723000Y-84772500D01*
X196723000Y-85788500D01*
X197231000Y-85788500D01*
X197231000Y-86804500D01*
X196215000Y-86804500D01*
X196215000Y-87058500D01*
X196194021Y-87238408D01*
X196095060Y-87304719D01*
X195961000Y-87312500D01*
X195707000Y-87312500D01*
X195707000Y-86296500D01*
X196215000Y-86296500D01*
X196215000Y-85280500D01*
X195961000Y-85280500D01*
X195781092Y-85301479D01*
X195714781Y-85400440D01*
X195707000Y-85534500D01*
X195686021Y-85714408D01*
X195587060Y-85780719D01*
X195453000Y-85788500D01*
X195199000Y-85788500D01*
X195199000Y-87312500D01*
X194691000Y-87312500D01*
X194691000Y-88836500D01*
X193675000Y-88836500D01*
X193675000Y-88582500D01*
X193654021Y-88402592D01*
X193555060Y-88336282D01*
X193421000Y-88328500D01*
X193241092Y-88307521D01*
X193174781Y-88208560D01*
X193167000Y-88074500D01*
X193167000Y-87820500D01*
X192151000Y-87820500D01*
X192151000Y-88328500D01*
X192659000Y-88328500D01*
X192659000Y-89344500D01*
X192151000Y-89344500D01*
X192151000Y-89852500D01*
X193167000Y-89852500D01*
X193167000Y-91884500D01*
X192913000Y-91884500D01*
X192733092Y-91905479D01*
X192666781Y-92004440D01*
X192659000Y-92138500D01*
X192638021Y-92318408D01*
X192539060Y-92384719D01*
X192405000Y-92392500D01*
X192225092Y-92371521D01*
X192158781Y-92272560D01*
X192151000Y-92138500D01*
X192130021Y-91958592D01*
X192031060Y-91892282D01*
X191897000Y-91884500D01*
X191717092Y-91905479D01*
X191650781Y-92004440D01*
X191643000Y-92138500D01*
X191643000Y-92392500D01*
X190627000Y-92392500D01*
X190627000Y-92646500D01*
X190606021Y-92826408D01*
X190507060Y-92892719D01*
X190373000Y-92900500D01*
X190193092Y-92879521D01*
X190126781Y-92780560D01*
X190119000Y-92646500D01*
X190119000Y-92392500D01*
X188595000Y-92392500D01*
X188595000Y-92900500D01*
X190119000Y-92900500D01*
X190119000Y-93154500D01*
X190098021Y-93334408D01*
X189999060Y-93400719D01*
X189865000Y-93408500D01*
X189685092Y-93429479D01*
X189618781Y-93528440D01*
X189611000Y-93662500D01*
X189611000Y-93916500D01*
X190627000Y-93916500D01*
X190627000Y-94170500D01*
X190606021Y-94350408D01*
X190507060Y-94416719D01*
X190373000Y-94424500D01*
X190193092Y-94445479D01*
X190126781Y-94544440D01*
X190119000Y-94678500D01*
X190098021Y-94858408D01*
X189999060Y-94924719D01*
X189865000Y-94932500D01*
X189685092Y-94953479D01*
X189618781Y-95052440D01*
X189611000Y-95186500D01*
X189590021Y-95366408D01*
X189491060Y-95432719D01*
X189357000Y-95440500D01*
X189103000Y-95440500D01*
X189103000Y-94424500D01*
X188595000Y-94424500D01*
X188595000Y-95440500D01*
X188849000Y-95440500D01*
X189028908Y-95461479D01*
X189095218Y-95560440D01*
X189103000Y-95694500D01*
X189082021Y-95874408D01*
X188983060Y-95940719D01*
X188849000Y-95948500D01*
X188669092Y-95969479D01*
X188602781Y-96068440D01*
X188595000Y-96202500D01*
X188615979Y-96382408D01*
X188714940Y-96448719D01*
X188849000Y-96456500D01*
X189028908Y-96435521D01*
X189095218Y-96336560D01*
X189103000Y-96202500D01*
X189123979Y-96022592D01*
X189222940Y-95956282D01*
X189357000Y-95948500D01*
X189611000Y-95948500D01*
X189611000Y-96964500D01*
X189865000Y-96964500D01*
X190044908Y-96943521D01*
X190111218Y-96844560D01*
X190119000Y-96710500D01*
X190139979Y-96530592D01*
X190238940Y-96464282D01*
X190373000Y-96456500D01*
X190552908Y-96477479D01*
X190619218Y-96576440D01*
X190627000Y-96710500D01*
X190627000Y-96964500D01*
X192151000Y-96964500D01*
X192151000Y-96202500D01*
X191135000Y-96202500D01*
X191114021Y-96382408D01*
X191015060Y-96448719D01*
X190881000Y-96456500D01*
X190701092Y-96435521D01*
X190634781Y-96336560D01*
X190627000Y-96202500D01*
X190647979Y-96022592D01*
X190746940Y-95956282D01*
X190881000Y-95948500D01*
X191060908Y-95969479D01*
X191127218Y-96068440D01*
X191135000Y-96202500D01*
X192151000Y-96202500D01*
X192151000Y-95948500D01*
X193675000Y-95948500D01*
X193675000Y-96202500D01*
X193654021Y-96382408D01*
X193555060Y-96448719D01*
X193421000Y-96456500D01*
X193241092Y-96477479D01*
X193174781Y-96576440D01*
X193167000Y-96710500D01*
X193187979Y-96890408D01*
X193286940Y-96956719D01*
X193421000Y-96964500D01*
X193600908Y-96943521D01*
X193667218Y-96844560D01*
X193675000Y-96710500D01*
X193695979Y-96530592D01*
X193794940Y-96464282D01*
X193929000Y-96456500D01*
X194108908Y-96435521D01*
X194175218Y-96336560D01*
X194183000Y-96202500D01*
X194203979Y-96022592D01*
X194302940Y-95956282D01*
X194437000Y-95948500D01*
X194616908Y-95927521D01*
X194683218Y-95828560D01*
X194691000Y-95694500D01*
X194711979Y-95514592D01*
X194810940Y-95448282D01*
X194945000Y-95440500D01*
X195124908Y-95461479D01*
X195191218Y-95560440D01*
X195199000Y-95694500D01*
X195219979Y-95874408D01*
X195318940Y-95940719D01*
X195453000Y-95948500D01*
X195632908Y-95969479D01*
X195699218Y-96068440D01*
X195707000Y-96202500D01*
X195686021Y-96382408D01*
X195587060Y-96448719D01*
X195453000Y-96456500D01*
X195273092Y-96477479D01*
X195206781Y-96576440D01*
X195199000Y-96710500D01*
X195199000Y-96964500D01*
X196215000Y-96964500D01*
X196215000Y-96710500D01*
X196235979Y-96530592D01*
X196334940Y-96464282D01*
X196469000Y-96456500D01*
X196648908Y-96477479D01*
X196715218Y-96576440D01*
X196723000Y-96710500D01*
X196743979Y-96890408D01*
X196842940Y-96956719D01*
X196977000Y-96964500D01*
X197231000Y-96964500D01*
X197231000Y-95948500D01*
X196977000Y-95948500D01*
X196797092Y-95927521D01*
X196730781Y-95828560D01*
X196723000Y-95694500D01*
X196743979Y-95514592D01*
X196842940Y-95448282D01*
X196977000Y-95440500D01*
X197156908Y-95419521D01*
X197223218Y-95320560D01*
X197231000Y-95186500D01*
X197210021Y-95006592D01*
X197111060Y-94940282D01*
X196977000Y-94932500D01*
X196797092Y-94911521D01*
X196730781Y-94812560D01*
X196723000Y-94678500D01*
X196702021Y-94498592D01*
X196603060Y-94432282D01*
X196469000Y-94424500D01*
X196289092Y-94403521D01*
X196222781Y-94304560D01*
X196215000Y-94170500D01*
X196194021Y-93990592D01*
X196095060Y-93924282D01*
X195961000Y-93916500D01*
X195781092Y-93895521D01*
X195714781Y-93796560D01*
X195707000Y-93662500D01*
X195727979Y-93482592D01*
X195826940Y-93416282D01*
X195961000Y-93408500D01*
X196215000Y-93408500D01*
X196215000Y-93154500D01*
X195707000Y-93154500D01*
X195707000Y-93408500D01*
X194183000Y-93408500D01*
X194183000Y-93662500D01*
X194203979Y-93842408D01*
X194302940Y-93908719D01*
X194437000Y-93916500D01*
X194616908Y-93937479D01*
X194683218Y-94036440D01*
X194691000Y-94170500D01*
X194691000Y-94424500D01*
X195707000Y-94424500D01*
X195707000Y-95440500D01*
X195453000Y-95440500D01*
X195273092Y-95419521D01*
X195206781Y-95320560D01*
X195199000Y-95186500D01*
X195178021Y-95006592D01*
X195079060Y-94940282D01*
X194945000Y-94932500D01*
X194765092Y-94953479D01*
X194698781Y-95052440D01*
X194691000Y-95186500D01*
X194670021Y-95366408D01*
X194571060Y-95432719D01*
X194437000Y-95440500D01*
X194257092Y-95461479D01*
X194190781Y-95560440D01*
X194183000Y-95694500D01*
X194162021Y-95874408D01*
X194063060Y-95940719D01*
X193929000Y-95948500D01*
X193749092Y-95927521D01*
X193682781Y-95828560D01*
X193675000Y-95694500D01*
X193695979Y-95514592D01*
X193794940Y-95448282D01*
X193929000Y-95440500D01*
X194108908Y-95419521D01*
X194175218Y-95320560D01*
X194183000Y-95186500D01*
X194162021Y-95006592D01*
X194063060Y-94940282D01*
X193929000Y-94932500D01*
X192151000Y-94932500D01*
X192151000Y-95440500D01*
X190627000Y-95440500D01*
X190627000Y-94932500D01*
X192151000Y-94932500D01*
X193929000Y-94932500D01*
X193749092Y-94911521D01*
X193682781Y-94812560D01*
X193675000Y-94678500D01*
X193695979Y-94498592D01*
X193794940Y-94432282D01*
X193929000Y-94424500D01*
X194108908Y-94403521D01*
X194175218Y-94304560D01*
X194183000Y-94170500D01*
X194162021Y-93990592D01*
X194063060Y-93924282D01*
X193929000Y-93916500D01*
X193749092Y-93895521D01*
X193682781Y-93796560D01*
X193675000Y-93662500D01*
X193654021Y-93482592D01*
X193555060Y-93416282D01*
X193421000Y-93408500D01*
X193241092Y-93387521D01*
X193174781Y-93288560D01*
X193167000Y-93154500D01*
X193187979Y-92974592D01*
X193286940Y-92908282D01*
X193421000Y-92900500D01*
X192659000Y-92900500D01*
X192659000Y-94424500D01*
X191135000Y-94424500D01*
X191135000Y-92900500D01*
X192659000Y-92900500D01*
X193421000Y-92900500D01*
X193600908Y-92879521D01*
X193667218Y-92780560D01*
X193675000Y-92646500D01*
X193654021Y-92466592D01*
X193555060Y-92400282D01*
X193421000Y-92392500D01*
X193241092Y-92371521D01*
X193174781Y-92272560D01*
X193167000Y-92138500D01*
X193187979Y-91958592D01*
X193286940Y-91892282D01*
X193421000Y-91884500D01*
X193600908Y-91863521D01*
X193667218Y-91764560D01*
X193675000Y-91630500D01*
X193675000Y-91376500D01*
X195199000Y-91376500D01*
X195199000Y-92900500D01*
X195453000Y-92900500D01*
X195632908Y-92921479D01*
X195699218Y-93020440D01*
X195707000Y-93154500D01*
X196215000Y-93154500D01*
X196215000Y-92392500D01*
X196469000Y-92392500D01*
X196648908Y-92413479D01*
X196715218Y-92512440D01*
X196723000Y-92646500D01*
X196743979Y-92826408D01*
X196842940Y-92892719D01*
X196977000Y-92900500D01*
X197231000Y-92900500D01*
X197231000Y-91884500D01*
X197485000Y-91884500D01*
X197664908Y-91905479D01*
X197731218Y-92004440D01*
X197739000Y-92138500D01*
X197759979Y-92318408D01*
X197858940Y-92384719D01*
X197993000Y-92392500D01*
X198247000Y-92392500D01*
X198247000Y-91376500D01*
X197231000Y-91376500D01*
X197231000Y-91884500D01*
X196215000Y-91884500D01*
X196215000Y-92138500D01*
X196194021Y-92318408D01*
X196095060Y-92384719D01*
X195961000Y-92392500D01*
X195707000Y-92392500D01*
X195707000Y-91376500D01*
X197231000Y-91376500D01*
X197231000Y-90868500D01*
X194691000Y-90868500D01*
X194691000Y-90360500D01*
X193675000Y-90360500D01*
X193675000Y-90106500D01*
X193654021Y-89926592D01*
X193555060Y-89860282D01*
X193421000Y-89852500D01*
X193241092Y-89831521D01*
X193174781Y-89732560D01*
X193167000Y-89598500D01*
X193167000Y-89344500D01*
X195199000Y-89344500D01*
X195199000Y-89598500D01*
X195219979Y-89778408D01*
X195318940Y-89844719D01*
X195453000Y-89852500D01*
X195707000Y-89852500D01*
X195707000Y-88836500D01*
X195453000Y-88836500D01*
X195273092Y-88815521D01*
X195206781Y-88716560D01*
X195199000Y-88582500D01*
X195219979Y-88402592D01*
X195318940Y-88336282D01*
X195453000Y-88328500D01*
X195632908Y-88307521D01*
X195699218Y-88208560D01*
X195707000Y-88074500D01*
X195727979Y-87894592D01*
X195826940Y-87828282D01*
X195961000Y-87820500D01*
X196215000Y-87820500D01*
X196215000Y-88836500D01*
X197739000Y-88836500D01*
X197739000Y-88582500D01*
X197718021Y-88402592D01*
X197619060Y-88336282D01*
X197485000Y-88328500D01*
X197305092Y-88307521D01*
X197238781Y-88208560D01*
X197231000Y-88074500D01*
X197210021Y-87894592D01*
X197111060Y-87828282D01*
X196977000Y-87820500D01*
X196797092Y-87799521D01*
X196730781Y-87700560D01*
X196723000Y-87566500D01*
X196743979Y-87386592D01*
X196842940Y-87320282D01*
X196977000Y-87312500D01*
X197156908Y-87291521D01*
X197223218Y-87192560D01*
X197231000Y-87058500D01*
X197251979Y-86878592D01*
X197350940Y-86812282D01*
X197485000Y-86804500D01*
X197664908Y-86783521D01*
X197731218Y-86684560D01*
X197739000Y-86550500D01*
X197759979Y-86370592D01*
X197858940Y-86304282D01*
X197993000Y-86296500D01*
X198247000Y-86296500D01*
X198247000Y-85534500D01*
X197739000Y-85534500D01*
X197718021Y-85714408D01*
X197619060Y-85780719D01*
X197485000Y-85788500D01*
X197305092Y-85767521D01*
X197238781Y-85668560D01*
X197231000Y-85534500D01*
X197251979Y-85354592D01*
X197350940Y-85288282D01*
X197485000Y-85280500D01*
X197664908Y-85301479D01*
X197731218Y-85400440D01*
X197739000Y-85534500D01*
X198247000Y-85534500D01*
X198247000Y-85280500D01*
X198247000Y-85280500D01*
G37*
X198247000Y-85280500D02*
X197993000Y-85280500D01*
X197813092Y-85259521D01*
X197746781Y-85160560D01*
X197739000Y-85026500D01*
X197739000Y-84772500D01*
X196723000Y-84772500D01*
X196723000Y-85788500D01*
X197231000Y-85788500D01*
X197231000Y-86804500D01*
X196215000Y-86804500D01*
X196215000Y-87058500D01*
X196194021Y-87238408D01*
X196095060Y-87304719D01*
X195961000Y-87312500D01*
X195707000Y-87312500D01*
X195707000Y-86296500D01*
X196215000Y-86296500D01*
X196215000Y-85280500D01*
X195961000Y-85280500D01*
X195781092Y-85301479D01*
X195714781Y-85400440D01*
X195707000Y-85534500D01*
X195686021Y-85714408D01*
X195587060Y-85780719D01*
X195453000Y-85788500D01*
X195199000Y-85788500D01*
X195199000Y-87312500D01*
X194691000Y-87312500D01*
X194691000Y-88836500D01*
X193675000Y-88836500D01*
X193675000Y-88582500D01*
X193654021Y-88402592D01*
X193555060Y-88336282D01*
X193421000Y-88328500D01*
X193241092Y-88307521D01*
X193174781Y-88208560D01*
X193167000Y-88074500D01*
X193167000Y-87820500D01*
X192151000Y-87820500D01*
X192151000Y-88328500D01*
X192659000Y-88328500D01*
X192659000Y-89344500D01*
X192151000Y-89344500D01*
X192151000Y-89852500D01*
X193167000Y-89852500D01*
X193167000Y-91884500D01*
X192913000Y-91884500D01*
X192733092Y-91905479D01*
X192666781Y-92004440D01*
X192659000Y-92138500D01*
X192638021Y-92318408D01*
X192539060Y-92384719D01*
X192405000Y-92392500D01*
X192225092Y-92371521D01*
X192158781Y-92272560D01*
X192151000Y-92138500D01*
X192130021Y-91958592D01*
X192031060Y-91892282D01*
X191897000Y-91884500D01*
X191717092Y-91905479D01*
X191650781Y-92004440D01*
X191643000Y-92138500D01*
X191643000Y-92392500D01*
X190627000Y-92392500D01*
X190627000Y-92646500D01*
X190606021Y-92826408D01*
X190507060Y-92892719D01*
X190373000Y-92900500D01*
X190193092Y-92879521D01*
X190126781Y-92780560D01*
X190119000Y-92646500D01*
X190119000Y-92392500D01*
X188595000Y-92392500D01*
X188595000Y-92900500D01*
X190119000Y-92900500D01*
X190119000Y-93154500D01*
X190098021Y-93334408D01*
X189999060Y-93400719D01*
X189865000Y-93408500D01*
X189685092Y-93429479D01*
X189618781Y-93528440D01*
X189611000Y-93662500D01*
X189611000Y-93916500D01*
X190627000Y-93916500D01*
X190627000Y-94170500D01*
X190606021Y-94350408D01*
X190507060Y-94416719D01*
X190373000Y-94424500D01*
X190193092Y-94445479D01*
X190126781Y-94544440D01*
X190119000Y-94678500D01*
X190098021Y-94858408D01*
X189999060Y-94924719D01*
X189865000Y-94932500D01*
X189685092Y-94953479D01*
X189618781Y-95052440D01*
X189611000Y-95186500D01*
X189590021Y-95366408D01*
X189491060Y-95432719D01*
X189357000Y-95440500D01*
X189103000Y-95440500D01*
X189103000Y-94424500D01*
X188595000Y-94424500D01*
X188595000Y-95440500D01*
X188849000Y-95440500D01*
X189028908Y-95461479D01*
X189095218Y-95560440D01*
X189103000Y-95694500D01*
X189082021Y-95874408D01*
X188983060Y-95940719D01*
X188849000Y-95948500D01*
X188669092Y-95969479D01*
X188602781Y-96068440D01*
X188595000Y-96202500D01*
X188615979Y-96382408D01*
X188714940Y-96448719D01*
X188849000Y-96456500D01*
X189028908Y-96435521D01*
X189095218Y-96336560D01*
X189103000Y-96202500D01*
X189123979Y-96022592D01*
X189222940Y-95956282D01*
X189357000Y-95948500D01*
X189611000Y-95948500D01*
X189611000Y-96964500D01*
X189865000Y-96964500D01*
X190044908Y-96943521D01*
X190111218Y-96844560D01*
X190119000Y-96710500D01*
X190139979Y-96530592D01*
X190238940Y-96464282D01*
X190373000Y-96456500D01*
X190552908Y-96477479D01*
X190619218Y-96576440D01*
X190627000Y-96710500D01*
X190627000Y-96964500D01*
X192151000Y-96964500D01*
X192151000Y-96202500D01*
X191135000Y-96202500D01*
X191114021Y-96382408D01*
X191015060Y-96448719D01*
X190881000Y-96456500D01*
X190701092Y-96435521D01*
X190634781Y-96336560D01*
X190627000Y-96202500D01*
X190647979Y-96022592D01*
X190746940Y-95956282D01*
X190881000Y-95948500D01*
X191060908Y-95969479D01*
X191127218Y-96068440D01*
X191135000Y-96202500D01*
X192151000Y-96202500D01*
X192151000Y-95948500D01*
X193675000Y-95948500D01*
X193675000Y-96202500D01*
X193654021Y-96382408D01*
X193555060Y-96448719D01*
X193421000Y-96456500D01*
X193241092Y-96477479D01*
X193174781Y-96576440D01*
X193167000Y-96710500D01*
X193187979Y-96890408D01*
X193286940Y-96956719D01*
X193421000Y-96964500D01*
X193600908Y-96943521D01*
X193667218Y-96844560D01*
X193675000Y-96710500D01*
X193695979Y-96530592D01*
X193794940Y-96464282D01*
X193929000Y-96456500D01*
X194108908Y-96435521D01*
X194175218Y-96336560D01*
X194183000Y-96202500D01*
X194203979Y-96022592D01*
X194302940Y-95956282D01*
X194437000Y-95948500D01*
X194616908Y-95927521D01*
X194683218Y-95828560D01*
X194691000Y-95694500D01*
X194711979Y-95514592D01*
X194810940Y-95448282D01*
X194945000Y-95440500D01*
X195124908Y-95461479D01*
X195191218Y-95560440D01*
X195199000Y-95694500D01*
X195219979Y-95874408D01*
X195318940Y-95940719D01*
X195453000Y-95948500D01*
X195632908Y-95969479D01*
X195699218Y-96068440D01*
X195707000Y-96202500D01*
X195686021Y-96382408D01*
X195587060Y-96448719D01*
X195453000Y-96456500D01*
X195273092Y-96477479D01*
X195206781Y-96576440D01*
X195199000Y-96710500D01*
X195199000Y-96964500D01*
X196215000Y-96964500D01*
X196215000Y-96710500D01*
X196235979Y-96530592D01*
X196334940Y-96464282D01*
X196469000Y-96456500D01*
X196648908Y-96477479D01*
X196715218Y-96576440D01*
X196723000Y-96710500D01*
X196743979Y-96890408D01*
X196842940Y-96956719D01*
X196977000Y-96964500D01*
X197231000Y-96964500D01*
X197231000Y-95948500D01*
X196977000Y-95948500D01*
X196797092Y-95927521D01*
X196730781Y-95828560D01*
X196723000Y-95694500D01*
X196743979Y-95514592D01*
X196842940Y-95448282D01*
X196977000Y-95440500D01*
X197156908Y-95419521D01*
X197223218Y-95320560D01*
X197231000Y-95186500D01*
X197210021Y-95006592D01*
X197111060Y-94940282D01*
X196977000Y-94932500D01*
X196797092Y-94911521D01*
X196730781Y-94812560D01*
X196723000Y-94678500D01*
X196702021Y-94498592D01*
X196603060Y-94432282D01*
X196469000Y-94424500D01*
X196289092Y-94403521D01*
X196222781Y-94304560D01*
X196215000Y-94170500D01*
X196194021Y-93990592D01*
X196095060Y-93924282D01*
X195961000Y-93916500D01*
X195781092Y-93895521D01*
X195714781Y-93796560D01*
X195707000Y-93662500D01*
X195727979Y-93482592D01*
X195826940Y-93416282D01*
X195961000Y-93408500D01*
X196215000Y-93408500D01*
X196215000Y-93154500D01*
X195707000Y-93154500D01*
X195707000Y-93408500D01*
X194183000Y-93408500D01*
X194183000Y-93662500D01*
X194203979Y-93842408D01*
X194302940Y-93908719D01*
X194437000Y-93916500D01*
X194616908Y-93937479D01*
X194683218Y-94036440D01*
X194691000Y-94170500D01*
X194691000Y-94424500D01*
X195707000Y-94424500D01*
X195707000Y-95440500D01*
X195453000Y-95440500D01*
X195273092Y-95419521D01*
X195206781Y-95320560D01*
X195199000Y-95186500D01*
X195178021Y-95006592D01*
X195079060Y-94940282D01*
X194945000Y-94932500D01*
X194765092Y-94953479D01*
X194698781Y-95052440D01*
X194691000Y-95186500D01*
X194670021Y-95366408D01*
X194571060Y-95432719D01*
X194437000Y-95440500D01*
X194257092Y-95461479D01*
X194190781Y-95560440D01*
X194183000Y-95694500D01*
X194162021Y-95874408D01*
X194063060Y-95940719D01*
X193929000Y-95948500D01*
X193749092Y-95927521D01*
X193682781Y-95828560D01*
X193675000Y-95694500D01*
X193695979Y-95514592D01*
X193794940Y-95448282D01*
X193929000Y-95440500D01*
X194108908Y-95419521D01*
X194175218Y-95320560D01*
X194183000Y-95186500D01*
X194162021Y-95006592D01*
X194063060Y-94940282D01*
X193929000Y-94932500D01*
X192151000Y-94932500D01*
X192151000Y-95440500D01*
X190627000Y-95440500D01*
X190627000Y-94932500D01*
X192151000Y-94932500D01*
X193929000Y-94932500D01*
X193749092Y-94911521D01*
X193682781Y-94812560D01*
X193675000Y-94678500D01*
X193695979Y-94498592D01*
X193794940Y-94432282D01*
X193929000Y-94424500D01*
X194108908Y-94403521D01*
X194175218Y-94304560D01*
X194183000Y-94170500D01*
X194162021Y-93990592D01*
X194063060Y-93924282D01*
X193929000Y-93916500D01*
X193749092Y-93895521D01*
X193682781Y-93796560D01*
X193675000Y-93662500D01*
X193654021Y-93482592D01*
X193555060Y-93416282D01*
X193421000Y-93408500D01*
X193241092Y-93387521D01*
X193174781Y-93288560D01*
X193167000Y-93154500D01*
X193187979Y-92974592D01*
X193286940Y-92908282D01*
X193421000Y-92900500D01*
X192659000Y-92900500D01*
X192659000Y-94424500D01*
X191135000Y-94424500D01*
X191135000Y-92900500D01*
X192659000Y-92900500D01*
X193421000Y-92900500D01*
X193600908Y-92879521D01*
X193667218Y-92780560D01*
X193675000Y-92646500D01*
X193654021Y-92466592D01*
X193555060Y-92400282D01*
X193421000Y-92392500D01*
X193241092Y-92371521D01*
X193174781Y-92272560D01*
X193167000Y-92138500D01*
X193187979Y-91958592D01*
X193286940Y-91892282D01*
X193421000Y-91884500D01*
X193600908Y-91863521D01*
X193667218Y-91764560D01*
X193675000Y-91630500D01*
X193675000Y-91376500D01*
X195199000Y-91376500D01*
X195199000Y-92900500D01*
X195453000Y-92900500D01*
X195632908Y-92921479D01*
X195699218Y-93020440D01*
X195707000Y-93154500D01*
X196215000Y-93154500D01*
X196215000Y-92392500D01*
X196469000Y-92392500D01*
X196648908Y-92413479D01*
X196715218Y-92512440D01*
X196723000Y-92646500D01*
X196743979Y-92826408D01*
X196842940Y-92892719D01*
X196977000Y-92900500D01*
X197231000Y-92900500D01*
X197231000Y-91884500D01*
X197485000Y-91884500D01*
X197664908Y-91905479D01*
X197731218Y-92004440D01*
X197739000Y-92138500D01*
X197759979Y-92318408D01*
X197858940Y-92384719D01*
X197993000Y-92392500D01*
X198247000Y-92392500D01*
X198247000Y-91376500D01*
X197231000Y-91376500D01*
X197231000Y-91884500D01*
X196215000Y-91884500D01*
X196215000Y-92138500D01*
X196194021Y-92318408D01*
X196095060Y-92384719D01*
X195961000Y-92392500D01*
X195707000Y-92392500D01*
X195707000Y-91376500D01*
X197231000Y-91376500D01*
X197231000Y-90868500D01*
X194691000Y-90868500D01*
X194691000Y-90360500D01*
X193675000Y-90360500D01*
X193675000Y-90106500D01*
X193654021Y-89926592D01*
X193555060Y-89860282D01*
X193421000Y-89852500D01*
X193241092Y-89831521D01*
X193174781Y-89732560D01*
X193167000Y-89598500D01*
X193167000Y-89344500D01*
X195199000Y-89344500D01*
X195199000Y-89598500D01*
X195219979Y-89778408D01*
X195318940Y-89844719D01*
X195453000Y-89852500D01*
X195707000Y-89852500D01*
X195707000Y-88836500D01*
X195453000Y-88836500D01*
X195273092Y-88815521D01*
X195206781Y-88716560D01*
X195199000Y-88582500D01*
X195219979Y-88402592D01*
X195318940Y-88336282D01*
X195453000Y-88328500D01*
X195632908Y-88307521D01*
X195699218Y-88208560D01*
X195707000Y-88074500D01*
X195727979Y-87894592D01*
X195826940Y-87828282D01*
X195961000Y-87820500D01*
X196215000Y-87820500D01*
X196215000Y-88836500D01*
X197739000Y-88836500D01*
X197739000Y-88582500D01*
X197718021Y-88402592D01*
X197619060Y-88336282D01*
X197485000Y-88328500D01*
X197305092Y-88307521D01*
X197238781Y-88208560D01*
X197231000Y-88074500D01*
X197210021Y-87894592D01*
X197111060Y-87828282D01*
X196977000Y-87820500D01*
X196797092Y-87799521D01*
X196730781Y-87700560D01*
X196723000Y-87566500D01*
X196743979Y-87386592D01*
X196842940Y-87320282D01*
X196977000Y-87312500D01*
X197156908Y-87291521D01*
X197223218Y-87192560D01*
X197231000Y-87058500D01*
X197251979Y-86878592D01*
X197350940Y-86812282D01*
X197485000Y-86804500D01*
X197664908Y-86783521D01*
X197731218Y-86684560D01*
X197739000Y-86550500D01*
X197759979Y-86370592D01*
X197858940Y-86304282D01*
X197993000Y-86296500D01*
X198247000Y-86296500D01*
X198247000Y-85534500D01*
X197739000Y-85534500D01*
X197718021Y-85714408D01*
X197619060Y-85780719D01*
X197485000Y-85788500D01*
X197305092Y-85767521D01*
X197238781Y-85668560D01*
X197231000Y-85534500D01*
X197251979Y-85354592D01*
X197350940Y-85288282D01*
X197485000Y-85280500D01*
X197664908Y-85301479D01*
X197731218Y-85400440D01*
X197739000Y-85534500D01*
X198247000Y-85534500D01*
X198247000Y-85280500D01*
G36*
X198755000Y-89852500D02*
G01*
X200279000Y-89852500D01*
X200279000Y-90106500D01*
X200258021Y-90286408D01*
X200159060Y-90352719D01*
X200025000Y-90360500D01*
X199845092Y-90381479D01*
X199778781Y-90480440D01*
X199771000Y-90614500D01*
X199791979Y-90794408D01*
X199890940Y-90860719D01*
X200025000Y-90868500D01*
X200204908Y-90847521D01*
X200271218Y-90748560D01*
X200279000Y-90614500D01*
X200299979Y-90434592D01*
X200398940Y-90368282D01*
X200533000Y-90360500D01*
X200712908Y-90381479D01*
X200779218Y-90480440D01*
X200787000Y-90614500D01*
X200807979Y-90794408D01*
X200906940Y-90860719D01*
X201041000Y-90868500D01*
X201220908Y-90847521D01*
X201287218Y-90748560D01*
X201295000Y-90614500D01*
X201315979Y-90434592D01*
X201414940Y-90368282D01*
X201549000Y-90360500D01*
X201803000Y-90360500D01*
X201803000Y-89344500D01*
X203327000Y-89344500D01*
X203327000Y-89090500D01*
X203306021Y-88910592D01*
X203207060Y-88844282D01*
X203073000Y-88836500D01*
X202893092Y-88815521D01*
X202826781Y-88716560D01*
X202819000Y-88582500D01*
X202798021Y-88402592D01*
X202699060Y-88336282D01*
X202565000Y-88328500D01*
X202385092Y-88307521D01*
X202318781Y-88208560D01*
X202311000Y-88074500D01*
X202331979Y-87894592D01*
X202430940Y-87828282D01*
X202565000Y-87820500D01*
X202744908Y-87799521D01*
X202811218Y-87700560D01*
X202819000Y-87566500D01*
X202839979Y-87386592D01*
X202938940Y-87320282D01*
X203073000Y-87312500D01*
X203327000Y-87312500D01*
X203327000Y-86296500D01*
X202311000Y-86296500D01*
X202311000Y-86804500D01*
X200787000Y-86804500D01*
X200787000Y-86296500D01*
X199263000Y-86296500D01*
X199263000Y-86550500D01*
X199242021Y-86730408D01*
X199143060Y-86796719D01*
X199009000Y-86804500D01*
X198829092Y-86783521D01*
X198762781Y-86684560D01*
X198755000Y-86550500D01*
X198734021Y-86370592D01*
X198635060Y-86304282D01*
X198501000Y-86296500D01*
X198247000Y-86296500D01*
X198247000Y-87312500D01*
X199771000Y-87312500D01*
X199771000Y-87058500D01*
X199791979Y-86878592D01*
X199890940Y-86812282D01*
X200025000Y-86804500D01*
X200204908Y-86825479D01*
X200271218Y-86924440D01*
X200279000Y-87058500D01*
X200279000Y-87312500D01*
X202311000Y-87312500D01*
X202311000Y-87058500D01*
X202331979Y-86878592D01*
X202430940Y-86812282D01*
X202565000Y-86804500D01*
X202744908Y-86825479D01*
X202811218Y-86924440D01*
X202819000Y-87058500D01*
X202798021Y-87238408D01*
X202699060Y-87304719D01*
X202565000Y-87312500D01*
X202385092Y-87333479D01*
X202318781Y-87432440D01*
X202311000Y-87566500D01*
X202290021Y-87746408D01*
X202191060Y-87812719D01*
X202057000Y-87820500D01*
X201877092Y-87841479D01*
X201810781Y-87940440D01*
X201803000Y-88074500D01*
X201823979Y-88254408D01*
X201922940Y-88320719D01*
X202057000Y-88328500D01*
X202236908Y-88349479D01*
X202303218Y-88448440D01*
X202311000Y-88582500D01*
X202290021Y-88762408D01*
X202191060Y-88828719D01*
X202057000Y-88836500D01*
X201877092Y-88857479D01*
X201810781Y-88956440D01*
X201803000Y-89090500D01*
X201782021Y-89270408D01*
X201683060Y-89336719D01*
X201549000Y-89344500D01*
X201369092Y-89323521D01*
X201302781Y-89224560D01*
X201295000Y-89090500D01*
X201274021Y-88910592D01*
X201175060Y-88844282D01*
X201041000Y-88836500D01*
X200787000Y-88836500D01*
X200787000Y-89852500D01*
X201041000Y-89852500D01*
X201220908Y-89873479D01*
X201287218Y-89972440D01*
X201295000Y-90106500D01*
X201274021Y-90286408D01*
X201175060Y-90352719D01*
X201041000Y-90360500D01*
X200861092Y-90339521D01*
X200794781Y-90240560D01*
X200787000Y-90106500D01*
X200766021Y-89926592D01*
X200667060Y-89860282D01*
X200533000Y-89852500D01*
X200353092Y-89831521D01*
X200286781Y-89732560D01*
X200279000Y-89598500D01*
X200279000Y-89344500D01*
X198755000Y-89344500D01*
X198755000Y-89598500D01*
X198734021Y-89778408D01*
X198635060Y-89844719D01*
X198501000Y-89852500D01*
X198247000Y-89852500D01*
X198247000Y-91376500D01*
X198755000Y-91376500D01*
X198755000Y-89852500D01*
X198755000Y-89852500D01*
G37*
X198755000Y-89852500D02*
X200279000Y-89852500D01*
X200279000Y-90106500D01*
X200258021Y-90286408D01*
X200159060Y-90352719D01*
X200025000Y-90360500D01*
X199845092Y-90381479D01*
X199778781Y-90480440D01*
X199771000Y-90614500D01*
X199791979Y-90794408D01*
X199890940Y-90860719D01*
X200025000Y-90868500D01*
X200204908Y-90847521D01*
X200271218Y-90748560D01*
X200279000Y-90614500D01*
X200299979Y-90434592D01*
X200398940Y-90368282D01*
X200533000Y-90360500D01*
X200712908Y-90381479D01*
X200779218Y-90480440D01*
X200787000Y-90614500D01*
X200807979Y-90794408D01*
X200906940Y-90860719D01*
X201041000Y-90868500D01*
X201220908Y-90847521D01*
X201287218Y-90748560D01*
X201295000Y-90614500D01*
X201315979Y-90434592D01*
X201414940Y-90368282D01*
X201549000Y-90360500D01*
X201803000Y-90360500D01*
X201803000Y-89344500D01*
X203327000Y-89344500D01*
X203327000Y-89090500D01*
X203306021Y-88910592D01*
X203207060Y-88844282D01*
X203073000Y-88836500D01*
X202893092Y-88815521D01*
X202826781Y-88716560D01*
X202819000Y-88582500D01*
X202798021Y-88402592D01*
X202699060Y-88336282D01*
X202565000Y-88328500D01*
X202385092Y-88307521D01*
X202318781Y-88208560D01*
X202311000Y-88074500D01*
X202331979Y-87894592D01*
X202430940Y-87828282D01*
X202565000Y-87820500D01*
X202744908Y-87799521D01*
X202811218Y-87700560D01*
X202819000Y-87566500D01*
X202839979Y-87386592D01*
X202938940Y-87320282D01*
X203073000Y-87312500D01*
X203327000Y-87312500D01*
X203327000Y-86296500D01*
X202311000Y-86296500D01*
X202311000Y-86804500D01*
X200787000Y-86804500D01*
X200787000Y-86296500D01*
X199263000Y-86296500D01*
X199263000Y-86550500D01*
X199242021Y-86730408D01*
X199143060Y-86796719D01*
X199009000Y-86804500D01*
X198829092Y-86783521D01*
X198762781Y-86684560D01*
X198755000Y-86550500D01*
X198734021Y-86370592D01*
X198635060Y-86304282D01*
X198501000Y-86296500D01*
X198247000Y-86296500D01*
X198247000Y-87312500D01*
X199771000Y-87312500D01*
X199771000Y-87058500D01*
X199791979Y-86878592D01*
X199890940Y-86812282D01*
X200025000Y-86804500D01*
X200204908Y-86825479D01*
X200271218Y-86924440D01*
X200279000Y-87058500D01*
X200279000Y-87312500D01*
X202311000Y-87312500D01*
X202311000Y-87058500D01*
X202331979Y-86878592D01*
X202430940Y-86812282D01*
X202565000Y-86804500D01*
X202744908Y-86825479D01*
X202811218Y-86924440D01*
X202819000Y-87058500D01*
X202798021Y-87238408D01*
X202699060Y-87304719D01*
X202565000Y-87312500D01*
X202385092Y-87333479D01*
X202318781Y-87432440D01*
X202311000Y-87566500D01*
X202290021Y-87746408D01*
X202191060Y-87812719D01*
X202057000Y-87820500D01*
X201877092Y-87841479D01*
X201810781Y-87940440D01*
X201803000Y-88074500D01*
X201823979Y-88254408D01*
X201922940Y-88320719D01*
X202057000Y-88328500D01*
X202236908Y-88349479D01*
X202303218Y-88448440D01*
X202311000Y-88582500D01*
X202290021Y-88762408D01*
X202191060Y-88828719D01*
X202057000Y-88836500D01*
X201877092Y-88857479D01*
X201810781Y-88956440D01*
X201803000Y-89090500D01*
X201782021Y-89270408D01*
X201683060Y-89336719D01*
X201549000Y-89344500D01*
X201369092Y-89323521D01*
X201302781Y-89224560D01*
X201295000Y-89090500D01*
X201274021Y-88910592D01*
X201175060Y-88844282D01*
X201041000Y-88836500D01*
X200787000Y-88836500D01*
X200787000Y-89852500D01*
X201041000Y-89852500D01*
X201220908Y-89873479D01*
X201287218Y-89972440D01*
X201295000Y-90106500D01*
X201274021Y-90286408D01*
X201175060Y-90352719D01*
X201041000Y-90360500D01*
X200861092Y-90339521D01*
X200794781Y-90240560D01*
X200787000Y-90106500D01*
X200766021Y-89926592D01*
X200667060Y-89860282D01*
X200533000Y-89852500D01*
X200353092Y-89831521D01*
X200286781Y-89732560D01*
X200279000Y-89598500D01*
X200279000Y-89344500D01*
X198755000Y-89344500D01*
X198755000Y-89598500D01*
X198734021Y-89778408D01*
X198635060Y-89844719D01*
X198501000Y-89852500D01*
X198247000Y-89852500D01*
X198247000Y-91376500D01*
X198755000Y-91376500D01*
X198755000Y-89852500D01*
G36*
X202311000Y-90868500D02*
G01*
X202565000Y-90868500D01*
X202744908Y-90889479D01*
X202811218Y-90988440D01*
X202819000Y-91122500D01*
X202798021Y-91302408D01*
X202699060Y-91368719D01*
X202565000Y-91376500D01*
X202385092Y-91397479D01*
X202318781Y-91496440D01*
X202311000Y-91630500D01*
X202331979Y-91810408D01*
X202430940Y-91876719D01*
X202565000Y-91884500D01*
X202819000Y-91884500D01*
X202819000Y-92900500D01*
X203327000Y-92900500D01*
X203327000Y-90868500D01*
X202819000Y-90868500D01*
X202819000Y-89852500D01*
X202311000Y-89852500D01*
X202311000Y-90868500D01*
X202311000Y-90868500D01*
G37*
X202311000Y-90868500D02*
X202565000Y-90868500D01*
X202744908Y-90889479D01*
X202811218Y-90988440D01*
X202819000Y-91122500D01*
X202798021Y-91302408D01*
X202699060Y-91368719D01*
X202565000Y-91376500D01*
X202385092Y-91397479D01*
X202318781Y-91496440D01*
X202311000Y-91630500D01*
X202331979Y-91810408D01*
X202430940Y-91876719D01*
X202565000Y-91884500D01*
X202819000Y-91884500D01*
X202819000Y-92900500D01*
X203327000Y-92900500D01*
X203327000Y-90868500D01*
X202819000Y-90868500D01*
X202819000Y-89852500D01*
X202311000Y-89852500D01*
X202311000Y-90868500D01*
G36*
X200787000Y-91884500D02*
G01*
X201803000Y-91884500D01*
X201803000Y-91376500D01*
X200787000Y-91376500D01*
X200787000Y-91884500D01*
X200787000Y-91884500D01*
G37*
X200787000Y-91884500D02*
X201803000Y-91884500D01*
X201803000Y-91376500D01*
X200787000Y-91376500D01*
X200787000Y-91884500D01*
G36*
X188669092Y-89873479D02*
G01*
X188602781Y-89972440D01*
X188595000Y-90106500D01*
X188615979Y-90286408D01*
X188714940Y-90352719D01*
X188849000Y-90360500D01*
X189028908Y-90339521D01*
X189095218Y-90240560D01*
X189103000Y-90106500D01*
X189082021Y-89926592D01*
X188983060Y-89860282D01*
X188849000Y-89852500D01*
X188669092Y-89873479D01*
X188669092Y-89873479D01*
G37*
X188669092Y-89873479D02*
X188602781Y-89972440D01*
X188595000Y-90106500D01*
X188615979Y-90286408D01*
X188714940Y-90352719D01*
X188849000Y-90360500D01*
X189028908Y-90339521D01*
X189095218Y-90240560D01*
X189103000Y-90106500D01*
X189082021Y-89926592D01*
X188983060Y-89860282D01*
X188849000Y-89852500D01*
X188669092Y-89873479D01*
G36*
X190119000Y-86804500D02*
G01*
X189103000Y-86804500D01*
X189103000Y-87312500D01*
X190119000Y-87312500D01*
X190119000Y-87058500D01*
X190139979Y-86878592D01*
X190238940Y-86812282D01*
X190373000Y-86804500D01*
X190627000Y-86804500D01*
X190627000Y-87820500D01*
X190373000Y-87820500D01*
X190193092Y-87841479D01*
X190126781Y-87940440D01*
X190119000Y-88074500D01*
X190139979Y-88254408D01*
X190238940Y-88320719D01*
X190373000Y-88328500D01*
X190552908Y-88307521D01*
X190619218Y-88208560D01*
X190627000Y-88074500D01*
X190647979Y-87894592D01*
X190746940Y-87828282D01*
X190881000Y-87820500D01*
X191060908Y-87799521D01*
X191127218Y-87700560D01*
X191135000Y-87566500D01*
X191155979Y-87386592D01*
X191254940Y-87320282D01*
X191389000Y-87312500D01*
X191568908Y-87291521D01*
X191635218Y-87192560D01*
X191643000Y-87058500D01*
X191622021Y-86878592D01*
X191523060Y-86812282D01*
X191389000Y-86804500D01*
X191209092Y-86783521D01*
X191142781Y-86684560D01*
X191135000Y-86550500D01*
X191135000Y-86296500D01*
X190119000Y-86296500D01*
X190119000Y-86804500D01*
X190119000Y-86804500D01*
G37*
X190119000Y-86804500D02*
X189103000Y-86804500D01*
X189103000Y-87312500D01*
X190119000Y-87312500D01*
X190119000Y-87058500D01*
X190139979Y-86878592D01*
X190238940Y-86812282D01*
X190373000Y-86804500D01*
X190627000Y-86804500D01*
X190627000Y-87820500D01*
X190373000Y-87820500D01*
X190193092Y-87841479D01*
X190126781Y-87940440D01*
X190119000Y-88074500D01*
X190139979Y-88254408D01*
X190238940Y-88320719D01*
X190373000Y-88328500D01*
X190552908Y-88307521D01*
X190619218Y-88208560D01*
X190627000Y-88074500D01*
X190647979Y-87894592D01*
X190746940Y-87828282D01*
X190881000Y-87820500D01*
X191060908Y-87799521D01*
X191127218Y-87700560D01*
X191135000Y-87566500D01*
X191155979Y-87386592D01*
X191254940Y-87320282D01*
X191389000Y-87312500D01*
X191568908Y-87291521D01*
X191635218Y-87192560D01*
X191643000Y-87058500D01*
X191622021Y-86878592D01*
X191523060Y-86812282D01*
X191389000Y-86804500D01*
X191209092Y-86783521D01*
X191142781Y-86684560D01*
X191135000Y-86550500D01*
X191135000Y-86296500D01*
X190119000Y-86296500D01*
X190119000Y-86804500D01*
G36*
X194257092Y-86317479D02*
G01*
X194190781Y-86416440D01*
X194183000Y-86550500D01*
X194203979Y-86730408D01*
X194302940Y-86796719D01*
X194437000Y-86804500D01*
X194616908Y-86783521D01*
X194683218Y-86684560D01*
X194691000Y-86550500D01*
X194670021Y-86370592D01*
X194571060Y-86304282D01*
X194437000Y-86296500D01*
X194257092Y-86317479D01*
X194257092Y-86317479D01*
G37*
X194257092Y-86317479D02*
X194190781Y-86416440D01*
X194183000Y-86550500D01*
X194203979Y-86730408D01*
X194302940Y-86796719D01*
X194437000Y-86804500D01*
X194616908Y-86783521D01*
X194683218Y-86684560D01*
X194691000Y-86550500D01*
X194670021Y-86370592D01*
X194571060Y-86304282D01*
X194437000Y-86296500D01*
X194257092Y-86317479D01*
G36*
X199771000Y-85788500D02*
G01*
X203327000Y-85788500D01*
X203327000Y-82740500D01*
X202819000Y-82740500D01*
X202819000Y-85280500D01*
X200279000Y-85280500D01*
X200279000Y-82740500D01*
X202819000Y-82740500D01*
X203327000Y-82740500D01*
X203327000Y-82232500D01*
X199771000Y-82232500D01*
X199771000Y-85788500D01*
X199771000Y-85788500D01*
G37*
X199771000Y-85788500D02*
X203327000Y-85788500D01*
X203327000Y-82740500D01*
X202819000Y-82740500D01*
X202819000Y-85280500D01*
X200279000Y-85280500D01*
X200279000Y-82740500D01*
X202819000Y-82740500D01*
X203327000Y-82740500D01*
X203327000Y-82232500D01*
X199771000Y-82232500D01*
X199771000Y-85788500D01*
G36*
X198829092Y-85301479D02*
G01*
X198762781Y-85400440D01*
X198755000Y-85534500D01*
X198775979Y-85714408D01*
X198874940Y-85780719D01*
X199009000Y-85788500D01*
X199188908Y-85767521D01*
X199255218Y-85668560D01*
X199263000Y-85534500D01*
X199242021Y-85354592D01*
X199143060Y-85288282D01*
X199009000Y-85280500D01*
X198829092Y-85301479D01*
X198829092Y-85301479D01*
G37*
X198829092Y-85301479D02*
X198762781Y-85400440D01*
X198755000Y-85534500D01*
X198775979Y-85714408D01*
X198874940Y-85780719D01*
X199009000Y-85788500D01*
X199188908Y-85767521D01*
X199255218Y-85668560D01*
X199263000Y-85534500D01*
X199242021Y-85354592D01*
X199143060Y-85288282D01*
X199009000Y-85280500D01*
X198829092Y-85301479D01*
G36*
X188595000Y-85788500D02*
G01*
X192151000Y-85788500D01*
X192151000Y-82740500D01*
X191643000Y-82740500D01*
X191643000Y-85280500D01*
X189103000Y-85280500D01*
X189103000Y-82740500D01*
X191643000Y-82740500D01*
X192151000Y-82740500D01*
X192151000Y-82232500D01*
X188595000Y-82232500D01*
X188595000Y-85788500D01*
X188595000Y-85788500D01*
G37*
X188595000Y-85788500D02*
X192151000Y-85788500D01*
X192151000Y-82740500D01*
X191643000Y-82740500D01*
X191643000Y-85280500D01*
X189103000Y-85280500D01*
X189103000Y-82740500D01*
X191643000Y-82740500D01*
X192151000Y-82740500D01*
X192151000Y-82232500D01*
X188595000Y-82232500D01*
X188595000Y-85788500D01*
G36*
X198829092Y-83777479D02*
G01*
X198762781Y-83876440D01*
X198755000Y-84010500D01*
X198734021Y-84190408D01*
X198635060Y-84256719D01*
X198501000Y-84264500D01*
X198321092Y-84285479D01*
X198254781Y-84384440D01*
X198247000Y-84518500D01*
X198247000Y-84772500D01*
X199263000Y-84772500D01*
X199263000Y-83756500D01*
X199009000Y-83756500D01*
X198829092Y-83777479D01*
X198829092Y-83777479D01*
G37*
X198829092Y-83777479D02*
X198762781Y-83876440D01*
X198755000Y-84010500D01*
X198734021Y-84190408D01*
X198635060Y-84256719D01*
X198501000Y-84264500D01*
X198321092Y-84285479D01*
X198254781Y-84384440D01*
X198247000Y-84518500D01*
X198247000Y-84772500D01*
X199263000Y-84772500D01*
X199263000Y-83756500D01*
X199009000Y-83756500D01*
X198829092Y-83777479D01*
G36*
X197739000Y-83248500D02*
G01*
X198755000Y-83248500D01*
X198755000Y-82740500D01*
X197739000Y-82740500D01*
X197739000Y-83248500D01*
X197739000Y-83248500D01*
G37*
X197739000Y-83248500D02*
X198755000Y-83248500D01*
X198755000Y-82740500D01*
X197739000Y-82740500D01*
X197739000Y-83248500D01*
G36*
X197739000Y-82232500D02*
G01*
X196723000Y-82232500D01*
X196723000Y-82486500D01*
X196702021Y-82666408D01*
X196603060Y-82732719D01*
X196469000Y-82740500D01*
X196289092Y-82719521D01*
X196222781Y-82620560D01*
X196215000Y-82486500D01*
X196215000Y-82232500D01*
X194183000Y-82232500D01*
X194183000Y-83248500D01*
X195199000Y-83248500D01*
X195199000Y-82994500D01*
X195219979Y-82814592D01*
X195318940Y-82748282D01*
X195453000Y-82740500D01*
X195632908Y-82761479D01*
X195699218Y-82860440D01*
X195707000Y-82994500D01*
X195727979Y-83174408D01*
X195826940Y-83240719D01*
X195961000Y-83248500D01*
X196140908Y-83269479D01*
X196207218Y-83368440D01*
X196215000Y-83502500D01*
X196235979Y-83682408D01*
X196334940Y-83748719D01*
X196469000Y-83756500D01*
X196648908Y-83777479D01*
X196715218Y-83876440D01*
X196723000Y-84010500D01*
X196743979Y-84190408D01*
X196842940Y-84256719D01*
X196977000Y-84264500D01*
X197231000Y-84264500D01*
X197231000Y-83248500D01*
X196977000Y-83248500D01*
X196797092Y-83227521D01*
X196730781Y-83128560D01*
X196723000Y-82994500D01*
X196723000Y-82740500D01*
X197739000Y-82740500D01*
X197739000Y-82232500D01*
X197739000Y-82232500D01*
G37*
X197739000Y-82232500D02*
X196723000Y-82232500D01*
X196723000Y-82486500D01*
X196702021Y-82666408D01*
X196603060Y-82732719D01*
X196469000Y-82740500D01*
X196289092Y-82719521D01*
X196222781Y-82620560D01*
X196215000Y-82486500D01*
X196215000Y-82232500D01*
X194183000Y-82232500D01*
X194183000Y-83248500D01*
X195199000Y-83248500D01*
X195199000Y-82994500D01*
X195219979Y-82814592D01*
X195318940Y-82748282D01*
X195453000Y-82740500D01*
X195632908Y-82761479D01*
X195699218Y-82860440D01*
X195707000Y-82994500D01*
X195727979Y-83174408D01*
X195826940Y-83240719D01*
X195961000Y-83248500D01*
X196140908Y-83269479D01*
X196207218Y-83368440D01*
X196215000Y-83502500D01*
X196235979Y-83682408D01*
X196334940Y-83748719D01*
X196469000Y-83756500D01*
X196648908Y-83777479D01*
X196715218Y-83876440D01*
X196723000Y-84010500D01*
X196743979Y-84190408D01*
X196842940Y-84256719D01*
X196977000Y-84264500D01*
X197231000Y-84264500D01*
X197231000Y-83248500D01*
X196977000Y-83248500D01*
X196797092Y-83227521D01*
X196730781Y-83128560D01*
X196723000Y-82994500D01*
X196723000Y-82740500D01*
X197739000Y-82740500D01*
X197739000Y-82232500D01*
G36*
X200787000Y-95948500D02*
G01*
X202311000Y-95948500D01*
X202311000Y-94424500D01*
X200787000Y-94424500D01*
X200787000Y-95948500D01*
X200787000Y-95948500D01*
G37*
X200787000Y-95948500D02*
X202311000Y-95948500D01*
X202311000Y-94424500D01*
X200787000Y-94424500D01*
X200787000Y-95948500D01*
G36*
X194257092Y-94445479D02*
G01*
X194190781Y-94544440D01*
X194183000Y-94678500D01*
X194203979Y-94858408D01*
X194302940Y-94924719D01*
X194437000Y-94932500D01*
X194616908Y-94911521D01*
X194683218Y-94812560D01*
X194691000Y-94678500D01*
X194670021Y-94498592D01*
X194571060Y-94432282D01*
X194437000Y-94424500D01*
X194257092Y-94445479D01*
X194257092Y-94445479D01*
G37*
X194257092Y-94445479D02*
X194190781Y-94544440D01*
X194183000Y-94678500D01*
X194203979Y-94858408D01*
X194302940Y-94924719D01*
X194437000Y-94932500D01*
X194616908Y-94911521D01*
X194683218Y-94812560D01*
X194691000Y-94678500D01*
X194670021Y-94498592D01*
X194571060Y-94432282D01*
X194437000Y-94424500D01*
X194257092Y-94445479D01*
G36*
X191717092Y-93429479D02*
G01*
X191650781Y-93528440D01*
X191643000Y-93662500D01*
X191663979Y-93842408D01*
X191762940Y-93908719D01*
X191897000Y-93916500D01*
X192076908Y-93895521D01*
X192143218Y-93796560D01*
X192151000Y-93662500D01*
X192130021Y-93482592D01*
X192031060Y-93416282D01*
X191897000Y-93408500D01*
X191717092Y-93429479D01*
X191717092Y-93429479D01*
G37*
X191717092Y-93429479D02*
X191650781Y-93528440D01*
X191643000Y-93662500D01*
X191663979Y-93842408D01*
X191762940Y-93908719D01*
X191897000Y-93916500D01*
X192076908Y-93895521D01*
X192143218Y-93796560D01*
X192151000Y-93662500D01*
X192130021Y-93482592D01*
X192031060Y-93416282D01*
X191897000Y-93408500D01*
X191717092Y-93429479D01*
G36*
X196723000Y-89598500D02*
G01*
X196743979Y-89778408D01*
X196842940Y-89844719D01*
X196977000Y-89852500D01*
X197231000Y-89852500D01*
X197231000Y-90868500D01*
X197739000Y-90868500D01*
X197739000Y-89344500D01*
X196723000Y-89344500D01*
X196723000Y-89598500D01*
X196723000Y-89598500D01*
G37*
X196723000Y-89598500D02*
X196743979Y-89778408D01*
X196842940Y-89844719D01*
X196977000Y-89852500D01*
X197231000Y-89852500D01*
X197231000Y-90868500D01*
X197739000Y-90868500D01*
X197739000Y-89344500D01*
X196723000Y-89344500D01*
X196723000Y-89598500D01*
G36*
X199845092Y-87333479D02*
G01*
X199778781Y-87432440D01*
X199771000Y-87566500D01*
X199750021Y-87746408D01*
X199651060Y-87812719D01*
X199517000Y-87820500D01*
X199337092Y-87841479D01*
X199270781Y-87940440D01*
X199263000Y-88074500D01*
X199283979Y-88254408D01*
X199382940Y-88320719D01*
X199517000Y-88328500D01*
X199696908Y-88349479D01*
X199763218Y-88448440D01*
X199771000Y-88582500D01*
X199791979Y-88762408D01*
X199890940Y-88828719D01*
X200025000Y-88836500D01*
X200204908Y-88815521D01*
X200271218Y-88716560D01*
X200279000Y-88582500D01*
X200258021Y-88402592D01*
X200159060Y-88336282D01*
X200025000Y-88328500D01*
X199845092Y-88307521D01*
X199778781Y-88208560D01*
X199771000Y-88074500D01*
X199791979Y-87894592D01*
X199890940Y-87828282D01*
X200025000Y-87820500D01*
X200204908Y-87799521D01*
X200271218Y-87700560D01*
X200279000Y-87566500D01*
X200258021Y-87386592D01*
X200159060Y-87320282D01*
X200025000Y-87312500D01*
X199845092Y-87333479D01*
X199845092Y-87333479D01*
G37*
X199845092Y-87333479D02*
X199778781Y-87432440D01*
X199771000Y-87566500D01*
X199750021Y-87746408D01*
X199651060Y-87812719D01*
X199517000Y-87820500D01*
X199337092Y-87841479D01*
X199270781Y-87940440D01*
X199263000Y-88074500D01*
X199283979Y-88254408D01*
X199382940Y-88320719D01*
X199517000Y-88328500D01*
X199696908Y-88349479D01*
X199763218Y-88448440D01*
X199771000Y-88582500D01*
X199791979Y-88762408D01*
X199890940Y-88828719D01*
X200025000Y-88836500D01*
X200204908Y-88815521D01*
X200271218Y-88716560D01*
X200279000Y-88582500D01*
X200258021Y-88402592D01*
X200159060Y-88336282D01*
X200025000Y-88328500D01*
X199845092Y-88307521D01*
X199778781Y-88208560D01*
X199771000Y-88074500D01*
X199791979Y-87894592D01*
X199890940Y-87828282D01*
X200025000Y-87820500D01*
X200204908Y-87799521D01*
X200271218Y-87700560D01*
X200279000Y-87566500D01*
X200258021Y-87386592D01*
X200159060Y-87320282D01*
X200025000Y-87312500D01*
X199845092Y-87333479D01*
G36*
X197813092Y-87333479D02*
G01*
X197746781Y-87432440D01*
X197739000Y-87566500D01*
X197759979Y-87746408D01*
X197858940Y-87812719D01*
X197993000Y-87820500D01*
X198247000Y-87820500D01*
X198247000Y-88836500D01*
X198755000Y-88836500D01*
X198755000Y-87820500D01*
X198501000Y-87820500D01*
X198321092Y-87799521D01*
X198254781Y-87700560D01*
X198247000Y-87566500D01*
X198226021Y-87386592D01*
X198127060Y-87320282D01*
X197993000Y-87312500D01*
X197813092Y-87333479D01*
X197813092Y-87333479D01*
G37*
X197813092Y-87333479D02*
X197746781Y-87432440D01*
X197739000Y-87566500D01*
X197759979Y-87746408D01*
X197858940Y-87812719D01*
X197993000Y-87820500D01*
X198247000Y-87820500D01*
X198247000Y-88836500D01*
X198755000Y-88836500D01*
X198755000Y-87820500D01*
X198501000Y-87820500D01*
X198321092Y-87799521D01*
X198254781Y-87700560D01*
X198247000Y-87566500D01*
X198226021Y-87386592D01*
X198127060Y-87320282D01*
X197993000Y-87312500D01*
X197813092Y-87333479D01*
G36*
X200861092Y-87841479D02*
G01*
X200794781Y-87940440D01*
X200787000Y-88074500D01*
X200807979Y-88254408D01*
X200906940Y-88320719D01*
X201041000Y-88328500D01*
X201220908Y-88307521D01*
X201287218Y-88208560D01*
X201295000Y-88074500D01*
X201274021Y-87894592D01*
X201175060Y-87828282D01*
X201041000Y-87820500D01*
X200861092Y-87841479D01*
X200861092Y-87841479D01*
G37*
X200861092Y-87841479D02*
X200794781Y-87940440D01*
X200787000Y-88074500D01*
X200807979Y-88254408D01*
X200906940Y-88320719D01*
X201041000Y-88328500D01*
X201220908Y-88307521D01*
X201287218Y-88208560D01*
X201295000Y-88074500D01*
X201274021Y-87894592D01*
X201175060Y-87828282D01*
X201041000Y-87820500D01*
X200861092Y-87841479D01*
G36*
X200787000Y-84772500D02*
G01*
X202311000Y-84772500D01*
X202311000Y-83248500D01*
X200787000Y-83248500D01*
X200787000Y-84772500D01*
X200787000Y-84772500D01*
G37*
X200787000Y-84772500D02*
X202311000Y-84772500D01*
X202311000Y-83248500D01*
X200787000Y-83248500D01*
X200787000Y-84772500D01*
G36*
X189611000Y-84772500D02*
G01*
X191135000Y-84772500D01*
X191135000Y-83248500D01*
X189611000Y-83248500D01*
X189611000Y-84772500D01*
X189611000Y-84772500D01*
G37*
X189611000Y-84772500D02*
X191135000Y-84772500D01*
X191135000Y-83248500D01*
X189611000Y-83248500D01*
X189611000Y-84772500D01*
G36*
X85465536Y-70224650D02*
G01*
X85463994Y-70554552D01*
X85462434Y-70837481D01*
X85460739Y-71077261D01*
X85458792Y-71277719D01*
X85456477Y-71442681D01*
X85453678Y-71575972D01*
X85450276Y-71681418D01*
X85446156Y-71762845D01*
X85441201Y-71824080D01*
X85435293Y-71868947D01*
X85428317Y-71901274D01*
X85420155Y-71924885D01*
X85413198Y-71939150D01*
X85368096Y-72021700D01*
X86182200Y-72021700D01*
X86182200Y-71945500D01*
X86185559Y-71891952D01*
X86193649Y-71869304D01*
X86193773Y-71869300D01*
X86219891Y-71882284D01*
X86272274Y-71915037D01*
X86299097Y-71932921D01*
X86431397Y-72000147D01*
X86591063Y-72047089D01*
X86759978Y-72070838D01*
X86920023Y-72068484D01*
X87020400Y-72048747D01*
X87204462Y-71967439D01*
X87369590Y-71845700D01*
X87504483Y-71693010D01*
X87565845Y-71591194D01*
X87633269Y-71433529D01*
X87677145Y-71267451D01*
X87700286Y-71078903D01*
X87705759Y-70892413D01*
X87704998Y-70878700D01*
X86904864Y-70878700D01*
X86900366Y-71054395D01*
X86886751Y-71187914D01*
X86861523Y-71287449D01*
X86822188Y-71361191D01*
X86766249Y-71417331D01*
X86733984Y-71439670D01*
X86627579Y-71477664D01*
X86501856Y-71474676D01*
X86366797Y-71431228D01*
X86342501Y-71419273D01*
X86245700Y-71369057D01*
X86238858Y-70819987D01*
X86232015Y-70270916D01*
X86299109Y-70226954D01*
X86362640Y-70200207D01*
X86452332Y-70179544D01*
X86510367Y-70172565D01*
X86598745Y-70169470D01*
X86657709Y-70179595D01*
X86708015Y-70208183D01*
X86734073Y-70229068D01*
X86801417Y-70302667D01*
X86850336Y-70398237D01*
X86882659Y-70522734D01*
X86900213Y-70683111D01*
X86904864Y-70878700D01*
X87704998Y-70878700D01*
X87689325Y-70596465D01*
X87641458Y-70336634D01*
X87562829Y-70114009D01*
X87454111Y-69929680D01*
X87315975Y-69784737D01*
X87149094Y-69680268D01*
X86954140Y-69617364D01*
X86914830Y-69610335D01*
X86799297Y-69602075D01*
X86671937Y-69608929D01*
X86545339Y-69628352D01*
X86432088Y-69657799D01*
X86344772Y-69694725D01*
X86296738Y-69735315D01*
X86275873Y-69759782D01*
X86259830Y-69754692D01*
X86248075Y-69716157D01*
X86240076Y-69640288D01*
X86235298Y-69523201D01*
X86233207Y-69361006D01*
X86233000Y-69271170D01*
X86233523Y-69097073D01*
X86235531Y-68965717D01*
X86239689Y-68869050D01*
X86246657Y-68799019D01*
X86257099Y-68747573D01*
X86271678Y-68706658D01*
X86281062Y-68686970D01*
X86329124Y-68592700D01*
X85472772Y-68592700D01*
X85465536Y-70224650D01*
X85465536Y-70224650D01*
G37*
X85465536Y-70224650D02*
X85463994Y-70554552D01*
X85462434Y-70837481D01*
X85460739Y-71077261D01*
X85458792Y-71277719D01*
X85456477Y-71442681D01*
X85453678Y-71575972D01*
X85450276Y-71681418D01*
X85446156Y-71762845D01*
X85441201Y-71824080D01*
X85435293Y-71868947D01*
X85428317Y-71901274D01*
X85420155Y-71924885D01*
X85413198Y-71939150D01*
X85368096Y-72021700D01*
X86182200Y-72021700D01*
X86182200Y-71945500D01*
X86185559Y-71891952D01*
X86193649Y-71869304D01*
X86193773Y-71869300D01*
X86219891Y-71882284D01*
X86272274Y-71915037D01*
X86299097Y-71932921D01*
X86431397Y-72000147D01*
X86591063Y-72047089D01*
X86759978Y-72070838D01*
X86920023Y-72068484D01*
X87020400Y-72048747D01*
X87204462Y-71967439D01*
X87369590Y-71845700D01*
X87504483Y-71693010D01*
X87565845Y-71591194D01*
X87633269Y-71433529D01*
X87677145Y-71267451D01*
X87700286Y-71078903D01*
X87705759Y-70892413D01*
X87704998Y-70878700D01*
X86904864Y-70878700D01*
X86900366Y-71054395D01*
X86886751Y-71187914D01*
X86861523Y-71287449D01*
X86822188Y-71361191D01*
X86766249Y-71417331D01*
X86733984Y-71439670D01*
X86627579Y-71477664D01*
X86501856Y-71474676D01*
X86366797Y-71431228D01*
X86342501Y-71419273D01*
X86245700Y-71369057D01*
X86238858Y-70819987D01*
X86232015Y-70270916D01*
X86299109Y-70226954D01*
X86362640Y-70200207D01*
X86452332Y-70179544D01*
X86510367Y-70172565D01*
X86598745Y-70169470D01*
X86657709Y-70179595D01*
X86708015Y-70208183D01*
X86734073Y-70229068D01*
X86801417Y-70302667D01*
X86850336Y-70398237D01*
X86882659Y-70522734D01*
X86900213Y-70683111D01*
X86904864Y-70878700D01*
X87704998Y-70878700D01*
X87689325Y-70596465D01*
X87641458Y-70336634D01*
X87562829Y-70114009D01*
X87454111Y-69929680D01*
X87315975Y-69784737D01*
X87149094Y-69680268D01*
X86954140Y-69617364D01*
X86914830Y-69610335D01*
X86799297Y-69602075D01*
X86671937Y-69608929D01*
X86545339Y-69628352D01*
X86432088Y-69657799D01*
X86344772Y-69694725D01*
X86296738Y-69735315D01*
X86275873Y-69759782D01*
X86259830Y-69754692D01*
X86248075Y-69716157D01*
X86240076Y-69640288D01*
X86235298Y-69523201D01*
X86233207Y-69361006D01*
X86233000Y-69271170D01*
X86233523Y-69097073D01*
X86235531Y-68965717D01*
X86239689Y-68869050D01*
X86246657Y-68799019D01*
X86257099Y-68747573D01*
X86271678Y-68706658D01*
X86281062Y-68686970D01*
X86329124Y-68592700D01*
X85472772Y-68592700D01*
X85465536Y-70224650D01*
G36*
X88685380Y-69619859D02*
G01*
X88509424Y-69659764D01*
X88390487Y-69704395D01*
X88297902Y-69760278D01*
X88215221Y-69833860D01*
X88162083Y-69888688D01*
X88118604Y-69940329D01*
X88083709Y-69994492D01*
X88056324Y-70056887D01*
X88035376Y-70133223D01*
X88019791Y-70229210D01*
X88008496Y-70350558D01*
X88000415Y-70502975D01*
X87994477Y-70692170D01*
X87989606Y-70923855D01*
X87987451Y-71044977D01*
X87983193Y-71276934D01*
X87979070Y-71463551D01*
X87974724Y-71610285D01*
X87969797Y-71722595D01*
X87963932Y-71805937D01*
X87956769Y-71865769D01*
X87947951Y-71907549D01*
X87937120Y-71936734D01*
X87927865Y-71953027D01*
X87882829Y-72021700D01*
X88693582Y-72021700D01*
X88709500Y-71868198D01*
X88808898Y-71935983D01*
X88965054Y-72014754D01*
X89145908Y-72060678D01*
X89335705Y-72071637D01*
X89518691Y-72045511D01*
X89552166Y-72035936D01*
X89738571Y-71953612D01*
X89889480Y-71836085D01*
X90002348Y-71686821D01*
X90074625Y-71509286D01*
X90103765Y-71306943D01*
X90104212Y-71285100D01*
X90103548Y-71256045D01*
X89375293Y-71256045D01*
X89371037Y-71345384D01*
X89360910Y-71376002D01*
X89298221Y-71456589D01*
X89203277Y-71510981D01*
X89089673Y-71534852D01*
X88971004Y-71523878D01*
X88933404Y-71512008D01*
X88846217Y-71470468D01*
X88790576Y-71417866D01*
X88760106Y-71342780D01*
X88748434Y-71233789D01*
X88747600Y-71179072D01*
X88747600Y-70980300D01*
X88913516Y-70980300D01*
X89077253Y-70995324D01*
X89215872Y-71038233D01*
X89311324Y-71099055D01*
X89353931Y-71165798D01*
X89375293Y-71256045D01*
X90103548Y-71256045D01*
X90101597Y-71170773D01*
X90087949Y-71083474D01*
X90058450Y-70999811D01*
X90035118Y-70949715D01*
X89930777Y-70793136D01*
X89786396Y-70667258D01*
X89602631Y-70572378D01*
X89380138Y-70508791D01*
X89119574Y-70476795D01*
X88979206Y-70472741D01*
X88740912Y-70472300D01*
X88754804Y-70368728D01*
X88790738Y-70255460D01*
X88862656Y-70177007D01*
X88969276Y-70133663D01*
X89109313Y-70125723D01*
X89281484Y-70153480D01*
X89458491Y-70207644D01*
X89542949Y-70234913D01*
X89607942Y-70249873D01*
X89639805Y-70249408D01*
X89640138Y-70249089D01*
X89657724Y-70217372D01*
X89687820Y-70151412D01*
X89725098Y-70064245D01*
X89764227Y-69968904D01*
X89799878Y-69878425D01*
X89826720Y-69805840D01*
X89839425Y-69764185D01*
X89839800Y-69760802D01*
X89818010Y-69742117D01*
X89774553Y-69735700D01*
X89722969Y-69729537D01*
X89636150Y-69712924D01*
X89527897Y-69688675D01*
X89450703Y-69669673D01*
X89184904Y-69618860D01*
X88926224Y-69602218D01*
X88685380Y-69619859D01*
X88685380Y-69619859D01*
G37*
X88685380Y-69619859D02*
X88509424Y-69659764D01*
X88390487Y-69704395D01*
X88297902Y-69760278D01*
X88215221Y-69833860D01*
X88162083Y-69888688D01*
X88118604Y-69940329D01*
X88083709Y-69994492D01*
X88056324Y-70056887D01*
X88035376Y-70133223D01*
X88019791Y-70229210D01*
X88008496Y-70350558D01*
X88000415Y-70502975D01*
X87994477Y-70692170D01*
X87989606Y-70923855D01*
X87987451Y-71044977D01*
X87983193Y-71276934D01*
X87979070Y-71463551D01*
X87974724Y-71610285D01*
X87969797Y-71722595D01*
X87963932Y-71805937D01*
X87956769Y-71865769D01*
X87947951Y-71907549D01*
X87937120Y-71936734D01*
X87927865Y-71953027D01*
X87882829Y-72021700D01*
X88693582Y-72021700D01*
X88709500Y-71868198D01*
X88808898Y-71935983D01*
X88965054Y-72014754D01*
X89145908Y-72060678D01*
X89335705Y-72071637D01*
X89518691Y-72045511D01*
X89552166Y-72035936D01*
X89738571Y-71953612D01*
X89889480Y-71836085D01*
X90002348Y-71686821D01*
X90074625Y-71509286D01*
X90103765Y-71306943D01*
X90104212Y-71285100D01*
X90103548Y-71256045D01*
X89375293Y-71256045D01*
X89371037Y-71345384D01*
X89360910Y-71376002D01*
X89298221Y-71456589D01*
X89203277Y-71510981D01*
X89089673Y-71534852D01*
X88971004Y-71523878D01*
X88933404Y-71512008D01*
X88846217Y-71470468D01*
X88790576Y-71417866D01*
X88760106Y-71342780D01*
X88748434Y-71233789D01*
X88747600Y-71179072D01*
X88747600Y-70980300D01*
X88913516Y-70980300D01*
X89077253Y-70995324D01*
X89215872Y-71038233D01*
X89311324Y-71099055D01*
X89353931Y-71165798D01*
X89375293Y-71256045D01*
X90103548Y-71256045D01*
X90101597Y-71170773D01*
X90087949Y-71083474D01*
X90058450Y-70999811D01*
X90035118Y-70949715D01*
X89930777Y-70793136D01*
X89786396Y-70667258D01*
X89602631Y-70572378D01*
X89380138Y-70508791D01*
X89119574Y-70476795D01*
X88979206Y-70472741D01*
X88740912Y-70472300D01*
X88754804Y-70368728D01*
X88790738Y-70255460D01*
X88862656Y-70177007D01*
X88969276Y-70133663D01*
X89109313Y-70125723D01*
X89281484Y-70153480D01*
X89458491Y-70207644D01*
X89542949Y-70234913D01*
X89607942Y-70249873D01*
X89639805Y-70249408D01*
X89640138Y-70249089D01*
X89657724Y-70217372D01*
X89687820Y-70151412D01*
X89725098Y-70064245D01*
X89764227Y-69968904D01*
X89799878Y-69878425D01*
X89826720Y-69805840D01*
X89839425Y-69764185D01*
X89839800Y-69760802D01*
X89818010Y-69742117D01*
X89774553Y-69735700D01*
X89722969Y-69729537D01*
X89636150Y-69712924D01*
X89527897Y-69688675D01*
X89450703Y-69669673D01*
X89184904Y-69618860D01*
X88926224Y-69602218D01*
X88685380Y-69619859D01*
G36*
X90768324Y-68773841D02*
G01*
X90727089Y-68783643D01*
X90656121Y-68806329D01*
X90560827Y-68842463D01*
X90453479Y-68886687D01*
X90346347Y-68933647D01*
X90251702Y-68977987D01*
X90181815Y-69014351D01*
X90150936Y-69035098D01*
X90160626Y-69058082D01*
X90192964Y-69113008D01*
X90241536Y-69190151D01*
X90299926Y-69279788D01*
X90361719Y-69372195D01*
X90420498Y-69457651D01*
X90469848Y-69526430D01*
X90502323Y-69567659D01*
X90530764Y-69565124D01*
X90582919Y-69534835D01*
X90626593Y-69500812D01*
X90771702Y-69408726D01*
X90936513Y-69363059D01*
X91094902Y-69361784D01*
X91265602Y-69402402D01*
X91409741Y-69485627D01*
X91526755Y-69610425D01*
X91616081Y-69775760D01*
X91677157Y-69980597D01*
X91709419Y-70223901D01*
X91712574Y-70497700D01*
X91691133Y-70745326D01*
X91646016Y-70951241D01*
X91575370Y-71119605D01*
X91477343Y-71254580D01*
X91350083Y-71360326D01*
X91320421Y-71378651D01*
X91243227Y-71418915D01*
X91171762Y-71440376D01*
X91083973Y-71448176D01*
X91020900Y-71448509D01*
X90861183Y-71432854D01*
X90722453Y-71384892D01*
X90588375Y-71298113D01*
X90538154Y-71256163D01*
X90483908Y-71211662D01*
X90447586Y-71187725D01*
X90439945Y-71186469D01*
X90417784Y-71219788D01*
X90378502Y-71283833D01*
X90327770Y-71368848D01*
X90271257Y-71465075D01*
X90214634Y-71562757D01*
X90163569Y-71652136D01*
X90123735Y-71723456D01*
X90100799Y-71766960D01*
X90097547Y-71775680D01*
X90122782Y-71789054D01*
X90180656Y-71819753D01*
X90258938Y-71861286D01*
X90263543Y-71863730D01*
X90425853Y-71944112D01*
X90568788Y-71999428D01*
X90710728Y-72034486D01*
X90870053Y-72054093D01*
X91020900Y-72061840D01*
X91213715Y-72063069D01*
X91365750Y-72053613D01*
X91456564Y-72038065D01*
X91688799Y-71953218D01*
X91901841Y-71824218D01*
X92091634Y-71655406D01*
X92254122Y-71451123D01*
X92385248Y-71215709D01*
X92480956Y-70953505D01*
X92485452Y-70937132D01*
X92521750Y-70750526D01*
X92540655Y-70536420D01*
X92542177Y-70312757D01*
X92526331Y-70097482D01*
X92493128Y-69908540D01*
X92484703Y-69876544D01*
X92382939Y-69602935D01*
X92240268Y-69356968D01*
X92059196Y-69142153D01*
X91842230Y-68961995D01*
X91821000Y-68947582D01*
X91643356Y-68855004D01*
X91435302Y-68789248D01*
X91210802Y-68752407D01*
X90983822Y-68746573D01*
X90768324Y-68773841D01*
X90768324Y-68773841D01*
G37*
X90768324Y-68773841D02*
X90727089Y-68783643D01*
X90656121Y-68806329D01*
X90560827Y-68842463D01*
X90453479Y-68886687D01*
X90346347Y-68933647D01*
X90251702Y-68977987D01*
X90181815Y-69014351D01*
X90150936Y-69035098D01*
X90160626Y-69058082D01*
X90192964Y-69113008D01*
X90241536Y-69190151D01*
X90299926Y-69279788D01*
X90361719Y-69372195D01*
X90420498Y-69457651D01*
X90469848Y-69526430D01*
X90502323Y-69567659D01*
X90530764Y-69565124D01*
X90582919Y-69534835D01*
X90626593Y-69500812D01*
X90771702Y-69408726D01*
X90936513Y-69363059D01*
X91094902Y-69361784D01*
X91265602Y-69402402D01*
X91409741Y-69485627D01*
X91526755Y-69610425D01*
X91616081Y-69775760D01*
X91677157Y-69980597D01*
X91709419Y-70223901D01*
X91712574Y-70497700D01*
X91691133Y-70745326D01*
X91646016Y-70951241D01*
X91575370Y-71119605D01*
X91477343Y-71254580D01*
X91350083Y-71360326D01*
X91320421Y-71378651D01*
X91243227Y-71418915D01*
X91171762Y-71440376D01*
X91083973Y-71448176D01*
X91020900Y-71448509D01*
X90861183Y-71432854D01*
X90722453Y-71384892D01*
X90588375Y-71298113D01*
X90538154Y-71256163D01*
X90483908Y-71211662D01*
X90447586Y-71187725D01*
X90439945Y-71186469D01*
X90417784Y-71219788D01*
X90378502Y-71283833D01*
X90327770Y-71368848D01*
X90271257Y-71465075D01*
X90214634Y-71562757D01*
X90163569Y-71652136D01*
X90123735Y-71723456D01*
X90100799Y-71766960D01*
X90097547Y-71775680D01*
X90122782Y-71789054D01*
X90180656Y-71819753D01*
X90258938Y-71861286D01*
X90263543Y-71863730D01*
X90425853Y-71944112D01*
X90568788Y-71999428D01*
X90710728Y-72034486D01*
X90870053Y-72054093D01*
X91020900Y-72061840D01*
X91213715Y-72063069D01*
X91365750Y-72053613D01*
X91456564Y-72038065D01*
X91688799Y-71953218D01*
X91901841Y-71824218D01*
X92091634Y-71655406D01*
X92254122Y-71451123D01*
X92385248Y-71215709D01*
X92480956Y-70953505D01*
X92485452Y-70937132D01*
X92521750Y-70750526D01*
X92540655Y-70536420D01*
X92542177Y-70312757D01*
X92526331Y-70097482D01*
X92493128Y-69908540D01*
X92484703Y-69876544D01*
X92382939Y-69602935D01*
X92240268Y-69356968D01*
X92059196Y-69142153D01*
X91842230Y-68961995D01*
X91821000Y-68947582D01*
X91643356Y-68855004D01*
X91435302Y-68789248D01*
X91210802Y-68752407D01*
X90983822Y-68746573D01*
X90768324Y-68773841D01*
G36*
X92861637Y-68210199D02*
G01*
X92839845Y-68217476D01*
X92821414Y-68233920D01*
X92806065Y-68262697D01*
X92793519Y-68306974D01*
X92783495Y-68369918D01*
X92775717Y-68454694D01*
X92769904Y-68564471D01*
X92765777Y-68702414D01*
X92763057Y-68871691D01*
X92761465Y-69075468D01*
X92760723Y-69316911D01*
X92760550Y-69599187D01*
X92760668Y-69925464D01*
X92760797Y-70298907D01*
X92760800Y-70358000D01*
X92760878Y-70733384D01*
X92761151Y-71061211D01*
X92761682Y-71344721D01*
X92762531Y-71587158D01*
X92763760Y-71791761D01*
X92765431Y-71961774D01*
X92767605Y-72100439D01*
X92770343Y-72210996D01*
X92773708Y-72296688D01*
X92777759Y-72360757D01*
X92782559Y-72406444D01*
X92788169Y-72436992D01*
X92794651Y-72455641D01*
X92800715Y-72464385D01*
X92811791Y-72471492D01*
X92831999Y-72477713D01*
X92864510Y-72483106D01*
X92912497Y-72487729D01*
X92979133Y-72491640D01*
X93067590Y-72494896D01*
X93181040Y-72497556D01*
X93322656Y-72499675D01*
X93495610Y-72501313D01*
X93703076Y-72502528D01*
X93948224Y-72503376D01*
X94234229Y-72503915D01*
X94564261Y-72504203D01*
X94941495Y-72504298D01*
X94996001Y-72504300D01*
X95379824Y-72504226D01*
X95716020Y-72503967D01*
X96007761Y-72503465D01*
X96258219Y-72502662D01*
X96470568Y-72501500D01*
X96647979Y-72499922D01*
X96793625Y-72497871D01*
X96910678Y-72495287D01*
X97002312Y-72492115D01*
X97071697Y-72488295D01*
X97122008Y-72483771D01*
X97156416Y-72478485D01*
X97178093Y-72472379D01*
X97190213Y-72465395D01*
X97191286Y-72464385D01*
X97198535Y-72453127D01*
X97204862Y-72432652D01*
X97210328Y-72399719D01*
X97214994Y-72351086D01*
X97218922Y-72283511D01*
X97222174Y-72193752D01*
X97224810Y-72078568D01*
X97226893Y-71934717D01*
X97228483Y-71758956D01*
X97229642Y-71548044D01*
X97230432Y-71298739D01*
X97230914Y-71007800D01*
X97231149Y-70671984D01*
X97231200Y-70358000D01*
X97231123Y-69982615D01*
X97230850Y-69654788D01*
X97230319Y-69371278D01*
X97229470Y-69128841D01*
X97228241Y-68924238D01*
X97227052Y-68803229D01*
X96951801Y-68803229D01*
X96941363Y-68828138D01*
X96915056Y-68882344D01*
X96901001Y-68910199D01*
X96890068Y-68933274D01*
X96880826Y-68958920D01*
X96873133Y-68991359D01*
X96866848Y-69034808D01*
X96861828Y-69093488D01*
X96857932Y-69171617D01*
X96855017Y-69273417D01*
X96852943Y-69403105D01*
X96851566Y-69564901D01*
X96850746Y-69763025D01*
X96850341Y-70001697D01*
X96850209Y-70285135D01*
X96850201Y-70421790D01*
X96850561Y-70685226D01*
X96851598Y-70933537D01*
X96853244Y-71162056D01*
X96855432Y-71366118D01*
X96858097Y-71541058D01*
X96861170Y-71682211D01*
X96864585Y-71784910D01*
X96868276Y-71844491D01*
X96870776Y-71857870D01*
X96895200Y-71897636D01*
X96921032Y-71951850D01*
X96950711Y-72021700D01*
X96424206Y-72021311D01*
X96269033Y-72020349D01*
X96134650Y-72017881D01*
X96028001Y-72014174D01*
X95956030Y-72009492D01*
X95925681Y-72004100D01*
X95925906Y-72002261D01*
X95955855Y-71968326D01*
X95991668Y-71910126D01*
X95995756Y-71902311D01*
X96010682Y-71865021D01*
X96021693Y-71814767D01*
X96029331Y-71744056D01*
X96034134Y-71645398D01*
X96036644Y-71511300D01*
X96037399Y-71334272D01*
X96037400Y-71324461D01*
X96036167Y-71146847D01*
X96032604Y-71004376D01*
X96026922Y-70901227D01*
X96019328Y-70841578D01*
X96012586Y-70827900D01*
X95983086Y-70847270D01*
X95945359Y-70894244D01*
X95943085Y-70897750D01*
X95902507Y-70954768D01*
X95868301Y-70993000D01*
X95837853Y-71030132D01*
X95797917Y-71092466D01*
X95784329Y-71116333D01*
X95742180Y-71183430D01*
X95679473Y-71272220D01*
X95608408Y-71365564D01*
X95594458Y-71383033D01*
X95486339Y-71525844D01*
X95395862Y-71662467D01*
X95327611Y-71784849D01*
X95286169Y-71884940D01*
X95275400Y-71943423D01*
X95275400Y-72021700D01*
X94148945Y-72021700D01*
X94161071Y-72007988D01*
X94005400Y-72007988D01*
X93981301Y-72012257D01*
X93914204Y-72015985D01*
X93811911Y-72018948D01*
X93682222Y-72020926D01*
X93532939Y-72021696D01*
X93522800Y-72021700D01*
X93346033Y-72020908D01*
X93214899Y-72018306D01*
X93124253Y-72013556D01*
X93068950Y-72006318D01*
X93043844Y-71996252D01*
X93041008Y-71989950D01*
X93055962Y-71946054D01*
X93079108Y-71908895D01*
X93088302Y-71890192D01*
X93095898Y-71857695D01*
X93102041Y-71806998D01*
X93106873Y-71733696D01*
X93110536Y-71633383D01*
X93113174Y-71501654D01*
X93114930Y-71334104D01*
X93115947Y-71126327D01*
X93116367Y-70873918D01*
X93116400Y-70759545D01*
X93116400Y-69659500D01*
X93981305Y-69659500D01*
X93942553Y-69734438D01*
X93932522Y-69760315D01*
X93924333Y-69798592D01*
X93917808Y-69854107D01*
X93912774Y-69931697D01*
X93909053Y-70036200D01*
X93906471Y-70172454D01*
X93904852Y-70345297D01*
X93904021Y-70559567D01*
X93903800Y-70802250D01*
X93903914Y-71053940D01*
X93904415Y-71260011D01*
X93905545Y-71425647D01*
X93907545Y-71556027D01*
X93910655Y-71656335D01*
X93915117Y-71731751D01*
X93921171Y-71787457D01*
X93929059Y-71828635D01*
X93939021Y-71860467D01*
X93951299Y-71888135D01*
X93954600Y-71894700D01*
X93985510Y-71958136D01*
X94003520Y-72000610D01*
X94005400Y-72007988D01*
X94161071Y-72007988D01*
X94210523Y-71952070D01*
X94254445Y-71902766D01*
X94282627Y-71871790D01*
X94284800Y-71869520D01*
X94342555Y-71806405D01*
X94414037Y-71722189D01*
X94489103Y-71629565D01*
X94557609Y-71541225D01*
X94609412Y-71469861D01*
X94629624Y-71438047D01*
X94669845Y-71374084D01*
X94733338Y-71282799D01*
X94811196Y-71176180D01*
X94894513Y-71066215D01*
X94974383Y-70964890D01*
X95036727Y-70890107D01*
X95097171Y-70813048D01*
X95153841Y-70729443D01*
X95158022Y-70722550D01*
X95285363Y-70524436D01*
X95381006Y-70393856D01*
X95450964Y-70302712D01*
X95369532Y-70215260D01*
X95299340Y-70136161D01*
X95209285Y-70029392D01*
X95109943Y-69907951D01*
X95011893Y-69784839D01*
X94925711Y-69673055D01*
X94896849Y-69634315D01*
X94592059Y-69254392D01*
X94352721Y-68997287D01*
X94153941Y-68795900D01*
X94699253Y-68795900D01*
X94884450Y-68796023D01*
X95025002Y-68797361D01*
X95127063Y-68801367D01*
X95196788Y-68809493D01*
X95240331Y-68823191D01*
X95263847Y-68843916D01*
X95273489Y-68873118D01*
X95275414Y-68912251D01*
X95275400Y-68931890D01*
X95290988Y-68985342D01*
X95330059Y-69052621D01*
X95347701Y-69075862D01*
X95406348Y-69153168D01*
X95469110Y-69244086D01*
X95491198Y-69278500D01*
X95534448Y-69345264D01*
X95568088Y-69392431D01*
X95579761Y-69405500D01*
X95609555Y-69434839D01*
X95658755Y-69490518D01*
X95718478Y-69561608D01*
X95779838Y-69637181D01*
X95833953Y-69706308D01*
X95871937Y-69758061D01*
X95885000Y-69780983D01*
X95901818Y-69810474D01*
X95943854Y-69858217D01*
X95961201Y-69875400D01*
X96037401Y-69948404D01*
X96037400Y-69528588D01*
X96035807Y-69345802D01*
X96030105Y-69202976D01*
X96018907Y-69089340D01*
X96000828Y-68994129D01*
X95974482Y-68906575D01*
X95948836Y-68840350D01*
X95945606Y-68825271D01*
X95954351Y-68814038D01*
X95981295Y-68806091D01*
X96032662Y-68800867D01*
X96114676Y-68797803D01*
X96233561Y-68796338D01*
X96395540Y-68795910D01*
X96441083Y-68795900D01*
X96595917Y-68796246D01*
X96731878Y-68797212D01*
X96841383Y-68798690D01*
X96916849Y-68800571D01*
X96950692Y-68802745D01*
X96951801Y-68803229D01*
X97227052Y-68803229D01*
X97226570Y-68754225D01*
X97224396Y-68615560D01*
X97221658Y-68505003D01*
X97218293Y-68419311D01*
X97214242Y-68355242D01*
X97209442Y-68309555D01*
X97203832Y-68279007D01*
X97197350Y-68260358D01*
X97191286Y-68251614D01*
X97178822Y-68243434D01*
X97156563Y-68236438D01*
X97120809Y-68230534D01*
X97067859Y-68225633D01*
X96994012Y-68221644D01*
X96895569Y-68218478D01*
X96768827Y-68216044D01*
X96610087Y-68214252D01*
X96415647Y-68213011D01*
X96181807Y-68212233D01*
X95904865Y-68211826D01*
X95581122Y-68211700D01*
X93954600Y-68211700D01*
X93954600Y-68307918D01*
X93934521Y-68423835D01*
X93881475Y-68542500D01*
X93806246Y-68643491D01*
X93753994Y-68687744D01*
X93640454Y-68734870D01*
X93509500Y-68745136D01*
X93375372Y-68721418D01*
X93252310Y-68666589D01*
X93154552Y-68583523D01*
X93139200Y-68563647D01*
X93092194Y-68462928D01*
X93070561Y-68347377D01*
X93059310Y-68211699D01*
X92949970Y-68211700D01*
X92916420Y-68210477D01*
X92887069Y-68208921D01*
X92861637Y-68210199D01*
X92861637Y-68210199D01*
G37*
X92861637Y-68210199D02*
X92839845Y-68217476D01*
X92821414Y-68233920D01*
X92806065Y-68262697D01*
X92793519Y-68306974D01*
X92783495Y-68369918D01*
X92775717Y-68454694D01*
X92769904Y-68564471D01*
X92765777Y-68702414D01*
X92763057Y-68871691D01*
X92761465Y-69075468D01*
X92760723Y-69316911D01*
X92760550Y-69599187D01*
X92760668Y-69925464D01*
X92760797Y-70298907D01*
X92760800Y-70358000D01*
X92760878Y-70733384D01*
X92761151Y-71061211D01*
X92761682Y-71344721D01*
X92762531Y-71587158D01*
X92763760Y-71791761D01*
X92765431Y-71961774D01*
X92767605Y-72100439D01*
X92770343Y-72210996D01*
X92773708Y-72296688D01*
X92777759Y-72360757D01*
X92782559Y-72406444D01*
X92788169Y-72436992D01*
X92794651Y-72455641D01*
X92800715Y-72464385D01*
X92811791Y-72471492D01*
X92831999Y-72477713D01*
X92864510Y-72483106D01*
X92912497Y-72487729D01*
X92979133Y-72491640D01*
X93067590Y-72494896D01*
X93181040Y-72497556D01*
X93322656Y-72499675D01*
X93495610Y-72501313D01*
X93703076Y-72502528D01*
X93948224Y-72503376D01*
X94234229Y-72503915D01*
X94564261Y-72504203D01*
X94941495Y-72504298D01*
X94996001Y-72504300D01*
X95379824Y-72504226D01*
X95716020Y-72503967D01*
X96007761Y-72503465D01*
X96258219Y-72502662D01*
X96470568Y-72501500D01*
X96647979Y-72499922D01*
X96793625Y-72497871D01*
X96910678Y-72495287D01*
X97002312Y-72492115D01*
X97071697Y-72488295D01*
X97122008Y-72483771D01*
X97156416Y-72478485D01*
X97178093Y-72472379D01*
X97190213Y-72465395D01*
X97191286Y-72464385D01*
X97198535Y-72453127D01*
X97204862Y-72432652D01*
X97210328Y-72399719D01*
X97214994Y-72351086D01*
X97218922Y-72283511D01*
X97222174Y-72193752D01*
X97224810Y-72078568D01*
X97226893Y-71934717D01*
X97228483Y-71758956D01*
X97229642Y-71548044D01*
X97230432Y-71298739D01*
X97230914Y-71007800D01*
X97231149Y-70671984D01*
X97231200Y-70358000D01*
X97231123Y-69982615D01*
X97230850Y-69654788D01*
X97230319Y-69371278D01*
X97229470Y-69128841D01*
X97228241Y-68924238D01*
X97227052Y-68803229D01*
X96951801Y-68803229D01*
X96941363Y-68828138D01*
X96915056Y-68882344D01*
X96901001Y-68910199D01*
X96890068Y-68933274D01*
X96880826Y-68958920D01*
X96873133Y-68991359D01*
X96866848Y-69034808D01*
X96861828Y-69093488D01*
X96857932Y-69171617D01*
X96855017Y-69273417D01*
X96852943Y-69403105D01*
X96851566Y-69564901D01*
X96850746Y-69763025D01*
X96850341Y-70001697D01*
X96850209Y-70285135D01*
X96850201Y-70421790D01*
X96850561Y-70685226D01*
X96851598Y-70933537D01*
X96853244Y-71162056D01*
X96855432Y-71366118D01*
X96858097Y-71541058D01*
X96861170Y-71682211D01*
X96864585Y-71784910D01*
X96868276Y-71844491D01*
X96870776Y-71857870D01*
X96895200Y-71897636D01*
X96921032Y-71951850D01*
X96950711Y-72021700D01*
X96424206Y-72021311D01*
X96269033Y-72020349D01*
X96134650Y-72017881D01*
X96028001Y-72014174D01*
X95956030Y-72009492D01*
X95925681Y-72004100D01*
X95925906Y-72002261D01*
X95955855Y-71968326D01*
X95991668Y-71910126D01*
X95995756Y-71902311D01*
X96010682Y-71865021D01*
X96021693Y-71814767D01*
X96029331Y-71744056D01*
X96034134Y-71645398D01*
X96036644Y-71511300D01*
X96037399Y-71334272D01*
X96037400Y-71324461D01*
X96036167Y-71146847D01*
X96032604Y-71004376D01*
X96026922Y-70901227D01*
X96019328Y-70841578D01*
X96012586Y-70827900D01*
X95983086Y-70847270D01*
X95945359Y-70894244D01*
X95943085Y-70897750D01*
X95902507Y-70954768D01*
X95868301Y-70993000D01*
X95837853Y-71030132D01*
X95797917Y-71092466D01*
X95784329Y-71116333D01*
X95742180Y-71183430D01*
X95679473Y-71272220D01*
X95608408Y-71365564D01*
X95594458Y-71383033D01*
X95486339Y-71525844D01*
X95395862Y-71662467D01*
X95327611Y-71784849D01*
X95286169Y-71884940D01*
X95275400Y-71943423D01*
X95275400Y-72021700D01*
X94148945Y-72021700D01*
X94161071Y-72007988D01*
X94005400Y-72007988D01*
X93981301Y-72012257D01*
X93914204Y-72015985D01*
X93811911Y-72018948D01*
X93682222Y-72020926D01*
X93532939Y-72021696D01*
X93522800Y-72021700D01*
X93346033Y-72020908D01*
X93214899Y-72018306D01*
X93124253Y-72013556D01*
X93068950Y-72006318D01*
X93043844Y-71996252D01*
X93041008Y-71989950D01*
X93055962Y-71946054D01*
X93079108Y-71908895D01*
X93088302Y-71890192D01*
X93095898Y-71857695D01*
X93102041Y-71806998D01*
X93106873Y-71733696D01*
X93110536Y-71633383D01*
X93113174Y-71501654D01*
X93114930Y-71334104D01*
X93115947Y-71126327D01*
X93116367Y-70873918D01*
X93116400Y-70759545D01*
X93116400Y-69659500D01*
X93981305Y-69659500D01*
X93942553Y-69734438D01*
X93932522Y-69760315D01*
X93924333Y-69798592D01*
X93917808Y-69854107D01*
X93912774Y-69931697D01*
X93909053Y-70036200D01*
X93906471Y-70172454D01*
X93904852Y-70345297D01*
X93904021Y-70559567D01*
X93903800Y-70802250D01*
X93903914Y-71053940D01*
X93904415Y-71260011D01*
X93905545Y-71425647D01*
X93907545Y-71556027D01*
X93910655Y-71656335D01*
X93915117Y-71731751D01*
X93921171Y-71787457D01*
X93929059Y-71828635D01*
X93939021Y-71860467D01*
X93951299Y-71888135D01*
X93954600Y-71894700D01*
X93985510Y-71958136D01*
X94003520Y-72000610D01*
X94005400Y-72007988D01*
X94161071Y-72007988D01*
X94210523Y-71952070D01*
X94254445Y-71902766D01*
X94282627Y-71871790D01*
X94284800Y-71869520D01*
X94342555Y-71806405D01*
X94414037Y-71722189D01*
X94489103Y-71629565D01*
X94557609Y-71541225D01*
X94609412Y-71469861D01*
X94629624Y-71438047D01*
X94669845Y-71374084D01*
X94733338Y-71282799D01*
X94811196Y-71176180D01*
X94894513Y-71066215D01*
X94974383Y-70964890D01*
X95036727Y-70890107D01*
X95097171Y-70813048D01*
X95153841Y-70729443D01*
X95158022Y-70722550D01*
X95285363Y-70524436D01*
X95381006Y-70393856D01*
X95450964Y-70302712D01*
X95369532Y-70215260D01*
X95299340Y-70136161D01*
X95209285Y-70029392D01*
X95109943Y-69907951D01*
X95011893Y-69784839D01*
X94925711Y-69673055D01*
X94896849Y-69634315D01*
X94592059Y-69254392D01*
X94352721Y-68997287D01*
X94153941Y-68795900D01*
X94699253Y-68795900D01*
X94884450Y-68796023D01*
X95025002Y-68797361D01*
X95127063Y-68801367D01*
X95196788Y-68809493D01*
X95240331Y-68823191D01*
X95263847Y-68843916D01*
X95273489Y-68873118D01*
X95275414Y-68912251D01*
X95275400Y-68931890D01*
X95290988Y-68985342D01*
X95330059Y-69052621D01*
X95347701Y-69075862D01*
X95406348Y-69153168D01*
X95469110Y-69244086D01*
X95491198Y-69278500D01*
X95534448Y-69345264D01*
X95568088Y-69392431D01*
X95579761Y-69405500D01*
X95609555Y-69434839D01*
X95658755Y-69490518D01*
X95718478Y-69561608D01*
X95779838Y-69637181D01*
X95833953Y-69706308D01*
X95871937Y-69758061D01*
X95885000Y-69780983D01*
X95901818Y-69810474D01*
X95943854Y-69858217D01*
X95961201Y-69875400D01*
X96037401Y-69948404D01*
X96037400Y-69528588D01*
X96035807Y-69345802D01*
X96030105Y-69202976D01*
X96018907Y-69089340D01*
X96000828Y-68994129D01*
X95974482Y-68906575D01*
X95948836Y-68840350D01*
X95945606Y-68825271D01*
X95954351Y-68814038D01*
X95981295Y-68806091D01*
X96032662Y-68800867D01*
X96114676Y-68797803D01*
X96233561Y-68796338D01*
X96395540Y-68795910D01*
X96441083Y-68795900D01*
X96595917Y-68796246D01*
X96731878Y-68797212D01*
X96841383Y-68798690D01*
X96916849Y-68800571D01*
X96950692Y-68802745D01*
X96951801Y-68803229D01*
X97227052Y-68803229D01*
X97226570Y-68754225D01*
X97224396Y-68615560D01*
X97221658Y-68505003D01*
X97218293Y-68419311D01*
X97214242Y-68355242D01*
X97209442Y-68309555D01*
X97203832Y-68279007D01*
X97197350Y-68260358D01*
X97191286Y-68251614D01*
X97178822Y-68243434D01*
X97156563Y-68236438D01*
X97120809Y-68230534D01*
X97067859Y-68225633D01*
X96994012Y-68221644D01*
X96895569Y-68218478D01*
X96768827Y-68216044D01*
X96610087Y-68214252D01*
X96415647Y-68213011D01*
X96181807Y-68212233D01*
X95904865Y-68211826D01*
X95581122Y-68211700D01*
X93954600Y-68211700D01*
X93954600Y-68307918D01*
X93934521Y-68423835D01*
X93881475Y-68542500D01*
X93806246Y-68643491D01*
X93753994Y-68687744D01*
X93640454Y-68734870D01*
X93509500Y-68745136D01*
X93375372Y-68721418D01*
X93252310Y-68666589D01*
X93154552Y-68583523D01*
X93139200Y-68563647D01*
X93092194Y-68462928D01*
X93070561Y-68347377D01*
X93059310Y-68211699D01*
X92949970Y-68211700D01*
X92916420Y-68210477D01*
X92887069Y-68208921D01*
X92861637Y-68210199D01*
D12*
X231124000Y-95444500D02*
X229124000Y-95444500D01*
X229124000Y-93404500D02*
X231124000Y-93404500D01*
X229124000Y-96897000D02*
X231124000Y-96897000D01*
X231124000Y-98937000D02*
X229124000Y-98937000D01*
X230624000Y-102767500D02*
X229624000Y-102767500D01*
X229624000Y-101067500D02*
X230624000Y-101067500D01*
D13*
X232143300Y-107308650D02*
G75*
G03X232143300Y-107308650I-381000J0D01*
G01*
D12*
X221385500Y-73731500D02*
X221385500Y-74731500D01*
X219685500Y-74731500D02*
X219685500Y-73731500D01*
D11*
G36*
X107602370Y-86431235D02*
G01*
X107600770Y-86546139D01*
X107605347Y-86626699D01*
X107611828Y-86770889D01*
X107616101Y-86991787D01*
X107618163Y-87264525D01*
X107618010Y-87564236D01*
X107615639Y-87866051D01*
X107611048Y-88145102D01*
X107605563Y-88341200D01*
X107609053Y-88511355D01*
X107625987Y-88720731D01*
X107640122Y-88835007D01*
X107660791Y-89000198D01*
X107657884Y-89094117D01*
X107624867Y-89145649D01*
X107561967Y-89180599D01*
X107402478Y-89304483D01*
X107258959Y-89523739D01*
X107130015Y-89840699D01*
X107090521Y-89966800D01*
X106939799Y-90605192D01*
X106872712Y-91210277D01*
X106883648Y-91703724D01*
X106904646Y-91954716D01*
X106922617Y-92211472D01*
X106934199Y-92425100D01*
X106935373Y-92456000D01*
X106974908Y-92928818D01*
X107057875Y-93313206D01*
X107090667Y-93409528D01*
X107138007Y-93565127D01*
X107161901Y-93701520D01*
X107162600Y-93719923D01*
X107183414Y-93816287D01*
X107239293Y-93976991D01*
X107320396Y-94175240D01*
X107372108Y-94290395D01*
X107471256Y-94511986D01*
X107568780Y-94743466D01*
X107655995Y-94962592D01*
X107724218Y-95147119D01*
X107764766Y-95274803D01*
X107772200Y-95315297D01*
X107726248Y-95328555D01*
X107599844Y-95316949D01*
X107410172Y-95283733D01*
X107174412Y-95232157D01*
X106909746Y-95165474D01*
X106756253Y-95123014D01*
X106392935Y-95004260D01*
X106111753Y-94877325D01*
X105954949Y-94780262D01*
X105783222Y-94661538D01*
X105617915Y-94551964D01*
X105522473Y-94492098D01*
X105394296Y-94406976D01*
X105228887Y-94285960D01*
X105096233Y-94182475D01*
X104942693Y-94075889D01*
X104713098Y-93938774D01*
X104425123Y-93779817D01*
X104096441Y-93607705D01*
X103744724Y-93431124D01*
X103387646Y-93258760D01*
X103042881Y-93099300D01*
X102728100Y-92961431D01*
X102460978Y-92853839D01*
X102259188Y-92785210D01*
X102245981Y-92781551D01*
X102027436Y-92729165D01*
X101867903Y-92704752D01*
X101784650Y-92710807D01*
X101780034Y-92714259D01*
X101741502Y-92792034D01*
X101705475Y-92922636D01*
X101700822Y-92946385D01*
X101686346Y-93059966D01*
X101708925Y-93133577D01*
X101787994Y-93199810D01*
X101887369Y-93259242D01*
X102077163Y-93355530D01*
X102290678Y-93445574D01*
X102361976Y-93471057D01*
X102540427Y-93536909D01*
X102761540Y-93627396D01*
X102971576Y-93720271D01*
X103162045Y-93807958D01*
X103331925Y-93885279D01*
X103447130Y-93936729D01*
X103454200Y-93939798D01*
X103532658Y-93984492D01*
X103517606Y-94014482D01*
X103505000Y-94019094D01*
X103360401Y-94054442D01*
X103145776Y-94093800D01*
X102892333Y-94132576D01*
X102631284Y-94166180D01*
X102393835Y-94190021D01*
X102298500Y-94196588D01*
X102083534Y-94215706D01*
X101963153Y-94245297D01*
X101930200Y-94281467D01*
X101977807Y-94321162D01*
X102108194Y-94354463D01*
X102302711Y-94380851D01*
X102542708Y-94399811D01*
X102809535Y-94410824D01*
X103084543Y-94413374D01*
X103349082Y-94406942D01*
X103584502Y-94391013D01*
X103772153Y-94365069D01*
X103878404Y-94335499D01*
X104007167Y-94290111D01*
X104099459Y-94293778D01*
X104209324Y-94349404D01*
X104216365Y-94353673D01*
X104334008Y-94437732D01*
X104489006Y-94564690D01*
X104636857Y-94697007D01*
X104798064Y-94842842D01*
X104956655Y-94977416D01*
X105067867Y-95063839D01*
X105198499Y-95180548D01*
X105299935Y-95310955D01*
X105308767Y-95326908D01*
X105338774Y-95387089D01*
X105350826Y-95433298D01*
X105333587Y-95468284D01*
X105275723Y-95494794D01*
X105165898Y-95515577D01*
X104992778Y-95533380D01*
X104745027Y-95550953D01*
X104411310Y-95571042D01*
X104267000Y-95579475D01*
X103936970Y-95600732D01*
X103613032Y-95625102D01*
X103320447Y-95650433D01*
X103084471Y-95674574D01*
X102956428Y-95691122D01*
X102585655Y-95747818D01*
X102600828Y-95981509D01*
X102616000Y-96215200D01*
X103109910Y-96198770D01*
X103434516Y-96200886D01*
X103791304Y-96223531D01*
X104100510Y-96260439D01*
X104452676Y-96300702D01*
X104895313Y-96325677D01*
X105418368Y-96334844D01*
X105537000Y-96334714D01*
X105878588Y-96333305D01*
X106224880Y-96331842D01*
X106547176Y-96330450D01*
X106816774Y-96329251D01*
X106959400Y-96328591D01*
X107241071Y-96331970D01*
X107550090Y-96343001D01*
X107827979Y-96359468D01*
X107875648Y-96363301D01*
X108309296Y-96400312D01*
X108580907Y-97132645D01*
X108706942Y-97463159D01*
X108807166Y-97703011D01*
X108885366Y-97858731D01*
X108945329Y-97936849D01*
X108990840Y-97943895D01*
X109022694Y-97894560D01*
X109053190Y-97852881D01*
X109097669Y-97886394D01*
X109149548Y-97965039D01*
X109243476Y-98087794D01*
X109316308Y-98114721D01*
X109361274Y-98056700D01*
X109403443Y-98044037D01*
X109484164Y-98118239D01*
X109496194Y-98132900D01*
X109636500Y-98247052D01*
X109792336Y-98261060D01*
X109961637Y-98174846D01*
X109989778Y-98151795D01*
X110099336Y-98074335D01*
X110180567Y-98067627D01*
X110218076Y-98085857D01*
X110339327Y-98107001D01*
X110475262Y-98044945D01*
X110604321Y-97911404D01*
X110640009Y-97856568D01*
X110711608Y-97759487D01*
X110760726Y-97753952D01*
X110770483Y-97766352D01*
X110841207Y-97808245D01*
X110932829Y-97767910D01*
X111024995Y-97655967D01*
X111042472Y-97624438D01*
X111089248Y-97512036D01*
X111151976Y-97331895D01*
X111220366Y-97114430D01*
X111253945Y-96999524D01*
X111316591Y-96789533D01*
X111373924Y-96615837D01*
X111417790Y-96502265D01*
X111434118Y-96473039D01*
X111495205Y-96459452D01*
X111643427Y-96446323D01*
X111864315Y-96434332D01*
X112143405Y-96424161D01*
X112466229Y-96416488D01*
X112711201Y-96412962D01*
X113118196Y-96406234D01*
X113554375Y-96394819D01*
X114002606Y-96379531D01*
X114445756Y-96361183D01*
X114866692Y-96340589D01*
X115248284Y-96318562D01*
X115573398Y-96295916D01*
X115824902Y-96273464D01*
X115938300Y-96259720D01*
X116103400Y-96235996D01*
X116103400Y-95213063D01*
X115887500Y-95243463D01*
X115762703Y-95255755D01*
X115548158Y-95270848D01*
X115255659Y-95288165D01*
X114897002Y-95307129D01*
X114483983Y-95327164D01*
X114028397Y-95347691D01*
X113542039Y-95368135D01*
X113036705Y-95387919D01*
X112631211Y-95402723D01*
X112351112Y-95410381D01*
X112111882Y-95412651D01*
X111929539Y-95409733D01*
X111820102Y-95401829D01*
X111795690Y-95392267D01*
X111827704Y-95324011D01*
X111883688Y-95201110D01*
X111907438Y-95148400D01*
X111982045Y-95000929D01*
X112055784Y-94883155D01*
X112073445Y-94861038D01*
X112126949Y-94766902D01*
X112186410Y-94612573D01*
X112224195Y-94485747D01*
X112277546Y-94306973D01*
X112334408Y-94154957D01*
X112368038Y-94087308D01*
X112411678Y-93987766D01*
X112469833Y-93813282D01*
X112535633Y-93588238D01*
X112602209Y-93337017D01*
X112662691Y-93084000D01*
X112698845Y-92913200D01*
X112716591Y-92792766D01*
X112739289Y-92593797D01*
X112764611Y-92339094D01*
X112790230Y-92051461D01*
X112803783Y-91885209D01*
X112829763Y-91512901D01*
X112839979Y-91215561D01*
X112831617Y-90967387D01*
X112801863Y-90742575D01*
X112747903Y-90515322D01*
X112666923Y-90259825D01*
X112608414Y-90093937D01*
X112496938Y-89829928D01*
X112365965Y-89622861D01*
X112228871Y-89468188D01*
X112101377Y-89336314D01*
X112033293Y-89246821D01*
X112012431Y-89170009D01*
X112026599Y-89076178D01*
X112042721Y-89014669D01*
X112074577Y-88838661D01*
X112091676Y-88624045D01*
X112093835Y-88404476D01*
X112080873Y-88213609D01*
X112052611Y-88085100D01*
X112047779Y-88074682D01*
X111999000Y-87932368D01*
X111985237Y-87851428D01*
X111370285Y-87851428D01*
X111357715Y-87960748D01*
X111330309Y-88103413D01*
X111293980Y-88247075D01*
X111266544Y-88330552D01*
X111158235Y-88484453D01*
X110987831Y-88581547D01*
X110781075Y-88616085D01*
X110563711Y-88582319D01*
X110424795Y-88518519D01*
X110274408Y-88401148D01*
X110224043Y-88298530D01*
X109284714Y-88298530D01*
X109222421Y-88393361D01*
X109147708Y-88472107D01*
X108963546Y-88593250D01*
X108750964Y-88616885D01*
X108510145Y-88542997D01*
X108487205Y-88531621D01*
X108330307Y-88431680D01*
X108252347Y-88316776D01*
X108238207Y-88155845D01*
X108250745Y-88045736D01*
X108274567Y-87904400D01*
X108301254Y-87845846D01*
X108348498Y-87852342D01*
X108407366Y-87888779D01*
X108508717Y-88005000D01*
X108544072Y-88154689D01*
X108565418Y-88281296D01*
X108617475Y-88338904D01*
X108700073Y-88357348D01*
X108846665Y-88334028D01*
X108951612Y-88248803D01*
X109042811Y-88166211D01*
X109124719Y-88156977D01*
X109179440Y-88177308D01*
X109269665Y-88233215D01*
X109284714Y-88298530D01*
X110224043Y-88298530D01*
X110221535Y-88293421D01*
X110267427Y-88198425D01*
X110288256Y-88181453D01*
X110396639Y-88120587D01*
X110467952Y-88143279D01*
X110524644Y-88239600D01*
X110616074Y-88345489D01*
X110699376Y-88366600D01*
X110821746Y-88329111D01*
X110932253Y-88238016D01*
X111000122Y-88125366D01*
X111005119Y-88048177D01*
X111018976Y-87971466D01*
X111115186Y-87903357D01*
X111161053Y-87882823D01*
X111281723Y-87834526D01*
X111355408Y-87808999D01*
X111362106Y-87807800D01*
X111370285Y-87851428D01*
X111985237Y-87851428D01*
X111968092Y-87750605D01*
X111958871Y-87570611D01*
X111975152Y-87433605D01*
X111985906Y-87406433D01*
X112014297Y-87274507D01*
X111990780Y-87071503D01*
X111988744Y-87061599D01*
X111963342Y-86855833D01*
X111989102Y-86677684D01*
X112009468Y-86614000D01*
X112049416Y-86484937D01*
X112064408Y-86402870D01*
X112061882Y-86391262D01*
X112004910Y-86393512D01*
X111903732Y-86429631D01*
X111800878Y-86480575D01*
X111738877Y-86527303D01*
X111734600Y-86537800D01*
X111685156Y-86585820D01*
X111540739Y-86644049D01*
X111307220Y-86710343D01*
X111175800Y-86741965D01*
X110959863Y-86803436D01*
X110726463Y-86886993D01*
X110622424Y-86930886D01*
X110481333Y-86990454D01*
X110360499Y-87024279D01*
X110226798Y-87036326D01*
X110047106Y-87030563D01*
X109887212Y-87018928D01*
X109525424Y-86971857D01*
X109173270Y-86883128D01*
X108941989Y-86804126D01*
X108732446Y-86729601D01*
X108493045Y-86648635D01*
X108245556Y-86568083D01*
X108011753Y-86494799D01*
X107813408Y-86435637D01*
X107672293Y-86397453D01*
X107615893Y-86386638D01*
X107602370Y-86431235D01*
X107602370Y-86431235D01*
G37*
X107602370Y-86431235D02*
X107600770Y-86546139D01*
X107605347Y-86626699D01*
X107611828Y-86770889D01*
X107616101Y-86991787D01*
X107618163Y-87264525D01*
X107618010Y-87564236D01*
X107615639Y-87866051D01*
X107611048Y-88145102D01*
X107605563Y-88341200D01*
X107609053Y-88511355D01*
X107625987Y-88720731D01*
X107640122Y-88835007D01*
X107660791Y-89000198D01*
X107657884Y-89094117D01*
X107624867Y-89145649D01*
X107561967Y-89180599D01*
X107402478Y-89304483D01*
X107258959Y-89523739D01*
X107130015Y-89840699D01*
X107090521Y-89966800D01*
X106939799Y-90605192D01*
X106872712Y-91210277D01*
X106883648Y-91703724D01*
X106904646Y-91954716D01*
X106922617Y-92211472D01*
X106934199Y-92425100D01*
X106935373Y-92456000D01*
X106974908Y-92928818D01*
X107057875Y-93313206D01*
X107090667Y-93409528D01*
X107138007Y-93565127D01*
X107161901Y-93701520D01*
X107162600Y-93719923D01*
X107183414Y-93816287D01*
X107239293Y-93976991D01*
X107320396Y-94175240D01*
X107372108Y-94290395D01*
X107471256Y-94511986D01*
X107568780Y-94743466D01*
X107655995Y-94962592D01*
X107724218Y-95147119D01*
X107764766Y-95274803D01*
X107772200Y-95315297D01*
X107726248Y-95328555D01*
X107599844Y-95316949D01*
X107410172Y-95283733D01*
X107174412Y-95232157D01*
X106909746Y-95165474D01*
X106756253Y-95123014D01*
X106392935Y-95004260D01*
X106111753Y-94877325D01*
X105954949Y-94780262D01*
X105783222Y-94661538D01*
X105617915Y-94551964D01*
X105522473Y-94492098D01*
X105394296Y-94406976D01*
X105228887Y-94285960D01*
X105096233Y-94182475D01*
X104942693Y-94075889D01*
X104713098Y-93938774D01*
X104425123Y-93779817D01*
X104096441Y-93607705D01*
X103744724Y-93431124D01*
X103387646Y-93258760D01*
X103042881Y-93099300D01*
X102728100Y-92961431D01*
X102460978Y-92853839D01*
X102259188Y-92785210D01*
X102245981Y-92781551D01*
X102027436Y-92729165D01*
X101867903Y-92704752D01*
X101784650Y-92710807D01*
X101780034Y-92714259D01*
X101741502Y-92792034D01*
X101705475Y-92922636D01*
X101700822Y-92946385D01*
X101686346Y-93059966D01*
X101708925Y-93133577D01*
X101787994Y-93199810D01*
X101887369Y-93259242D01*
X102077163Y-93355530D01*
X102290678Y-93445574D01*
X102361976Y-93471057D01*
X102540427Y-93536909D01*
X102761540Y-93627396D01*
X102971576Y-93720271D01*
X103162045Y-93807958D01*
X103331925Y-93885279D01*
X103447130Y-93936729D01*
X103454200Y-93939798D01*
X103532658Y-93984492D01*
X103517606Y-94014482D01*
X103505000Y-94019094D01*
X103360401Y-94054442D01*
X103145776Y-94093800D01*
X102892333Y-94132576D01*
X102631284Y-94166180D01*
X102393835Y-94190021D01*
X102298500Y-94196588D01*
X102083534Y-94215706D01*
X101963153Y-94245297D01*
X101930200Y-94281467D01*
X101977807Y-94321162D01*
X102108194Y-94354463D01*
X102302711Y-94380851D01*
X102542708Y-94399811D01*
X102809535Y-94410824D01*
X103084543Y-94413374D01*
X103349082Y-94406942D01*
X103584502Y-94391013D01*
X103772153Y-94365069D01*
X103878404Y-94335499D01*
X104007167Y-94290111D01*
X104099459Y-94293778D01*
X104209324Y-94349404D01*
X104216365Y-94353673D01*
X104334008Y-94437732D01*
X104489006Y-94564690D01*
X104636857Y-94697007D01*
X104798064Y-94842842D01*
X104956655Y-94977416D01*
X105067867Y-95063839D01*
X105198499Y-95180548D01*
X105299935Y-95310955D01*
X105308767Y-95326908D01*
X105338774Y-95387089D01*
X105350826Y-95433298D01*
X105333587Y-95468284D01*
X105275723Y-95494794D01*
X105165898Y-95515577D01*
X104992778Y-95533380D01*
X104745027Y-95550953D01*
X104411310Y-95571042D01*
X104267000Y-95579475D01*
X103936970Y-95600732D01*
X103613032Y-95625102D01*
X103320447Y-95650433D01*
X103084471Y-95674574D01*
X102956428Y-95691122D01*
X102585655Y-95747818D01*
X102600828Y-95981509D01*
X102616000Y-96215200D01*
X103109910Y-96198770D01*
X103434516Y-96200886D01*
X103791304Y-96223531D01*
X104100510Y-96260439D01*
X104452676Y-96300702D01*
X104895313Y-96325677D01*
X105418368Y-96334844D01*
X105537000Y-96334714D01*
X105878588Y-96333305D01*
X106224880Y-96331842D01*
X106547176Y-96330450D01*
X106816774Y-96329251D01*
X106959400Y-96328591D01*
X107241071Y-96331970D01*
X107550090Y-96343001D01*
X107827979Y-96359468D01*
X107875648Y-96363301D01*
X108309296Y-96400312D01*
X108580907Y-97132645D01*
X108706942Y-97463159D01*
X108807166Y-97703011D01*
X108885366Y-97858731D01*
X108945329Y-97936849D01*
X108990840Y-97943895D01*
X109022694Y-97894560D01*
X109053190Y-97852881D01*
X109097669Y-97886394D01*
X109149548Y-97965039D01*
X109243476Y-98087794D01*
X109316308Y-98114721D01*
X109361274Y-98056700D01*
X109403443Y-98044037D01*
X109484164Y-98118239D01*
X109496194Y-98132900D01*
X109636500Y-98247052D01*
X109792336Y-98261060D01*
X109961637Y-98174846D01*
X109989778Y-98151795D01*
X110099336Y-98074335D01*
X110180567Y-98067627D01*
X110218076Y-98085857D01*
X110339327Y-98107001D01*
X110475262Y-98044945D01*
X110604321Y-97911404D01*
X110640009Y-97856568D01*
X110711608Y-97759487D01*
X110760726Y-97753952D01*
X110770483Y-97766352D01*
X110841207Y-97808245D01*
X110932829Y-97767910D01*
X111024995Y-97655967D01*
X111042472Y-97624438D01*
X111089248Y-97512036D01*
X111151976Y-97331895D01*
X111220366Y-97114430D01*
X111253945Y-96999524D01*
X111316591Y-96789533D01*
X111373924Y-96615837D01*
X111417790Y-96502265D01*
X111434118Y-96473039D01*
X111495205Y-96459452D01*
X111643427Y-96446323D01*
X111864315Y-96434332D01*
X112143405Y-96424161D01*
X112466229Y-96416488D01*
X112711201Y-96412962D01*
X113118196Y-96406234D01*
X113554375Y-96394819D01*
X114002606Y-96379531D01*
X114445756Y-96361183D01*
X114866692Y-96340589D01*
X115248284Y-96318562D01*
X115573398Y-96295916D01*
X115824902Y-96273464D01*
X115938300Y-96259720D01*
X116103400Y-96235996D01*
X116103400Y-95213063D01*
X115887500Y-95243463D01*
X115762703Y-95255755D01*
X115548158Y-95270848D01*
X115255659Y-95288165D01*
X114897002Y-95307129D01*
X114483983Y-95327164D01*
X114028397Y-95347691D01*
X113542039Y-95368135D01*
X113036705Y-95387919D01*
X112631211Y-95402723D01*
X112351112Y-95410381D01*
X112111882Y-95412651D01*
X111929539Y-95409733D01*
X111820102Y-95401829D01*
X111795690Y-95392267D01*
X111827704Y-95324011D01*
X111883688Y-95201110D01*
X111907438Y-95148400D01*
X111982045Y-95000929D01*
X112055784Y-94883155D01*
X112073445Y-94861038D01*
X112126949Y-94766902D01*
X112186410Y-94612573D01*
X112224195Y-94485747D01*
X112277546Y-94306973D01*
X112334408Y-94154957D01*
X112368038Y-94087308D01*
X112411678Y-93987766D01*
X112469833Y-93813282D01*
X112535633Y-93588238D01*
X112602209Y-93337017D01*
X112662691Y-93084000D01*
X112698845Y-92913200D01*
X112716591Y-92792766D01*
X112739289Y-92593797D01*
X112764611Y-92339094D01*
X112790230Y-92051461D01*
X112803783Y-91885209D01*
X112829763Y-91512901D01*
X112839979Y-91215561D01*
X112831617Y-90967387D01*
X112801863Y-90742575D01*
X112747903Y-90515322D01*
X112666923Y-90259825D01*
X112608414Y-90093937D01*
X112496938Y-89829928D01*
X112365965Y-89622861D01*
X112228871Y-89468188D01*
X112101377Y-89336314D01*
X112033293Y-89246821D01*
X112012431Y-89170009D01*
X112026599Y-89076178D01*
X112042721Y-89014669D01*
X112074577Y-88838661D01*
X112091676Y-88624045D01*
X112093835Y-88404476D01*
X112080873Y-88213609D01*
X112052611Y-88085100D01*
X112047779Y-88074682D01*
X111999000Y-87932368D01*
X111985237Y-87851428D01*
X111370285Y-87851428D01*
X111357715Y-87960748D01*
X111330309Y-88103413D01*
X111293980Y-88247075D01*
X111266544Y-88330552D01*
X111158235Y-88484453D01*
X110987831Y-88581547D01*
X110781075Y-88616085D01*
X110563711Y-88582319D01*
X110424795Y-88518519D01*
X110274408Y-88401148D01*
X110224043Y-88298530D01*
X109284714Y-88298530D01*
X109222421Y-88393361D01*
X109147708Y-88472107D01*
X108963546Y-88593250D01*
X108750964Y-88616885D01*
X108510145Y-88542997D01*
X108487205Y-88531621D01*
X108330307Y-88431680D01*
X108252347Y-88316776D01*
X108238207Y-88155845D01*
X108250745Y-88045736D01*
X108274567Y-87904400D01*
X108301254Y-87845846D01*
X108348498Y-87852342D01*
X108407366Y-87888779D01*
X108508717Y-88005000D01*
X108544072Y-88154689D01*
X108565418Y-88281296D01*
X108617475Y-88338904D01*
X108700073Y-88357348D01*
X108846665Y-88334028D01*
X108951612Y-88248803D01*
X109042811Y-88166211D01*
X109124719Y-88156977D01*
X109179440Y-88177308D01*
X109269665Y-88233215D01*
X109284714Y-88298530D01*
X110224043Y-88298530D01*
X110221535Y-88293421D01*
X110267427Y-88198425D01*
X110288256Y-88181453D01*
X110396639Y-88120587D01*
X110467952Y-88143279D01*
X110524644Y-88239600D01*
X110616074Y-88345489D01*
X110699376Y-88366600D01*
X110821746Y-88329111D01*
X110932253Y-88238016D01*
X111000122Y-88125366D01*
X111005119Y-88048177D01*
X111018976Y-87971466D01*
X111115186Y-87903357D01*
X111161053Y-87882823D01*
X111281723Y-87834526D01*
X111355408Y-87808999D01*
X111362106Y-87807800D01*
X111370285Y-87851428D01*
X111985237Y-87851428D01*
X111968092Y-87750605D01*
X111958871Y-87570611D01*
X111975152Y-87433605D01*
X111985906Y-87406433D01*
X112014297Y-87274507D01*
X111990780Y-87071503D01*
X111988744Y-87061599D01*
X111963342Y-86855833D01*
X111989102Y-86677684D01*
X112009468Y-86614000D01*
X112049416Y-86484937D01*
X112064408Y-86402870D01*
X112061882Y-86391262D01*
X112004910Y-86393512D01*
X111903732Y-86429631D01*
X111800878Y-86480575D01*
X111738877Y-86527303D01*
X111734600Y-86537800D01*
X111685156Y-86585820D01*
X111540739Y-86644049D01*
X111307220Y-86710343D01*
X111175800Y-86741965D01*
X110959863Y-86803436D01*
X110726463Y-86886993D01*
X110622424Y-86930886D01*
X110481333Y-86990454D01*
X110360499Y-87024279D01*
X110226798Y-87036326D01*
X110047106Y-87030563D01*
X109887212Y-87018928D01*
X109525424Y-86971857D01*
X109173270Y-86883128D01*
X108941989Y-86804126D01*
X108732446Y-86729601D01*
X108493045Y-86648635D01*
X108245556Y-86568083D01*
X108011753Y-86494799D01*
X107813408Y-86435637D01*
X107672293Y-86397453D01*
X107615893Y-86386638D01*
X107602370Y-86431235D01*
G36*
X102853230Y-96583807D02*
G01*
X102778443Y-96705733D01*
X102724145Y-96862198D01*
X102717718Y-96892839D01*
X102699600Y-97031505D01*
X102721856Y-97081181D01*
X102794809Y-97049929D01*
X102858345Y-97002692D01*
X102960204Y-96884728D01*
X103022359Y-96740532D01*
X103034222Y-96605757D01*
X102999397Y-96527679D01*
X102932288Y-96517447D01*
X102853230Y-96583807D01*
X102853230Y-96583807D01*
G37*
X102853230Y-96583807D02*
X102778443Y-96705733D01*
X102724145Y-96862198D01*
X102717718Y-96892839D01*
X102699600Y-97031505D01*
X102721856Y-97081181D01*
X102794809Y-97049929D01*
X102858345Y-97002692D01*
X102960204Y-96884728D01*
X103022359Y-96740532D01*
X103034222Y-96605757D01*
X102999397Y-96527679D01*
X102932288Y-96517447D01*
X102853230Y-96583807D01*
G36*
X102099577Y-96315217D02*
G01*
X101945895Y-96386309D01*
X101806390Y-96488482D01*
X101707825Y-96606381D01*
X101676200Y-96709980D01*
X101682592Y-96769314D01*
X101715851Y-96790198D01*
X101797108Y-96772121D01*
X101947491Y-96714573D01*
X101976792Y-96702717D01*
X102145242Y-96615670D01*
X102275074Y-96513939D01*
X102349087Y-96415168D01*
X102350075Y-96337002D01*
X102342423Y-96327702D01*
X102240674Y-96290563D01*
X102099577Y-96315217D01*
X102099577Y-96315217D01*
G37*
X102099577Y-96315217D02*
X101945895Y-96386309D01*
X101806390Y-96488482D01*
X101707825Y-96606381D01*
X101676200Y-96709980D01*
X101682592Y-96769314D01*
X101715851Y-96790198D01*
X101797108Y-96772121D01*
X101947491Y-96714573D01*
X101976792Y-96702717D01*
X102145242Y-96615670D01*
X102275074Y-96513939D01*
X102349087Y-96415168D01*
X102350075Y-96337002D01*
X102342423Y-96327702D01*
X102240674Y-96290563D01*
X102099577Y-96315217D01*
G36*
X102277587Y-94990295D02*
G01*
X102203061Y-95044492D01*
X102218971Y-95125854D01*
X102324243Y-95227044D01*
X102496278Y-95329912D01*
X102687678Y-95408633D01*
X102821426Y-95422972D01*
X102888897Y-95372851D01*
X102895400Y-95333617D01*
X102862448Y-95234415D01*
X102781994Y-95117445D01*
X102770826Y-95105017D01*
X102642978Y-95005473D01*
X102483403Y-94971413D01*
X102443624Y-94970600D01*
X102277587Y-94990295D01*
X102277587Y-94990295D01*
G37*
X102277587Y-94990295D02*
X102203061Y-95044492D01*
X102218971Y-95125854D01*
X102324243Y-95227044D01*
X102496278Y-95329912D01*
X102687678Y-95408633D01*
X102821426Y-95422972D01*
X102888897Y-95372851D01*
X102895400Y-95333617D01*
X102862448Y-95234415D01*
X102781994Y-95117445D01*
X102770826Y-95105017D01*
X102642978Y-95005473D01*
X102483403Y-94971413D01*
X102443624Y-94970600D01*
X102277587Y-94990295D01*
G36*
X113138046Y-94882661D02*
G01*
X113106200Y-94935695D01*
X113137912Y-95009424D01*
X113214366Y-95102848D01*
X113307542Y-95189211D01*
X113389419Y-95241755D01*
X113427223Y-95242244D01*
X113463020Y-95145302D01*
X113443002Y-95023863D01*
X113377603Y-94930464D01*
X113363540Y-94921587D01*
X113232559Y-94874548D01*
X113138046Y-94882661D01*
X113138046Y-94882661D01*
G37*
X113138046Y-94882661D02*
X113106200Y-94935695D01*
X113137912Y-95009424D01*
X113214366Y-95102848D01*
X113307542Y-95189211D01*
X113389419Y-95241755D01*
X113427223Y-95242244D01*
X113463020Y-95145302D01*
X113443002Y-95023863D01*
X113377603Y-94930464D01*
X113363540Y-94921587D01*
X113232559Y-94874548D01*
X113138046Y-94882661D01*
G36*
X113393384Y-94476528D02*
G01*
X113379469Y-94538455D01*
X113392323Y-94602300D01*
X113438157Y-94717553D01*
X113519742Y-94868609D01*
X113616193Y-95021804D01*
X113706624Y-95143473D01*
X113760172Y-95195227D01*
X113828233Y-95195384D01*
X113835715Y-95189352D01*
X113856056Y-95122301D01*
X113867372Y-94994298D01*
X113868200Y-94946237D01*
X113847527Y-94775295D01*
X113770520Y-94645380D01*
X113725721Y-94599104D01*
X113603985Y-94509270D01*
X113487790Y-94463926D01*
X113470753Y-94462600D01*
X113393384Y-94476528D01*
X113393384Y-94476528D01*
G37*
X113393384Y-94476528D02*
X113379469Y-94538455D01*
X113392323Y-94602300D01*
X113438157Y-94717553D01*
X113519742Y-94868609D01*
X113616193Y-95021804D01*
X113706624Y-95143473D01*
X113760172Y-95195227D01*
X113828233Y-95195384D01*
X113835715Y-95189352D01*
X113856056Y-95122301D01*
X113867372Y-94994298D01*
X113868200Y-94946237D01*
X113847527Y-94775295D01*
X113770520Y-94645380D01*
X113725721Y-94599104D01*
X113603985Y-94509270D01*
X113487790Y-94463926D01*
X113470753Y-94462600D01*
X113393384Y-94476528D01*
G36*
X101599927Y-93474988D02*
G01*
X101479194Y-93545805D01*
X101361773Y-93637529D01*
X101274488Y-93728640D01*
X101244160Y-93797617D01*
X101247563Y-93807317D01*
X101323803Y-93844752D01*
X101460175Y-93845400D01*
X101622910Y-93811278D01*
X101708202Y-93779828D01*
X101827441Y-93716239D01*
X101900856Y-93655897D01*
X101903075Y-93652591D01*
X101906685Y-93568087D01*
X101838641Y-93490763D01*
X101726768Y-93448452D01*
X101697148Y-93446600D01*
X101599927Y-93474988D01*
X101599927Y-93474988D01*
G37*
X101599927Y-93474988D02*
X101479194Y-93545805D01*
X101361773Y-93637529D01*
X101274488Y-93728640D01*
X101244160Y-93797617D01*
X101247563Y-93807317D01*
X101323803Y-93844752D01*
X101460175Y-93845400D01*
X101622910Y-93811278D01*
X101708202Y-93779828D01*
X101827441Y-93716239D01*
X101900856Y-93655897D01*
X101903075Y-93652591D01*
X101906685Y-93568087D01*
X101838641Y-93490763D01*
X101726768Y-93448452D01*
X101697148Y-93446600D01*
X101599927Y-93474988D01*
G36*
X103922679Y-92702035D02*
G01*
X103920302Y-92818035D01*
X103980725Y-93006931D01*
X104011632Y-93078300D01*
X104105478Y-93235139D01*
X104199118Y-93290785D01*
X104293368Y-93245636D01*
X104311535Y-93225549D01*
X104337278Y-93124926D01*
X104310319Y-92984087D01*
X104244501Y-92839591D01*
X104153666Y-92727998D01*
X104112708Y-92700397D01*
X103987075Y-92661849D01*
X103922679Y-92702035D01*
X103922679Y-92702035D01*
G37*
X103922679Y-92702035D02*
X103920302Y-92818035D01*
X103980725Y-93006931D01*
X104011632Y-93078300D01*
X104105478Y-93235139D01*
X104199118Y-93290785D01*
X104293368Y-93245636D01*
X104311535Y-93225549D01*
X104337278Y-93124926D01*
X104310319Y-92984087D01*
X104244501Y-92839591D01*
X104153666Y-92727998D01*
X104112708Y-92700397D01*
X103987075Y-92661849D01*
X103922679Y-92702035D01*
G36*
X103631171Y-92285836D02*
G01*
X103551400Y-92339569D01*
X103465299Y-92451315D01*
X103444146Y-92488888D01*
X103387953Y-92645212D01*
X103378849Y-92784112D01*
X103408762Y-92887270D01*
X103469622Y-92936373D01*
X103553357Y-92913104D01*
X103607999Y-92860714D01*
X103650458Y-92766378D01*
X103685670Y-92614167D01*
X103697369Y-92525451D01*
X103707838Y-92374211D01*
X103697067Y-92300735D01*
X103658776Y-92282291D01*
X103631171Y-92285836D01*
X103631171Y-92285836D01*
G37*
X103631171Y-92285836D02*
X103551400Y-92339569D01*
X103465299Y-92451315D01*
X103444146Y-92488888D01*
X103387953Y-92645212D01*
X103378849Y-92784112D01*
X103408762Y-92887270D01*
X103469622Y-92936373D01*
X103553357Y-92913104D01*
X103607999Y-92860714D01*
X103650458Y-92766378D01*
X103685670Y-92614167D01*
X103697369Y-92525451D01*
X103707838Y-92374211D01*
X103697067Y-92300735D01*
X103658776Y-92282291D01*
X103631171Y-92285836D01*
G36*
X102770772Y-92182158D02*
G01*
X102744788Y-92224060D01*
X102694634Y-92416935D01*
X102741188Y-92610820D01*
X102812978Y-92717747D01*
X102933756Y-92858159D01*
X102969536Y-92598009D01*
X102978910Y-92405450D01*
X102955332Y-92253629D01*
X102907191Y-92156503D01*
X102842875Y-92128027D01*
X102770772Y-92182158D01*
X102770772Y-92182158D01*
G37*
X102770772Y-92182158D02*
X102744788Y-92224060D01*
X102694634Y-92416935D01*
X102741188Y-92610820D01*
X102812978Y-92717747D01*
X102933756Y-92858159D01*
X102969536Y-92598009D01*
X102978910Y-92405450D01*
X102955332Y-92253629D01*
X102907191Y-92156503D01*
X102842875Y-92128027D01*
X102770772Y-92182158D01*
D12*
X217710500Y-99920500D02*
X217010500Y-99920500D01*
X217010500Y-101120500D02*
X217710500Y-101120500D01*
X217710500Y-96999500D02*
X217010500Y-96999500D01*
X217010500Y-98199500D02*
X217710500Y-98199500D01*
X221774500Y-111350500D02*
X221074500Y-111350500D01*
X221074500Y-112550500D02*
X221774500Y-112550500D01*
X184197500Y-104779000D02*
X182197500Y-104779000D01*
X182197500Y-102739000D02*
X184197500Y-102739000D01*
X118546500Y-81298500D02*
X117546500Y-81298500D01*
X117546500Y-82658500D02*
X118546500Y-82658500D01*
X101211000Y-86696000D02*
X100211000Y-86696000D01*
X100211000Y-88056000D02*
X101211000Y-88056000D01*
X71405000Y-78387500D02*
X72105000Y-78387500D01*
X72105000Y-77187500D02*
X71405000Y-77187500D01*
X67916500Y-75151500D02*
X67916500Y-75851500D01*
X69116500Y-75851500D02*
X69116500Y-75151500D01*
X62455500Y-72294000D02*
X62455500Y-72994000D01*
X63655500Y-72994000D02*
X63655500Y-72294000D01*
X84744000Y-77501000D02*
X84744000Y-78201000D01*
X85944000Y-78201000D02*
X85944000Y-77501000D01*
X90522500Y-78199500D02*
X90522500Y-78899500D01*
X91722500Y-78899500D02*
X91722500Y-78199500D01*
X96741500Y-86452000D02*
X97441500Y-86452000D01*
X97441500Y-85252000D02*
X96741500Y-85252000D01*
X93253000Y-82835000D02*
X93253000Y-83535000D01*
X94453000Y-83535000D02*
X94453000Y-82835000D01*
X101124500Y-75155500D02*
X100424500Y-75155500D01*
X100424500Y-76355500D02*
X101124500Y-76355500D01*
X103349500Y-78072500D02*
X103349500Y-78772500D01*
X104549500Y-78772500D02*
X104549500Y-78072500D01*
X109128000Y-78199500D02*
X109128000Y-78899500D01*
X110328000Y-78899500D02*
X110328000Y-78199500D01*
X115093000Y-86388500D02*
X115793000Y-86388500D01*
X115793000Y-85188500D02*
X115093000Y-85188500D01*
X112868000Y-83471500D02*
X112868000Y-82771500D01*
X111668000Y-82771500D02*
X111668000Y-83471500D01*
X117760000Y-70259500D02*
X118460000Y-70259500D01*
X118460000Y-69059500D02*
X117760000Y-69059500D01*
X121885000Y-72676500D02*
X121885000Y-71976500D01*
X120685000Y-71976500D02*
X120685000Y-72676500D01*
X127663500Y-73502000D02*
X127663500Y-72802000D01*
X126463500Y-72802000D02*
X126463500Y-73502000D01*
X133573000Y-79664000D02*
X132873000Y-79664000D01*
X132873000Y-80864000D02*
X133573000Y-80864000D01*
X129384500Y-77247000D02*
X129384500Y-77947000D01*
X130584500Y-77947000D02*
X130584500Y-77247000D01*
X118272000Y-97884500D02*
X118272000Y-98584500D01*
X119472000Y-98584500D02*
X119472000Y-97884500D01*
X119669000Y-97884500D02*
X119669000Y-98584500D01*
X120869000Y-98584500D02*
X120869000Y-97884500D01*
X122266000Y-98584500D02*
X122266000Y-97884500D01*
X121066000Y-97884500D02*
X121066000Y-98584500D01*
X100170500Y-102771500D02*
X100870500Y-102771500D01*
X100870500Y-101571500D02*
X100170500Y-101571500D01*
X115986000Y-108806500D02*
X115986000Y-109506500D01*
X117186000Y-109506500D02*
X117186000Y-108806500D01*
X104295500Y-105188500D02*
X104295500Y-104488500D01*
X103095500Y-104488500D02*
X103095500Y-105188500D01*
X126654000Y-91407500D02*
X126654000Y-92107500D01*
X127854000Y-92107500D02*
X127854000Y-91407500D01*
X179518500Y-110315500D02*
X179518500Y-112315500D01*
X177478500Y-112315500D02*
X177478500Y-110315500D01*
X183892000Y-112315500D02*
X183892000Y-110315500D01*
X185932000Y-110315500D02*
X185932000Y-112315500D01*
X210216000Y-76927000D02*
X210916000Y-76927000D01*
X210916000Y-75727000D02*
X210216000Y-75727000D01*
X224437500Y-109506500D02*
X224437500Y-108806500D01*
X223237500Y-108806500D02*
X223237500Y-109506500D01*
X215681000Y-68928500D02*
X215681000Y-69628500D01*
X216881000Y-69628500D02*
X216881000Y-68928500D01*
X168496500Y-101311000D02*
X169196500Y-101311000D01*
X169196500Y-100111000D02*
X168496500Y-100111000D01*
X170088000Y-96233500D02*
X170088000Y-96933500D01*
X171288000Y-96933500D02*
X171288000Y-96233500D01*
X77947000Y-98396500D02*
X77247000Y-98396500D01*
X77247000Y-99596500D02*
X77947000Y-99596500D01*
X77097000Y-99797500D02*
X78097000Y-99797500D01*
X78097000Y-101497500D02*
X77097000Y-101497500D01*
X87343500Y-105438500D02*
X88043500Y-105438500D01*
X88043500Y-104238500D02*
X87343500Y-104238500D01*
X88043500Y-107159500D02*
X87343500Y-107159500D01*
X87343500Y-108359500D02*
X88043500Y-108359500D01*
X87343500Y-111280500D02*
X88043500Y-111280500D01*
X88043500Y-110080500D02*
X87343500Y-110080500D01*
X87343500Y-114201500D02*
X88043500Y-114201500D01*
X88043500Y-113001500D02*
X87343500Y-113001500D01*
X88043500Y-101317500D02*
X87343500Y-101317500D01*
X87343500Y-102517500D02*
X88043500Y-102517500D01*
X176755500Y-69500000D02*
X176755500Y-70200000D01*
X177955500Y-70200000D02*
X177955500Y-69500000D01*
X176558500Y-70200000D02*
X176558500Y-69500000D01*
X175358500Y-69500000D02*
X175358500Y-70200000D01*
X173961500Y-69500000D02*
X173961500Y-70200000D01*
X175161500Y-70200000D02*
X175161500Y-69500000D01*
X178152500Y-69500000D02*
X178152500Y-70200000D01*
X179352500Y-70200000D02*
X179352500Y-69500000D01*
X49882500Y-97567000D02*
X49882500Y-98267000D01*
X51082500Y-98267000D02*
X51082500Y-97567000D01*
X51406500Y-107409500D02*
X51406500Y-108109500D01*
X52606500Y-108109500D02*
X52606500Y-107409500D01*
X53876500Y-98267000D02*
X53876500Y-97567000D01*
X52676500Y-97567000D02*
X52676500Y-98267000D01*
X52807500Y-108259500D02*
X52807500Y-107259500D01*
X54507500Y-107259500D02*
X54507500Y-108259500D01*
X51279500Y-97567000D02*
X51279500Y-98267000D01*
X52479500Y-98267000D02*
X52479500Y-97567000D01*
X48356000Y-104556000D02*
X47656000Y-104556000D01*
X47656000Y-105756000D02*
X48356000Y-105756000D01*
X47656000Y-101311000D02*
X48356000Y-101311000D01*
X48356000Y-100111000D02*
X47656000Y-100111000D01*
X45120000Y-95281000D02*
X45120000Y-95981000D01*
X46320000Y-95981000D02*
X46320000Y-95281000D01*
X65122500Y-107155500D02*
X65122500Y-107855500D01*
X66322500Y-107855500D02*
X66322500Y-107155500D01*
X65122500Y-98519500D02*
X65122500Y-99219500D01*
X66322500Y-99219500D02*
X66322500Y-98519500D01*
X60946000Y-100457500D02*
X65546000Y-100457500D01*
X65546000Y-105917500D02*
X60946000Y-105917500D01*
X61369500Y-107855500D02*
X61369500Y-107155500D01*
X60169500Y-107155500D02*
X60169500Y-107855500D01*
X61369500Y-99219500D02*
X61369500Y-98519500D01*
X60169500Y-98519500D02*
X60169500Y-99219500D01*
X221901500Y-84109000D02*
X221201500Y-84109000D01*
X221201500Y-85309000D02*
X221901500Y-85309000D01*
X219484500Y-74581500D02*
X219484500Y-73881500D01*
X218284500Y-73881500D02*
X218284500Y-74581500D01*
X224691500Y-74581500D02*
X224691500Y-73881500D01*
X223491500Y-73881500D02*
X223491500Y-74581500D01*
X223290500Y-73731500D02*
X223290500Y-74731500D01*
X221590500Y-74731500D02*
X221590500Y-73731500D01*
X55307500Y-76425000D02*
X52007500Y-76425000D01*
X52007500Y-76425000D02*
X52007500Y-71025000D01*
X55307500Y-76425000D02*
X55307500Y-71025000D01*
X215947500Y-110454000D02*
X213947500Y-110454000D01*
X213947500Y-110454000D02*
X213947500Y-106554000D01*
X215947500Y-110454000D02*
X215947500Y-106554000D01*
X171656500Y-68552500D02*
X171656500Y-72452500D01*
X173656500Y-68552500D02*
X173656500Y-72452500D01*
X171656500Y-68552500D02*
X173656500Y-68552500D01*
X80818500Y-85706500D02*
X80818500Y-84296500D01*
X83138500Y-84296500D02*
X83138500Y-86326500D01*
X83138500Y-84296500D02*
X82478500Y-84296500D01*
X81478500Y-84296500D02*
X80818500Y-84296500D01*
X99551000Y-85516000D02*
X99551000Y-84106000D01*
X101871000Y-84106000D02*
X101871000Y-86136000D01*
X101871000Y-84106000D02*
X101211000Y-84106000D01*
X100211000Y-84106000D02*
X99551000Y-84106000D01*
X117546500Y-78708500D02*
X116886500Y-78708500D01*
X119206500Y-78708500D02*
X118546500Y-78708500D01*
X119206500Y-78708500D02*
X119206500Y-80738500D01*
X116886500Y-80118500D02*
X116886500Y-78708500D01*
X211066000Y-71405500D02*
X211726000Y-71405500D01*
X209406000Y-71405500D02*
X210066000Y-71405500D01*
X209406000Y-71405500D02*
X209406000Y-69375500D01*
X211726000Y-69995500D02*
X211726000Y-71405500D01*
X196930500Y-110762500D02*
X196930500Y-112172500D01*
X194610500Y-112172500D02*
X194610500Y-110142500D01*
X194610500Y-112172500D02*
X195270500Y-112172500D01*
X196270500Y-112172500D02*
X196930500Y-112172500D01*
X127553000Y-95940500D02*
X127553000Y-94940500D01*
X126193000Y-94940500D02*
X126193000Y-95940500D01*
X126193000Y-97734500D02*
X126193000Y-98734500D01*
X127553000Y-98734500D02*
X127553000Y-97734500D01*
X126193000Y-100528500D02*
X126193000Y-101528500D01*
X127553000Y-101528500D02*
X127553000Y-100528500D01*
X124261500Y-100285000D02*
X123261500Y-100285000D01*
X123261500Y-101645000D02*
X124261500Y-101645000D01*
X171939500Y-109847000D02*
X171939500Y-108847000D01*
X170579500Y-108847000D02*
X170579500Y-109847000D01*
X171939500Y-112450500D02*
X171939500Y-111450500D01*
X170579500Y-111450500D02*
X170579500Y-112450500D01*
X173553500Y-106344000D02*
X174553500Y-106344000D01*
X174553500Y-104984000D02*
X173553500Y-104984000D01*
X171950000Y-104984000D02*
X170950000Y-104984000D01*
X170950000Y-106344000D02*
X171950000Y-106344000D01*
X177183500Y-105672000D02*
X177183500Y-106672000D01*
X178543500Y-106672000D02*
X178543500Y-105672000D01*
X180792500Y-115043500D02*
X181792500Y-115043500D01*
X181792500Y-113683500D02*
X180792500Y-113683500D01*
X81478500Y-88246500D02*
X82478500Y-88246500D01*
X82478500Y-86886500D02*
X81478500Y-86886500D01*
X166477000Y-106000000D02*
X165477000Y-106000000D01*
X165477000Y-107360000D02*
X166477000Y-107360000D01*
X169283000Y-106000000D02*
X168283000Y-106000000D01*
X168283000Y-107360000D02*
X169283000Y-107360000D01*
X168283000Y-103867500D02*
X169283000Y-103867500D01*
X169283000Y-102507500D02*
X168283000Y-102507500D01*
X168283000Y-105391500D02*
X169283000Y-105391500D01*
X169283000Y-104031500D02*
X168283000Y-104031500D01*
X190619000Y-107841500D02*
X189619000Y-107841500D01*
X189619000Y-109201500D02*
X190619000Y-109201500D01*
X189619000Y-111106500D02*
X190619000Y-111106500D01*
X190619000Y-109746500D02*
X189619000Y-109746500D01*
X189619000Y-114345000D02*
X190619000Y-114345000D01*
X190619000Y-112985000D02*
X189619000Y-112985000D01*
X190619000Y-111461000D02*
X189619000Y-111461000D01*
X189619000Y-112821000D02*
X190619000Y-112821000D01*
X211066000Y-67455500D02*
X210066000Y-67455500D01*
X210066000Y-68815500D02*
X211066000Y-68815500D01*
X206954500Y-70974500D02*
X207954500Y-70974500D01*
X207954500Y-69614500D02*
X206954500Y-69614500D01*
X211066000Y-72599000D02*
X210066000Y-72599000D01*
X210066000Y-73959000D02*
X211066000Y-73959000D01*
X213595500Y-75811000D02*
X213595500Y-74811000D01*
X212235500Y-74811000D02*
X212235500Y-75811000D01*
X211066000Y-74186500D02*
X210066000Y-74186500D01*
X210066000Y-75546500D02*
X211066000Y-75546500D01*
X190418000Y-79176500D02*
X190418000Y-78176500D01*
X189058000Y-78176500D02*
X189058000Y-79176500D01*
X184475500Y-98724000D02*
X185475500Y-98724000D01*
X185475500Y-97364000D02*
X184475500Y-97364000D01*
X224618000Y-108656500D02*
X224618000Y-109656500D01*
X225978000Y-109656500D02*
X225978000Y-108656500D01*
X137739500Y-69958500D02*
X138739500Y-69958500D01*
X138739500Y-68598500D02*
X137739500Y-68598500D01*
X137739500Y-78658000D02*
X138739500Y-78658000D01*
X138739500Y-77298000D02*
X137739500Y-77298000D01*
X138739500Y-72916500D02*
X137739500Y-72916500D01*
X137739500Y-74276500D02*
X138739500Y-74276500D01*
X166933500Y-74821500D02*
X165933500Y-74821500D01*
X165933500Y-76181500D02*
X166933500Y-76181500D01*
X151963500Y-74848000D02*
X152963500Y-74848000D01*
X152963500Y-73488000D02*
X151963500Y-73488000D01*
X166933500Y-79139500D02*
X165933500Y-79139500D01*
X165933500Y-80499500D02*
X166933500Y-80499500D01*
X152963500Y-77806000D02*
X151963500Y-77806000D01*
X151963500Y-79166000D02*
X152963500Y-79166000D01*
X183380000Y-91141000D02*
X182380000Y-91141000D01*
X182380000Y-92501000D02*
X183380000Y-92501000D01*
X183380000Y-92601500D02*
X182380000Y-92601500D01*
X182380000Y-93961500D02*
X183380000Y-93961500D01*
X49702000Y-98417000D02*
X49702000Y-97417000D01*
X48342000Y-97417000D02*
X48342000Y-98417000D01*
X47506000Y-104375500D02*
X48506000Y-104375500D01*
X48506000Y-103015500D02*
X47506000Y-103015500D01*
X48506000Y-101491500D02*
X47506000Y-101491500D01*
X47506000Y-102851500D02*
X48506000Y-102851500D01*
X67826000Y-108122000D02*
X68826000Y-108122000D01*
X68826000Y-106762000D02*
X67826000Y-106762000D01*
X68826000Y-105301500D02*
X67826000Y-105301500D01*
X67826000Y-106661500D02*
X68826000Y-106661500D01*
X65868000Y-112403000D02*
X65868000Y-113403000D01*
X67228000Y-113403000D02*
X67228000Y-112403000D01*
X59264000Y-112403000D02*
X59264000Y-113403000D01*
X60624000Y-113403000D02*
X60624000Y-112403000D01*
X58666000Y-98316500D02*
X57666000Y-98316500D01*
X57666000Y-99676500D02*
X58666000Y-99676500D01*
X58666000Y-105301500D02*
X57666000Y-105301500D01*
X57666000Y-106661500D02*
X58666000Y-106661500D01*
X57666000Y-101137000D02*
X58666000Y-101137000D01*
X58666000Y-99777000D02*
X57666000Y-99777000D01*
X57666000Y-108122000D02*
X58666000Y-108122000D01*
X58666000Y-106762000D02*
X57666000Y-106762000D01*
X195270500Y-108185500D02*
X196270500Y-108185500D01*
X196270500Y-106825500D02*
X195270500Y-106825500D01*
X195270500Y-109646000D02*
X196270500Y-109646000D01*
X196270500Y-108286000D02*
X195270500Y-108286000D01*
X193540000Y-107968500D02*
X192540000Y-107968500D01*
X192540000Y-109328500D02*
X193540000Y-109328500D01*
X192540000Y-110852500D02*
X193540000Y-110852500D01*
X193540000Y-109492500D02*
X192540000Y-109492500D01*
X221051500Y-86849500D02*
X222051500Y-86849500D01*
X222051500Y-85489500D02*
X221051500Y-85489500D01*
X216352500Y-74149500D02*
X217352500Y-74149500D01*
X217352500Y-72789500D02*
X216352500Y-72789500D01*
X217352500Y-74313500D02*
X216352500Y-74313500D01*
X216352500Y-75673500D02*
X217352500Y-75673500D01*
X220988000Y-77451500D02*
X221988000Y-77451500D01*
X221988000Y-76091500D02*
X220988000Y-76091500D01*
X218130500Y-85325500D02*
X219130500Y-85325500D01*
X219130500Y-83965500D02*
X218130500Y-83965500D01*
X226623500Y-74313500D02*
X225623500Y-74313500D01*
X225623500Y-75673500D02*
X226623500Y-75673500D01*
X225623500Y-74149500D02*
X226623500Y-74149500D01*
X226623500Y-72789500D02*
X225623500Y-72789500D01*
X220353000Y-92036000D02*
X221353000Y-92036000D01*
X220353000Y-87796000D02*
X221353000Y-87796000D01*
X213241000Y-93369500D02*
X214241000Y-93369500D01*
X213241000Y-89129500D02*
X214241000Y-89129500D01*
X216606500Y-78334500D02*
X217606500Y-78334500D01*
X216606500Y-82574500D02*
X217606500Y-82574500D01*
X220781500Y-83082500D02*
X219781500Y-83082500D01*
X220781500Y-78842500D02*
X219781500Y-78842500D01*
X72730000Y-74220500D02*
X72730000Y-76670500D01*
X69510000Y-76020500D02*
X69510000Y-74220500D01*
D10*
X67101499Y-73769000D02*
X64951499Y-73769000D01*
X67926499Y-71519000D02*
X64951499Y-71519000D01*
D12*
X84414000Y-76951000D02*
X84414000Y-78751000D01*
X81194000Y-78751000D02*
X81194000Y-76301000D01*
D10*
X87126500Y-77424500D02*
X89276500Y-77424500D01*
X86301500Y-79674500D02*
X89276500Y-79674500D01*
D12*
X94817499Y-84085000D02*
X94817499Y-82285000D01*
X98037499Y-82285000D02*
X98037499Y-84735000D01*
X103019500Y-77522500D02*
X103019500Y-79322500D01*
X99799500Y-79322500D02*
X99799500Y-76872500D01*
D10*
X104970500Y-79674500D02*
X107945500Y-79674500D01*
X105795500Y-77424500D02*
X107945500Y-77424500D01*
D12*
X113198000Y-84021500D02*
X113198000Y-82221500D01*
X116418000Y-82221500D02*
X116418000Y-84671500D01*
X120355000Y-71426500D02*
X120355000Y-73226500D01*
X117135000Y-73226500D02*
X117135000Y-70776500D01*
D10*
X123131000Y-72027000D02*
X125281000Y-72027000D01*
X122306000Y-74277000D02*
X125281000Y-74277000D01*
D12*
X134178499Y-76697000D02*
X134178499Y-79147000D01*
X130958499Y-78497000D02*
X130958499Y-76697000D01*
D10*
X111794501Y-110274499D02*
X114769501Y-110274499D01*
X112619501Y-108024499D02*
X114769501Y-108024499D01*
D12*
X99545500Y-105738500D02*
X99545500Y-103288500D01*
X102765500Y-103938500D02*
X102765500Y-105738500D01*
D10*
X126237000Y-93707500D02*
X126237000Y-90532500D01*
X122937000Y-92982500D02*
X122937000Y-90532500D01*
X221112999Y-68145001D02*
X218137999Y-68145001D01*
X220287999Y-70395001D02*
X218137999Y-70395001D01*
D12*
X37228000Y-94867500D02*
X37228000Y-96767500D01*
X34908000Y-96267500D02*
X34908000Y-94867500D01*
X177990500Y-90899500D02*
X180990500Y-90899500D01*
X176990500Y-94139500D02*
X178990500Y-94139500D01*
D10*
X54266500Y-101947000D02*
X54266500Y-104047000D01*
X51016500Y-101172000D02*
X51016500Y-104047000D01*
D12*
X56405000Y-112774500D02*
X56405000Y-114674500D01*
X54085000Y-114174500D02*
X54085000Y-112774500D01*
D14*
X164045900Y-98107500D02*
G75*
G03X164045900Y-98107500I-16450000J0D01*
G01*
D12*
X53686000Y-113824500D02*
X53686000Y-113124500D01*
X52486000Y-113124500D02*
X52486000Y-113824500D01*
X125879500Y-97334500D02*
X125879500Y-99134500D01*
X122659500Y-99134500D02*
X122659500Y-96684500D01*
X123642500Y-94209500D02*
X124642500Y-94209500D01*
X124642500Y-95909500D02*
X123642500Y-95909500D01*
X199803500Y-114335000D02*
X199103500Y-114335000D01*
X199103500Y-115535000D02*
X199803500Y-115535000D01*
X82455500Y-74393500D02*
X81755500Y-74393500D01*
X81755500Y-75593500D02*
X82455500Y-75593500D01*
D10*
X74167619Y-76834785D02*
X73358095Y-76834785D01*
X73262857Y-76787166D01*
X73215238Y-76739547D01*
X73167619Y-76644309D01*
X73167619Y-76453833D01*
X73215238Y-76358595D01*
X73262857Y-76310976D01*
X73358095Y-76263357D01*
X74167619Y-76263357D01*
X74167619Y-75882404D02*
X74167619Y-75263357D01*
X73786666Y-75596690D01*
X73786666Y-75453833D01*
X73739047Y-75358595D01*
X73691428Y-75310976D01*
X73596190Y-75263357D01*
X73358095Y-75263357D01*
X73262857Y-75310976D01*
X73215238Y-75358595D01*
X73167619Y-75453833D01*
X73167619Y-75739547D01*
X73215238Y-75834785D01*
X73262857Y-75882404D01*
X74167619Y-74644309D02*
X74167619Y-74549071D01*
X74120000Y-74453833D01*
X74072380Y-74406214D01*
X73977142Y-74358595D01*
X73786666Y-74310976D01*
X73548571Y-74310976D01*
X73358095Y-74358595D01*
X73262857Y-74406214D01*
X73215238Y-74453833D01*
X73167619Y-74549071D01*
X73167619Y-74644309D01*
X73215238Y-74739547D01*
X73262857Y-74787166D01*
X73358095Y-74834785D01*
X73548571Y-74882404D01*
X73786666Y-74882404D01*
X73977142Y-74834785D01*
X74072380Y-74787166D01*
X74120000Y-74739547D01*
X74167619Y-74644309D01*
X73167619Y-73358595D02*
X73167619Y-73930023D01*
X73167619Y-73644309D02*
X74167619Y-73644309D01*
X74024761Y-73739547D01*
X73929523Y-73834785D01*
X73881904Y-73930023D01*
X67740784Y-70046380D02*
X67740784Y-70855904D01*
X67693165Y-70951142D01*
X67645546Y-70998761D01*
X67550308Y-71046380D01*
X67359832Y-71046380D01*
X67264594Y-70998761D01*
X67216975Y-70951142D01*
X67169356Y-70855904D01*
X67169356Y-70046380D01*
X66788403Y-70046380D02*
X66169356Y-70046380D01*
X66502689Y-70427333D01*
X66359832Y-70427333D01*
X66264594Y-70474952D01*
X66216975Y-70522571D01*
X66169356Y-70617809D01*
X66169356Y-70855904D01*
X66216975Y-70951142D01*
X66264594Y-70998761D01*
X66359832Y-71046380D01*
X66645546Y-71046380D01*
X66740784Y-70998761D01*
X66788403Y-70951142D01*
X65550308Y-70046380D02*
X65455070Y-70046380D01*
X65359832Y-70094000D01*
X65312213Y-70141619D01*
X65264594Y-70236857D01*
X65216975Y-70427333D01*
X65216975Y-70665428D01*
X65264594Y-70855904D01*
X65312213Y-70951142D01*
X65359832Y-70998761D01*
X65455070Y-71046380D01*
X65550308Y-71046380D01*
X65645546Y-70998761D01*
X65693165Y-70951142D01*
X65740784Y-70855904D01*
X65788403Y-70665428D01*
X65788403Y-70427333D01*
X65740784Y-70236857D01*
X65693165Y-70141619D01*
X65645546Y-70094000D01*
X65550308Y-70046380D01*
X64836022Y-70141619D02*
X64788403Y-70094000D01*
X64693165Y-70046380D01*
X64455070Y-70046380D01*
X64359832Y-70094000D01*
X64312213Y-70141619D01*
X64264594Y-70236857D01*
X64264594Y-70332095D01*
X64312213Y-70474952D01*
X64883641Y-71046380D01*
X64264594Y-71046380D01*
X79756380Y-76136714D02*
X80565904Y-76136714D01*
X80661142Y-76184333D01*
X80708761Y-76231952D01*
X80756380Y-76327190D01*
X80756380Y-76517666D01*
X80708761Y-76612904D01*
X80661142Y-76660523D01*
X80565904Y-76708142D01*
X79756380Y-76708142D01*
X79756380Y-77660523D02*
X79756380Y-77184333D01*
X80232571Y-77136714D01*
X80184952Y-77184333D01*
X80137333Y-77279571D01*
X80137333Y-77517666D01*
X80184952Y-77612904D01*
X80232571Y-77660523D01*
X80327809Y-77708142D01*
X80565904Y-77708142D01*
X80661142Y-77660523D01*
X80708761Y-77612904D01*
X80756380Y-77517666D01*
X80756380Y-77279571D01*
X80708761Y-77184333D01*
X80661142Y-77136714D01*
X79756380Y-78327190D02*
X79756380Y-78422428D01*
X79804000Y-78517666D01*
X79851619Y-78565285D01*
X79946857Y-78612904D01*
X80137333Y-78660523D01*
X80375428Y-78660523D01*
X80565904Y-78612904D01*
X80661142Y-78565285D01*
X80708761Y-78517666D01*
X80756380Y-78422428D01*
X80756380Y-78327190D01*
X80708761Y-78231952D01*
X80661142Y-78184333D01*
X80565904Y-78136714D01*
X80375428Y-78089095D01*
X80137333Y-78089095D01*
X79946857Y-78136714D01*
X79851619Y-78184333D01*
X79804000Y-78231952D01*
X79756380Y-78327190D01*
X80756380Y-79612904D02*
X80756380Y-79041476D01*
X80756380Y-79327190D02*
X79756380Y-79327190D01*
X79899238Y-79231952D01*
X79994476Y-79136714D01*
X80042095Y-79041476D01*
X89915785Y-80051880D02*
X89915785Y-80861404D01*
X89868166Y-80956642D01*
X89820547Y-81004261D01*
X89725309Y-81051880D01*
X89534833Y-81051880D01*
X89439595Y-81004261D01*
X89391976Y-80956642D01*
X89344357Y-80861404D01*
X89344357Y-80051880D01*
X88391976Y-80051880D02*
X88868166Y-80051880D01*
X88915785Y-80528071D01*
X88868166Y-80480452D01*
X88772928Y-80432833D01*
X88534833Y-80432833D01*
X88439595Y-80480452D01*
X88391976Y-80528071D01*
X88344357Y-80623309D01*
X88344357Y-80861404D01*
X88391976Y-80956642D01*
X88439595Y-81004261D01*
X88534833Y-81051880D01*
X88772928Y-81051880D01*
X88868166Y-81004261D01*
X88915785Y-80956642D01*
X87725309Y-80051880D02*
X87630071Y-80051880D01*
X87534833Y-80099500D01*
X87487214Y-80147119D01*
X87439595Y-80242357D01*
X87391976Y-80432833D01*
X87391976Y-80670928D01*
X87439595Y-80861404D01*
X87487214Y-80956642D01*
X87534833Y-81004261D01*
X87630071Y-81051880D01*
X87725309Y-81051880D01*
X87820547Y-81004261D01*
X87868166Y-80956642D01*
X87915785Y-80861404D01*
X87963404Y-80670928D01*
X87963404Y-80432833D01*
X87915785Y-80242357D01*
X87868166Y-80147119D01*
X87820547Y-80099500D01*
X87725309Y-80051880D01*
X87011023Y-80147119D02*
X86963404Y-80099500D01*
X86868166Y-80051880D01*
X86630071Y-80051880D01*
X86534833Y-80099500D01*
X86487214Y-80147119D01*
X86439595Y-80242357D01*
X86439595Y-80337595D01*
X86487214Y-80480452D01*
X87058642Y-81051880D01*
X86439595Y-81051880D01*
X98379879Y-81470714D02*
X99189403Y-81470714D01*
X99284641Y-81518333D01*
X99332260Y-81565952D01*
X99379879Y-81661190D01*
X99379879Y-81851666D01*
X99332260Y-81946904D01*
X99284641Y-81994523D01*
X99189403Y-82042142D01*
X98379879Y-82042142D01*
X98379879Y-82994523D02*
X98379879Y-82518333D01*
X98856070Y-82470714D01*
X98808451Y-82518333D01*
X98760832Y-82613571D01*
X98760832Y-82851666D01*
X98808451Y-82946904D01*
X98856070Y-82994523D01*
X98951308Y-83042142D01*
X99189403Y-83042142D01*
X99284641Y-82994523D01*
X99332260Y-82946904D01*
X99379879Y-82851666D01*
X99379879Y-82613571D01*
X99332260Y-82518333D01*
X99284641Y-82470714D01*
X98379879Y-83661190D02*
X98379879Y-83756428D01*
X98427499Y-83851666D01*
X98475118Y-83899285D01*
X98570356Y-83946904D01*
X98760832Y-83994523D01*
X98998927Y-83994523D01*
X99189403Y-83946904D01*
X99284641Y-83899285D01*
X99332260Y-83851666D01*
X99379879Y-83756428D01*
X99379879Y-83661190D01*
X99332260Y-83565952D01*
X99284641Y-83518333D01*
X99189403Y-83470714D01*
X98998927Y-83423095D01*
X98760832Y-83423095D01*
X98570356Y-83470714D01*
X98475118Y-83518333D01*
X98427499Y-83565952D01*
X98379879Y-83661190D01*
X98379879Y-84327857D02*
X98379879Y-84946904D01*
X98760832Y-84613571D01*
X98760832Y-84756428D01*
X98808451Y-84851666D01*
X98856070Y-84899285D01*
X98951308Y-84946904D01*
X99189403Y-84946904D01*
X99284641Y-84899285D01*
X99332260Y-84851666D01*
X99379879Y-84756428D01*
X99379879Y-84470714D01*
X99332260Y-84375476D01*
X99284641Y-84327857D01*
X98361880Y-76708214D02*
X99171404Y-76708214D01*
X99266642Y-76755833D01*
X99314261Y-76803452D01*
X99361880Y-76898690D01*
X99361880Y-77089166D01*
X99314261Y-77184404D01*
X99266642Y-77232023D01*
X99171404Y-77279642D01*
X98361880Y-77279642D01*
X98361880Y-77660595D02*
X98361880Y-78327261D01*
X99361880Y-77898690D01*
X98361880Y-78898690D02*
X98361880Y-78993928D01*
X98409500Y-79089166D01*
X98457119Y-79136785D01*
X98552357Y-79184404D01*
X98742833Y-79232023D01*
X98980928Y-79232023D01*
X99171404Y-79184404D01*
X99266642Y-79136785D01*
X99314261Y-79089166D01*
X99361880Y-78993928D01*
X99361880Y-78898690D01*
X99314261Y-78803452D01*
X99266642Y-78755833D01*
X99171404Y-78708214D01*
X98980928Y-78660595D01*
X98742833Y-78660595D01*
X98552357Y-78708214D01*
X98457119Y-78755833D01*
X98409500Y-78803452D01*
X98361880Y-78898690D01*
X99361880Y-80184404D02*
X99361880Y-79612976D01*
X99361880Y-79898690D02*
X98361880Y-79898690D01*
X98504738Y-79803452D01*
X98599976Y-79708214D01*
X98647595Y-79612976D01*
X108584785Y-80051880D02*
X108584785Y-80861404D01*
X108537166Y-80956642D01*
X108489547Y-81004261D01*
X108394309Y-81051880D01*
X108203833Y-81051880D01*
X108108595Y-81004261D01*
X108060976Y-80956642D01*
X108013357Y-80861404D01*
X108013357Y-80051880D01*
X107632404Y-80051880D02*
X106965738Y-80051880D01*
X107394309Y-81051880D01*
X106394309Y-80051880D02*
X106299071Y-80051880D01*
X106203833Y-80099500D01*
X106156214Y-80147119D01*
X106108595Y-80242357D01*
X106060976Y-80432833D01*
X106060976Y-80670928D01*
X106108595Y-80861404D01*
X106156214Y-80956642D01*
X106203833Y-81004261D01*
X106299071Y-81051880D01*
X106394309Y-81051880D01*
X106489547Y-81004261D01*
X106537166Y-80956642D01*
X106584785Y-80861404D01*
X106632404Y-80670928D01*
X106632404Y-80432833D01*
X106584785Y-80242357D01*
X106537166Y-80147119D01*
X106489547Y-80099500D01*
X106394309Y-80051880D01*
X105680023Y-80147119D02*
X105632404Y-80099500D01*
X105537166Y-80051880D01*
X105299071Y-80051880D01*
X105203833Y-80099500D01*
X105156214Y-80147119D01*
X105108595Y-80242357D01*
X105108595Y-80337595D01*
X105156214Y-80480452D01*
X105727642Y-81051880D01*
X105108595Y-81051880D01*
X116204785Y-79843380D02*
X116204785Y-80652904D01*
X116157166Y-80748142D01*
X116109547Y-80795761D01*
X116014309Y-80843380D01*
X115823833Y-80843380D01*
X115728595Y-80795761D01*
X115680976Y-80748142D01*
X115633357Y-80652904D01*
X115633357Y-79843380D01*
X115252404Y-79843380D02*
X114585738Y-79843380D01*
X115014309Y-80843380D01*
X114014309Y-79843380D02*
X113919071Y-79843380D01*
X113823833Y-79891000D01*
X113776214Y-79938619D01*
X113728595Y-80033857D01*
X113680976Y-80224333D01*
X113680976Y-80462428D01*
X113728595Y-80652904D01*
X113776214Y-80748142D01*
X113823833Y-80795761D01*
X113919071Y-80843380D01*
X114014309Y-80843380D01*
X114109547Y-80795761D01*
X114157166Y-80748142D01*
X114204785Y-80652904D01*
X114252404Y-80462428D01*
X114252404Y-80224333D01*
X114204785Y-80033857D01*
X114157166Y-79938619D01*
X114109547Y-79891000D01*
X114014309Y-79843380D01*
X113347642Y-79843380D02*
X112728595Y-79843380D01*
X113061928Y-80224333D01*
X112919071Y-80224333D01*
X112823833Y-80271952D01*
X112776214Y-80319571D01*
X112728595Y-80414809D01*
X112728595Y-80652904D01*
X112776214Y-80748142D01*
X112823833Y-80795761D01*
X112919071Y-80843380D01*
X113204785Y-80843380D01*
X113300023Y-80795761D01*
X113347642Y-80748142D01*
X115697380Y-70612214D02*
X116506904Y-70612214D01*
X116602142Y-70659833D01*
X116649761Y-70707452D01*
X116697380Y-70802690D01*
X116697380Y-70993166D01*
X116649761Y-71088404D01*
X116602142Y-71136023D01*
X116506904Y-71183642D01*
X115697380Y-71183642D01*
X116697380Y-71707452D02*
X116697380Y-71897928D01*
X116649761Y-71993166D01*
X116602142Y-72040785D01*
X116459285Y-72136023D01*
X116268809Y-72183642D01*
X115887857Y-72183642D01*
X115792619Y-72136023D01*
X115745000Y-72088404D01*
X115697380Y-71993166D01*
X115697380Y-71802690D01*
X115745000Y-71707452D01*
X115792619Y-71659833D01*
X115887857Y-71612214D01*
X116125952Y-71612214D01*
X116221190Y-71659833D01*
X116268809Y-71707452D01*
X116316428Y-71802690D01*
X116316428Y-71993166D01*
X116268809Y-72088404D01*
X116221190Y-72136023D01*
X116125952Y-72183642D01*
X115697380Y-72802690D02*
X115697380Y-72897928D01*
X115745000Y-72993166D01*
X115792619Y-73040785D01*
X115887857Y-73088404D01*
X116078333Y-73136023D01*
X116316428Y-73136023D01*
X116506904Y-73088404D01*
X116602142Y-73040785D01*
X116649761Y-72993166D01*
X116697380Y-72897928D01*
X116697380Y-72802690D01*
X116649761Y-72707452D01*
X116602142Y-72659833D01*
X116506904Y-72612214D01*
X116316428Y-72564595D01*
X116078333Y-72564595D01*
X115887857Y-72612214D01*
X115792619Y-72659833D01*
X115745000Y-72707452D01*
X115697380Y-72802690D01*
X116697380Y-74088404D02*
X116697380Y-73516976D01*
X116697380Y-73802690D02*
X115697380Y-73802690D01*
X115840238Y-73707452D01*
X115935476Y-73612214D01*
X115983095Y-73516976D01*
X125920285Y-74654380D02*
X125920285Y-75463904D01*
X125872666Y-75559142D01*
X125825047Y-75606761D01*
X125729809Y-75654380D01*
X125539333Y-75654380D01*
X125444095Y-75606761D01*
X125396476Y-75559142D01*
X125348857Y-75463904D01*
X125348857Y-74654380D01*
X124825047Y-75654380D02*
X124634571Y-75654380D01*
X124539333Y-75606761D01*
X124491714Y-75559142D01*
X124396476Y-75416285D01*
X124348857Y-75225809D01*
X124348857Y-74844857D01*
X124396476Y-74749619D01*
X124444095Y-74702000D01*
X124539333Y-74654380D01*
X124729809Y-74654380D01*
X124825047Y-74702000D01*
X124872666Y-74749619D01*
X124920285Y-74844857D01*
X124920285Y-75082952D01*
X124872666Y-75178190D01*
X124825047Y-75225809D01*
X124729809Y-75273428D01*
X124539333Y-75273428D01*
X124444095Y-75225809D01*
X124396476Y-75178190D01*
X124348857Y-75082952D01*
X123729809Y-74654380D02*
X123634571Y-74654380D01*
X123539333Y-74702000D01*
X123491714Y-74749619D01*
X123444095Y-74844857D01*
X123396476Y-75035333D01*
X123396476Y-75273428D01*
X123444095Y-75463904D01*
X123491714Y-75559142D01*
X123539333Y-75606761D01*
X123634571Y-75654380D01*
X123729809Y-75654380D01*
X123825047Y-75606761D01*
X123872666Y-75559142D01*
X123920285Y-75463904D01*
X123967904Y-75273428D01*
X123967904Y-75035333D01*
X123920285Y-74844857D01*
X123872666Y-74749619D01*
X123825047Y-74702000D01*
X123729809Y-74654380D01*
X123015523Y-74749619D02*
X122967904Y-74702000D01*
X122872666Y-74654380D01*
X122634571Y-74654380D01*
X122539333Y-74702000D01*
X122491714Y-74749619D01*
X122444095Y-74844857D01*
X122444095Y-74940095D01*
X122491714Y-75082952D01*
X123063142Y-75654380D01*
X122444095Y-75654380D01*
X134520879Y-75882714D02*
X135330403Y-75882714D01*
X135425641Y-75930333D01*
X135473260Y-75977952D01*
X135520879Y-76073190D01*
X135520879Y-76263666D01*
X135473260Y-76358904D01*
X135425641Y-76406523D01*
X135330403Y-76454142D01*
X134520879Y-76454142D01*
X135520879Y-76977952D02*
X135520879Y-77168428D01*
X135473260Y-77263666D01*
X135425641Y-77311285D01*
X135282784Y-77406523D01*
X135092308Y-77454142D01*
X134711356Y-77454142D01*
X134616118Y-77406523D01*
X134568499Y-77358904D01*
X134520879Y-77263666D01*
X134520879Y-77073190D01*
X134568499Y-76977952D01*
X134616118Y-76930333D01*
X134711356Y-76882714D01*
X134949451Y-76882714D01*
X135044689Y-76930333D01*
X135092308Y-76977952D01*
X135139927Y-77073190D01*
X135139927Y-77263666D01*
X135092308Y-77358904D01*
X135044689Y-77406523D01*
X134949451Y-77454142D01*
X134520879Y-78073190D02*
X134520879Y-78168428D01*
X134568499Y-78263666D01*
X134616118Y-78311285D01*
X134711356Y-78358904D01*
X134901832Y-78406523D01*
X135139927Y-78406523D01*
X135330403Y-78358904D01*
X135425641Y-78311285D01*
X135473260Y-78263666D01*
X135520879Y-78168428D01*
X135520879Y-78073190D01*
X135473260Y-77977952D01*
X135425641Y-77930333D01*
X135330403Y-77882714D01*
X135139927Y-77835095D01*
X134901832Y-77835095D01*
X134711356Y-77882714D01*
X134616118Y-77930333D01*
X134568499Y-77977952D01*
X134520879Y-78073190D01*
X134520879Y-78739857D02*
X134520879Y-79358904D01*
X134901832Y-79025571D01*
X134901832Y-79168428D01*
X134949451Y-79263666D01*
X134997070Y-79311285D01*
X135092308Y-79358904D01*
X135330403Y-79358904D01*
X135425641Y-79311285D01*
X135473260Y-79263666D01*
X135520879Y-79168428D01*
X135520879Y-78882714D01*
X135473260Y-78787476D01*
X135425641Y-78739857D01*
X115884977Y-110651879D02*
X115884977Y-111461403D01*
X115837358Y-111556641D01*
X115789739Y-111604260D01*
X115694501Y-111651879D01*
X115504024Y-111651879D01*
X115408786Y-111604260D01*
X115361167Y-111556641D01*
X115313548Y-111461403D01*
X115313548Y-110651879D01*
X114313548Y-111651879D02*
X114884977Y-111651879D01*
X114599262Y-111651879D02*
X114599262Y-110651879D01*
X114694501Y-110794737D01*
X114789739Y-110889975D01*
X114884977Y-110937594D01*
X113361167Y-111651879D02*
X113932596Y-111651879D01*
X113646881Y-111651879D02*
X113646881Y-110651879D01*
X113742120Y-110794737D01*
X113837358Y-110889975D01*
X113932596Y-110937594D01*
X112742120Y-110651879D02*
X112646881Y-110651879D01*
X112551643Y-110699499D01*
X112504024Y-110747118D01*
X112456405Y-110842356D01*
X112408786Y-111032832D01*
X112408786Y-111270927D01*
X112456405Y-111461403D01*
X112504024Y-111556641D01*
X112551643Y-111604260D01*
X112646881Y-111651879D01*
X112742120Y-111651879D01*
X112837358Y-111604260D01*
X112884977Y-111556641D01*
X112932596Y-111461403D01*
X112980215Y-111270927D01*
X112980215Y-111032832D01*
X112932596Y-110842356D01*
X112884977Y-110747118D01*
X112837358Y-110699499D01*
X112742120Y-110651879D01*
X111456405Y-111651879D02*
X112027834Y-111651879D01*
X111742120Y-111651879D02*
X111742120Y-110651879D01*
X111837358Y-110794737D01*
X111932596Y-110889975D01*
X112027834Y-110937594D01*
X98107880Y-102648023D02*
X98917404Y-102648023D01*
X99012642Y-102695642D01*
X99060261Y-102743261D01*
X99107880Y-102838500D01*
X99107880Y-103028976D01*
X99060261Y-103124214D01*
X99012642Y-103171833D01*
X98917404Y-103219452D01*
X98107880Y-103219452D01*
X99107880Y-104219452D02*
X99107880Y-103648023D01*
X99107880Y-103933738D02*
X98107880Y-103933738D01*
X98250738Y-103838500D01*
X98345976Y-103743261D01*
X98393595Y-103648023D01*
X99107880Y-105171833D02*
X99107880Y-104600404D01*
X99107880Y-104886119D02*
X98107880Y-104886119D01*
X98250738Y-104790880D01*
X98345976Y-104695642D01*
X98393595Y-104600404D01*
X98107880Y-105790880D02*
X98107880Y-105886119D01*
X98155500Y-105981357D01*
X98203119Y-106028976D01*
X98298357Y-106076595D01*
X98488833Y-106124214D01*
X98726928Y-106124214D01*
X98917404Y-106076595D01*
X99012642Y-106028976D01*
X99060261Y-105981357D01*
X99107880Y-105886119D01*
X99107880Y-105790880D01*
X99060261Y-105695642D01*
X99012642Y-105648023D01*
X98917404Y-105600404D01*
X98726928Y-105552785D01*
X98488833Y-105552785D01*
X98298357Y-105600404D01*
X98203119Y-105648023D01*
X98155500Y-105695642D01*
X98107880Y-105790880D01*
X98203119Y-106505166D02*
X98155500Y-106552785D01*
X98107880Y-106648023D01*
X98107880Y-106886119D01*
X98155500Y-106981357D01*
X98203119Y-107028976D01*
X98298357Y-107076595D01*
X98393595Y-107076595D01*
X98536452Y-107028976D01*
X99107880Y-106457547D01*
X99107880Y-107076595D01*
X121372380Y-89567023D02*
X122181904Y-89567023D01*
X122277142Y-89614642D01*
X122324761Y-89662261D01*
X122372380Y-89757500D01*
X122372380Y-89947976D01*
X122324761Y-90043214D01*
X122277142Y-90090833D01*
X122181904Y-90138452D01*
X121372380Y-90138452D01*
X122372380Y-91138452D02*
X122372380Y-90567023D01*
X122372380Y-90852738D02*
X121372380Y-90852738D01*
X121515238Y-90757500D01*
X121610476Y-90662261D01*
X121658095Y-90567023D01*
X122372380Y-92090833D02*
X122372380Y-91519404D01*
X122372380Y-91805119D02*
X121372380Y-91805119D01*
X121515238Y-91709880D01*
X121610476Y-91614642D01*
X121658095Y-91519404D01*
X121372380Y-92709880D02*
X121372380Y-92805119D01*
X121420000Y-92900357D01*
X121467619Y-92947976D01*
X121562857Y-92995595D01*
X121753333Y-93043214D01*
X121991428Y-93043214D01*
X122181904Y-92995595D01*
X122277142Y-92947976D01*
X122324761Y-92900357D01*
X122372380Y-92805119D01*
X122372380Y-92709880D01*
X122324761Y-92614642D01*
X122277142Y-92567023D01*
X122181904Y-92519404D01*
X121991428Y-92471785D01*
X121753333Y-92471785D01*
X121562857Y-92519404D01*
X121467619Y-92567023D01*
X121420000Y-92614642D01*
X121372380Y-92709880D01*
X121372380Y-93376547D02*
X121372380Y-93995595D01*
X121753333Y-93662261D01*
X121753333Y-93805119D01*
X121800952Y-93900357D01*
X121848571Y-93947976D01*
X121943809Y-93995595D01*
X122181904Y-93995595D01*
X122277142Y-93947976D01*
X122324761Y-93900357D01*
X122372380Y-93805119D01*
X122372380Y-93519404D01*
X122324761Y-93424166D01*
X122277142Y-93376547D01*
X221392476Y-71016880D02*
X221392476Y-71826404D01*
X221344857Y-71921642D01*
X221297238Y-71969261D01*
X221202000Y-72016880D01*
X221011523Y-72016880D01*
X220916285Y-71969261D01*
X220868666Y-71921642D01*
X220821047Y-71826404D01*
X220821047Y-71016880D01*
X219821047Y-72016880D02*
X220392476Y-72016880D01*
X220106761Y-72016880D02*
X220106761Y-71016880D01*
X220202000Y-71159738D01*
X220297238Y-71254976D01*
X220392476Y-71302595D01*
X219249619Y-71445452D02*
X219344857Y-71397833D01*
X219392476Y-71350214D01*
X219440095Y-71254976D01*
X219440095Y-71207357D01*
X219392476Y-71112119D01*
X219344857Y-71064500D01*
X219249619Y-71016880D01*
X219059142Y-71016880D01*
X218963904Y-71064500D01*
X218916285Y-71112119D01*
X218868666Y-71207357D01*
X218868666Y-71254976D01*
X218916285Y-71350214D01*
X218963904Y-71397833D01*
X219059142Y-71445452D01*
X219249619Y-71445452D01*
X219344857Y-71493071D01*
X219392476Y-71540690D01*
X219440095Y-71635928D01*
X219440095Y-71826404D01*
X219392476Y-71921642D01*
X219344857Y-71969261D01*
X219249619Y-72016880D01*
X219059142Y-72016880D01*
X218963904Y-71969261D01*
X218916285Y-71921642D01*
X218868666Y-71826404D01*
X218868666Y-71635928D01*
X218916285Y-71540690D01*
X218963904Y-71493071D01*
X219059142Y-71445452D01*
X218249619Y-71016880D02*
X218154380Y-71016880D01*
X218059142Y-71064500D01*
X218011523Y-71112119D01*
X217963904Y-71207357D01*
X217916285Y-71397833D01*
X217916285Y-71635928D01*
X217963904Y-71826404D01*
X218011523Y-71921642D01*
X218059142Y-71969261D01*
X218154380Y-72016880D01*
X218249619Y-72016880D01*
X218344857Y-71969261D01*
X218392476Y-71921642D01*
X218440095Y-71826404D01*
X218487714Y-71635928D01*
X218487714Y-71397833D01*
X218440095Y-71207357D01*
X218392476Y-71112119D01*
X218344857Y-71064500D01*
X218249619Y-71016880D01*
X217582952Y-71016880D02*
X216963904Y-71016880D01*
X217297238Y-71397833D01*
X217154380Y-71397833D01*
X217059142Y-71445452D01*
X217011523Y-71493071D01*
X216963904Y-71588309D01*
X216963904Y-71826404D01*
X217011523Y-71921642D01*
X217059142Y-71969261D01*
X217154380Y-72016880D01*
X217440095Y-72016880D01*
X217535333Y-71969261D01*
X217582952Y-71921642D01*
X42195476Y-95019880D02*
X42195476Y-95829404D01*
X42147857Y-95924642D01*
X42100238Y-95972261D01*
X42005000Y-96019880D01*
X41814523Y-96019880D01*
X41719285Y-95972261D01*
X41671666Y-95924642D01*
X41624047Y-95829404D01*
X41624047Y-95019880D01*
X41195476Y-95115119D02*
X41147857Y-95067500D01*
X41052619Y-95019880D01*
X40814523Y-95019880D01*
X40719285Y-95067500D01*
X40671666Y-95115119D01*
X40624047Y-95210357D01*
X40624047Y-95305595D01*
X40671666Y-95448452D01*
X41243095Y-96019880D01*
X40624047Y-96019880D01*
X39671666Y-96019880D02*
X40243095Y-96019880D01*
X39957380Y-96019880D02*
X39957380Y-95019880D01*
X40052619Y-95162738D01*
X40147857Y-95257976D01*
X40243095Y-95305595D01*
X39052619Y-95019880D02*
X38957380Y-95019880D01*
X38862142Y-95067500D01*
X38814523Y-95115119D01*
X38766904Y-95210357D01*
X38719285Y-95400833D01*
X38719285Y-95638928D01*
X38766904Y-95829404D01*
X38814523Y-95924642D01*
X38862142Y-95972261D01*
X38957380Y-96019880D01*
X39052619Y-96019880D01*
X39147857Y-95972261D01*
X39195476Y-95924642D01*
X39243095Y-95829404D01*
X39290714Y-95638928D01*
X39290714Y-95400833D01*
X39243095Y-95210357D01*
X39195476Y-95115119D01*
X39147857Y-95067500D01*
X39052619Y-95019880D01*
X37814523Y-95019880D02*
X38290714Y-95019880D01*
X38338333Y-95496071D01*
X38290714Y-95448452D01*
X38195476Y-95400833D01*
X37957380Y-95400833D01*
X37862142Y-95448452D01*
X37814523Y-95496071D01*
X37766904Y-95591309D01*
X37766904Y-95829404D01*
X37814523Y-95924642D01*
X37862142Y-95972261D01*
X37957380Y-96019880D01*
X38195476Y-96019880D01*
X38290714Y-95972261D01*
X38338333Y-95924642D01*
X179863476Y-89471880D02*
X179863476Y-90281404D01*
X179815857Y-90376642D01*
X179768238Y-90424261D01*
X179673000Y-90471880D01*
X179482523Y-90471880D01*
X179387285Y-90424261D01*
X179339666Y-90376642D01*
X179292047Y-90281404D01*
X179292047Y-89471880D01*
X178863476Y-89567119D02*
X178815857Y-89519500D01*
X178720619Y-89471880D01*
X178482523Y-89471880D01*
X178387285Y-89519500D01*
X178339666Y-89567119D01*
X178292047Y-89662357D01*
X178292047Y-89757595D01*
X178339666Y-89900452D01*
X178911095Y-90471880D01*
X178292047Y-90471880D01*
X177911095Y-89567119D02*
X177863476Y-89519500D01*
X177768238Y-89471880D01*
X177530142Y-89471880D01*
X177434904Y-89519500D01*
X177387285Y-89567119D01*
X177339666Y-89662357D01*
X177339666Y-89757595D01*
X177387285Y-89900452D01*
X177958714Y-90471880D01*
X177339666Y-90471880D01*
X176720619Y-89471880D02*
X176625380Y-89471880D01*
X176530142Y-89519500D01*
X176482523Y-89567119D01*
X176434904Y-89662357D01*
X176387285Y-89852833D01*
X176387285Y-90090928D01*
X176434904Y-90281404D01*
X176482523Y-90376642D01*
X176530142Y-90424261D01*
X176625380Y-90471880D01*
X176720619Y-90471880D01*
X176815857Y-90424261D01*
X176863476Y-90376642D01*
X176911095Y-90281404D01*
X176958714Y-90090928D01*
X176958714Y-89852833D01*
X176911095Y-89662357D01*
X176863476Y-89567119D01*
X176815857Y-89519500D01*
X176720619Y-89471880D01*
X175434904Y-90471880D02*
X176006333Y-90471880D01*
X175720619Y-90471880D02*
X175720619Y-89471880D01*
X175815857Y-89614738D01*
X175911095Y-89709976D01*
X176006333Y-89757595D01*
X49543880Y-100806523D02*
X50353404Y-100806523D01*
X50448642Y-100854142D01*
X50496261Y-100901761D01*
X50543880Y-100997000D01*
X50543880Y-101187476D01*
X50496261Y-101282714D01*
X50448642Y-101330333D01*
X50353404Y-101377952D01*
X49543880Y-101377952D01*
X49639119Y-101806523D02*
X49591500Y-101854142D01*
X49543880Y-101949380D01*
X49543880Y-102187476D01*
X49591500Y-102282714D01*
X49639119Y-102330333D01*
X49734357Y-102377952D01*
X49829595Y-102377952D01*
X49972452Y-102330333D01*
X50543880Y-101758904D01*
X50543880Y-102377952D01*
X49877214Y-103235095D02*
X50543880Y-103235095D01*
X49496261Y-102997000D02*
X50210547Y-102758904D01*
X50210547Y-103377952D01*
X49543880Y-103949380D02*
X49543880Y-104044619D01*
X49591500Y-104139857D01*
X49639119Y-104187476D01*
X49734357Y-104235095D01*
X49924833Y-104282714D01*
X50162928Y-104282714D01*
X50353404Y-104235095D01*
X50448642Y-104187476D01*
X50496261Y-104139857D01*
X50543880Y-104044619D01*
X50543880Y-103949380D01*
X50496261Y-103854142D01*
X50448642Y-103806523D01*
X50353404Y-103758904D01*
X50162928Y-103711285D01*
X49924833Y-103711285D01*
X49734357Y-103758904D01*
X49639119Y-103806523D01*
X49591500Y-103854142D01*
X49543880Y-103949380D01*
X49639119Y-104663666D02*
X49591500Y-104711285D01*
X49543880Y-104806523D01*
X49543880Y-105044619D01*
X49591500Y-105139857D01*
X49639119Y-105187476D01*
X49734357Y-105235095D01*
X49829595Y-105235095D01*
X49972452Y-105187476D01*
X50543880Y-104616047D01*
X50543880Y-105235095D01*
X56919880Y-111284023D02*
X57729404Y-111284023D01*
X57824642Y-111331642D01*
X57872261Y-111379261D01*
X57919880Y-111474500D01*
X57919880Y-111664976D01*
X57872261Y-111760214D01*
X57824642Y-111807833D01*
X57729404Y-111855452D01*
X56919880Y-111855452D01*
X57015119Y-112284023D02*
X56967500Y-112331642D01*
X56919880Y-112426880D01*
X56919880Y-112664976D01*
X56967500Y-112760214D01*
X57015119Y-112807833D01*
X57110357Y-112855452D01*
X57205595Y-112855452D01*
X57348452Y-112807833D01*
X57919880Y-112236404D01*
X57919880Y-112855452D01*
X56919880Y-113760214D02*
X56919880Y-113284023D01*
X57396071Y-113236404D01*
X57348452Y-113284023D01*
X57300833Y-113379261D01*
X57300833Y-113617357D01*
X57348452Y-113712595D01*
X57396071Y-113760214D01*
X57491309Y-113807833D01*
X57729404Y-113807833D01*
X57824642Y-113760214D01*
X57872261Y-113712595D01*
X57919880Y-113617357D01*
X57919880Y-113379261D01*
X57872261Y-113284023D01*
X57824642Y-113236404D01*
X56919880Y-114426880D02*
X56919880Y-114522119D01*
X56967500Y-114617357D01*
X57015119Y-114664976D01*
X57110357Y-114712595D01*
X57300833Y-114760214D01*
X57538928Y-114760214D01*
X57729404Y-114712595D01*
X57824642Y-114664976D01*
X57872261Y-114617357D01*
X57919880Y-114522119D01*
X57919880Y-114426880D01*
X57872261Y-114331642D01*
X57824642Y-114284023D01*
X57729404Y-114236404D01*
X57538928Y-114188785D01*
X57300833Y-114188785D01*
X57110357Y-114236404D01*
X57015119Y-114284023D01*
X56967500Y-114331642D01*
X56919880Y-114426880D01*
X57253214Y-115617357D02*
X57919880Y-115617357D01*
X56872261Y-115379261D02*
X57586547Y-115141166D01*
X57586547Y-115760214D01*
X148983747Y-98102728D02*
X149745652Y-98102728D01*
X149364700Y-98483680D02*
X149364700Y-97721776D01*
X139585747Y-92159128D02*
X140347652Y-92159128D01*
X139585747Y-103970128D02*
X140347652Y-103970128D01*
X125761476Y-95083380D02*
X125761476Y-95892904D01*
X125713857Y-95988142D01*
X125666238Y-96035761D01*
X125571000Y-96083380D01*
X125380523Y-96083380D01*
X125285285Y-96035761D01*
X125237666Y-95988142D01*
X125190047Y-95892904D01*
X125190047Y-95083380D01*
X124190047Y-96083380D02*
X124761476Y-96083380D01*
X124475761Y-96083380D02*
X124475761Y-95083380D01*
X124571000Y-95226238D01*
X124666238Y-95321476D01*
X124761476Y-95369095D01*
X123571000Y-95083380D02*
X123475761Y-95083380D01*
X123380523Y-95131000D01*
X123332904Y-95178619D01*
X123285285Y-95273857D01*
X123237666Y-95464333D01*
X123237666Y-95702428D01*
X123285285Y-95892904D01*
X123332904Y-95988142D01*
X123380523Y-96035761D01*
X123475761Y-96083380D01*
X123571000Y-96083380D01*
X123666238Y-96035761D01*
X123713857Y-95988142D01*
X123761476Y-95892904D01*
X123809095Y-95702428D01*
X123809095Y-95464333D01*
X123761476Y-95273857D01*
X123713857Y-95178619D01*
X123666238Y-95131000D01*
X123571000Y-95083380D01*
X122618619Y-95083380D02*
X122523380Y-95083380D01*
X122428142Y-95131000D01*
X122380523Y-95178619D01*
X122332904Y-95273857D01*
X122285285Y-95464333D01*
X122285285Y-95702428D01*
X122332904Y-95892904D01*
X122380523Y-95988142D01*
X122428142Y-96035761D01*
X122523380Y-96083380D01*
X122618619Y-96083380D01*
X122713857Y-96035761D01*
X122761476Y-95988142D01*
X122809095Y-95892904D01*
X122856714Y-95702428D01*
X122856714Y-95464333D01*
X122809095Y-95273857D01*
X122761476Y-95178619D01*
X122713857Y-95131000D01*
X122618619Y-95083380D01*
X121332904Y-96083380D02*
X121904333Y-96083380D01*
X121618619Y-96083380D02*
X121618619Y-95083380D01*
X121713857Y-95226238D01*
X121809095Y-95321476D01*
X121904333Y-95369095D01*
M02*
