M48
; DRILL file {KiCad (5.1.4)-1} date 10/18/2020 1:54:03 PM
; FORMAT={-:-/ absolute / inch / decimal}
; #@! TF.CreationDate,2020-10-18T13:54:03-05:00
; #@! TF.GenerationSoftware,Kicad,Pcbnew,(5.1.4)-1
; #@! TF.FileFunction,Plated,1,4,PTH
FMAT,2
INCH
T1C0.0079
T2C0.0354
T3C0.0394
T4C0.0433
T5C0.0571
%
G90
G05
T1
X1.395Y-3.6925
X1.3975Y-3.76
X1.3975Y-3.792
X1.6075Y-4.1425
X1.6075Y-4.1675
X1.6325Y-4.1425
X1.6325Y-4.1675
X1.6477Y-4.0235
X1.6477Y-4.055
X1.6575Y-4.1425
X1.6575Y-4.1675
X1.6825Y-4.1425
X1.6825Y-4.1675
X1.8042Y-3.7625
X1.8042Y-3.998
X1.813Y-3.885
X1.8605Y-4.14
X1.872Y-3.885
X1.8908Y-3.7625
X1.91Y-4.3125
X1.9175Y-3.6725
X1.9195Y-4.14
X1.9197Y-3.9652
X2.0491Y-4.0387
X2.0491Y-4.0713
X2.0575Y-3.9025
X2.075Y-3.765
X2.075Y-4.0582
X2.078Y-4.365
X2.0959Y-4.0387
X2.0959Y-4.0713
X2.0975Y-3.8845
X2.137Y-4.365
X2.1375Y-3.8725
X2.15Y-4.0975
X2.1508Y-4.2625
X2.1875Y-3.91
X2.19Y-3.9975
X2.19Y-4.087
X2.1948Y-3.9568
X2.21Y-4.1625
X2.3Y-3.895
X2.325Y-2.7725
X2.3725Y-3.9325
X2.38Y-3.0975
X2.3875Y-4.1225
X2.4175Y-4.0275
X2.4175Y-4.085
X2.4416Y-2.9436
X2.445Y-3.91
X2.4475Y-2.7375
X2.4725Y-3.0325
X2.4775Y-3.8175
X2.5115Y-2.8927
X2.5134Y-2.9436
X2.525Y-3.1525
X2.535Y-3.88
X2.5375Y-2.775
X2.54Y-4.09
X2.575Y-3.9925
X2.585Y-4.03
X2.59Y-2.775
X2.6325Y-4.4925
X2.6975Y-3.2225
X2.6975Y-4.3765
X2.7025Y-2.98
X2.709Y-3.3206
X2.715Y-4.185
X2.7175Y-3.8575
X2.7625Y-2.98
X2.7675Y-3.3727
X2.782Y-3.0833
X2.8229Y-3.0179
X2.88Y-2.67
X2.88Y-2.73
X2.8925Y-3.19
X2.8925Y-3.25
X2.91Y-2.7
X2.94Y-2.67
X2.94Y-2.73
X2.9875Y-3.8975
X3.0176Y-3.9606
X3.0375Y-4.39
X3.12Y-3.9375
X3.1875Y-3.155
X3.1881Y-3.3101
X3.1881Y-3.3849
X3.225Y-3.23
X3.2575Y-3.2
X3.2757Y-3.3808
X3.32Y-3.2425
X3.3425Y-3.2425
X3.365Y-2.9125
X3.365Y-3.2425
X3.4151Y-3.8975
X3.4225Y-3.2525
X3.4225Y-3.275
X3.4225Y-3.2975
X3.4225Y-3.34
X3.4225Y-3.3625
X3.4225Y-3.385
X3.423Y-4.0125
X3.423Y-4.1275
X3.423Y-4.2425
X3.423Y-4.3575
X3.423Y-4.4725
X3.4394Y-4.4307
X3.4425Y-3.2125
X3.453Y-3.4375
X3.4548Y-3.0748
X3.4548Y-3.1102
X3.465Y-3.87
X3.4725Y-3.0925
X3.482Y-4.0125
X3.482Y-4.1275
X3.482Y-4.2425
X3.482Y-4.3575
X3.482Y-4.4725
X3.4902Y-3.0748
X3.4902Y-3.1102
X3.4925Y-3.9575
X3.5Y-4.0775
X3.5075Y-2.865
X3.5175Y-4.33
X3.52Y-4.2
X3.5225Y-3.835
X3.5375Y-3.4675
X3.5375Y-3.4925
X3.5375Y-3.5175
X3.5375Y-3.5425
X3.5375Y-3.5675
X3.5396Y-3.155
X3.5625Y-3.4675
X3.5625Y-3.4925
X3.5625Y-3.5175
X3.5625Y-3.5425
X3.5625Y-3.5675
X3.5875Y-3.0275
X3.5875Y-3.4675
X3.5875Y-3.4925
X3.5875Y-3.5175
X3.5875Y-3.5425
X3.5875Y-3.5675
X3.6125Y-3.4675
X3.6125Y-3.4925
X3.6125Y-3.5175
X3.6125Y-3.5425
X3.6125Y-3.5675
X3.6275Y-2.865
X3.63Y-3.0275
X3.6375Y-3.4675
X3.6375Y-3.4925
X3.6375Y-3.5175
X3.6375Y-3.5425
X3.6375Y-3.5675
X3.6625Y-3.4675
X3.6625Y-3.4925
X3.6625Y-3.5175
X3.6625Y-3.5425
X3.6625Y-3.5675
X3.6875Y-3.4675
X3.6875Y-3.4925
X3.6875Y-3.5175
X3.6875Y-3.5425
X3.6875Y-3.5675
X3.695Y-3.2125
X3.7125Y-3.4675
X3.7125Y-3.4925
X3.7125Y-3.5175
X3.7125Y-3.5425
X3.7125Y-3.5675
X3.7375Y-3.4675
X3.7375Y-3.4925
X3.7375Y-3.5175
X3.7375Y-3.5425
X3.7375Y-3.5675
X3.7625Y-3.4675
X3.7625Y-3.4925
X3.7625Y-3.5175
X3.7625Y-3.5425
X3.7625Y-3.5675
X3.8094Y-3.2317
X3.83Y-3.44
X3.8595Y-3.38
X3.8725Y-3.9575
X3.91Y-4.524
X3.9256Y-3.3026
X3.9256Y-3.3774
X3.93Y-3.1475
X3.965Y-3.23
X3.98Y-3.67
X3.995Y-3.4925
X4.0Y-3.195
X4.005Y-3.7
X4.045Y-3.67
X4.045Y-4.0
X4.055Y-3.2425
X4.0675Y-3.67
X4.0675Y-4.0
X4.0775Y-3.2425
X4.09Y-3.67
X4.09Y-4.0
X4.1Y-3.2425
X4.1158Y-2.9905
X4.1575Y-3.2525
X4.1575Y-3.275
X4.1575Y-3.2975
X4.1575Y-3.34
X4.1575Y-3.3625
X4.1575Y-3.385
X4.175Y-3.2025
X4.1897Y-3.0748
X4.1897Y-3.1102
X4.2075Y-3.0925
X4.2251Y-3.0748
X4.2251Y-3.1102
X4.235Y-3.2175
X4.245Y-4.47
X4.3025Y-2.9225
X4.3125Y-3.68
X4.3175Y-3.5625
X4.32Y-3.0475
X4.32Y-3.155
X4.3625Y-2.8675
X4.3625Y-3.5225
X4.3875Y-3.6475
X4.39Y-3.49
X4.43Y-3.4125
X4.4415Y-3.1983
X4.4775Y-4.335
X4.4825Y-3.1525
X4.4975Y-3.4815
X4.5325Y-3.1925
X4.56Y-3.275
X4.575Y-3.44
X4.59Y-4.36
X4.6045Y-3.38
X4.6069Y-3.1669
X4.6081Y-3.0901
X4.6375Y-2.965
X4.645Y-3.015
X4.6481Y-3.57
X4.6775Y-2.98
X4.6775Y-3.9775
X4.6775Y-4.0025
X4.6775Y-4.0275
X4.6775Y-4.0525
X4.7025Y-3.9775
X4.7025Y-4.0025
X4.7025Y-4.0275
X4.7025Y-4.0525
X4.7275Y-3.9775
X4.7275Y-4.0025
X4.7275Y-4.0275
X4.7275Y-4.0525
X4.7375Y-3.03
X4.7525Y-3.9775
X4.7525Y-4.0025
X4.7525Y-4.0275
X4.7525Y-4.0525
X4.755Y-2.6775
X4.76Y-3.03
X4.7825Y-3.03
X4.8025Y-3.355
X4.805Y-2.8125
X4.8075Y-4.5225
X4.81Y-4.335
X4.82Y-4.4275
X4.84Y-3.04
X4.84Y-3.0625
X4.84Y-3.085
X4.84Y-3.1275
X4.84Y-3.15
X4.84Y-3.1725
X4.8498Y-4.1456
X4.8498Y-4.1944
X4.8551Y-3.8242
X4.8551Y-3.9108
X4.86Y-2.9875
X4.8703Y-3.225
X4.8721Y-2.8623
X4.8721Y-2.8977
X4.8802Y-4.1456
X4.8802Y-4.1944
X4.89Y-2.88
X4.9075Y-2.8623
X4.9075Y-2.8977
X4.9175Y-3.01
X4.9425Y-3.985
X4.9675Y-4.195
X4.985Y-2.7075
X4.9925Y-2.955
X4.995Y-3.9825
X5.0025Y-2.8225
X5.0025Y-3.6675
X5.01Y-3.583
X5.0325Y-4.0575
X5.045Y-2.705
X5.045Y-3.73
X5.1175Y-2.98
X5.125Y-3.465
X5.125Y-3.57
X5.1461Y-3.0775
X5.205Y-2.7375
X5.205Y-3.46
X5.2125Y-3.7525
X5.2125Y-3.97
X5.2525Y-3.23
X5.2575Y-3.0525
X5.2795Y-3.1675
X5.305Y-3.865
X5.3125Y-3.5035
X5.3225Y-3.23
X5.325Y-3.1875
X5.413Y-2.8125
X5.413Y-2.9825
X5.435Y-2.905
X5.45Y-2.705
X5.45Y-2.8675
X5.472Y-2.8125
X5.472Y-2.9825
X5.59Y-4.455
X5.62Y-2.9675
X5.6675Y-2.9675
X5.6825Y-3.535
X5.71Y-3.1875
X5.7375Y-3.2075
X5.745Y-3.1725
X6.0025Y-3.335
X6.13Y-3.4075
X6.2075Y-3.44
X6.2325Y-4.37
X6.415Y-3.7025
X6.523Y-3.0575
X6.523Y-3.2275
X6.5475Y-3.155
X6.5475Y-2.9925
X6.5611Y-2.9439
X6.5625Y-3.115
X6.582Y-3.0575
X6.582Y-3.2275
X6.6451Y-3.8819
X6.66Y-4.0973
X6.66Y-4.1825
X6.6699Y-3.8599
X6.6985Y-4.1036
X6.7675Y-2.8275
X6.7725Y-3.515
X6.775Y-2.7125
X6.815Y-3.615
X6.8325Y-3.44
X6.8375Y-3.3425
X6.845Y-3.8125
X6.86Y-3.5125
X6.9Y-2.825
X6.905Y-3.8125
X6.915Y-3.7275
X6.93Y-3.2775
X6.9471Y-2.9896
X6.97Y-3.6031
X7.015Y-3.4325
X7.045Y-3.6031
X7.045Y-3.6819
X7.06Y-3.915
X7.105Y-2.715
X7.1225Y-3.9125
X7.1425Y-3.68
X7.19Y-3.735
X7.19Y-3.845
X7.2Y-3.615
X7.2025Y-3.64
X7.2125Y-3.4875
X7.2125Y-3.5475
X7.22Y-3.8625
X7.2225Y-3.025
X7.265Y-2.975
X7.2825Y-3.86
X7.285Y-3.6775
X7.3375Y-3.7025
X7.3425Y-3.295
X7.3575Y-3.7175
X7.42Y-2.9425
X7.44Y-3.1025
X7.4575Y-3.37
X7.4675Y-3.31
X7.47Y-3.0425
X7.47Y-3.0975
X7.4743Y-3.7136
X7.4936Y-4.0325
X7.5Y-3.31
X7.5075Y-3.7525
X7.5155Y-3.7183
X7.5226Y-3.3006
X7.525Y-2.8725
X7.535Y-3.06
X7.5425Y-3.2875
X7.5725Y-2.871
X7.595Y-3.06
X7.595Y-3.9925
X7.655Y-3.9925
X7.6551Y-3.3324
X7.7025Y-3.06
X7.755Y-3.2875
X7.76Y-2.8725
X7.7625Y-3.06
X7.77Y-3.9925
X7.7743Y-3.18
X7.7875Y-2.9175
X7.8018Y-2.801
X7.8225Y-3.285
X7.8275Y-3.005
X7.83Y-3.9925
X7.86Y-3.275
X7.895Y-3.005
X7.895Y-3.28
X7.93Y-2.82
X7.9325Y-3.5225
X7.945Y-3.3925
X7.95Y-2.845
X7.95Y-3.2725
X8.0025Y-3.2675
X8.0231Y-3.2431
X8.035Y-3.22
X8.0375Y-2.96
X8.0475Y-3.2
X8.0625Y-3.545
X8.0798Y-3.5603
X8.115Y-3.935
X8.115Y-3.995
X8.1675Y-2.7675
X8.21Y-3.485
X8.21Y-3.545
X8.22Y-3.935
X8.22Y-3.995
X8.225Y-3.005
X8.2925Y-3.424
X8.295Y-3.3825
X8.3059Y-3.3634
X8.31Y-3.405
X8.315Y-2.78
X8.3175Y-3.4425
X8.3202Y-3.4643
X8.325Y-3.935
X8.325Y-3.995
X8.33Y-3.5425
X8.33Y-3.5825
X8.33Y-3.6225
X8.33Y-3.6625
X8.3475Y-3.5225
X8.3475Y-3.5625
X8.3475Y-3.6025
X8.3475Y-3.6425
X8.3575Y-3.3449
X8.3625Y-3.3225
X8.3825Y-2.9675
X8.4Y-3.7025
X8.4075Y-3.4875
X8.42Y-3.29
X8.435Y-3.105
X8.4425Y-3.5925
X8.4675Y-3.2825
X8.47Y-3.1175
X8.47Y-3.1575
X8.47Y-3.1975
X8.47Y-3.2375
X8.4825Y-3.0975
X8.4825Y-3.1375
X8.4825Y-3.1775
X8.4825Y-3.2175
X8.4925Y-3.495
X8.515Y-2.698
X8.515Y-2.757
X8.5225Y-3.3025
X8.5375Y-2.9525
X8.5425Y-3.8425
X8.545Y-3.9575
X8.5575Y-3.28
X8.5675Y-3.8425
X8.57Y-3.9575
X8.5725Y-2.775
X8.578Y-3.3325
X8.6075Y-3.1875
X8.615Y-3.49
X8.615Y-3.53
X8.615Y-3.57
X8.6175Y-3.0675
X8.6178Y-3.671
X8.62Y-3.6325
X8.621Y-3.6081
X8.63Y-3.47
X8.63Y-3.51
X8.63Y-3.55
X8.63Y-3.6525
X8.6304Y-2.7272
X8.6309Y-3.5884
X8.6309Y-3.6895
X8.64Y-3.2825
X8.645Y-3.0925
X8.6625Y-4.2975
X8.6825Y-2.8831
X8.6825Y-2.9619
X8.685Y-3.44
X8.685Y-4.1625
X8.693Y-3.335
X8.6975Y-4.3725
X8.715Y-3.54
X8.7228Y-3.385
X8.725Y-2.7175
X8.735Y-4.3725
X8.7394Y-3.2362
X8.74Y-2.6975
X8.74Y-3.12
X8.74Y-3.1575
X8.74Y-3.1975
X8.7425Y-3.2625
X8.752Y-3.335
X8.7525Y-3.1775
X8.7525Y-3.2175
X8.7528Y-3.1379
X8.7575Y-2.8831
X8.775Y-3.445
X8.8125Y-4.23
X8.8125Y-4.3
X8.82Y-3.005
X8.8325Y-3.275
X8.86Y-4.3725
X8.8675Y-3.6125
X8.89Y-3.6075
X8.905Y-3.675
X8.9125Y-3.6125
X8.915Y-3.6425
X8.915Y-3.7025
X8.9275Y-3.3375
X9.01Y-3.6075
X9.04Y-3.9675
X9.04Y-4.0625
X9.0412Y-3.9975
X9.0412Y-4.03
X9.0425Y-3.65
X9.0425Y-3.6825
X9.0425Y-3.715
X9.0425Y-3.8075
X9.0425Y-3.84
X9.0425Y-3.8725
X9.0425Y-3.9025
X9.045Y-3.745
X9.055Y-3.37
X9.055Y-3.4
X9.055Y-3.43
X9.055Y-3.4625
X9.055Y-3.4925
X9.055Y-3.525
X9.055Y-3.5575
X9.055Y-3.5875
X9.0925Y-3.65
X9.1Y-3.21
X9.1Y-3.2425
X9.1Y-3.2725
X9.1Y-3.305
X9.1Y-3.335
X9.1075Y-3.6825
X9.1075Y-3.715
X9.1075Y-3.745
X9.1075Y-3.7775
X9.1075Y-3.8075
X9.1075Y-3.84
X9.1075Y-3.8725
X9.1075Y-3.9025
X9.1075Y-3.935
X9.1075Y-3.965
X9.1075Y-3.9975
X9.1075Y-4.0275
X9.1075Y-4.06
T2
X8.3675Y-4.1825
X8.3675Y-4.34
T3
X2.7675Y-4.07
X2.8675Y-4.07
X2.9675Y-4.07
X7.3125Y-2.72
X7.4125Y-2.72
X7.5125Y-2.72
X7.6125Y-2.72
X7.7125Y-2.72
X7.8125Y-2.72
X7.9125Y-2.72
X8.0125Y-2.72
X4.2475Y-2.71
X2.7675Y-4.4725
X2.8675Y-4.4725
X2.9675Y-4.4725
T4
X8.1566Y-2.6828
X8.1566Y-2.86
X8.4125Y-2.6828
X8.4125Y-2.86
T5
X9.0Y-3.0171
X9.0Y-4.1901
T3
G00X1.76Y-2.83
M15
G01X1.76Y-2.9088
M16
G05
G00X1.9844Y-2.7513
M15
G01X1.9056Y-2.7513
M16
G05
G00X1.9844Y-2.9875
M15
G01X1.9056Y-2.9875
M16
G05
T0
M30
