G04 #@! TF.GenerationSoftware,KiCad,Pcbnew,(5.1.4)-1*
G04 #@! TF.CreationDate,2020-10-18T13:54:02-05:00*
G04 #@! TF.ProjectId,VFD_Clock,5646445f-436c-46f6-936b-2e6b69636164,rev?*
G04 #@! TF.SameCoordinates,Original*
G04 #@! TF.FileFunction,Soldermask,Bot*
G04 #@! TF.FilePolarity,Negative*
%FSLAX46Y46*%
G04 Gerber Fmt 4.6, Leading zero omitted, Abs format (unit mm)*
G04 Created by KiCad (PCBNEW (5.1.4)-1) date 2020-10-18 13:54:02*
%MOMM*%
%LPD*%
G04 APERTURE LIST*
%ADD10C,0.010000*%
%ADD11C,0.100000*%
G04 APERTURE END LIST*
D10*
G36*
X93357059Y-67893460D02*
G01*
X93239455Y-67959895D01*
X93145977Y-68062545D01*
X93102188Y-68148624D01*
X93071578Y-68287114D01*
X93080679Y-68425091D01*
X93128027Y-68546584D01*
X93140412Y-68565350D01*
X93230851Y-68652908D01*
X93349729Y-68713053D01*
X93482667Y-68742918D01*
X93615287Y-68739634D01*
X93733210Y-68700332D01*
X93753994Y-68687744D01*
X93836263Y-68608894D01*
X93904086Y-68500270D01*
X93946253Y-68382795D01*
X93954600Y-68313299D01*
X93935326Y-68204075D01*
X93884810Y-68089610D01*
X93814018Y-67990658D01*
X93758358Y-67941795D01*
X93626139Y-67881376D01*
X93489163Y-67866276D01*
X93357059Y-67893460D01*
X93357059Y-67893460D01*
G37*
X93357059Y-67893460D02*
X93239455Y-67959895D01*
X93145977Y-68062545D01*
X93102188Y-68148624D01*
X93071578Y-68287114D01*
X93080679Y-68425091D01*
X93128027Y-68546584D01*
X93140412Y-68565350D01*
X93230851Y-68652908D01*
X93349729Y-68713053D01*
X93482667Y-68742918D01*
X93615287Y-68739634D01*
X93733210Y-68700332D01*
X93753994Y-68687744D01*
X93836263Y-68608894D01*
X93904086Y-68500270D01*
X93946253Y-68382795D01*
X93954600Y-68313299D01*
X93935326Y-68204075D01*
X93884810Y-68089610D01*
X93814018Y-67990658D01*
X93758358Y-67941795D01*
X93626139Y-67881376D01*
X93489163Y-67866276D01*
X93357059Y-67893460D01*
G36*
X93116400Y-70759545D02*
G01*
X93116179Y-71031028D01*
X93115417Y-71256118D01*
X93113974Y-71439221D01*
X93111706Y-71584740D01*
X93108469Y-71697083D01*
X93104122Y-71780655D01*
X93098520Y-71839859D01*
X93091522Y-71879103D01*
X93082984Y-71902792D01*
X93079108Y-71908895D01*
X93052822Y-71946443D01*
X93042109Y-71974585D01*
X93052290Y-71994674D01*
X93088688Y-72008063D01*
X93156624Y-72016105D01*
X93261422Y-72020153D01*
X93408402Y-72021560D01*
X93522800Y-72021700D01*
X93673082Y-72021015D01*
X93804273Y-72019108D01*
X93908573Y-72016202D01*
X93978181Y-72012517D01*
X94005295Y-72008276D01*
X94005400Y-72007988D01*
X93994845Y-71978954D01*
X93968274Y-71922009D01*
X93954600Y-71894700D01*
X93941734Y-71867260D01*
X93931241Y-71836894D01*
X93922880Y-71798420D01*
X93916409Y-71746655D01*
X93911589Y-71676418D01*
X93908178Y-71582527D01*
X93905935Y-71459801D01*
X93904619Y-71303059D01*
X93903990Y-71107117D01*
X93903805Y-70866796D01*
X93903800Y-70802250D01*
X93904053Y-70544769D01*
X93904929Y-70333249D01*
X93906604Y-70162851D01*
X93909252Y-70028738D01*
X93913050Y-69926071D01*
X93918173Y-69850013D01*
X93924797Y-69795726D01*
X93933097Y-69758372D01*
X93942553Y-69734438D01*
X93981305Y-69659500D01*
X93116400Y-69659500D01*
X93116400Y-70759545D01*
X93116400Y-70759545D01*
G37*
X93116400Y-70759545D02*
X93116179Y-71031028D01*
X93115417Y-71256118D01*
X93113974Y-71439221D01*
X93111706Y-71584740D01*
X93108469Y-71697083D01*
X93104122Y-71780655D01*
X93098520Y-71839859D01*
X93091522Y-71879103D01*
X93082984Y-71902792D01*
X93079108Y-71908895D01*
X93052822Y-71946443D01*
X93042109Y-71974585D01*
X93052290Y-71994674D01*
X93088688Y-72008063D01*
X93156624Y-72016105D01*
X93261422Y-72020153D01*
X93408402Y-72021560D01*
X93522800Y-72021700D01*
X93673082Y-72021015D01*
X93804273Y-72019108D01*
X93908573Y-72016202D01*
X93978181Y-72012517D01*
X94005295Y-72008276D01*
X94005400Y-72007988D01*
X93994845Y-71978954D01*
X93968274Y-71922009D01*
X93954600Y-71894700D01*
X93941734Y-71867260D01*
X93931241Y-71836894D01*
X93922880Y-71798420D01*
X93916409Y-71746655D01*
X93911589Y-71676418D01*
X93908178Y-71582527D01*
X93905935Y-71459801D01*
X93904619Y-71303059D01*
X93903990Y-71107117D01*
X93903805Y-70866796D01*
X93903800Y-70802250D01*
X93904053Y-70544769D01*
X93904929Y-70333249D01*
X93906604Y-70162851D01*
X93909252Y-70028738D01*
X93913050Y-69926071D01*
X93918173Y-69850013D01*
X93924797Y-69795726D01*
X93933097Y-69758372D01*
X93942553Y-69734438D01*
X93981305Y-69659500D01*
X93116400Y-69659500D01*
X93116400Y-70759545D01*
G36*
X94699253Y-68795900D02*
G01*
X94153941Y-68795900D01*
X94352721Y-68997287D01*
X94682429Y-69360191D01*
X94896849Y-69634315D01*
X94975297Y-69737900D01*
X95069856Y-69858029D01*
X95169950Y-69981702D01*
X95265002Y-70095919D01*
X95344434Y-70187681D01*
X95369532Y-70215260D01*
X95450964Y-70302712D01*
X95381006Y-70393856D01*
X95245564Y-70583104D01*
X95158022Y-70722550D01*
X95103152Y-70804786D01*
X95041876Y-70884112D01*
X95036727Y-70890107D01*
X94967778Y-70973081D01*
X94887253Y-71075637D01*
X94804058Y-71185788D01*
X94727098Y-71291547D01*
X94665281Y-71380925D01*
X94629624Y-71438047D01*
X94594543Y-71491096D01*
X94536014Y-71569562D01*
X94464180Y-71660752D01*
X94389185Y-71751972D01*
X94321172Y-71830532D01*
X94284800Y-71869520D01*
X94260911Y-71895581D01*
X94218637Y-71942906D01*
X94210523Y-71952070D01*
X94148945Y-72021700D01*
X95275400Y-72021700D01*
X95275400Y-71943423D01*
X95292163Y-71866895D01*
X95339393Y-71761649D01*
X95412507Y-71635739D01*
X95506919Y-71497216D01*
X95594458Y-71383033D01*
X95665732Y-71290813D01*
X95731053Y-71199769D01*
X95778223Y-71127035D01*
X95784329Y-71116333D01*
X95824371Y-71049934D01*
X95859658Y-71001784D01*
X95868301Y-70993000D01*
X95902862Y-70954316D01*
X95943085Y-70897750D01*
X95980774Y-70849593D01*
X96011285Y-70827987D01*
X96012586Y-70827900D01*
X96021462Y-70852591D01*
X96028582Y-70923881D01*
X96033736Y-71037592D01*
X96036717Y-71189544D01*
X96037400Y-71324461D01*
X96036716Y-71503763D01*
X96034305Y-71639770D01*
X96029625Y-71739975D01*
X96022137Y-71811869D01*
X96011302Y-71862943D01*
X95996579Y-71900688D01*
X95995756Y-71902311D01*
X95960283Y-71961991D01*
X95928777Y-72000118D01*
X95925906Y-72002261D01*
X95941403Y-72007823D01*
X96000753Y-72012762D01*
X96097014Y-72016812D01*
X96223241Y-72019707D01*
X96372489Y-72021182D01*
X96424206Y-72021311D01*
X96950711Y-72021700D01*
X96921032Y-71951850D01*
X96892859Y-71893258D01*
X96870776Y-71857870D01*
X96866943Y-71828642D01*
X96863343Y-71753281D01*
X96860041Y-71636451D01*
X96857104Y-71482817D01*
X96854601Y-71297046D01*
X96852596Y-71083802D01*
X96851158Y-70847751D01*
X96850353Y-70593559D01*
X96850201Y-70421790D01*
X96850259Y-70117811D01*
X96850530Y-69860412D01*
X96851154Y-69645374D01*
X96852274Y-69468478D01*
X96854031Y-69325504D01*
X96856567Y-69212233D01*
X96860024Y-69124445D01*
X96864543Y-69057921D01*
X96870267Y-69008441D01*
X96877338Y-68971786D01*
X96885896Y-68943737D01*
X96896084Y-68920074D01*
X96901001Y-68910199D01*
X96931756Y-68848369D01*
X96949810Y-68809160D01*
X96951801Y-68803229D01*
X96927665Y-68801007D01*
X96860312Y-68799056D01*
X96757328Y-68797484D01*
X96626294Y-68796401D01*
X96474795Y-68795915D01*
X96441083Y-68795900D01*
X96267940Y-68796164D01*
X96139371Y-68797331D01*
X96049154Y-68799964D01*
X95991063Y-68804623D01*
X95958876Y-68811872D01*
X95946368Y-68822272D01*
X95947314Y-68836385D01*
X95948836Y-68840350D01*
X95982195Y-68929173D01*
X96006261Y-69017681D01*
X96022420Y-69116641D01*
X96032058Y-69236821D01*
X96036560Y-69388988D01*
X96037400Y-69528588D01*
X96037401Y-69948404D01*
X95961201Y-69875400D01*
X95913587Y-69825057D01*
X95887006Y-69787778D01*
X95885000Y-69780983D01*
X95869863Y-69755050D01*
X95830372Y-69701628D01*
X95775412Y-69631645D01*
X95713868Y-69556029D01*
X95654623Y-69485709D01*
X95606561Y-69431614D01*
X95579761Y-69405500D01*
X95557439Y-69378234D01*
X95519064Y-69322130D01*
X95491198Y-69278500D01*
X95432995Y-69190798D01*
X95370049Y-69104198D01*
X95347701Y-69075862D01*
X95302987Y-69009236D01*
X95277592Y-68948143D01*
X95275400Y-68931890D01*
X95274878Y-68888177D01*
X95269209Y-68855002D01*
X95252238Y-68830912D01*
X95217811Y-68814455D01*
X95159774Y-68804177D01*
X95071972Y-68798627D01*
X94948250Y-68796351D01*
X94782455Y-68795896D01*
X94699253Y-68795900D01*
X94699253Y-68795900D01*
G37*
X94699253Y-68795900D02*
X94153941Y-68795900D01*
X94352721Y-68997287D01*
X94682429Y-69360191D01*
X94896849Y-69634315D01*
X94975297Y-69737900D01*
X95069856Y-69858029D01*
X95169950Y-69981702D01*
X95265002Y-70095919D01*
X95344434Y-70187681D01*
X95369532Y-70215260D01*
X95450964Y-70302712D01*
X95381006Y-70393856D01*
X95245564Y-70583104D01*
X95158022Y-70722550D01*
X95103152Y-70804786D01*
X95041876Y-70884112D01*
X95036727Y-70890107D01*
X94967778Y-70973081D01*
X94887253Y-71075637D01*
X94804058Y-71185788D01*
X94727098Y-71291547D01*
X94665281Y-71380925D01*
X94629624Y-71438047D01*
X94594543Y-71491096D01*
X94536014Y-71569562D01*
X94464180Y-71660752D01*
X94389185Y-71751972D01*
X94321172Y-71830532D01*
X94284800Y-71869520D01*
X94260911Y-71895581D01*
X94218637Y-71942906D01*
X94210523Y-71952070D01*
X94148945Y-72021700D01*
X95275400Y-72021700D01*
X95275400Y-71943423D01*
X95292163Y-71866895D01*
X95339393Y-71761649D01*
X95412507Y-71635739D01*
X95506919Y-71497216D01*
X95594458Y-71383033D01*
X95665732Y-71290813D01*
X95731053Y-71199769D01*
X95778223Y-71127035D01*
X95784329Y-71116333D01*
X95824371Y-71049934D01*
X95859658Y-71001784D01*
X95868301Y-70993000D01*
X95902862Y-70954316D01*
X95943085Y-70897750D01*
X95980774Y-70849593D01*
X96011285Y-70827987D01*
X96012586Y-70827900D01*
X96021462Y-70852591D01*
X96028582Y-70923881D01*
X96033736Y-71037592D01*
X96036717Y-71189544D01*
X96037400Y-71324461D01*
X96036716Y-71503763D01*
X96034305Y-71639770D01*
X96029625Y-71739975D01*
X96022137Y-71811869D01*
X96011302Y-71862943D01*
X95996579Y-71900688D01*
X95995756Y-71902311D01*
X95960283Y-71961991D01*
X95928777Y-72000118D01*
X95925906Y-72002261D01*
X95941403Y-72007823D01*
X96000753Y-72012762D01*
X96097014Y-72016812D01*
X96223241Y-72019707D01*
X96372489Y-72021182D01*
X96424206Y-72021311D01*
X96950711Y-72021700D01*
X96921032Y-71951850D01*
X96892859Y-71893258D01*
X96870776Y-71857870D01*
X96866943Y-71828642D01*
X96863343Y-71753281D01*
X96860041Y-71636451D01*
X96857104Y-71482817D01*
X96854601Y-71297046D01*
X96852596Y-71083802D01*
X96851158Y-70847751D01*
X96850353Y-70593559D01*
X96850201Y-70421790D01*
X96850259Y-70117811D01*
X96850530Y-69860412D01*
X96851154Y-69645374D01*
X96852274Y-69468478D01*
X96854031Y-69325504D01*
X96856567Y-69212233D01*
X96860024Y-69124445D01*
X96864543Y-69057921D01*
X96870267Y-69008441D01*
X96877338Y-68971786D01*
X96885896Y-68943737D01*
X96896084Y-68920074D01*
X96901001Y-68910199D01*
X96931756Y-68848369D01*
X96949810Y-68809160D01*
X96951801Y-68803229D01*
X96927665Y-68801007D01*
X96860312Y-68799056D01*
X96757328Y-68797484D01*
X96626294Y-68796401D01*
X96474795Y-68795915D01*
X96441083Y-68795900D01*
X96267940Y-68796164D01*
X96139371Y-68797331D01*
X96049154Y-68799964D01*
X95991063Y-68804623D01*
X95958876Y-68811872D01*
X95946368Y-68822272D01*
X95947314Y-68836385D01*
X95948836Y-68840350D01*
X95982195Y-68929173D01*
X96006261Y-69017681D01*
X96022420Y-69116641D01*
X96032058Y-69236821D01*
X96036560Y-69388988D01*
X96037400Y-69528588D01*
X96037401Y-69948404D01*
X95961201Y-69875400D01*
X95913587Y-69825057D01*
X95887006Y-69787778D01*
X95885000Y-69780983D01*
X95869863Y-69755050D01*
X95830372Y-69701628D01*
X95775412Y-69631645D01*
X95713868Y-69556029D01*
X95654623Y-69485709D01*
X95606561Y-69431614D01*
X95579761Y-69405500D01*
X95557439Y-69378234D01*
X95519064Y-69322130D01*
X95491198Y-69278500D01*
X95432995Y-69190798D01*
X95370049Y-69104198D01*
X95347701Y-69075862D01*
X95302987Y-69009236D01*
X95277592Y-68948143D01*
X95275400Y-68931890D01*
X95274878Y-68888177D01*
X95269209Y-68855002D01*
X95252238Y-68830912D01*
X95217811Y-68814455D01*
X95159774Y-68804177D01*
X95071972Y-68798627D01*
X94948250Y-68796351D01*
X94782455Y-68795896D01*
X94699253Y-68795900D01*
G36*
X40331572Y-88794322D02*
G01*
X39778214Y-88804338D01*
X39768486Y-89666124D01*
X39765034Y-89907518D01*
X39760562Y-90122818D01*
X39755391Y-90302055D01*
X39749844Y-90435262D01*
X39744242Y-90512470D01*
X39740658Y-90527910D01*
X39710525Y-90504421D01*
X39632834Y-90437601D01*
X39513745Y-90332918D01*
X39359413Y-90195839D01*
X39175998Y-90031832D01*
X38969656Y-89846366D01*
X38759968Y-89657053D01*
X37797378Y-88786195D01*
X37070272Y-88786195D01*
X36838140Y-88787752D01*
X36641453Y-88792142D01*
X36489320Y-88798949D01*
X36390851Y-88807754D01*
X36355157Y-88818141D01*
X36355262Y-88818966D01*
X36384903Y-88849130D01*
X36463867Y-88920416D01*
X36585834Y-89027359D01*
X36744483Y-89164494D01*
X36933494Y-89326356D01*
X37146546Y-89507480D01*
X37365214Y-89692207D01*
X37594916Y-89886195D01*
X37806341Y-90065739D01*
X37993217Y-90225438D01*
X38149272Y-90359888D01*
X38268235Y-90463689D01*
X38343833Y-90531436D01*
X38369779Y-90557508D01*
X38343749Y-90583527D01*
X38267940Y-90649237D01*
X38149261Y-90749018D01*
X37994622Y-90877248D01*
X37810931Y-91028308D01*
X37605097Y-91196576D01*
X37384029Y-91376432D01*
X37154636Y-91562255D01*
X36923827Y-91748424D01*
X36698510Y-91929320D01*
X36485595Y-92099320D01*
X36291991Y-92252805D01*
X36124606Y-92384154D01*
X36121280Y-92386746D01*
X36098593Y-92406910D01*
X36094348Y-92422231D01*
X36116412Y-92433385D01*
X36172648Y-92441047D01*
X36270922Y-92445893D01*
X36419099Y-92448596D01*
X36625044Y-92449833D01*
X36860958Y-92450246D01*
X37681131Y-92451052D01*
X39741929Y-90576400D01*
X39761277Y-92451052D01*
X40884929Y-92451052D01*
X40884929Y-88784305D01*
X40331572Y-88794322D01*
X40331572Y-88794322D01*
G37*
X40331572Y-88794322D02*
X39778214Y-88804338D01*
X39768486Y-89666124D01*
X39765034Y-89907518D01*
X39760562Y-90122818D01*
X39755391Y-90302055D01*
X39749844Y-90435262D01*
X39744242Y-90512470D01*
X39740658Y-90527910D01*
X39710525Y-90504421D01*
X39632834Y-90437601D01*
X39513745Y-90332918D01*
X39359413Y-90195839D01*
X39175998Y-90031832D01*
X38969656Y-89846366D01*
X38759968Y-89657053D01*
X37797378Y-88786195D01*
X37070272Y-88786195D01*
X36838140Y-88787752D01*
X36641453Y-88792142D01*
X36489320Y-88798949D01*
X36390851Y-88807754D01*
X36355157Y-88818141D01*
X36355262Y-88818966D01*
X36384903Y-88849130D01*
X36463867Y-88920416D01*
X36585834Y-89027359D01*
X36744483Y-89164494D01*
X36933494Y-89326356D01*
X37146546Y-89507480D01*
X37365214Y-89692207D01*
X37594916Y-89886195D01*
X37806341Y-90065739D01*
X37993217Y-90225438D01*
X38149272Y-90359888D01*
X38268235Y-90463689D01*
X38343833Y-90531436D01*
X38369779Y-90557508D01*
X38343749Y-90583527D01*
X38267940Y-90649237D01*
X38149261Y-90749018D01*
X37994622Y-90877248D01*
X37810931Y-91028308D01*
X37605097Y-91196576D01*
X37384029Y-91376432D01*
X37154636Y-91562255D01*
X36923827Y-91748424D01*
X36698510Y-91929320D01*
X36485595Y-92099320D01*
X36291991Y-92252805D01*
X36124606Y-92384154D01*
X36121280Y-92386746D01*
X36098593Y-92406910D01*
X36094348Y-92422231D01*
X36116412Y-92433385D01*
X36172648Y-92441047D01*
X36270922Y-92445893D01*
X36419099Y-92448596D01*
X36625044Y-92449833D01*
X36860958Y-92450246D01*
X37681131Y-92451052D01*
X39741929Y-90576400D01*
X39761277Y-92451052D01*
X40884929Y-92451052D01*
X40884929Y-88784305D01*
X40331572Y-88794322D01*
G36*
X41281838Y-89698285D02*
G01*
X42875506Y-89698285D01*
X43258344Y-89698431D01*
X43575259Y-89699048D01*
X43832896Y-89700403D01*
X44037904Y-89702766D01*
X44196930Y-89706405D01*
X44316621Y-89711588D01*
X44403624Y-89718584D01*
X44464586Y-89727660D01*
X44506155Y-89739086D01*
X44534978Y-89753129D01*
X44552799Y-89766000D01*
X44585092Y-89796035D01*
X44608306Y-89833556D01*
X44624407Y-89890754D01*
X44635360Y-89979824D01*
X44643132Y-90112956D01*
X44649689Y-90302344D01*
X44651971Y-90380996D01*
X44655869Y-90600886D01*
X44655691Y-90821199D01*
X44651716Y-91019535D01*
X44644220Y-91173490D01*
X44641776Y-91202985D01*
X44634621Y-91290489D01*
X44626926Y-91363552D01*
X44612594Y-91423469D01*
X44585527Y-91471539D01*
X44539627Y-91509059D01*
X44468798Y-91537328D01*
X44366942Y-91557642D01*
X44227962Y-91571300D01*
X44045761Y-91579599D01*
X43814240Y-91583836D01*
X43527303Y-91585311D01*
X43178853Y-91585319D01*
X42846159Y-91585142D01*
X41284072Y-91585142D01*
X41284072Y-92455999D01*
X42980429Y-92452024D01*
X43329774Y-92450595D01*
X43661071Y-92448070D01*
X43966381Y-92444593D01*
X44237767Y-92440308D01*
X44467290Y-92435358D01*
X44647013Y-92429885D01*
X44768996Y-92424034D01*
X44821929Y-92418758D01*
X45081106Y-92343059D01*
X45282678Y-92229776D01*
X45433937Y-92073810D01*
X45514908Y-91934103D01*
X45539503Y-91879379D01*
X45558928Y-91826832D01*
X45573796Y-91767474D01*
X45584716Y-91692313D01*
X45592299Y-91592361D01*
X45597158Y-91458626D01*
X45599902Y-91282120D01*
X45601143Y-91053851D01*
X45601492Y-90764831D01*
X45601515Y-90659857D01*
X45600114Y-90309794D01*
X45595915Y-90009811D01*
X45589081Y-89764897D01*
X45579771Y-89580040D01*
X45568150Y-89460229D01*
X45561486Y-89426142D01*
X45483600Y-89263128D01*
X45350927Y-89107844D01*
X45180781Y-88976282D01*
X44990474Y-88884437D01*
X44966738Y-88876731D01*
X44910927Y-88861162D01*
X44849475Y-88848199D01*
X44775509Y-88837606D01*
X44682155Y-88829144D01*
X44562541Y-88822577D01*
X44409793Y-88817667D01*
X44217040Y-88814176D01*
X43977407Y-88811868D01*
X43684023Y-88810504D01*
X43330014Y-88809848D01*
X43025786Y-88809678D01*
X41302214Y-88809285D01*
X41281838Y-89698285D01*
X41281838Y-89698285D01*
G37*
X41281838Y-89698285D02*
X42875506Y-89698285D01*
X43258344Y-89698431D01*
X43575259Y-89699048D01*
X43832896Y-89700403D01*
X44037904Y-89702766D01*
X44196930Y-89706405D01*
X44316621Y-89711588D01*
X44403624Y-89718584D01*
X44464586Y-89727660D01*
X44506155Y-89739086D01*
X44534978Y-89753129D01*
X44552799Y-89766000D01*
X44585092Y-89796035D01*
X44608306Y-89833556D01*
X44624407Y-89890754D01*
X44635360Y-89979824D01*
X44643132Y-90112956D01*
X44649689Y-90302344D01*
X44651971Y-90380996D01*
X44655869Y-90600886D01*
X44655691Y-90821199D01*
X44651716Y-91019535D01*
X44644220Y-91173490D01*
X44641776Y-91202985D01*
X44634621Y-91290489D01*
X44626926Y-91363552D01*
X44612594Y-91423469D01*
X44585527Y-91471539D01*
X44539627Y-91509059D01*
X44468798Y-91537328D01*
X44366942Y-91557642D01*
X44227962Y-91571300D01*
X44045761Y-91579599D01*
X43814240Y-91583836D01*
X43527303Y-91585311D01*
X43178853Y-91585319D01*
X42846159Y-91585142D01*
X41284072Y-91585142D01*
X41284072Y-92455999D01*
X42980429Y-92452024D01*
X43329774Y-92450595D01*
X43661071Y-92448070D01*
X43966381Y-92444593D01*
X44237767Y-92440308D01*
X44467290Y-92435358D01*
X44647013Y-92429885D01*
X44768996Y-92424034D01*
X44821929Y-92418758D01*
X45081106Y-92343059D01*
X45282678Y-92229776D01*
X45433937Y-92073810D01*
X45514908Y-91934103D01*
X45539503Y-91879379D01*
X45558928Y-91826832D01*
X45573796Y-91767474D01*
X45584716Y-91692313D01*
X45592299Y-91592361D01*
X45597158Y-91458626D01*
X45599902Y-91282120D01*
X45601143Y-91053851D01*
X45601492Y-90764831D01*
X45601515Y-90659857D01*
X45600114Y-90309794D01*
X45595915Y-90009811D01*
X45589081Y-89764897D01*
X45579771Y-89580040D01*
X45568150Y-89460229D01*
X45561486Y-89426142D01*
X45483600Y-89263128D01*
X45350927Y-89107844D01*
X45180781Y-88976282D01*
X44990474Y-88884437D01*
X44966738Y-88876731D01*
X44910927Y-88861162D01*
X44849475Y-88848199D01*
X44775509Y-88837606D01*
X44682155Y-88829144D01*
X44562541Y-88822577D01*
X44409793Y-88817667D01*
X44217040Y-88814176D01*
X43977407Y-88811868D01*
X43684023Y-88810504D01*
X43330014Y-88809848D01*
X43025786Y-88809678D01*
X41302214Y-88809285D01*
X41281838Y-89698285D01*
G36*
X48052994Y-88806436D02*
G01*
X47709442Y-88807664D01*
X47424592Y-88810688D01*
X47191510Y-88816311D01*
X47003262Y-88825331D01*
X46852913Y-88838551D01*
X46733528Y-88856771D01*
X46638173Y-88880791D01*
X46559915Y-88911413D01*
X46491817Y-88949437D01*
X46426947Y-88995664D01*
X46360846Y-89048852D01*
X46289189Y-89110246D01*
X46231260Y-89169653D01*
X46185593Y-89235283D01*
X46150724Y-89315349D01*
X46125190Y-89418061D01*
X46107526Y-89551631D01*
X46096268Y-89724271D01*
X46089952Y-89944193D01*
X46087113Y-90219607D01*
X46086288Y-90558725D01*
X46086265Y-90588741D01*
X46086771Y-90873212D01*
X46088586Y-91138644D01*
X46091538Y-91375143D01*
X46095455Y-91572816D01*
X46100165Y-91721767D01*
X46105496Y-91812104D01*
X46107825Y-91829918D01*
X46155135Y-91943515D01*
X46245030Y-92072485D01*
X46358424Y-92193948D01*
X46476232Y-92285022D01*
X46497324Y-92296890D01*
X46583407Y-92338144D01*
X46674127Y-92371951D01*
X46777730Y-92399140D01*
X46902462Y-92420541D01*
X47056566Y-92436982D01*
X47248290Y-92449294D01*
X47485878Y-92458304D01*
X47777574Y-92464842D01*
X48131625Y-92469737D01*
X48226325Y-92470754D01*
X48532630Y-92472944D01*
X48829881Y-92473260D01*
X49106599Y-92471824D01*
X49351307Y-92468758D01*
X49552528Y-92464186D01*
X49698782Y-92458228D01*
X49750325Y-92454529D01*
X49959605Y-92432126D01*
X50116298Y-92407074D01*
X50240363Y-92374828D01*
X50351759Y-92330842D01*
X50403468Y-92305807D01*
X50541863Y-92213858D01*
X50671753Y-92090424D01*
X50769944Y-91959383D01*
X50800385Y-91897200D01*
X50812049Y-91828155D01*
X50821720Y-91690758D01*
X50829273Y-91489205D01*
X50834583Y-91227692D01*
X50837527Y-90910415D01*
X50838100Y-90627200D01*
X50837428Y-90277394D01*
X50835004Y-89992106D01*
X50829427Y-89763284D01*
X50828781Y-89751777D01*
X49804754Y-89751777D01*
X49804754Y-91489205D01*
X49714039Y-91535853D01*
X49670478Y-91549269D01*
X49593750Y-91559710D01*
X49477486Y-91567359D01*
X49315316Y-91572401D01*
X49100868Y-91575020D01*
X48827774Y-91575399D01*
X48489661Y-91573723D01*
X48420586Y-91573210D01*
X48092003Y-91570448D01*
X47828259Y-91567461D01*
X47621621Y-91563776D01*
X47464356Y-91558919D01*
X47348733Y-91552415D01*
X47267018Y-91543791D01*
X47211480Y-91532573D01*
X47174386Y-91518287D01*
X47148003Y-91500457D01*
X47141515Y-91494796D01*
X47116663Y-91469180D01*
X47097881Y-91436887D01*
X47084322Y-91388221D01*
X47075137Y-91313489D01*
X47069479Y-91202995D01*
X47066499Y-91047044D01*
X47065352Y-90835942D01*
X47065182Y-90621802D01*
X47066119Y-90345234D01*
X47069267Y-90132664D01*
X47075128Y-89975541D01*
X47084206Y-89865313D01*
X47097005Y-89793427D01*
X47114028Y-89751332D01*
X47116653Y-89747498D01*
X47133715Y-89728465D01*
X47159171Y-89713109D01*
X47200520Y-89700962D01*
X47265260Y-89691556D01*
X47360891Y-89684424D01*
X47494912Y-89679099D01*
X47674822Y-89675113D01*
X47908120Y-89671999D01*
X48202305Y-89669290D01*
X48395724Y-89667781D01*
X48749971Y-89665761D01*
X49037977Y-89665710D01*
X49266054Y-89667808D01*
X49440512Y-89672232D01*
X49567661Y-89679161D01*
X49653809Y-89688775D01*
X49705269Y-89701252D01*
X49714039Y-89705138D01*
X49804754Y-89751777D01*
X50828781Y-89751777D01*
X50819297Y-89582877D01*
X50803212Y-89442830D01*
X50779771Y-89335093D01*
X50747574Y-89251614D01*
X50705221Y-89184339D01*
X50651309Y-89125217D01*
X50584438Y-89066196D01*
X50563518Y-89048852D01*
X50495181Y-88993942D01*
X50430315Y-88948008D01*
X50361985Y-88910250D01*
X50283257Y-88879867D01*
X50187196Y-88856058D01*
X50066869Y-88838022D01*
X49915340Y-88824959D01*
X49725675Y-88816067D01*
X49490940Y-88810547D01*
X49204201Y-88807597D01*
X48858522Y-88806417D01*
X48462182Y-88806205D01*
X48052994Y-88806436D01*
X48052994Y-88806436D01*
G37*
X48052994Y-88806436D02*
X47709442Y-88807664D01*
X47424592Y-88810688D01*
X47191510Y-88816311D01*
X47003262Y-88825331D01*
X46852913Y-88838551D01*
X46733528Y-88856771D01*
X46638173Y-88880791D01*
X46559915Y-88911413D01*
X46491817Y-88949437D01*
X46426947Y-88995664D01*
X46360846Y-89048852D01*
X46289189Y-89110246D01*
X46231260Y-89169653D01*
X46185593Y-89235283D01*
X46150724Y-89315349D01*
X46125190Y-89418061D01*
X46107526Y-89551631D01*
X46096268Y-89724271D01*
X46089952Y-89944193D01*
X46087113Y-90219607D01*
X46086288Y-90558725D01*
X46086265Y-90588741D01*
X46086771Y-90873212D01*
X46088586Y-91138644D01*
X46091538Y-91375143D01*
X46095455Y-91572816D01*
X46100165Y-91721767D01*
X46105496Y-91812104D01*
X46107825Y-91829918D01*
X46155135Y-91943515D01*
X46245030Y-92072485D01*
X46358424Y-92193948D01*
X46476232Y-92285022D01*
X46497324Y-92296890D01*
X46583407Y-92338144D01*
X46674127Y-92371951D01*
X46777730Y-92399140D01*
X46902462Y-92420541D01*
X47056566Y-92436982D01*
X47248290Y-92449294D01*
X47485878Y-92458304D01*
X47777574Y-92464842D01*
X48131625Y-92469737D01*
X48226325Y-92470754D01*
X48532630Y-92472944D01*
X48829881Y-92473260D01*
X49106599Y-92471824D01*
X49351307Y-92468758D01*
X49552528Y-92464186D01*
X49698782Y-92458228D01*
X49750325Y-92454529D01*
X49959605Y-92432126D01*
X50116298Y-92407074D01*
X50240363Y-92374828D01*
X50351759Y-92330842D01*
X50403468Y-92305807D01*
X50541863Y-92213858D01*
X50671753Y-92090424D01*
X50769944Y-91959383D01*
X50800385Y-91897200D01*
X50812049Y-91828155D01*
X50821720Y-91690758D01*
X50829273Y-91489205D01*
X50834583Y-91227692D01*
X50837527Y-90910415D01*
X50838100Y-90627200D01*
X50837428Y-90277394D01*
X50835004Y-89992106D01*
X50829427Y-89763284D01*
X50828781Y-89751777D01*
X49804754Y-89751777D01*
X49804754Y-91489205D01*
X49714039Y-91535853D01*
X49670478Y-91549269D01*
X49593750Y-91559710D01*
X49477486Y-91567359D01*
X49315316Y-91572401D01*
X49100868Y-91575020D01*
X48827774Y-91575399D01*
X48489661Y-91573723D01*
X48420586Y-91573210D01*
X48092003Y-91570448D01*
X47828259Y-91567461D01*
X47621621Y-91563776D01*
X47464356Y-91558919D01*
X47348733Y-91552415D01*
X47267018Y-91543791D01*
X47211480Y-91532573D01*
X47174386Y-91518287D01*
X47148003Y-91500457D01*
X47141515Y-91494796D01*
X47116663Y-91469180D01*
X47097881Y-91436887D01*
X47084322Y-91388221D01*
X47075137Y-91313489D01*
X47069479Y-91202995D01*
X47066499Y-91047044D01*
X47065352Y-90835942D01*
X47065182Y-90621802D01*
X47066119Y-90345234D01*
X47069267Y-90132664D01*
X47075128Y-89975541D01*
X47084206Y-89865313D01*
X47097005Y-89793427D01*
X47114028Y-89751332D01*
X47116653Y-89747498D01*
X47133715Y-89728465D01*
X47159171Y-89713109D01*
X47200520Y-89700962D01*
X47265260Y-89691556D01*
X47360891Y-89684424D01*
X47494912Y-89679099D01*
X47674822Y-89675113D01*
X47908120Y-89671999D01*
X48202305Y-89669290D01*
X48395724Y-89667781D01*
X48749971Y-89665761D01*
X49037977Y-89665710D01*
X49266054Y-89667808D01*
X49440512Y-89672232D01*
X49567661Y-89679161D01*
X49653809Y-89688775D01*
X49705269Y-89701252D01*
X49714039Y-89705138D01*
X49804754Y-89751777D01*
X50828781Y-89751777D01*
X50819297Y-89582877D01*
X50803212Y-89442830D01*
X50779771Y-89335093D01*
X50747574Y-89251614D01*
X50705221Y-89184339D01*
X50651309Y-89125217D01*
X50584438Y-89066196D01*
X50563518Y-89048852D01*
X50495181Y-88993942D01*
X50430315Y-88948008D01*
X50361985Y-88910250D01*
X50283257Y-88879867D01*
X50187196Y-88856058D01*
X50066869Y-88838022D01*
X49915340Y-88824959D01*
X49725675Y-88816067D01*
X49490940Y-88810547D01*
X49204201Y-88807597D01*
X48858522Y-88806417D01*
X48462182Y-88806205D01*
X48052994Y-88806436D01*
G36*
X53606700Y-90195400D02*
G01*
X53597197Y-91583328D01*
X51130631Y-91583328D01*
X51130631Y-92454185D01*
X54759874Y-92454185D01*
X54741060Y-88807471D01*
X53616203Y-88807471D01*
X53606700Y-90195400D01*
X53606700Y-90195400D01*
G37*
X53606700Y-90195400D02*
X53597197Y-91583328D01*
X51130631Y-91583328D01*
X51130631Y-92454185D01*
X54759874Y-92454185D01*
X54741060Y-88807471D01*
X53616203Y-88807471D01*
X53606700Y-90195400D01*
G36*
X55080598Y-89243154D02*
G01*
X55070409Y-89687654D01*
X56664078Y-89687654D01*
X57046916Y-89687800D01*
X57363830Y-89688417D01*
X57621468Y-89689772D01*
X57826476Y-89692135D01*
X57985501Y-89695774D01*
X58105192Y-89700957D01*
X58192195Y-89707953D01*
X58253158Y-89717029D01*
X58294727Y-89728455D01*
X58323550Y-89742498D01*
X58341371Y-89755369D01*
X58373664Y-89785404D01*
X58396878Y-89822925D01*
X58412978Y-89880123D01*
X58423932Y-89969193D01*
X58431704Y-90102325D01*
X58438261Y-90291713D01*
X58440542Y-90370365D01*
X58444440Y-90590255D01*
X58444263Y-90810568D01*
X58440287Y-91008904D01*
X58432792Y-91162859D01*
X58430347Y-91192354D01*
X58423193Y-91279858D01*
X58415498Y-91352921D01*
X58401165Y-91412838D01*
X58374098Y-91460908D01*
X58328199Y-91498428D01*
X58257370Y-91526697D01*
X58155514Y-91547011D01*
X58016534Y-91560669D01*
X57834332Y-91568968D01*
X57602812Y-91573205D01*
X57315875Y-91574680D01*
X56967425Y-91574688D01*
X56634731Y-91574511D01*
X55072643Y-91574511D01*
X55072643Y-92445368D01*
X56769000Y-92441393D01*
X57118345Y-92439964D01*
X57449642Y-92437439D01*
X57754952Y-92433962D01*
X58026338Y-92429677D01*
X58255862Y-92424727D01*
X58435584Y-92419254D01*
X58557567Y-92413403D01*
X58610500Y-92408127D01*
X58869677Y-92332428D01*
X59071250Y-92219145D01*
X59222508Y-92063179D01*
X59303479Y-91923472D01*
X59328074Y-91868748D01*
X59347500Y-91816201D01*
X59362367Y-91756843D01*
X59373287Y-91681682D01*
X59380871Y-91581730D01*
X59385729Y-91447995D01*
X59388474Y-91271489D01*
X59389715Y-91043220D01*
X59390063Y-90754200D01*
X59390086Y-90649226D01*
X59388685Y-90299163D01*
X59384487Y-89999180D01*
X59377652Y-89754266D01*
X59368343Y-89569409D01*
X59356721Y-89449598D01*
X59350058Y-89415511D01*
X59272171Y-89252497D01*
X59139498Y-89097213D01*
X58969352Y-88965651D01*
X58779046Y-88873806D01*
X58755309Y-88866100D01*
X58699499Y-88850531D01*
X58638047Y-88837568D01*
X58564080Y-88826975D01*
X58470727Y-88818513D01*
X58351112Y-88811946D01*
X58198365Y-88807036D01*
X58005611Y-88803545D01*
X57765979Y-88801237D01*
X57472595Y-88799873D01*
X57118586Y-88799217D01*
X56814357Y-88799047D01*
X55090786Y-88798654D01*
X55080598Y-89243154D01*
X55080598Y-89243154D01*
G37*
X55080598Y-89243154D02*
X55070409Y-89687654D01*
X56664078Y-89687654D01*
X57046916Y-89687800D01*
X57363830Y-89688417D01*
X57621468Y-89689772D01*
X57826476Y-89692135D01*
X57985501Y-89695774D01*
X58105192Y-89700957D01*
X58192195Y-89707953D01*
X58253158Y-89717029D01*
X58294727Y-89728455D01*
X58323550Y-89742498D01*
X58341371Y-89755369D01*
X58373664Y-89785404D01*
X58396878Y-89822925D01*
X58412978Y-89880123D01*
X58423932Y-89969193D01*
X58431704Y-90102325D01*
X58438261Y-90291713D01*
X58440542Y-90370365D01*
X58444440Y-90590255D01*
X58444263Y-90810568D01*
X58440287Y-91008904D01*
X58432792Y-91162859D01*
X58430347Y-91192354D01*
X58423193Y-91279858D01*
X58415498Y-91352921D01*
X58401165Y-91412838D01*
X58374098Y-91460908D01*
X58328199Y-91498428D01*
X58257370Y-91526697D01*
X58155514Y-91547011D01*
X58016534Y-91560669D01*
X57834332Y-91568968D01*
X57602812Y-91573205D01*
X57315875Y-91574680D01*
X56967425Y-91574688D01*
X56634731Y-91574511D01*
X55072643Y-91574511D01*
X55072643Y-92445368D01*
X56769000Y-92441393D01*
X57118345Y-92439964D01*
X57449642Y-92437439D01*
X57754952Y-92433962D01*
X58026338Y-92429677D01*
X58255862Y-92424727D01*
X58435584Y-92419254D01*
X58557567Y-92413403D01*
X58610500Y-92408127D01*
X58869677Y-92332428D01*
X59071250Y-92219145D01*
X59222508Y-92063179D01*
X59303479Y-91923472D01*
X59328074Y-91868748D01*
X59347500Y-91816201D01*
X59362367Y-91756843D01*
X59373287Y-91681682D01*
X59380871Y-91581730D01*
X59385729Y-91447995D01*
X59388474Y-91271489D01*
X59389715Y-91043220D01*
X59390063Y-90754200D01*
X59390086Y-90649226D01*
X59388685Y-90299163D01*
X59384487Y-89999180D01*
X59377652Y-89754266D01*
X59368343Y-89569409D01*
X59356721Y-89449598D01*
X59350058Y-89415511D01*
X59272171Y-89252497D01*
X59139498Y-89097213D01*
X58969352Y-88965651D01*
X58779046Y-88873806D01*
X58755309Y-88866100D01*
X58699499Y-88850531D01*
X58638047Y-88837568D01*
X58564080Y-88826975D01*
X58470727Y-88818513D01*
X58351112Y-88811946D01*
X58198365Y-88807036D01*
X58005611Y-88803545D01*
X57765979Y-88801237D01*
X57472595Y-88799873D01*
X57118586Y-88799217D01*
X56814357Y-88799047D01*
X55090786Y-88798654D01*
X55080598Y-89243154D01*
G36*
X64918481Y-88799876D02*
G01*
X64483201Y-88803393D01*
X64114376Y-88806984D01*
X63805890Y-88810865D01*
X63551626Y-88815249D01*
X63345468Y-88820349D01*
X63181299Y-88826380D01*
X63053003Y-88833555D01*
X62954464Y-88842088D01*
X62879566Y-88852193D01*
X62822191Y-88864083D01*
X62786695Y-88874396D01*
X62565256Y-88980580D01*
X62377990Y-89135921D01*
X62250428Y-89311724D01*
X62227239Y-89358004D01*
X62208850Y-89406219D01*
X62194595Y-89465230D01*
X62183808Y-89543896D01*
X62175824Y-89651077D01*
X62169976Y-89795632D01*
X62165600Y-89986422D01*
X62162030Y-90232305D01*
X62158699Y-90532679D01*
X62156390Y-90913604D01*
X62158049Y-91228234D01*
X62163641Y-91475066D01*
X62173129Y-91652594D01*
X62186477Y-91759315D01*
X62188111Y-91766394D01*
X62265681Y-91974893D01*
X62389204Y-92140036D01*
X62569355Y-92274486D01*
X62654884Y-92320164D01*
X62893876Y-92437857D01*
X64881357Y-92448655D01*
X66868838Y-92459452D01*
X66868838Y-91585142D01*
X65816553Y-91585142D01*
X64546553Y-91585142D01*
X64209040Y-91584989D01*
X63936605Y-91584259D01*
X63721751Y-91582548D01*
X63556984Y-91579450D01*
X63434809Y-91574560D01*
X63347731Y-91567472D01*
X63288255Y-91557783D01*
X63248888Y-91545087D01*
X63222133Y-91528978D01*
X63203981Y-91512571D01*
X63180390Y-91485026D01*
X63162539Y-91449387D01*
X63149633Y-91395975D01*
X63140875Y-91315108D01*
X63135472Y-91197104D01*
X63132626Y-91032284D01*
X63131544Y-90810966D01*
X63131410Y-90629195D01*
X63131700Y-90365961D01*
X63133129Y-90165652D01*
X63136533Y-90018622D01*
X63142749Y-89915223D01*
X63152614Y-89845809D01*
X63166965Y-89800735D01*
X63186638Y-89770354D01*
X63207740Y-89749266D01*
X63231954Y-89730796D01*
X63264641Y-89715805D01*
X63313311Y-89703840D01*
X63385478Y-89694451D01*
X63488651Y-89687186D01*
X63630345Y-89681593D01*
X63818069Y-89677220D01*
X64059338Y-89673617D01*
X64361661Y-89670331D01*
X64550311Y-89668554D01*
X65816553Y-89656966D01*
X65816553Y-91585142D01*
X66868838Y-91585142D01*
X66868838Y-88785162D01*
X64918481Y-88799876D01*
X64918481Y-88799876D01*
G37*
X64918481Y-88799876D02*
X64483201Y-88803393D01*
X64114376Y-88806984D01*
X63805890Y-88810865D01*
X63551626Y-88815249D01*
X63345468Y-88820349D01*
X63181299Y-88826380D01*
X63053003Y-88833555D01*
X62954464Y-88842088D01*
X62879566Y-88852193D01*
X62822191Y-88864083D01*
X62786695Y-88874396D01*
X62565256Y-88980580D01*
X62377990Y-89135921D01*
X62250428Y-89311724D01*
X62227239Y-89358004D01*
X62208850Y-89406219D01*
X62194595Y-89465230D01*
X62183808Y-89543896D01*
X62175824Y-89651077D01*
X62169976Y-89795632D01*
X62165600Y-89986422D01*
X62162030Y-90232305D01*
X62158699Y-90532679D01*
X62156390Y-90913604D01*
X62158049Y-91228234D01*
X62163641Y-91475066D01*
X62173129Y-91652594D01*
X62186477Y-91759315D01*
X62188111Y-91766394D01*
X62265681Y-91974893D01*
X62389204Y-92140036D01*
X62569355Y-92274486D01*
X62654884Y-92320164D01*
X62893876Y-92437857D01*
X64881357Y-92448655D01*
X66868838Y-92459452D01*
X66868838Y-91585142D01*
X65816553Y-91585142D01*
X64546553Y-91585142D01*
X64209040Y-91584989D01*
X63936605Y-91584259D01*
X63721751Y-91582548D01*
X63556984Y-91579450D01*
X63434809Y-91574560D01*
X63347731Y-91567472D01*
X63288255Y-91557783D01*
X63248888Y-91545087D01*
X63222133Y-91528978D01*
X63203981Y-91512571D01*
X63180390Y-91485026D01*
X63162539Y-91449387D01*
X63149633Y-91395975D01*
X63140875Y-91315108D01*
X63135472Y-91197104D01*
X63132626Y-91032284D01*
X63131544Y-90810966D01*
X63131410Y-90629195D01*
X63131700Y-90365961D01*
X63133129Y-90165652D01*
X63136533Y-90018622D01*
X63142749Y-89915223D01*
X63152614Y-89845809D01*
X63166965Y-89800735D01*
X63186638Y-89770354D01*
X63207740Y-89749266D01*
X63231954Y-89730796D01*
X63264641Y-89715805D01*
X63313311Y-89703840D01*
X63385478Y-89694451D01*
X63488651Y-89687186D01*
X63630345Y-89681593D01*
X63818069Y-89677220D01*
X64059338Y-89673617D01*
X64361661Y-89670331D01*
X64550311Y-89668554D01*
X65816553Y-89656966D01*
X65816553Y-91585142D01*
X66868838Y-91585142D01*
X66868838Y-88785162D01*
X64918481Y-88799876D01*
G36*
X67228357Y-89698285D02*
G01*
X69913500Y-89698285D01*
X69913500Y-90387714D01*
X67373500Y-90387714D01*
X67373500Y-91222285D01*
X69913500Y-91222285D01*
X69913500Y-92455999D01*
X71038357Y-92455999D01*
X71038357Y-88791142D01*
X67228357Y-88791142D01*
X67228357Y-89698285D01*
X67228357Y-89698285D01*
G37*
X67228357Y-89698285D02*
X69913500Y-89698285D01*
X69913500Y-90387714D01*
X67373500Y-90387714D01*
X67373500Y-91222285D01*
X69913500Y-91222285D01*
X69913500Y-92455999D01*
X71038357Y-92455999D01*
X71038357Y-88791142D01*
X67228357Y-88791142D01*
X67228357Y-89698285D01*
G36*
X75924880Y-88790622D02*
G01*
X75758327Y-88797037D01*
X75619993Y-88807288D01*
X75524261Y-88821349D01*
X75486947Y-88836499D01*
X75462594Y-88877483D01*
X75408035Y-88975569D01*
X75327063Y-89123747D01*
X75223470Y-89315005D01*
X75101050Y-89542331D01*
X74963595Y-89798713D01*
X74814898Y-90077139D01*
X74750938Y-90197214D01*
X74599565Y-90480640D01*
X74458417Y-90743067D01*
X74331172Y-90977794D01*
X74221507Y-91178119D01*
X74133100Y-91337341D01*
X74069631Y-91448759D01*
X74034777Y-91505670D01*
X74029452Y-91511717D01*
X74008459Y-91480539D01*
X73957210Y-91391783D01*
X73879312Y-91252055D01*
X73778376Y-91067960D01*
X73658012Y-90846104D01*
X73521830Y-90593094D01*
X73373439Y-90315535D01*
X73285907Y-90151003D01*
X72563724Y-88791142D01*
X71952407Y-88791142D01*
X71748916Y-88792981D01*
X71574726Y-88798086D01*
X71441388Y-88805839D01*
X71360453Y-88815621D01*
X71341090Y-88823864D01*
X71358041Y-88860357D01*
X71406336Y-88953324D01*
X71482133Y-89095766D01*
X71581595Y-89280684D01*
X71700880Y-89501079D01*
X71836149Y-89749953D01*
X71983562Y-90020306D01*
X72139280Y-90305139D01*
X72299463Y-90597455D01*
X72460271Y-90890253D01*
X72617865Y-91176535D01*
X72768405Y-91449302D01*
X72908050Y-91701555D01*
X73032962Y-91926296D01*
X73139300Y-92116525D01*
X73223226Y-92265243D01*
X73280899Y-92365453D01*
X73308479Y-92410153D01*
X73308864Y-92410642D01*
X73344454Y-92427710D01*
X73424228Y-92440357D01*
X73554984Y-92449002D01*
X73743523Y-92454064D01*
X73996645Y-92455962D01*
X74045859Y-92455999D01*
X74746028Y-92455999D01*
X74816616Y-92338071D01*
X74867356Y-92250305D01*
X74944866Y-92112280D01*
X75045310Y-91931090D01*
X75164851Y-91713828D01*
X75299654Y-91467590D01*
X75445881Y-91199468D01*
X75599698Y-90916557D01*
X75757268Y-90625951D01*
X75914755Y-90334743D01*
X76068322Y-90050028D01*
X76214134Y-89778899D01*
X76348354Y-89528450D01*
X76467146Y-89305776D01*
X76566675Y-89117971D01*
X76643103Y-88972127D01*
X76692595Y-88875340D01*
X76711315Y-88834703D01*
X76711376Y-88834211D01*
X76677543Y-88817041D01*
X76585633Y-88803868D01*
X76450029Y-88794667D01*
X76285114Y-88789411D01*
X76105270Y-88788071D01*
X75924880Y-88790622D01*
X75924880Y-88790622D01*
G37*
X75924880Y-88790622D02*
X75758327Y-88797037D01*
X75619993Y-88807288D01*
X75524261Y-88821349D01*
X75486947Y-88836499D01*
X75462594Y-88877483D01*
X75408035Y-88975569D01*
X75327063Y-89123747D01*
X75223470Y-89315005D01*
X75101050Y-89542331D01*
X74963595Y-89798713D01*
X74814898Y-90077139D01*
X74750938Y-90197214D01*
X74599565Y-90480640D01*
X74458417Y-90743067D01*
X74331172Y-90977794D01*
X74221507Y-91178119D01*
X74133100Y-91337341D01*
X74069631Y-91448759D01*
X74034777Y-91505670D01*
X74029452Y-91511717D01*
X74008459Y-91480539D01*
X73957210Y-91391783D01*
X73879312Y-91252055D01*
X73778376Y-91067960D01*
X73658012Y-90846104D01*
X73521830Y-90593094D01*
X73373439Y-90315535D01*
X73285907Y-90151003D01*
X72563724Y-88791142D01*
X71952407Y-88791142D01*
X71748916Y-88792981D01*
X71574726Y-88798086D01*
X71441388Y-88805839D01*
X71360453Y-88815621D01*
X71341090Y-88823864D01*
X71358041Y-88860357D01*
X71406336Y-88953324D01*
X71482133Y-89095766D01*
X71581595Y-89280684D01*
X71700880Y-89501079D01*
X71836149Y-89749953D01*
X71983562Y-90020306D01*
X72139280Y-90305139D01*
X72299463Y-90597455D01*
X72460271Y-90890253D01*
X72617865Y-91176535D01*
X72768405Y-91449302D01*
X72908050Y-91701555D01*
X73032962Y-91926296D01*
X73139300Y-92116525D01*
X73223226Y-92265243D01*
X73280899Y-92365453D01*
X73308479Y-92410153D01*
X73308864Y-92410642D01*
X73344454Y-92427710D01*
X73424228Y-92440357D01*
X73554984Y-92449002D01*
X73743523Y-92454064D01*
X73996645Y-92455962D01*
X74045859Y-92455999D01*
X74746028Y-92455999D01*
X74816616Y-92338071D01*
X74867356Y-92250305D01*
X74944866Y-92112280D01*
X75045310Y-91931090D01*
X75164851Y-91713828D01*
X75299654Y-91467590D01*
X75445881Y-91199468D01*
X75599698Y-90916557D01*
X75757268Y-90625951D01*
X75914755Y-90334743D01*
X76068322Y-90050028D01*
X76214134Y-89778899D01*
X76348354Y-89528450D01*
X76467146Y-89305776D01*
X76566675Y-89117971D01*
X76643103Y-88972127D01*
X76692595Y-88875340D01*
X76711315Y-88834703D01*
X76711376Y-88834211D01*
X76677543Y-88817041D01*
X76585633Y-88803868D01*
X76450029Y-88794667D01*
X76285114Y-88789411D01*
X76105270Y-88788071D01*
X75924880Y-88790622D01*
D11*
G36*
X75484942Y-112707518D02*
G01*
X75551127Y-112714037D01*
X75720966Y-112765557D01*
X75877491Y-112849222D01*
X75913229Y-112878552D01*
X76014686Y-112961814D01*
X76097948Y-113063271D01*
X76127278Y-113099009D01*
X76210943Y-113255534D01*
X76262463Y-113425373D01*
X76279859Y-113602000D01*
X76262463Y-113778627D01*
X76210943Y-113948466D01*
X76127278Y-114104991D01*
X76097948Y-114140729D01*
X76014686Y-114242186D01*
X75913229Y-114325448D01*
X75877491Y-114354778D01*
X75720966Y-114438443D01*
X75551127Y-114489963D01*
X75484942Y-114496482D01*
X75418760Y-114503000D01*
X75330240Y-114503000D01*
X75264058Y-114496482D01*
X75197873Y-114489963D01*
X75028034Y-114438443D01*
X74871509Y-114354778D01*
X74835771Y-114325448D01*
X74734314Y-114242186D01*
X74651052Y-114140729D01*
X74621722Y-114104991D01*
X74538057Y-113948466D01*
X74486537Y-113778627D01*
X74469141Y-113602000D01*
X74486537Y-113425373D01*
X74538057Y-113255534D01*
X74621722Y-113099009D01*
X74651052Y-113063271D01*
X74734314Y-112961814D01*
X74835771Y-112878552D01*
X74871509Y-112849222D01*
X75028034Y-112765557D01*
X75197873Y-112714037D01*
X75264058Y-112707518D01*
X75330240Y-112701000D01*
X75418760Y-112701000D01*
X75484942Y-112707518D01*
X75484942Y-112707518D01*
G37*
G36*
X72944942Y-112707518D02*
G01*
X73011127Y-112714037D01*
X73180966Y-112765557D01*
X73337491Y-112849222D01*
X73373229Y-112878552D01*
X73474686Y-112961814D01*
X73557948Y-113063271D01*
X73587278Y-113099009D01*
X73670943Y-113255534D01*
X73722463Y-113425373D01*
X73739859Y-113602000D01*
X73722463Y-113778627D01*
X73670943Y-113948466D01*
X73587278Y-114104991D01*
X73557948Y-114140729D01*
X73474686Y-114242186D01*
X73373229Y-114325448D01*
X73337491Y-114354778D01*
X73180966Y-114438443D01*
X73011127Y-114489963D01*
X72944942Y-114496482D01*
X72878760Y-114503000D01*
X72790240Y-114503000D01*
X72724058Y-114496482D01*
X72657873Y-114489963D01*
X72488034Y-114438443D01*
X72331509Y-114354778D01*
X72295771Y-114325448D01*
X72194314Y-114242186D01*
X72111052Y-114140729D01*
X72081722Y-114104991D01*
X71998057Y-113948466D01*
X71946537Y-113778627D01*
X71929141Y-113602000D01*
X71946537Y-113425373D01*
X71998057Y-113255534D01*
X72081722Y-113099009D01*
X72111052Y-113063271D01*
X72194314Y-112961814D01*
X72295771Y-112878552D01*
X72331509Y-112849222D01*
X72488034Y-112765557D01*
X72657873Y-112714037D01*
X72724058Y-112707518D01*
X72790240Y-112701000D01*
X72878760Y-112701000D01*
X72944942Y-112707518D01*
X72944942Y-112707518D01*
G37*
G36*
X71195500Y-114503000D02*
G01*
X69393500Y-114503000D01*
X69393500Y-112701000D01*
X71195500Y-112701000D01*
X71195500Y-114503000D01*
X71195500Y-114503000D01*
G37*
G36*
X87394500Y-114028000D02*
G01*
X86492500Y-114028000D01*
X86492500Y-113176000D01*
X87394500Y-113176000D01*
X87394500Y-114028000D01*
X87394500Y-114028000D01*
G37*
G36*
X88894500Y-114028000D02*
G01*
X87992500Y-114028000D01*
X87992500Y-113176000D01*
X88894500Y-113176000D01*
X88894500Y-114028000D01*
X88894500Y-114028000D01*
G37*
G36*
X230643585Y-110759802D02*
G01*
X230793410Y-110789604D01*
X231075674Y-110906521D01*
X231329705Y-111076259D01*
X231545741Y-111292295D01*
X231715479Y-111546326D01*
X231832396Y-111828590D01*
X231892000Y-112128240D01*
X231892000Y-112433760D01*
X231832396Y-112733410D01*
X231715479Y-113015674D01*
X231545741Y-113269705D01*
X231329705Y-113485741D01*
X231075674Y-113655479D01*
X230793410Y-113772396D01*
X230643585Y-113802198D01*
X230493761Y-113832000D01*
X230188239Y-113832000D01*
X230038415Y-113802198D01*
X229888590Y-113772396D01*
X229606326Y-113655479D01*
X229352295Y-113485741D01*
X229136259Y-113269705D01*
X228966521Y-113015674D01*
X228849604Y-112733410D01*
X228790000Y-112433760D01*
X228790000Y-112128240D01*
X228849604Y-111828590D01*
X228966521Y-111546326D01*
X229136259Y-111292295D01*
X229352295Y-111076259D01*
X229606326Y-110906521D01*
X229888590Y-110789604D01*
X230038415Y-110759802D01*
X230188239Y-110730000D01*
X230493761Y-110730000D01*
X230643585Y-110759802D01*
X230643585Y-110759802D01*
G37*
G36*
X38643385Y-110759802D02*
G01*
X38793210Y-110789604D01*
X39075474Y-110906521D01*
X39329505Y-111076259D01*
X39545541Y-111292295D01*
X39715279Y-111546326D01*
X39832196Y-111828590D01*
X39891800Y-112128240D01*
X39891800Y-112433760D01*
X39832196Y-112733410D01*
X39715279Y-113015674D01*
X39545541Y-113269705D01*
X39329505Y-113485741D01*
X39075474Y-113655479D01*
X38793210Y-113772396D01*
X38643385Y-113802198D01*
X38493561Y-113832000D01*
X38188039Y-113832000D01*
X38038215Y-113802198D01*
X37888390Y-113772396D01*
X37606126Y-113655479D01*
X37352095Y-113485741D01*
X37136059Y-113269705D01*
X36966321Y-113015674D01*
X36849404Y-112733410D01*
X36789800Y-112433760D01*
X36789800Y-112128240D01*
X36849404Y-111828590D01*
X36966321Y-111546326D01*
X37136059Y-111292295D01*
X37352095Y-111076259D01*
X37606126Y-110906521D01*
X37888390Y-110789604D01*
X38038215Y-110759802D01*
X38188039Y-110730000D01*
X38493561Y-110730000D01*
X38643385Y-110759802D01*
X38643385Y-110759802D01*
G37*
G36*
X166643585Y-110759802D02*
G01*
X166793410Y-110789604D01*
X167075674Y-110906521D01*
X167329705Y-111076259D01*
X167545741Y-111292295D01*
X167715479Y-111546326D01*
X167832396Y-111828590D01*
X167892000Y-112128240D01*
X167892000Y-112433760D01*
X167832396Y-112733410D01*
X167715479Y-113015674D01*
X167545741Y-113269705D01*
X167329705Y-113485741D01*
X167075674Y-113655479D01*
X166793410Y-113772396D01*
X166643585Y-113802198D01*
X166493761Y-113832000D01*
X166188239Y-113832000D01*
X166038415Y-113802198D01*
X165888590Y-113772396D01*
X165606326Y-113655479D01*
X165352295Y-113485741D01*
X165136259Y-113269705D01*
X164966521Y-113015674D01*
X164849604Y-112733410D01*
X164790000Y-112433760D01*
X164790000Y-112128240D01*
X164849604Y-111828590D01*
X164966521Y-111546326D01*
X165136259Y-111292295D01*
X165352295Y-111076259D01*
X165606326Y-110906521D01*
X165888590Y-110789604D01*
X166038415Y-110759802D01*
X166188239Y-110730000D01*
X166493761Y-110730000D01*
X166643585Y-110759802D01*
X166643585Y-110759802D01*
G37*
G36*
X102643585Y-110759802D02*
G01*
X102793410Y-110789604D01*
X103075674Y-110906521D01*
X103329705Y-111076259D01*
X103545741Y-111292295D01*
X103715479Y-111546326D01*
X103832396Y-111828590D01*
X103892000Y-112128240D01*
X103892000Y-112433760D01*
X103832396Y-112733410D01*
X103715479Y-113015674D01*
X103545741Y-113269705D01*
X103329705Y-113485741D01*
X103075674Y-113655479D01*
X102793410Y-113772396D01*
X102643585Y-113802198D01*
X102493761Y-113832000D01*
X102188239Y-113832000D01*
X102038415Y-113802198D01*
X101888590Y-113772396D01*
X101606326Y-113655479D01*
X101352295Y-113485741D01*
X101136259Y-113269705D01*
X100966521Y-113015674D01*
X100849604Y-112733410D01*
X100790000Y-112433760D01*
X100790000Y-112128240D01*
X100849604Y-111828590D01*
X100966521Y-111546326D01*
X101136259Y-111292295D01*
X101352295Y-111076259D01*
X101606326Y-110906521D01*
X101888590Y-110789604D01*
X102038415Y-110759802D01*
X102188239Y-110730000D01*
X102493761Y-110730000D01*
X102643585Y-110759802D01*
X102643585Y-110759802D01*
G37*
G36*
X222625000Y-112376000D02*
G01*
X221723000Y-112376000D01*
X221723000Y-111524000D01*
X222625000Y-111524000D01*
X222625000Y-112376000D01*
X222625000Y-112376000D01*
G37*
G36*
X221125000Y-112376000D02*
G01*
X220223000Y-112376000D01*
X220223000Y-111524000D01*
X221125000Y-111524000D01*
X221125000Y-112376000D01*
X221125000Y-112376000D01*
G37*
G36*
X87394500Y-111106000D02*
G01*
X86492500Y-111106000D01*
X86492500Y-110254000D01*
X87394500Y-110254000D01*
X87394500Y-111106000D01*
X87394500Y-111106000D01*
G37*
G36*
X88894500Y-111106000D02*
G01*
X87992500Y-111106000D01*
X87992500Y-110254000D01*
X88894500Y-110254000D01*
X88894500Y-111106000D01*
X88894500Y-111106000D01*
G37*
G36*
X213385000Y-111087000D02*
G01*
X211683000Y-111087000D01*
X211683000Y-109385000D01*
X213385000Y-109385000D01*
X213385000Y-111087000D01*
X213385000Y-111087000D01*
G37*
G36*
X224264000Y-110357000D02*
G01*
X223412000Y-110357000D01*
X223412000Y-109455000D01*
X224264000Y-109455000D01*
X224264000Y-110357000D01*
X224264000Y-110357000D01*
G37*
G36*
X117012000Y-110357000D02*
G01*
X116160000Y-110357000D01*
X116160000Y-109455000D01*
X117012000Y-109455000D01*
X117012000Y-110357000D01*
X117012000Y-110357000D01*
G37*
G36*
X215599000Y-110355000D02*
G01*
X214297000Y-110355000D01*
X214297000Y-109353000D01*
X215599000Y-109353000D01*
X215599000Y-110355000D01*
X215599000Y-110355000D01*
G37*
G36*
X225799000Y-110207000D02*
G01*
X224797000Y-110207000D01*
X224797000Y-109605000D01*
X225799000Y-109605000D01*
X225799000Y-110207000D01*
X225799000Y-110207000D01*
G37*
G36*
X115571000Y-110100000D02*
G01*
X114719000Y-110100000D01*
X114719000Y-108198000D01*
X115571000Y-108198000D01*
X115571000Y-110100000D01*
X115571000Y-110100000D01*
G37*
G36*
X112671000Y-110100000D02*
G01*
X111819000Y-110100000D01*
X111819000Y-108198000D01*
X112671000Y-108198000D01*
X112671000Y-110100000D01*
X112671000Y-110100000D01*
G37*
G36*
X114396000Y-109950000D02*
G01*
X112994000Y-109950000D01*
X112994000Y-108348000D01*
X114396000Y-108348000D01*
X114396000Y-109950000D01*
X114396000Y-109950000D01*
G37*
G36*
X54333500Y-109311000D02*
G01*
X52981500Y-109311000D01*
X52981500Y-108209000D01*
X54333500Y-108209000D01*
X54333500Y-109311000D01*
X54333500Y-109311000D01*
G37*
G36*
X52432500Y-108961000D02*
G01*
X51580500Y-108961000D01*
X51580500Y-108059000D01*
X52432500Y-108059000D01*
X52432500Y-108961000D01*
X52432500Y-108961000D01*
G37*
G36*
X117012000Y-108857000D02*
G01*
X116160000Y-108857000D01*
X116160000Y-107955000D01*
X117012000Y-107955000D01*
X117012000Y-108857000D01*
X117012000Y-108857000D01*
G37*
G36*
X224264000Y-108857000D02*
G01*
X223412000Y-108857000D01*
X223412000Y-107955000D01*
X224264000Y-107955000D01*
X224264000Y-108857000D01*
X224264000Y-108857000D01*
G37*
G36*
X225799000Y-108707000D02*
G01*
X224797000Y-108707000D01*
X224797000Y-108105000D01*
X225799000Y-108105000D01*
X225799000Y-108707000D01*
X225799000Y-108707000D01*
G37*
G36*
X87394500Y-108186000D02*
G01*
X86492500Y-108186000D01*
X86492500Y-107334000D01*
X87394500Y-107334000D01*
X87394500Y-108186000D01*
X87394500Y-108186000D01*
G37*
G36*
X88894500Y-108186000D02*
G01*
X87992500Y-108186000D01*
X87992500Y-107334000D01*
X88894500Y-107334000D01*
X88894500Y-108186000D01*
X88894500Y-108186000D01*
G37*
G36*
X52432500Y-107461000D02*
G01*
X51580500Y-107461000D01*
X51580500Y-106559000D01*
X52432500Y-106559000D01*
X52432500Y-107461000D01*
X52432500Y-107461000D01*
G37*
G36*
X54333500Y-107311000D02*
G01*
X52981500Y-107311000D01*
X52981500Y-106209000D01*
X54333500Y-106209000D01*
X54333500Y-107311000D01*
X54333500Y-107311000D01*
G37*
G36*
X228825348Y-105681270D02*
G01*
X228825350Y-105681271D01*
X228825351Y-105681271D01*
X228966574Y-105739767D01*
X228966577Y-105739769D01*
X229093669Y-105824689D01*
X229201761Y-105932781D01*
X229282089Y-106053000D01*
X229286683Y-106059876D01*
X229324918Y-106152185D01*
X229345180Y-106201102D01*
X229375000Y-106351019D01*
X229375000Y-106503881D01*
X229348104Y-106639100D01*
X229345179Y-106653801D01*
X229286683Y-106795024D01*
X229286681Y-106795027D01*
X229201761Y-106922119D01*
X229093669Y-107030211D01*
X229008678Y-107087000D01*
X228966574Y-107115133D01*
X228825351Y-107173629D01*
X228825350Y-107173629D01*
X228825348Y-107173630D01*
X228675431Y-107203450D01*
X228522569Y-107203450D01*
X228372652Y-107173630D01*
X228372650Y-107173629D01*
X228372649Y-107173629D01*
X228231426Y-107115133D01*
X228189322Y-107087000D01*
X228104331Y-107030211D01*
X227996239Y-106922119D01*
X227911319Y-106795027D01*
X227911317Y-106795024D01*
X227852821Y-106653801D01*
X227849897Y-106639100D01*
X227823000Y-106503881D01*
X227823000Y-106351019D01*
X227852820Y-106201102D01*
X227873082Y-106152185D01*
X227911317Y-106059876D01*
X227915911Y-106053000D01*
X227996239Y-105932781D01*
X228104331Y-105824689D01*
X228231423Y-105739769D01*
X228231426Y-105739767D01*
X228372649Y-105681271D01*
X228372650Y-105681271D01*
X228372652Y-105681270D01*
X228522569Y-105651450D01*
X228675431Y-105651450D01*
X228825348Y-105681270D01*
X228825348Y-105681270D01*
G37*
G36*
X212782228Y-105417703D02*
G01*
X212937100Y-105481853D01*
X213076481Y-105574985D01*
X213195015Y-105693519D01*
X213288147Y-105832900D01*
X213352297Y-105987772D01*
X213385000Y-106152184D01*
X213385000Y-106319816D01*
X213352297Y-106484228D01*
X213288147Y-106639100D01*
X213195015Y-106778481D01*
X213076481Y-106897015D01*
X212937100Y-106990147D01*
X212782228Y-107054297D01*
X212617816Y-107087000D01*
X212450184Y-107087000D01*
X212285772Y-107054297D01*
X212130900Y-106990147D01*
X211991519Y-106897015D01*
X211872985Y-106778481D01*
X211779853Y-106639100D01*
X211715703Y-106484228D01*
X211683000Y-106319816D01*
X211683000Y-106152184D01*
X211715703Y-105987772D01*
X211779853Y-105832900D01*
X211872985Y-105693519D01*
X211991519Y-105574985D01*
X212130900Y-105481853D01*
X212285772Y-105417703D01*
X212450184Y-105385000D01*
X212617816Y-105385000D01*
X212782228Y-105417703D01*
X212782228Y-105417703D01*
G37*
G36*
X215599000Y-107055000D02*
G01*
X214297000Y-107055000D01*
X214297000Y-106053000D01*
X215599000Y-106053000D01*
X215599000Y-107055000D01*
X215599000Y-107055000D01*
G37*
G36*
X39348240Y-104705626D02*
G01*
X39396636Y-104715253D01*
X39432238Y-104730000D01*
X39487811Y-104753019D01*
X39487812Y-104753020D01*
X39569869Y-104807848D01*
X39639652Y-104877631D01*
X39639653Y-104877633D01*
X39694481Y-104959689D01*
X39732247Y-105050865D01*
X39751500Y-105147655D01*
X39751500Y-105246345D01*
X39732247Y-105343135D01*
X39694481Y-105434311D01*
X39694480Y-105434312D01*
X39639652Y-105516369D01*
X39569869Y-105586152D01*
X39528562Y-105613752D01*
X39487811Y-105640981D01*
X39462536Y-105651450D01*
X39396636Y-105678747D01*
X39348240Y-105688374D01*
X39299845Y-105698000D01*
X39201155Y-105698000D01*
X39152760Y-105688374D01*
X39104364Y-105678747D01*
X39038464Y-105651450D01*
X39013189Y-105640981D01*
X38972438Y-105613752D01*
X38931131Y-105586152D01*
X38861348Y-105516369D01*
X38806520Y-105434312D01*
X38806519Y-105434311D01*
X38768753Y-105343135D01*
X38749500Y-105246345D01*
X38749500Y-105147655D01*
X38768753Y-105050865D01*
X38806519Y-104959689D01*
X38861347Y-104877633D01*
X38861348Y-104877631D01*
X38931131Y-104807848D01*
X39013188Y-104753020D01*
X39013189Y-104753019D01*
X39068762Y-104730000D01*
X39104364Y-104715253D01*
X39152760Y-104705626D01*
X39201155Y-104696000D01*
X39299845Y-104696000D01*
X39348240Y-104705626D01*
X39348240Y-104705626D01*
G37*
G36*
X47707000Y-105582000D02*
G01*
X46805000Y-105582000D01*
X46805000Y-104730000D01*
X47707000Y-104730000D01*
X47707000Y-105582000D01*
X47707000Y-105582000D01*
G37*
G36*
X49207000Y-105582000D02*
G01*
X48305000Y-105582000D01*
X48305000Y-104730000D01*
X49207000Y-104730000D01*
X49207000Y-105582000D01*
X49207000Y-105582000D01*
G37*
G36*
X169572000Y-105265000D02*
G01*
X168720000Y-105265000D01*
X168720000Y-104363000D01*
X169572000Y-104363000D01*
X169572000Y-105265000D01*
X169572000Y-105265000D01*
G37*
G36*
X88894500Y-105264000D02*
G01*
X87992500Y-105264000D01*
X87992500Y-104412000D01*
X88894500Y-104412000D01*
X88894500Y-105264000D01*
X88894500Y-105264000D01*
G37*
G36*
X87394500Y-105264000D02*
G01*
X86492500Y-105264000D01*
X86492500Y-104412000D01*
X87394500Y-104412000D01*
X87394500Y-105264000D01*
X87394500Y-105264000D01*
G37*
G36*
X53942500Y-102016689D02*
G01*
X53938053Y-102019066D01*
X53919111Y-102034611D01*
X53903566Y-102053553D01*
X53892015Y-102075164D01*
X53884902Y-102098613D01*
X53882500Y-102122999D01*
X53882500Y-103871001D01*
X53884902Y-103895387D01*
X53892015Y-103918836D01*
X53903566Y-103940447D01*
X53919111Y-103959389D01*
X53938053Y-103974934D01*
X53942500Y-103977311D01*
X53942500Y-104798000D01*
X51340500Y-104798000D01*
X51340500Y-103977311D01*
X51344947Y-103974934D01*
X51363889Y-103959389D01*
X51379434Y-103940447D01*
X51390985Y-103918836D01*
X51398098Y-103895387D01*
X51400500Y-103871001D01*
X51400500Y-102122999D01*
X51398098Y-102098613D01*
X51390985Y-102075164D01*
X51379434Y-102053553D01*
X51363889Y-102034611D01*
X51344947Y-102019066D01*
X51340500Y-102016689D01*
X51340500Y-101196000D01*
X53942500Y-101196000D01*
X53942500Y-102016689D01*
X53942500Y-102016689D01*
G37*
G36*
X72944942Y-102483518D02*
G01*
X73011127Y-102490037D01*
X73180966Y-102541557D01*
X73337491Y-102625222D01*
X73373229Y-102654552D01*
X73474686Y-102737814D01*
X73557948Y-102839271D01*
X73587278Y-102875009D01*
X73670943Y-103031534D01*
X73722463Y-103201373D01*
X73739859Y-103378000D01*
X73722463Y-103554627D01*
X73670943Y-103724466D01*
X73587278Y-103880991D01*
X73575463Y-103895387D01*
X73474686Y-104018186D01*
X73373229Y-104101448D01*
X73337491Y-104130778D01*
X73180966Y-104214443D01*
X73011127Y-104265963D01*
X72944942Y-104272482D01*
X72878760Y-104279000D01*
X72790240Y-104279000D01*
X72724058Y-104272482D01*
X72657873Y-104265963D01*
X72488034Y-104214443D01*
X72331509Y-104130778D01*
X72295771Y-104101448D01*
X72194314Y-104018186D01*
X72093537Y-103895387D01*
X72081722Y-103880991D01*
X71998057Y-103724466D01*
X71946537Y-103554627D01*
X71929141Y-103378000D01*
X71946537Y-103201373D01*
X71998057Y-103031534D01*
X72081722Y-102875009D01*
X72111052Y-102839271D01*
X72194314Y-102737814D01*
X72295771Y-102654552D01*
X72331509Y-102625222D01*
X72488034Y-102541557D01*
X72657873Y-102490037D01*
X72724058Y-102483518D01*
X72790240Y-102477000D01*
X72878760Y-102477000D01*
X72944942Y-102483518D01*
X72944942Y-102483518D01*
G37*
G36*
X71195500Y-104279000D02*
G01*
X69393500Y-104279000D01*
X69393500Y-102477000D01*
X71195500Y-102477000D01*
X71195500Y-104279000D01*
X71195500Y-104279000D01*
G37*
G36*
X75484942Y-102483518D02*
G01*
X75551127Y-102490037D01*
X75720966Y-102541557D01*
X75877491Y-102625222D01*
X75913229Y-102654552D01*
X76014686Y-102737814D01*
X76097948Y-102839271D01*
X76127278Y-102875009D01*
X76210943Y-103031534D01*
X76262463Y-103201373D01*
X76279859Y-103378000D01*
X76262463Y-103554627D01*
X76210943Y-103724466D01*
X76127278Y-103880991D01*
X76115463Y-103895387D01*
X76014686Y-104018186D01*
X75913229Y-104101448D01*
X75877491Y-104130778D01*
X75720966Y-104214443D01*
X75551127Y-104265963D01*
X75484942Y-104272482D01*
X75418760Y-104279000D01*
X75330240Y-104279000D01*
X75264058Y-104272482D01*
X75197873Y-104265963D01*
X75028034Y-104214443D01*
X74871509Y-104130778D01*
X74835771Y-104101448D01*
X74734314Y-104018186D01*
X74633537Y-103895387D01*
X74621722Y-103880991D01*
X74538057Y-103724466D01*
X74486537Y-103554627D01*
X74469141Y-103378000D01*
X74486537Y-103201373D01*
X74538057Y-103031534D01*
X74621722Y-102875009D01*
X74651052Y-102839271D01*
X74734314Y-102737814D01*
X74835771Y-102654552D01*
X74871509Y-102625222D01*
X75028034Y-102541557D01*
X75197873Y-102490037D01*
X75264058Y-102483518D01*
X75330240Y-102477000D01*
X75418760Y-102477000D01*
X75484942Y-102483518D01*
X75484942Y-102483518D01*
G37*
G36*
X47557000Y-104197000D02*
G01*
X46955000Y-104197000D01*
X46955000Y-103195000D01*
X47557000Y-103195000D01*
X47557000Y-104197000D01*
X47557000Y-104197000D01*
G37*
G36*
X49057000Y-104197000D02*
G01*
X48455000Y-104197000D01*
X48455000Y-103195000D01*
X49057000Y-103195000D01*
X49057000Y-104197000D01*
X49057000Y-104197000D01*
G37*
G36*
X169572000Y-103765000D02*
G01*
X168720000Y-103765000D01*
X168720000Y-102863000D01*
X169572000Y-102863000D01*
X169572000Y-103765000D01*
X169572000Y-103765000D01*
G37*
G36*
X49057000Y-102673000D02*
G01*
X48455000Y-102673000D01*
X48455000Y-101671000D01*
X49057000Y-101671000D01*
X49057000Y-102673000D01*
X49057000Y-102673000D01*
G37*
G36*
X47557000Y-102673000D02*
G01*
X46955000Y-102673000D01*
X46955000Y-101671000D01*
X47557000Y-101671000D01*
X47557000Y-102673000D01*
X47557000Y-102673000D01*
G37*
G36*
X231675000Y-102594000D02*
G01*
X230573000Y-102594000D01*
X230573000Y-101242000D01*
X231675000Y-101242000D01*
X231675000Y-102594000D01*
X231675000Y-102594000D01*
G37*
G36*
X229675000Y-102594000D02*
G01*
X228573000Y-102594000D01*
X228573000Y-101242000D01*
X229675000Y-101242000D01*
X229675000Y-102594000D01*
X229675000Y-102594000D01*
G37*
G36*
X87394500Y-102344000D02*
G01*
X86492500Y-102344000D01*
X86492500Y-101492000D01*
X87394500Y-101492000D01*
X87394500Y-102344000D01*
X87394500Y-102344000D01*
G37*
G36*
X88894500Y-102344000D02*
G01*
X87992500Y-102344000D01*
X87992500Y-101492000D01*
X88894500Y-101492000D01*
X88894500Y-102344000D01*
X88894500Y-102344000D01*
G37*
G36*
X127374000Y-102079000D02*
G01*
X126372000Y-102079000D01*
X126372000Y-101477000D01*
X127374000Y-101477000D01*
X127374000Y-102079000D01*
X127374000Y-102079000D01*
G37*
G36*
X124813000Y-101466000D02*
G01*
X124211000Y-101466000D01*
X124211000Y-100464000D01*
X124813000Y-100464000D01*
X124813000Y-101466000D01*
X124813000Y-101466000D01*
G37*
G36*
X123313000Y-101466000D02*
G01*
X122711000Y-101466000D01*
X122711000Y-100464000D01*
X123313000Y-100464000D01*
X123313000Y-101466000D01*
X123313000Y-101466000D01*
G37*
G36*
X39348240Y-100305627D02*
G01*
X39396636Y-100315253D01*
X39434402Y-100330896D01*
X39487811Y-100353019D01*
X39487812Y-100353020D01*
X39569869Y-100407848D01*
X39639652Y-100477631D01*
X39639653Y-100477633D01*
X39694481Y-100559689D01*
X39716604Y-100613098D01*
X39732247Y-100650864D01*
X39751500Y-100747656D01*
X39751500Y-100846344D01*
X39732247Y-100943136D01*
X39716604Y-100980902D01*
X39694481Y-101034311D01*
X39694480Y-101034312D01*
X39639652Y-101116369D01*
X39569869Y-101186152D01*
X39555130Y-101196000D01*
X39487811Y-101240981D01*
X39434402Y-101263104D01*
X39396636Y-101278747D01*
X39348240Y-101288374D01*
X39299845Y-101298000D01*
X39201155Y-101298000D01*
X39152760Y-101288373D01*
X39104364Y-101278747D01*
X39066598Y-101263104D01*
X39013189Y-101240981D01*
X38945870Y-101196000D01*
X38931131Y-101186152D01*
X38861348Y-101116369D01*
X38806520Y-101034312D01*
X38806519Y-101034311D01*
X38784396Y-100980902D01*
X38768753Y-100943136D01*
X38749500Y-100846344D01*
X38749500Y-100747656D01*
X38768753Y-100650864D01*
X38784396Y-100613098D01*
X38806519Y-100559689D01*
X38861347Y-100477633D01*
X38861348Y-100477631D01*
X38931131Y-100407848D01*
X39013188Y-100353020D01*
X39013189Y-100353019D01*
X39066598Y-100330896D01*
X39104364Y-100315253D01*
X39152760Y-100305626D01*
X39201155Y-100296000D01*
X39299845Y-100296000D01*
X39348240Y-100305627D01*
X39348240Y-100305627D01*
G37*
G36*
X49207000Y-101137000D02*
G01*
X48305000Y-101137000D01*
X48305000Y-100285000D01*
X49207000Y-100285000D01*
X49207000Y-101137000D01*
X49207000Y-101137000D01*
G37*
G36*
X47707000Y-101137000D02*
G01*
X46805000Y-101137000D01*
X46805000Y-100285000D01*
X47707000Y-100285000D01*
X47707000Y-101137000D01*
X47707000Y-101137000D01*
G37*
G36*
X78798000Y-101074000D02*
G01*
X77896000Y-101074000D01*
X77896000Y-100222000D01*
X78798000Y-100222000D01*
X78798000Y-101074000D01*
X78798000Y-101074000D01*
G37*
G36*
X77298000Y-101074000D02*
G01*
X76396000Y-101074000D01*
X76396000Y-100222000D01*
X77298000Y-100222000D01*
X77298000Y-101074000D01*
X77298000Y-101074000D01*
G37*
G36*
X218561000Y-100946000D02*
G01*
X217659000Y-100946000D01*
X217659000Y-100094000D01*
X218561000Y-100094000D01*
X218561000Y-100946000D01*
X218561000Y-100946000D01*
G37*
G36*
X217061000Y-100946000D02*
G01*
X216159000Y-100946000D01*
X216159000Y-100094000D01*
X217061000Y-100094000D01*
X217061000Y-100946000D01*
X217061000Y-100946000D01*
G37*
G36*
X127374000Y-100579000D02*
G01*
X126372000Y-100579000D01*
X126372000Y-99977000D01*
X127374000Y-99977000D01*
X127374000Y-100579000D01*
X127374000Y-100579000D01*
G37*
G36*
X125596000Y-99915500D02*
G01*
X122944000Y-99915500D01*
X122944000Y-98753500D01*
X125596000Y-98753500D01*
X125596000Y-99915500D01*
X125596000Y-99915500D01*
G37*
G36*
X119298000Y-99435500D02*
G01*
X118446000Y-99435500D01*
X118446000Y-98533500D01*
X119298000Y-98533500D01*
X119298000Y-99435500D01*
X119298000Y-99435500D01*
G37*
G36*
X78798000Y-99422500D02*
G01*
X77896000Y-99422500D01*
X77896000Y-98570500D01*
X78798000Y-98570500D01*
X78798000Y-99422500D01*
X78798000Y-99422500D01*
G37*
G36*
X77298000Y-99422500D02*
G01*
X76396000Y-99422500D01*
X76396000Y-98570500D01*
X77298000Y-98570500D01*
X77298000Y-99422500D01*
X77298000Y-99422500D01*
G37*
G36*
X127374000Y-99285500D02*
G01*
X126372000Y-99285500D01*
X126372000Y-98683500D01*
X127374000Y-98683500D01*
X127374000Y-99285500D01*
X127374000Y-99285500D01*
G37*
G36*
X53702500Y-99118000D02*
G01*
X52850500Y-99118000D01*
X52850500Y-98216000D01*
X53702500Y-98216000D01*
X53702500Y-99118000D01*
X53702500Y-99118000D01*
G37*
G36*
X52305500Y-99118000D02*
G01*
X51453500Y-99118000D01*
X51453500Y-98216000D01*
X52305500Y-98216000D01*
X52305500Y-99118000D01*
X52305500Y-99118000D01*
G37*
G36*
X232175000Y-98768000D02*
G01*
X231073000Y-98768000D01*
X231073000Y-97066000D01*
X232175000Y-97066000D01*
X232175000Y-98768000D01*
X232175000Y-98768000D01*
G37*
G36*
X229175000Y-98768000D02*
G01*
X228073000Y-98768000D01*
X228073000Y-97066000D01*
X229175000Y-97066000D01*
X229175000Y-98768000D01*
X229175000Y-98768000D01*
G37*
G36*
X186027000Y-98545000D02*
G01*
X185425000Y-98545000D01*
X185425000Y-97543000D01*
X186027000Y-97543000D01*
X186027000Y-98545000D01*
X186027000Y-98545000D01*
G37*
G36*
X184527000Y-98545000D02*
G01*
X183925000Y-98545000D01*
X183925000Y-97543000D01*
X184527000Y-97543000D01*
X184527000Y-98545000D01*
X184527000Y-98545000D01*
G37*
G36*
X217061000Y-98025500D02*
G01*
X216159000Y-98025500D01*
X216159000Y-97173500D01*
X217061000Y-97173500D01*
X217061000Y-98025500D01*
X217061000Y-98025500D01*
G37*
G36*
X218561000Y-98025500D02*
G01*
X217659000Y-98025500D01*
X217659000Y-97173500D01*
X218561000Y-97173500D01*
X218561000Y-98025500D01*
X218561000Y-98025500D01*
G37*
G36*
X119298000Y-97935500D02*
G01*
X118446000Y-97935500D01*
X118446000Y-97033500D01*
X119298000Y-97033500D01*
X119298000Y-97935500D01*
X119298000Y-97935500D01*
G37*
G36*
X127374000Y-97785500D02*
G01*
X126372000Y-97785500D01*
X126372000Y-97183500D01*
X127374000Y-97183500D01*
X127374000Y-97785500D01*
X127374000Y-97785500D01*
G37*
G36*
X125596000Y-97715500D02*
G01*
X122944000Y-97715500D01*
X122944000Y-96553500D01*
X125596000Y-96553500D01*
X125596000Y-97715500D01*
X125596000Y-97715500D01*
G37*
G36*
X53702500Y-97618000D02*
G01*
X52850500Y-97618000D01*
X52850500Y-96716000D01*
X53702500Y-96716000D01*
X53702500Y-97618000D01*
X53702500Y-97618000D01*
G37*
G36*
X52305500Y-97618000D02*
G01*
X51453500Y-97618000D01*
X51453500Y-96716000D01*
X52305500Y-96716000D01*
X52305500Y-97618000D01*
X52305500Y-97618000D01*
G37*
G36*
X36969000Y-96893500D02*
G01*
X35167000Y-96893500D01*
X35167000Y-96141500D01*
X36969000Y-96141500D01*
X36969000Y-96893500D01*
X36969000Y-96893500D01*
G37*
G36*
X127374000Y-96491500D02*
G01*
X126372000Y-96491500D01*
X126372000Y-95889500D01*
X127374000Y-95889500D01*
X127374000Y-96491500D01*
X127374000Y-96491500D01*
G37*
G36*
X123693000Y-95735500D02*
G01*
X122591000Y-95735500D01*
X122591000Y-94383500D01*
X123693000Y-94383500D01*
X123693000Y-95735500D01*
X123693000Y-95735500D01*
G37*
G36*
X125693000Y-95735500D02*
G01*
X124591000Y-95735500D01*
X124591000Y-94383500D01*
X125693000Y-94383500D01*
X125693000Y-95735500D01*
X125693000Y-95735500D01*
G37*
G36*
X232175000Y-95275500D02*
G01*
X231073000Y-95275500D01*
X231073000Y-93573500D01*
X232175000Y-93573500D01*
X232175000Y-95275500D01*
X232175000Y-95275500D01*
G37*
G36*
X229175000Y-95275500D02*
G01*
X228073000Y-95275500D01*
X228073000Y-93573500D01*
X229175000Y-93573500D01*
X229175000Y-95275500D01*
X229175000Y-95275500D01*
G37*
G36*
X36969000Y-94993500D02*
G01*
X35167000Y-94993500D01*
X35167000Y-94241500D01*
X36969000Y-94241500D01*
X36969000Y-94993500D01*
X36969000Y-94993500D01*
G37*
G36*
X127374000Y-94991500D02*
G01*
X126372000Y-94991500D01*
X126372000Y-94389500D01*
X127374000Y-94389500D01*
X127374000Y-94991500D01*
X127374000Y-94991500D01*
G37*
G36*
X182431000Y-93782500D02*
G01*
X181829000Y-93782500D01*
X181829000Y-92780500D01*
X182431000Y-92780500D01*
X182431000Y-93782500D01*
X182431000Y-93782500D01*
G37*
G36*
X183931000Y-93782500D02*
G01*
X183329000Y-93782500D01*
X183329000Y-92780500D01*
X183931000Y-92780500D01*
X183931000Y-93782500D01*
X183931000Y-93782500D01*
G37*
G36*
X176566000Y-93770500D02*
G01*
X175014000Y-93770500D01*
X175014000Y-91268500D01*
X176566000Y-91268500D01*
X176566000Y-93770500D01*
X176566000Y-93770500D01*
G37*
G36*
X180966000Y-93770500D02*
G01*
X179414000Y-93770500D01*
X179414000Y-91268500D01*
X180966000Y-91268500D01*
X180966000Y-93770500D01*
X180966000Y-93770500D01*
G37*
G36*
X125788000Y-93683500D02*
G01*
X123386000Y-93683500D01*
X123386000Y-92931500D01*
X125788000Y-92931500D01*
X125788000Y-93683500D01*
X125788000Y-93683500D01*
G37*
G36*
X213292000Y-93200500D02*
G01*
X212390000Y-93200500D01*
X212390000Y-89298500D01*
X213292000Y-89298500D01*
X213292000Y-93200500D01*
X213292000Y-93200500D01*
G37*
G36*
X215092000Y-93200500D02*
G01*
X214190000Y-93200500D01*
X214190000Y-89298500D01*
X215092000Y-89298500D01*
X215092000Y-93200500D01*
X215092000Y-93200500D01*
G37*
G36*
X127680000Y-92958500D02*
G01*
X126828000Y-92958500D01*
X126828000Y-92056500D01*
X127680000Y-92056500D01*
X127680000Y-92958500D01*
X127680000Y-92958500D01*
G37*
G36*
X125878000Y-92583500D02*
G01*
X123296000Y-92583500D01*
X123296000Y-90931500D01*
X125878000Y-90931500D01*
X125878000Y-92583500D01*
X125878000Y-92583500D01*
G37*
G36*
X182431000Y-92322000D02*
G01*
X181829000Y-92322000D01*
X181829000Y-91320000D01*
X182431000Y-91320000D01*
X182431000Y-92322000D01*
X182431000Y-92322000D01*
G37*
G36*
X183931000Y-92322000D02*
G01*
X183329000Y-92322000D01*
X183329000Y-91320000D01*
X183931000Y-91320000D01*
X183931000Y-92322000D01*
X183931000Y-92322000D01*
G37*
G36*
X220404000Y-91867000D02*
G01*
X219502000Y-91867000D01*
X219502000Y-87965000D01*
X220404000Y-87965000D01*
X220404000Y-91867000D01*
X220404000Y-91867000D01*
G37*
G36*
X222204000Y-91867000D02*
G01*
X221302000Y-91867000D01*
X221302000Y-87965000D01*
X222204000Y-87965000D01*
X222204000Y-91867000D01*
X222204000Y-91867000D01*
G37*
G36*
X127680000Y-91458500D02*
G01*
X126828000Y-91458500D01*
X126828000Y-90556500D01*
X127680000Y-90556500D01*
X127680000Y-91458500D01*
X127680000Y-91458500D01*
G37*
G36*
X125788000Y-90583500D02*
G01*
X123386000Y-90583500D01*
X123386000Y-89831500D01*
X125788000Y-89831500D01*
X125788000Y-90583500D01*
X125788000Y-90583500D01*
G37*
G36*
X81529500Y-88067500D02*
G01*
X80927500Y-88067500D01*
X80927500Y-87065500D01*
X81529500Y-87065500D01*
X81529500Y-88067500D01*
X81529500Y-88067500D01*
G37*
G36*
X83029500Y-88067500D02*
G01*
X82427500Y-88067500D01*
X82427500Y-87065500D01*
X83029500Y-87065500D01*
X83029500Y-88067500D01*
X83029500Y-88067500D01*
G37*
G36*
X101762000Y-87877000D02*
G01*
X101160000Y-87877000D01*
X101160000Y-86875000D01*
X101762000Y-86875000D01*
X101762000Y-87877000D01*
X101762000Y-87877000D01*
G37*
G36*
X100262000Y-87877000D02*
G01*
X99660000Y-87877000D01*
X99660000Y-86875000D01*
X100262000Y-86875000D01*
X100262000Y-87877000D01*
X100262000Y-87877000D01*
G37*
G36*
X222603000Y-86670500D02*
G01*
X222001000Y-86670500D01*
X222001000Y-85668500D01*
X222603000Y-85668500D01*
X222603000Y-86670500D01*
X222603000Y-86670500D01*
G37*
G36*
X221103000Y-86670500D02*
G01*
X220501000Y-86670500D01*
X220501000Y-85668500D01*
X221103000Y-85668500D01*
X221103000Y-86670500D01*
X221103000Y-86670500D01*
G37*
G36*
X82904500Y-86427500D02*
G01*
X82352500Y-86427500D01*
X82352500Y-85625500D01*
X82904500Y-85625500D01*
X82904500Y-86427500D01*
X82904500Y-86427500D01*
G37*
G36*
X81604500Y-86427500D02*
G01*
X81052500Y-86427500D01*
X81052500Y-85625500D01*
X81604500Y-85625500D01*
X81604500Y-86427500D01*
X81604500Y-86427500D01*
G37*
G36*
X96792500Y-86278000D02*
G01*
X95890500Y-86278000D01*
X95890500Y-85426000D01*
X96792500Y-85426000D01*
X96792500Y-86278000D01*
X96792500Y-86278000D01*
G37*
G36*
X98292500Y-86278000D02*
G01*
X97390500Y-86278000D01*
X97390500Y-85426000D01*
X98292500Y-85426000D01*
X98292500Y-86278000D01*
X98292500Y-86278000D01*
G37*
G36*
X101637000Y-86237000D02*
G01*
X101085000Y-86237000D01*
X101085000Y-85435000D01*
X101637000Y-85435000D01*
X101637000Y-86237000D01*
X101637000Y-86237000D01*
G37*
G36*
X100337000Y-86237000D02*
G01*
X99785000Y-86237000D01*
X99785000Y-85435000D01*
X100337000Y-85435000D01*
X100337000Y-86237000D01*
X100337000Y-86237000D01*
G37*
G36*
X115144000Y-86214500D02*
G01*
X114242000Y-86214500D01*
X114242000Y-85362500D01*
X115144000Y-85362500D01*
X115144000Y-86214500D01*
X115144000Y-86214500D01*
G37*
G36*
X116644000Y-86214500D02*
G01*
X115742000Y-86214500D01*
X115742000Y-85362500D01*
X116644000Y-85362500D01*
X116644000Y-86214500D01*
X116644000Y-86214500D01*
G37*
G36*
X219681000Y-85146500D02*
G01*
X219079000Y-85146500D01*
X219079000Y-84144500D01*
X219681000Y-84144500D01*
X219681000Y-85146500D01*
X219681000Y-85146500D01*
G37*
G36*
X218181000Y-85146500D02*
G01*
X217579000Y-85146500D01*
X217579000Y-84144500D01*
X218181000Y-84144500D01*
X218181000Y-85146500D01*
X218181000Y-85146500D01*
G37*
G36*
X222753000Y-85135000D02*
G01*
X221851000Y-85135000D01*
X221851000Y-84283000D01*
X222753000Y-84283000D01*
X222753000Y-85135000D01*
X222753000Y-85135000D01*
G37*
G36*
X221253000Y-85135000D02*
G01*
X220351000Y-85135000D01*
X220351000Y-84283000D01*
X221253000Y-84283000D01*
X221253000Y-85135000D01*
X221253000Y-85135000D01*
G37*
G36*
X97658500Y-84866000D02*
G01*
X95196500Y-84866000D01*
X95196500Y-83704000D01*
X97658500Y-83704000D01*
X97658500Y-84866000D01*
X97658500Y-84866000D01*
G37*
G36*
X116039000Y-84802500D02*
G01*
X113577000Y-84802500D01*
X113577000Y-83640500D01*
X116039000Y-83640500D01*
X116039000Y-84802500D01*
X116039000Y-84802500D01*
G37*
G36*
X82254500Y-84427500D02*
G01*
X81702500Y-84427500D01*
X81702500Y-83625500D01*
X82254500Y-83625500D01*
X82254500Y-84427500D01*
X82254500Y-84427500D01*
G37*
G36*
X94279000Y-84386000D02*
G01*
X93427000Y-84386000D01*
X93427000Y-83484000D01*
X94279000Y-83484000D01*
X94279000Y-84386000D01*
X94279000Y-84386000D01*
G37*
G36*
X112694000Y-84322500D02*
G01*
X111842000Y-84322500D01*
X111842000Y-83420500D01*
X112694000Y-83420500D01*
X112694000Y-84322500D01*
X112694000Y-84322500D01*
G37*
G36*
X100987000Y-84237000D02*
G01*
X100435000Y-84237000D01*
X100435000Y-83435000D01*
X100987000Y-83435000D01*
X100987000Y-84237000D01*
X100987000Y-84237000D01*
G37*
G36*
X195091000Y-83992000D02*
G01*
X194189000Y-83992000D01*
X194189000Y-83140000D01*
X195091000Y-83140000D01*
X195091000Y-83992000D01*
X195091000Y-83992000D01*
G37*
G36*
X196591000Y-83992000D02*
G01*
X195689000Y-83992000D01*
X195689000Y-83140000D01*
X196591000Y-83140000D01*
X196591000Y-83992000D01*
X196591000Y-83992000D01*
G37*
G36*
X71208000Y-83469000D02*
G01*
X68746000Y-83469000D01*
X68746000Y-82307000D01*
X71208000Y-82307000D01*
X71208000Y-83469000D01*
X71208000Y-83469000D01*
G37*
G36*
X73006500Y-82989000D02*
G01*
X72154500Y-82989000D01*
X72154500Y-82087000D01*
X73006500Y-82087000D01*
X73006500Y-82989000D01*
X73006500Y-82989000D01*
G37*
G36*
X219833000Y-82913500D02*
G01*
X218931000Y-82913500D01*
X218931000Y-79011500D01*
X219833000Y-79011500D01*
X219833000Y-82913500D01*
X219833000Y-82913500D01*
G37*
G36*
X221633000Y-82913500D02*
G01*
X220731000Y-82913500D01*
X220731000Y-79011500D01*
X221633000Y-79011500D01*
X221633000Y-82913500D01*
X221633000Y-82913500D01*
G37*
G36*
X94279000Y-82886000D02*
G01*
X93427000Y-82886000D01*
X93427000Y-81984000D01*
X94279000Y-81984000D01*
X94279000Y-82886000D01*
X94279000Y-82886000D01*
G37*
G36*
X101888000Y-82871500D02*
G01*
X101336000Y-82871500D01*
X101336000Y-82169500D01*
X101888000Y-82169500D01*
X101888000Y-82871500D01*
X101888000Y-82871500D01*
G37*
G36*
X83016500Y-82871500D02*
G01*
X82464500Y-82871500D01*
X82464500Y-82169500D01*
X83016500Y-82169500D01*
X83016500Y-82871500D01*
X83016500Y-82871500D01*
G37*
G36*
X81388500Y-82862000D02*
G01*
X80536500Y-82862000D01*
X80536500Y-81960000D01*
X81388500Y-81960000D01*
X81388500Y-82862000D01*
X81388500Y-82862000D01*
G37*
G36*
X112694000Y-82822500D02*
G01*
X111842000Y-82822500D01*
X111842000Y-81920500D01*
X112694000Y-81920500D01*
X112694000Y-82822500D01*
X112694000Y-82822500D01*
G37*
G36*
X100248000Y-82671500D02*
G01*
X99396000Y-82671500D01*
X99396000Y-81769500D01*
X100248000Y-81769500D01*
X100248000Y-82671500D01*
X100248000Y-82671500D01*
G37*
G36*
X97658500Y-82666000D02*
G01*
X95196500Y-82666000D01*
X95196500Y-81504000D01*
X97658500Y-81504000D01*
X97658500Y-82666000D01*
X97658500Y-82666000D01*
G37*
G36*
X116039000Y-82602500D02*
G01*
X113577000Y-82602500D01*
X113577000Y-81440500D01*
X116039000Y-81440500D01*
X116039000Y-82602500D01*
X116039000Y-82602500D01*
G37*
G36*
X117597000Y-82479500D02*
G01*
X116995000Y-82479500D01*
X116995000Y-81477500D01*
X117597000Y-81477500D01*
X117597000Y-82479500D01*
X117597000Y-82479500D01*
G37*
G36*
X119097000Y-82479500D02*
G01*
X118495000Y-82479500D01*
X118495000Y-81477500D01*
X119097000Y-81477500D01*
X119097000Y-82479500D01*
X119097000Y-82479500D01*
G37*
G36*
X216657000Y-82405500D02*
G01*
X215755000Y-82405500D01*
X215755000Y-78503500D01*
X216657000Y-78503500D01*
X216657000Y-82405500D01*
X216657000Y-82405500D01*
G37*
G36*
X218457000Y-82405500D02*
G01*
X217555000Y-82405500D01*
X217555000Y-78503500D01*
X218457000Y-78503500D01*
X218457000Y-82405500D01*
X218457000Y-82405500D01*
G37*
G36*
X73006500Y-81489000D02*
G01*
X72154500Y-81489000D01*
X72154500Y-80587000D01*
X73006500Y-80587000D01*
X73006500Y-81489000D01*
X73006500Y-81489000D01*
G37*
G36*
X81388500Y-81362000D02*
G01*
X80536500Y-81362000D01*
X80536500Y-80460000D01*
X81388500Y-80460000D01*
X81388500Y-81362000D01*
X81388500Y-81362000D01*
G37*
G36*
X71208000Y-81269000D02*
G01*
X68746000Y-81269000D01*
X68746000Y-80107000D01*
X71208000Y-80107000D01*
X71208000Y-81269000D01*
X71208000Y-81269000D01*
G37*
G36*
X100248000Y-81171500D02*
G01*
X99396000Y-81171500D01*
X99396000Y-80269500D01*
X100248000Y-80269500D01*
X100248000Y-81171500D01*
X100248000Y-81171500D01*
G37*
G36*
X118972000Y-80839500D02*
G01*
X118420000Y-80839500D01*
X118420000Y-80037500D01*
X118972000Y-80037500D01*
X118972000Y-80839500D01*
X118972000Y-80839500D01*
G37*
G36*
X117672000Y-80839500D02*
G01*
X117120000Y-80839500D01*
X117120000Y-80037500D01*
X117672000Y-80037500D01*
X117672000Y-80839500D01*
X117672000Y-80839500D01*
G37*
G36*
X101888000Y-80771500D02*
G01*
X101336000Y-80771500D01*
X101336000Y-80069500D01*
X101888000Y-80069500D01*
X101888000Y-80771500D01*
X101888000Y-80771500D01*
G37*
G36*
X83016500Y-80771500D02*
G01*
X82464500Y-80771500D01*
X82464500Y-80069500D01*
X83016500Y-80069500D01*
X83016500Y-80771500D01*
X83016500Y-80771500D01*
G37*
G36*
X132924000Y-80690000D02*
G01*
X132022000Y-80690000D01*
X132022000Y-79838000D01*
X132924000Y-79838000D01*
X132924000Y-80690000D01*
X132924000Y-80690000D01*
G37*
G36*
X134424000Y-80690000D02*
G01*
X133522000Y-80690000D01*
X133522000Y-79838000D01*
X134424000Y-79838000D01*
X134424000Y-80690000D01*
X134424000Y-80690000D01*
G37*
G36*
X165985000Y-80320500D02*
G01*
X165383000Y-80320500D01*
X165383000Y-79318500D01*
X165985000Y-79318500D01*
X165985000Y-80320500D01*
X165985000Y-80320500D01*
G37*
G36*
X167485000Y-80320500D02*
G01*
X166883000Y-80320500D01*
X166883000Y-79318500D01*
X167485000Y-79318500D01*
X167485000Y-80320500D01*
X167485000Y-80320500D01*
G37*
G36*
X91548500Y-79750500D02*
G01*
X90696500Y-79750500D01*
X90696500Y-78848500D01*
X91548500Y-78848500D01*
X91548500Y-79750500D01*
X91548500Y-79750500D01*
G37*
G36*
X110154000Y-79750500D02*
G01*
X109302000Y-79750500D01*
X109302000Y-78848500D01*
X110154000Y-78848500D01*
X110154000Y-79750500D01*
X110154000Y-79750500D01*
G37*
G36*
X190239000Y-79727500D02*
G01*
X189237000Y-79727500D01*
X189237000Y-79125500D01*
X190239000Y-79125500D01*
X190239000Y-79727500D01*
X190239000Y-79727500D01*
G37*
G36*
X70543000Y-79547000D02*
G01*
X69641000Y-79547000D01*
X69641000Y-78695000D01*
X70543000Y-78695000D01*
X70543000Y-79547000D01*
X70543000Y-79547000D01*
G37*
G36*
X69043000Y-79547000D02*
G01*
X68141000Y-79547000D01*
X68141000Y-78695000D01*
X69043000Y-78695000D01*
X69043000Y-79547000D01*
X69043000Y-79547000D01*
G37*
G36*
X87177500Y-79500500D02*
G01*
X86325500Y-79500500D01*
X86325500Y-77598500D01*
X87177500Y-77598500D01*
X87177500Y-79500500D01*
X87177500Y-79500500D01*
G37*
G36*
X90077500Y-79500500D02*
G01*
X89225500Y-79500500D01*
X89225500Y-77598500D01*
X90077500Y-77598500D01*
X90077500Y-79500500D01*
X90077500Y-79500500D01*
G37*
G36*
X108746000Y-79500500D02*
G01*
X107894000Y-79500500D01*
X107894000Y-77598500D01*
X108746000Y-77598500D01*
X108746000Y-79500500D01*
X108746000Y-79500500D01*
G37*
G36*
X105846000Y-79500500D02*
G01*
X104994000Y-79500500D01*
X104994000Y-77598500D01*
X105846000Y-77598500D01*
X105846000Y-79500500D01*
X105846000Y-79500500D01*
G37*
G36*
X107571000Y-79350500D02*
G01*
X106169000Y-79350500D01*
X106169000Y-77748500D01*
X107571000Y-77748500D01*
X107571000Y-79350500D01*
X107571000Y-79350500D01*
G37*
G36*
X88902500Y-79350500D02*
G01*
X87500500Y-79350500D01*
X87500500Y-77748500D01*
X88902500Y-77748500D01*
X88902500Y-79350500D01*
X88902500Y-79350500D01*
G37*
G36*
X133799000Y-79278000D02*
G01*
X131337000Y-79278000D01*
X131337000Y-78116000D01*
X133799000Y-78116000D01*
X133799000Y-79278000D01*
X133799000Y-79278000D01*
G37*
G36*
X118322000Y-78839500D02*
G01*
X117770000Y-78839500D01*
X117770000Y-78037500D01*
X118322000Y-78037500D01*
X118322000Y-78839500D01*
X118322000Y-78839500D01*
G37*
G36*
X130410000Y-78798000D02*
G01*
X129558000Y-78798000D01*
X129558000Y-77896000D01*
X130410000Y-77896000D01*
X130410000Y-78798000D01*
X130410000Y-78798000D01*
G37*
G36*
X110154000Y-78250500D02*
G01*
X109302000Y-78250500D01*
X109302000Y-77348500D01*
X110154000Y-77348500D01*
X110154000Y-78250500D01*
X110154000Y-78250500D01*
G37*
G36*
X91548500Y-78250500D02*
G01*
X90696500Y-78250500D01*
X90696500Y-77348500D01*
X91548500Y-77348500D01*
X91548500Y-78250500D01*
X91548500Y-78250500D01*
G37*
G36*
X190239000Y-78227500D02*
G01*
X189237000Y-78227500D01*
X189237000Y-77625500D01*
X190239000Y-77625500D01*
X190239000Y-78227500D01*
X190239000Y-78227500D01*
G37*
G36*
X69144500Y-78013000D02*
G01*
X68142500Y-78013000D01*
X68142500Y-77411000D01*
X69144500Y-77411000D01*
X69144500Y-78013000D01*
X69144500Y-78013000D01*
G37*
G36*
X70668500Y-78013000D02*
G01*
X69666500Y-78013000D01*
X69666500Y-77411000D01*
X70668500Y-77411000D01*
X70668500Y-78013000D01*
X70668500Y-78013000D01*
G37*
G36*
X51204000Y-77683500D02*
G01*
X47602000Y-77683500D01*
X47602000Y-74081500D01*
X51204000Y-74081500D01*
X51204000Y-77683500D01*
X51204000Y-77683500D01*
G37*
G36*
X119084000Y-77410500D02*
G01*
X118532000Y-77410500D01*
X118532000Y-76708500D01*
X119084000Y-76708500D01*
X119084000Y-77410500D01*
X119084000Y-77410500D01*
G37*
G36*
X228825348Y-75887070D02*
G01*
X228825350Y-75887071D01*
X228825351Y-75887071D01*
X228966574Y-75945567D01*
X228966577Y-75945569D01*
X229093669Y-76030489D01*
X229201761Y-76138581D01*
X229286681Y-76265673D01*
X229286683Y-76265676D01*
X229345179Y-76406899D01*
X229375000Y-76556821D01*
X229375000Y-76709679D01*
X229345179Y-76859601D01*
X229286683Y-77000824D01*
X229286681Y-77000827D01*
X229201761Y-77127919D01*
X229093669Y-77236011D01*
X228966577Y-77320931D01*
X228966574Y-77320933D01*
X228825351Y-77379429D01*
X228825350Y-77379429D01*
X228825348Y-77379430D01*
X228675431Y-77409250D01*
X228522569Y-77409250D01*
X228372652Y-77379430D01*
X228372650Y-77379429D01*
X228372649Y-77379429D01*
X228231426Y-77320933D01*
X228231423Y-77320931D01*
X228104331Y-77236011D01*
X227996239Y-77127919D01*
X227911319Y-77000827D01*
X227911317Y-77000824D01*
X227852821Y-76859601D01*
X227823000Y-76709679D01*
X227823000Y-76556821D01*
X227852821Y-76406899D01*
X227911317Y-76265676D01*
X227911319Y-76265673D01*
X227996239Y-76138581D01*
X228104331Y-76030489D01*
X228231423Y-75945569D01*
X228231426Y-75945567D01*
X228372649Y-75887071D01*
X228372650Y-75887071D01*
X228372652Y-75887070D01*
X228522569Y-75857250D01*
X228675431Y-75857250D01*
X228825348Y-75887070D01*
X228825348Y-75887070D01*
G37*
G36*
X130410000Y-77298000D02*
G01*
X129558000Y-77298000D01*
X129558000Y-76396000D01*
X130410000Y-76396000D01*
X130410000Y-77298000D01*
X130410000Y-77298000D01*
G37*
G36*
X222539000Y-77272500D02*
G01*
X221937000Y-77272500D01*
X221937000Y-76270500D01*
X222539000Y-76270500D01*
X222539000Y-77272500D01*
X222539000Y-77272500D01*
G37*
G36*
X221039000Y-77272500D02*
G01*
X220437000Y-77272500D01*
X220437000Y-76270500D01*
X221039000Y-76270500D01*
X221039000Y-77272500D01*
X221039000Y-77272500D01*
G37*
G36*
X117456000Y-77210500D02*
G01*
X116604000Y-77210500D01*
X116604000Y-76308500D01*
X117456000Y-76308500D01*
X117456000Y-77210500D01*
X117456000Y-77210500D01*
G37*
G36*
X133799000Y-77078000D02*
G01*
X131337000Y-77078000D01*
X131337000Y-75916000D01*
X133799000Y-75916000D01*
X133799000Y-77078000D01*
X133799000Y-77078000D01*
G37*
G36*
X210267000Y-76753000D02*
G01*
X209365000Y-76753000D01*
X209365000Y-75901000D01*
X210267000Y-75901000D01*
X210267000Y-76753000D01*
X210267000Y-76753000D01*
G37*
G36*
X211767000Y-76753000D02*
G01*
X210865000Y-76753000D01*
X210865000Y-75901000D01*
X211767000Y-75901000D01*
X211767000Y-76753000D01*
X211767000Y-76753000D01*
G37*
G36*
X69144500Y-76513000D02*
G01*
X68142500Y-76513000D01*
X68142500Y-75911000D01*
X69144500Y-75911000D01*
X69144500Y-76513000D01*
X69144500Y-76513000D01*
G37*
G36*
X70668500Y-76513000D02*
G01*
X69666500Y-76513000D01*
X69666500Y-75911000D01*
X70668500Y-75911000D01*
X70668500Y-76513000D01*
X70668500Y-76513000D01*
G37*
G36*
X213417000Y-76362000D02*
G01*
X212415000Y-76362000D01*
X212415000Y-75760000D01*
X213417000Y-75760000D01*
X213417000Y-76362000D01*
X213417000Y-76362000D01*
G37*
G36*
X54608500Y-76326000D02*
G01*
X52706500Y-76326000D01*
X52706500Y-73724000D01*
X54608500Y-73724000D01*
X54608500Y-76326000D01*
X54608500Y-76326000D01*
G37*
G36*
X165985000Y-76002500D02*
G01*
X165383000Y-76002500D01*
X165383000Y-75000500D01*
X165985000Y-75000500D01*
X165985000Y-76002500D01*
X165985000Y-76002500D01*
G37*
G36*
X167485000Y-76002500D02*
G01*
X166883000Y-76002500D01*
X166883000Y-75000500D01*
X167485000Y-75000500D01*
X167485000Y-76002500D01*
X167485000Y-76002500D01*
G37*
G36*
X221212000Y-75782500D02*
G01*
X219860000Y-75782500D01*
X219860000Y-74680500D01*
X221212000Y-74680500D01*
X221212000Y-75782500D01*
X221212000Y-75782500D01*
G37*
G36*
X223116000Y-75782500D02*
G01*
X221764000Y-75782500D01*
X221764000Y-74680500D01*
X223116000Y-74680500D01*
X223116000Y-75782500D01*
X223116000Y-75782500D01*
G37*
G36*
X117456000Y-75710500D02*
G01*
X116604000Y-75710500D01*
X116604000Y-74808500D01*
X117456000Y-74808500D01*
X117456000Y-75710500D01*
X117456000Y-75710500D01*
G37*
G36*
X219310000Y-75432500D02*
G01*
X218458000Y-75432500D01*
X218458000Y-74530500D01*
X219310000Y-74530500D01*
X219310000Y-75432500D01*
X219310000Y-75432500D01*
G37*
G36*
X224518000Y-75432500D02*
G01*
X223666000Y-75432500D01*
X223666000Y-74530500D01*
X224518000Y-74530500D01*
X224518000Y-75432500D01*
X224518000Y-75432500D01*
G37*
G36*
X210117000Y-75367500D02*
G01*
X209515000Y-75367500D01*
X209515000Y-74365500D01*
X210117000Y-74365500D01*
X210117000Y-75367500D01*
X210117000Y-75367500D01*
G37*
G36*
X211617000Y-75367500D02*
G01*
X211015000Y-75367500D01*
X211015000Y-74365500D01*
X211617000Y-74365500D01*
X211617000Y-75367500D01*
X211617000Y-75367500D01*
G37*
G36*
X119084000Y-75310500D02*
G01*
X118532000Y-75310500D01*
X118532000Y-74608500D01*
X119084000Y-74608500D01*
X119084000Y-75310500D01*
X119084000Y-75310500D01*
G37*
G36*
X213417000Y-74862000D02*
G01*
X212415000Y-74862000D01*
X212415000Y-74260000D01*
X213417000Y-74260000D01*
X213417000Y-74862000D01*
X213417000Y-74862000D01*
G37*
G36*
X46504000Y-74683500D02*
G01*
X42902000Y-74683500D01*
X42902000Y-71081500D01*
X46504000Y-71081500D01*
X46504000Y-74683500D01*
X46504000Y-74683500D01*
G37*
G36*
X127490000Y-74353000D02*
G01*
X126638000Y-74353000D01*
X126638000Y-73451000D01*
X127490000Y-73451000D01*
X127490000Y-74353000D01*
X127490000Y-74353000D01*
G37*
G36*
X126082000Y-74103000D02*
G01*
X125230000Y-74103000D01*
X125230000Y-72201000D01*
X126082000Y-72201000D01*
X126082000Y-74103000D01*
X126082000Y-74103000D01*
G37*
G36*
X123182000Y-74103000D02*
G01*
X122330000Y-74103000D01*
X122330000Y-72201000D01*
X123182000Y-72201000D01*
X123182000Y-74103000D01*
X123182000Y-74103000D01*
G37*
G36*
X139291000Y-74097500D02*
G01*
X138689000Y-74097500D01*
X138689000Y-73095500D01*
X139291000Y-73095500D01*
X139291000Y-74097500D01*
X139291000Y-74097500D01*
G37*
G36*
X137791000Y-74097500D02*
G01*
X137189000Y-74097500D01*
X137189000Y-73095500D01*
X137791000Y-73095500D01*
X137791000Y-74097500D01*
X137791000Y-74097500D01*
G37*
G36*
X63371500Y-74012000D02*
G01*
X61469500Y-74012000D01*
X61469500Y-73160000D01*
X63371500Y-73160000D01*
X63371500Y-74012000D01*
X63371500Y-74012000D01*
G37*
G36*
X124907000Y-73953000D02*
G01*
X123505000Y-73953000D01*
X123505000Y-72351000D01*
X124907000Y-72351000D01*
X124907000Y-73953000D01*
X124907000Y-73953000D01*
G37*
G36*
X219310000Y-73932500D02*
G01*
X218458000Y-73932500D01*
X218458000Y-73030500D01*
X219310000Y-73030500D01*
X219310000Y-73932500D01*
X219310000Y-73932500D01*
G37*
G36*
X224518000Y-73932500D02*
G01*
X223666000Y-73932500D01*
X223666000Y-73030500D01*
X224518000Y-73030500D01*
X224518000Y-73932500D01*
X224518000Y-73932500D01*
G37*
G36*
X221212000Y-73782500D02*
G01*
X219860000Y-73782500D01*
X219860000Y-72680500D01*
X221212000Y-72680500D01*
X221212000Y-73782500D01*
X221212000Y-73782500D01*
G37*
G36*
X223116000Y-73782500D02*
G01*
X221764000Y-73782500D01*
X221764000Y-72680500D01*
X223116000Y-72680500D01*
X223116000Y-73782500D01*
X223116000Y-73782500D01*
G37*
G36*
X211617000Y-73780000D02*
G01*
X211015000Y-73780000D01*
X211015000Y-72778000D01*
X211617000Y-72778000D01*
X211617000Y-73780000D01*
X211617000Y-73780000D01*
G37*
G36*
X210117000Y-73780000D02*
G01*
X209515000Y-73780000D01*
X209515000Y-72778000D01*
X210117000Y-72778000D01*
X210117000Y-73780000D01*
X210117000Y-73780000D01*
G37*
G36*
X213984564Y-71633389D02*
G01*
X214175833Y-71712615D01*
X214175835Y-71712616D01*
X214265601Y-71772596D01*
X214347973Y-71827635D01*
X214494365Y-71974027D01*
X214609385Y-72146167D01*
X214688611Y-72337436D01*
X214729000Y-72540484D01*
X214729000Y-72747516D01*
X214688611Y-72950564D01*
X214625470Y-73103000D01*
X214609384Y-73141835D01*
X214494365Y-73313973D01*
X214347973Y-73460365D01*
X214175835Y-73575384D01*
X214175834Y-73575385D01*
X214175833Y-73575385D01*
X213984564Y-73654611D01*
X213781516Y-73695000D01*
X213574484Y-73695000D01*
X213371436Y-73654611D01*
X213180167Y-73575385D01*
X213180166Y-73575385D01*
X213180165Y-73575384D01*
X213008027Y-73460365D01*
X212861635Y-73313973D01*
X212746616Y-73141835D01*
X212730530Y-73103000D01*
X212667389Y-72950564D01*
X212627000Y-72747516D01*
X212627000Y-72540484D01*
X212667389Y-72337436D01*
X212746615Y-72146167D01*
X212861635Y-71974027D01*
X213008027Y-71827635D01*
X213090399Y-71772596D01*
X213180165Y-71712616D01*
X213180167Y-71712615D01*
X213371436Y-71633389D01*
X213574484Y-71593000D01*
X213781516Y-71593000D01*
X213984564Y-71633389D01*
X213984564Y-71633389D01*
G37*
G36*
X207484564Y-71633389D02*
G01*
X207675833Y-71712615D01*
X207675835Y-71712616D01*
X207765601Y-71772596D01*
X207847973Y-71827635D01*
X207994365Y-71974027D01*
X208109385Y-72146167D01*
X208188611Y-72337436D01*
X208229000Y-72540484D01*
X208229000Y-72747516D01*
X208188611Y-72950564D01*
X208125470Y-73103000D01*
X208109384Y-73141835D01*
X207994365Y-73313973D01*
X207847973Y-73460365D01*
X207675835Y-73575384D01*
X207675834Y-73575385D01*
X207675833Y-73575385D01*
X207484564Y-73654611D01*
X207281516Y-73695000D01*
X207074484Y-73695000D01*
X206871436Y-73654611D01*
X206680167Y-73575385D01*
X206680166Y-73575385D01*
X206680165Y-73575384D01*
X206508027Y-73460365D01*
X206361635Y-73313973D01*
X206246616Y-73141835D01*
X206230530Y-73103000D01*
X206167389Y-72950564D01*
X206127000Y-72747516D01*
X206127000Y-72540484D01*
X206167389Y-72337436D01*
X206246615Y-72146167D01*
X206361635Y-71974027D01*
X206508027Y-71827635D01*
X206590399Y-71772596D01*
X206680165Y-71712616D01*
X206680167Y-71712615D01*
X206871436Y-71633389D01*
X207074484Y-71593000D01*
X207281516Y-71593000D01*
X207484564Y-71633389D01*
X207484564Y-71633389D01*
G37*
G36*
X64878500Y-73337000D02*
G01*
X64026500Y-73337000D01*
X64026500Y-72435000D01*
X64878500Y-72435000D01*
X64878500Y-73337000D01*
X64878500Y-73337000D01*
G37*
G36*
X127490000Y-72853000D02*
G01*
X126638000Y-72853000D01*
X126638000Y-71951000D01*
X127490000Y-71951000D01*
X127490000Y-72853000D01*
X127490000Y-72853000D01*
G37*
G36*
X63221500Y-72837000D02*
G01*
X61619500Y-72837000D01*
X61619500Y-71435000D01*
X63221500Y-71435000D01*
X63221500Y-72837000D01*
X63221500Y-72837000D01*
G37*
G36*
X54608500Y-72326000D02*
G01*
X52706500Y-72326000D01*
X52706500Y-69724000D01*
X54608500Y-69724000D01*
X54608500Y-72326000D01*
X54608500Y-72326000D01*
G37*
G36*
X172932000Y-72203500D02*
G01*
X172380000Y-72203500D01*
X172380000Y-71501500D01*
X172932000Y-71501500D01*
X172932000Y-72203500D01*
X172932000Y-72203500D01*
G37*
G36*
X210842000Y-72076500D02*
G01*
X210290000Y-72076500D01*
X210290000Y-71274500D01*
X210842000Y-71274500D01*
X210842000Y-72076500D01*
X210842000Y-72076500D01*
G37*
G36*
X64878500Y-71837000D02*
G01*
X64026500Y-71837000D01*
X64026500Y-70935000D01*
X64878500Y-70935000D01*
X64878500Y-71837000D01*
X64878500Y-71837000D01*
G37*
G36*
X102643585Y-68760002D02*
G01*
X102793410Y-68789804D01*
X103075674Y-68906721D01*
X103329705Y-69076459D01*
X103545741Y-69292495D01*
X103715479Y-69546526D01*
X103832396Y-69828790D01*
X103857376Y-69954375D01*
X103880575Y-70071000D01*
X103892000Y-70128440D01*
X103892000Y-70433960D01*
X103832396Y-70733610D01*
X103715479Y-71015874D01*
X103545741Y-71269905D01*
X103329705Y-71485941D01*
X103075674Y-71655679D01*
X102793410Y-71772596D01*
X102643585Y-71802398D01*
X102493761Y-71832200D01*
X102188239Y-71832200D01*
X102038415Y-71802398D01*
X101888590Y-71772596D01*
X101606326Y-71655679D01*
X101352295Y-71485941D01*
X101136259Y-71269905D01*
X100966521Y-71015874D01*
X100849604Y-70733610D01*
X100790000Y-70433960D01*
X100790000Y-70128440D01*
X100801426Y-70071000D01*
X100824624Y-69954375D01*
X100849604Y-69828790D01*
X100966521Y-69546526D01*
X101136259Y-69292495D01*
X101352295Y-69076459D01*
X101606326Y-68906721D01*
X101888590Y-68789804D01*
X102038415Y-68760002D01*
X102188239Y-68730200D01*
X102493761Y-68730200D01*
X102643585Y-68760002D01*
X102643585Y-68760002D01*
G37*
G36*
X38643385Y-68760002D02*
G01*
X38793210Y-68789804D01*
X39075474Y-68906721D01*
X39329505Y-69076459D01*
X39545541Y-69292495D01*
X39715279Y-69546526D01*
X39832196Y-69828790D01*
X39857176Y-69954375D01*
X39880375Y-70071000D01*
X39891800Y-70128440D01*
X39891800Y-70433960D01*
X39832196Y-70733610D01*
X39715279Y-71015874D01*
X39545541Y-71269905D01*
X39329505Y-71485941D01*
X39075474Y-71655679D01*
X38793210Y-71772596D01*
X38643385Y-71802398D01*
X38493561Y-71832200D01*
X38188039Y-71832200D01*
X38038215Y-71802398D01*
X37888390Y-71772596D01*
X37606126Y-71655679D01*
X37352095Y-71485941D01*
X37136059Y-71269905D01*
X36966321Y-71015874D01*
X36849404Y-70733610D01*
X36789800Y-70433960D01*
X36789800Y-70128440D01*
X36801226Y-70071000D01*
X36824424Y-69954375D01*
X36849404Y-69828790D01*
X36966321Y-69546526D01*
X37136059Y-69292495D01*
X37352095Y-69076459D01*
X37606126Y-68906721D01*
X37888390Y-68789804D01*
X38038215Y-68760002D01*
X38188039Y-68730200D01*
X38493561Y-68730200D01*
X38643385Y-68760002D01*
X38643385Y-68760002D01*
G37*
G36*
X166643585Y-68760002D02*
G01*
X166793410Y-68789804D01*
X167075674Y-68906721D01*
X167329705Y-69076459D01*
X167545741Y-69292495D01*
X167715479Y-69546526D01*
X167832396Y-69828790D01*
X167857376Y-69954375D01*
X167880575Y-70071000D01*
X167892000Y-70128440D01*
X167892000Y-70433960D01*
X167832396Y-70733610D01*
X167715479Y-71015874D01*
X167545741Y-71269905D01*
X167329705Y-71485941D01*
X167075674Y-71655679D01*
X166793410Y-71772596D01*
X166643585Y-71802398D01*
X166493761Y-71832200D01*
X166188239Y-71832200D01*
X166038415Y-71802398D01*
X165888590Y-71772596D01*
X165606326Y-71655679D01*
X165352295Y-71485941D01*
X165136259Y-71269905D01*
X164966521Y-71015874D01*
X164849604Y-70733610D01*
X164790000Y-70433960D01*
X164790000Y-70128440D01*
X164801426Y-70071000D01*
X164824624Y-69954375D01*
X164849604Y-69828790D01*
X164966521Y-69546526D01*
X165136259Y-69292495D01*
X165352295Y-69076459D01*
X165606326Y-68906721D01*
X165888590Y-68789804D01*
X166038415Y-68760002D01*
X166188239Y-68730200D01*
X166493761Y-68730200D01*
X166643585Y-68760002D01*
X166643585Y-68760002D01*
G37*
G36*
X230643585Y-68760002D02*
G01*
X230793410Y-68789804D01*
X231075674Y-68906721D01*
X231329705Y-69076459D01*
X231545741Y-69292495D01*
X231715479Y-69546526D01*
X231832396Y-69828790D01*
X231857376Y-69954375D01*
X231880575Y-70071000D01*
X231892000Y-70128440D01*
X231892000Y-70433960D01*
X231832396Y-70733610D01*
X231715479Y-71015874D01*
X231545741Y-71269905D01*
X231329705Y-71485941D01*
X231075674Y-71655679D01*
X230793410Y-71772596D01*
X230643585Y-71802398D01*
X230493761Y-71832200D01*
X230188239Y-71832200D01*
X230038415Y-71802398D01*
X229888590Y-71772596D01*
X229606326Y-71655679D01*
X229352295Y-71485941D01*
X229136259Y-71269905D01*
X228966521Y-71015874D01*
X228849604Y-70733610D01*
X228790000Y-70433960D01*
X228790000Y-70128440D01*
X228801426Y-70071000D01*
X228824624Y-69954375D01*
X228849604Y-69828790D01*
X228966521Y-69546526D01*
X229136259Y-69292495D01*
X229352295Y-69076459D01*
X229606326Y-68906721D01*
X229888590Y-68789804D01*
X230038415Y-68760002D01*
X230188239Y-68730200D01*
X230493761Y-68730200D01*
X230643585Y-68760002D01*
X230643585Y-68760002D01*
G37*
G36*
X51204000Y-71683500D02*
G01*
X47602000Y-71683500D01*
X47602000Y-68081500D01*
X51204000Y-68081500D01*
X51204000Y-71683500D01*
X51204000Y-71683500D01*
G37*
G36*
X63371500Y-71112000D02*
G01*
X61469500Y-71112000D01*
X61469500Y-70260000D01*
X63371500Y-70260000D01*
X63371500Y-71112000D01*
X63371500Y-71112000D01*
G37*
G36*
X176384000Y-71051000D02*
G01*
X175532000Y-71051000D01*
X175532000Y-70149000D01*
X176384000Y-70149000D01*
X176384000Y-71051000D01*
X176384000Y-71051000D01*
G37*
G36*
X179178000Y-71051000D02*
G01*
X178326000Y-71051000D01*
X178326000Y-70149000D01*
X179178000Y-70149000D01*
X179178000Y-71051000D01*
X179178000Y-71051000D01*
G37*
G36*
X174988000Y-71051000D02*
G01*
X174136000Y-71051000D01*
X174136000Y-70149000D01*
X174988000Y-70149000D01*
X174988000Y-71051000D01*
X174988000Y-71051000D01*
G37*
G36*
X177782000Y-71051000D02*
G01*
X176930000Y-71051000D01*
X176930000Y-70149000D01*
X177782000Y-70149000D01*
X177782000Y-71051000D01*
X177782000Y-71051000D01*
G37*
G36*
X207005000Y-70795500D02*
G01*
X206403000Y-70795500D01*
X206403000Y-69793500D01*
X207005000Y-69793500D01*
X207005000Y-70795500D01*
X207005000Y-70795500D01*
G37*
G36*
X208505000Y-70795500D02*
G01*
X207903000Y-70795500D01*
X207903000Y-69793500D01*
X208505000Y-69793500D01*
X208505000Y-70795500D01*
X208505000Y-70795500D01*
G37*
G36*
X216707000Y-70479500D02*
G01*
X215855000Y-70479500D01*
X215855000Y-69577500D01*
X216707000Y-69577500D01*
X216707000Y-70479500D01*
X216707000Y-70479500D01*
G37*
G36*
X221089000Y-70221000D02*
G01*
X220237000Y-70221000D01*
X220237000Y-68319000D01*
X221089000Y-68319000D01*
X221089000Y-70221000D01*
X221089000Y-70221000D01*
G37*
G36*
X218189000Y-70221000D02*
G01*
X217337000Y-70221000D01*
X217337000Y-68319000D01*
X218189000Y-68319000D01*
X218189000Y-70221000D01*
X218189000Y-70221000D01*
G37*
G36*
X172932000Y-70103500D02*
G01*
X172380000Y-70103500D01*
X172380000Y-69401500D01*
X172932000Y-69401500D01*
X172932000Y-70103500D01*
X172932000Y-70103500D01*
G37*
G36*
X210192000Y-70076500D02*
G01*
X209640000Y-70076500D01*
X209640000Y-69274500D01*
X210192000Y-69274500D01*
X210192000Y-70076500D01*
X210192000Y-70076500D01*
G37*
G36*
X211492000Y-70076500D02*
G01*
X210940000Y-70076500D01*
X210940000Y-69274500D01*
X211492000Y-69274500D01*
X211492000Y-70076500D01*
X211492000Y-70076500D01*
G37*
G36*
X219914000Y-70071000D02*
G01*
X218512000Y-70071000D01*
X218512000Y-68469000D01*
X219914000Y-68469000D01*
X219914000Y-70071000D01*
X219914000Y-70071000D01*
G37*
G36*
X188388443Y-68193519D02*
G01*
X188454627Y-68200037D01*
X188624466Y-68251557D01*
X188780991Y-68335222D01*
X188816729Y-68364552D01*
X188918186Y-68447814D01*
X189001448Y-68549271D01*
X189030778Y-68585009D01*
X189114443Y-68741534D01*
X189165963Y-68911373D01*
X189183359Y-69088000D01*
X189165963Y-69264627D01*
X189114443Y-69434466D01*
X189030778Y-69590991D01*
X189001448Y-69626729D01*
X188918186Y-69728186D01*
X188845480Y-69787853D01*
X188780991Y-69840778D01*
X188624466Y-69924443D01*
X188454627Y-69975963D01*
X188388443Y-69982481D01*
X188322260Y-69989000D01*
X188233740Y-69989000D01*
X188167557Y-69982481D01*
X188101373Y-69975963D01*
X187931534Y-69924443D01*
X187775009Y-69840778D01*
X187710520Y-69787853D01*
X187637814Y-69728186D01*
X187554552Y-69626729D01*
X187525222Y-69590991D01*
X187441557Y-69434466D01*
X187390037Y-69264627D01*
X187372641Y-69088000D01*
X187390037Y-68911373D01*
X187441557Y-68741534D01*
X187525222Y-68585009D01*
X187554552Y-68549271D01*
X187637814Y-68447814D01*
X187739271Y-68364552D01*
X187775009Y-68335222D01*
X187931534Y-68251557D01*
X188101373Y-68200037D01*
X188167557Y-68193519D01*
X188233740Y-68187000D01*
X188322260Y-68187000D01*
X188388443Y-68193519D01*
X188388443Y-68193519D01*
G37*
G36*
X204419000Y-69989000D02*
G01*
X202617000Y-69989000D01*
X202617000Y-68187000D01*
X204419000Y-68187000D01*
X204419000Y-69989000D01*
X204419000Y-69989000D01*
G37*
G36*
X185851512Y-68191927D02*
G01*
X186000812Y-68221624D01*
X186164784Y-68289544D01*
X186312354Y-68388147D01*
X186437853Y-68513646D01*
X186536456Y-68661216D01*
X186604376Y-68825188D01*
X186639000Y-68999259D01*
X186639000Y-69176741D01*
X186604376Y-69350812D01*
X186536456Y-69514784D01*
X186437853Y-69662354D01*
X186312354Y-69787853D01*
X186164784Y-69886456D01*
X186000812Y-69954376D01*
X185851512Y-69984073D01*
X185826742Y-69989000D01*
X185649258Y-69989000D01*
X185624488Y-69984073D01*
X185475188Y-69954376D01*
X185311216Y-69886456D01*
X185163646Y-69787853D01*
X185038147Y-69662354D01*
X184939544Y-69514784D01*
X184871624Y-69350812D01*
X184837000Y-69176741D01*
X184837000Y-68999259D01*
X184871624Y-68825188D01*
X184939544Y-68661216D01*
X185038147Y-68513646D01*
X185163646Y-68388147D01*
X185311216Y-68289544D01*
X185475188Y-68221624D01*
X185624488Y-68191927D01*
X185649258Y-68187000D01*
X185826742Y-68187000D01*
X185851512Y-68191927D01*
X185851512Y-68191927D01*
G37*
G36*
X190928443Y-68193519D02*
G01*
X190994627Y-68200037D01*
X191164466Y-68251557D01*
X191320991Y-68335222D01*
X191356729Y-68364552D01*
X191458186Y-68447814D01*
X191541448Y-68549271D01*
X191570778Y-68585009D01*
X191654443Y-68741534D01*
X191705963Y-68911373D01*
X191723359Y-69088000D01*
X191705963Y-69264627D01*
X191654443Y-69434466D01*
X191570778Y-69590991D01*
X191541448Y-69626729D01*
X191458186Y-69728186D01*
X191385480Y-69787853D01*
X191320991Y-69840778D01*
X191164466Y-69924443D01*
X190994627Y-69975963D01*
X190928443Y-69982481D01*
X190862260Y-69989000D01*
X190773740Y-69989000D01*
X190707557Y-69982481D01*
X190641373Y-69975963D01*
X190471534Y-69924443D01*
X190315009Y-69840778D01*
X190250520Y-69787853D01*
X190177814Y-69728186D01*
X190094552Y-69626729D01*
X190065222Y-69590991D01*
X189981557Y-69434466D01*
X189930037Y-69264627D01*
X189912641Y-69088000D01*
X189930037Y-68911373D01*
X189981557Y-68741534D01*
X190065222Y-68585009D01*
X190094552Y-68549271D01*
X190177814Y-68447814D01*
X190279271Y-68364552D01*
X190315009Y-68335222D01*
X190471534Y-68251557D01*
X190641373Y-68200037D01*
X190707557Y-68193519D01*
X190773740Y-68187000D01*
X190862260Y-68187000D01*
X190928443Y-68193519D01*
X190928443Y-68193519D01*
G37*
G36*
X201088443Y-68193519D02*
G01*
X201154627Y-68200037D01*
X201324466Y-68251557D01*
X201480991Y-68335222D01*
X201516729Y-68364552D01*
X201618186Y-68447814D01*
X201701448Y-68549271D01*
X201730778Y-68585009D01*
X201814443Y-68741534D01*
X201865963Y-68911373D01*
X201883359Y-69088000D01*
X201865963Y-69264627D01*
X201814443Y-69434466D01*
X201730778Y-69590991D01*
X201701448Y-69626729D01*
X201618186Y-69728186D01*
X201545480Y-69787853D01*
X201480991Y-69840778D01*
X201324466Y-69924443D01*
X201154627Y-69975963D01*
X201088443Y-69982481D01*
X201022260Y-69989000D01*
X200933740Y-69989000D01*
X200867557Y-69982481D01*
X200801373Y-69975963D01*
X200631534Y-69924443D01*
X200475009Y-69840778D01*
X200410520Y-69787853D01*
X200337814Y-69728186D01*
X200254552Y-69626729D01*
X200225222Y-69590991D01*
X200141557Y-69434466D01*
X200090037Y-69264627D01*
X200072641Y-69088000D01*
X200090037Y-68911373D01*
X200141557Y-68741534D01*
X200225222Y-68585009D01*
X200254552Y-68549271D01*
X200337814Y-68447814D01*
X200439271Y-68364552D01*
X200475009Y-68335222D01*
X200631534Y-68251557D01*
X200801373Y-68200037D01*
X200867557Y-68193519D01*
X200933740Y-68187000D01*
X201022260Y-68187000D01*
X201088443Y-68193519D01*
X201088443Y-68193519D01*
G37*
G36*
X196008443Y-68193519D02*
G01*
X196074627Y-68200037D01*
X196244466Y-68251557D01*
X196400991Y-68335222D01*
X196436729Y-68364552D01*
X196538186Y-68447814D01*
X196621448Y-68549271D01*
X196650778Y-68585009D01*
X196734443Y-68741534D01*
X196785963Y-68911373D01*
X196803359Y-69088000D01*
X196785963Y-69264627D01*
X196734443Y-69434466D01*
X196650778Y-69590991D01*
X196621448Y-69626729D01*
X196538186Y-69728186D01*
X196465480Y-69787853D01*
X196400991Y-69840778D01*
X196244466Y-69924443D01*
X196074627Y-69975963D01*
X196008443Y-69982481D01*
X195942260Y-69989000D01*
X195853740Y-69989000D01*
X195787557Y-69982481D01*
X195721373Y-69975963D01*
X195551534Y-69924443D01*
X195395009Y-69840778D01*
X195330520Y-69787853D01*
X195257814Y-69728186D01*
X195174552Y-69626729D01*
X195145222Y-69590991D01*
X195061557Y-69434466D01*
X195010037Y-69264627D01*
X194992641Y-69088000D01*
X195010037Y-68911373D01*
X195061557Y-68741534D01*
X195145222Y-68585009D01*
X195174552Y-68549271D01*
X195257814Y-68447814D01*
X195359271Y-68364552D01*
X195395009Y-68335222D01*
X195551534Y-68251557D01*
X195721373Y-68200037D01*
X195787557Y-68193519D01*
X195853740Y-68187000D01*
X195942260Y-68187000D01*
X196008443Y-68193519D01*
X196008443Y-68193519D01*
G37*
G36*
X198548443Y-68193519D02*
G01*
X198614627Y-68200037D01*
X198784466Y-68251557D01*
X198940991Y-68335222D01*
X198976729Y-68364552D01*
X199078186Y-68447814D01*
X199161448Y-68549271D01*
X199190778Y-68585009D01*
X199274443Y-68741534D01*
X199325963Y-68911373D01*
X199343359Y-69088000D01*
X199325963Y-69264627D01*
X199274443Y-69434466D01*
X199190778Y-69590991D01*
X199161448Y-69626729D01*
X199078186Y-69728186D01*
X199005480Y-69787853D01*
X198940991Y-69840778D01*
X198784466Y-69924443D01*
X198614627Y-69975963D01*
X198548443Y-69982481D01*
X198482260Y-69989000D01*
X198393740Y-69989000D01*
X198327557Y-69982481D01*
X198261373Y-69975963D01*
X198091534Y-69924443D01*
X197935009Y-69840778D01*
X197870520Y-69787853D01*
X197797814Y-69728186D01*
X197714552Y-69626729D01*
X197685222Y-69590991D01*
X197601557Y-69434466D01*
X197550037Y-69264627D01*
X197532641Y-69088000D01*
X197550037Y-68911373D01*
X197601557Y-68741534D01*
X197685222Y-68585009D01*
X197714552Y-68549271D01*
X197797814Y-68447814D01*
X197899271Y-68364552D01*
X197935009Y-68335222D01*
X198091534Y-68251557D01*
X198261373Y-68200037D01*
X198327557Y-68193519D01*
X198393740Y-68187000D01*
X198482260Y-68187000D01*
X198548443Y-68193519D01*
X198548443Y-68193519D01*
G37*
G36*
X193468443Y-68193519D02*
G01*
X193534627Y-68200037D01*
X193704466Y-68251557D01*
X193860991Y-68335222D01*
X193896729Y-68364552D01*
X193998186Y-68447814D01*
X194081448Y-68549271D01*
X194110778Y-68585009D01*
X194194443Y-68741534D01*
X194245963Y-68911373D01*
X194263359Y-69088000D01*
X194245963Y-69264627D01*
X194194443Y-69434466D01*
X194110778Y-69590991D01*
X194081448Y-69626729D01*
X193998186Y-69728186D01*
X193925480Y-69787853D01*
X193860991Y-69840778D01*
X193704466Y-69924443D01*
X193534627Y-69975963D01*
X193468443Y-69982481D01*
X193402260Y-69989000D01*
X193313740Y-69989000D01*
X193247557Y-69982481D01*
X193181373Y-69975963D01*
X193011534Y-69924443D01*
X192855009Y-69840778D01*
X192790520Y-69787853D01*
X192717814Y-69728186D01*
X192634552Y-69626729D01*
X192605222Y-69590991D01*
X192521557Y-69434466D01*
X192470037Y-69264627D01*
X192452641Y-69088000D01*
X192470037Y-68911373D01*
X192521557Y-68741534D01*
X192605222Y-68585009D01*
X192634552Y-68549271D01*
X192717814Y-68447814D01*
X192819271Y-68364552D01*
X192855009Y-68335222D01*
X193011534Y-68251557D01*
X193181373Y-68200037D01*
X193247557Y-68193519D01*
X193313740Y-68187000D01*
X193402260Y-68187000D01*
X193468443Y-68193519D01*
X193468443Y-68193519D01*
G37*
G36*
X137791000Y-69779500D02*
G01*
X137189000Y-69779500D01*
X137189000Y-68777500D01*
X137791000Y-68777500D01*
X137791000Y-69779500D01*
X137791000Y-69779500D01*
G37*
G36*
X139291000Y-69779500D02*
G01*
X138689000Y-69779500D01*
X138689000Y-68777500D01*
X139291000Y-68777500D01*
X139291000Y-69779500D01*
X139291000Y-69779500D01*
G37*
G36*
X108787000Y-69735000D02*
G01*
X106985000Y-69735000D01*
X106985000Y-67933000D01*
X108787000Y-67933000D01*
X108787000Y-69735000D01*
X108787000Y-69735000D01*
G37*
G36*
X177782000Y-69551000D02*
G01*
X176930000Y-69551000D01*
X176930000Y-68649000D01*
X177782000Y-68649000D01*
X177782000Y-69551000D01*
X177782000Y-69551000D01*
G37*
G36*
X174988000Y-69551000D02*
G01*
X174136000Y-69551000D01*
X174136000Y-68649000D01*
X174988000Y-68649000D01*
X174988000Y-69551000D01*
X174988000Y-69551000D01*
G37*
G36*
X176384000Y-69551000D02*
G01*
X175532000Y-69551000D01*
X175532000Y-68649000D01*
X176384000Y-68649000D01*
X176384000Y-69551000D01*
X176384000Y-69551000D01*
G37*
G36*
X179178000Y-69551000D02*
G01*
X178326000Y-69551000D01*
X178326000Y-68649000D01*
X179178000Y-68649000D01*
X179178000Y-69551000D01*
X179178000Y-69551000D01*
G37*
G36*
X207484564Y-67133389D02*
G01*
X207675833Y-67212615D01*
X207675835Y-67212616D01*
X207847973Y-67327635D01*
X207994365Y-67474027D01*
X208101590Y-67634500D01*
X208109385Y-67646167D01*
X208188611Y-67837436D01*
X208229000Y-68040484D01*
X208229000Y-68247516D01*
X208188611Y-68450564D01*
X208162481Y-68513647D01*
X208109384Y-68641835D01*
X207994365Y-68813973D01*
X207847973Y-68960365D01*
X207675835Y-69075384D01*
X207675834Y-69075385D01*
X207675833Y-69075385D01*
X207484564Y-69154611D01*
X207281516Y-69195000D01*
X207074484Y-69195000D01*
X206871436Y-69154611D01*
X206680167Y-69075385D01*
X206680166Y-69075385D01*
X206680165Y-69075384D01*
X206508027Y-68960365D01*
X206361635Y-68813973D01*
X206246616Y-68641835D01*
X206193519Y-68513647D01*
X206167389Y-68450564D01*
X206127000Y-68247516D01*
X206127000Y-68040484D01*
X206167389Y-67837436D01*
X206246615Y-67646167D01*
X206254411Y-67634500D01*
X206361635Y-67474027D01*
X206508027Y-67327635D01*
X206680165Y-67212616D01*
X206680167Y-67212615D01*
X206871436Y-67133389D01*
X207074484Y-67093000D01*
X207281516Y-67093000D01*
X207484564Y-67133389D01*
X207484564Y-67133389D01*
G37*
G36*
X213984564Y-67133389D02*
G01*
X214175833Y-67212615D01*
X214175835Y-67212616D01*
X214347973Y-67327635D01*
X214494365Y-67474027D01*
X214601590Y-67634500D01*
X214609385Y-67646167D01*
X214688611Y-67837436D01*
X214729000Y-68040484D01*
X214729000Y-68247516D01*
X214688611Y-68450564D01*
X214662481Y-68513647D01*
X214609384Y-68641835D01*
X214494365Y-68813973D01*
X214347973Y-68960365D01*
X214175835Y-69075384D01*
X214175834Y-69075385D01*
X214175833Y-69075385D01*
X213984564Y-69154611D01*
X213781516Y-69195000D01*
X213574484Y-69195000D01*
X213371436Y-69154611D01*
X213180167Y-69075385D01*
X213180166Y-69075385D01*
X213180165Y-69075384D01*
X213008027Y-68960365D01*
X212861635Y-68813973D01*
X212746616Y-68641835D01*
X212693519Y-68513647D01*
X212667389Y-68450564D01*
X212627000Y-68247516D01*
X212627000Y-68040484D01*
X212667389Y-67837436D01*
X212746615Y-67646167D01*
X212754411Y-67634500D01*
X212861635Y-67474027D01*
X213008027Y-67327635D01*
X213180165Y-67212616D01*
X213180167Y-67212615D01*
X213371436Y-67133389D01*
X213574484Y-67093000D01*
X213781516Y-67093000D01*
X213984564Y-67133389D01*
X213984564Y-67133389D01*
G37*
G36*
X216707000Y-68979500D02*
G01*
X215855000Y-68979500D01*
X215855000Y-68077500D01*
X216707000Y-68077500D01*
X216707000Y-68979500D01*
X216707000Y-68979500D01*
G37*
G36*
X227076000Y-68707000D02*
G01*
X222567500Y-68707000D01*
X222567500Y-66230500D01*
X227076000Y-66230500D01*
X227076000Y-68707000D01*
X227076000Y-68707000D01*
G37*
G36*
X211617000Y-68636500D02*
G01*
X211015000Y-68636500D01*
X211015000Y-67634500D01*
X211617000Y-67634500D01*
X211617000Y-68636500D01*
X211617000Y-68636500D01*
G37*
G36*
X210117000Y-68636500D02*
G01*
X209515000Y-68636500D01*
X209515000Y-67634500D01*
X210117000Y-67634500D01*
X210117000Y-68636500D01*
X210117000Y-68636500D01*
G37*
M02*
