G04 #@! TF.GenerationSoftware,KiCad,Pcbnew,(5.1.4)-1*
G04 #@! TF.CreationDate,2020-10-18T13:54:02-05:00*
G04 #@! TF.ProjectId,VFD_Clock,5646445f-436c-46f6-936b-2e6b69636164,rev?*
G04 #@! TF.SameCoordinates,Original*
G04 #@! TF.FileFunction,Legend,Bot*
G04 #@! TF.FilePolarity,Positive*
%FSLAX46Y46*%
G04 Gerber Fmt 4.6, Leading zero omitted, Abs format (unit mm)*
G04 Created by KiCad (PCBNEW (5.1.4)-1) date 2020-10-18 13:54:02*
%MOMM*%
%LPD*%
G04 APERTURE LIST*
%ADD10C,0.010000*%
%ADD11C,0.120000*%
%ADD12C,0.150000*%
%ADD13C,0.152400*%
G04 APERTURE END LIST*
D10*
G36*
X85465536Y-70224650D02*
G01*
X85463994Y-70554552D01*
X85462434Y-70837481D01*
X85460739Y-71077261D01*
X85458792Y-71277719D01*
X85456477Y-71442681D01*
X85453678Y-71575972D01*
X85450276Y-71681418D01*
X85446156Y-71762845D01*
X85441201Y-71824080D01*
X85435293Y-71868947D01*
X85428317Y-71901274D01*
X85420155Y-71924885D01*
X85413198Y-71939150D01*
X85368096Y-72021700D01*
X86182200Y-72021700D01*
X86182200Y-71945500D01*
X86185559Y-71891952D01*
X86193649Y-71869304D01*
X86193773Y-71869300D01*
X86219891Y-71882284D01*
X86272274Y-71915037D01*
X86299097Y-71932921D01*
X86431397Y-72000147D01*
X86591063Y-72047089D01*
X86759978Y-72070838D01*
X86920023Y-72068484D01*
X87020400Y-72048747D01*
X87204462Y-71967439D01*
X87369590Y-71845700D01*
X87504483Y-71693010D01*
X87565845Y-71591194D01*
X87633269Y-71433529D01*
X87677145Y-71267451D01*
X87700286Y-71078903D01*
X87705759Y-70892413D01*
X87704998Y-70878700D01*
X86904864Y-70878700D01*
X86900366Y-71054395D01*
X86886751Y-71187914D01*
X86861523Y-71287449D01*
X86822188Y-71361191D01*
X86766249Y-71417331D01*
X86733984Y-71439670D01*
X86627579Y-71477664D01*
X86501856Y-71474676D01*
X86366797Y-71431228D01*
X86342501Y-71419273D01*
X86245700Y-71369057D01*
X86238858Y-70819987D01*
X86232015Y-70270916D01*
X86299109Y-70226954D01*
X86362640Y-70200207D01*
X86452332Y-70179544D01*
X86510367Y-70172565D01*
X86598745Y-70169470D01*
X86657709Y-70179595D01*
X86708015Y-70208183D01*
X86734073Y-70229068D01*
X86801417Y-70302667D01*
X86850336Y-70398237D01*
X86882659Y-70522734D01*
X86900213Y-70683111D01*
X86904864Y-70878700D01*
X87704998Y-70878700D01*
X87689325Y-70596465D01*
X87641458Y-70336634D01*
X87562829Y-70114009D01*
X87454111Y-69929680D01*
X87315975Y-69784737D01*
X87149094Y-69680268D01*
X86954140Y-69617364D01*
X86914830Y-69610335D01*
X86799297Y-69602075D01*
X86671937Y-69608929D01*
X86545339Y-69628352D01*
X86432088Y-69657799D01*
X86344772Y-69694725D01*
X86296738Y-69735315D01*
X86275873Y-69759782D01*
X86259830Y-69754692D01*
X86248075Y-69716157D01*
X86240076Y-69640288D01*
X86235298Y-69523201D01*
X86233207Y-69361006D01*
X86233000Y-69271170D01*
X86233523Y-69097073D01*
X86235531Y-68965717D01*
X86239689Y-68869050D01*
X86246657Y-68799019D01*
X86257099Y-68747573D01*
X86271678Y-68706658D01*
X86281062Y-68686970D01*
X86329124Y-68592700D01*
X85472772Y-68592700D01*
X85465536Y-70224650D01*
X85465536Y-70224650D01*
G37*
X85465536Y-70224650D02*
X85463994Y-70554552D01*
X85462434Y-70837481D01*
X85460739Y-71077261D01*
X85458792Y-71277719D01*
X85456477Y-71442681D01*
X85453678Y-71575972D01*
X85450276Y-71681418D01*
X85446156Y-71762845D01*
X85441201Y-71824080D01*
X85435293Y-71868947D01*
X85428317Y-71901274D01*
X85420155Y-71924885D01*
X85413198Y-71939150D01*
X85368096Y-72021700D01*
X86182200Y-72021700D01*
X86182200Y-71945500D01*
X86185559Y-71891952D01*
X86193649Y-71869304D01*
X86193773Y-71869300D01*
X86219891Y-71882284D01*
X86272274Y-71915037D01*
X86299097Y-71932921D01*
X86431397Y-72000147D01*
X86591063Y-72047089D01*
X86759978Y-72070838D01*
X86920023Y-72068484D01*
X87020400Y-72048747D01*
X87204462Y-71967439D01*
X87369590Y-71845700D01*
X87504483Y-71693010D01*
X87565845Y-71591194D01*
X87633269Y-71433529D01*
X87677145Y-71267451D01*
X87700286Y-71078903D01*
X87705759Y-70892413D01*
X87704998Y-70878700D01*
X86904864Y-70878700D01*
X86900366Y-71054395D01*
X86886751Y-71187914D01*
X86861523Y-71287449D01*
X86822188Y-71361191D01*
X86766249Y-71417331D01*
X86733984Y-71439670D01*
X86627579Y-71477664D01*
X86501856Y-71474676D01*
X86366797Y-71431228D01*
X86342501Y-71419273D01*
X86245700Y-71369057D01*
X86238858Y-70819987D01*
X86232015Y-70270916D01*
X86299109Y-70226954D01*
X86362640Y-70200207D01*
X86452332Y-70179544D01*
X86510367Y-70172565D01*
X86598745Y-70169470D01*
X86657709Y-70179595D01*
X86708015Y-70208183D01*
X86734073Y-70229068D01*
X86801417Y-70302667D01*
X86850336Y-70398237D01*
X86882659Y-70522734D01*
X86900213Y-70683111D01*
X86904864Y-70878700D01*
X87704998Y-70878700D01*
X87689325Y-70596465D01*
X87641458Y-70336634D01*
X87562829Y-70114009D01*
X87454111Y-69929680D01*
X87315975Y-69784737D01*
X87149094Y-69680268D01*
X86954140Y-69617364D01*
X86914830Y-69610335D01*
X86799297Y-69602075D01*
X86671937Y-69608929D01*
X86545339Y-69628352D01*
X86432088Y-69657799D01*
X86344772Y-69694725D01*
X86296738Y-69735315D01*
X86275873Y-69759782D01*
X86259830Y-69754692D01*
X86248075Y-69716157D01*
X86240076Y-69640288D01*
X86235298Y-69523201D01*
X86233207Y-69361006D01*
X86233000Y-69271170D01*
X86233523Y-69097073D01*
X86235531Y-68965717D01*
X86239689Y-68869050D01*
X86246657Y-68799019D01*
X86257099Y-68747573D01*
X86271678Y-68706658D01*
X86281062Y-68686970D01*
X86329124Y-68592700D01*
X85472772Y-68592700D01*
X85465536Y-70224650D01*
G36*
X88685380Y-69619859D02*
G01*
X88509424Y-69659764D01*
X88390487Y-69704395D01*
X88297902Y-69760278D01*
X88215221Y-69833860D01*
X88162083Y-69888688D01*
X88118604Y-69940329D01*
X88083709Y-69994492D01*
X88056324Y-70056887D01*
X88035376Y-70133223D01*
X88019791Y-70229210D01*
X88008496Y-70350558D01*
X88000415Y-70502975D01*
X87994477Y-70692170D01*
X87989606Y-70923855D01*
X87987451Y-71044977D01*
X87983193Y-71276934D01*
X87979070Y-71463551D01*
X87974724Y-71610285D01*
X87969797Y-71722595D01*
X87963932Y-71805937D01*
X87956769Y-71865769D01*
X87947951Y-71907549D01*
X87937120Y-71936734D01*
X87927865Y-71953027D01*
X87882829Y-72021700D01*
X88693582Y-72021700D01*
X88709500Y-71868198D01*
X88808898Y-71935983D01*
X88965054Y-72014754D01*
X89145908Y-72060678D01*
X89335705Y-72071637D01*
X89518691Y-72045511D01*
X89552166Y-72035936D01*
X89738571Y-71953612D01*
X89889480Y-71836085D01*
X90002348Y-71686821D01*
X90074625Y-71509286D01*
X90103765Y-71306943D01*
X90104212Y-71285100D01*
X90103548Y-71256045D01*
X89375293Y-71256045D01*
X89371037Y-71345384D01*
X89360910Y-71376002D01*
X89298221Y-71456589D01*
X89203277Y-71510981D01*
X89089673Y-71534852D01*
X88971004Y-71523878D01*
X88933404Y-71512008D01*
X88846217Y-71470468D01*
X88790576Y-71417866D01*
X88760106Y-71342780D01*
X88748434Y-71233789D01*
X88747600Y-71179072D01*
X88747600Y-70980300D01*
X88913516Y-70980300D01*
X89077253Y-70995324D01*
X89215872Y-71038233D01*
X89311324Y-71099055D01*
X89353931Y-71165798D01*
X89375293Y-71256045D01*
X90103548Y-71256045D01*
X90101597Y-71170773D01*
X90087949Y-71083474D01*
X90058450Y-70999811D01*
X90035118Y-70949715D01*
X89930777Y-70793136D01*
X89786396Y-70667258D01*
X89602631Y-70572378D01*
X89380138Y-70508791D01*
X89119574Y-70476795D01*
X88979206Y-70472741D01*
X88740912Y-70472300D01*
X88754804Y-70368728D01*
X88790738Y-70255460D01*
X88862656Y-70177007D01*
X88969276Y-70133663D01*
X89109313Y-70125723D01*
X89281484Y-70153480D01*
X89458491Y-70207644D01*
X89542949Y-70234913D01*
X89607942Y-70249873D01*
X89639805Y-70249408D01*
X89640138Y-70249089D01*
X89657724Y-70217372D01*
X89687820Y-70151412D01*
X89725098Y-70064245D01*
X89764227Y-69968904D01*
X89799878Y-69878425D01*
X89826720Y-69805840D01*
X89839425Y-69764185D01*
X89839800Y-69760802D01*
X89818010Y-69742117D01*
X89774553Y-69735700D01*
X89722969Y-69729537D01*
X89636150Y-69712924D01*
X89527897Y-69688675D01*
X89450703Y-69669673D01*
X89184904Y-69618860D01*
X88926224Y-69602218D01*
X88685380Y-69619859D01*
X88685380Y-69619859D01*
G37*
X88685380Y-69619859D02*
X88509424Y-69659764D01*
X88390487Y-69704395D01*
X88297902Y-69760278D01*
X88215221Y-69833860D01*
X88162083Y-69888688D01*
X88118604Y-69940329D01*
X88083709Y-69994492D01*
X88056324Y-70056887D01*
X88035376Y-70133223D01*
X88019791Y-70229210D01*
X88008496Y-70350558D01*
X88000415Y-70502975D01*
X87994477Y-70692170D01*
X87989606Y-70923855D01*
X87987451Y-71044977D01*
X87983193Y-71276934D01*
X87979070Y-71463551D01*
X87974724Y-71610285D01*
X87969797Y-71722595D01*
X87963932Y-71805937D01*
X87956769Y-71865769D01*
X87947951Y-71907549D01*
X87937120Y-71936734D01*
X87927865Y-71953027D01*
X87882829Y-72021700D01*
X88693582Y-72021700D01*
X88709500Y-71868198D01*
X88808898Y-71935983D01*
X88965054Y-72014754D01*
X89145908Y-72060678D01*
X89335705Y-72071637D01*
X89518691Y-72045511D01*
X89552166Y-72035936D01*
X89738571Y-71953612D01*
X89889480Y-71836085D01*
X90002348Y-71686821D01*
X90074625Y-71509286D01*
X90103765Y-71306943D01*
X90104212Y-71285100D01*
X90103548Y-71256045D01*
X89375293Y-71256045D01*
X89371037Y-71345384D01*
X89360910Y-71376002D01*
X89298221Y-71456589D01*
X89203277Y-71510981D01*
X89089673Y-71534852D01*
X88971004Y-71523878D01*
X88933404Y-71512008D01*
X88846217Y-71470468D01*
X88790576Y-71417866D01*
X88760106Y-71342780D01*
X88748434Y-71233789D01*
X88747600Y-71179072D01*
X88747600Y-70980300D01*
X88913516Y-70980300D01*
X89077253Y-70995324D01*
X89215872Y-71038233D01*
X89311324Y-71099055D01*
X89353931Y-71165798D01*
X89375293Y-71256045D01*
X90103548Y-71256045D01*
X90101597Y-71170773D01*
X90087949Y-71083474D01*
X90058450Y-70999811D01*
X90035118Y-70949715D01*
X89930777Y-70793136D01*
X89786396Y-70667258D01*
X89602631Y-70572378D01*
X89380138Y-70508791D01*
X89119574Y-70476795D01*
X88979206Y-70472741D01*
X88740912Y-70472300D01*
X88754804Y-70368728D01*
X88790738Y-70255460D01*
X88862656Y-70177007D01*
X88969276Y-70133663D01*
X89109313Y-70125723D01*
X89281484Y-70153480D01*
X89458491Y-70207644D01*
X89542949Y-70234913D01*
X89607942Y-70249873D01*
X89639805Y-70249408D01*
X89640138Y-70249089D01*
X89657724Y-70217372D01*
X89687820Y-70151412D01*
X89725098Y-70064245D01*
X89764227Y-69968904D01*
X89799878Y-69878425D01*
X89826720Y-69805840D01*
X89839425Y-69764185D01*
X89839800Y-69760802D01*
X89818010Y-69742117D01*
X89774553Y-69735700D01*
X89722969Y-69729537D01*
X89636150Y-69712924D01*
X89527897Y-69688675D01*
X89450703Y-69669673D01*
X89184904Y-69618860D01*
X88926224Y-69602218D01*
X88685380Y-69619859D01*
G36*
X90768324Y-68773841D02*
G01*
X90727089Y-68783643D01*
X90656121Y-68806329D01*
X90560827Y-68842463D01*
X90453479Y-68886687D01*
X90346347Y-68933647D01*
X90251702Y-68977987D01*
X90181815Y-69014351D01*
X90150936Y-69035098D01*
X90160626Y-69058082D01*
X90192964Y-69113008D01*
X90241536Y-69190151D01*
X90299926Y-69279788D01*
X90361719Y-69372195D01*
X90420498Y-69457651D01*
X90469848Y-69526430D01*
X90502323Y-69567659D01*
X90530764Y-69565124D01*
X90582919Y-69534835D01*
X90626593Y-69500812D01*
X90771702Y-69408726D01*
X90936513Y-69363059D01*
X91094902Y-69361784D01*
X91265602Y-69402402D01*
X91409741Y-69485627D01*
X91526755Y-69610425D01*
X91616081Y-69775760D01*
X91677157Y-69980597D01*
X91709419Y-70223901D01*
X91712574Y-70497700D01*
X91691133Y-70745326D01*
X91646016Y-70951241D01*
X91575370Y-71119605D01*
X91477343Y-71254580D01*
X91350083Y-71360326D01*
X91320421Y-71378651D01*
X91243227Y-71418915D01*
X91171762Y-71440376D01*
X91083973Y-71448176D01*
X91020900Y-71448509D01*
X90861183Y-71432854D01*
X90722453Y-71384892D01*
X90588375Y-71298113D01*
X90538154Y-71256163D01*
X90483908Y-71211662D01*
X90447586Y-71187725D01*
X90439945Y-71186469D01*
X90417784Y-71219788D01*
X90378502Y-71283833D01*
X90327770Y-71368848D01*
X90271257Y-71465075D01*
X90214634Y-71562757D01*
X90163569Y-71652136D01*
X90123735Y-71723456D01*
X90100799Y-71766960D01*
X90097547Y-71775680D01*
X90122782Y-71789054D01*
X90180656Y-71819753D01*
X90258938Y-71861286D01*
X90263543Y-71863730D01*
X90425853Y-71944112D01*
X90568788Y-71999428D01*
X90710728Y-72034486D01*
X90870053Y-72054093D01*
X91020900Y-72061840D01*
X91213715Y-72063069D01*
X91365750Y-72053613D01*
X91456564Y-72038065D01*
X91688799Y-71953218D01*
X91901841Y-71824218D01*
X92091634Y-71655406D01*
X92254122Y-71451123D01*
X92385248Y-71215709D01*
X92480956Y-70953505D01*
X92485452Y-70937132D01*
X92521750Y-70750526D01*
X92540655Y-70536420D01*
X92542177Y-70312757D01*
X92526331Y-70097482D01*
X92493128Y-69908540D01*
X92484703Y-69876544D01*
X92382939Y-69602935D01*
X92240268Y-69356968D01*
X92059196Y-69142153D01*
X91842230Y-68961995D01*
X91821000Y-68947582D01*
X91643356Y-68855004D01*
X91435302Y-68789248D01*
X91210802Y-68752407D01*
X90983822Y-68746573D01*
X90768324Y-68773841D01*
X90768324Y-68773841D01*
G37*
X90768324Y-68773841D02*
X90727089Y-68783643D01*
X90656121Y-68806329D01*
X90560827Y-68842463D01*
X90453479Y-68886687D01*
X90346347Y-68933647D01*
X90251702Y-68977987D01*
X90181815Y-69014351D01*
X90150936Y-69035098D01*
X90160626Y-69058082D01*
X90192964Y-69113008D01*
X90241536Y-69190151D01*
X90299926Y-69279788D01*
X90361719Y-69372195D01*
X90420498Y-69457651D01*
X90469848Y-69526430D01*
X90502323Y-69567659D01*
X90530764Y-69565124D01*
X90582919Y-69534835D01*
X90626593Y-69500812D01*
X90771702Y-69408726D01*
X90936513Y-69363059D01*
X91094902Y-69361784D01*
X91265602Y-69402402D01*
X91409741Y-69485627D01*
X91526755Y-69610425D01*
X91616081Y-69775760D01*
X91677157Y-69980597D01*
X91709419Y-70223901D01*
X91712574Y-70497700D01*
X91691133Y-70745326D01*
X91646016Y-70951241D01*
X91575370Y-71119605D01*
X91477343Y-71254580D01*
X91350083Y-71360326D01*
X91320421Y-71378651D01*
X91243227Y-71418915D01*
X91171762Y-71440376D01*
X91083973Y-71448176D01*
X91020900Y-71448509D01*
X90861183Y-71432854D01*
X90722453Y-71384892D01*
X90588375Y-71298113D01*
X90538154Y-71256163D01*
X90483908Y-71211662D01*
X90447586Y-71187725D01*
X90439945Y-71186469D01*
X90417784Y-71219788D01*
X90378502Y-71283833D01*
X90327770Y-71368848D01*
X90271257Y-71465075D01*
X90214634Y-71562757D01*
X90163569Y-71652136D01*
X90123735Y-71723456D01*
X90100799Y-71766960D01*
X90097547Y-71775680D01*
X90122782Y-71789054D01*
X90180656Y-71819753D01*
X90258938Y-71861286D01*
X90263543Y-71863730D01*
X90425853Y-71944112D01*
X90568788Y-71999428D01*
X90710728Y-72034486D01*
X90870053Y-72054093D01*
X91020900Y-72061840D01*
X91213715Y-72063069D01*
X91365750Y-72053613D01*
X91456564Y-72038065D01*
X91688799Y-71953218D01*
X91901841Y-71824218D01*
X92091634Y-71655406D01*
X92254122Y-71451123D01*
X92385248Y-71215709D01*
X92480956Y-70953505D01*
X92485452Y-70937132D01*
X92521750Y-70750526D01*
X92540655Y-70536420D01*
X92542177Y-70312757D01*
X92526331Y-70097482D01*
X92493128Y-69908540D01*
X92484703Y-69876544D01*
X92382939Y-69602935D01*
X92240268Y-69356968D01*
X92059196Y-69142153D01*
X91842230Y-68961995D01*
X91821000Y-68947582D01*
X91643356Y-68855004D01*
X91435302Y-68789248D01*
X91210802Y-68752407D01*
X90983822Y-68746573D01*
X90768324Y-68773841D01*
G36*
X92861637Y-68210199D02*
G01*
X92839845Y-68217476D01*
X92821414Y-68233920D01*
X92806065Y-68262697D01*
X92793519Y-68306974D01*
X92783495Y-68369918D01*
X92775717Y-68454694D01*
X92769904Y-68564471D01*
X92765777Y-68702414D01*
X92763057Y-68871691D01*
X92761465Y-69075468D01*
X92760723Y-69316911D01*
X92760550Y-69599187D01*
X92760668Y-69925464D01*
X92760797Y-70298907D01*
X92760800Y-70358000D01*
X92760878Y-70733384D01*
X92761151Y-71061211D01*
X92761682Y-71344721D01*
X92762531Y-71587158D01*
X92763760Y-71791761D01*
X92765431Y-71961774D01*
X92767605Y-72100439D01*
X92770343Y-72210996D01*
X92773708Y-72296688D01*
X92777759Y-72360757D01*
X92782559Y-72406444D01*
X92788169Y-72436992D01*
X92794651Y-72455641D01*
X92800715Y-72464385D01*
X92811791Y-72471492D01*
X92831999Y-72477713D01*
X92864510Y-72483106D01*
X92912497Y-72487729D01*
X92979133Y-72491640D01*
X93067590Y-72494896D01*
X93181040Y-72497556D01*
X93322656Y-72499675D01*
X93495610Y-72501313D01*
X93703076Y-72502528D01*
X93948224Y-72503376D01*
X94234229Y-72503915D01*
X94564261Y-72504203D01*
X94941495Y-72504298D01*
X94996001Y-72504300D01*
X95379824Y-72504226D01*
X95716020Y-72503967D01*
X96007761Y-72503465D01*
X96258219Y-72502662D01*
X96470568Y-72501500D01*
X96647979Y-72499922D01*
X96793625Y-72497871D01*
X96910678Y-72495287D01*
X97002312Y-72492115D01*
X97071697Y-72488295D01*
X97122008Y-72483771D01*
X97156416Y-72478485D01*
X97178093Y-72472379D01*
X97190213Y-72465395D01*
X97191286Y-72464385D01*
X97198535Y-72453127D01*
X97204862Y-72432652D01*
X97210328Y-72399719D01*
X97214994Y-72351086D01*
X97218922Y-72283511D01*
X97222174Y-72193752D01*
X97224810Y-72078568D01*
X97226893Y-71934717D01*
X97228483Y-71758956D01*
X97229642Y-71548044D01*
X97230432Y-71298739D01*
X97230914Y-71007800D01*
X97231149Y-70671984D01*
X97231200Y-70358000D01*
X97231123Y-69982615D01*
X97230850Y-69654788D01*
X97230319Y-69371278D01*
X97229470Y-69128841D01*
X97228241Y-68924238D01*
X97227052Y-68803229D01*
X96951801Y-68803229D01*
X96941363Y-68828138D01*
X96915056Y-68882344D01*
X96901001Y-68910199D01*
X96890068Y-68933274D01*
X96880826Y-68958920D01*
X96873133Y-68991359D01*
X96866848Y-69034808D01*
X96861828Y-69093488D01*
X96857932Y-69171617D01*
X96855017Y-69273417D01*
X96852943Y-69403105D01*
X96851566Y-69564901D01*
X96850746Y-69763025D01*
X96850341Y-70001697D01*
X96850209Y-70285135D01*
X96850201Y-70421790D01*
X96850561Y-70685226D01*
X96851598Y-70933537D01*
X96853244Y-71162056D01*
X96855432Y-71366118D01*
X96858097Y-71541058D01*
X96861170Y-71682211D01*
X96864585Y-71784910D01*
X96868276Y-71844491D01*
X96870776Y-71857870D01*
X96895200Y-71897636D01*
X96921032Y-71951850D01*
X96950711Y-72021700D01*
X96424206Y-72021311D01*
X96269033Y-72020349D01*
X96134650Y-72017881D01*
X96028001Y-72014174D01*
X95956030Y-72009492D01*
X95925681Y-72004100D01*
X95925906Y-72002261D01*
X95955855Y-71968326D01*
X95991668Y-71910126D01*
X95995756Y-71902311D01*
X96010682Y-71865021D01*
X96021693Y-71814767D01*
X96029331Y-71744056D01*
X96034134Y-71645398D01*
X96036644Y-71511300D01*
X96037399Y-71334272D01*
X96037400Y-71324461D01*
X96036167Y-71146847D01*
X96032604Y-71004376D01*
X96026922Y-70901227D01*
X96019328Y-70841578D01*
X96012586Y-70827900D01*
X95983086Y-70847270D01*
X95945359Y-70894244D01*
X95943085Y-70897750D01*
X95902507Y-70954768D01*
X95868301Y-70993000D01*
X95837853Y-71030132D01*
X95797917Y-71092466D01*
X95784329Y-71116333D01*
X95742180Y-71183430D01*
X95679473Y-71272220D01*
X95608408Y-71365564D01*
X95594458Y-71383033D01*
X95486339Y-71525844D01*
X95395862Y-71662467D01*
X95327611Y-71784849D01*
X95286169Y-71884940D01*
X95275400Y-71943423D01*
X95275400Y-72021700D01*
X94148945Y-72021700D01*
X94161071Y-72007988D01*
X94005400Y-72007988D01*
X93981301Y-72012257D01*
X93914204Y-72015985D01*
X93811911Y-72018948D01*
X93682222Y-72020926D01*
X93532939Y-72021696D01*
X93522800Y-72021700D01*
X93346033Y-72020908D01*
X93214899Y-72018306D01*
X93124253Y-72013556D01*
X93068950Y-72006318D01*
X93043844Y-71996252D01*
X93041008Y-71989950D01*
X93055962Y-71946054D01*
X93079108Y-71908895D01*
X93088302Y-71890192D01*
X93095898Y-71857695D01*
X93102041Y-71806998D01*
X93106873Y-71733696D01*
X93110536Y-71633383D01*
X93113174Y-71501654D01*
X93114930Y-71334104D01*
X93115947Y-71126327D01*
X93116367Y-70873918D01*
X93116400Y-70759545D01*
X93116400Y-69659500D01*
X93981305Y-69659500D01*
X93942553Y-69734438D01*
X93932522Y-69760315D01*
X93924333Y-69798592D01*
X93917808Y-69854107D01*
X93912774Y-69931697D01*
X93909053Y-70036200D01*
X93906471Y-70172454D01*
X93904852Y-70345297D01*
X93904021Y-70559567D01*
X93903800Y-70802250D01*
X93903914Y-71053940D01*
X93904415Y-71260011D01*
X93905545Y-71425647D01*
X93907545Y-71556027D01*
X93910655Y-71656335D01*
X93915117Y-71731751D01*
X93921171Y-71787457D01*
X93929059Y-71828635D01*
X93939021Y-71860467D01*
X93951299Y-71888135D01*
X93954600Y-71894700D01*
X93985510Y-71958136D01*
X94003520Y-72000610D01*
X94005400Y-72007988D01*
X94161071Y-72007988D01*
X94210523Y-71952070D01*
X94254445Y-71902766D01*
X94282627Y-71871790D01*
X94284800Y-71869520D01*
X94342555Y-71806405D01*
X94414037Y-71722189D01*
X94489103Y-71629565D01*
X94557609Y-71541225D01*
X94609412Y-71469861D01*
X94629624Y-71438047D01*
X94669845Y-71374084D01*
X94733338Y-71282799D01*
X94811196Y-71176180D01*
X94894513Y-71066215D01*
X94974383Y-70964890D01*
X95036727Y-70890107D01*
X95097171Y-70813048D01*
X95153841Y-70729443D01*
X95158022Y-70722550D01*
X95285363Y-70524436D01*
X95381006Y-70393856D01*
X95450964Y-70302712D01*
X95369532Y-70215260D01*
X95299340Y-70136161D01*
X95209285Y-70029392D01*
X95109943Y-69907951D01*
X95011893Y-69784839D01*
X94925711Y-69673055D01*
X94896849Y-69634315D01*
X94592059Y-69254392D01*
X94352721Y-68997287D01*
X94153941Y-68795900D01*
X94699253Y-68795900D01*
X94884450Y-68796023D01*
X95025002Y-68797361D01*
X95127063Y-68801367D01*
X95196788Y-68809493D01*
X95240331Y-68823191D01*
X95263847Y-68843916D01*
X95273489Y-68873118D01*
X95275414Y-68912251D01*
X95275400Y-68931890D01*
X95290988Y-68985342D01*
X95330059Y-69052621D01*
X95347701Y-69075862D01*
X95406348Y-69153168D01*
X95469110Y-69244086D01*
X95491198Y-69278500D01*
X95534448Y-69345264D01*
X95568088Y-69392431D01*
X95579761Y-69405500D01*
X95609555Y-69434839D01*
X95658755Y-69490518D01*
X95718478Y-69561608D01*
X95779838Y-69637181D01*
X95833953Y-69706308D01*
X95871937Y-69758061D01*
X95885000Y-69780983D01*
X95901818Y-69810474D01*
X95943854Y-69858217D01*
X95961201Y-69875400D01*
X96037401Y-69948404D01*
X96037400Y-69528588D01*
X96035807Y-69345802D01*
X96030105Y-69202976D01*
X96018907Y-69089340D01*
X96000828Y-68994129D01*
X95974482Y-68906575D01*
X95948836Y-68840350D01*
X95945606Y-68825271D01*
X95954351Y-68814038D01*
X95981295Y-68806091D01*
X96032662Y-68800867D01*
X96114676Y-68797803D01*
X96233561Y-68796338D01*
X96395540Y-68795910D01*
X96441083Y-68795900D01*
X96595917Y-68796246D01*
X96731878Y-68797212D01*
X96841383Y-68798690D01*
X96916849Y-68800571D01*
X96950692Y-68802745D01*
X96951801Y-68803229D01*
X97227052Y-68803229D01*
X97226570Y-68754225D01*
X97224396Y-68615560D01*
X97221658Y-68505003D01*
X97218293Y-68419311D01*
X97214242Y-68355242D01*
X97209442Y-68309555D01*
X97203832Y-68279007D01*
X97197350Y-68260358D01*
X97191286Y-68251614D01*
X97178822Y-68243434D01*
X97156563Y-68236438D01*
X97120809Y-68230534D01*
X97067859Y-68225633D01*
X96994012Y-68221644D01*
X96895569Y-68218478D01*
X96768827Y-68216044D01*
X96610087Y-68214252D01*
X96415647Y-68213011D01*
X96181807Y-68212233D01*
X95904865Y-68211826D01*
X95581122Y-68211700D01*
X93954600Y-68211700D01*
X93954600Y-68307918D01*
X93934521Y-68423835D01*
X93881475Y-68542500D01*
X93806246Y-68643491D01*
X93753994Y-68687744D01*
X93640454Y-68734870D01*
X93509500Y-68745136D01*
X93375372Y-68721418D01*
X93252310Y-68666589D01*
X93154552Y-68583523D01*
X93139200Y-68563647D01*
X93092194Y-68462928D01*
X93070561Y-68347377D01*
X93059310Y-68211699D01*
X92949970Y-68211700D01*
X92916420Y-68210477D01*
X92887069Y-68208921D01*
X92861637Y-68210199D01*
X92861637Y-68210199D01*
G37*
X92861637Y-68210199D02*
X92839845Y-68217476D01*
X92821414Y-68233920D01*
X92806065Y-68262697D01*
X92793519Y-68306974D01*
X92783495Y-68369918D01*
X92775717Y-68454694D01*
X92769904Y-68564471D01*
X92765777Y-68702414D01*
X92763057Y-68871691D01*
X92761465Y-69075468D01*
X92760723Y-69316911D01*
X92760550Y-69599187D01*
X92760668Y-69925464D01*
X92760797Y-70298907D01*
X92760800Y-70358000D01*
X92760878Y-70733384D01*
X92761151Y-71061211D01*
X92761682Y-71344721D01*
X92762531Y-71587158D01*
X92763760Y-71791761D01*
X92765431Y-71961774D01*
X92767605Y-72100439D01*
X92770343Y-72210996D01*
X92773708Y-72296688D01*
X92777759Y-72360757D01*
X92782559Y-72406444D01*
X92788169Y-72436992D01*
X92794651Y-72455641D01*
X92800715Y-72464385D01*
X92811791Y-72471492D01*
X92831999Y-72477713D01*
X92864510Y-72483106D01*
X92912497Y-72487729D01*
X92979133Y-72491640D01*
X93067590Y-72494896D01*
X93181040Y-72497556D01*
X93322656Y-72499675D01*
X93495610Y-72501313D01*
X93703076Y-72502528D01*
X93948224Y-72503376D01*
X94234229Y-72503915D01*
X94564261Y-72504203D01*
X94941495Y-72504298D01*
X94996001Y-72504300D01*
X95379824Y-72504226D01*
X95716020Y-72503967D01*
X96007761Y-72503465D01*
X96258219Y-72502662D01*
X96470568Y-72501500D01*
X96647979Y-72499922D01*
X96793625Y-72497871D01*
X96910678Y-72495287D01*
X97002312Y-72492115D01*
X97071697Y-72488295D01*
X97122008Y-72483771D01*
X97156416Y-72478485D01*
X97178093Y-72472379D01*
X97190213Y-72465395D01*
X97191286Y-72464385D01*
X97198535Y-72453127D01*
X97204862Y-72432652D01*
X97210328Y-72399719D01*
X97214994Y-72351086D01*
X97218922Y-72283511D01*
X97222174Y-72193752D01*
X97224810Y-72078568D01*
X97226893Y-71934717D01*
X97228483Y-71758956D01*
X97229642Y-71548044D01*
X97230432Y-71298739D01*
X97230914Y-71007800D01*
X97231149Y-70671984D01*
X97231200Y-70358000D01*
X97231123Y-69982615D01*
X97230850Y-69654788D01*
X97230319Y-69371278D01*
X97229470Y-69128841D01*
X97228241Y-68924238D01*
X97227052Y-68803229D01*
X96951801Y-68803229D01*
X96941363Y-68828138D01*
X96915056Y-68882344D01*
X96901001Y-68910199D01*
X96890068Y-68933274D01*
X96880826Y-68958920D01*
X96873133Y-68991359D01*
X96866848Y-69034808D01*
X96861828Y-69093488D01*
X96857932Y-69171617D01*
X96855017Y-69273417D01*
X96852943Y-69403105D01*
X96851566Y-69564901D01*
X96850746Y-69763025D01*
X96850341Y-70001697D01*
X96850209Y-70285135D01*
X96850201Y-70421790D01*
X96850561Y-70685226D01*
X96851598Y-70933537D01*
X96853244Y-71162056D01*
X96855432Y-71366118D01*
X96858097Y-71541058D01*
X96861170Y-71682211D01*
X96864585Y-71784910D01*
X96868276Y-71844491D01*
X96870776Y-71857870D01*
X96895200Y-71897636D01*
X96921032Y-71951850D01*
X96950711Y-72021700D01*
X96424206Y-72021311D01*
X96269033Y-72020349D01*
X96134650Y-72017881D01*
X96028001Y-72014174D01*
X95956030Y-72009492D01*
X95925681Y-72004100D01*
X95925906Y-72002261D01*
X95955855Y-71968326D01*
X95991668Y-71910126D01*
X95995756Y-71902311D01*
X96010682Y-71865021D01*
X96021693Y-71814767D01*
X96029331Y-71744056D01*
X96034134Y-71645398D01*
X96036644Y-71511300D01*
X96037399Y-71334272D01*
X96037400Y-71324461D01*
X96036167Y-71146847D01*
X96032604Y-71004376D01*
X96026922Y-70901227D01*
X96019328Y-70841578D01*
X96012586Y-70827900D01*
X95983086Y-70847270D01*
X95945359Y-70894244D01*
X95943085Y-70897750D01*
X95902507Y-70954768D01*
X95868301Y-70993000D01*
X95837853Y-71030132D01*
X95797917Y-71092466D01*
X95784329Y-71116333D01*
X95742180Y-71183430D01*
X95679473Y-71272220D01*
X95608408Y-71365564D01*
X95594458Y-71383033D01*
X95486339Y-71525844D01*
X95395862Y-71662467D01*
X95327611Y-71784849D01*
X95286169Y-71884940D01*
X95275400Y-71943423D01*
X95275400Y-72021700D01*
X94148945Y-72021700D01*
X94161071Y-72007988D01*
X94005400Y-72007988D01*
X93981301Y-72012257D01*
X93914204Y-72015985D01*
X93811911Y-72018948D01*
X93682222Y-72020926D01*
X93532939Y-72021696D01*
X93522800Y-72021700D01*
X93346033Y-72020908D01*
X93214899Y-72018306D01*
X93124253Y-72013556D01*
X93068950Y-72006318D01*
X93043844Y-71996252D01*
X93041008Y-71989950D01*
X93055962Y-71946054D01*
X93079108Y-71908895D01*
X93088302Y-71890192D01*
X93095898Y-71857695D01*
X93102041Y-71806998D01*
X93106873Y-71733696D01*
X93110536Y-71633383D01*
X93113174Y-71501654D01*
X93114930Y-71334104D01*
X93115947Y-71126327D01*
X93116367Y-70873918D01*
X93116400Y-70759545D01*
X93116400Y-69659500D01*
X93981305Y-69659500D01*
X93942553Y-69734438D01*
X93932522Y-69760315D01*
X93924333Y-69798592D01*
X93917808Y-69854107D01*
X93912774Y-69931697D01*
X93909053Y-70036200D01*
X93906471Y-70172454D01*
X93904852Y-70345297D01*
X93904021Y-70559567D01*
X93903800Y-70802250D01*
X93903914Y-71053940D01*
X93904415Y-71260011D01*
X93905545Y-71425647D01*
X93907545Y-71556027D01*
X93910655Y-71656335D01*
X93915117Y-71731751D01*
X93921171Y-71787457D01*
X93929059Y-71828635D01*
X93939021Y-71860467D01*
X93951299Y-71888135D01*
X93954600Y-71894700D01*
X93985510Y-71958136D01*
X94003520Y-72000610D01*
X94005400Y-72007988D01*
X94161071Y-72007988D01*
X94210523Y-71952070D01*
X94254445Y-71902766D01*
X94282627Y-71871790D01*
X94284800Y-71869520D01*
X94342555Y-71806405D01*
X94414037Y-71722189D01*
X94489103Y-71629565D01*
X94557609Y-71541225D01*
X94609412Y-71469861D01*
X94629624Y-71438047D01*
X94669845Y-71374084D01*
X94733338Y-71282799D01*
X94811196Y-71176180D01*
X94894513Y-71066215D01*
X94974383Y-70964890D01*
X95036727Y-70890107D01*
X95097171Y-70813048D01*
X95153841Y-70729443D01*
X95158022Y-70722550D01*
X95285363Y-70524436D01*
X95381006Y-70393856D01*
X95450964Y-70302712D01*
X95369532Y-70215260D01*
X95299340Y-70136161D01*
X95209285Y-70029392D01*
X95109943Y-69907951D01*
X95011893Y-69784839D01*
X94925711Y-69673055D01*
X94896849Y-69634315D01*
X94592059Y-69254392D01*
X94352721Y-68997287D01*
X94153941Y-68795900D01*
X94699253Y-68795900D01*
X94884450Y-68796023D01*
X95025002Y-68797361D01*
X95127063Y-68801367D01*
X95196788Y-68809493D01*
X95240331Y-68823191D01*
X95263847Y-68843916D01*
X95273489Y-68873118D01*
X95275414Y-68912251D01*
X95275400Y-68931890D01*
X95290988Y-68985342D01*
X95330059Y-69052621D01*
X95347701Y-69075862D01*
X95406348Y-69153168D01*
X95469110Y-69244086D01*
X95491198Y-69278500D01*
X95534448Y-69345264D01*
X95568088Y-69392431D01*
X95579761Y-69405500D01*
X95609555Y-69434839D01*
X95658755Y-69490518D01*
X95718478Y-69561608D01*
X95779838Y-69637181D01*
X95833953Y-69706308D01*
X95871937Y-69758061D01*
X95885000Y-69780983D01*
X95901818Y-69810474D01*
X95943854Y-69858217D01*
X95961201Y-69875400D01*
X96037401Y-69948404D01*
X96037400Y-69528588D01*
X96035807Y-69345802D01*
X96030105Y-69202976D01*
X96018907Y-69089340D01*
X96000828Y-68994129D01*
X95974482Y-68906575D01*
X95948836Y-68840350D01*
X95945606Y-68825271D01*
X95954351Y-68814038D01*
X95981295Y-68806091D01*
X96032662Y-68800867D01*
X96114676Y-68797803D01*
X96233561Y-68796338D01*
X96395540Y-68795910D01*
X96441083Y-68795900D01*
X96595917Y-68796246D01*
X96731878Y-68797212D01*
X96841383Y-68798690D01*
X96916849Y-68800571D01*
X96950692Y-68802745D01*
X96951801Y-68803229D01*
X97227052Y-68803229D01*
X97226570Y-68754225D01*
X97224396Y-68615560D01*
X97221658Y-68505003D01*
X97218293Y-68419311D01*
X97214242Y-68355242D01*
X97209442Y-68309555D01*
X97203832Y-68279007D01*
X97197350Y-68260358D01*
X97191286Y-68251614D01*
X97178822Y-68243434D01*
X97156563Y-68236438D01*
X97120809Y-68230534D01*
X97067859Y-68225633D01*
X96994012Y-68221644D01*
X96895569Y-68218478D01*
X96768827Y-68216044D01*
X96610087Y-68214252D01*
X96415647Y-68213011D01*
X96181807Y-68212233D01*
X95904865Y-68211826D01*
X95581122Y-68211700D01*
X93954600Y-68211700D01*
X93954600Y-68307918D01*
X93934521Y-68423835D01*
X93881475Y-68542500D01*
X93806246Y-68643491D01*
X93753994Y-68687744D01*
X93640454Y-68734870D01*
X93509500Y-68745136D01*
X93375372Y-68721418D01*
X93252310Y-68666589D01*
X93154552Y-68583523D01*
X93139200Y-68563647D01*
X93092194Y-68462928D01*
X93070561Y-68347377D01*
X93059310Y-68211699D01*
X92949970Y-68211700D01*
X92916420Y-68210477D01*
X92887069Y-68208921D01*
X92861637Y-68210199D01*
G36*
X157988000Y-82740500D02*
G01*
X161544000Y-82740500D01*
X161544000Y-79692500D01*
X161036000Y-79692500D01*
X161036000Y-82232500D01*
X158496000Y-82232500D01*
X158496000Y-79692500D01*
X161036000Y-79692500D01*
X161544000Y-79692500D01*
X161544000Y-79184500D01*
X157988000Y-79184500D01*
X157988000Y-82740500D01*
X157988000Y-82740500D01*
G37*
X157988000Y-82740500D02*
X161544000Y-82740500D01*
X161544000Y-79692500D01*
X161036000Y-79692500D01*
X161036000Y-82232500D01*
X158496000Y-82232500D01*
X158496000Y-79692500D01*
X161036000Y-79692500D01*
X161544000Y-79692500D01*
X161544000Y-79184500D01*
X157988000Y-79184500D01*
X157988000Y-82740500D01*
G36*
X156972000Y-82740500D02*
G01*
X157480000Y-82740500D01*
X157480000Y-81724500D01*
X156972000Y-81724500D01*
X156972000Y-82740500D01*
X156972000Y-82740500D01*
G37*
X156972000Y-82740500D02*
X157480000Y-82740500D01*
X157480000Y-81724500D01*
X156972000Y-81724500D01*
X156972000Y-82740500D01*
G36*
X156972000Y-80708500D02*
G01*
X156718000Y-80708500D01*
X156538092Y-80687521D01*
X156471781Y-80588560D01*
X156464000Y-80454500D01*
X156443021Y-80274592D01*
X156344060Y-80208282D01*
X156210000Y-80200500D01*
X155956000Y-80200500D01*
X155956000Y-79184500D01*
X154940000Y-79184500D01*
X154940000Y-79438500D01*
X154960979Y-79618408D01*
X155059940Y-79684719D01*
X155194000Y-79692500D01*
X155373908Y-79713479D01*
X155440218Y-79812440D01*
X155448000Y-79946500D01*
X155468979Y-80126408D01*
X155567940Y-80192719D01*
X155702000Y-80200500D01*
X155881908Y-80221479D01*
X155948218Y-80320440D01*
X155956000Y-80454500D01*
X155976979Y-80634408D01*
X156075940Y-80700719D01*
X156210000Y-80708500D01*
X156389908Y-80729479D01*
X156456218Y-80828440D01*
X156464000Y-80962500D01*
X156443021Y-81142408D01*
X156344060Y-81208719D01*
X156210000Y-81216500D01*
X156030092Y-81237479D01*
X155963781Y-81336440D01*
X155956000Y-81470500D01*
X155956000Y-81724500D01*
X156972000Y-81724500D01*
X156972000Y-80708500D01*
X156972000Y-80708500D01*
G37*
X156972000Y-80708500D02*
X156718000Y-80708500D01*
X156538092Y-80687521D01*
X156471781Y-80588560D01*
X156464000Y-80454500D01*
X156443021Y-80274592D01*
X156344060Y-80208282D01*
X156210000Y-80200500D01*
X155956000Y-80200500D01*
X155956000Y-79184500D01*
X154940000Y-79184500D01*
X154940000Y-79438500D01*
X154960979Y-79618408D01*
X155059940Y-79684719D01*
X155194000Y-79692500D01*
X155373908Y-79713479D01*
X155440218Y-79812440D01*
X155448000Y-79946500D01*
X155468979Y-80126408D01*
X155567940Y-80192719D01*
X155702000Y-80200500D01*
X155881908Y-80221479D01*
X155948218Y-80320440D01*
X155956000Y-80454500D01*
X155976979Y-80634408D01*
X156075940Y-80700719D01*
X156210000Y-80708500D01*
X156389908Y-80729479D01*
X156456218Y-80828440D01*
X156464000Y-80962500D01*
X156443021Y-81142408D01*
X156344060Y-81208719D01*
X156210000Y-81216500D01*
X156030092Y-81237479D01*
X155963781Y-81336440D01*
X155956000Y-81470500D01*
X155956000Y-81724500D01*
X156972000Y-81724500D01*
X156972000Y-80708500D01*
G36*
X156030092Y-82253479D02*
G01*
X155963781Y-82352440D01*
X155956000Y-82486500D01*
X155976979Y-82666408D01*
X156075940Y-82732719D01*
X156210000Y-82740500D01*
X156389908Y-82719521D01*
X156456218Y-82620560D01*
X156464000Y-82486500D01*
X156443021Y-82306592D01*
X156344060Y-82240282D01*
X156210000Y-82232500D01*
X156030092Y-82253479D01*
X156030092Y-82253479D01*
G37*
X156030092Y-82253479D02*
X155963781Y-82352440D01*
X155956000Y-82486500D01*
X155976979Y-82666408D01*
X156075940Y-82732719D01*
X156210000Y-82740500D01*
X156389908Y-82719521D01*
X156456218Y-82620560D01*
X156464000Y-82486500D01*
X156443021Y-82306592D01*
X156344060Y-82240282D01*
X156210000Y-82232500D01*
X156030092Y-82253479D01*
G36*
X147828000Y-74866500D02*
G01*
X147807021Y-74686592D01*
X147708060Y-74620282D01*
X147574000Y-74612500D01*
X147394092Y-74591521D01*
X147327781Y-74492560D01*
X147320000Y-74358500D01*
X147299021Y-74178592D01*
X147200060Y-74112282D01*
X147066000Y-74104500D01*
X146812000Y-74104500D01*
X146812000Y-75120500D01*
X147828000Y-75120500D01*
X147828000Y-74866500D01*
X147828000Y-74866500D01*
G37*
X147828000Y-74866500D02*
X147807021Y-74686592D01*
X147708060Y-74620282D01*
X147574000Y-74612500D01*
X147394092Y-74591521D01*
X147327781Y-74492560D01*
X147320000Y-74358500D01*
X147299021Y-74178592D01*
X147200060Y-74112282D01*
X147066000Y-74104500D01*
X146812000Y-74104500D01*
X146812000Y-75120500D01*
X147828000Y-75120500D01*
X147828000Y-74866500D01*
G36*
X151892000Y-70294500D02*
G01*
X151871021Y-70114592D01*
X151772060Y-70048282D01*
X151638000Y-70040500D01*
X151384000Y-70040500D01*
X151384000Y-68516500D01*
X150876000Y-68516500D01*
X150876000Y-70548500D01*
X151892000Y-70548500D01*
X151892000Y-70294500D01*
X151892000Y-70294500D01*
G37*
X151892000Y-70294500D02*
X151871021Y-70114592D01*
X151772060Y-70048282D01*
X151638000Y-70040500D01*
X151384000Y-70040500D01*
X151384000Y-68516500D01*
X150876000Y-68516500D01*
X150876000Y-70548500D01*
X151892000Y-70548500D01*
X151892000Y-70294500D01*
G36*
X147828000Y-76644500D02*
G01*
X146812000Y-76644500D01*
X146812000Y-77660500D01*
X147066000Y-77660500D01*
X147245908Y-77639521D01*
X147312218Y-77540560D01*
X147320000Y-77406500D01*
X147320000Y-77152500D01*
X148336000Y-77152500D01*
X148336000Y-77660500D01*
X149352000Y-77660500D01*
X149352000Y-77152500D01*
X150368000Y-77152500D01*
X150368000Y-76898500D01*
X150388979Y-76718592D01*
X150487940Y-76652282D01*
X150622000Y-76644500D01*
X150801908Y-76623521D01*
X150868218Y-76524560D01*
X150876000Y-76390500D01*
X150855021Y-76210592D01*
X150756060Y-76144282D01*
X150622000Y-76136500D01*
X150442092Y-76157479D01*
X150375781Y-76256440D01*
X150368000Y-76390500D01*
X150347021Y-76570408D01*
X150248060Y-76636719D01*
X150114000Y-76644500D01*
X149860000Y-76644500D01*
X149860000Y-76390500D01*
X149352000Y-76390500D01*
X149331021Y-76570408D01*
X149232060Y-76636719D01*
X149098000Y-76644500D01*
X148918092Y-76665479D01*
X148851781Y-76764440D01*
X148844000Y-76898500D01*
X148823021Y-77078408D01*
X148724060Y-77144719D01*
X148590000Y-77152500D01*
X148410092Y-77131521D01*
X148343781Y-77032560D01*
X148336000Y-76898500D01*
X148356979Y-76718592D01*
X148455940Y-76652282D01*
X148590000Y-76644500D01*
X148769908Y-76623521D01*
X148836218Y-76524560D01*
X148844000Y-76390500D01*
X148823021Y-76210592D01*
X148724060Y-76144282D01*
X148590000Y-76136500D01*
X148410092Y-76115521D01*
X148343781Y-76016560D01*
X148336000Y-75882500D01*
X148356979Y-75702592D01*
X148455940Y-75636282D01*
X148590000Y-75628500D01*
X148769908Y-75649479D01*
X148836218Y-75748440D01*
X148844000Y-75882500D01*
X148864979Y-76062408D01*
X148963940Y-76128719D01*
X149098000Y-76136500D01*
X149277908Y-76157479D01*
X149344218Y-76256440D01*
X149352000Y-76390500D01*
X149860000Y-76390500D01*
X149860000Y-75628500D01*
X149606000Y-75628500D01*
X149426092Y-75607521D01*
X149359781Y-75508560D01*
X149352000Y-75374500D01*
X149352000Y-75120500D01*
X150368000Y-75120500D01*
X150368000Y-74104500D01*
X149352000Y-74104500D01*
X149352000Y-74358500D01*
X149331021Y-74538408D01*
X149232060Y-74604719D01*
X149098000Y-74612500D01*
X148918092Y-74633479D01*
X148851781Y-74732440D01*
X148844000Y-74866500D01*
X148844000Y-75120500D01*
X147828000Y-75120500D01*
X147828000Y-76644500D01*
X147828000Y-76644500D01*
G37*
X147828000Y-76644500D02*
X146812000Y-76644500D01*
X146812000Y-77660500D01*
X147066000Y-77660500D01*
X147245908Y-77639521D01*
X147312218Y-77540560D01*
X147320000Y-77406500D01*
X147320000Y-77152500D01*
X148336000Y-77152500D01*
X148336000Y-77660500D01*
X149352000Y-77660500D01*
X149352000Y-77152500D01*
X150368000Y-77152500D01*
X150368000Y-76898500D01*
X150388979Y-76718592D01*
X150487940Y-76652282D01*
X150622000Y-76644500D01*
X150801908Y-76623521D01*
X150868218Y-76524560D01*
X150876000Y-76390500D01*
X150855021Y-76210592D01*
X150756060Y-76144282D01*
X150622000Y-76136500D01*
X150442092Y-76157479D01*
X150375781Y-76256440D01*
X150368000Y-76390500D01*
X150347021Y-76570408D01*
X150248060Y-76636719D01*
X150114000Y-76644500D01*
X149860000Y-76644500D01*
X149860000Y-76390500D01*
X149352000Y-76390500D01*
X149331021Y-76570408D01*
X149232060Y-76636719D01*
X149098000Y-76644500D01*
X148918092Y-76665479D01*
X148851781Y-76764440D01*
X148844000Y-76898500D01*
X148823021Y-77078408D01*
X148724060Y-77144719D01*
X148590000Y-77152500D01*
X148410092Y-77131521D01*
X148343781Y-77032560D01*
X148336000Y-76898500D01*
X148356979Y-76718592D01*
X148455940Y-76652282D01*
X148590000Y-76644500D01*
X148769908Y-76623521D01*
X148836218Y-76524560D01*
X148844000Y-76390500D01*
X148823021Y-76210592D01*
X148724060Y-76144282D01*
X148590000Y-76136500D01*
X148410092Y-76115521D01*
X148343781Y-76016560D01*
X148336000Y-75882500D01*
X148356979Y-75702592D01*
X148455940Y-75636282D01*
X148590000Y-75628500D01*
X148769908Y-75649479D01*
X148836218Y-75748440D01*
X148844000Y-75882500D01*
X148864979Y-76062408D01*
X148963940Y-76128719D01*
X149098000Y-76136500D01*
X149277908Y-76157479D01*
X149344218Y-76256440D01*
X149352000Y-76390500D01*
X149860000Y-76390500D01*
X149860000Y-75628500D01*
X149606000Y-75628500D01*
X149426092Y-75607521D01*
X149359781Y-75508560D01*
X149352000Y-75374500D01*
X149352000Y-75120500D01*
X150368000Y-75120500D01*
X150368000Y-74104500D01*
X149352000Y-74104500D01*
X149352000Y-74358500D01*
X149331021Y-74538408D01*
X149232060Y-74604719D01*
X149098000Y-74612500D01*
X148918092Y-74633479D01*
X148851781Y-74732440D01*
X148844000Y-74866500D01*
X148844000Y-75120500D01*
X147828000Y-75120500D01*
X147828000Y-76644500D01*
G36*
X156972000Y-78676500D02*
G01*
X156718000Y-78676500D01*
X156538092Y-78697479D01*
X156471781Y-78796440D01*
X156464000Y-78930500D01*
X156484979Y-79110408D01*
X156583940Y-79176719D01*
X156718000Y-79184500D01*
X156972000Y-79184500D01*
X156972000Y-80200500D01*
X157480000Y-80200500D01*
X157480000Y-78676500D01*
X160020000Y-78676500D01*
X160020000Y-78168500D01*
X157988000Y-78168500D01*
X157988000Y-77914500D01*
X158008979Y-77734592D01*
X158107940Y-77668282D01*
X158242000Y-77660500D01*
X158421908Y-77639521D01*
X158488218Y-77540560D01*
X158496000Y-77406500D01*
X158496000Y-77152500D01*
X156972000Y-77152500D01*
X156972000Y-78676500D01*
X156972000Y-78676500D01*
G37*
X156972000Y-78676500D02*
X156718000Y-78676500D01*
X156538092Y-78697479D01*
X156471781Y-78796440D01*
X156464000Y-78930500D01*
X156484979Y-79110408D01*
X156583940Y-79176719D01*
X156718000Y-79184500D01*
X156972000Y-79184500D01*
X156972000Y-80200500D01*
X157480000Y-80200500D01*
X157480000Y-78676500D01*
X160020000Y-78676500D01*
X160020000Y-78168500D01*
X157988000Y-78168500D01*
X157988000Y-77914500D01*
X158008979Y-77734592D01*
X158107940Y-77668282D01*
X158242000Y-77660500D01*
X158421908Y-77639521D01*
X158488218Y-77540560D01*
X158496000Y-77406500D01*
X158496000Y-77152500D01*
X156972000Y-77152500D01*
X156972000Y-78676500D01*
G36*
X151892000Y-71564500D02*
G01*
X151638000Y-71564500D01*
X151458092Y-71543521D01*
X151391781Y-71444560D01*
X151384000Y-71310500D01*
X151363021Y-71130592D01*
X151264060Y-71064282D01*
X151130000Y-71056500D01*
X150950092Y-71077479D01*
X150883781Y-71176440D01*
X150876000Y-71310500D01*
X150896979Y-71490408D01*
X150995940Y-71556719D01*
X151130000Y-71564500D01*
X151309908Y-71585479D01*
X151376218Y-71684440D01*
X151384000Y-71818500D01*
X151363021Y-71998408D01*
X151264060Y-72064719D01*
X151130000Y-72072500D01*
X150950092Y-72093479D01*
X150883781Y-72192440D01*
X150876000Y-72326500D01*
X150855021Y-72506408D01*
X150756060Y-72572719D01*
X150622000Y-72580500D01*
X150442092Y-72601479D01*
X150375781Y-72700440D01*
X150368000Y-72834500D01*
X150388979Y-73014408D01*
X150487940Y-73080719D01*
X150622000Y-73088500D01*
X150801908Y-73067521D01*
X150868218Y-72968560D01*
X150876000Y-72834500D01*
X150896979Y-72654592D01*
X150995940Y-72588282D01*
X151130000Y-72580500D01*
X151309908Y-72601479D01*
X151376218Y-72700440D01*
X151384000Y-72834500D01*
X151404979Y-73014408D01*
X151503940Y-73080719D01*
X151638000Y-73088500D01*
X151817908Y-73067521D01*
X151884218Y-72968560D01*
X151892000Y-72834500D01*
X151871021Y-72654592D01*
X151772060Y-72588282D01*
X151638000Y-72580500D01*
X151458092Y-72559521D01*
X151391781Y-72460560D01*
X151384000Y-72326500D01*
X151404979Y-72146592D01*
X151503940Y-72080282D01*
X151638000Y-72072500D01*
X151817908Y-72051521D01*
X151884218Y-71952560D01*
X151892000Y-71818500D01*
X151912979Y-71638592D01*
X152011940Y-71572282D01*
X152146000Y-71564500D01*
X152325908Y-71543521D01*
X152392218Y-71444560D01*
X152400000Y-71310500D01*
X152420979Y-71130592D01*
X152519940Y-71064282D01*
X152654000Y-71056500D01*
X152833908Y-71077479D01*
X152900218Y-71176440D01*
X152908000Y-71310500D01*
X152928979Y-71490408D01*
X153027940Y-71556719D01*
X153162000Y-71564500D01*
X153416000Y-71564500D01*
X153416000Y-70040500D01*
X153670000Y-70040500D01*
X153849908Y-70019521D01*
X153916218Y-69920560D01*
X153924000Y-69786500D01*
X153924000Y-69532500D01*
X152400000Y-69532500D01*
X152400000Y-69786500D01*
X152420979Y-69966408D01*
X152519940Y-70032719D01*
X152654000Y-70040500D01*
X152833908Y-70061479D01*
X152900218Y-70160440D01*
X152908000Y-70294500D01*
X152908000Y-70548500D01*
X151892000Y-70548500D01*
X151892000Y-71564500D01*
X151892000Y-71564500D01*
G37*
X151892000Y-71564500D02*
X151638000Y-71564500D01*
X151458092Y-71543521D01*
X151391781Y-71444560D01*
X151384000Y-71310500D01*
X151363021Y-71130592D01*
X151264060Y-71064282D01*
X151130000Y-71056500D01*
X150950092Y-71077479D01*
X150883781Y-71176440D01*
X150876000Y-71310500D01*
X150896979Y-71490408D01*
X150995940Y-71556719D01*
X151130000Y-71564500D01*
X151309908Y-71585479D01*
X151376218Y-71684440D01*
X151384000Y-71818500D01*
X151363021Y-71998408D01*
X151264060Y-72064719D01*
X151130000Y-72072500D01*
X150950092Y-72093479D01*
X150883781Y-72192440D01*
X150876000Y-72326500D01*
X150855021Y-72506408D01*
X150756060Y-72572719D01*
X150622000Y-72580500D01*
X150442092Y-72601479D01*
X150375781Y-72700440D01*
X150368000Y-72834500D01*
X150388979Y-73014408D01*
X150487940Y-73080719D01*
X150622000Y-73088500D01*
X150801908Y-73067521D01*
X150868218Y-72968560D01*
X150876000Y-72834500D01*
X150896979Y-72654592D01*
X150995940Y-72588282D01*
X151130000Y-72580500D01*
X151309908Y-72601479D01*
X151376218Y-72700440D01*
X151384000Y-72834500D01*
X151404979Y-73014408D01*
X151503940Y-73080719D01*
X151638000Y-73088500D01*
X151817908Y-73067521D01*
X151884218Y-72968560D01*
X151892000Y-72834500D01*
X151871021Y-72654592D01*
X151772060Y-72588282D01*
X151638000Y-72580500D01*
X151458092Y-72559521D01*
X151391781Y-72460560D01*
X151384000Y-72326500D01*
X151404979Y-72146592D01*
X151503940Y-72080282D01*
X151638000Y-72072500D01*
X151817908Y-72051521D01*
X151884218Y-71952560D01*
X151892000Y-71818500D01*
X151912979Y-71638592D01*
X152011940Y-71572282D01*
X152146000Y-71564500D01*
X152325908Y-71543521D01*
X152392218Y-71444560D01*
X152400000Y-71310500D01*
X152420979Y-71130592D01*
X152519940Y-71064282D01*
X152654000Y-71056500D01*
X152833908Y-71077479D01*
X152900218Y-71176440D01*
X152908000Y-71310500D01*
X152928979Y-71490408D01*
X153027940Y-71556719D01*
X153162000Y-71564500D01*
X153416000Y-71564500D01*
X153416000Y-70040500D01*
X153670000Y-70040500D01*
X153849908Y-70019521D01*
X153916218Y-69920560D01*
X153924000Y-69786500D01*
X153924000Y-69532500D01*
X152400000Y-69532500D01*
X152400000Y-69786500D01*
X152420979Y-69966408D01*
X152519940Y-70032719D01*
X152654000Y-70040500D01*
X152833908Y-70061479D01*
X152900218Y-70160440D01*
X152908000Y-70294500D01*
X152908000Y-70548500D01*
X151892000Y-70548500D01*
X151892000Y-71564500D01*
G36*
X156464000Y-71056500D02*
G01*
X156210000Y-71056500D01*
X156030092Y-71035521D01*
X155963781Y-70936560D01*
X155956000Y-70802500D01*
X155956000Y-70548500D01*
X154940000Y-70548500D01*
X154940000Y-71564500D01*
X155448000Y-71564500D01*
X155448000Y-72580500D01*
X154432000Y-72580500D01*
X154432000Y-72834500D01*
X154411021Y-73014408D01*
X154312060Y-73080719D01*
X154178000Y-73088500D01*
X153924000Y-73088500D01*
X153924000Y-72072500D01*
X154432000Y-72072500D01*
X154432000Y-71056500D01*
X154178000Y-71056500D01*
X153998092Y-71077479D01*
X153931781Y-71176440D01*
X153924000Y-71310500D01*
X153903021Y-71490408D01*
X153804060Y-71556719D01*
X153670000Y-71564500D01*
X153416000Y-71564500D01*
X153416000Y-73088500D01*
X152908000Y-73088500D01*
X152908000Y-74612500D01*
X151892000Y-74612500D01*
X151892000Y-74358500D01*
X151871021Y-74178592D01*
X151772060Y-74112282D01*
X151638000Y-74104500D01*
X151458092Y-74083521D01*
X151391781Y-73984560D01*
X151384000Y-73850500D01*
X151384000Y-73596500D01*
X150368000Y-73596500D01*
X150368000Y-74104500D01*
X150876000Y-74104500D01*
X150876000Y-75120500D01*
X150368000Y-75120500D01*
X150368000Y-75628500D01*
X151384000Y-75628500D01*
X151384000Y-77660500D01*
X151130000Y-77660500D01*
X150950092Y-77681479D01*
X150883781Y-77780440D01*
X150876000Y-77914500D01*
X150855021Y-78094408D01*
X150756060Y-78160719D01*
X150622000Y-78168500D01*
X150442092Y-78147521D01*
X150375781Y-78048560D01*
X150368000Y-77914500D01*
X150347021Y-77734592D01*
X150248060Y-77668282D01*
X150114000Y-77660500D01*
X149934092Y-77681479D01*
X149867781Y-77780440D01*
X149860000Y-77914500D01*
X149860000Y-78168500D01*
X148844000Y-78168500D01*
X148844000Y-78422500D01*
X148823021Y-78602408D01*
X148724060Y-78668719D01*
X148590000Y-78676500D01*
X148410092Y-78655521D01*
X148343781Y-78556560D01*
X148336000Y-78422500D01*
X148336000Y-78168500D01*
X146812000Y-78168500D01*
X146812000Y-78676500D01*
X148336000Y-78676500D01*
X148336000Y-78930500D01*
X148315021Y-79110408D01*
X148216060Y-79176719D01*
X148082000Y-79184500D01*
X147902092Y-79205479D01*
X147835781Y-79304440D01*
X147828000Y-79438500D01*
X147828000Y-79692500D01*
X148844000Y-79692500D01*
X148844000Y-79946500D01*
X148823021Y-80126408D01*
X148724060Y-80192719D01*
X148590000Y-80200500D01*
X148410092Y-80221479D01*
X148343781Y-80320440D01*
X148336000Y-80454500D01*
X148315021Y-80634408D01*
X148216060Y-80700719D01*
X148082000Y-80708500D01*
X147902092Y-80729479D01*
X147835781Y-80828440D01*
X147828000Y-80962500D01*
X147807021Y-81142408D01*
X147708060Y-81208719D01*
X147574000Y-81216500D01*
X147320000Y-81216500D01*
X147320000Y-80200500D01*
X146812000Y-80200500D01*
X146812000Y-81216500D01*
X147066000Y-81216500D01*
X147245908Y-81237479D01*
X147312218Y-81336440D01*
X147320000Y-81470500D01*
X147299021Y-81650408D01*
X147200060Y-81716719D01*
X147066000Y-81724500D01*
X146886092Y-81745479D01*
X146819781Y-81844440D01*
X146812000Y-81978500D01*
X146832979Y-82158408D01*
X146931940Y-82224719D01*
X147066000Y-82232500D01*
X147245908Y-82211521D01*
X147312218Y-82112560D01*
X147320000Y-81978500D01*
X147340979Y-81798592D01*
X147439940Y-81732282D01*
X147574000Y-81724500D01*
X147828000Y-81724500D01*
X147828000Y-82740500D01*
X148082000Y-82740500D01*
X148261908Y-82719521D01*
X148328218Y-82620560D01*
X148336000Y-82486500D01*
X148356979Y-82306592D01*
X148455940Y-82240282D01*
X148590000Y-82232500D01*
X148769908Y-82253479D01*
X148836218Y-82352440D01*
X148844000Y-82486500D01*
X148844000Y-82740500D01*
X150368000Y-82740500D01*
X150368000Y-81978500D01*
X149352000Y-81978500D01*
X149331021Y-82158408D01*
X149232060Y-82224719D01*
X149098000Y-82232500D01*
X148918092Y-82211521D01*
X148851781Y-82112560D01*
X148844000Y-81978500D01*
X148864979Y-81798592D01*
X148963940Y-81732282D01*
X149098000Y-81724500D01*
X149277908Y-81745479D01*
X149344218Y-81844440D01*
X149352000Y-81978500D01*
X150368000Y-81978500D01*
X150368000Y-81724500D01*
X151892000Y-81724500D01*
X151892000Y-81978500D01*
X151871021Y-82158408D01*
X151772060Y-82224719D01*
X151638000Y-82232500D01*
X151458092Y-82253479D01*
X151391781Y-82352440D01*
X151384000Y-82486500D01*
X151404979Y-82666408D01*
X151503940Y-82732719D01*
X151638000Y-82740500D01*
X151817908Y-82719521D01*
X151884218Y-82620560D01*
X151892000Y-82486500D01*
X151912979Y-82306592D01*
X152011940Y-82240282D01*
X152146000Y-82232500D01*
X152325908Y-82211521D01*
X152392218Y-82112560D01*
X152400000Y-81978500D01*
X152420979Y-81798592D01*
X152519940Y-81732282D01*
X152654000Y-81724500D01*
X152833908Y-81703521D01*
X152900218Y-81604560D01*
X152908000Y-81470500D01*
X152928979Y-81290592D01*
X153027940Y-81224282D01*
X153162000Y-81216500D01*
X153341908Y-81237479D01*
X153408218Y-81336440D01*
X153416000Y-81470500D01*
X153436979Y-81650408D01*
X153535940Y-81716719D01*
X153670000Y-81724500D01*
X153849908Y-81745479D01*
X153916218Y-81844440D01*
X153924000Y-81978500D01*
X153903021Y-82158408D01*
X153804060Y-82224719D01*
X153670000Y-82232500D01*
X153490092Y-82253479D01*
X153423781Y-82352440D01*
X153416000Y-82486500D01*
X153416000Y-82740500D01*
X154432000Y-82740500D01*
X154432000Y-82486500D01*
X154452979Y-82306592D01*
X154551940Y-82240282D01*
X154686000Y-82232500D01*
X154865908Y-82253479D01*
X154932218Y-82352440D01*
X154940000Y-82486500D01*
X154960979Y-82666408D01*
X155059940Y-82732719D01*
X155194000Y-82740500D01*
X155448000Y-82740500D01*
X155448000Y-81724500D01*
X155194000Y-81724500D01*
X155014092Y-81703521D01*
X154947781Y-81604560D01*
X154940000Y-81470500D01*
X154960979Y-81290592D01*
X155059940Y-81224282D01*
X155194000Y-81216500D01*
X155373908Y-81195521D01*
X155440218Y-81096560D01*
X155448000Y-80962500D01*
X155427021Y-80782592D01*
X155328060Y-80716282D01*
X155194000Y-80708500D01*
X155014092Y-80687521D01*
X154947781Y-80588560D01*
X154940000Y-80454500D01*
X154919021Y-80274592D01*
X154820060Y-80208282D01*
X154686000Y-80200500D01*
X154506092Y-80179521D01*
X154439781Y-80080560D01*
X154432000Y-79946500D01*
X154411021Y-79766592D01*
X154312060Y-79700282D01*
X154178000Y-79692500D01*
X153998092Y-79671521D01*
X153931781Y-79572560D01*
X153924000Y-79438500D01*
X153944979Y-79258592D01*
X154043940Y-79192282D01*
X154178000Y-79184500D01*
X154432000Y-79184500D01*
X154432000Y-78930500D01*
X153924000Y-78930500D01*
X153924000Y-79184500D01*
X152400000Y-79184500D01*
X152400000Y-79438500D01*
X152420979Y-79618408D01*
X152519940Y-79684719D01*
X152654000Y-79692500D01*
X152833908Y-79713479D01*
X152900218Y-79812440D01*
X152908000Y-79946500D01*
X152908000Y-80200500D01*
X153924000Y-80200500D01*
X153924000Y-81216500D01*
X153670000Y-81216500D01*
X153490092Y-81195521D01*
X153423781Y-81096560D01*
X153416000Y-80962500D01*
X153395021Y-80782592D01*
X153296060Y-80716282D01*
X153162000Y-80708500D01*
X152982092Y-80729479D01*
X152915781Y-80828440D01*
X152908000Y-80962500D01*
X152887021Y-81142408D01*
X152788060Y-81208719D01*
X152654000Y-81216500D01*
X152474092Y-81237479D01*
X152407781Y-81336440D01*
X152400000Y-81470500D01*
X152379021Y-81650408D01*
X152280060Y-81716719D01*
X152146000Y-81724500D01*
X151966092Y-81703521D01*
X151899781Y-81604560D01*
X151892000Y-81470500D01*
X151912979Y-81290592D01*
X152011940Y-81224282D01*
X152146000Y-81216500D01*
X152325908Y-81195521D01*
X152392218Y-81096560D01*
X152400000Y-80962500D01*
X152379021Y-80782592D01*
X152280060Y-80716282D01*
X152146000Y-80708500D01*
X150368000Y-80708500D01*
X150368000Y-81216500D01*
X148844000Y-81216500D01*
X148844000Y-80708500D01*
X150368000Y-80708500D01*
X152146000Y-80708500D01*
X151966092Y-80687521D01*
X151899781Y-80588560D01*
X151892000Y-80454500D01*
X151912979Y-80274592D01*
X152011940Y-80208282D01*
X152146000Y-80200500D01*
X152325908Y-80179521D01*
X152392218Y-80080560D01*
X152400000Y-79946500D01*
X152379021Y-79766592D01*
X152280060Y-79700282D01*
X152146000Y-79692500D01*
X151966092Y-79671521D01*
X151899781Y-79572560D01*
X151892000Y-79438500D01*
X151871021Y-79258592D01*
X151772060Y-79192282D01*
X151638000Y-79184500D01*
X151458092Y-79163521D01*
X151391781Y-79064560D01*
X151384000Y-78930500D01*
X151404979Y-78750592D01*
X151503940Y-78684282D01*
X151638000Y-78676500D01*
X150876000Y-78676500D01*
X150876000Y-80200500D01*
X149352000Y-80200500D01*
X149352000Y-78676500D01*
X150876000Y-78676500D01*
X151638000Y-78676500D01*
X151817908Y-78655521D01*
X151884218Y-78556560D01*
X151892000Y-78422500D01*
X151871021Y-78242592D01*
X151772060Y-78176282D01*
X151638000Y-78168500D01*
X151458092Y-78147521D01*
X151391781Y-78048560D01*
X151384000Y-77914500D01*
X151404979Y-77734592D01*
X151503940Y-77668282D01*
X151638000Y-77660500D01*
X151817908Y-77639521D01*
X151884218Y-77540560D01*
X151892000Y-77406500D01*
X151892000Y-77152500D01*
X153416000Y-77152500D01*
X153416000Y-78676500D01*
X153670000Y-78676500D01*
X153849908Y-78697479D01*
X153916218Y-78796440D01*
X153924000Y-78930500D01*
X154432000Y-78930500D01*
X154432000Y-78168500D01*
X154686000Y-78168500D01*
X154865908Y-78189479D01*
X154932218Y-78288440D01*
X154940000Y-78422500D01*
X154960979Y-78602408D01*
X155059940Y-78668719D01*
X155194000Y-78676500D01*
X155448000Y-78676500D01*
X155448000Y-77660500D01*
X155702000Y-77660500D01*
X155881908Y-77681479D01*
X155948218Y-77780440D01*
X155956000Y-77914500D01*
X155976979Y-78094408D01*
X156075940Y-78160719D01*
X156210000Y-78168500D01*
X156464000Y-78168500D01*
X156464000Y-77152500D01*
X155448000Y-77152500D01*
X155448000Y-77660500D01*
X154432000Y-77660500D01*
X154432000Y-77914500D01*
X154411021Y-78094408D01*
X154312060Y-78160719D01*
X154178000Y-78168500D01*
X153924000Y-78168500D01*
X153924000Y-77152500D01*
X155448000Y-77152500D01*
X155448000Y-76644500D01*
X152908000Y-76644500D01*
X152908000Y-76136500D01*
X151892000Y-76136500D01*
X151892000Y-75882500D01*
X151871021Y-75702592D01*
X151772060Y-75636282D01*
X151638000Y-75628500D01*
X151458092Y-75607521D01*
X151391781Y-75508560D01*
X151384000Y-75374500D01*
X151384000Y-75120500D01*
X153416000Y-75120500D01*
X153416000Y-75374500D01*
X153436979Y-75554408D01*
X153535940Y-75620719D01*
X153670000Y-75628500D01*
X153924000Y-75628500D01*
X153924000Y-74612500D01*
X153670000Y-74612500D01*
X153490092Y-74591521D01*
X153423781Y-74492560D01*
X153416000Y-74358500D01*
X153436979Y-74178592D01*
X153535940Y-74112282D01*
X153670000Y-74104500D01*
X153849908Y-74083521D01*
X153916218Y-73984560D01*
X153924000Y-73850500D01*
X153944979Y-73670592D01*
X154043940Y-73604282D01*
X154178000Y-73596500D01*
X154432000Y-73596500D01*
X154432000Y-74612500D01*
X155956000Y-74612500D01*
X155956000Y-74358500D01*
X155935021Y-74178592D01*
X155836060Y-74112282D01*
X155702000Y-74104500D01*
X155522092Y-74083521D01*
X155455781Y-73984560D01*
X155448000Y-73850500D01*
X155427021Y-73670592D01*
X155328060Y-73604282D01*
X155194000Y-73596500D01*
X155014092Y-73575521D01*
X154947781Y-73476560D01*
X154940000Y-73342500D01*
X154960979Y-73162592D01*
X155059940Y-73096282D01*
X155194000Y-73088500D01*
X155373908Y-73067521D01*
X155440218Y-72968560D01*
X155448000Y-72834500D01*
X155468979Y-72654592D01*
X155567940Y-72588282D01*
X155702000Y-72580500D01*
X155881908Y-72559521D01*
X155948218Y-72460560D01*
X155956000Y-72326500D01*
X155976979Y-72146592D01*
X156075940Y-72080282D01*
X156210000Y-72072500D01*
X156464000Y-72072500D01*
X156464000Y-71310500D01*
X155956000Y-71310500D01*
X155935021Y-71490408D01*
X155836060Y-71556719D01*
X155702000Y-71564500D01*
X155522092Y-71543521D01*
X155455781Y-71444560D01*
X155448000Y-71310500D01*
X155468979Y-71130592D01*
X155567940Y-71064282D01*
X155702000Y-71056500D01*
X155881908Y-71077479D01*
X155948218Y-71176440D01*
X155956000Y-71310500D01*
X156464000Y-71310500D01*
X156464000Y-71056500D01*
X156464000Y-71056500D01*
G37*
X156464000Y-71056500D02*
X156210000Y-71056500D01*
X156030092Y-71035521D01*
X155963781Y-70936560D01*
X155956000Y-70802500D01*
X155956000Y-70548500D01*
X154940000Y-70548500D01*
X154940000Y-71564500D01*
X155448000Y-71564500D01*
X155448000Y-72580500D01*
X154432000Y-72580500D01*
X154432000Y-72834500D01*
X154411021Y-73014408D01*
X154312060Y-73080719D01*
X154178000Y-73088500D01*
X153924000Y-73088500D01*
X153924000Y-72072500D01*
X154432000Y-72072500D01*
X154432000Y-71056500D01*
X154178000Y-71056500D01*
X153998092Y-71077479D01*
X153931781Y-71176440D01*
X153924000Y-71310500D01*
X153903021Y-71490408D01*
X153804060Y-71556719D01*
X153670000Y-71564500D01*
X153416000Y-71564500D01*
X153416000Y-73088500D01*
X152908000Y-73088500D01*
X152908000Y-74612500D01*
X151892000Y-74612500D01*
X151892000Y-74358500D01*
X151871021Y-74178592D01*
X151772060Y-74112282D01*
X151638000Y-74104500D01*
X151458092Y-74083521D01*
X151391781Y-73984560D01*
X151384000Y-73850500D01*
X151384000Y-73596500D01*
X150368000Y-73596500D01*
X150368000Y-74104500D01*
X150876000Y-74104500D01*
X150876000Y-75120500D01*
X150368000Y-75120500D01*
X150368000Y-75628500D01*
X151384000Y-75628500D01*
X151384000Y-77660500D01*
X151130000Y-77660500D01*
X150950092Y-77681479D01*
X150883781Y-77780440D01*
X150876000Y-77914500D01*
X150855021Y-78094408D01*
X150756060Y-78160719D01*
X150622000Y-78168500D01*
X150442092Y-78147521D01*
X150375781Y-78048560D01*
X150368000Y-77914500D01*
X150347021Y-77734592D01*
X150248060Y-77668282D01*
X150114000Y-77660500D01*
X149934092Y-77681479D01*
X149867781Y-77780440D01*
X149860000Y-77914500D01*
X149860000Y-78168500D01*
X148844000Y-78168500D01*
X148844000Y-78422500D01*
X148823021Y-78602408D01*
X148724060Y-78668719D01*
X148590000Y-78676500D01*
X148410092Y-78655521D01*
X148343781Y-78556560D01*
X148336000Y-78422500D01*
X148336000Y-78168500D01*
X146812000Y-78168500D01*
X146812000Y-78676500D01*
X148336000Y-78676500D01*
X148336000Y-78930500D01*
X148315021Y-79110408D01*
X148216060Y-79176719D01*
X148082000Y-79184500D01*
X147902092Y-79205479D01*
X147835781Y-79304440D01*
X147828000Y-79438500D01*
X147828000Y-79692500D01*
X148844000Y-79692500D01*
X148844000Y-79946500D01*
X148823021Y-80126408D01*
X148724060Y-80192719D01*
X148590000Y-80200500D01*
X148410092Y-80221479D01*
X148343781Y-80320440D01*
X148336000Y-80454500D01*
X148315021Y-80634408D01*
X148216060Y-80700719D01*
X148082000Y-80708500D01*
X147902092Y-80729479D01*
X147835781Y-80828440D01*
X147828000Y-80962500D01*
X147807021Y-81142408D01*
X147708060Y-81208719D01*
X147574000Y-81216500D01*
X147320000Y-81216500D01*
X147320000Y-80200500D01*
X146812000Y-80200500D01*
X146812000Y-81216500D01*
X147066000Y-81216500D01*
X147245908Y-81237479D01*
X147312218Y-81336440D01*
X147320000Y-81470500D01*
X147299021Y-81650408D01*
X147200060Y-81716719D01*
X147066000Y-81724500D01*
X146886092Y-81745479D01*
X146819781Y-81844440D01*
X146812000Y-81978500D01*
X146832979Y-82158408D01*
X146931940Y-82224719D01*
X147066000Y-82232500D01*
X147245908Y-82211521D01*
X147312218Y-82112560D01*
X147320000Y-81978500D01*
X147340979Y-81798592D01*
X147439940Y-81732282D01*
X147574000Y-81724500D01*
X147828000Y-81724500D01*
X147828000Y-82740500D01*
X148082000Y-82740500D01*
X148261908Y-82719521D01*
X148328218Y-82620560D01*
X148336000Y-82486500D01*
X148356979Y-82306592D01*
X148455940Y-82240282D01*
X148590000Y-82232500D01*
X148769908Y-82253479D01*
X148836218Y-82352440D01*
X148844000Y-82486500D01*
X148844000Y-82740500D01*
X150368000Y-82740500D01*
X150368000Y-81978500D01*
X149352000Y-81978500D01*
X149331021Y-82158408D01*
X149232060Y-82224719D01*
X149098000Y-82232500D01*
X148918092Y-82211521D01*
X148851781Y-82112560D01*
X148844000Y-81978500D01*
X148864979Y-81798592D01*
X148963940Y-81732282D01*
X149098000Y-81724500D01*
X149277908Y-81745479D01*
X149344218Y-81844440D01*
X149352000Y-81978500D01*
X150368000Y-81978500D01*
X150368000Y-81724500D01*
X151892000Y-81724500D01*
X151892000Y-81978500D01*
X151871021Y-82158408D01*
X151772060Y-82224719D01*
X151638000Y-82232500D01*
X151458092Y-82253479D01*
X151391781Y-82352440D01*
X151384000Y-82486500D01*
X151404979Y-82666408D01*
X151503940Y-82732719D01*
X151638000Y-82740500D01*
X151817908Y-82719521D01*
X151884218Y-82620560D01*
X151892000Y-82486500D01*
X151912979Y-82306592D01*
X152011940Y-82240282D01*
X152146000Y-82232500D01*
X152325908Y-82211521D01*
X152392218Y-82112560D01*
X152400000Y-81978500D01*
X152420979Y-81798592D01*
X152519940Y-81732282D01*
X152654000Y-81724500D01*
X152833908Y-81703521D01*
X152900218Y-81604560D01*
X152908000Y-81470500D01*
X152928979Y-81290592D01*
X153027940Y-81224282D01*
X153162000Y-81216500D01*
X153341908Y-81237479D01*
X153408218Y-81336440D01*
X153416000Y-81470500D01*
X153436979Y-81650408D01*
X153535940Y-81716719D01*
X153670000Y-81724500D01*
X153849908Y-81745479D01*
X153916218Y-81844440D01*
X153924000Y-81978500D01*
X153903021Y-82158408D01*
X153804060Y-82224719D01*
X153670000Y-82232500D01*
X153490092Y-82253479D01*
X153423781Y-82352440D01*
X153416000Y-82486500D01*
X153416000Y-82740500D01*
X154432000Y-82740500D01*
X154432000Y-82486500D01*
X154452979Y-82306592D01*
X154551940Y-82240282D01*
X154686000Y-82232500D01*
X154865908Y-82253479D01*
X154932218Y-82352440D01*
X154940000Y-82486500D01*
X154960979Y-82666408D01*
X155059940Y-82732719D01*
X155194000Y-82740500D01*
X155448000Y-82740500D01*
X155448000Y-81724500D01*
X155194000Y-81724500D01*
X155014092Y-81703521D01*
X154947781Y-81604560D01*
X154940000Y-81470500D01*
X154960979Y-81290592D01*
X155059940Y-81224282D01*
X155194000Y-81216500D01*
X155373908Y-81195521D01*
X155440218Y-81096560D01*
X155448000Y-80962500D01*
X155427021Y-80782592D01*
X155328060Y-80716282D01*
X155194000Y-80708500D01*
X155014092Y-80687521D01*
X154947781Y-80588560D01*
X154940000Y-80454500D01*
X154919021Y-80274592D01*
X154820060Y-80208282D01*
X154686000Y-80200500D01*
X154506092Y-80179521D01*
X154439781Y-80080560D01*
X154432000Y-79946500D01*
X154411021Y-79766592D01*
X154312060Y-79700282D01*
X154178000Y-79692500D01*
X153998092Y-79671521D01*
X153931781Y-79572560D01*
X153924000Y-79438500D01*
X153944979Y-79258592D01*
X154043940Y-79192282D01*
X154178000Y-79184500D01*
X154432000Y-79184500D01*
X154432000Y-78930500D01*
X153924000Y-78930500D01*
X153924000Y-79184500D01*
X152400000Y-79184500D01*
X152400000Y-79438500D01*
X152420979Y-79618408D01*
X152519940Y-79684719D01*
X152654000Y-79692500D01*
X152833908Y-79713479D01*
X152900218Y-79812440D01*
X152908000Y-79946500D01*
X152908000Y-80200500D01*
X153924000Y-80200500D01*
X153924000Y-81216500D01*
X153670000Y-81216500D01*
X153490092Y-81195521D01*
X153423781Y-81096560D01*
X153416000Y-80962500D01*
X153395021Y-80782592D01*
X153296060Y-80716282D01*
X153162000Y-80708500D01*
X152982092Y-80729479D01*
X152915781Y-80828440D01*
X152908000Y-80962500D01*
X152887021Y-81142408D01*
X152788060Y-81208719D01*
X152654000Y-81216500D01*
X152474092Y-81237479D01*
X152407781Y-81336440D01*
X152400000Y-81470500D01*
X152379021Y-81650408D01*
X152280060Y-81716719D01*
X152146000Y-81724500D01*
X151966092Y-81703521D01*
X151899781Y-81604560D01*
X151892000Y-81470500D01*
X151912979Y-81290592D01*
X152011940Y-81224282D01*
X152146000Y-81216500D01*
X152325908Y-81195521D01*
X152392218Y-81096560D01*
X152400000Y-80962500D01*
X152379021Y-80782592D01*
X152280060Y-80716282D01*
X152146000Y-80708500D01*
X150368000Y-80708500D01*
X150368000Y-81216500D01*
X148844000Y-81216500D01*
X148844000Y-80708500D01*
X150368000Y-80708500D01*
X152146000Y-80708500D01*
X151966092Y-80687521D01*
X151899781Y-80588560D01*
X151892000Y-80454500D01*
X151912979Y-80274592D01*
X152011940Y-80208282D01*
X152146000Y-80200500D01*
X152325908Y-80179521D01*
X152392218Y-80080560D01*
X152400000Y-79946500D01*
X152379021Y-79766592D01*
X152280060Y-79700282D01*
X152146000Y-79692500D01*
X151966092Y-79671521D01*
X151899781Y-79572560D01*
X151892000Y-79438500D01*
X151871021Y-79258592D01*
X151772060Y-79192282D01*
X151638000Y-79184500D01*
X151458092Y-79163521D01*
X151391781Y-79064560D01*
X151384000Y-78930500D01*
X151404979Y-78750592D01*
X151503940Y-78684282D01*
X151638000Y-78676500D01*
X150876000Y-78676500D01*
X150876000Y-80200500D01*
X149352000Y-80200500D01*
X149352000Y-78676500D01*
X150876000Y-78676500D01*
X151638000Y-78676500D01*
X151817908Y-78655521D01*
X151884218Y-78556560D01*
X151892000Y-78422500D01*
X151871021Y-78242592D01*
X151772060Y-78176282D01*
X151638000Y-78168500D01*
X151458092Y-78147521D01*
X151391781Y-78048560D01*
X151384000Y-77914500D01*
X151404979Y-77734592D01*
X151503940Y-77668282D01*
X151638000Y-77660500D01*
X151817908Y-77639521D01*
X151884218Y-77540560D01*
X151892000Y-77406500D01*
X151892000Y-77152500D01*
X153416000Y-77152500D01*
X153416000Y-78676500D01*
X153670000Y-78676500D01*
X153849908Y-78697479D01*
X153916218Y-78796440D01*
X153924000Y-78930500D01*
X154432000Y-78930500D01*
X154432000Y-78168500D01*
X154686000Y-78168500D01*
X154865908Y-78189479D01*
X154932218Y-78288440D01*
X154940000Y-78422500D01*
X154960979Y-78602408D01*
X155059940Y-78668719D01*
X155194000Y-78676500D01*
X155448000Y-78676500D01*
X155448000Y-77660500D01*
X155702000Y-77660500D01*
X155881908Y-77681479D01*
X155948218Y-77780440D01*
X155956000Y-77914500D01*
X155976979Y-78094408D01*
X156075940Y-78160719D01*
X156210000Y-78168500D01*
X156464000Y-78168500D01*
X156464000Y-77152500D01*
X155448000Y-77152500D01*
X155448000Y-77660500D01*
X154432000Y-77660500D01*
X154432000Y-77914500D01*
X154411021Y-78094408D01*
X154312060Y-78160719D01*
X154178000Y-78168500D01*
X153924000Y-78168500D01*
X153924000Y-77152500D01*
X155448000Y-77152500D01*
X155448000Y-76644500D01*
X152908000Y-76644500D01*
X152908000Y-76136500D01*
X151892000Y-76136500D01*
X151892000Y-75882500D01*
X151871021Y-75702592D01*
X151772060Y-75636282D01*
X151638000Y-75628500D01*
X151458092Y-75607521D01*
X151391781Y-75508560D01*
X151384000Y-75374500D01*
X151384000Y-75120500D01*
X153416000Y-75120500D01*
X153416000Y-75374500D01*
X153436979Y-75554408D01*
X153535940Y-75620719D01*
X153670000Y-75628500D01*
X153924000Y-75628500D01*
X153924000Y-74612500D01*
X153670000Y-74612500D01*
X153490092Y-74591521D01*
X153423781Y-74492560D01*
X153416000Y-74358500D01*
X153436979Y-74178592D01*
X153535940Y-74112282D01*
X153670000Y-74104500D01*
X153849908Y-74083521D01*
X153916218Y-73984560D01*
X153924000Y-73850500D01*
X153944979Y-73670592D01*
X154043940Y-73604282D01*
X154178000Y-73596500D01*
X154432000Y-73596500D01*
X154432000Y-74612500D01*
X155956000Y-74612500D01*
X155956000Y-74358500D01*
X155935021Y-74178592D01*
X155836060Y-74112282D01*
X155702000Y-74104500D01*
X155522092Y-74083521D01*
X155455781Y-73984560D01*
X155448000Y-73850500D01*
X155427021Y-73670592D01*
X155328060Y-73604282D01*
X155194000Y-73596500D01*
X155014092Y-73575521D01*
X154947781Y-73476560D01*
X154940000Y-73342500D01*
X154960979Y-73162592D01*
X155059940Y-73096282D01*
X155194000Y-73088500D01*
X155373908Y-73067521D01*
X155440218Y-72968560D01*
X155448000Y-72834500D01*
X155468979Y-72654592D01*
X155567940Y-72588282D01*
X155702000Y-72580500D01*
X155881908Y-72559521D01*
X155948218Y-72460560D01*
X155956000Y-72326500D01*
X155976979Y-72146592D01*
X156075940Y-72080282D01*
X156210000Y-72072500D01*
X156464000Y-72072500D01*
X156464000Y-71310500D01*
X155956000Y-71310500D01*
X155935021Y-71490408D01*
X155836060Y-71556719D01*
X155702000Y-71564500D01*
X155522092Y-71543521D01*
X155455781Y-71444560D01*
X155448000Y-71310500D01*
X155468979Y-71130592D01*
X155567940Y-71064282D01*
X155702000Y-71056500D01*
X155881908Y-71077479D01*
X155948218Y-71176440D01*
X155956000Y-71310500D01*
X156464000Y-71310500D01*
X156464000Y-71056500D01*
G36*
X156972000Y-75628500D02*
G01*
X158496000Y-75628500D01*
X158496000Y-75882500D01*
X158475021Y-76062408D01*
X158376060Y-76128719D01*
X158242000Y-76136500D01*
X158062092Y-76157479D01*
X157995781Y-76256440D01*
X157988000Y-76390500D01*
X158008979Y-76570408D01*
X158107940Y-76636719D01*
X158242000Y-76644500D01*
X158421908Y-76623521D01*
X158488218Y-76524560D01*
X158496000Y-76390500D01*
X158516979Y-76210592D01*
X158615940Y-76144282D01*
X158750000Y-76136500D01*
X158929908Y-76157479D01*
X158996218Y-76256440D01*
X159004000Y-76390500D01*
X159024979Y-76570408D01*
X159123940Y-76636719D01*
X159258000Y-76644500D01*
X159437908Y-76623521D01*
X159504218Y-76524560D01*
X159512000Y-76390500D01*
X159532979Y-76210592D01*
X159631940Y-76144282D01*
X159766000Y-76136500D01*
X160020000Y-76136500D01*
X160020000Y-75120500D01*
X161544000Y-75120500D01*
X161544000Y-74866500D01*
X161523021Y-74686592D01*
X161424060Y-74620282D01*
X161290000Y-74612500D01*
X161110092Y-74591521D01*
X161043781Y-74492560D01*
X161036000Y-74358500D01*
X161015021Y-74178592D01*
X160916060Y-74112282D01*
X160782000Y-74104500D01*
X160602092Y-74083521D01*
X160535781Y-73984560D01*
X160528000Y-73850500D01*
X160548979Y-73670592D01*
X160647940Y-73604282D01*
X160782000Y-73596500D01*
X160961908Y-73575521D01*
X161028218Y-73476560D01*
X161036000Y-73342500D01*
X161056979Y-73162592D01*
X161155940Y-73096282D01*
X161290000Y-73088500D01*
X161544000Y-73088500D01*
X161544000Y-72072500D01*
X160528000Y-72072500D01*
X160528000Y-72580500D01*
X159004000Y-72580500D01*
X159004000Y-72072500D01*
X157480000Y-72072500D01*
X157480000Y-72326500D01*
X157459021Y-72506408D01*
X157360060Y-72572719D01*
X157226000Y-72580500D01*
X157046092Y-72559521D01*
X156979781Y-72460560D01*
X156972000Y-72326500D01*
X156951021Y-72146592D01*
X156852060Y-72080282D01*
X156718000Y-72072500D01*
X156464000Y-72072500D01*
X156464000Y-73088500D01*
X157988000Y-73088500D01*
X157988000Y-72834500D01*
X158008979Y-72654592D01*
X158107940Y-72588282D01*
X158242000Y-72580500D01*
X158421908Y-72601479D01*
X158488218Y-72700440D01*
X158496000Y-72834500D01*
X158496000Y-73088500D01*
X160528000Y-73088500D01*
X160528000Y-72834500D01*
X160548979Y-72654592D01*
X160647940Y-72588282D01*
X160782000Y-72580500D01*
X160961908Y-72601479D01*
X161028218Y-72700440D01*
X161036000Y-72834500D01*
X161015021Y-73014408D01*
X160916060Y-73080719D01*
X160782000Y-73088500D01*
X160602092Y-73109479D01*
X160535781Y-73208440D01*
X160528000Y-73342500D01*
X160507021Y-73522408D01*
X160408060Y-73588719D01*
X160274000Y-73596500D01*
X160094092Y-73617479D01*
X160027781Y-73716440D01*
X160020000Y-73850500D01*
X160040979Y-74030408D01*
X160139940Y-74096719D01*
X160274000Y-74104500D01*
X160453908Y-74125479D01*
X160520218Y-74224440D01*
X160528000Y-74358500D01*
X160507021Y-74538408D01*
X160408060Y-74604719D01*
X160274000Y-74612500D01*
X160094092Y-74633479D01*
X160027781Y-74732440D01*
X160020000Y-74866500D01*
X159999021Y-75046408D01*
X159900060Y-75112719D01*
X159766000Y-75120500D01*
X159586092Y-75099521D01*
X159519781Y-75000560D01*
X159512000Y-74866500D01*
X159491021Y-74686592D01*
X159392060Y-74620282D01*
X159258000Y-74612500D01*
X159004000Y-74612500D01*
X159004000Y-75628500D01*
X159258000Y-75628500D01*
X159437908Y-75649479D01*
X159504218Y-75748440D01*
X159512000Y-75882500D01*
X159491021Y-76062408D01*
X159392060Y-76128719D01*
X159258000Y-76136500D01*
X159078092Y-76115521D01*
X159011781Y-76016560D01*
X159004000Y-75882500D01*
X158983021Y-75702592D01*
X158884060Y-75636282D01*
X158750000Y-75628500D01*
X158570092Y-75607521D01*
X158503781Y-75508560D01*
X158496000Y-75374500D01*
X158496000Y-75120500D01*
X156972000Y-75120500D01*
X156972000Y-75374500D01*
X156951021Y-75554408D01*
X156852060Y-75620719D01*
X156718000Y-75628500D01*
X156464000Y-75628500D01*
X156464000Y-77152500D01*
X156972000Y-77152500D01*
X156972000Y-75628500D01*
X156972000Y-75628500D01*
G37*
X156972000Y-75628500D02*
X158496000Y-75628500D01*
X158496000Y-75882500D01*
X158475021Y-76062408D01*
X158376060Y-76128719D01*
X158242000Y-76136500D01*
X158062092Y-76157479D01*
X157995781Y-76256440D01*
X157988000Y-76390500D01*
X158008979Y-76570408D01*
X158107940Y-76636719D01*
X158242000Y-76644500D01*
X158421908Y-76623521D01*
X158488218Y-76524560D01*
X158496000Y-76390500D01*
X158516979Y-76210592D01*
X158615940Y-76144282D01*
X158750000Y-76136500D01*
X158929908Y-76157479D01*
X158996218Y-76256440D01*
X159004000Y-76390500D01*
X159024979Y-76570408D01*
X159123940Y-76636719D01*
X159258000Y-76644500D01*
X159437908Y-76623521D01*
X159504218Y-76524560D01*
X159512000Y-76390500D01*
X159532979Y-76210592D01*
X159631940Y-76144282D01*
X159766000Y-76136500D01*
X160020000Y-76136500D01*
X160020000Y-75120500D01*
X161544000Y-75120500D01*
X161544000Y-74866500D01*
X161523021Y-74686592D01*
X161424060Y-74620282D01*
X161290000Y-74612500D01*
X161110092Y-74591521D01*
X161043781Y-74492560D01*
X161036000Y-74358500D01*
X161015021Y-74178592D01*
X160916060Y-74112282D01*
X160782000Y-74104500D01*
X160602092Y-74083521D01*
X160535781Y-73984560D01*
X160528000Y-73850500D01*
X160548979Y-73670592D01*
X160647940Y-73604282D01*
X160782000Y-73596500D01*
X160961908Y-73575521D01*
X161028218Y-73476560D01*
X161036000Y-73342500D01*
X161056979Y-73162592D01*
X161155940Y-73096282D01*
X161290000Y-73088500D01*
X161544000Y-73088500D01*
X161544000Y-72072500D01*
X160528000Y-72072500D01*
X160528000Y-72580500D01*
X159004000Y-72580500D01*
X159004000Y-72072500D01*
X157480000Y-72072500D01*
X157480000Y-72326500D01*
X157459021Y-72506408D01*
X157360060Y-72572719D01*
X157226000Y-72580500D01*
X157046092Y-72559521D01*
X156979781Y-72460560D01*
X156972000Y-72326500D01*
X156951021Y-72146592D01*
X156852060Y-72080282D01*
X156718000Y-72072500D01*
X156464000Y-72072500D01*
X156464000Y-73088500D01*
X157988000Y-73088500D01*
X157988000Y-72834500D01*
X158008979Y-72654592D01*
X158107940Y-72588282D01*
X158242000Y-72580500D01*
X158421908Y-72601479D01*
X158488218Y-72700440D01*
X158496000Y-72834500D01*
X158496000Y-73088500D01*
X160528000Y-73088500D01*
X160528000Y-72834500D01*
X160548979Y-72654592D01*
X160647940Y-72588282D01*
X160782000Y-72580500D01*
X160961908Y-72601479D01*
X161028218Y-72700440D01*
X161036000Y-72834500D01*
X161015021Y-73014408D01*
X160916060Y-73080719D01*
X160782000Y-73088500D01*
X160602092Y-73109479D01*
X160535781Y-73208440D01*
X160528000Y-73342500D01*
X160507021Y-73522408D01*
X160408060Y-73588719D01*
X160274000Y-73596500D01*
X160094092Y-73617479D01*
X160027781Y-73716440D01*
X160020000Y-73850500D01*
X160040979Y-74030408D01*
X160139940Y-74096719D01*
X160274000Y-74104500D01*
X160453908Y-74125479D01*
X160520218Y-74224440D01*
X160528000Y-74358500D01*
X160507021Y-74538408D01*
X160408060Y-74604719D01*
X160274000Y-74612500D01*
X160094092Y-74633479D01*
X160027781Y-74732440D01*
X160020000Y-74866500D01*
X159999021Y-75046408D01*
X159900060Y-75112719D01*
X159766000Y-75120500D01*
X159586092Y-75099521D01*
X159519781Y-75000560D01*
X159512000Y-74866500D01*
X159491021Y-74686592D01*
X159392060Y-74620282D01*
X159258000Y-74612500D01*
X159004000Y-74612500D01*
X159004000Y-75628500D01*
X159258000Y-75628500D01*
X159437908Y-75649479D01*
X159504218Y-75748440D01*
X159512000Y-75882500D01*
X159491021Y-76062408D01*
X159392060Y-76128719D01*
X159258000Y-76136500D01*
X159078092Y-76115521D01*
X159011781Y-76016560D01*
X159004000Y-75882500D01*
X158983021Y-75702592D01*
X158884060Y-75636282D01*
X158750000Y-75628500D01*
X158570092Y-75607521D01*
X158503781Y-75508560D01*
X158496000Y-75374500D01*
X158496000Y-75120500D01*
X156972000Y-75120500D01*
X156972000Y-75374500D01*
X156951021Y-75554408D01*
X156852060Y-75620719D01*
X156718000Y-75628500D01*
X156464000Y-75628500D01*
X156464000Y-77152500D01*
X156972000Y-77152500D01*
X156972000Y-75628500D01*
G36*
X160528000Y-76644500D02*
G01*
X160782000Y-76644500D01*
X160961908Y-76665479D01*
X161028218Y-76764440D01*
X161036000Y-76898500D01*
X161015021Y-77078408D01*
X160916060Y-77144719D01*
X160782000Y-77152500D01*
X160602092Y-77173479D01*
X160535781Y-77272440D01*
X160528000Y-77406500D01*
X160548979Y-77586408D01*
X160647940Y-77652719D01*
X160782000Y-77660500D01*
X161036000Y-77660500D01*
X161036000Y-78676500D01*
X161544000Y-78676500D01*
X161544000Y-76644500D01*
X161036000Y-76644500D01*
X161036000Y-75628500D01*
X160528000Y-75628500D01*
X160528000Y-76644500D01*
X160528000Y-76644500D01*
G37*
X160528000Y-76644500D02*
X160782000Y-76644500D01*
X160961908Y-76665479D01*
X161028218Y-76764440D01*
X161036000Y-76898500D01*
X161015021Y-77078408D01*
X160916060Y-77144719D01*
X160782000Y-77152500D01*
X160602092Y-77173479D01*
X160535781Y-77272440D01*
X160528000Y-77406500D01*
X160548979Y-77586408D01*
X160647940Y-77652719D01*
X160782000Y-77660500D01*
X161036000Y-77660500D01*
X161036000Y-78676500D01*
X161544000Y-78676500D01*
X161544000Y-76644500D01*
X161036000Y-76644500D01*
X161036000Y-75628500D01*
X160528000Y-75628500D01*
X160528000Y-76644500D01*
G36*
X159004000Y-77660500D02*
G01*
X160020000Y-77660500D01*
X160020000Y-77152500D01*
X159004000Y-77152500D01*
X159004000Y-77660500D01*
X159004000Y-77660500D01*
G37*
X159004000Y-77660500D02*
X160020000Y-77660500D01*
X160020000Y-77152500D01*
X159004000Y-77152500D01*
X159004000Y-77660500D01*
G36*
X146886092Y-75649479D02*
G01*
X146819781Y-75748440D01*
X146812000Y-75882500D01*
X146832979Y-76062408D01*
X146931940Y-76128719D01*
X147066000Y-76136500D01*
X147245908Y-76115521D01*
X147312218Y-76016560D01*
X147320000Y-75882500D01*
X147299021Y-75702592D01*
X147200060Y-75636282D01*
X147066000Y-75628500D01*
X146886092Y-75649479D01*
X146886092Y-75649479D01*
G37*
X146886092Y-75649479D02*
X146819781Y-75748440D01*
X146812000Y-75882500D01*
X146832979Y-76062408D01*
X146931940Y-76128719D01*
X147066000Y-76136500D01*
X147245908Y-76115521D01*
X147312218Y-76016560D01*
X147320000Y-75882500D01*
X147299021Y-75702592D01*
X147200060Y-75636282D01*
X147066000Y-75628500D01*
X146886092Y-75649479D01*
G36*
X148336000Y-72580500D02*
G01*
X147320000Y-72580500D01*
X147320000Y-73088500D01*
X148336000Y-73088500D01*
X148336000Y-72834500D01*
X148356979Y-72654592D01*
X148455940Y-72588282D01*
X148590000Y-72580500D01*
X148844000Y-72580500D01*
X148844000Y-73596500D01*
X148590000Y-73596500D01*
X148410092Y-73617479D01*
X148343781Y-73716440D01*
X148336000Y-73850500D01*
X148356979Y-74030408D01*
X148455940Y-74096719D01*
X148590000Y-74104500D01*
X148769908Y-74083521D01*
X148836218Y-73984560D01*
X148844000Y-73850500D01*
X148864979Y-73670592D01*
X148963940Y-73604282D01*
X149098000Y-73596500D01*
X149277908Y-73575521D01*
X149344218Y-73476560D01*
X149352000Y-73342500D01*
X149372979Y-73162592D01*
X149471940Y-73096282D01*
X149606000Y-73088500D01*
X149785908Y-73067521D01*
X149852218Y-72968560D01*
X149860000Y-72834500D01*
X149839021Y-72654592D01*
X149740060Y-72588282D01*
X149606000Y-72580500D01*
X149426092Y-72559521D01*
X149359781Y-72460560D01*
X149352000Y-72326500D01*
X149352000Y-72072500D01*
X148336000Y-72072500D01*
X148336000Y-72580500D01*
X148336000Y-72580500D01*
G37*
X148336000Y-72580500D02*
X147320000Y-72580500D01*
X147320000Y-73088500D01*
X148336000Y-73088500D01*
X148336000Y-72834500D01*
X148356979Y-72654592D01*
X148455940Y-72588282D01*
X148590000Y-72580500D01*
X148844000Y-72580500D01*
X148844000Y-73596500D01*
X148590000Y-73596500D01*
X148410092Y-73617479D01*
X148343781Y-73716440D01*
X148336000Y-73850500D01*
X148356979Y-74030408D01*
X148455940Y-74096719D01*
X148590000Y-74104500D01*
X148769908Y-74083521D01*
X148836218Y-73984560D01*
X148844000Y-73850500D01*
X148864979Y-73670592D01*
X148963940Y-73604282D01*
X149098000Y-73596500D01*
X149277908Y-73575521D01*
X149344218Y-73476560D01*
X149352000Y-73342500D01*
X149372979Y-73162592D01*
X149471940Y-73096282D01*
X149606000Y-73088500D01*
X149785908Y-73067521D01*
X149852218Y-72968560D01*
X149860000Y-72834500D01*
X149839021Y-72654592D01*
X149740060Y-72588282D01*
X149606000Y-72580500D01*
X149426092Y-72559521D01*
X149359781Y-72460560D01*
X149352000Y-72326500D01*
X149352000Y-72072500D01*
X148336000Y-72072500D01*
X148336000Y-72580500D01*
G36*
X152474092Y-72093479D02*
G01*
X152407781Y-72192440D01*
X152400000Y-72326500D01*
X152420979Y-72506408D01*
X152519940Y-72572719D01*
X152654000Y-72580500D01*
X152833908Y-72559521D01*
X152900218Y-72460560D01*
X152908000Y-72326500D01*
X152887021Y-72146592D01*
X152788060Y-72080282D01*
X152654000Y-72072500D01*
X152474092Y-72093479D01*
X152474092Y-72093479D01*
G37*
X152474092Y-72093479D02*
X152407781Y-72192440D01*
X152400000Y-72326500D01*
X152420979Y-72506408D01*
X152519940Y-72572719D01*
X152654000Y-72580500D01*
X152833908Y-72559521D01*
X152900218Y-72460560D01*
X152908000Y-72326500D01*
X152887021Y-72146592D01*
X152788060Y-72080282D01*
X152654000Y-72072500D01*
X152474092Y-72093479D01*
G36*
X157988000Y-71564500D02*
G01*
X161544000Y-71564500D01*
X161544000Y-68516500D01*
X161036000Y-68516500D01*
X161036000Y-71056500D01*
X158496000Y-71056500D01*
X158496000Y-68516500D01*
X161036000Y-68516500D01*
X161544000Y-68516500D01*
X161544000Y-68008500D01*
X157988000Y-68008500D01*
X157988000Y-71564500D01*
X157988000Y-71564500D01*
G37*
X157988000Y-71564500D02*
X161544000Y-71564500D01*
X161544000Y-68516500D01*
X161036000Y-68516500D01*
X161036000Y-71056500D01*
X158496000Y-71056500D01*
X158496000Y-68516500D01*
X161036000Y-68516500D01*
X161544000Y-68516500D01*
X161544000Y-68008500D01*
X157988000Y-68008500D01*
X157988000Y-71564500D01*
G36*
X157046092Y-71077479D02*
G01*
X156979781Y-71176440D01*
X156972000Y-71310500D01*
X156992979Y-71490408D01*
X157091940Y-71556719D01*
X157226000Y-71564500D01*
X157405908Y-71543521D01*
X157472218Y-71444560D01*
X157480000Y-71310500D01*
X157459021Y-71130592D01*
X157360060Y-71064282D01*
X157226000Y-71056500D01*
X157046092Y-71077479D01*
X157046092Y-71077479D01*
G37*
X157046092Y-71077479D02*
X156979781Y-71176440D01*
X156972000Y-71310500D01*
X156992979Y-71490408D01*
X157091940Y-71556719D01*
X157226000Y-71564500D01*
X157405908Y-71543521D01*
X157472218Y-71444560D01*
X157480000Y-71310500D01*
X157459021Y-71130592D01*
X157360060Y-71064282D01*
X157226000Y-71056500D01*
X157046092Y-71077479D01*
G36*
X146812000Y-71564500D02*
G01*
X150368000Y-71564500D01*
X150368000Y-68516500D01*
X149860000Y-68516500D01*
X149860000Y-71056500D01*
X147320000Y-71056500D01*
X147320000Y-68516500D01*
X149860000Y-68516500D01*
X150368000Y-68516500D01*
X150368000Y-68008500D01*
X146812000Y-68008500D01*
X146812000Y-71564500D01*
X146812000Y-71564500D01*
G37*
X146812000Y-71564500D02*
X150368000Y-71564500D01*
X150368000Y-68516500D01*
X149860000Y-68516500D01*
X149860000Y-71056500D01*
X147320000Y-71056500D01*
X147320000Y-68516500D01*
X149860000Y-68516500D01*
X150368000Y-68516500D01*
X150368000Y-68008500D01*
X146812000Y-68008500D01*
X146812000Y-71564500D01*
G36*
X157046092Y-69553479D02*
G01*
X156979781Y-69652440D01*
X156972000Y-69786500D01*
X156951021Y-69966408D01*
X156852060Y-70032719D01*
X156718000Y-70040500D01*
X156538092Y-70061479D01*
X156471781Y-70160440D01*
X156464000Y-70294500D01*
X156464000Y-70548500D01*
X157480000Y-70548500D01*
X157480000Y-69532500D01*
X157226000Y-69532500D01*
X157046092Y-69553479D01*
X157046092Y-69553479D01*
G37*
X157046092Y-69553479D02*
X156979781Y-69652440D01*
X156972000Y-69786500D01*
X156951021Y-69966408D01*
X156852060Y-70032719D01*
X156718000Y-70040500D01*
X156538092Y-70061479D01*
X156471781Y-70160440D01*
X156464000Y-70294500D01*
X156464000Y-70548500D01*
X157480000Y-70548500D01*
X157480000Y-69532500D01*
X157226000Y-69532500D01*
X157046092Y-69553479D01*
G36*
X155956000Y-69024500D02*
G01*
X156972000Y-69024500D01*
X156972000Y-68516500D01*
X155956000Y-68516500D01*
X155956000Y-69024500D01*
X155956000Y-69024500D01*
G37*
X155956000Y-69024500D02*
X156972000Y-69024500D01*
X156972000Y-68516500D01*
X155956000Y-68516500D01*
X155956000Y-69024500D01*
G36*
X155956000Y-68008500D02*
G01*
X154940000Y-68008500D01*
X154940000Y-68262500D01*
X154919021Y-68442408D01*
X154820060Y-68508719D01*
X154686000Y-68516500D01*
X154506092Y-68495521D01*
X154439781Y-68396560D01*
X154432000Y-68262500D01*
X154432000Y-68008500D01*
X152400000Y-68008500D01*
X152400000Y-69024500D01*
X153416000Y-69024500D01*
X153416000Y-68770500D01*
X153436979Y-68590592D01*
X153535940Y-68524282D01*
X153670000Y-68516500D01*
X153849908Y-68537479D01*
X153916218Y-68636440D01*
X153924000Y-68770500D01*
X153944979Y-68950408D01*
X154043940Y-69016719D01*
X154178000Y-69024500D01*
X154357908Y-69045479D01*
X154424218Y-69144440D01*
X154432000Y-69278500D01*
X154452979Y-69458408D01*
X154551940Y-69524719D01*
X154686000Y-69532500D01*
X154865908Y-69553479D01*
X154932218Y-69652440D01*
X154940000Y-69786500D01*
X154960979Y-69966408D01*
X155059940Y-70032719D01*
X155194000Y-70040500D01*
X155448000Y-70040500D01*
X155448000Y-69024500D01*
X155194000Y-69024500D01*
X155014092Y-69003521D01*
X154947781Y-68904560D01*
X154940000Y-68770500D01*
X154940000Y-68516500D01*
X155956000Y-68516500D01*
X155956000Y-68008500D01*
X155956000Y-68008500D01*
G37*
X155956000Y-68008500D02*
X154940000Y-68008500D01*
X154940000Y-68262500D01*
X154919021Y-68442408D01*
X154820060Y-68508719D01*
X154686000Y-68516500D01*
X154506092Y-68495521D01*
X154439781Y-68396560D01*
X154432000Y-68262500D01*
X154432000Y-68008500D01*
X152400000Y-68008500D01*
X152400000Y-69024500D01*
X153416000Y-69024500D01*
X153416000Y-68770500D01*
X153436979Y-68590592D01*
X153535940Y-68524282D01*
X153670000Y-68516500D01*
X153849908Y-68537479D01*
X153916218Y-68636440D01*
X153924000Y-68770500D01*
X153944979Y-68950408D01*
X154043940Y-69016719D01*
X154178000Y-69024500D01*
X154357908Y-69045479D01*
X154424218Y-69144440D01*
X154432000Y-69278500D01*
X154452979Y-69458408D01*
X154551940Y-69524719D01*
X154686000Y-69532500D01*
X154865908Y-69553479D01*
X154932218Y-69652440D01*
X154940000Y-69786500D01*
X154960979Y-69966408D01*
X155059940Y-70032719D01*
X155194000Y-70040500D01*
X155448000Y-70040500D01*
X155448000Y-69024500D01*
X155194000Y-69024500D01*
X155014092Y-69003521D01*
X154947781Y-68904560D01*
X154940000Y-68770500D01*
X154940000Y-68516500D01*
X155956000Y-68516500D01*
X155956000Y-68008500D01*
G36*
X159004000Y-81724500D02*
G01*
X160528000Y-81724500D01*
X160528000Y-80200500D01*
X159004000Y-80200500D01*
X159004000Y-81724500D01*
X159004000Y-81724500D01*
G37*
X159004000Y-81724500D02*
X160528000Y-81724500D01*
X160528000Y-80200500D01*
X159004000Y-80200500D01*
X159004000Y-81724500D01*
G36*
X152474092Y-80221479D02*
G01*
X152407781Y-80320440D01*
X152400000Y-80454500D01*
X152420979Y-80634408D01*
X152519940Y-80700719D01*
X152654000Y-80708500D01*
X152833908Y-80687521D01*
X152900218Y-80588560D01*
X152908000Y-80454500D01*
X152887021Y-80274592D01*
X152788060Y-80208282D01*
X152654000Y-80200500D01*
X152474092Y-80221479D01*
X152474092Y-80221479D01*
G37*
X152474092Y-80221479D02*
X152407781Y-80320440D01*
X152400000Y-80454500D01*
X152420979Y-80634408D01*
X152519940Y-80700719D01*
X152654000Y-80708500D01*
X152833908Y-80687521D01*
X152900218Y-80588560D01*
X152908000Y-80454500D01*
X152887021Y-80274592D01*
X152788060Y-80208282D01*
X152654000Y-80200500D01*
X152474092Y-80221479D01*
G36*
X149934092Y-79205479D02*
G01*
X149867781Y-79304440D01*
X149860000Y-79438500D01*
X149880979Y-79618408D01*
X149979940Y-79684719D01*
X150114000Y-79692500D01*
X150293908Y-79671521D01*
X150360218Y-79572560D01*
X150368000Y-79438500D01*
X150347021Y-79258592D01*
X150248060Y-79192282D01*
X150114000Y-79184500D01*
X149934092Y-79205479D01*
X149934092Y-79205479D01*
G37*
X149934092Y-79205479D02*
X149867781Y-79304440D01*
X149860000Y-79438500D01*
X149880979Y-79618408D01*
X149979940Y-79684719D01*
X150114000Y-79692500D01*
X150293908Y-79671521D01*
X150360218Y-79572560D01*
X150368000Y-79438500D01*
X150347021Y-79258592D01*
X150248060Y-79192282D01*
X150114000Y-79184500D01*
X149934092Y-79205479D01*
G36*
X154940000Y-75374500D02*
G01*
X154960979Y-75554408D01*
X155059940Y-75620719D01*
X155194000Y-75628500D01*
X155448000Y-75628500D01*
X155448000Y-76644500D01*
X155956000Y-76644500D01*
X155956000Y-75120500D01*
X154940000Y-75120500D01*
X154940000Y-75374500D01*
X154940000Y-75374500D01*
G37*
X154940000Y-75374500D02*
X154960979Y-75554408D01*
X155059940Y-75620719D01*
X155194000Y-75628500D01*
X155448000Y-75628500D01*
X155448000Y-76644500D01*
X155956000Y-76644500D01*
X155956000Y-75120500D01*
X154940000Y-75120500D01*
X154940000Y-75374500D01*
G36*
X158062092Y-73109479D02*
G01*
X157995781Y-73208440D01*
X157988000Y-73342500D01*
X157967021Y-73522408D01*
X157868060Y-73588719D01*
X157734000Y-73596500D01*
X157554092Y-73617479D01*
X157487781Y-73716440D01*
X157480000Y-73850500D01*
X157500979Y-74030408D01*
X157599940Y-74096719D01*
X157734000Y-74104500D01*
X157913908Y-74125479D01*
X157980218Y-74224440D01*
X157988000Y-74358500D01*
X158008979Y-74538408D01*
X158107940Y-74604719D01*
X158242000Y-74612500D01*
X158421908Y-74591521D01*
X158488218Y-74492560D01*
X158496000Y-74358500D01*
X158475021Y-74178592D01*
X158376060Y-74112282D01*
X158242000Y-74104500D01*
X158062092Y-74083521D01*
X157995781Y-73984560D01*
X157988000Y-73850500D01*
X158008979Y-73670592D01*
X158107940Y-73604282D01*
X158242000Y-73596500D01*
X158421908Y-73575521D01*
X158488218Y-73476560D01*
X158496000Y-73342500D01*
X158475021Y-73162592D01*
X158376060Y-73096282D01*
X158242000Y-73088500D01*
X158062092Y-73109479D01*
X158062092Y-73109479D01*
G37*
X158062092Y-73109479D02*
X157995781Y-73208440D01*
X157988000Y-73342500D01*
X157967021Y-73522408D01*
X157868060Y-73588719D01*
X157734000Y-73596500D01*
X157554092Y-73617479D01*
X157487781Y-73716440D01*
X157480000Y-73850500D01*
X157500979Y-74030408D01*
X157599940Y-74096719D01*
X157734000Y-74104500D01*
X157913908Y-74125479D01*
X157980218Y-74224440D01*
X157988000Y-74358500D01*
X158008979Y-74538408D01*
X158107940Y-74604719D01*
X158242000Y-74612500D01*
X158421908Y-74591521D01*
X158488218Y-74492560D01*
X158496000Y-74358500D01*
X158475021Y-74178592D01*
X158376060Y-74112282D01*
X158242000Y-74104500D01*
X158062092Y-74083521D01*
X157995781Y-73984560D01*
X157988000Y-73850500D01*
X158008979Y-73670592D01*
X158107940Y-73604282D01*
X158242000Y-73596500D01*
X158421908Y-73575521D01*
X158488218Y-73476560D01*
X158496000Y-73342500D01*
X158475021Y-73162592D01*
X158376060Y-73096282D01*
X158242000Y-73088500D01*
X158062092Y-73109479D01*
G36*
X156030092Y-73109479D02*
G01*
X155963781Y-73208440D01*
X155956000Y-73342500D01*
X155976979Y-73522408D01*
X156075940Y-73588719D01*
X156210000Y-73596500D01*
X156464000Y-73596500D01*
X156464000Y-74612500D01*
X156972000Y-74612500D01*
X156972000Y-73596500D01*
X156718000Y-73596500D01*
X156538092Y-73575521D01*
X156471781Y-73476560D01*
X156464000Y-73342500D01*
X156443021Y-73162592D01*
X156344060Y-73096282D01*
X156210000Y-73088500D01*
X156030092Y-73109479D01*
X156030092Y-73109479D01*
G37*
X156030092Y-73109479D02*
X155963781Y-73208440D01*
X155956000Y-73342500D01*
X155976979Y-73522408D01*
X156075940Y-73588719D01*
X156210000Y-73596500D01*
X156464000Y-73596500D01*
X156464000Y-74612500D01*
X156972000Y-74612500D01*
X156972000Y-73596500D01*
X156718000Y-73596500D01*
X156538092Y-73575521D01*
X156471781Y-73476560D01*
X156464000Y-73342500D01*
X156443021Y-73162592D01*
X156344060Y-73096282D01*
X156210000Y-73088500D01*
X156030092Y-73109479D01*
G36*
X159078092Y-73617479D02*
G01*
X159011781Y-73716440D01*
X159004000Y-73850500D01*
X159024979Y-74030408D01*
X159123940Y-74096719D01*
X159258000Y-74104500D01*
X159437908Y-74083521D01*
X159504218Y-73984560D01*
X159512000Y-73850500D01*
X159491021Y-73670592D01*
X159392060Y-73604282D01*
X159258000Y-73596500D01*
X159078092Y-73617479D01*
X159078092Y-73617479D01*
G37*
X159078092Y-73617479D02*
X159011781Y-73716440D01*
X159004000Y-73850500D01*
X159024979Y-74030408D01*
X159123940Y-74096719D01*
X159258000Y-74104500D01*
X159437908Y-74083521D01*
X159504218Y-73984560D01*
X159512000Y-73850500D01*
X159491021Y-73670592D01*
X159392060Y-73604282D01*
X159258000Y-73596500D01*
X159078092Y-73617479D01*
G36*
X159004000Y-70548500D02*
G01*
X160528000Y-70548500D01*
X160528000Y-69024500D01*
X159004000Y-69024500D01*
X159004000Y-70548500D01*
X159004000Y-70548500D01*
G37*
X159004000Y-70548500D02*
X160528000Y-70548500D01*
X160528000Y-69024500D01*
X159004000Y-69024500D01*
X159004000Y-70548500D01*
G36*
X147828000Y-70548500D02*
G01*
X149352000Y-70548500D01*
X149352000Y-69024500D01*
X147828000Y-69024500D01*
X147828000Y-70548500D01*
X147828000Y-70548500D01*
G37*
X147828000Y-70548500D02*
X149352000Y-70548500D01*
X149352000Y-69024500D01*
X147828000Y-69024500D01*
X147828000Y-70548500D01*
D11*
X169746000Y-104414000D02*
X169746000Y-103714000D01*
X168546000Y-103714000D02*
X168546000Y-104414000D01*
X195040000Y-84166000D02*
X195740000Y-84166000D01*
X195740000Y-82966000D02*
X195040000Y-82966000D01*
D12*
X63545500Y-74036000D02*
X63545500Y-71061000D01*
X61295500Y-73211000D02*
X61295500Y-71061000D01*
D11*
X68367000Y-82688000D02*
X68367000Y-80238000D01*
X71587000Y-80888000D02*
X71587000Y-82688000D01*
X70847500Y-77462000D02*
X70847500Y-76462000D01*
X69487500Y-76462000D02*
X69487500Y-77462000D01*
X69323500Y-77462000D02*
X69323500Y-76462000D01*
X67963500Y-76462000D02*
X67963500Y-77462000D01*
X63852500Y-71786000D02*
X63852500Y-72486000D01*
X65052500Y-72486000D02*
X65052500Y-71786000D01*
X71980500Y-81438000D02*
X71980500Y-82138000D01*
X73180500Y-82138000D02*
X73180500Y-81438000D01*
X68992000Y-79721000D02*
X69692000Y-79721000D01*
X69692000Y-78521000D02*
X68992000Y-78521000D01*
D13*
X232156400Y-107291050D02*
G75*
G03X232156400Y-107291050I-381000J0D01*
G01*
D11*
X231124000Y-95444500D02*
X229124000Y-95444500D01*
X229124000Y-93404500D02*
X231124000Y-93404500D01*
X229124000Y-96897000D02*
X231124000Y-96897000D01*
X231124000Y-98937000D02*
X229124000Y-98937000D01*
X230624000Y-102768000D02*
X229624000Y-102768000D01*
X229624000Y-101068000D02*
X230624000Y-101068000D01*
X221386000Y-73731500D02*
X221386000Y-74731500D01*
X219686000Y-74731500D02*
X219686000Y-73731500D01*
X217710000Y-99920000D02*
X217010000Y-99920000D01*
X217010000Y-101120000D02*
X217710000Y-101120000D01*
X217710000Y-96999500D02*
X217010000Y-96999500D01*
X217010000Y-98199500D02*
X217710000Y-98199500D01*
X221774000Y-111350000D02*
X221074000Y-111350000D01*
X221074000Y-112550000D02*
X221774000Y-112550000D01*
X118546000Y-81298500D02*
X117546000Y-81298500D01*
X117546000Y-82658500D02*
X118546000Y-82658500D01*
X101211000Y-86696000D02*
X100211000Y-86696000D01*
X100211000Y-88056000D02*
X101211000Y-88056000D01*
X90522500Y-78199500D02*
X90522500Y-78899500D01*
X91722500Y-78899500D02*
X91722500Y-78199500D01*
X96741500Y-86452000D02*
X97441500Y-86452000D01*
X97441500Y-85252000D02*
X96741500Y-85252000D01*
X93253000Y-82835000D02*
X93253000Y-83535000D01*
X94453000Y-83535000D02*
X94453000Y-82835000D01*
X109128000Y-78199500D02*
X109128000Y-78899500D01*
X110328000Y-78899500D02*
X110328000Y-78199500D01*
X115093000Y-86388500D02*
X115793000Y-86388500D01*
X115793000Y-85188500D02*
X115093000Y-85188500D01*
X112868000Y-83471500D02*
X112868000Y-82771500D01*
X111668000Y-82771500D02*
X111668000Y-83471500D01*
X127664000Y-73502000D02*
X127664000Y-72802000D01*
X126464000Y-72802000D02*
X126464000Y-73502000D01*
X133573000Y-79664000D02*
X132873000Y-79664000D01*
X132873000Y-80864000D02*
X133573000Y-80864000D01*
X129384000Y-77247000D02*
X129384000Y-77947000D01*
X130584000Y-77947000D02*
X130584000Y-77247000D01*
X118272000Y-97884500D02*
X118272000Y-98584500D01*
X119472000Y-98584500D02*
X119472000Y-97884500D01*
X115986000Y-108806000D02*
X115986000Y-109506000D01*
X117186000Y-109506000D02*
X117186000Y-108806000D01*
X126654000Y-91407500D02*
X126654000Y-92107500D01*
X127854000Y-92107500D02*
X127854000Y-91407500D01*
X210216000Y-76927000D02*
X210916000Y-76927000D01*
X210916000Y-75727000D02*
X210216000Y-75727000D01*
X224438000Y-109506000D02*
X224438000Y-108806000D01*
X223238000Y-108806000D02*
X223238000Y-109506000D01*
X215681000Y-68928500D02*
X215681000Y-69628500D01*
X216881000Y-69628500D02*
X216881000Y-68928500D01*
X77947000Y-98396500D02*
X77247000Y-98396500D01*
X77247000Y-99596500D02*
X77947000Y-99596500D01*
X87343500Y-105438000D02*
X88043500Y-105438000D01*
X88043500Y-104238000D02*
X87343500Y-104238000D01*
X88043500Y-107160000D02*
X87343500Y-107160000D01*
X87343500Y-108360000D02*
X88043500Y-108360000D01*
X87343500Y-111280000D02*
X88043500Y-111280000D01*
X88043500Y-110080000D02*
X87343500Y-110080000D01*
X87343500Y-114202000D02*
X88043500Y-114202000D01*
X88043500Y-113002000D02*
X87343500Y-113002000D01*
X88043500Y-101318000D02*
X87343500Y-101318000D01*
X87343500Y-102518000D02*
X88043500Y-102518000D01*
X176756000Y-69500000D02*
X176756000Y-70200000D01*
X177956000Y-70200000D02*
X177956000Y-69500000D01*
X176558000Y-70200000D02*
X176558000Y-69500000D01*
X175358000Y-69500000D02*
X175358000Y-70200000D01*
X173962000Y-69500000D02*
X173962000Y-70200000D01*
X175162000Y-70200000D02*
X175162000Y-69500000D01*
X178152000Y-69500000D02*
X178152000Y-70200000D01*
X179352000Y-70200000D02*
X179352000Y-69500000D01*
X51406500Y-107410000D02*
X51406500Y-108110000D01*
X52606500Y-108110000D02*
X52606500Y-107410000D01*
X53876500Y-98267000D02*
X53876500Y-97567000D01*
X52676500Y-97567000D02*
X52676500Y-98267000D01*
X52807500Y-108260000D02*
X52807500Y-107260000D01*
X54507500Y-107260000D02*
X54507500Y-108260000D01*
X51279500Y-97567000D02*
X51279500Y-98267000D01*
X52479500Y-98267000D02*
X52479500Y-97567000D01*
X48356000Y-104556000D02*
X47656000Y-104556000D01*
X47656000Y-105756000D02*
X48356000Y-105756000D01*
X47656000Y-101311000D02*
X48356000Y-101311000D01*
X48356000Y-100111000D02*
X47656000Y-100111000D01*
X221902000Y-84109000D02*
X221202000Y-84109000D01*
X221202000Y-85309000D02*
X221902000Y-85309000D01*
X219484000Y-74581500D02*
X219484000Y-73881500D01*
X218284000Y-73881500D02*
X218284000Y-74581500D01*
X224692000Y-74581500D02*
X224692000Y-73881500D01*
X223492000Y-73881500D02*
X223492000Y-74581500D01*
X223290000Y-73731500D02*
X223290000Y-74731500D01*
X221590000Y-74731500D02*
X221590000Y-73731500D01*
X55307500Y-76425000D02*
X52007500Y-76425000D01*
X52007500Y-76425000D02*
X52007500Y-71025000D01*
X55307500Y-76425000D02*
X55307500Y-71025000D01*
X215948000Y-110454000D02*
X213948000Y-110454000D01*
X213948000Y-110454000D02*
X213948000Y-106554000D01*
X215948000Y-110454000D02*
X215948000Y-106554000D01*
X80818500Y-85706500D02*
X80818500Y-84296500D01*
X83138500Y-84296500D02*
X83138500Y-86326500D01*
X83138500Y-84296500D02*
X82478500Y-84296500D01*
X81478500Y-84296500D02*
X80818500Y-84296500D01*
X99551000Y-85516000D02*
X99551000Y-84106000D01*
X101871000Y-84106000D02*
X101871000Y-86136000D01*
X101871000Y-84106000D02*
X101211000Y-84106000D01*
X100211000Y-84106000D02*
X99551000Y-84106000D01*
X117546000Y-78708500D02*
X116886000Y-78708500D01*
X119206000Y-78708500D02*
X118546000Y-78708500D01*
X119206000Y-78708500D02*
X119206000Y-80738500D01*
X116886000Y-80118500D02*
X116886000Y-78708500D01*
X211066000Y-71405500D02*
X211726000Y-71405500D01*
X209406000Y-71405500D02*
X210066000Y-71405500D01*
X209406000Y-71405500D02*
X209406000Y-69375500D01*
X211726000Y-69995500D02*
X211726000Y-71405500D01*
X127553000Y-95940500D02*
X127553000Y-94940500D01*
X126193000Y-94940500D02*
X126193000Y-95940500D01*
X126193000Y-97734500D02*
X126193000Y-98734500D01*
X127553000Y-98734500D02*
X127553000Y-97734500D01*
X126193000Y-100528000D02*
X126193000Y-101528000D01*
X127553000Y-101528000D02*
X127553000Y-100528000D01*
X124262000Y-100285000D02*
X123262000Y-100285000D01*
X123262000Y-101645000D02*
X124262000Y-101645000D01*
X81478500Y-88246500D02*
X82478500Y-88246500D01*
X82478500Y-86886500D02*
X81478500Y-86886500D01*
X211066000Y-67455500D02*
X210066000Y-67455500D01*
X210066000Y-68815500D02*
X211066000Y-68815500D01*
X206954000Y-70974500D02*
X207954000Y-70974500D01*
X207954000Y-69614500D02*
X206954000Y-69614500D01*
X211066000Y-72599000D02*
X210066000Y-72599000D01*
X210066000Y-73959000D02*
X211066000Y-73959000D01*
X213596000Y-75811000D02*
X213596000Y-74811000D01*
X212236000Y-74811000D02*
X212236000Y-75811000D01*
X211066000Y-74186500D02*
X210066000Y-74186500D01*
X210066000Y-75546500D02*
X211066000Y-75546500D01*
X190418000Y-79176500D02*
X190418000Y-78176500D01*
X189058000Y-78176500D02*
X189058000Y-79176500D01*
X184476000Y-98724000D02*
X185476000Y-98724000D01*
X185476000Y-97364000D02*
X184476000Y-97364000D01*
X224618000Y-108656000D02*
X224618000Y-109656000D01*
X225978000Y-109656000D02*
X225978000Y-108656000D01*
X137740000Y-69958500D02*
X138740000Y-69958500D01*
X138740000Y-68598500D02*
X137740000Y-68598500D01*
X138740000Y-72916500D02*
X137740000Y-72916500D01*
X137740000Y-74276500D02*
X138740000Y-74276500D01*
X166934000Y-74821500D02*
X165934000Y-74821500D01*
X165934000Y-76181500D02*
X166934000Y-76181500D01*
X166934000Y-79139500D02*
X165934000Y-79139500D01*
X165934000Y-80499500D02*
X166934000Y-80499500D01*
X183380000Y-91141000D02*
X182380000Y-91141000D01*
X182380000Y-92501000D02*
X183380000Y-92501000D01*
X183380000Y-92601500D02*
X182380000Y-92601500D01*
X182380000Y-93961500D02*
X183380000Y-93961500D01*
X47506000Y-104376000D02*
X48506000Y-104376000D01*
X48506000Y-103016000D02*
X47506000Y-103016000D01*
X48506000Y-101492000D02*
X47506000Y-101492000D01*
X47506000Y-102852000D02*
X48506000Y-102852000D01*
X221052000Y-86849500D02*
X222052000Y-86849500D01*
X222052000Y-85489500D02*
X221052000Y-85489500D01*
X220988000Y-77451500D02*
X221988000Y-77451500D01*
X221988000Y-76091500D02*
X220988000Y-76091500D01*
X218130000Y-85325500D02*
X219130000Y-85325500D01*
X219130000Y-83965500D02*
X218130000Y-83965500D01*
X220353000Y-92036000D02*
X221353000Y-92036000D01*
X220353000Y-87796000D02*
X221353000Y-87796000D01*
X213241000Y-93369500D02*
X214241000Y-93369500D01*
X213241000Y-89129500D02*
X214241000Y-89129500D01*
X216606000Y-78334500D02*
X217606000Y-78334500D01*
X216606000Y-82574500D02*
X217606000Y-82574500D01*
X220782000Y-83082500D02*
X219782000Y-83082500D01*
X220782000Y-78842500D02*
X219782000Y-78842500D01*
D12*
X87126500Y-77424500D02*
X89276500Y-77424500D01*
X86301500Y-79674500D02*
X89276500Y-79674500D01*
D11*
X94817500Y-84085000D02*
X94817500Y-82285000D01*
X98037500Y-82285000D02*
X98037500Y-84735000D01*
D12*
X104970000Y-79674500D02*
X107945000Y-79674500D01*
X105795000Y-77424500D02*
X107945000Y-77424500D01*
D11*
X113198000Y-84021500D02*
X113198000Y-82221500D01*
X116418000Y-82221500D02*
X116418000Y-84671500D01*
D12*
X123131000Y-72027000D02*
X125281000Y-72027000D01*
X122306000Y-74277000D02*
X125281000Y-74277000D01*
D11*
X134178000Y-76697000D02*
X134178000Y-79147000D01*
X130958000Y-78497000D02*
X130958000Y-76697000D01*
D12*
X111795000Y-110274000D02*
X114770000Y-110274000D01*
X112620000Y-108024000D02*
X114770000Y-108024000D01*
X126237000Y-93707500D02*
X126237000Y-90532500D01*
X122937000Y-92982500D02*
X122937000Y-90532500D01*
X221113000Y-68145000D02*
X218138000Y-68145000D01*
X220288000Y-70395000D02*
X218138000Y-70395000D01*
D11*
X37228000Y-94867500D02*
X37228000Y-96767500D01*
X34908000Y-96267500D02*
X34908000Y-94867500D01*
X177990000Y-90899500D02*
X180990000Y-90899500D01*
X176990000Y-94139500D02*
X178990000Y-94139500D01*
D12*
X54266500Y-101947000D02*
X54266500Y-104047000D01*
X51016500Y-101172000D02*
X51016500Y-104047000D01*
D11*
X125880000Y-97334500D02*
X125880000Y-99134500D01*
X122660000Y-99134500D02*
X122660000Y-96684500D01*
X123642000Y-94209500D02*
X124642000Y-94209500D01*
X124642000Y-95909500D02*
X123642000Y-95909500D01*
X80362500Y-81311000D02*
X80362500Y-82011000D01*
X81562500Y-82011000D02*
X81562500Y-81311000D01*
X100422000Y-81820500D02*
X100422000Y-81120500D01*
X99222000Y-81120500D02*
X99222000Y-81820500D01*
X116430000Y-75659500D02*
X116430000Y-76359500D01*
X117630000Y-76359500D02*
X117630000Y-75659500D01*
X77247000Y-101248000D02*
X77947000Y-101248000D01*
X77947000Y-100048000D02*
X77247000Y-100048000D01*
X83590500Y-82970500D02*
X81890500Y-82970500D01*
X81890500Y-82970500D02*
X81890500Y-80420500D01*
X83590500Y-82970500D02*
X83590500Y-80420500D01*
X102462000Y-82970500D02*
X102462000Y-80420500D01*
X100762000Y-82970500D02*
X100762000Y-80420500D01*
X102462000Y-82970500D02*
X100762000Y-82970500D01*
X119658000Y-77509500D02*
X119658000Y-74959500D01*
X117958000Y-77509500D02*
X117958000Y-74959500D01*
X119658000Y-77509500D02*
X117958000Y-77509500D01*
X171806000Y-69302500D02*
X173506000Y-69302500D01*
X173506000Y-69302500D02*
X173506000Y-71852500D01*
X171806000Y-69302500D02*
X171806000Y-71852500D01*
D12*
X59713880Y-70421714D02*
X60523404Y-70421714D01*
X60618642Y-70469333D01*
X60666261Y-70516952D01*
X60713880Y-70612190D01*
X60713880Y-70802666D01*
X60666261Y-70897904D01*
X60618642Y-70945523D01*
X60523404Y-70993142D01*
X59713880Y-70993142D01*
X59713880Y-71374095D02*
X59713880Y-71993142D01*
X60094833Y-71659809D01*
X60094833Y-71802666D01*
X60142452Y-71897904D01*
X60190071Y-71945523D01*
X60285309Y-71993142D01*
X60523404Y-71993142D01*
X60618642Y-71945523D01*
X60666261Y-71897904D01*
X60713880Y-71802666D01*
X60713880Y-71516952D01*
X60666261Y-71421714D01*
X60618642Y-71374095D01*
X59713880Y-72612190D02*
X59713880Y-72707428D01*
X59761500Y-72802666D01*
X59809119Y-72850285D01*
X59904357Y-72897904D01*
X60094833Y-72945523D01*
X60332928Y-72945523D01*
X60523404Y-72897904D01*
X60618642Y-72850285D01*
X60666261Y-72802666D01*
X60713880Y-72707428D01*
X60713880Y-72612190D01*
X60666261Y-72516952D01*
X60618642Y-72469333D01*
X60523404Y-72421714D01*
X60332928Y-72374095D01*
X60094833Y-72374095D01*
X59904357Y-72421714D01*
X59809119Y-72469333D01*
X59761500Y-72516952D01*
X59713880Y-72612190D01*
X59809119Y-73326476D02*
X59761500Y-73374095D01*
X59713880Y-73469333D01*
X59713880Y-73707428D01*
X59761500Y-73802666D01*
X59809119Y-73850285D01*
X59904357Y-73897904D01*
X59999595Y-73897904D01*
X60142452Y-73850285D01*
X60713880Y-73278857D01*
X60713880Y-73897904D01*
X66929380Y-80073714D02*
X67738904Y-80073714D01*
X67834142Y-80121333D01*
X67881761Y-80168952D01*
X67929380Y-80264190D01*
X67929380Y-80454666D01*
X67881761Y-80549904D01*
X67834142Y-80597523D01*
X67738904Y-80645142D01*
X66929380Y-80645142D01*
X66929380Y-81026095D02*
X66929380Y-81645142D01*
X67310333Y-81311809D01*
X67310333Y-81454666D01*
X67357952Y-81549904D01*
X67405571Y-81597523D01*
X67500809Y-81645142D01*
X67738904Y-81645142D01*
X67834142Y-81597523D01*
X67881761Y-81549904D01*
X67929380Y-81454666D01*
X67929380Y-81168952D01*
X67881761Y-81073714D01*
X67834142Y-81026095D01*
X66929380Y-82264190D02*
X66929380Y-82359428D01*
X66977000Y-82454666D01*
X67024619Y-82502285D01*
X67119857Y-82549904D01*
X67310333Y-82597523D01*
X67548428Y-82597523D01*
X67738904Y-82549904D01*
X67834142Y-82502285D01*
X67881761Y-82454666D01*
X67929380Y-82359428D01*
X67929380Y-82264190D01*
X67881761Y-82168952D01*
X67834142Y-82121333D01*
X67738904Y-82073714D01*
X67548428Y-82026095D01*
X67310333Y-82026095D01*
X67119857Y-82073714D01*
X67024619Y-82121333D01*
X66977000Y-82168952D01*
X66929380Y-82264190D01*
X67929380Y-83549904D02*
X67929380Y-82978476D01*
X67929380Y-83264190D02*
X66929380Y-83264190D01*
X67072238Y-83168952D01*
X67167476Y-83073714D01*
X67215095Y-82978476D01*
X89915785Y-80051880D02*
X89915785Y-80861404D01*
X89868166Y-80956642D01*
X89820547Y-81004261D01*
X89725309Y-81051880D01*
X89534833Y-81051880D01*
X89439595Y-81004261D01*
X89391976Y-80956642D01*
X89344357Y-80861404D01*
X89344357Y-80051880D01*
X88391976Y-80051880D02*
X88868166Y-80051880D01*
X88915785Y-80528071D01*
X88868166Y-80480452D01*
X88772928Y-80432833D01*
X88534833Y-80432833D01*
X88439595Y-80480452D01*
X88391976Y-80528071D01*
X88344357Y-80623309D01*
X88344357Y-80861404D01*
X88391976Y-80956642D01*
X88439595Y-81004261D01*
X88534833Y-81051880D01*
X88772928Y-81051880D01*
X88868166Y-81004261D01*
X88915785Y-80956642D01*
X87725309Y-80051880D02*
X87630071Y-80051880D01*
X87534833Y-80099500D01*
X87487214Y-80147119D01*
X87439595Y-80242357D01*
X87391976Y-80432833D01*
X87391976Y-80670928D01*
X87439595Y-80861404D01*
X87487214Y-80956642D01*
X87534833Y-81004261D01*
X87630071Y-81051880D01*
X87725309Y-81051880D01*
X87820547Y-81004261D01*
X87868166Y-80956642D01*
X87915785Y-80861404D01*
X87963404Y-80670928D01*
X87963404Y-80432833D01*
X87915785Y-80242357D01*
X87868166Y-80147119D01*
X87820547Y-80099500D01*
X87725309Y-80051880D01*
X87011023Y-80147119D02*
X86963404Y-80099500D01*
X86868166Y-80051880D01*
X86630071Y-80051880D01*
X86534833Y-80099500D01*
X86487214Y-80147119D01*
X86439595Y-80242357D01*
X86439595Y-80337595D01*
X86487214Y-80480452D01*
X87058642Y-81051880D01*
X86439595Y-81051880D01*
X98379880Y-81470714D02*
X99189404Y-81470714D01*
X99284642Y-81518333D01*
X99332261Y-81565952D01*
X99379880Y-81661190D01*
X99379880Y-81851666D01*
X99332261Y-81946904D01*
X99284642Y-81994523D01*
X99189404Y-82042142D01*
X98379880Y-82042142D01*
X98379880Y-82994523D02*
X98379880Y-82518333D01*
X98856071Y-82470714D01*
X98808452Y-82518333D01*
X98760833Y-82613571D01*
X98760833Y-82851666D01*
X98808452Y-82946904D01*
X98856071Y-82994523D01*
X98951309Y-83042142D01*
X99189404Y-83042142D01*
X99284642Y-82994523D01*
X99332261Y-82946904D01*
X99379880Y-82851666D01*
X99379880Y-82613571D01*
X99332261Y-82518333D01*
X99284642Y-82470714D01*
X98379880Y-83661190D02*
X98379880Y-83756428D01*
X98427500Y-83851666D01*
X98475119Y-83899285D01*
X98570357Y-83946904D01*
X98760833Y-83994523D01*
X98998928Y-83994523D01*
X99189404Y-83946904D01*
X99284642Y-83899285D01*
X99332261Y-83851666D01*
X99379880Y-83756428D01*
X99379880Y-83661190D01*
X99332261Y-83565952D01*
X99284642Y-83518333D01*
X99189404Y-83470714D01*
X98998928Y-83423095D01*
X98760833Y-83423095D01*
X98570357Y-83470714D01*
X98475119Y-83518333D01*
X98427500Y-83565952D01*
X98379880Y-83661190D01*
X98379880Y-84327857D02*
X98379880Y-84946904D01*
X98760833Y-84613571D01*
X98760833Y-84756428D01*
X98808452Y-84851666D01*
X98856071Y-84899285D01*
X98951309Y-84946904D01*
X99189404Y-84946904D01*
X99284642Y-84899285D01*
X99332261Y-84851666D01*
X99379880Y-84756428D01*
X99379880Y-84470714D01*
X99332261Y-84375476D01*
X99284642Y-84327857D01*
X108584285Y-80051880D02*
X108584285Y-80861404D01*
X108536666Y-80956642D01*
X108489047Y-81004261D01*
X108393809Y-81051880D01*
X108203333Y-81051880D01*
X108108095Y-81004261D01*
X108060476Y-80956642D01*
X108012857Y-80861404D01*
X108012857Y-80051880D01*
X107631904Y-80051880D02*
X106965238Y-80051880D01*
X107393809Y-81051880D01*
X106393809Y-80051880D02*
X106298571Y-80051880D01*
X106203333Y-80099500D01*
X106155714Y-80147119D01*
X106108095Y-80242357D01*
X106060476Y-80432833D01*
X106060476Y-80670928D01*
X106108095Y-80861404D01*
X106155714Y-80956642D01*
X106203333Y-81004261D01*
X106298571Y-81051880D01*
X106393809Y-81051880D01*
X106489047Y-81004261D01*
X106536666Y-80956642D01*
X106584285Y-80861404D01*
X106631904Y-80670928D01*
X106631904Y-80432833D01*
X106584285Y-80242357D01*
X106536666Y-80147119D01*
X106489047Y-80099500D01*
X106393809Y-80051880D01*
X105679523Y-80147119D02*
X105631904Y-80099500D01*
X105536666Y-80051880D01*
X105298571Y-80051880D01*
X105203333Y-80099500D01*
X105155714Y-80147119D01*
X105108095Y-80242357D01*
X105108095Y-80337595D01*
X105155714Y-80480452D01*
X105727142Y-81051880D01*
X105108095Y-81051880D01*
X116204785Y-79843380D02*
X116204785Y-80652904D01*
X116157166Y-80748142D01*
X116109547Y-80795761D01*
X116014309Y-80843380D01*
X115823833Y-80843380D01*
X115728595Y-80795761D01*
X115680976Y-80748142D01*
X115633357Y-80652904D01*
X115633357Y-79843380D01*
X115252404Y-79843380D02*
X114585738Y-79843380D01*
X115014309Y-80843380D01*
X114014309Y-79843380D02*
X113919071Y-79843380D01*
X113823833Y-79891000D01*
X113776214Y-79938619D01*
X113728595Y-80033857D01*
X113680976Y-80224333D01*
X113680976Y-80462428D01*
X113728595Y-80652904D01*
X113776214Y-80748142D01*
X113823833Y-80795761D01*
X113919071Y-80843380D01*
X114014309Y-80843380D01*
X114109547Y-80795761D01*
X114157166Y-80748142D01*
X114204785Y-80652904D01*
X114252404Y-80462428D01*
X114252404Y-80224333D01*
X114204785Y-80033857D01*
X114157166Y-79938619D01*
X114109547Y-79891000D01*
X114014309Y-79843380D01*
X113347642Y-79843380D02*
X112728595Y-79843380D01*
X113061928Y-80224333D01*
X112919071Y-80224333D01*
X112823833Y-80271952D01*
X112776214Y-80319571D01*
X112728595Y-80414809D01*
X112728595Y-80652904D01*
X112776214Y-80748142D01*
X112823833Y-80795761D01*
X112919071Y-80843380D01*
X113204785Y-80843380D01*
X113300023Y-80795761D01*
X113347642Y-80748142D01*
X125920285Y-74654380D02*
X125920285Y-75463904D01*
X125872666Y-75559142D01*
X125825047Y-75606761D01*
X125729809Y-75654380D01*
X125539333Y-75654380D01*
X125444095Y-75606761D01*
X125396476Y-75559142D01*
X125348857Y-75463904D01*
X125348857Y-74654380D01*
X124825047Y-75654380D02*
X124634571Y-75654380D01*
X124539333Y-75606761D01*
X124491714Y-75559142D01*
X124396476Y-75416285D01*
X124348857Y-75225809D01*
X124348857Y-74844857D01*
X124396476Y-74749619D01*
X124444095Y-74702000D01*
X124539333Y-74654380D01*
X124729809Y-74654380D01*
X124825047Y-74702000D01*
X124872666Y-74749619D01*
X124920285Y-74844857D01*
X124920285Y-75082952D01*
X124872666Y-75178190D01*
X124825047Y-75225809D01*
X124729809Y-75273428D01*
X124539333Y-75273428D01*
X124444095Y-75225809D01*
X124396476Y-75178190D01*
X124348857Y-75082952D01*
X123729809Y-74654380D02*
X123634571Y-74654380D01*
X123539333Y-74702000D01*
X123491714Y-74749619D01*
X123444095Y-74844857D01*
X123396476Y-75035333D01*
X123396476Y-75273428D01*
X123444095Y-75463904D01*
X123491714Y-75559142D01*
X123539333Y-75606761D01*
X123634571Y-75654380D01*
X123729809Y-75654380D01*
X123825047Y-75606761D01*
X123872666Y-75559142D01*
X123920285Y-75463904D01*
X123967904Y-75273428D01*
X123967904Y-75035333D01*
X123920285Y-74844857D01*
X123872666Y-74749619D01*
X123825047Y-74702000D01*
X123729809Y-74654380D01*
X123015523Y-74749619D02*
X122967904Y-74702000D01*
X122872666Y-74654380D01*
X122634571Y-74654380D01*
X122539333Y-74702000D01*
X122491714Y-74749619D01*
X122444095Y-74844857D01*
X122444095Y-74940095D01*
X122491714Y-75082952D01*
X123063142Y-75654380D01*
X122444095Y-75654380D01*
X134520380Y-75882714D02*
X135329904Y-75882714D01*
X135425142Y-75930333D01*
X135472761Y-75977952D01*
X135520380Y-76073190D01*
X135520380Y-76263666D01*
X135472761Y-76358904D01*
X135425142Y-76406523D01*
X135329904Y-76454142D01*
X134520380Y-76454142D01*
X135520380Y-76977952D02*
X135520380Y-77168428D01*
X135472761Y-77263666D01*
X135425142Y-77311285D01*
X135282285Y-77406523D01*
X135091809Y-77454142D01*
X134710857Y-77454142D01*
X134615619Y-77406523D01*
X134568000Y-77358904D01*
X134520380Y-77263666D01*
X134520380Y-77073190D01*
X134568000Y-76977952D01*
X134615619Y-76930333D01*
X134710857Y-76882714D01*
X134948952Y-76882714D01*
X135044190Y-76930333D01*
X135091809Y-76977952D01*
X135139428Y-77073190D01*
X135139428Y-77263666D01*
X135091809Y-77358904D01*
X135044190Y-77406523D01*
X134948952Y-77454142D01*
X134520380Y-78073190D02*
X134520380Y-78168428D01*
X134568000Y-78263666D01*
X134615619Y-78311285D01*
X134710857Y-78358904D01*
X134901333Y-78406523D01*
X135139428Y-78406523D01*
X135329904Y-78358904D01*
X135425142Y-78311285D01*
X135472761Y-78263666D01*
X135520380Y-78168428D01*
X135520380Y-78073190D01*
X135472761Y-77977952D01*
X135425142Y-77930333D01*
X135329904Y-77882714D01*
X135139428Y-77835095D01*
X134901333Y-77835095D01*
X134710857Y-77882714D01*
X134615619Y-77930333D01*
X134568000Y-77977952D01*
X134520380Y-78073190D01*
X134520380Y-78739857D02*
X134520380Y-79358904D01*
X134901333Y-79025571D01*
X134901333Y-79168428D01*
X134948952Y-79263666D01*
X134996571Y-79311285D01*
X135091809Y-79358904D01*
X135329904Y-79358904D01*
X135425142Y-79311285D01*
X135472761Y-79263666D01*
X135520380Y-79168428D01*
X135520380Y-78882714D01*
X135472761Y-78787476D01*
X135425142Y-78739857D01*
X115885476Y-110651380D02*
X115885476Y-111460904D01*
X115837857Y-111556142D01*
X115790238Y-111603761D01*
X115695000Y-111651380D01*
X115504523Y-111651380D01*
X115409285Y-111603761D01*
X115361666Y-111556142D01*
X115314047Y-111460904D01*
X115314047Y-110651380D01*
X114314047Y-111651380D02*
X114885476Y-111651380D01*
X114599761Y-111651380D02*
X114599761Y-110651380D01*
X114695000Y-110794238D01*
X114790238Y-110889476D01*
X114885476Y-110937095D01*
X113361666Y-111651380D02*
X113933095Y-111651380D01*
X113647380Y-111651380D02*
X113647380Y-110651380D01*
X113742619Y-110794238D01*
X113837857Y-110889476D01*
X113933095Y-110937095D01*
X112742619Y-110651380D02*
X112647380Y-110651380D01*
X112552142Y-110699000D01*
X112504523Y-110746619D01*
X112456904Y-110841857D01*
X112409285Y-111032333D01*
X112409285Y-111270428D01*
X112456904Y-111460904D01*
X112504523Y-111556142D01*
X112552142Y-111603761D01*
X112647380Y-111651380D01*
X112742619Y-111651380D01*
X112837857Y-111603761D01*
X112885476Y-111556142D01*
X112933095Y-111460904D01*
X112980714Y-111270428D01*
X112980714Y-111032333D01*
X112933095Y-110841857D01*
X112885476Y-110746619D01*
X112837857Y-110699000D01*
X112742619Y-110651380D01*
X111456904Y-111651380D02*
X112028333Y-111651380D01*
X111742619Y-111651380D02*
X111742619Y-110651380D01*
X111837857Y-110794238D01*
X111933095Y-110889476D01*
X112028333Y-110937095D01*
X121372380Y-89567023D02*
X122181904Y-89567023D01*
X122277142Y-89614642D01*
X122324761Y-89662261D01*
X122372380Y-89757500D01*
X122372380Y-89947976D01*
X122324761Y-90043214D01*
X122277142Y-90090833D01*
X122181904Y-90138452D01*
X121372380Y-90138452D01*
X122372380Y-91138452D02*
X122372380Y-90567023D01*
X122372380Y-90852738D02*
X121372380Y-90852738D01*
X121515238Y-90757500D01*
X121610476Y-90662261D01*
X121658095Y-90567023D01*
X122372380Y-92090833D02*
X122372380Y-91519404D01*
X122372380Y-91805119D02*
X121372380Y-91805119D01*
X121515238Y-91709880D01*
X121610476Y-91614642D01*
X121658095Y-91519404D01*
X121372380Y-92709880D02*
X121372380Y-92805119D01*
X121420000Y-92900357D01*
X121467619Y-92947976D01*
X121562857Y-92995595D01*
X121753333Y-93043214D01*
X121991428Y-93043214D01*
X122181904Y-92995595D01*
X122277142Y-92947976D01*
X122324761Y-92900357D01*
X122372380Y-92805119D01*
X122372380Y-92709880D01*
X122324761Y-92614642D01*
X122277142Y-92567023D01*
X122181904Y-92519404D01*
X121991428Y-92471785D01*
X121753333Y-92471785D01*
X121562857Y-92519404D01*
X121467619Y-92567023D01*
X121420000Y-92614642D01*
X121372380Y-92709880D01*
X121372380Y-93376547D02*
X121372380Y-93995595D01*
X121753333Y-93662261D01*
X121753333Y-93805119D01*
X121800952Y-93900357D01*
X121848571Y-93947976D01*
X121943809Y-93995595D01*
X122181904Y-93995595D01*
X122277142Y-93947976D01*
X122324761Y-93900357D01*
X122372380Y-93805119D01*
X122372380Y-93519404D01*
X122324761Y-93424166D01*
X122277142Y-93376547D01*
X221392477Y-71016879D02*
X221392477Y-71826403D01*
X221344858Y-71921641D01*
X221297239Y-71969260D01*
X221202001Y-72016879D01*
X221011524Y-72016879D01*
X220916286Y-71969260D01*
X220868667Y-71921641D01*
X220821048Y-71826403D01*
X220821048Y-71016879D01*
X219821048Y-72016879D02*
X220392477Y-72016879D01*
X220106762Y-72016879D02*
X220106762Y-71016879D01*
X220202001Y-71159737D01*
X220297239Y-71254975D01*
X220392477Y-71302594D01*
X219249620Y-71445451D02*
X219344858Y-71397832D01*
X219392477Y-71350213D01*
X219440096Y-71254975D01*
X219440096Y-71207356D01*
X219392477Y-71112118D01*
X219344858Y-71064499D01*
X219249620Y-71016879D01*
X219059143Y-71016879D01*
X218963905Y-71064499D01*
X218916286Y-71112118D01*
X218868667Y-71207356D01*
X218868667Y-71254975D01*
X218916286Y-71350213D01*
X218963905Y-71397832D01*
X219059143Y-71445451D01*
X219249620Y-71445451D01*
X219344858Y-71493070D01*
X219392477Y-71540689D01*
X219440096Y-71635927D01*
X219440096Y-71826403D01*
X219392477Y-71921641D01*
X219344858Y-71969260D01*
X219249620Y-72016879D01*
X219059143Y-72016879D01*
X218963905Y-71969260D01*
X218916286Y-71921641D01*
X218868667Y-71826403D01*
X218868667Y-71635927D01*
X218916286Y-71540689D01*
X218963905Y-71493070D01*
X219059143Y-71445451D01*
X218249620Y-71016879D02*
X218154381Y-71016879D01*
X218059143Y-71064499D01*
X218011524Y-71112118D01*
X217963905Y-71207356D01*
X217916286Y-71397832D01*
X217916286Y-71635927D01*
X217963905Y-71826403D01*
X218011524Y-71921641D01*
X218059143Y-71969260D01*
X218154381Y-72016879D01*
X218249620Y-72016879D01*
X218344858Y-71969260D01*
X218392477Y-71921641D01*
X218440096Y-71826403D01*
X218487715Y-71635927D01*
X218487715Y-71397832D01*
X218440096Y-71207356D01*
X218392477Y-71112118D01*
X218344858Y-71064499D01*
X218249620Y-71016879D01*
X217582953Y-71016879D02*
X216963905Y-71016879D01*
X217297239Y-71397832D01*
X217154381Y-71397832D01*
X217059143Y-71445451D01*
X217011524Y-71493070D01*
X216963905Y-71588308D01*
X216963905Y-71826403D01*
X217011524Y-71921641D01*
X217059143Y-71969260D01*
X217154381Y-72016879D01*
X217440096Y-72016879D01*
X217535334Y-71969260D01*
X217582953Y-71921641D01*
X42195476Y-95019880D02*
X42195476Y-95829404D01*
X42147857Y-95924642D01*
X42100238Y-95972261D01*
X42005000Y-96019880D01*
X41814523Y-96019880D01*
X41719285Y-95972261D01*
X41671666Y-95924642D01*
X41624047Y-95829404D01*
X41624047Y-95019880D01*
X41195476Y-95115119D02*
X41147857Y-95067500D01*
X41052619Y-95019880D01*
X40814523Y-95019880D01*
X40719285Y-95067500D01*
X40671666Y-95115119D01*
X40624047Y-95210357D01*
X40624047Y-95305595D01*
X40671666Y-95448452D01*
X41243095Y-96019880D01*
X40624047Y-96019880D01*
X39671666Y-96019880D02*
X40243095Y-96019880D01*
X39957380Y-96019880D02*
X39957380Y-95019880D01*
X40052619Y-95162738D01*
X40147857Y-95257976D01*
X40243095Y-95305595D01*
X39052619Y-95019880D02*
X38957380Y-95019880D01*
X38862142Y-95067500D01*
X38814523Y-95115119D01*
X38766904Y-95210357D01*
X38719285Y-95400833D01*
X38719285Y-95638928D01*
X38766904Y-95829404D01*
X38814523Y-95924642D01*
X38862142Y-95972261D01*
X38957380Y-96019880D01*
X39052619Y-96019880D01*
X39147857Y-95972261D01*
X39195476Y-95924642D01*
X39243095Y-95829404D01*
X39290714Y-95638928D01*
X39290714Y-95400833D01*
X39243095Y-95210357D01*
X39195476Y-95115119D01*
X39147857Y-95067500D01*
X39052619Y-95019880D01*
X37814523Y-95019880D02*
X38290714Y-95019880D01*
X38338333Y-95496071D01*
X38290714Y-95448452D01*
X38195476Y-95400833D01*
X37957380Y-95400833D01*
X37862142Y-95448452D01*
X37814523Y-95496071D01*
X37766904Y-95591309D01*
X37766904Y-95829404D01*
X37814523Y-95924642D01*
X37862142Y-95972261D01*
X37957380Y-96019880D01*
X38195476Y-96019880D01*
X38290714Y-95972261D01*
X38338333Y-95924642D01*
X179862976Y-89471880D02*
X179862976Y-90281404D01*
X179815357Y-90376642D01*
X179767738Y-90424261D01*
X179672500Y-90471880D01*
X179482023Y-90471880D01*
X179386785Y-90424261D01*
X179339166Y-90376642D01*
X179291547Y-90281404D01*
X179291547Y-89471880D01*
X178862976Y-89567119D02*
X178815357Y-89519500D01*
X178720119Y-89471880D01*
X178482023Y-89471880D01*
X178386785Y-89519500D01*
X178339166Y-89567119D01*
X178291547Y-89662357D01*
X178291547Y-89757595D01*
X178339166Y-89900452D01*
X178910595Y-90471880D01*
X178291547Y-90471880D01*
X177910595Y-89567119D02*
X177862976Y-89519500D01*
X177767738Y-89471880D01*
X177529642Y-89471880D01*
X177434404Y-89519500D01*
X177386785Y-89567119D01*
X177339166Y-89662357D01*
X177339166Y-89757595D01*
X177386785Y-89900452D01*
X177958214Y-90471880D01*
X177339166Y-90471880D01*
X176720119Y-89471880D02*
X176624880Y-89471880D01*
X176529642Y-89519500D01*
X176482023Y-89567119D01*
X176434404Y-89662357D01*
X176386785Y-89852833D01*
X176386785Y-90090928D01*
X176434404Y-90281404D01*
X176482023Y-90376642D01*
X176529642Y-90424261D01*
X176624880Y-90471880D01*
X176720119Y-90471880D01*
X176815357Y-90424261D01*
X176862976Y-90376642D01*
X176910595Y-90281404D01*
X176958214Y-90090928D01*
X176958214Y-89852833D01*
X176910595Y-89662357D01*
X176862976Y-89567119D01*
X176815357Y-89519500D01*
X176720119Y-89471880D01*
X175434404Y-90471880D02*
X176005833Y-90471880D01*
X175720119Y-90471880D02*
X175720119Y-89471880D01*
X175815357Y-89614738D01*
X175910595Y-89709976D01*
X176005833Y-89757595D01*
X49543880Y-100806523D02*
X50353404Y-100806523D01*
X50448642Y-100854142D01*
X50496261Y-100901761D01*
X50543880Y-100997000D01*
X50543880Y-101187476D01*
X50496261Y-101282714D01*
X50448642Y-101330333D01*
X50353404Y-101377952D01*
X49543880Y-101377952D01*
X49639119Y-101806523D02*
X49591500Y-101854142D01*
X49543880Y-101949380D01*
X49543880Y-102187476D01*
X49591500Y-102282714D01*
X49639119Y-102330333D01*
X49734357Y-102377952D01*
X49829595Y-102377952D01*
X49972452Y-102330333D01*
X50543880Y-101758904D01*
X50543880Y-102377952D01*
X49877214Y-103235095D02*
X50543880Y-103235095D01*
X49496261Y-102997000D02*
X50210547Y-102758904D01*
X50210547Y-103377952D01*
X49543880Y-103949380D02*
X49543880Y-104044619D01*
X49591500Y-104139857D01*
X49639119Y-104187476D01*
X49734357Y-104235095D01*
X49924833Y-104282714D01*
X50162928Y-104282714D01*
X50353404Y-104235095D01*
X50448642Y-104187476D01*
X50496261Y-104139857D01*
X50543880Y-104044619D01*
X50543880Y-103949380D01*
X50496261Y-103854142D01*
X50448642Y-103806523D01*
X50353404Y-103758904D01*
X50162928Y-103711285D01*
X49924833Y-103711285D01*
X49734357Y-103758904D01*
X49639119Y-103806523D01*
X49591500Y-103854142D01*
X49543880Y-103949380D01*
X49639119Y-104663666D02*
X49591500Y-104711285D01*
X49543880Y-104806523D01*
X49543880Y-105044619D01*
X49591500Y-105139857D01*
X49639119Y-105187476D01*
X49734357Y-105235095D01*
X49829595Y-105235095D01*
X49972452Y-105187476D01*
X50543880Y-104616047D01*
X50543880Y-105235095D01*
X125761976Y-95083380D02*
X125761976Y-95892904D01*
X125714357Y-95988142D01*
X125666738Y-96035761D01*
X125571500Y-96083380D01*
X125381023Y-96083380D01*
X125285785Y-96035761D01*
X125238166Y-95988142D01*
X125190547Y-95892904D01*
X125190547Y-95083380D01*
X124190547Y-96083380D02*
X124761976Y-96083380D01*
X124476261Y-96083380D02*
X124476261Y-95083380D01*
X124571500Y-95226238D01*
X124666738Y-95321476D01*
X124761976Y-95369095D01*
X123571500Y-95083380D02*
X123476261Y-95083380D01*
X123381023Y-95131000D01*
X123333404Y-95178619D01*
X123285785Y-95273857D01*
X123238166Y-95464333D01*
X123238166Y-95702428D01*
X123285785Y-95892904D01*
X123333404Y-95988142D01*
X123381023Y-96035761D01*
X123476261Y-96083380D01*
X123571500Y-96083380D01*
X123666738Y-96035761D01*
X123714357Y-95988142D01*
X123761976Y-95892904D01*
X123809595Y-95702428D01*
X123809595Y-95464333D01*
X123761976Y-95273857D01*
X123714357Y-95178619D01*
X123666738Y-95131000D01*
X123571500Y-95083380D01*
X122619119Y-95083380D02*
X122523880Y-95083380D01*
X122428642Y-95131000D01*
X122381023Y-95178619D01*
X122333404Y-95273857D01*
X122285785Y-95464333D01*
X122285785Y-95702428D01*
X122333404Y-95892904D01*
X122381023Y-95988142D01*
X122428642Y-96035761D01*
X122523880Y-96083380D01*
X122619119Y-96083380D01*
X122714357Y-96035761D01*
X122761976Y-95988142D01*
X122809595Y-95892904D01*
X122857214Y-95702428D01*
X122857214Y-95464333D01*
X122809595Y-95273857D01*
X122761976Y-95178619D01*
X122714357Y-95131000D01*
X122619119Y-95083380D01*
X121333404Y-96083380D02*
X121904833Y-96083380D01*
X121619119Y-96083380D02*
X121619119Y-95083380D01*
X121714357Y-95226238D01*
X121809595Y-95321476D01*
X121904833Y-95369095D01*
M02*
